<?xml version="1.0" encoding="UTF-8"?>
<!-- Created with Inkscape (http://www.inkscape.org/) -->
<svg width="64" height="64" version="1.1" viewBox="0 0 16.933 16.933" xmlns="http://www.w3.org/2000/svg" xmlns:cc="http://creativecommons.org/ns#" xmlns:dc="http://purl.org/dc/elements/1.1/" xmlns:rdf="http://www.w3.org/1999/02/22-rdf-syntax-ns#">
 <defs>
  <filter id="filter2076-6" x="-.048" y="-.048" width="1.096" height="1.096" color-interpolation-filters="sRGB">
   <feGaussianBlur stdDeviation="1.1"/>
  </filter>
 </defs>
 <metadata>
  <rdf:RDF>
   <cc:Work rdf:about="">
    <dc:format>image/svg+xml</dc:format>
    <dc:type rdf:resource="http://purl.org/dc/dcmitype/StillImage"/>
   </cc:Work>
  </rdf:RDF>
 </metadata>
 <g transform="translate(22.486 .66812)">
  <rect transform="matrix(.26458 0 0 .26458 -22.486 -.66812)" x="4.5" y="4.5" width="55" height="55" rx="13.002" ry="13.002" filter="url(#filter2076-6)" opacity=".3"/>
  <path d="m-17.855 0.52248c-1.9058 0-3.44 1.5342-3.44 3.44v7.6717c0 1.9058 1.5342 3.44 3.44 3.44h7.6717c1.9058 0 3.44-1.5342 3.44-3.44v-7.6717c0-1.9058-1.5342-3.44-3.44-3.44z" fill="#1964ff" stroke-linecap="round" stroke-width=".079373" style="paint-order:stroke fill markers"/>
  <path d="m-17.634 2.11c-1.1488 0-2.0737 0.92498-2.0737 2.0737v7.2294c0 1.1488 0.92498 2.0737 2.0737 2.0737h7.2294c1.1488 0 2.0737-0.92498 2.0737-2.0737v-7.2294c0-1.1488-0.92498-2.0737-2.0737-2.0737z" fill="#fafafa" stroke-linecap="round" stroke-width=".079373" style="paint-order:stroke fill markers"/>
  <path d="m-18.222 3.5596c5e-3 0.04062 0.0099 0.08118 0.01548 0.12163h8.376c0.0052-0.0437 0.0097-0.07849 0.01437-0.12163z" fill="#1964ff" opacity=".6" stroke-width=".67718" style="paint-order:normal"/>
  <path d="m-20.734 2.9218c-0.31183 0-0.56274 0.25092-0.56274 0.56274v1.8278c0 0.02268 0.0041 0.04418 0.0067 0.06615-0.0055 0.54053-0.0052 1.1567-0.0052 1.9652v0.22427h-5.16e-4v4.0663c0 0.03645 0.0041 0.07184 0.0052 0.108 2e-3 0.05118 0.0031 0.10258 0.0078 0.15296 0.12639 1.6956 1.4693 3.0388 3.1646 3.1662 0.08518 0.0081 0.17144 0.0128 0.25941 0.01292 0.0012 3e-6 0.0024 0 0.0036 0h7.6712 5.17e-4c0.08936 0 0.17707-0.0047 0.26354-0.01292 1.691-0.12755 3.0311-1.4649 3.1625-3.1548 0.0087-0.08956 0.01395-0.18019 0.01395-0.27233v-4.1439c1.6e-5 -0.0018 5.17e-4 -0.0034 5.17e-4 -0.0052v-1.8278c0-0.31183-0.25092-0.56274-0.56274-0.56274h-6.0068c-0.27152 0-0.48409-0.01833-0.66041-0.06511-0.17632-0.04678-0.31607-0.12227-0.44079-0.23564s-0.23465-0.2648-0.35139-0.46456c-0.11674-0.19977-0.24036-0.44746-0.39273-0.75343-0.07349-0.18081-0.17612-0.31227-0.28835-0.4072-0.11223-0.09493-0.23385-0.15348-0.34674-0.18965-0.22578-0.07234-0.41495-0.05426-0.41495-0.05426h-2.5533c-0.01048-5.75e-4 -0.02036-0.0031-0.03101-0.0031h-0.91517z" fill="#198cff" stroke-width=".26458"/>
 </g>
 <path d="m8.4664 7.8746c-0.09142 0-0.18339 0.00737-0.27244 0.016622a2.5896 2.5896 0 0 0-0.51211 0.099087 2.6543 2.6543 0 0 0-1.7421 1.7421 2.5896 2.5896 0 0 0-0.09909 0.5121 2.6504 2.6504 0 0 0-0.01665 0.27243c0 0.09142 0.0074 0.18339 0.01665 0.27244a2.5896 2.5896 0 0 0 0.09909 0.5121 2.6543 2.6543 0 0 0 1.7421 1.7421 2.5896 2.5896 0 0 0 0.51211 0.09936c0.08905 9e-3 0.181 0.01638 0.27244 0.01638s0.18338-0.0074 0.27244-0.01662a2.5896 2.5896 0 0 0 0.5121-0.09882 2.6993 2.6993 0 0 0 0.4788-0.20664 2.6376 2.6376 0 0 0 1.2637-1.5358 2.5896 2.5896 0 0 0 0.09882-0.5121c0.0093-0.08905 0.01665-0.18101 0.01665-0.27244 0-0.09115-0.0075-0.18365-0.01665-0.27243a2.5896 2.5896 0 0 0-0.09882-0.51212 2.661 2.661 0 0 0-0.48727-0.89998c-0.05393-0.065261-0.11362-0.12181-0.1736-0.1818-0.23862-0.23861-0.51765-0.43626-0.8339-0.56971a2.7381 2.7381 0 0 0-0.2476-0.090636 2.5896 2.5896 0 0 0-0.5121-0.099087 2.7254 2.7254 0 0 0-0.27244-0.016622zm0 0.26423c0.39979 0 0.77582 0.098039 1.1066 0.27243 0.0087 0.00491 0.01589 0.011873 0.02455 0.016622 0.0066 0.00876 5e-3 0.01826 0.01665 0.024565 0.0085 0.00491 0.01665 0.012364 0.02455 0.016622 0.01399 0.00835 0.02772 0.01957 0.0248 0.032999-0.0034 0.019816-0.03595 0.018506-0.04943 0.033081 0.0016 0.027677-0.0095 0.022436-0.01665 0.041187 0.0042 0.012119 0.01481 0.010563 0.01665 0.024892-0.0025 0.015312-0.02247 0.017114-0.01665 0.032999 0.02588 0.020061 0.04993 0.00328 0.07449 0 0.0536-0.00655 0.09883 8.188e-4 0.13213-0.024811-0.0034-0.020634 0.01581-0.026366 0.02455-0.041187 0.01773 0.012364 0.03254 0.028577 0.04969 0.041187-0.01007 0.00409-0.0322 0.010809-0.04145 0.016622-0.01323 0.00901-0.01747 0.023009-0.03279 0.032999-0.01107 0.00737-0.03803 0.032999-0.04969 0.032999-0.01399 0-0.03962-0.011627-0.04969-0.00852-0.01423 0.00409-0.0085 0.027431-0.02455 0.032999-0.03171 0.011627-0.08799-0.03087-0.09909 0.016622 0.01323 0.027431 0.05842 0.01826 0.08247 0.032999 0.01507 0.0095 0.03754 0.058219 0.04153 0.074268a0.19369 0.19369 0 0 1 0 0.074514c-0.01507 0.038321-0.05493 0.033818-0.09936 0.032999-0.0119 0-0.02197 8.188e-4 -0.0328 0-0.07449-0.00491-0.14798-0.028577-0.1818 0.024565 0.0025 0.040941 0.0092 0.063377 0 0.099087-0.0066 0.025875-0.03437 0.043644-0.03304 0.06608 5.42e-4 0.011627 0.02197 0.033818 0.0248 0.049703 0.0016 0.00852-0.0042 0.025384 0 0.032999 0.0124 0.023582 0.04386-0.00409 0.06608 0 0.02114 0.00328 0.0412 0.034391 0.0412 0.057564a0.15089 0.15089 0 0 1-0.01665 0.06608c-0.02114 0.031689-0.0605 0.024074-0.09065 0.041433-0.02513 0.014248-0.03462 0.049212-0.04969 0.074268-0.01589 0.02694-0.03088 0.035947-0.02455 0.074268a0.17837 0.17837 0 0 1-0.0909 0.090898 0.26107 0.26107 0 0 0-0.04145 0.024892 0.20929 0.20929 0 0 0-0.03279 0.032999c-0.01689 0.018505-0.04045 0.026694-0.04969 0.041187-0.0066 0.011054-8.19e-4 0.034636-0.0083 0.049703-0.01057 0.020061-0.02805 0.037502-0.04145 0.057564-0.0058 0.00974-0.01798 0.020635-0.02455 0.033081-0.01531 0.028004-0.03595 0.049949-0.03304 0.074514 0.0025 0.023582 0.03171 0.028823 0.03304 0.049457 0.0016 0.011627-0.0087 0.020634-0.0085 0.032999 7.8e-4 0.0185 0.0066 0.02694 0.0085 0.04119 0.0034 0.0357-0.01823 0.04995-0.02488 0.07451-0.0034 0.01138 0.0025 0.02383 0 0.03275-0.0058 0.01801-0.03254 0.02858-0.03304 0.0497-5.42e-4 0.01482 0.02322 0.02858 0.0248 0.0497 8.19e-4 0.01433-0.01107 0.02768-0.0085 0.04119 5e-3 0.02587 0.05418 0.06231 0.07449 0.08247 0.02722 0.02743 0.05393 0.04545 0.06608 0.07451 0.01007 0.02432 0.01423 0.06428 0.03304 0.08247 0.01373 0.01327 0.03987 0.01908 0.05759 0.03308 0.01689 0.01326 0.0402 0.01908 0.05818 0.03308 0.02904 0.02293 0.06866 0.06952 0.11547 0.06608 0.0243-0.0016 0.04677-0.01163 0.07423-0.01662 0.0283-0.0049 0.06208-0.01933 0.0909-0.01638 0.02197 0.0025 0.04277 0.01801 0.06608 0.01662 0.0238-0.0016 0.05526-0.01302 0.08247-0.02481 0.04761-0.02064 0.12076-0.05978 0.18999-0.0497 0.05285 0.0084 0.05393 0.06739 0.0909 0.0909 0.04228 0.0033 0.07374-0.0084 0.10727 0 0.02538 0.0066 0.05551 0.05421 0.05784 0.07427 0.0025 0.02064-0.01373 0.03668-0.01665 0.0497-0.0066 0.02768-0.01165 0.06477-0.01639 0.08247-0.0042 0.014-0.0087 0.02743-0.0085 0.04143 0 0.01236 0.02005 0.04119 0.03329 0.05756 0.01589 0.02031 0.03862 0.0357 0.05759 0.05781 0.03512 0.04045 0.04993 0.09514 0.07449 0.14877 0.0058 0.01327-0.0058 0.0158 0 0.03284-0.01057 0.08082-0.03804 0.1337-0.09089 0.22302-0.02513 0.02907-0.05019 0.06313-0.04969 0.09909-0.0016 0.0864 0.04519 0.13107 0.04153 0.21483-0.0087 0.1123 2.6e-4 0.12974-0.0085 0.18972 0.03803 0.01932 0.01931 0.07582 0.0085 0.11574-0.01639 0.04749-0.03229 0.0592-0.04153 0.0909a0.10569 0.10569 0 0 0 0.05784 0.0084 2.3763 2.3763 0 0 1-1.7176 0.72667 2.3736 2.3736 0 0 1-0.89179-0.17335c-7.91e-4 -5.21e-4 7.99e-4 -0.0084 0-0.0085 0.02513-0.01056 0.07265 0.01851 0.09091-0.01638 9e-3 -0.01687-0.01215-0.04921 0-0.06608 0.0085-0.01163 0.06475-0.02195 0.08247-0.02481 0.02563-0.0041 0.05177 8.19e-4 0.06608-0.0084a0.07531 0.07531 0 0 0 0.03304-0.06608c-0.0016-0.014-0.01373-0.02064-0.02455-0.03308-0.0092-0.01056-0.0025-0.02358-0.0085-0.033-0.01132-0.01687-0.0283-0.02514-0.03304-0.0497 0.03462-0.0066 0.08223 0.03889 0.13213 0.02481 0.0238-0.0066 0.06342-0.052 0.07449-0.07427 0.0034-0.0066-0.0042-0.03308 0-0.04119 0.0042-0.0093 0.01481-0.01187 0.01639-0.01662 0.0034-0.01294-0.0025-0.01662 0-0.02456 0.0087-0.02457 0.03512-0.0402 0.04969-0.05814 0.01082-0.01327 0.02272-0.02718 0.03304-0.04119 0.01132-0.01482 0.01689-0.01982 0.02455-0.03283 0.0075-0.04389-0.02696-0.07738-0.01639-0.11573 0.01132-0.0434 0.07399-0.07132 0.11546-0.09091 0.01457-0.0066 0.0293-0.02031 0.04153-0.02456 0.0288-0.01032 0.06366-0.0066 0.09063-0.01662 0.04519-0.01638 0.06076-0.06608 0.08273-0.10728 0.01057-0.01933 0.02272-0.0357 0.02455-0.0497 0.0025-0.01237-0.0025-0.02669 0-0.04119 0.0025-0.01425 0.0042-0.02538 0.0085-0.04119a0.42014 0.42014 0 0 0 0.0083-0.08272c0-0.01908-0.0083-0.02383-0.0083-0.04119-0.0034-0.06231 0.01823-0.06501 0.0412-0.09909 0.01165-0.01687 0.01665-0.04569 0.02488-0.05781 0.03887-0.05756 0.10385-0.08588 0.09909-0.17334-0.0016-0.02907-0.0119-0.08984-0.03304-0.0991-0.01215-0.0049-0.0402-0.0016-0.05784-0.0084-0.05684-0.02113-0.09777-0.08614-0.15695-0.09089-0.0124-5.2e-4 -0.01906 5.42e-4 -0.03304 0-0.02297-5.2e-4 -0.04835-0.02194-0.07423-0.02481-0.01639-0.0016-0.04811 0.0049-0.05784 0-0.01481-0.0066-0.01265-0.033-0.02455-0.04119-0.0098-0.0066-0.02638-0.01106-0.04145-0.01662a0.19686 0.19686 0 0 0-0.06608-0.01638c-0.0085-5.41e-4 -0.03171 0.0016-0.0412 0-0.01481-0.0025-0.02746-0.01613-0.04119-0.02481-0.01747-0.01056-0.02588-0.01801-0.03304-0.033 0.01581-0.05175-0.03912-0.06051-0.04969-0.09064-5e-3 -0.014 5e-3 -0.03701 0-0.0497-0.0058-0.01777-0.02139-0.02637-0.04119-0.04119-0.03438-0.02694-0.06608-0.05151-0.11574-0.05781-0.02197-0.0025-0.04761 0.0016-0.07399 0a0.12868 0.12868 0 0 1-0.08273-0.04127c-0.02031-0.02383-0.0238-0.04676-0.04145-0.05781-0.01665-0.01056-0.04627-0.01376-0.05759-0.02489-5e-3 -0.0049-0.0034-0.01376-0.0085-0.02456-0.0085-0.01744-0.02696-0.02039-0.01639-0.04143-0.01931-0.0095-0.0124 0.01212-0.03304 0.0085-0.01847-0.02637-0.03196-0.04119-0.07424-0.03324-0.01931 0.0041-0.03545 0.03275-0.05784 0.03324-0.01847 5.42e-4 -0.03329-0.02989-0.05784-0.03324-0.01847-0.0025-0.04494 0.01957-0.05759 0.01662-0.02089-0.0033-0.02272-0.02882-0.04145-0.04119-0.01373-0.0093-0.04178-0.03357-0.04943-0.033-0.02405 5.42e-4 -0.04119 0.05077-0.07449 0.033-0.01615-0.02064 0.02772-0.02219 0.0085-0.04143-0.01457-0.01425-0.02164 7.8e-4 -0.03304 0.0085-0.01349 9e-3 -0.02647 0.01957-0.04153 0.02457-0.03304 0.01261-0.05651 0.01138-0.08247 0.02489-0.0238 0.01261-0.02746 0.03325-0.04119 0.05781-0.01107 0.02006-0.03279 0.04864-0.04969 0.0497-0.02006 0.0016-0.03962-0.02538-0.05759-0.03333-0.05551-0.02383-0.08667 0.01613-0.13212 0.01662-0.04228 5.2e-4 -0.10121-0.06739-0.0991-0.10728 0.0016-0.02456 0.01349-0.06076 0.01639-0.09091 0.0025-0.02383 0.0243-0.04389 0.0248-0.06608 5.33e-4 -0.02907-0.04703-0.05445-0.06608-0.05781-0.04519-0.0084-0.1057 0.02039-0.15696 0-0.0095-0.01638 0.01905-0.02538 0.0248-0.04119 0.0034-0.0093-0.0034-0.01482 0-0.02481 0.0058-0.01531 0.02563-0.02489 0.03304-0.04119 5e-3 -0.01237 0.0025-0.03439 0.0083-0.0497 0.0066-0.017114 0.02322-0.028578 0.02488-0.041188 0.0016-0.016377-0.0119-0.038895-0.02488-0.049457a0.25737 0.25737 0 0 0-0.0909 0.016377c-0.05177 0.023828-0.03828 0.09116-0.09063 0.10755-0.01797 0.0057-0.04603 0.01327-0.06608 0.01638a2.3545 2.3545 0 0 1 0.15676-0.49541c0.01847 0.00328 0.03379 0.015067 0.04969 0.016622 0.04411 0.00328 0.04594-0.030379 0.08247-0.049703 0.03754 0.00491 0.05684-0.00328 0.0909 0 0.02297 0.00246 0.05601 0.031689 0.07423 0.032999 0.01531 5.323e-4 0.01847-0.019079 0.03304-0.016622 0.01457 0.00246 0.03887 0.032508 0.04145 0.049703 0.0025 0.021617-0.01457 0.042252-0.0085 0.066079 0.02272 0.023009 0.06683 0.036192 0.09909 0.049703 0.02114-0.017359 0.0034-0.057564 0-0.082726-5.24e-4 -0.011053 0.0016-0.023008 0-0.032998-0.0025-0.017114-0.0083-0.034636-0.0083-0.049703 0-0.0687 0.05285-0.09672 0.09909-0.12368 0.01981-0.011627 0.04045-0.032753 0.05784-0.041433 0.0243-0.011873 0.03753-0.013265 0.05759-0.024565 0.0367-0.020635 0.07082-0.042497 0.09909-0.06608 0.01323-0.031197-0.0016-0.068454 0-0.099087 0.01323-0.00835 0.01931 0.00164 0.03304 0 0.02222-0.00491 0.02904-0.037011 0.04145-0.049703 0.0075-0.00737 0.03254-0.00925 0.0412-0.016377 0.02222-0.017359 0.02222-0.042006 0.04119-0.049703 0.0066-0.00246 0.02247-0.00491 0.03304-0.00835 0.01457-0.00409 0.03487-0.016622 0.05784-0.024892 0.01481-0.00491 0.0521-0.00246 0.05784-0.00835 0.0074-0.00737-0.0016-0.038567 0-0.049703 0.01132-0.054207 0.0917-0.056008 0.14031-0.074022 0.03354-0.013265 0.06974-0.04045 0.10728-0.033326-0.0075 0.025875-0.03912 0.018505-0.03304 0.049703 0.0083 0.043644 0.05892-0.010563 0.07449-0.016622 0.02904-0.012364 0.08535-0.019079 0.12367-0.032999 0.03378-0.011873 0.08958-0.035455 0.05784-0.074268-0.02646-0.00164-0.03462 0.023582-0.05784 0.032999-0.01581 0.00246-0.01955-0.00737-0.03304-0.00835-0.01299-5.404e-4 -0.02005 0.010563-0.03304 0.00835-0.01299-0.00246-0.03096-0.025875-0.03304-0.041187-5e-3 -0.04045 0.04145-0.052815 0.05784-0.082726-0.01107-0.036438-0.06-0.00246-0.09091-0.016377 0.0034-0.021617 0.01581-0.0452 0.04145-0.049703a0.16331 0.16331 0 0 1 0.08247 0.016622c0.0074 0.00573-0.0025 0.022763 0.0083 0.033081 0.01265 0.011054 0.03329 0.00246 0.04969 0 0.0058-0.027431-0.03778-0.015312-0.03304-0.033081 0.03254-0.021126 0.09222-0.011382 0.13212-0.016622 0.02297-0.00328 0.04544-0.021945 0.06608-0.032999 0.01906-0.011054 0.03753-0.026448 0.05759-0.00835 0.0058 0.019816-0.01373 0.031198-0.02455 0.041187-0.03704 0.032835-0.07033 0.069519-0.0991 0.10755 0.01773 0.017114 0.04436 0.00491 0.07424 0.00835 0.01165 0.00164 0.02904 0.00655 0.04119 0.00852 0.01457 0.00246 0.02988-0.00246 0.04145 0 0.02006 0.00491 0.02114 0.032999 0.0412 0.032999 0.03254 0 0.03512-0.027431 0.01639-0.049703 0.0058-0.022436 0.01665-0.04176 0.0085-0.057564-0.01507-0.029887-0.07132 0.00491-0.07449-0.032999-0.0016-0.024074 0.02455-0.031443 0.03304-0.049703-0.0034-0.046018 0.03778-0.048884 0.03304-0.090636-0.0025-0.017359-0.02114-0.016868-0.03304-0.032999-0.0058-0.00876-0.0092-0.026939-0.01639-0.032999-0.02513-0.021126-0.07132-0.017769-0.07449-0.058219-0.0016-0.023828 0.0034-0.039877 0-0.06608-0.0034-0.024319-0.0283-0.094067-0.04943-0.098825-0.02696-0.00573-0.04228 0.042743-0.07423 0.057564a0.13027 0.13027 0 0 1-0.06608 0.00852c-0.01165-0.00246-0.03171-0.011054-0.03304-0.033081-0.0016-0.01261 0.0025-0.017114 0.0083-0.024811 0.0016-0.00164-0.0016-0.00655 0-0.00835a2.3967 2.3967 0 0 1 0.66061-0.090907zm-0.98276 0.21483c-0.02322 0.075087-0.09116 0.11785-0.18153 0.11547-0.02222 0.021126-0.01299 0.061576-0.02488 0.090898a0.072931 0.072931 0 0 1-0.06608 0.041187c-0.01773-0.00164-0.04969-0.024565-0.04969-0.041187 0-0.013756 0.01323-0.029314 0.01665-0.041433a2.3581 2.3581 0 0 1 0.30547-0.16514zm2.0232 0.082473a0.072403 0.072403 0 0 0-0.0248 0.00835c-0.01847 0.011054-0.01931 0.027677-0.03304 0.032999-0.01981 0.00737-0.04677 0.00737-0.04969 0.024892-0.0025 0.014821 0.01715 0.01957 0.01665 0.032999-0.0075 0.017769-0.02114 0.01957-0.0248 0.041187 0.02455 0.039877 0.08535 5.331e-4 0.11574-0.00835 0.01323-0.00409 0.02563 0.00246 0.03279-0.00835 0.0083-0.013265 0.0016-0.039631 0.0085-0.05781 0.0066-0.020061 0.02722-0.015312 0.02455-0.032999-0.0016-0.017769-0.0362-0.035947-0.06608-0.032999zm-2.6179 0.30546c0.01773 0.021126 0.03254 0.052323 0 0.06608-5e-3 0.00246-0.06258 0.010563-0.07424 0.00852-0.0034-5.24e-4 -5e-3 -0.00573-0.0083-0.00852 0.02514-0.024565 0.05626-0.042497 0.08247-0.06608zm0.06608 0.082726c0.01165 5.331e-4 0.01955 0.023828 0.03304 0.024565 0.01323 0.00164 0.03354-0.010563 0.04153-0.00835 0.02006 0.00491 0.02746 0.042743 0.0083 0.057564-0.01581 0.00164-0.02114-0.019079-0.03279-0.016622-0.03279 0.00573-0.04178 0.068127-0.06608 0.06608-0.02322-0.00246-0.0402-0.049212-0.01665-0.06608 5.24e-4 -0.014248-0.0092-0.018505-0.0083-0.033081 0.0075-0.00901 0.02189-0.026121 0.0412-0.024565zm-0.10727 0.016377c0.0066 0 0.0058-0.00246 0.0083 0-0.0034 0.025629-0.01323 0.029314-0.03304 0.041433a0.13529 0.13529 0 0 0-0.06608 0.090628c-0.0034 0.013265-0.04145 0.052815-0.05759 0.049703-0.03804-0.00835 0.01581-0.079836 0.02455-0.090898 0.0098-0.012119 0.02197-0.01957 0.03304-0.032999 0.01107-0.013265 0.01431-0.04176 0.02488-0.049703 0.01165-0.00835 0.04594-0.00901 0.06608-0.00835zm3.2536 0.06608c0.03778-0.00246 0.05684 0.043152 0.07399 0.06608 0.01457 0.018751 0.05917 0.044954 0.08273 0.057809 0.01349 0.00737 0.02646 0.018014 0.04153 0.024892 0.01557 0.00655 0.03911 0.015803 0.05759 0.032999 0.01847 0.016868 0.03254 0.042252 0.03304 0.057564 5.42e-4 0.015558-0.01057 0.026939-0.0083 0.041433 0.01665 0.00246 0.02538-0.014248 0.03304-0.033081 0.06234 0.088794 0.11522 0.18366 0.16515 0.28063a0.03118 0.03118 0 0 0-0.01665 0.024892c-5e-3 0.026939 0.01581 0.06133-0.02455 0.06608-0.02563 0.00328-0.05576-0.025384-0.09091-0.032999-0.01423-0.00328-0.03803 0.00328-0.04969 0-0.02638-0.00925-0.01847-0.042006-0.0412-0.057809a0.18497 0.18497 0 0 0-0.06608-0.024565c-0.01299-0.00164-0.01955 0.00164-0.03304 0-0.01639-0.00246-0.04436 0-0.05759-0.00852-0.01323-0.00835-0.04627-0.021945-0.04969-0.032999-5e-3 -0.017769 0.04045-0.042743 0.0412-0.057564 8.19e-4 -0.011627-0.01398-0.015803-0.01639-0.033326-0.0016-0.010563 0.0025-0.026121 0-0.032753-0.0034-0.01261-0.02164-0.024319-0.04145-0.024811-0.01715 0-0.03438 0.00835-0.04943 0.00835-0.02114 5.248e-4 -0.0645-0.010563-0.0909-0.00835-0.01581 0.00164-0.02638 0.00737-0.0412 0.00835-0.04178 0.00328-0.06633-0.00246-0.0991 0-0.0238 0.00164-0.06866 0.014821-0.0909 0.024811-0.01107 0.00491-0.01847 0.017441-0.03304 0.024565-0.0066 0.00328-0.01581 0.00409-0.02455 0.00852-0.01349 0.00573-0.0367 0.021126-0.04969 0.024565-0.01847 0.00491-0.0402-0.00164-0.07423 0-0.02455 0.00164-0.0655-0.00328-0.06608-0.032753-5.2e-4 -0.044954 0.08165-0.025384 0.12368-0.033326 0.01581-0.00328 0.02222-0.021945 0.04145-0.032753 9e-3 -0.00491 0.01581-0.010809 0.02455-0.016622 0.01457-0.010072 0.03912-0.029887 0.04145-0.041187 0.0016-0.010563-0.0097-0.025384-0.0085-0.032999 0.0016-0.010072 0.02005-0.020061 0.03329-0.032999 0.02005-0.020389 0.03279-0.044954 0.05759-0.057809 0.01689-0.00925 0.05019-0.0113 0.05784-0.02481 0.0016-0.015312-5.42e-4 -0.019079 0-0.032999 0.01057-0.0095 0.0075-0.014575 0.01665-0.016377 0.02588-0.00573 0.0521 0.00974 0.08247 0.00835 0.01323-5.24e-4 0.02746 8.188e-4 0.0412-0.00835 0.01165-0.00835 0.02164-0.019079 0.03304-0.02481 0.01265-0.00655 0.02588-0.023828 0.04145-0.024892zm-3.0309 0.024892c0.0066-8.189e-4 0.01715 7.951e-4 0.02514 0 0.01082-5.323e-4 0.02114 0 0.03304 0s0.02805-0.00491 0.03304 0c-0.0083 0.031689-0.08247 0.019816-0.10755 0.00835 7.91e-4 -0.00573 0.01032-0.00737 0.01665-0.00835zm-0.09063 0.057809c0.0083 0 0.01615-0.00328 0.02488 0-0.02222 0.018506-0.0526 0.029069-0.09091 0.041187-0.01847 0.00573-0.04627 0.011873-0.04969-0.00835-0.0034-0.025138 0.01689-0.022436 0.03304-0.024811 0.02114-0.00246 0.05818-0.00835 0.08273-0.00835zm3.1297 0c-0.01581 0.00491-0.0238 0.037011 0 0.041187 0.01107-0.00655 0.01107-0.021126 0.0083-0.041187-0.0066-0.00655-0.0034-0.00164-0.0083 0zm-0.0085 0.06608c-0.0075 0.00246-0.01639-5.322e-4 -0.02455 0.00835 5.43e-4 0.026939 5e-3 0.042252 0 0.06608 0.01531 0.029887 0.05019 0.011873 0.0576-0.00835 0.0093-0.050194-0.0098-0.072385-0.03279-0.06608zm0.20664 0.13213a0.071082 0.071082 0 0 0-0.04969 0.016377c0.01797 0.029069 0.05102 0.034391 0.0909 0.041433 0.01431-0.010563 0.0098-0.039631 0.01665-0.058137-0.01739 0-0.02854 0.00164-0.04969 0h-0.0083zm-4.1949 1.0154c0.01689 0.02162 0.03512 0.04675 0.05759 0.05822 0.01215 0.0057 0.02614 0.0049 0.04145 0.0084 0.0124 0.0025 0.02114 0.01302 0.03304 0.01662 0.02538 0.0088 0.06234 0.0074 0.08247 0.01662 0.03088 0.01327 0.04785 0.06706 0.07449 0.08247 0.0016 0.01531-5e-3 0.02989 0 0.04119 0.0124 0.01687 0.03754 0.02186 0.05759 0.033 0.02455 0.01351 0.03487 0.04725 0.05784 0.05781 0.0083 0.0033 0.02064-0.0033 0.03304 0 0.03171 0.0095 0.03862 0.05756 0.06608 0.0497 0.01773-0.0049 0.02189-0.03251 0.0248-0.0497 0.0119-0.01327 0.02247-0.033 0.0412-0.033 0.02988-5.2e-4 0.03862 0.03701 0.04969 0.06608 0.0058 0.01638 0.02039 0.03218 0.02455 0.0497a0.43336 0.43336 0 0 1 0 0.13212c-0.0074 0.02194-0.03961 0.03357-0.05759 0.05756-0.0087 0.01163-0.01823 0.02538-0.0248 0.033-0.01165 0.01458-0.0243 0.02006-0.03304 0.033-5e-3 0.0074-0.0042 0.02301-0.0085 0.033-0.01423 0.03095-0.0367 0.05396-0.02455 0.0909 5e-3 0.01482 0.02455 0.03169 0.02455 0.0497 0 0.02112-0.04594 0.02637-0.04943 0.04946-0.0025 0.01687 0.01955 0.05175 0.02488 0.07427 0.0034 0.01687 0.03121 0.03038 0.04119 0.04151 0.01689 0.01851 0.03437 0.04201 0.04969 0.06608 0.03012 0.04651 0.04436 0.10305 0.07399 0.14851 0.01581 0.02383 0.04761 0.04094 0.05818 0.06608 5e-3 0.01237-5e-3 0.03799 0 0.0497 0.01715 0.0389 0.1012 0.07984 0.14004 0.09883 0.01847 0.0093 0.03304 0.01531 0.04969 0.02481 0.02564 0.01457 0.07799 0.04364 0.09091 0.06608 0.01165 0.02031 0.01906 0.06682 0.0248 0.0991 0.0074 0.04225-0.0016 0.0782 0 0.12393 0.0016 0.02481 0.0083 0.04094 0.0083 0.06608 0 0.0087 5.33e-4 0.02432 0 0.033-5.24e-4 0.02989 0.0025 0.06076 0 0.0909a0.34405 0.34405 0 0 0 0 0.04946c0.0016 0.01507 0.01557 0.02006 0.01665 0.033 8.19e-4 0.014-0.01823 0.03038-0.01665 0.04151 0.0034 0.03013 0.03546 0.0547 0.0412 0.08248 5e-3 0.02219 0.01107 0.07263 0.0085 0.09909-0.0025 0.014-0.0066 0.03439-0.0085 0.0497-0.0016 0.01187 0.0016 0.02195 0 0.03275-0.65823-0.4228-1.0981-1.1573-1.0981-1.9983 0-0.10781 0.01082-0.2098 0.0248-0.31392zm0.90817 0.23967c0.02322-0.01056 0.01873 0.03013 0 0.033-0.01773 0.0025-0.01715-0.02489 0-0.033z" color="#000000" fill="#fff" stroke-width=".26424"/>
</svg>
