<?xml version="1.0" encoding="UTF-8"?>
<svg width="64" height="64" version="1.1" xmlns="http://www.w3.org/2000/svg" xmlns:cc="http://creativecommons.org/ns#" xmlns:dc="http://purl.org/dc/elements/1.1/" xmlns:rdf="http://www.w3.org/1999/02/22-rdf-syntax-ns#">
 <metadata>
  <rdf:RDF>
   <cc:Work rdf:about="">
    <dc:format>image/svg+xml</dc:format>
    <dc:type rdf:resource="http://purl.org/dc/dcmitype/StillImage"/>
   </cc:Work>
  </rdf:RDF>
 </metadata>
 <defs>
  <filter id="filter2076-6" x="-.048" y="-.048" width="1.096" height="1.096" color-interpolation-filters="sRGB">
   <feGaussianBlur stdDeviation="1.1"/>
  </filter>
 </defs>
 <g transform="translate(80.501 -8.5995)">
  <rect x="-76.001" y="13.099" width="55" height="55" rx="13.002" ry="13.002" filter="url(#filter2076-6)" opacity=".3"/>
  <path d="m-62.999 13.099c-7.2031 0-13.002 5.7988-13.002 13.002v28.996c0 7.2031 5.7988 13.002 13.002 13.002h28.996c7.2031 0 13.002-5.7988 13.002-13.002v-28.996c0-7.2031-5.7988-13.002-13.002-13.002z" fill="#1964ff" stroke-linecap="round" stroke-width=".3" style="paint-order:stroke fill markers"/>
  <path d="m-62.163 19.099c-4.3418 0-7.8379 3.496-7.8379 7.8379v27.324c0 4.3418 3.496 7.8379 7.8379 7.8379h27.324c4.3418 0 7.8379-3.496 7.8379-7.8379v-27.324c0-4.3418-3.496-7.8379-7.8379-7.8379z" fill="#fafafa" stroke-linecap="round" stroke-width=".3" style="paint-order:stroke fill markers"/>
  <path d="m-64.387 24.578c0.0189 0.15353 0.03742 0.30683 0.05851 0.45972h31.658c0.01965-0.16517 0.03666-0.29666 0.05431-0.45972z" fill="#1964ff" opacity=".6" stroke-width="2.5595" style="paint-order:normal"/>
  <path d="m-73.878 22.168c-1.1786 0-2.127 0.94836-2.127 2.127v6.9082c0 0.08572 0.0155 0.16698 0.02532 0.25002-0.02079 2.043-0.01965 4.3718-0.01965 7.4277v0.84766h-0.0019v15.369c0 0.13777 0.0155 0.27153 0.01965 0.4082 0.0076 0.19344 0.01172 0.38773 0.02948 0.57813 0.47771 6.4087 5.5533 11.486 11.961 11.967 0.32195 0.03062 0.64798 0.04838 0.98047 0.04883 0.0045 1.2e-5 0.0091 0 0.01361 0h28.994 2e-3c0.33774 0 0.66924-0.01776 0.99609-0.04883 6.3914-0.48209 11.456-5.5367 11.953-11.924 0.03288-0.3385 0.05273-0.68104 0.05273-1.0293v-15.662c6.1e-5 -0.0068 2e-3 -0.01285 2e-3 -0.01965v-6.9082c0-1.1786-0.94836-2.127-2.127-2.127h-22.703c-1.0263 0-1.8297-0.06928-2.4961-0.24609-0.66642-0.17681-1.1946-0.46214-1.666-0.89063-0.47141-0.42849-0.88688-1.0008-1.3281-1.7559-0.44124-0.75504-0.90846-1.6912-1.4844-2.8477-0.27776-0.6834-0.66567-1.1803-1.0898-1.5391-0.42417-0.3588-0.88387-0.58009-1.3105-0.7168-0.85336-0.27342-1.5684-0.20508-1.5684-0.20508h-9.6504c-0.03961-0.0022-0.07695-0.01172-0.1172-0.01172h-3.459z" fill="#198cff"/>
 </g>
 <g transform="translate(59.059)" fill="#f5f5f5">
  <path d="m-22.943 30.293-4.1172 3.4375 5.9316 3.6621 4.0684-3.2578zm-10.049 7.0996-4.0664 3.2578 5.8828 3.8398 4.1172-3.4355zm11.865 2e-3 -5.9316 3.6621 4.1152 3.4355 5.8848-3.8398z"/>
  <path d="m-31.176 30.295-5.8828 3.8398 4.0664 3.2578 5.9336-3.6621z"/>
  <path d="m-27.047 41.795-4.1289 3.4258-1.7676-1.1543v1.293l5.8965 3.5371 5.8945-3.5371v-1.293l-1.7656 1.1543z"/>
 </g>
</svg>
