<svg xmlns="http://www.w3.org/2000/svg" width="192" height="192" fill="#000000" viewBox="0 0 256 256"><rect width="256" height="256" fill="none"></rect><path d="M32,72H55.1a64,64,0,0,1,52,26.8l41.8,58.4a64,64,0,0,0,52,26.8H232" fill="none" stroke="#000000" stroke-linecap="round" stroke-linejoin="round" stroke-width="16"></path><polyline points="208 48 232 72 208 96" fill="none" stroke="#000000" stroke-linecap="round" stroke-linejoin="round" stroke-width="16"></polyline><polyline points="208 160 232 184 208 208" fill="none" stroke="#000000" stroke-linecap="round" stroke-linejoin="round" stroke-width="16"></polyline><path d="M147.7,100.5l1.2-1.7a64,64,0,0,1,52-26.8H232" fill="none" stroke="#000000" stroke-linecap="round" stroke-linejoin="round" stroke-width="16"></path><path d="M32,184H55.1a64,64,0,0,0,52-26.8l1.2-1.7" fill="none" stroke="#000000" stroke-linecap="round" stroke-linejoin="round" stroke-width="16"></path></svg>
