<?xml version="1.0" encoding="UTF-8" standalone="no"?>
<svg
   xmlns:dc="http://purl.org/dc/elements/1.1/"
   xmlns:cc="http://creativecommons.org/ns#"
   xmlns:rdf="http://www.w3.org/1999/02/22-rdf-syntax-ns#"
   xmlns:svg="http://www.w3.org/2000/svg"
   xmlns="http://www.w3.org/2000/svg"
   xmlns:sodipodi="http://sodipodi.sourceforge.net/DTD/sodipodi-0.dtd"
   xmlns:inkscape="http://www.inkscape.org/namespaces/inkscape"
   height="48"
   width="48"
   version="1.1"
   id="svg10"
   sodipodi:docname="0cc-famitracker.svg"
   inkscape:version="1.0.2 (e86c870879, 2021-01-15)">
  <metadata
     id="metadata16">
    <rdf:RDF>
      <cc:Work
         rdf:about="">
        <dc:format>image/svg+xml</dc:format>
        <dc:type
           rdf:resource="http://purl.org/dc/dcmitype/StillImage" />
        <dc:title></dc:title>
      </cc:Work>
    </rdf:RDF>
  </metadata>
  <defs
     id="defs14" />
  <sodipodi:namedview
     pagecolor="#ffffff"
     bordercolor="#666666"
     borderopacity="1"
     objecttolerance="10"
     gridtolerance="10"
     guidetolerance="10"
     inkscape:pageopacity="0"
     inkscape:pageshadow="2"
     inkscape:window-width="1920"
     inkscape:window-height="1028"
     id="namedview12"
     showgrid="false"
     inkscape:zoom="9.4583332"
     inkscape:cx="-23.951089"
     inkscape:cy="26.195144"
     inkscape:window-x="0"
     inkscape:window-y="24"
     inkscape:window-maximized="1"
     inkscape:current-layer="svg10"
     inkscape:document-rotation="0" />
  <g
     fill="#be514c"
     opacity=".99"
     transform="matrix(1.1503549 0 0 1.1503549 -4.486125 -7.525565)"
     id="g6"
     style="fill:#a37bb9;fill-opacity:1">
    <path
       d="m44.322082 27.405077a19.729762 19.729765 0 0 1 -19.729762 19.729765 19.729762 19.729765 0 0 1 -19.7297621-19.729765 19.729762 19.729765 0 0 1 19.7297621-19.7297632 19.729762 19.729765 0 0 1 19.729762 19.7297632z"
       id="path2"
       style="fill:#a37bb9;fill-opacity:1" />
    <path
       d="m44.322082 27.405077a19.729762 19.729765 0 0 1 -19.729762 19.729765 19.729762 19.729765 0 0 1 -19.7297621-19.729765 19.729762 19.729765 0 0 1 19.7297621-19.7297632 19.729762 19.729765 0 0 1 19.729762 19.7297632z"
       id="path4"
       style="fill:#a37bb9;fill-opacity:1" />
  </g>
  <path
     style="fill:#ffffff;fill-opacity:1;stroke-width:0.641915"
     d="m 13.572628,13.470737 c -1.422483,0 -2.567659,1.145176 -2.567659,2.567659 v 5.777233 c 0,1.422483 1.145176,2.567659 2.567659,2.567659 h 2.567659 c 1.422483,0 2.567659,-1.145176 2.567659,-2.567659 v -5.777233 c 0,-1.422483 -1.145176,-2.567659 -2.567659,-2.567659 z m 8.986807,0 c -1.422484,0 -2.567659,1.145176 -2.567659,2.567659 v 5.777233 c 0,1.422483 1.145175,2.567659 2.567659,2.567659 h 2.567659 c 1.211874,0 2.215985,-0.833885 2.488673,-1.959595 l -1.924491,-0.824961 c -0.175414,0.499743 -0.64494,0.858812 -1.206097,0.858812 h -1.28383 c -0.711241,0 -1.283829,-0.572588 -1.283829,-1.28383 v -4.493403 c 0,-0.711241 0.572588,-1.283829 1.283829,-1.283829 h 1.28383 c 0.561157,0 1.030683,0.359068 1.206097,0.858812 l 1.924491,-0.824962 c -0.272688,-1.12571 -1.276799,-1.959595 -2.488673,-1.959595 z m 8.986806,0 c -1.422483,0 -2.567659,1.145176 -2.567659,2.567659 v 5.777233 c 0,1.422483 1.145176,2.567659 2.567659,2.567659 H 34.1139 c 1.211875,0 2.215985,-0.833885 2.488673,-1.959595 l -1.92449,-0.824961 c -0.175414,0.499743 -0.64494,0.858812 -1.206098,0.858812 h -1.283829 c -0.711242,0 -1.28383,-0.572588 -1.28383,-1.28383 v -4.493403 c 0,-0.711241 0.572588,-1.283829 1.28383,-1.283829 h 1.283829 c 0.561158,0 1.030684,0.359068 1.206098,0.858812 l 1.92449,-0.824962 C 36.329885,14.304622 35.325775,13.470737 34.1139,13.470737 Z m -17.331698,1.925745 h 1.283829 c 0.711242,0 1.28383,0.572588 1.28383,1.283829 v 4.493403 c 0,0.711242 -0.572588,1.28383 -1.28383,1.28383 h -1.283829 c -0.711242,0 -1.28383,-0.572588 -1.28383,-1.28383 v -4.493403 c 0,-0.711241 0.572588,-1.283829 1.28383,-1.283829 z m 3.851488,10.91255 c -1.422483,0 -2.567659,1.145176 -2.567659,2.567659 v 8.344892 h 1.925745 v -5.135318 h 3.851488 v -1.925744 h -3.851488 v -1.925744 h 5.777232 v -1.925745 z m 7.061063,0 v 1.925745 h 2.567659 v 8.986806 h 1.925744 v -8.986806 h 2.567659 v -1.925745 z"
     id="path10" />
</svg>
