<?xml version="1.0" encoding="UTF-8" standalone="no"?>
<svg
   xmlns:dc="http://purl.org/dc/elements/1.1/"
   xmlns:cc="http://creativecommons.org/ns#"
   xmlns:rdf="http://www.w3.org/1999/02/22-rdf-syntax-ns#"
   xmlns:svg="http://www.w3.org/2000/svg"
   xmlns="http://www.w3.org/2000/svg"
   xmlns:sodipodi="http://sodipodi.sourceforge.net/DTD/sodipodi-0.dtd"
   xmlns:inkscape="http://www.inkscape.org/namespaces/inkscape"
   height="48"
   width="48"
   version="1.1"
   id="svg10"
   sodipodi:docname="1cedt.svg"
   inkscape:version="1.0.2 (e86c870879, 2021-01-15)">
  <metadata
     id="metadata16">
    <rdf:RDF>
      <cc:Work
         rdf:about="">
        <dc:format>image/svg+xml</dc:format>
        <dc:type
           rdf:resource="http://purl.org/dc/dcmitype/StillImage" />
        <dc:title></dc:title>
      </cc:Work>
    </rdf:RDF>
  </metadata>
  <defs
     id="defs14" />
  <sodipodi:namedview
     pagecolor="#ffffff"
     bordercolor="#666666"
     borderopacity="1"
     objecttolerance="10"
     gridtolerance="10"
     guidetolerance="10"
     inkscape:pageopacity="0"
     inkscape:pageshadow="2"
     inkscape:window-width="1920"
     inkscape:window-height="1028"
     id="namedview12"
     showgrid="false"
     inkscape:zoom="4.7291666"
     inkscape:cx="-71.112735"
     inkscape:cy="26.201772"
     inkscape:window-x="0"
     inkscape:window-y="24"
     inkscape:window-maximized="1"
     inkscape:current-layer="svg10"
     inkscape:document-rotation="0" />
  <g
     fill="#be514c"
     opacity=".99"
     transform="matrix(1.1503549 0 0 1.1503549 -4.486125 -7.525565)"
     id="g6"
     style="fill:#7b9cb9;fill-opacity:1">
    <path
       d="m44.322082 27.405077a19.729762 19.729765 0 0 1 -19.729762 19.729765 19.729762 19.729765 0 0 1 -19.7297621-19.729765 19.729762 19.729765 0 0 1 19.7297621-19.7297632 19.729762 19.729765 0 0 1 19.729762 19.7297632z"
       id="path2"
       style="fill:#7b9cb9;fill-opacity:1" />
    <path
       d="m44.322082 27.405077a19.729762 19.729765 0 0 1 -19.729762 19.729765 19.729762 19.729765 0 0 1 -19.7297621-19.729765 19.729762 19.729765 0 0 1 19.7297621-19.7297632 19.729762 19.729765 0 0 1 19.729762 19.7297632z"
       id="path4"
       style="fill:#7b9cb9;fill-opacity:1" />
  </g>
  <path
     style="fill:#7f80a1;stroke-width:0.83754"
     d="m 19.659353,27.5487 -5.921667,10.246773 2.901943,1.678351 5.921667,-10.246773 z"
     id="path10" />
  <path
     id="path12"
     style="fill:#ffffff;stroke-width:0.83754;fill-opacity:1"
     d="M 31.027344 7.8769531 L 25.796875 16.931641 L 27.716797 16.931641 L 28.689453 18.617188 L 33.929688 9.5507812 L 31.027344 7.8769531 z " />
  <path
     d="m 39.852427,40.048659 c -4.107208,4.10721 -9.781266,6.647572 -16.048656,6.647572 C 11.26899,46.696231 1.1075412,36.534782 1.1075423,24 1.1075429,17.732608 3.647905,12.058551 7.7551144,7.951342 Z"
     id="path853"
     style="fill:#ac81bc;fill-opacity:1;stroke-width:1.15035"
     sodipodi:nodetypes="csscc" />
  <path
     id="path16"
     style="fill:#ffffff;stroke-width:0.83754;fill-opacity:0.59795183"
     d="M 14.179688 16.931641 L 7.4101562 28.658203 L 14.179688 40.382812 L 27.716797 40.382812 L 34.486328 28.658203 L 27.716797 16.931641 L 14.179688 16.931641 z M 16.113281 20.283203 L 25.783203 20.283203 L 30.619141 28.658203 L 25.783203 37.033203 L 18.048828 37.033203 L 22.560547 29.226562 L 19.658203 27.552734 L 15.148438 35.361328 L 11.277344 28.658203 L 16.113281 20.283203 z " />
  <path
     style="fill:#ffffff;stroke-width:0.83754;fill-opacity:1"
     d="M 19.996331,6.8817537 13.22731,18.607309 19.996331,30.332864 H 33.534376 L 40.303396,18.607309 33.537647,6.8817537 Z m 1.933539,3.3501593 h 9.674238 l 4.832211,8.375396 -4.835483,8.375397 h -9.667695 l -4.838753,-8.375397 z"
     id="path20" />
</svg>
