<?xml version="1.0" encoding="UTF-8" standalone="no"?>
<svg
   xmlns:dc="http://purl.org/dc/elements/1.1/"
   xmlns:cc="http://creativecommons.org/ns#"
   xmlns:rdf="http://www.w3.org/1999/02/22-rdf-syntax-ns#"
   xmlns:svg="http://www.w3.org/2000/svg"
   xmlns="http://www.w3.org/2000/svg"
   xmlns:sodipodi="http://sodipodi.sourceforge.net/DTD/sodipodi-0.dtd"
   xmlns:inkscape="http://www.inkscape.org/namespaces/inkscape"
   height="48"
   width="48"
   version="1.1"
   id="svg6"
   sodipodi:docname="a7800.svg"
   inkscape:version="1.0.2 (e86c870879, 2021-01-15)">
  <metadata
     id="metadata12">
    <rdf:RDF>
      <cc:Work
         rdf:about="">
        <dc:format>image/svg+xml</dc:format>
        <dc:type
           rdf:resource="http://purl.org/dc/dcmitype/StillImage" />
        <dc:title></dc:title>
      </cc:Work>
    </rdf:RDF>
  </metadata>
  <defs
     id="defs10" />
  <sodipodi:namedview
     pagecolor="#ffffff"
     bordercolor="#666666"
     borderopacity="1"
     objecttolerance="10"
     gridtolerance="10"
     guidetolerance="10"
     inkscape:pageopacity="0"
     inkscape:pageshadow="2"
     inkscape:window-width="1507"
     inkscape:window-height="1056"
     id="namedview8"
     showgrid="false"
     inkscape:zoom="7.9999999"
     inkscape:cx="41.556668"
     inkscape:cy="34.15534"
     inkscape:window-x="409"
     inkscape:window-y="24"
     inkscape:window-maximized="0"
     inkscape:current-layer="svg6"
     inkscape:document-rotation="0" />
  <circle
     cx="23.940615"
     cy="31.534513"
     fill="#74a2f3"
     opacity=".99"
     id="circle2"
     style="fill:#a9b7c0;fill-opacity:1"
     transform="matrix(1.75830584759 0 0 1.75830608345 -18.15909274367 -30.97874795549)"
     r="13.232998" />
  <ellipse
     cx="23.935829"
     cy="24.468578"
     fill="#74a2f3"
     opacity="0.99"
     id="circle856"
     style="fill:#ffffff;fill-opacity:1;stroke-width:1.54048"
     rx="20.385096"
     ry="20.385099" />
  <g
     id="g851"
     transform="translate(-2.2738292,1.3754463)">
    <path
       style="fill:#92b4d8;fill-opacity:1;stroke-width:0.50937"
       d="m 29.265879,7.9370747 h 3.398202 c 0.682648,-0.08581 0.628524,0.1083424 0.632204,0.6834728 0.102271,9.3142705 1.904109,18.3211365 7.638601,22.6158615 0.63587,0.412744 0.705901,0.412763 0.313389,1.102464 l -1.988869,3.495318 C 38.895416,36.694784 38.717198,36.471186 38.130663,36.0764 34.172877,33.329882 31.646571,29.711194 30.378686,25.271678 29.035681,20.569125 29.265879,15.07318 29.265879,7.9370747 Z"
       id="path4" />
    <path
       style="fill:#f29b80;fill-opacity:1;stroke-width:0.50937"
       d="m 23.153438,7.9566627 h -3.398202 c -0.682648,-0.085821 -0.628524,0.1083424 -0.632205,0.6834717 -0.102272,9.3142706 -1.904107,18.3211376 -7.6386,22.6158606 -0.63587,0.412745 -0.705901,0.412764 -0.31339,1.102465 l 1.988869,3.495319 c 0.363991,0.860592 0.542207,0.636994 1.128745,0.242209 3.957786,-2.746518 6.484091,-6.365207 7.751976,-10.804723 1.343005,-4.702553 1.112807,-10.198498 1.112807,-17.3346023 z"
       id="path6" />
    <path
       style="fill:#90d27d;fill-opacity:1;stroke-width:0.50937"
       d="M 23.153447,7.9371731 V 7.956654 35.61017 c -0.03955,0.812125 -0.0063,0.8352 0.752774,0.8352 h 4.75117 c 0.787434,0.08637 0.608478,-0.161906 0.608478,-0.886705 V 7.9566518 7.9371709 Z"
       id="path8" />
  </g>
</svg>
