<?xml version="1.0" encoding="UTF-8" standalone="no"?>
<svg
   xmlns:dc="http://purl.org/dc/elements/1.1/"
   xmlns:cc="http://creativecommons.org/ns#"
   xmlns:rdf="http://www.w3.org/1999/02/22-rdf-syntax-ns#"
   xmlns:svg="http://www.w3.org/2000/svg"
   xmlns="http://www.w3.org/2000/svg"
   xmlns:sodipodi="http://sodipodi.sourceforge.net/DTD/sodipodi-0.dtd"
   xmlns:inkscape="http://www.inkscape.org/namespaces/inkscape"
   height="48"
   width="48"
   version="1.1"
   id="svg10"
   sodipodi:docname="acestream.svg"
   inkscape:version="1.0.2 (e86c870879, 2021-01-15)">
  <metadata
     id="metadata16">
    <rdf:RDF>
      <cc:Work
         rdf:about="">
        <dc:format>image/svg+xml</dc:format>
        <dc:type
           rdf:resource="http://purl.org/dc/dcmitype/StillImage" />
        <dc:title></dc:title>
      </cc:Work>
    </rdf:RDF>
  </metadata>
  <defs
     id="defs14" />
  <sodipodi:namedview
     pagecolor="#ffffff"
     bordercolor="#666666"
     borderopacity="1"
     objecttolerance="10"
     gridtolerance="10"
     guidetolerance="10"
     inkscape:pageopacity="0"
     inkscape:pageshadow="2"
     inkscape:window-width="1920"
     inkscape:window-height="1028"
     id="namedview12"
     showgrid="false"
     inkscape:zoom="4.7291666"
     inkscape:cx="5.8432418"
     inkscape:cy="20.267908"
     inkscape:window-x="0"
     inkscape:window-y="24"
     inkscape:window-maximized="1"
     inkscape:current-layer="svg10"
     inkscape:document-rotation="0" />
  <g
     fill="#be514c"
     opacity=".99"
     transform="matrix(1.1503549 0 0 1.1503549 -4.486125 -7.525565)"
     id="g6"
     style="fill:#85bfb3;fill-opacity:1">
    <path
       d="m44.322082 27.405077a19.729762 19.729765 0 0 1 -19.729762 19.729765 19.729762 19.729765 0 0 1 -19.7297621-19.729765 19.729762 19.729765 0 0 1 19.7297621-19.7297632 19.729762 19.729765 0 0 1 19.729762 19.7297632z"
       id="path2"
       style="fill:#85bfb3;fill-opacity:1" />
    <path
       d="m44.322082 27.405077a19.729762 19.729765 0 0 1 -19.729762 19.729765 19.729762 19.729765 0 0 1 -19.7297621-19.729765 19.729762 19.729765 0 0 1 19.7297621-19.7297632 19.729762 19.729765 0 0 1 19.729762 19.7297632z"
       id="path4"
       style="fill:#85bfb3;fill-opacity:1" />
    <path
       d="m 44.322082,27.405077 c 0,10.896448 -8.833315,19.729765 -19.729762,19.729765 V 7.6753138 c 10.896446,0 19.729761,8.8333152 19.729762,19.7297632 z"
       id="path835"
       style="fill:#daca95;fill-opacity:1"
       sodipodi:nodetypes="sccs" />
    <path
       d="m 44.322082,27.405077 c 0,10.896448 -8.833315,19.729765 -19.729762,19.729765 -10.896447,0 -19.7297621,-8.833317 -19.7297621,-19.729765 z"
       id="path833"
       style="fill:#84b8de;fill-opacity:1"
       sodipodi:nodetypes="cscc" />
  </g>
  <path
     d="M 46.499999,24 A 22.696228,22.696232 0 0 1 23.803771,46.696231 22.696228,22.696232 0 0 1 1.1075422,24 22.696228,22.696232 0 0 1 23.803771,1.3037698 22.696228,22.696232 0 0 1 46.499999,24 Z"
     id="path837"
     style="opacity:0.99;fill:#97d2c6;fill-opacity:1;stroke-width:1.15035" />
  <path
     d="m 46.499999,24 c 0,12.534782 -10.161447,22.696231 -22.696228,22.696231 V 1.3037698 c 12.53478,0 22.696227,10.1614472 22.696228,22.6962302 z"
     id="path841"
     style="opacity:0.99;fill:#e8ce99;fill-opacity:1;stroke-width:1.15035"
     sodipodi:nodetypes="sccs" />
  <path
     d="m 46.499999,24 c 0,12.534782 -10.161447,22.696231 -22.696228,22.696231 C 11.26899,46.696231 1.1075423,36.534782 1.1075423,24 Z"
     id="path843"
     style="opacity:0.99;fill:#87c5f2;fill-opacity:1;stroke-width:1.15035"
     sodipodi:nodetypes="cscc" />
  <path
     d="M 23.803771,46.696231 C 11.26899,46.696231 1.1075423,36.534782 1.1075423,24 l 22.6962287,1e-6 z"
     id="path839"
     style="opacity:0.99;fill:#c09ed7;fill-opacity:1;stroke-width:1.15035"
     sodipodi:nodetypes="cccc" />
  <circle
     style="opacity:1;fill:#ffffff;fill-opacity:0.53056008;stroke-width:0.981613;stroke-linecap:round;stroke-linejoin:round"
     id="path851"
     cx="23.80377"
     cy="24"
     r="19.613058" />
  <path
     sodipodi:type="star"
     style="opacity:1;fill:#ffffff;fill-opacity:1;stroke-width:1.80626;stroke-linecap:round;stroke-linejoin:round"
     id="path853"
     sodipodi:sides="3"
     sodipodi:cx="21.962684"
     sodipodi:cy="24"
     sodipodi:r1="10.673262"
     sodipodi:r2="5.3366308"
     sodipodi:arg1="0"
     sodipodi:arg2="1.0471976"
     inkscape:flatsided="true"
     inkscape:rounded="0"
     inkscape:randomized="0"
     d="m 32.635946,24 -16.009892,9.243316 0,-18.486632 z"
     inkscape:transform-center-x="-2.6683147"
     inkscape:transform-center-y="-1.1278319e-06" />
</svg>
