<?xml version="1.0" encoding="UTF-8" standalone="no"?>
<svg
   xmlns:dc="http://purl.org/dc/elements/1.1/"
   xmlns:cc="http://creativecommons.org/ns#"
   xmlns:rdf="http://www.w3.org/1999/02/22-rdf-syntax-ns#"
   xmlns:svg="http://www.w3.org/2000/svg"
   xmlns="http://www.w3.org/2000/svg"
   xmlns:sodipodi="http://sodipodi.sourceforge.net/DTD/sodipodi-0.dtd"
   xmlns:inkscape="http://www.inkscape.org/namespaces/inkscape"
   height="48"
   width="48"
   version="1.1"
   id="svg10"
   sodipodi:docname="aeskulap.svg"
   inkscape:version="1.0.2 (e86c870879, 2021-01-15)">
  <metadata
     id="metadata16">
    <rdf:RDF>
      <cc:Work
         rdf:about="">
        <dc:format>image/svg+xml</dc:format>
        <dc:type
           rdf:resource="http://purl.org/dc/dcmitype/StillImage" />
        <dc:title></dc:title>
      </cc:Work>
    </rdf:RDF>
  </metadata>
  <defs
     id="defs14" />
  <sodipodi:namedview
     pagecolor="#ffffff"
     bordercolor="#666666"
     borderopacity="1"
     objecttolerance="10"
     gridtolerance="10"
     guidetolerance="10"
     inkscape:pageopacity="0"
     inkscape:pageshadow="2"
     inkscape:window-width="1920"
     inkscape:window-height="1028"
     id="namedview12"
     showgrid="false"
     inkscape:zoom="9.4583332"
     inkscape:cx="24.299013"
     inkscape:cy="17.763194"
     inkscape:window-x="0"
     inkscape:window-y="24"
     inkscape:window-maximized="1"
     inkscape:current-layer="svg10"
     inkscape:document-rotation="0" />
  <path
     d="M 46.499999,24 A 22.696228,22.696232 0 0 1 23.803771,46.696231 22.696228,22.696232 0 0 1 1.1075423,24 22.696228,22.696232 0 0 1 23.803771,1.3037698 22.696228,22.696232 0 0 1 46.499999,24 Z"
     id="path2"
     style="opacity:0.99;fill:#85a7bf;fill-opacity:1;stroke-width:1.15035" />
  <path
     d="M 46.499999,24 A 22.696228,22.696232 0 0 1 23.803771,46.696231 22.696228,22.696232 0 0 1 1.1075423,24 22.696228,22.696232 0 0 1 23.803771,1.3037698 22.696228,22.696232 0 0 1 46.499999,24 Z"
     id="path4"
     style="opacity:0.99;fill:#8fa8c3;fill-opacity:1;stroke-width:1.15035" />
  <path
     d="M 43.769278,24 A 19.965508,19.965511 0 0 1 23.803772,43.96551 19.965508,19.965511 0 0 1 3.8382628,24 19.965508,19.965511 0 0 1 23.803772,4.0344904 19.965508,19.965511 0 0 1 43.769278,24 Z"
     id="path1131"
     style="opacity:0.99;fill:#f6edff;fill-opacity:0.298647;stroke-width:1.01194" />
  <path
     style="fill:#ffffff;fill-opacity:1;stroke-width:0.899194"
     d="m 22.615256,40.846127 c -1.39886,-2.592694 -1.45379,-4.031616 -0.232187,-6.082593 l 0.693241,-1.163911 -1.506851,-1.222856 c -2.315316,-1.878951 -3.083901,-2.367988 -3.083901,-4.128614 0,-1.44788 0.812815,-3.309906 1.44484,-3.309906 0.151571,0 0.275552,-0.164688 0.275552,-0.365999 0,-0.201295 -0.741919,-0.499355 -1.648724,-0.662342 -2.076936,-0.373313 -3.203256,-1.196656 -3.221375,-2.354827 -0.01219,-0.772752 1.1244,-1.672372 3.349796,-2.651638 1.715018,-0.754676 2.340573,-1.193567 2.06262,-1.447144 -0.21941,-0.200173 -0.818295,-0.25326 -1.330837,-0.117935 -0.536324,0.141607 -0.931886,0.07297 -0.931886,-0.161631 0,-0.2242 -0.612891,-0.413787 -1.361993,-0.421265 -2.534227,-0.02515 -2.973947,-0.0728 -3.290744,-0.35524 -0.173839,-0.155014 -0.695678,-0.324898 -1.159628,-0.377556 -0.463952,-0.05263 -1.034669,-0.371456 -1.268266,-0.708452 -0.375131,-0.541191 -0.262775,-0.646982 0.962397,-0.906142 1.871503,-0.395888 3.674442,-2.307174 4.985065,-4.015389 2.336199,-3.0449071 3.053572,-3.2533291 3.628918,-1.0543224 0.280344,1.0715174 1.443236,2.2507214 1.779664,1.8046354 0.06477,-0.08587 -0.119322,-0.791246 -0.409081,-1.5674844 -0.498231,-1.3346937 -0.500378,-1.4696247 -0.03947,-2.4844477 0.585949,-1.290138 1.870645,-1.447782 2.580228,-0.316607 0.606119,0.966223 0.603886,2.0746547 -0.0062,3.0470997 -0.736265,1.1737034 -0.07131,1.9198954 0.896053,1.0054924 0.402359,-0.380337 0.731562,-0.8733794 0.731562,-1.0956474 0,-0.222265 0.261006,-0.780691 0.580046,-1.2409337 0.6968,-1.005256 1.17465,-0.734205 3.147505,1.7853721 1.524614,1.94712 3.060177,3.708375 4.984333,4.101788 1.257031,0.256995 1.355282,0.350988 0.961257,0.919438 -0.241397,0.34824 -0.806941,0.675509 -1.256778,0.727259 -0.44984,0.05173 -1.043979,0.23715 -1.320315,0.411997 -0.276337,0.174845 -0.816808,0.204084 -1.20105,0.06494 -0.384243,-0.13914 -0.784288,-0.05298 -0.888989,0.191402 -0.115924,0.270591 -0.615851,0.340667 -1.278455,0.179178 -0.675063,-0.164513 -1.162161,-0.0923 -1.283235,0.19032 -0.117173,0.273481 -0.574148,0.352972 -1.143535,0.198882 -0.544424,-0.147335 -1.026812,-0.07358 -1.132535,0.17322 -0.110715,0.258492 0.647894,0.782513 1.902627,1.314291 2.510448,1.063965 3.377088,1.80315 3.377088,2.880416 0,1.125205 -1.023132,1.968297 -2.795664,2.303708 -0.827949,0.156639 -1.505358,0.375904 -1.505358,0.487193 0,0.111294 0.387091,0.83838 0.860204,1.615755 0.936867,1.539365 1.034918,2.204858 0.527969,3.583541 -0.385095,1.047279 -0.935888,0.94633 -3.03759,2.690145 l -1.52433,1.264755 0.591114,0.983253 c 0.325104,0.54079 0.662883,1.460835 0.750617,2.044544 0.08771,0.583707 0.210302,1.298135 0.272393,1.587618 0.152519,0.711268 -1.829102,3.822931 -2.416337,3.794235 -0.25764,-0.01264 -0.739056,-0.524494 -1.069835,-1.137569 z m 3.038663,-2.944109 c 0,-0.923215 -1.076578,-3.341354 -1.487595,-3.341354 -0.128066,0 -0.232801,1.588736 -0.232801,3.530523 v 3.530523 l 0.860203,-1.413406 c 0.473113,-0.77737 0.860206,-1.815201 0.860206,-2.306286 z m -2.027303,0.46061 c -0.01127,-1.29478 -0.121531,-2.726442 -0.245477,-3.181473 -0.20602,-0.756401 -0.278579,-0.703211 -0.846316,0.620497 -0.661107,1.541369 -0.622809,2.7581 0.14039,4.460049 0.633653,1.413046 0.973948,0.733792 0.951403,-1.899073 z m -0.266581,-9.080926 c 0,-3.90745 -0.0041,-3.929791 -0.711039,-3.929791 -1.260678,0 -3.008215,1.256066 -3.188391,2.291711 -0.291867,1.677606 0.160683,1.895879 1.981079,3.384495 0.976238,0.798311 1.807238,1.45435 1.846662,1.457857 0.03942,0.0035 0.07172,-1.04289 0.07172,-3.204272 z m 2.752959,1.723012 c 1.898753,-1.451713 2.121531,-1.040633 2.121531,-2.214522 0,-1.625416 -0.505639,-2.544877 -1.6521,-3.004216 -2.333562,-0.934953 -2.362188,-0.895092 -2.362188,3.288895 0,2.047626 0.109801,3.00382 0.244016,3.00382 0.134205,0 0.876145,-0.483288 1.648724,-1.073977 z m -2.860489,-8.600149 c -0.09856,-0.710982 -0.179197,-2.200166 -0.179197,-3.309299 0,-1.109132 -0.127502,-2.016603 -0.28337,-2.016603 -0.155866,0 -0.252614,0.401506 -0.215061,0.892228 0.06125,0.800173 -0.227565,1.003695 -2.799047,1.97247 -3.844703,1.448449 -3.844703,2.074117 0,2.986611 3.944837,0.936257 3.684741,0.975566 3.47666,-0.525407 z m 5.531972,0.326633 c 1.012149,-0.264949 1.891231,-0.703061 1.953518,-0.973549 0.111781,-0.48543 -2.599726,-1.835241 -4.869031,-2.423846 -1.122702,-0.291186 -1.397161,-0.861902 -0.621118,-1.291521 0.365657,-0.202416 0.379625,-0.319564 0.07167,-0.601177 -0.726471,-0.664358 -0.812563,-0.349444 -0.812563,2.972212 v 3.334644 l 1.218631,-0.267498 c 0.67024,-0.147122 2.046736,-0.484291 3.058885,-0.749256 z"
     id="path8" />
</svg>
