<?xml version="1.0" encoding="UTF-8" standalone="no"?>
<svg
   xmlns:dc="http://purl.org/dc/elements/1.1/"
   xmlns:cc="http://creativecommons.org/ns#"
   xmlns:rdf="http://www.w3.org/1999/02/22-rdf-syntax-ns#"
   xmlns:svg="http://www.w3.org/2000/svg"
   xmlns="http://www.w3.org/2000/svg"
   xmlns:sodipodi="http://sodipodi.sourceforge.net/DTD/sodipodi-0.dtd"
   xmlns:inkscape="http://www.inkscape.org/namespaces/inkscape"
   width="100%"
   height="100%"
   viewBox="0 0 2048 2048"
   version="1.1"
   xml:space="preserve"
   style="fill-rule:evenodd;clip-rule:evenodd;stroke-linecap:round;stroke-linejoin:round;stroke-miterlimit:1.5;"
   id="svg58"
   sodipodi:docname="ant-downloader.svg"
   inkscape:version="1.0.1 (3bc2e813f5, 2020-09-07, custom)"><metadata
   id="metadata64"><rdf:RDF><cc:Work
       rdf:about=""><dc:format>image/svg+xml</dc:format><dc:type
         rdf:resource="http://purl.org/dc/dcmitype/StillImage" /></cc:Work></rdf:RDF></metadata><defs
   id="defs62" /><sodipodi:namedview
   pagecolor="#ffffff"
   bordercolor="#666666"
   borderopacity="1"
   objecttolerance="10"
   gridtolerance="10"
   guidetolerance="10"
   inkscape:pageopacity="0"
   inkscape:pageshadow="2"
   inkscape:window-width="1849"
   inkscape:window-height="1048"
   id="namedview60"
   showgrid="false"
   inkscape:zoom="0.08972168"
   inkscape:cx="840.74853"
   inkscape:cy="642.16623"
   inkscape:window-x="71"
   inkscape:window-y="32"
   inkscape:window-maximized="1"
   inkscape:current-layer="svg58" />
    <g
   transform="matrix(1.9889904,0,0,1.5143548,-1195.6925,-687.85244)"
   id="g4"
   style="fill:#ededed;fill-opacity:0.796242">
        <path
   d="m 1584.84,560.631 c 0,-12.177 -4.64,-23.855 -12.9,-32.466 -8.25,-8.61 -19.45,-13.448 -31.13,-13.448 H 696.468 c -11.677,0 -22.875,4.838 -31.131,13.448 -8.257,8.611 -12.895,20.289 -12.895,32.466 V 1694.65 c 0,12.18 4.638,23.86 12.895,32.47 8.256,8.61 19.454,13.45 31.131,13.45 h 844.342 c 11.68,0 22.88,-4.84 31.13,-13.45 8.26,-8.61 12.9,-20.29 12.9,-32.47 z"
   style="fill:#ededed;fill-opacity:0.796242"
   id="path2" />
    </g>
    
    
<rect
   style="fill:#ffffff;fill-opacity:1;fill-rule:evenodd;stroke-width:51.4578;stroke-linecap:square;paint-order:stroke markers fill"
   id="rect949"
   width="409.99597"
   height="443.04138"
   x="857.6626"
   y="1328.3202"
   ry="0"
   rx="0" /><path
   style="fill:#d599bf;fill-opacity:1;fill-rule:evenodd;stroke-width:40.4566;stroke-linecap:square;paint-order:stroke markers fill"
   id="path903"
   sodipodi:type="arc"
   sodipodi:cx="1050.5037"
   sodipodi:cy="1046.4746"
   sodipodi:rx="751.48346"
   sodipodi:ry="751.48346"
   sodipodi:start="1.8164874"
   sodipodi:end="3.1520648"
   sodipodi:arc-type="slice"
   d="M 867.72282,1775.3906 A 751.48346,751.48346 0 0 1 299.06141,1038.6051 l 751.44229,7.8695 z" /><path
   style="fill:#bd777c;fill-opacity:1;fill-rule:evenodd;stroke-width:40.4566;stroke-linecap:square;paint-order:stroke markers fill"
   id="path914"
   sodipodi:type="arc"
   sodipodi:cx="1050.5037"
   sodipodi:cy="1046.4746"
   sodipodi:rx="751.48346"
   sodipodi:ry="751.48346"
   sodipodi:start="3.1248756"
   sodipodi:end="4.1231392"
   sodipodi:arc-type="slice"
   d="M 299.1252,1059.0366 A 751.48346,751.48346 0 0 1 632.87614,421.72295 l 417.62756,624.75165 z" /><path
   style="fill:#b8a461;fill-opacity:1;fill-rule:evenodd;stroke-width:40.4566;stroke-linecap:square;paint-order:stroke markers fill"
   id="path933"
   sodipodi:type="arc"
   sodipodi:cx="1050.5037"
   sodipodi:cy="1046.4746"
   sodipodi:rx="751.48346"
   sodipodi:ry="751.48346"
   sodipodi:start="3.9670347"
   sodipodi:end="4.8422724"
   sodipodi:arc-type="slice"
   d="M 540.82339,494.24874 A 751.48346,751.48346 0 0 1 1147.8347,301.3209 l -97.331,745.1537 z" /><path
   style="fill:#99b964;fill-opacity:1;fill-rule:evenodd;stroke-width:40.4566;stroke-linecap:square;paint-order:stroke markers fill"
   id="path935"
   sodipodi:type="arc"
   sodipodi:cx="1050.5037"
   sodipodi:cy="1046.4746"
   sodipodi:rx="751.48346"
   sodipodi:ry="751.48346"
   sodipodi:start="4.7984685"
   sodipodi:end="5.9827246"
   sodipodi:arc-type="slice"
   d="m 1115.1111,297.77356 a 751.48346,751.48346 0 0 1 653.2097,526.29178 l -717.8171,222.40926 z" /><path
   style="fill:#66d6a1;fill-opacity:1;fill-rule:evenodd;stroke-width:40.4566;stroke-linecap:square;paint-order:stroke markers fill"
   id="path937"
   sodipodi:type="arc"
   sodipodi:cx="1050.5037"
   sodipodi:cy="1046.4746"
   sodipodi:rx="751.48346"
   sodipodi:ry="751.48346"
   sodipodi:start="5.8346194"
   sodipodi:end="0.51724656"
   sodipodi:arc-type="slice"
   d="m 1727.6428,720.57595 a 751.48346,751.48346 0 0 1 -23.9617,697.49875 l -653.1774,-371.6001 z" /><path
   style="fill:#869bc5;fill-opacity:1;fill-rule:evenodd;stroke-width:40.4566;stroke-linecap:square;paint-order:stroke markers fill"
   id="path941"
   sodipodi:type="arc"
   sodipodi:cx="1050.5037"
   sodipodi:cy="1046.4746"
   sodipodi:rx="751.48346"
   sodipodi:ry="751.48346"
   sodipodi:start="0.36393117"
   sodipodi:end="1.2774117"
   sodipodi:arc-type="slice"
   d="m 1752.7685,1313.9657 a 751.48346,751.48346 0 0 1 -484.9404,451.8819 l -217.3244,-719.373 z" /><path
   style="fill:#ffffff;fill-opacity:1;fill-rule:evenodd;stroke-width:32.7618;stroke-linecap:square;paint-order:stroke markers fill"
   id="path943"
   sodipodi:type="arc"
   sodipodi:cx="1050.5037"
   sodipodi:cy="1046.4746"
   sodipodi:rx="341.17889"
   sodipodi:ry="341.17889"
   sodipodi:start="1.2864843"
   sodipodi:end="1.2863515"
   sodipodi:arc-type="slice"
   d="M 1146.2034,1373.9568 A 341.17889,341.17889 0 0 1 723.02462,1142.1852 341.17889,341.17889 0 0 1 954.78221,718.99875 341.17889,341.17889 0 0 1 1377.9763,950.74228 341.17889,341.17889 0 0 1 1146.2469,1373.9441 l -95.7432,-327.4695 z" /></svg>
