<?xml version="1.0" encoding="UTF-8" standalone="no"?>
<svg
   xmlns:dc="http://purl.org/dc/elements/1.1/"
   xmlns:cc="http://creativecommons.org/ns#"
   xmlns:rdf="http://www.w3.org/1999/02/22-rdf-syntax-ns#"
   xmlns:svg="http://www.w3.org/2000/svg"
   xmlns="http://www.w3.org/2000/svg"
   xmlns:sodipodi="http://sodipodi.sourceforge.net/DTD/sodipodi-0.dtd"
   xmlns:inkscape="http://www.inkscape.org/namespaces/inkscape"
   height="48"
   width="48"
   version="1.1"
   id="svg10"
   sodipodi:docname="auryo.svg"
   inkscape:version="1.0.2 (e86c870879, 2021-01-15)">
  <metadata
     id="metadata16">
    <rdf:RDF>
      <cc:Work
         rdf:about="">
        <dc:format>image/svg+xml</dc:format>
        <dc:type
           rdf:resource="http://purl.org/dc/dcmitype/StillImage" />
        <dc:title></dc:title>
      </cc:Work>
    </rdf:RDF>
  </metadata>
  <defs
     id="defs14" />
  <sodipodi:namedview
     pagecolor="#ffffff"
     bordercolor="#666666"
     borderopacity="1"
     objecttolerance="10"
     gridtolerance="10"
     guidetolerance="10"
     inkscape:pageopacity="0"
     inkscape:pageshadow="2"
     inkscape:window-width="1920"
     inkscape:window-height="1028"
     id="namedview12"
     showgrid="false"
     inkscape:zoom="9.4583332"
     inkscape:cx="24.299013"
     inkscape:cy="17.763194"
     inkscape:window-x="0"
     inkscape:window-y="24"
     inkscape:window-maximized="1"
     inkscape:current-layer="svg10"
     inkscape:document-rotation="0" />
  <path
     d="M 46.499999,24 A 22.696228,22.696232 0 0 1 23.803771,46.696231 22.696228,22.696232 0 0 1 1.1075423,24 22.696228,22.696232 0 0 1 23.803771,1.3037698 22.696228,22.696232 0 0 1 46.499999,24 Z"
     id="path2"
     style="opacity:0.99;fill:#85a7bf;fill-opacity:1;stroke-width:1.15035" />
  <path
     d="M 46.499999,24 A 22.696228,22.696232 0 0 1 23.803771,46.696231 22.696228,22.696232 0 0 1 1.1075423,24 22.696228,22.696232 0 0 1 23.803771,1.3037698 22.696228,22.696232 0 0 1 46.499999,24 Z"
     id="path4"
     style="opacity:0.99;fill:#8fabc3;fill-opacity:1;stroke-width:1.15035" />
  <path
     d="M 43.769278,24 A 19.965508,19.965511 0 0 1 23.803772,43.96551 19.965508,19.965511 0 0 1 3.8382628,24 19.965508,19.965511 0 0 1 23.803772,4.0344904 19.965508,19.965511 0 0 1 43.769278,24 Z"
     id="path1131"
     style="opacity:0.99;fill:#f6edff;fill-opacity:0.298647;stroke-width:1.01194" />
  <path
     style="fill:#ffffff;fill-opacity:1;stroke-width:0.941099"
     d="M 23.803771,8.9927764 A 12.234302,12.234302 0 0 0 11.56947,21.227077 v 3.966592 a 5.1760505,5.1760505 0 0 0 -3.7644006,4.973861 5.1760505,5.1760505 0 0 0 5.1760486,5.176049 5.1760505,5.1760505 0 0 0 2.352753,-0.571646 v 0.571646 h 2.823301 V 30.16753 24.991481 h -2.823301 v 0.566129 a 5.1760505,5.1760505 0 0 0 -0.941102,-0.367621 v -3.962912 a 9.4110012,9.4110012 0 0 1 9.411002,-9.411001 9.4110012,9.4110012 0 0 1 9.411003,9.411001 v 3.966592 a 5.1760505,5.1760505 0 0 0 -3.7644,4.973861 5.1760505,5.1760505 0 0 0 5.176049,5.176049 5.1760505,5.1760505 0 0 0 5.176049,-5.176049 5.1760505,5.1760505 0 0 0 -3.7644,-4.977541 V 21.227077 A 12.234302,12.234302 0 0 0 23.803771,8.9927764 Z M 12.981118,27.814781 a 2.3527503,2.3527503 0 0 1 2.352753,2.352749 2.3527503,2.3527503 0 0 1 -2.352753,2.352748 2.3527503,2.3527503 0 0 1 -2.352748,-2.352748 2.3527503,2.3527503 0 0 1 2.352748,-2.352749 z m 21.645305,0 a 2.3527503,2.3527503 0 0 1 2.352749,2.352749 2.3527503,2.3527503 0 0 1 -2.352749,2.352748 2.3527503,2.3527503 0 0 1 -2.352749,-2.352748 2.3527503,2.3527503 0 0 1 2.352749,-2.352749 z"
     id="path8" />
</svg>
