<?xml version="1.0" encoding="UTF-8" standalone="no"?><!DOCTYPE svg PUBLIC "-//W3C//DTD SVG 1.1//EN" "http://www.w3.org/Graphics/SVG/1.1/DTD/svg11.dtd"><svg width="100%" height="100%" viewBox="0 0 404 400" version="1.1" xmlns="http://www.w3.org/2000/svg" xmlns:xlink="http://www.w3.org/1999/xlink" xml:space="preserve" xmlns:serif="http://www.serif.com/" style="fill-rule:evenodd;clip-rule:evenodd;stroke-linecap:round;stroke-linejoin:round;stroke-miterlimit:1.5;"><rect id="basket" x="1.973" y="0" width="400" height="400" style="fill:none;"/><circle cx="201.973" cy="200" r="175.238" style="fill:#95908b;"/><g><path d="M340.194,141.884l-116.416,-31.194l-39.503,147.426l116.416,31.194l39.503,-147.426Z" style="fill:#f2f2f2;"/><path d="M332.572,146.379l-104.441,-27.985l-4.99,18.623l104.441,27.984l4.99,-18.622Z" style="fill:#c1dae8;"/></g><path d="M281.107,122.763c-0,-20.987 -8.337,-41.114 -23.177,-55.954c-14.84,-14.84 -34.967,-23.177 -55.954,-23.177c-0.002,-0 -0.004,-0 -0.005,-0c-20.987,-0 -41.114,8.337 -55.954,23.177c-14.84,14.84 -23.177,34.967 -23.177,55.954c-0,67.478 -0,153.633 -0,153.633l158.267,-0l-0,-153.633Zm-22.866,130.767l0,-130.767c0,-14.923 -5.928,-29.234 -16.48,-39.786c-10.551,-10.552 -24.863,-16.479 -39.785,-16.479c-0.002,-0 -0.004,-0 -0.005,-0c-14.923,-0 -29.234,5.927 -39.786,16.479c-10.552,10.552 -16.48,24.863 -16.48,39.786l0,130.767l112.536,0Z" style="fill:#ffdd94;"/><g><path d="M199.833,136.284l-116.416,31.194l39.503,147.426l116.416,-31.194l-39.503,-147.426Z" style="fill:#fff;"/><path d="M195.48,143.988l-104.441,27.985l4.99,18.622l104.441,-27.985l-4.99,-18.622Z" style="fill:#c1dae8;"/></g><path d="M43.706,200.191c-0,84.223 70.917,152.601 158.267,152.601c87.35,-0 158.268,-68.378 158.268,-152.601c-52.69,-0.106 -105.469,-0.191 -158.268,-0.191c-52.799,-0 -105.577,0.085 -158.267,0.191Z" style="fill:#ffdd94;"/><path d="M61.721,219.883l280.505,0" style="fill:none;stroke:#eecc83;stroke-width:8.33px;"/></svg>