<?xml version="1.0" encoding="UTF-8" standalone="no"?>
<!DOCTYPE svg PUBLIC "-//W3C//DTD SVG 1.1//EN" "http://www.w3.org/Graphics/SVG/1.1/DTD/svg11.dtd">
<svg version="1.1" xmlns="http://www.w3.org/2000/svg" xmlns:xlink="http://www.w3.org/1999/xlink" preserveAspectRatio="xMidYMid meet" viewBox="0 0 640 640" width="64" height="64"><defs><path d="M50.49 41.94L594.07 41.94L594.07 599.2L50.49 599.2L50.49 41.94Z" id="bjZdSobt2"></path><path d="M81.24 72.7L559.9 72.7L559.9 567.3L81.24 567.3L81.24 72.7Z" id="a2WXxrfqhC"></path><path d="M241.88 510.2C244.69 511.88 247.68 512.52 250.84 512.18C254.01 511.8 256.99 510.81 259.83 509.1C262.61 507.43 265.15 505.18 267.45 502.29C269.73 499.48 271.21 496.38 271.92 493.07C280.39 501.11 289.8 506.69 300.18 509.78C310.56 512.87 322.78 514.88 336.84 515.8C354.79 516.96 371.48 514.32 386.95 507.85C402.42 501.4 415.86 492.07 427.3 479.9C438.68 467.75 447.66 453.12 454.12 435.94C460.62 418.79 463.82 400.3 463.78 380.47C463.78 379.01 463.77 367.34 463.76 365.88C463.74 345.7 460.45 327.14 453.92 310.24C447.37 293.38 438.56 278.79 427.46 266.47C416.37 254.12 403.42 244.61 388.64 237.83C373.85 231.09 358.38 227.93 342.19 228.36C330.93 228.73 320.57 230.97 311.09 235.02C301.59 239.11 293.86 243.16 287.88 247.28C287.52 242.74 287.33 238.26 287.32 233.76C287.32 229.27 287.31 224.61 287.31 219.73C287.31 215.92 287.25 185.39 287.25 181.57C287.24 174.84 287.5 167.29 288.01 158.91C288.52 150.54 289.13 143.74 289.84 138.57C290.18 135.61 290.69 132.26 291.41 128.57C290.68 125.53 288.84 122.59 285.84 119.77C282.84 116.98 280.12 115.12 277.66 114.18C273.8 112.47 269.03 111.39 263.41 111.03C257.79 110.67 252.14 111.41 246.54 113.29C240.91 115.19 235.89 118.59 231.52 123.53C227.09 128.49 224.58 135.41 223.89 144.36C223.2 149.18 222.58 157.73 222.12 170.03C221.58 182.35 221.18 196.62 220.86 212.85C220.52 229.1 220.28 246.6 220.14 265.27C219.98 283.98 219.94 302.3 219.95 320.23C219.98 327.75 219.82 336.77 219.48 347.43C219.15 358.07 218.63 369.16 217.96 380.72C217.26 393.78 216.69 406.71 216.17 419.57C215.66 432.45 215.41 443.74 215.43 453.48C215.43 457.96 215.5 461.79 215.7 465C215.9 468.2 216.16 471.3 216.51 474.31C216.16 482.51 216.81 489.01 218.38 493.79C219.98 498.58 222.1 502.17 224.73 504.6C227.36 507 230.24 508.6 233.43 509.35C236.6 510.13 239.4 510.39 241.88 510.2ZM285.97 367.2C285.97 358.62 286.48 350.6 287.49 343.17C288.56 335.77 289.95 328.38 291.69 320.98C299.42 311.81 307.59 304.35 316.19 298.76C324.81 293.15 334.21 290.66 344.42 291.34C355.69 292.05 366.13 296.12 375.84 303.47C385.54 310.83 391.6 322.44 394.1 338.32C395.15 339.5 396.1 341.64 397 344.66C397.87 347.72 398.6 351.23 399.13 355.18C399.69 359.17 399.94 363.4 399.95 367.85C399.94 372.35 399.96 376.47 399.95 380.21C399.29 402.23 393.24 419.89 381.84 433.15C370.44 446.44 355.77 452.51 337.82 451.34C328.64 450.71 320.49 447.49 313.28 441.6C306.04 435.71 299.09 429.54 292.39 423.12C292.34 423.06 291.93 422.6 291.88 422.54C287.95 406.98 286.02 389.64 285.97 370.58C285.97 369.91 285.97 367.53 285.97 367.2Z" id="c1O6NmLw7W"></path></defs><g><g><g><use xlink:href="#bjZdSobt2" opacity="1" fill="#1e7c86" fill-opacity="1"></use></g><g><use xlink:href="#a2WXxrfqhC" opacity="1" fill="#424242" fill-opacity="1"></use></g><g><use xlink:href="#c1O6NmLw7W" opacity="1" fill="#1e7c86" fill-opacity="1"></use><g><use xlink:href="#c1O6NmLw7W" opacity="1" fill-opacity="0" stroke="#000000" stroke-width="1" stroke-opacity="0"></use></g></g></g></g></svg>