<?xml version="1.0" encoding="UTF-8" standalone="no"?>
<svg
   xmlns:dc="http://purl.org/dc/elements/1.1/"
   xmlns:cc="http://creativecommons.org/ns#"
   xmlns:rdf="http://www.w3.org/1999/02/22-rdf-syntax-ns#"
   xmlns:svg="http://www.w3.org/2000/svg"
   xmlns="http://www.w3.org/2000/svg"
   xmlns:sodipodi="http://sodipodi.sourceforge.net/DTD/sodipodi-0.dtd"
   xmlns:inkscape="http://www.inkscape.org/namespaces/inkscape"
   height="48"
   width="48"
   version="1.1"
   id="svg10"
   sodipodi:docname="BTORRENT.svg"
   inkscape:version="1.0.2 (e86c870879, 2021-01-15)">
  <metadata
     id="metadata16">
    <rdf:RDF>
      <cc:Work
         rdf:about="">
        <dc:format>image/svg+xml</dc:format>
        <dc:type
           rdf:resource="http://purl.org/dc/dcmitype/StillImage" />
        <dc:title></dc:title>
      </cc:Work>
    </rdf:RDF>
  </metadata>
  <defs
     id="defs14" />
  <sodipodi:namedview
     pagecolor="#ffffff"
     bordercolor="#666666"
     borderopacity="1"
     objecttolerance="10"
     gridtolerance="10"
     guidetolerance="10"
     inkscape:pageopacity="0"
     inkscape:pageshadow="2"
     inkscape:window-width="1920"
     inkscape:window-height="1028"
     id="namedview12"
     showgrid="false"
     inkscape:zoom="4.7291666"
     inkscape:cx="-27.930656"
     inkscape:cy="66.937308"
     inkscape:window-x="0"
     inkscape:window-y="24"
     inkscape:window-maximized="1"
     inkscape:current-layer="svg10"
     inkscape:document-rotation="0" />
  <path
     d="M 46.499999,24 A 22.696228,22.696232 0 0 1 23.803771,46.696231 22.696228,22.696232 0 0 1 1.1075423,24 22.696228,22.696232 0 0 1 23.803771,1.3037698 22.696228,22.696232 0 0 1 46.499999,24 Z"
     id="path2"
     style="opacity:0.99;fill:#85a7bf;fill-opacity:1;stroke-width:1.15035" />
  <path
     d="M 46.499999,24 A 22.696228,22.696232 0 0 1 23.803771,46.696231 22.696228,22.696232 0 0 1 1.1075423,24 22.696228,22.696232 0 0 1 23.803771,1.3037698 22.696228,22.696232 0 0 1 46.499999,24 Z"
     id="path4"
     style="opacity:0.99;fill:#bc564b;fill-opacity:1;stroke-width:1.15035" />
  <path
     d="M 43.769278,24 A 19.965508,19.965511 0 0 1 23.803772,43.96551 19.965508,19.965511 0 0 1 3.8382628,24 19.965508,19.965511 0 0 1 23.803772,4.0344904 19.965508,19.965511 0 0 1 43.769278,24 Z"
     id="path1131"
     style="opacity:0.99;fill:#f6edff;fill-opacity:0.298647;stroke-width:1.01194" />
  <g
     style="display:inline;opacity:1;fill:#ffffff;fill-opacity:1"
     transform="matrix(0.11631118,0,0,0.11631118,-2.3568456,1.705225)"
     id="g1613">
    <path
       id="path1619"
       d="m 199.45094,330.32598 c -8.056,-1.75787 -9.97704,-5.19731 -9.97704,-17.86291 0,-13.19471 1.23238,-15.1806 7.75992,-12.50444 32.85355,13.46929 75.56492,-0.0971 90.57386,-28.76885 15.92237,-30.41675 5.65632,-78.86445 -18.32414,-86.47555 -9.23649,-2.93155 -9.22812,-3.01768 1.53552,-15.80954 15.62969,-18.57484 18.35751,-36.39233 8.60461,-56.20326 -10.52878,-21.386943 -31.43705,-33.276516 -58.51804,-33.276516 -26.229,0 -47.05767,10.323137 -58.4167,28.952576 -7.86643,12.90136 -8.65733,22.78935 -8.67239,108.42364 -0.009,51.8252 -1.58814,94.22764 -3.50895,94.22764 -8.22279,0 -45.69114,-43.95532 -54.807566,-64.29651 C 80.922354,213.75931 81.419671,166.26588 96.888061,133.27562 121.33376,81.138969 167.56416,51.683794 224.94783,51.683794 c 57.38367,0 103.61407,29.455175 128.05977,81.591826 15.42641,32.90074 15.88588,80.25188 1.10486,113.86411 -12.23367,27.81952 -44.70405,60.45204 -72.21508,72.57569 -20.72608,9.13363 -63.80649,14.67792 -82.44644,10.61056 z m -2.63843,-62.88022 c -6.13974,-6.78434 -7.33861,-18.93797 -7.33861,-74.39546 0,-77.65071 2.98409,-85.99665 30.74818,-85.99665 19.0314,0 25.59528,5.68576 29.58324,25.62557 2.19219,10.96098 0.46735,15.96633 -8.6406,25.07427 -6.25874,6.25875 -16.45876,11.37954 -22.6667,11.37954 -8.9489,0 -11.28716,2.19822 -11.28716,10.61119 0,10.67468 7.29573,15.99426 21.93588,15.99426 4.3493,0 13.16544,4.13565 19.59142,9.19033 9.68541,7.61854 11.6836,12.78411 11.6836,30.20356 0,28.34999 -11.10305,40.42247 -37.17654,40.42247 -12.8666,0 -21.48757,-2.64476 -26.43271,-8.10908 z"
       style="fill:#ffffff;fill-opacity:1;stroke-width:4.43424" />
    <path
       id="path1617"
       d="m 206.1023,329.67984 c -15.68582,-1.36729 -16.6284,-2.3078 -16.6284,-16.59187 0,-14.42217 0.54102,-14.93673 11.37427,-10.81793 30.0393,11.42092 66.95271,-0.17025 85.07048,-26.71296 14.85536,-21.76325 14.11505,-60.91769 -1.50274,-79.47838 -6.31387,-7.50362 -14.66883,-13.64294 -18.56657,-13.64294 -5.20183,0 -3.62269,-3.61574 5.93698,-13.59389 10.86776,-11.3435 13.02377,-17.27241 13.02377,-35.81466 0,-19.86385 -1.69997,-23.77867 -16.02714,-36.908546 -28.34897,-25.979892 -73.3698,-24.949691 -99.47434,2.276247 l -13.09153,13.653909 -2.21712,100.59854 -2.21712,100.59853 -24.90693,-24.79361 C 87.514747,249.27021 75.874739,197.43762 94.115537,142.57138 105.27175,109.01477 142.46277,71.753291 176.21497,60.316416 230.68973,41.857734 283.15207,53.692371 322.85589,93.396186 417.06871,187.60901 341.0554,341.44328 206.1023,329.67984 Z m -6.77328,-61.02781 c -9.40798,-6.5896 -9.85512,-9.7992 -9.85512,-70.73922 0,-39.34166 1.99316,-68.21095 5.19444,-75.23699 6.03931,-13.25484 22.16946,-18.61645 38.66212,-12.85117 9.69587,3.38935 11.79506,7.13939 12.95099,23.13592 1.64484,22.76244 -3.79217,30.54118 -23.99631,34.3315 -12.81403,2.40392 -15.07428,4.66103 -15.07428,15.05333 0,11.02551 1.84516,12.47287 18.80021,14.74702 23.13466,3.10301 34.41069,15.70185 34.41069,38.44749 0,24.08851 -13.85444,40.01493 -34.80912,40.01493 -9.03567,0 -20.86329,-3.10627 -26.28362,-6.90281 z"
       style="fill:#ffffff;fill-opacity:1;stroke-width:4.43424" />
    <path
       id="path1615"
       d="m 192.79958,326.21218 c -1.82913,-1.84732 -3.32568,-7.74829 -3.32568,-13.11327 0,-9.28942 1.42708,-9.65652 29.93113,-7.69932 26.11635,1.79324 31.8572,0.72876 45.04325,-8.35198 25.5174,-17.5729 33.52739,-32.0726 33.4319,-60.51857 -0.091,-27.10629 -9.49826,-47.22407 -24.27559,-51.91421 -7.69803,-2.44327 -7.53953,-3.56687 2.61381,-18.52866 20.47879,-30.17718 10.7669,-66.744531 -21.63351,-81.454799 -35.24772,-16.002999 -72.90925,-8.404601 -92.16583,18.594909 -10.23038,14.34396 -10.72082,18.53135 -12.85334,109.74381 l -2.21712,94.83083 -18.5683,-18.58461 C 75.152356,235.54126 73.439775,149.4389 124.94602,96.44286 156.7291,63.740473 175.69967,56.084377 224.94783,56.084377 c 35.58657,0 45.12841,1.60047 61.47264,10.310918 84.00671,44.770305 101.78246,155.717135 35.559,221.940595 -26.27941,26.2794 -53.13193,37.7789 -92.5974,39.65451 -18.29125,0.8693 -34.75337,0.0691 -36.58249,-1.77822 z m 12.19416,-55.95602 c -4.87766,-2.76595 -10.33448,-7.19494 -12.12626,-9.84221 -5.74519,-8.48822 -3.78612,-123.50352 2.30883,-135.54969 13.61265,-26.904308 51.94273,-19.20997 51.94273,10.42693 0,16.50867 -9.29776,27.1638 -27.71401,31.75995 -9.62722,2.40268 -12.19417,5.62312 -12.19417,15.2986 0,10.83131 2.0236,12.57887 17.41597,15.04021 30.39302,4.86004 43.73157,32.21783 29.30757,60.11078 -9.45019,18.27465 -29.83742,23.58819 -48.94066,12.75543 z"
       style="fill:#ffffff;fill-opacity:1;stroke-width:4.43424" />
  </g>
</svg>
