<?xml version="1.0" encoding="UTF-8" standalone="no"?><!DOCTYPE svg PUBLIC "-//W3C//DTD SVG 1.1//EN" "http://www.w3.org/Graphics/SVG/1.1/DTD/svg11.dtd"><svg width="100%" height="100%" viewBox="0 0 1024 1024" version="1.1" xmlns="http://www.w3.org/2000/svg" xmlns:xlink="http://www.w3.org/1999/xlink" xml:space="preserve" xmlns:serif="http://www.serif.com/" style="fill-rule:evenodd;clip-rule:evenodd;stroke-linejoin:round;stroke-miterlimit:2;"><circle cx="512" cy="512" r="489.236" style="fill:#dedede;"/><path d="M791.82,280.506c2.404,-0.765 5.033,-0.019 6.678,1.894c1.644,1.914 1.986,4.625 0.868,6.887c-39.468,79.863 -244.946,495.642 -281.727,570.068c-1.06,2.145 -3.246,3.503 -5.639,3.503c-2.393,0 -4.579,-1.358 -5.639,-3.503c-36.781,-74.426 -242.259,-490.205 -281.727,-570.068c-1.118,-2.262 -0.776,-4.973 0.868,-6.887c1.645,-1.913 4.274,-2.659 6.678,-1.894c58.602,18.648 279.82,89.042 279.82,89.042c0,0 221.218,-70.394 279.82,-89.042Z" style="fill:#9ca8de;"/></svg>