<?xml version="1.0" encoding="UTF-8" standalone="no"?>
<svg
   xmlns:dc="http://purl.org/dc/elements/1.1/"
   xmlns:cc="http://creativecommons.org/ns#"
   xmlns:rdf="http://www.w3.org/1999/02/22-rdf-syntax-ns#"
   xmlns:svg="http://www.w3.org/2000/svg"
   xmlns="http://www.w3.org/2000/svg"
   xmlns:sodipodi="http://sodipodi.sourceforge.net/DTD/sodipodi-0.dtd"
   xmlns:inkscape="http://www.inkscape.org/namespaces/inkscape"
   height="48"
   width="48"
   version="1.1"
   id="svg6"
   sodipodi:docname="calf_plugin.svg"
   inkscape:version="1.0.2 (e86c870879, 2021-01-15)">
  <metadata
     id="metadata12">
    <rdf:RDF>
      <cc:Work
         rdf:about="">
        <dc:format>image/svg+xml</dc:format>
        <dc:type
           rdf:resource="http://purl.org/dc/dcmitype/StillImage" />
        <dc:title></dc:title>
      </cc:Work>
    </rdf:RDF>
  </metadata>
  <defs
     id="defs10" />
  <sodipodi:namedview
     pagecolor="#ffffff"
     bordercolor="#666666"
     borderopacity="1"
     objecttolerance="10"
     gridtolerance="10"
     guidetolerance="10"
     inkscape:pageopacity="0"
     inkscape:pageshadow="2"
     inkscape:window-width="1507"
     inkscape:window-height="1056"
     id="namedview8"
     showgrid="false"
     inkscape:zoom="5.656854"
     inkscape:cx="22.064574"
     inkscape:cy="20.787498"
     inkscape:window-x="409"
     inkscape:window-y="24"
     inkscape:window-maximized="0"
     inkscape:current-layer="svg6"
     inkscape:document-rotation="0" />
  <circle
     cx="23.940615"
     cy="31.534513"
     fill="#74a2f3"
     opacity=".99"
     id="circle2"
     style="fill:#83aea2;fill-opacity:1"
     transform="matrix(1.75830584759 0 0 1.75830608345 -18.15909274367 -30.97874795549)"
     r="13.232998" />
  <path
     id="rect907"
     style="color:#000000;font-style:normal;font-variant:normal;font-weight:normal;font-stretch:normal;font-size:medium;line-height:normal;font-family:sans-serif;font-variant-ligatures:normal;font-variant-position:normal;font-variant-caps:normal;font-variant-numeric:normal;font-variant-alternates:normal;font-variant-east-asian:normal;font-feature-settings:normal;font-variation-settings:normal;text-indent:0;text-align:start;text-decoration:none;text-decoration-line:none;text-decoration-style:solid;text-decoration-color:#000000;letter-spacing:normal;word-spacing:normal;text-transform:none;writing-mode:lr-tb;direction:ltr;text-orientation:mixed;dominant-baseline:auto;baseline-shift:baseline;text-anchor:start;white-space:normal;shape-padding:0;shape-margin:0;inline-size:0;clip-rule:nonzero;display:inline;overflow:visible;visibility:visible;isolation:auto;mix-blend-mode:normal;color-interpolation:sRGB;color-interpolation-filters:linearRGB;solid-color:#000000;solid-opacity:1;vector-effect:none;fill:#fafafa;fill-opacity:1;fill-rule:nonzero;stroke:none;stroke-width:1.04972;stroke-linecap:round;stroke-linejoin:round;stroke-miterlimit:4;stroke-dasharray:none;stroke-dashoffset:0;stroke-opacity:1;color-rendering:auto;image-rendering:auto;shape-rendering:auto;text-rendering:auto;enable-background:accumulate;stop-color:#000000"
     d="m 30.445053,12.839636 c -1.921955,2.842473 -4.206067,4.164012 -6.382558,4.163907 -2.176481,-9.7e-5 -4.370562,-1.309925 -6.14008,-4.143294 l -1.068095,0.666137 c 1.059746,1.696883 2.320546,2.956694 3.687082,3.750013 l -1.729356,2e-6 c -0.516359,-2e-6 -0.988309,0.344167 -1.134276,0.838642 -0.92649,-1.591746 -2.035231,-2.590146 -3.35564,-2.923846 -1.718719,-0.43437 -3.601799,0.304893 -5.5970809,1.941449 l -0.323847,0.266346 0.184436,0.373209 c 1.026702,2.075144 2.2988279,3.410078 3.9382399,3.850369 1.521709,0.408677 3.251729,0.02428 5.249361,-1.003008 l 0.524015,7.673609 c -1.289482,0.707143 -2.167111,2.07817 -2.167118,3.648569 -2e-6,2.290546 1.865762,4.155767 4.1563,4.155781 l 7.532034,-1.1e-5 c 2.290547,-3e-6 4.156313,-1.865224 4.156301,-4.155782 0,-1.632582 -0.950136,-3.046445 -2.32389,-3.726144 l 0.636315,-7.498917 c 1.918797,0.955891 3.585709,1.301858 5.060043,0.905901 1.63941,-0.440289 2.91154,-1.77522 3.93824,-3.850368 l 0.184979,-0.373204 -0.322222,-0.266346 c -1.995279,-1.636555 -3.878359,-2.37582 -5.597075,-1.941458 -1.255428,0.317278 -2.319239,1.235782 -3.217317,2.693303 -0.206193,-0.368768 -0.609937,-0.6081 -1.040976,-0.608093 h -1.657209 c 1.397048,-0.789454 2.71165,-2.041282 3.85308,-3.729394 z m -17.064091,3.28838 c 0.236972,-0.0017 0.464886,0.02518 0.682952,0.08027 1.156776,0.292345 2.221997,1.453276 3.165232,3.456549 -1.811209,0.912375 -3.286326,1.252766 -4.432421,0.944965 -1.149878,-0.308816 -2.115429,-1.291069 -3.0035889,-2.911369 1.3589689,-1.027664 2.5609629,-1.5633 3.5878149,-1.570413 z m 21.109197,-10e-7 c 1.027317,0.0069 2.230535,0.542108 3.589983,1.570413 -0.888294,1.620891 -1.853487,2.602496 -3.003591,2.91137 -1.146091,0.307798 -2.621209,-0.03258 -4.43242,-0.944961 0.943247,-2.003268 2.006296,-3.164194 3.163078,-3.456534 0.218128,-0.05513 0.445881,-0.08188 0.682954,-0.08028 z m -15.458961,2.53599 10.036014,-1e-6 -0.776259,9.14855 c -0.155268,-0.01775 -0.31255,-0.02875 -0.472481,-0.02875 h -7.532027 c -0.214534,0 -0.423895,0.02105 -0.629791,0.05261 z m 9.142584,10.533977 c -0.116404,-0.01442 -0.234509,-0.02441 -0.35531,-0.0244 l -7.532025,1e-6 6e-6,2e-6 c -0.18331,0 -0.362127,0.01868 -0.534864,0.05152 l -1.344759,0.676992 c -0.547016,0.503376 -0.888544,1.225612 -0.888542,2.03964 -2e-6,1.545233 1.222928,2.76545 2.768149,2.76546 l 7.532017,6e-6 c 1.545231,0 2.765991,-1.220217 2.76598,-2.76546 1.1e-5,-0.898746 -0.414752,-1.685966 -1.737479,-2.466547 -1.257926,2.461652 -8.841618,3.479186 -9.095383,-0.250074"
     sodipodi:nodetypes="cscccscscccsccssssccscccscscccsccscsscscssscccsscccscsccsssscc" />
</svg>
