<?xml version="1.0" encoding="UTF-8" standalone="no"?>
<!DOCTYPE svg PUBLIC "-//W3C//DTD SVG 1.1//EN" "http://www.w3.org/Graphics/SVG/1.1/DTD/svg11.dtd">
<svg version="1.1" xmlns="http://www.w3.org/2000/svg" xmlns:xlink="http://www.w3.org/1999/xlink" preserveAspectRatio="xMidYMid meet" viewBox="0 0 640 640" width="64" height="64"><defs><path d="M609.88 326.33C609.88 488.87 478.97 620.84 317.72 620.84C156.47 620.84 25.56 488.87 25.56 326.33C25.56 163.79 156.47 31.83 317.72 31.83C478.97 31.83 609.88 163.79 609.88 326.33Z" id="a2qnDoFiSu"></path><path d="M596.92 325.13C596.92 481.42 471.3 608.31 316.58 608.31C161.86 608.31 36.25 481.42 36.25 325.13C36.25 168.83 161.86 41.94 316.58 41.94C471.3 41.94 596.92 168.83 596.92 325.13Z" id="aL2H4SCeS"></path><path d="M380.48 529.09L525.02 452.96C531.26 464.8 535.16 472.2 536.72 475.17C543.94 488.88 538.68 505.85 524.97 513.07C501.03 525.68 456.34 549.22 432.97 561.53C417.66 569.59 398.72 563.72 390.66 548.42C389.3 545.84 385.91 539.4 380.48 529.09Z" id="bkWUPoqP9"></path><path d="M370.72 112.86L521.09 176.72C526.32 164.39 529.6 156.69 530.9 153.61C536.96 139.35 530.31 122.87 516.04 116.81C491.13 106.23 444.64 86.49 420.33 76.17C404.41 69.41 386.02 76.83 379.26 92.76C378.12 95.44 375.27 102.14 370.72 112.86Z" id="b5KxyBtYIP"></path><path d="M227.08 567.75L225.42 543.89L371.99 533.64L373.66 557.51L227.08 567.75Z" id="il5zV5hmS"></path><path d="M436.05 392.31C448.97 392.31 459.44 402.78 459.44 415.7C459.44 430.04 459.44 449.69 459.44 464.03C459.44 476.95 448.97 487.42 436.05 487.42C430.09 487.42 435.61 487.42 429.66 487.42C416.74 487.42 406.27 476.95 406.27 464.03C406.27 449.69 406.27 430.04 406.27 415.7C406.27 402.78 416.74 392.31 429.66 392.31C435.61 392.31 430.09 392.31 436.05 392.31Z" id="aCOe3AybH"></path><path d="M219.11 105.07L218.51 81.16L365.39 77.45L366 101.36L219.11 105.07Z" id="j4jwQ4CMIW"></path><path d="M98.03 488.83L109.84 468.04L237.59 540.63L225.77 561.43L98.03 488.83Z" id="cEn5bJgt2"></path><path d="M98.03 161.75L111.75 181.34L232.1 97.04L218.37 77.45L98.03 161.75Z" id="aEN52mNaF"></path><path d="M96.96 478.87L51.27 371.2L82.47 357.96L128.16 465.63L96.96 478.87Z" id="fcL48aAp4"></path><path d="M440.52 156.95C453.43 156.95 463.9 167.42 463.9 180.34C463.9 194.68 463.9 214.33 463.9 228.67C463.9 241.59 453.43 252.06 440.52 252.06C434.56 252.06 440.08 252.06 434.13 252.06C421.21 252.06 410.74 241.59 410.74 228.67C410.74 214.33 410.74 194.68 410.74 180.34C410.74 167.42 421.21 156.95 434.13 156.95C440.08 156.95 434.56 156.95 440.52 156.95Z" id="b350IXsDU"></path><path d="M82.08 283.77L128.16 176.27L97.01 162.92L50.93 270.42L82.08 283.77Z" id="c8bbq2tEe"></path><path d="M51.27 368.74L52.02 265.09L85.53 265.33L84.77 368.98L51.27 368.74Z" id="d40LImuwA"></path><path d="M437.32 176.72C444.69 176.72 450.66 182.69 450.66 190.06C450.66 199.69 450.66 215.25 450.66 224.88C450.66 232.25 444.69 238.23 437.32 238.23C434.65 238.23 439.99 238.23 437.32 238.23C429.95 238.23 423.98 232.25 423.98 224.88C423.98 215.25 423.98 199.69 423.98 190.06C423.98 182.69 429.95 176.72 437.32 176.72C439.99 176.72 434.65 176.72 437.32 176.72Z" id="e4Y0vjIGBY"></path><path d="M365.42 539.69L343.91 500.82L509.23 409.36L530.73 448.23L365.42 539.69Z" id="f2khqi9gLU"></path><path d="M509.57 219.77L527.31 179.04L354.1 103.59L336.36 144.32L509.57 219.77Z" id="cWaKXcTru"></path><path d="M434.11 406.53C441.48 406.53 447.45 412.5 447.45 419.87C447.45 429.5 447.45 445.06 447.45 454.69C447.45 462.06 441.48 468.04 434.11 468.04C431.44 468.04 436.78 468.04 434.11 468.04C426.74 468.04 420.77 462.06 420.77 454.69C420.77 445.06 420.77 429.5 420.77 419.87C420.77 412.5 426.74 406.53 434.11 406.53C436.78 406.53 431.44 406.53 434.11 406.53Z" id="f2iwV7ZX2"></path><path d="M91.07 163.67C16.18 260.26 19.72 397.06 99.5 489.64C170.47 572.01 285.32 599.72 385.36 558.62C404.03 575.24 430.84 578.65 452.99 567.24C459.12 564.06 508.16 538.69 514.29 535.52C544.05 520.17 555.87 483.33 540.68 453.22C540.65 453.17 540.62 453.12 540.6 453.06C540.28 452.43 537.73 447.4 537.41 446.77C537.13 446.23 536.79 445.73 536.38 445.28C541.08 429.46 532.2 412.79 516.56 408.04C509.23 405.81 501.34 406.54 494.53 410.08C480.52 417.34 368.38 475.42 354.36 482.68C339.83 490.16 334.04 508.14 341.45 522.84C342.57 525.07 343.96 527.14 345.59 529.02C268.46 550.02 186.17 525.43 132.68 465.38C134.21 462.26 134.97 458.81 134.92 455.32C134.79 450.65 133.22 446.14 130.43 442.42C79.57 373.87 77.15 280.32 124.4 209.24C129.03 202.37 129.46 193.45 125.51 186.15C175.83 123.45 256.71 94.66 334.81 111.64C324.69 124.57 326.85 143.35 339.64 153.6C341.58 155.15 343.7 156.45 345.96 157.47C360.33 163.99 475.31 216.18 489.69 222.71C504.52 229.55 522.02 222.95 528.78 207.96C531.99 200.85 532.31 192.75 529.67 185.4C530.04 184.92 530.36 184.4 530.61 183.85C530.9 183.21 533.19 178.05 533.47 177.4C547.15 146.53 533.48 110.27 502.94 96.42C496.65 93.57 446.36 70.76 440.07 67.91C417.36 57.65 390.77 62.45 372.98 80.01C344.25 69.86 313.94 65.08 283.53 65.92C208.13 67.75 137.53 103.62 91.07 163.67ZM507.48 522.08C501.35 525.25 452.31 550.62 446.17 553.8C423.9 565.3 396.61 556.54 384.96 534.15C399.22 526.78 513.26 467.77 527.52 460.4C532.88 471.2 533.82 483.7 530.12 495.18C526.43 506.85 518.28 516.53 507.48 522.08ZM353.21 509.77C353.06 504.05 356.16 498.76 361.18 496.15C375.2 488.89 487.33 430.81 501.35 423.54C508.57 419.81 517.41 422.7 521.11 430C524.81 437.3 521.95 446.24 514.74 449.97C505.41 454.8 458.78 478.95 374.83 522.41C374.67 522.49 374.59 522.53 374.57 522.54C367.36 526.28 358.52 523.4 354.83 516.11C354.82 516.11 354.82 516.1 354.82 516.09C353.81 514.16 353.26 511.98 353.21 509.77ZM364.17 539.05C366.34 539.33 368.53 539.37 370.71 539.16C370.78 539.3 371.36 540.46 371.44 540.6C372.49 542.66 373.66 544.66 374.93 546.58C284.12 581.52 181.4 557.09 115.45 484.87C116.21 484.1 122.28 477.87 123.04 477.1C167.36 526.06 230.49 553.18 296.08 551.44C319.27 550.85 342.24 546.67 364.17 539.05ZM118.49 451.49C120.63 454.3 120.41 458.28 117.95 460.81C116.71 462.08 106.8 472.22 105.56 473.49C37.26 388.59 34.14 267.82 97.96 179.5C99.26 180.7 109.68 190.31 110.98 191.52C113.57 193.92 114.01 197.88 112.01 200.8C61.2 277.22 63.81 377.8 118.49 451.49ZM107.25 167.63C169.37 92.09 270.69 62.38 363.19 92.57C362.02 94.56 360.95 96.62 360.01 98.73C359.94 98.88 359.42 100.06 359.35 100.21C357.17 100.11 354.98 100.26 352.83 100.65C266.03 75.44 172.74 104.63 115.23 174.99C115.23 174.99 108.05 168.37 107.25 167.63ZM495.82 208.93C481.44 202.41 366.46 150.21 352.08 143.69C346.93 141.34 343.56 136.22 343.42 130.5C343.22 122.31 349.62 115.51 357.72 115.31C359.91 115.26 362.09 115.7 364.09 116.61C364.11 116.62 364.2 116.66 364.36 116.73C450.44 155.8 498.26 177.51 507.82 181.85C515.22 185.21 518.53 193.98 515.22 201.46C515.21 201.46 515.21 201.47 515.21 201.47C511.89 208.94 503.21 212.28 495.82 208.93ZM496.83 110.21C519.67 120.56 530.01 147.58 520.02 170.78C505.41 164.15 388.47 111.11 373.85 104.48C384.32 81.51 411.12 71.34 433.97 81.68C433.96 81.68 490.54 107.36 496.83 110.21Z" id="c1rnr7TbhW"></path><path d="M320.95 281.1L267.78 281.1C267.78 293.44 267.78 300.3 267.78 301.67C271.97 300.39 276.17 300.39 281.77 300.39C295.06 300.39 306.26 304.25 315.35 311.32C324.44 318.39 329.34 328.04 329.34 340.9C329.34 353.12 324.44 363.4 314.65 371.12C304.86 378.84 292.96 383.34 278.27 383.34C260.08 383.34 244.69 376.91 232.1 364.69C233.71 362.63 246.58 346.17 248.19 344.11C249.59 345.4 250.99 346.69 253.09 347.97C255.18 349.26 258.68 351.83 263.58 354.4C268.48 356.97 274.07 358.26 278.97 358.26C283.87 358.26 288.76 356.97 292.96 353.76C297.16 351.19 299.26 346.69 299.26 340.9C299.26 335.11 297.16 331.25 292.96 328.04C288.76 324.82 283.17 323.54 276.17 323.54C269.18 323.54 261.48 326.11 252.39 330.61C251.55 329.79 247.35 325.72 239.79 318.39L239.79 256.66L320.95 256.66L320.95 281.1Z" id="a77xPzu8K"></path><path d="M247.28 260.6L316.58 260.6L316.58 277.1L247.28 277.1L247.28 260.6Z" id="b3vU0ydioW"></path><path d="M259.79 260.6L258.75 323.41L243.76 311.15L243.3 260.74L259.79 260.6Z" id="a4Op2DGr9z"></path><path d="M257.4 306.01C269.14 305.7 276.48 305.51 279.42 305.43C293.92 305.06 307.77 311.42 316.93 322.67C318.33 324.39 315.33 320.71 318.56 324.68C321.72 328.55 321.82 334.08 318.81 338.06C317.08 340.35 312.76 346.07 305.84 355.23C310.62 336.9 307.94 326.05 297.82 322.66C287.7 319.27 274.69 319.41 258.77 323.08L257.4 306.01Z" id="b68QTNiHci"></path><path d="M241.7 362.27C247.57 365.41 251.24 367.37 252.71 368.16C259.53 371.8 267.01 374.06 274.71 374.79C275.84 374.9 275.99 374.91 279.23 375.22C279.23 375.22 281.45 375.3 281.45 375.3C288.17 375.14 293.7 374.38 298.04 372.99C307.23 370.07 311.87 365.04 314.87 361.89C314.88 361.87 315.69 360.7 317.29 358.36C320.5 353.67 321.7 347.89 320.6 342.31C320.09 339.69 319.14 334.85 318.35 330.8C318.24 330.26 317.51 330.14 317.24 330.63C314.75 335.18 309.55 344.68 307.43 348.55C305.69 351.72 303.32 354.49 300.47 356.7C300.05 357.03 300.79 356.45 299.79 357.23C298.86 357.95 297.83 358.56 296.74 359.02C288.15 362.65 280.07 363.98 272.51 362.98C264.39 361.91 256.77 358.22 249.67 351.91L241.7 362.27Z" id="c18MXnDwq0"></path><path d="M310.5 327.32C314.63 327.32 317.21 327.32 318.24 327.32C319.77 327.32 321 328.56 321 330.08C321 333.63 321 341.51 321 345.06C321 346.58 319.77 347.81 318.24 347.81C317.21 347.81 314.63 347.81 310.5 347.81L310.5 327.32Z" id="a9OFl76sAY"></path></defs><g><g><g><use xlink:href="#a2qnDoFiSu" opacity="1" fill="#4d4e5f" fill-opacity="1"></use></g><g><use xlink:href="#aL2H4SCeS" opacity="1" fill="#9ea9c8" fill-opacity="1"></use></g><g><use xlink:href="#bkWUPoqP9" opacity="1" fill="#4d4e5f" fill-opacity="1"></use></g><g><use xlink:href="#b5KxyBtYIP" opacity="1" fill="#4d4e5f" fill-opacity="1"></use></g><g><use xlink:href="#il5zV5hmS" opacity="1" fill="#4d4e5f" fill-opacity="1"></use></g><g><use xlink:href="#aCOe3AybH" opacity="1" fill="#d2d4e3" fill-opacity="1"></use></g><g><use xlink:href="#j4jwQ4CMIW" opacity="1" fill="#4d4e5f" fill-opacity="1"></use></g><g><use xlink:href="#cEn5bJgt2" opacity="1" fill="#4d4e5f" fill-opacity="1"></use></g><g><use xlink:href="#aEN52mNaF" opacity="1" fill="#4d4e5f" fill-opacity="1"></use></g><g><use xlink:href="#fcL48aAp4" opacity="1" fill="#4d4e5f" fill-opacity="1"></use></g><g><use xlink:href="#b350IXsDU" opacity="1" fill="#d2d4e3" fill-opacity="1"></use></g><g><use xlink:href="#c8bbq2tEe" opacity="1" fill="#4d4e5f" fill-opacity="1"></use></g><g><use xlink:href="#d40LImuwA" opacity="1" fill="#4d4e5f" fill-opacity="1"></use></g><g><use xlink:href="#e4Y0vjIGBY" opacity="1" fill="#4d4e5f" fill-opacity="1"></use></g><g><use xlink:href="#f2khqi9gLU" opacity="1" fill="#4d4e5f" fill-opacity="1"></use></g><g><use xlink:href="#cWaKXcTru" opacity="1" fill="#4d4e5f" fill-opacity="1"></use></g><g><use xlink:href="#f2iwV7ZX2" opacity="1" fill="#4d4e5f" fill-opacity="1"></use></g><g><use xlink:href="#c1rnr7TbhW" opacity="1" fill="#d2d4e3" fill-opacity="1"></use><g><use xlink:href="#c1rnr7TbhW" opacity="1" fill-opacity="0" stroke="#000000" stroke-width="0" stroke-opacity="0"></use></g></g><g><use xlink:href="#a77xPzu8K" opacity="1" fill="#d2d4e3" fill-opacity="1"></use><g><use xlink:href="#a77xPzu8K" opacity="1" fill-opacity="0" stroke="#000000" stroke-width="0" stroke-opacity="0"></use></g></g><g><use xlink:href="#b3vU0ydioW" opacity="1" fill="#4d4e5f" fill-opacity="1"></use></g><g><use xlink:href="#a4Op2DGr9z" opacity="1" fill="#4d4e5f" fill-opacity="1"></use></g><g><use xlink:href="#b68QTNiHci" opacity="1" fill="#4d4e5f" fill-opacity="1"></use></g><g><use xlink:href="#c18MXnDwq0" opacity="1" fill="#4d4e5f" fill-opacity="1"></use></g><g><use xlink:href="#a9OFl76sAY" opacity="1" fill="#4d4e5f" fill-opacity="1"></use></g></g></g></svg>