<?xml version="1.0" encoding="UTF-8" standalone="no"?>
<svg
   xmlns:dc="http://purl.org/dc/elements/1.1/"
   xmlns:cc="http://creativecommons.org/ns#"
   xmlns:rdf="http://www.w3.org/1999/02/22-rdf-syntax-ns#"
   xmlns:svg="http://www.w3.org/2000/svg"
   xmlns="http://www.w3.org/2000/svg"
   xmlns:sodipodi="http://sodipodi.sourceforge.net/DTD/sodipodi-0.dtd"
   xmlns:inkscape="http://www.inkscape.org/namespaces/inkscape"
   height="48"
   width="48"
   version="1.1"
   id="svg10"
   sodipodi:docname="clickup-desktop.svg"
   inkscape:version="1.0.2 (e86c870879, 2021-01-15)">
  <metadata
     id="metadata16">
    <rdf:RDF>
      <cc:Work
         rdf:about="">
        <dc:format>image/svg+xml</dc:format>
        <dc:type
           rdf:resource="http://purl.org/dc/dcmitype/StillImage" />
        <dc:title></dc:title>
      </cc:Work>
    </rdf:RDF>
  </metadata>
  <defs
     id="defs14" />
  <sodipodi:namedview
     pagecolor="#ffffff"
     bordercolor="#666666"
     borderopacity="1"
     objecttolerance="10"
     gridtolerance="10"
     guidetolerance="10"
     inkscape:pageopacity="0"
     inkscape:pageshadow="2"
     inkscape:window-width="1920"
     inkscape:window-height="1028"
     id="namedview12"
     showgrid="false"
     inkscape:zoom="9.4583332"
     inkscape:cx="24.299013"
     inkscape:cy="17.763194"
     inkscape:window-x="0"
     inkscape:window-y="24"
     inkscape:window-maximized="1"
     inkscape:current-layer="svg10"
     inkscape:document-rotation="0" />
  <path
     d="M 46.499999,24 A 22.696228,22.696232 0 0 1 23.803771,46.696231 22.696228,22.696232 0 0 1 1.1075423,24 22.696228,22.696232 0 0 1 23.803771,1.3037698 22.696228,22.696232 0 0 1 46.499999,24 Z"
     id="path2"
     style="opacity:0.99;fill:#85a7bf;fill-opacity:1;stroke-width:1.15035" />
  <path
     d="M 46.499999,24 A 22.696228,22.696232 0 0 1 23.803771,46.696231 22.696228,22.696232 0 0 1 1.1075423,24 22.696228,22.696232 0 0 1 23.803771,1.3037698 22.696228,22.696232 0 0 1 46.499999,24 Z"
     id="path4"
     style="opacity:0.99;fill:#9d8fc3;fill-opacity:1;stroke-width:1.15035" />
  <path
     d="M 43.769278,24 A 19.965508,19.965511 0 0 1 23.803772,43.96551 19.965508,19.965511 0 0 1 3.8382628,24 19.965508,19.965511 0 0 1 23.803772,4.0344904 19.965508,19.965511 0 0 1 43.769278,24 Z"
     id="path1131"
     style="opacity:0.99;fill:#f6edff;fill-opacity:0.298647;stroke-width:1.01194" />
  <path
     style="fill:#ffffff;fill-opacity:1;stroke-width:0.829407"
     d="m 9.9807109,32.900413 5.1015571,-3.908128 c 2.710403,3.537455 5.590074,5.16798 8.795422,5.16798 3.188204,0 5.986456,-1.611245 8.574733,-5.120842 l 5.174407,3.813852 c -3.734573,5.06085 -8.37547,7.734827 -13.74914,7.734827 -5.356528,0 -10.04242,-2.656833 -13.8969791,-7.687689 z M 23.860552,15.913783 14.780159,23.738601 10.582782,18.870591 23.879831,7.4118987 37.071892,18.879158 32.855234,23.73003 Z"
     id="path8" />
</svg>
