<?xml version="1.0" encoding="UTF-8" standalone="no"?><!DOCTYPE svg PUBLIC "-//W3C//DTD SVG 1.1//EN" "http://www.w3.org/Graphics/SVG/1.1/DTD/svg11.dtd"><svg width="100%" height="100%" viewBox="0 0 1667 1667" version="1.1" xmlns="http://www.w3.org/2000/svg" xmlns:xlink="http://www.w3.org/1999/xlink" xml:space="preserve" xmlns:serif="http://www.serif.com/" style="fill-rule:evenodd;clip-rule:evenodd;stroke-linecap:round;stroke-linejoin:round;stroke-miterlimit:1.5;"><rect id="clipto" x="0" y="0" width="1666.67" height="1666.67" style="fill:none;"/><g id="clipto1" serif:id="clipto"><path d="M1595.8,294.931c0,-123.666 -100.401,-224.068 -224.068,-224.068l-1076.8,0c-123.666,0 -224.068,100.402 -224.068,224.068l0,1076.8c0,123.667 100.402,224.068 224.068,224.068l1076.8,0c123.667,0 224.068,-100.401 224.068,-224.068l0,-1076.8Z" style="fill:#eeaf64;stroke:#fff4e6;stroke-width:58.13px;"/><path d="M1438.03,942.924l0,-398.982c-107.142,-107.142 -231.63,-231.63 -303.516,-303.517c-32.951,-32.95 -86.374,-32.95 -119.325,0c-139.166,139.166 -483.98,483.98 -623.146,623.146c-32.95,32.951 -32.95,86.374 0,119.325c108.119,108.118 335.227,335.227 443.346,443.345c32.95,32.951 86.374,32.951 119.324,0c103.664,-103.664 321.435,-321.434 483.317,-483.317Z" style="fill:none;"/><clipPath id="_clip1"><path d="M1438.03,942.924l0,-398.982c-107.142,-107.142 -231.63,-231.63 -303.516,-303.517c-32.951,-32.95 -86.374,-32.95 -119.325,0c-139.166,139.166 -483.98,483.98 -623.146,623.146c-32.95,32.951 -32.95,86.374 0,119.325c108.119,108.118 335.227,335.227 443.346,443.345c32.95,32.951 86.374,32.951 119.324,0c103.664,-103.664 321.435,-321.434 483.317,-483.317Z"/></clipPath><g clip-path="url(#_clip1)"><path d="M1436.06,541.977l-210.097,210.098l201.456,201.456" style="fill:none;stroke:#fff4e6;stroke-width:58.23px;"/></g><path d="M1438.03,942.924l0,-398.982c-107.142,-107.142 -231.63,-231.63 -303.516,-303.517c-32.951,-32.95 -86.374,-32.95 -119.325,0c-139.166,139.166 -483.98,483.98 -623.146,623.146c-32.95,32.951 -32.95,86.374 0,119.325c108.119,108.118 335.227,335.227 443.346,443.345c32.95,32.951 86.374,32.951 119.324,0c103.664,-103.664 321.435,-321.434 483.317,-483.317Zm-58.226,-374.864l-286.463,-286.462c-10.211,-10.212 -26.768,-10.212 -36.979,-0c-139.166,139.166 -483.98,483.98 -623.146,623.146c-10.212,10.211 -10.212,26.768 -0,36.979c108.118,108.119 335.227,335.227 443.345,443.346c10.212,10.212 26.768,10.211 36.98,-0l466.263,-466.263l-0,-350.746Z" style="fill:#fff4e6;"/><g><path d="M542.261,452.098l168.707,0" style="fill:none;stroke:#fff4e6;stroke-width:41.67px;"/><path d="M377.151,750.215l546.345,0" style="fill:none;stroke:#fff4e6;stroke-width:41.67px;"/><path d="M228.641,1002.85l440.206,0" style="fill:none;stroke:#fff4e6;stroke-width:41.67px;"/><path d="M500.139,1214.57l381.235,0" style="fill:none;stroke:#fff4e6;stroke-width:41.67px;"/><path d="M228.641,750.215l19.42,0" style="fill:none;stroke:#fff4e6;stroke-width:41.67px;"/><path d="M824.972,1095.09l27.516,-0" style="fill:none;stroke:#fff4e6;stroke-width:41.67px;"/></g></g></svg>