<?xml version="1.0" encoding="UTF-8" standalone="no"?>
<svg
   xmlns:dc="http://purl.org/dc/elements/1.1/"
   xmlns:cc="http://creativecommons.org/ns#"
   xmlns:rdf="http://www.w3.org/1999/02/22-rdf-syntax-ns#"
   xmlns:svg="http://www.w3.org/2000/svg"
   xmlns="http://www.w3.org/2000/svg"
   xmlns:sodipodi="http://sodipodi.sourceforge.net/DTD/sodipodi-0.dtd"
   xmlns:inkscape="http://www.inkscape.org/namespaces/inkscape"
   inkscape:version="1.0 (4035a4fb49, 2020-05-01)"
   sodipodi:docname="cloaker-bin (2).svg"
   id="svg29"
   style="fill-rule:evenodd;clip-rule:evenodd;stroke-linejoin:round;stroke-miterlimit:2;"
   xml:space="preserve"
   version="1.1"
   viewBox="0 0 834 834"
   height="100%"
   width="100%"><metadata
     id="metadata35"><rdf:RDF><cc:Work
         rdf:about=""><dc:format>image/svg+xml</dc:format><dc:type
           rdf:resource="http://purl.org/dc/dcmitype/StillImage" /><dc:title></dc:title></cc:Work></rdf:RDF></metadata><defs
     id="defs33" /><sodipodi:namedview
     inkscape:current-layer="g27"
     inkscape:window-maximized="1"
     inkscape:window-y="32"
     inkscape:window-x="70"
     inkscape:cy="445.73327"
     inkscape:cx="296.0662"
     inkscape:zoom="0.70201968"
     showgrid="false"
     id="namedview31"
     inkscape:window-height="1048"
     inkscape:window-width="1850"
     inkscape:pageshadow="2"
     inkscape:pageopacity="0"
     guidetolerance="10"
     gridtolerance="10"
     objecttolerance="10"
     borderopacity="1"
     bordercolor="#666666"
     pagecolor="#ffffff" /><rect
     style="fill:none;"
     height="833.333"
     width="833.333"
     y="0"
     x="2.27"
     id="cloaker-bin" /><g
     id="g27"><path
       id="path3"
       style="fill:#565656;"
       d="M793.605,170.496c0,-70.92 -57.578,-128.498 -128.497,-128.498l-492.342,0c-70.92,0 -128.497,57.578 -128.497,128.498l-0,492.341c-0,70.92 57.577,128.498 128.497,128.498l492.342,-0c70.919,-0 128.497,-57.578 128.497,-128.498l0,-492.341Z" /><g
       style="fill:#b3b3b3"
       id="g25"><path
         id="path5"
         style="fill:#b3b3b3"
         d="M529.102,245.662c-20.596,-0 -37.292,-16.696 -37.292,-37.292c-0,-44.222 -0,-101.77 -0,-101.77c-0,-7.018 -5.69,-12.708 -12.708,-12.708l-248.189,0c-20.21,0 -36.619,16.408 -36.619,36.619c0,0 0,572.311 0,572.311c0,20.211 16.409,36.619 36.619,36.619c0,0 376.048,0 376.048,0c20.21,0 36.619,-16.408 36.619,-36.619l-0,-444.452c-0,-7.018 -5.69,-12.708 -12.709,-12.708l-101.769,-0Zm-62.709,-126.353l-235.48,-0c-6.183,-0 -11.202,5.019 -11.202,11.202l-0,572.311c-0,6.183 5.019,11.203 11.202,11.203l376.048,-0c6.183,-0 11.202,-5.02 11.202,-11.203l0,-431.743l-89.061,-0c-34.633,-0 -62.709,-28.076 -62.709,-62.709l0,-89.061Z" /><path
         id="path7"
         style="fill:#b3b3b3"
         d="M630.871,217.346l-110.746,-110.746l0,102.777c0,2.114 0.84,4.141 2.335,5.635c1.494,1.495 3.521,2.334 5.634,2.334l102.777,0Z" /><g
         style="fill:#b3b3b3"
         id="g13"><rect
           id="rect9"
           style="fill:#b3b3b3"
           height="34.063"
           width="299.774"
           y="540.648"
           x="269.05" /><rect
           id="rect11"
           style="fill:#b3b3b3"
           height="34.063"
           width="299.774"
           y="608.984"
           x="269.05" /></g><g
         style="fill:#b3b3b3"
         id="g23"><path
           id="path15"
           style="fill:#b3b3b3"
           d="M483.522,343.39l-38.532,38.533l29.691,29.69l38.532,-38.532l-29.691,-29.691Z" /><path
           id="path17"
           style="fill:#b3b3b3"
           d="M535.559,382.243l-45.124,45.124l29.69,29.691l45.124,-45.124l-29.69,-29.691Z" /><path
           id="path19"
           style="fill:#b3b3b3"
           d="M556.417,463.658l-162.692,-162.692l-29.691,29.691l162.692,162.692l29.691,-29.691Z" /><path
           id="path21"
           style="fill:#b3b3b3"
           d="M296.004,232.341c30.178,-30.178 79.179,-30.178 109.356,-0c30.178,30.177 30.178,79.178 0,109.356c-30.177,30.177 -79.178,30.177 -109.356,-0c-30.177,-30.178 -30.177,-79.179 0,-109.356Zm25.584,25.583c-10.078,10.077 -10.078,26.441 -0,36.518c10.077,10.077 26.44,10.077 36.518,0c10.077,-10.077 10.077,-26.441 -0,-36.518c-10.046,-10.046 -26.339,-10.077 -36.424,-0.094c0,0 -0.094,0.094 -0.094,0.094Z" /></g></g></g></svg>
