<?xml version="1.0" encoding="UTF-8" standalone="no"?>
<!DOCTYPE svg PUBLIC "-//W3C//DTD SVG 1.1//EN" "http://www.w3.org/Graphics/SVG/1.1/DTD/svg11.dtd">
<svg version="1.1" xmlns="http://www.w3.org/2000/svg" xmlns:xlink="http://www.w3.org/1999/xlink" preserveAspectRatio="xMidYMid meet" viewBox="0 0 640 640" width="64" height="64"><defs><path d="M535.12 51.56C572.09 51.56 590.57 69.77 590.57 106.2C590.57 361.9 590.57 503.96 590.57 532.38C590.57 568.8 572.09 587.01 535.12 587.01C275.6 587.01 131.43 587.01 102.6 587.01C65.63 587.01 47.14 568.8 47.14 532.38C47.14 276.67 47.14 134.61 47.14 106.2C47.14 69.77 65.63 51.56 102.6 51.56C362.11 51.56 506.28 51.56 535.12 51.56Z" id="d2zWidT2G"></path><path d="M246.77 117.34C246.77 117.34 246.77 117.34 246.77 117.34C246.77 356.26 246.77 488.99 246.77 515.54C246.77 515.54 246.77 515.54 246.77 515.54C186.88 515.54 153.61 515.54 146.96 515.54C146.96 515.54 146.96 515.54 146.96 515.54C146.96 276.62 146.96 143.89 146.96 117.34C146.96 117.34 146.96 117.34 146.96 117.34C206.84 117.34 240.12 117.34 246.77 117.34Z" id="d1jsNu7gZu"></path><path d="M213.5 193.62C213.5 193.62 213.5 193.62 213.5 193.62C213.5 213.29 213.5 224.22 213.5 226.4C213.5 226.4 213.5 226.4 213.5 226.4C193.54 226.4 182.45 226.4 180.23 226.4C180.23 226.4 180.23 226.4 180.23 226.4C180.23 206.73 180.23 195.81 180.23 193.62C180.23 193.62 180.23 193.62 180.23 193.62C200.19 193.62 211.28 193.62 213.5 193.62Z" id="b45n8LnHx2"></path><path d="M213.5 302.9C213.5 302.9 213.5 302.9 213.5 302.9C213.5 322.57 213.5 333.49 213.5 335.68C213.5 335.68 213.5 335.68 213.5 335.68C193.54 335.68 182.45 335.68 180.23 335.68C180.23 335.68 180.23 335.68 180.23 335.68C180.23 316.01 180.23 305.08 180.23 302.9C180.23 302.9 180.23 302.9 180.23 302.9C200.19 302.9 211.28 302.9 213.5 302.9Z" id="a7cG21TcG"></path><path d="M213.5 412.17C213.5 412.17 213.5 412.17 213.5 412.17C213.5 431.84 213.5 442.77 213.5 444.95C213.5 444.95 213.5 444.95 213.5 444.95C193.54 444.95 182.45 444.95 180.23 444.95C180.23 444.95 180.23 444.95 180.23 444.95C180.23 425.29 180.23 414.36 180.23 412.17C180.23 412.17 180.23 412.17 180.23 412.17C200.19 412.17 211.28 412.17 213.5 412.17Z" id="bDbMtEvdr"></path><path d="M490.76 117.34C490.76 117.34 490.76 117.34 490.76 117.34C490.76 356.26 490.76 488.99 490.76 515.54C490.76 515.54 490.76 515.54 490.76 515.54C430.87 515.54 397.6 515.54 390.94 515.54C390.94 515.54 390.94 515.54 390.94 515.54C390.94 276.62 390.94 143.89 390.94 117.34C390.94 117.34 390.94 117.34 390.94 117.34C450.83 117.34 484.1 117.34 490.76 117.34Z" id="d2prCS7rbw"></path><path d="M457.49 193.62C457.49 193.62 457.49 193.62 457.49 193.62C457.49 213.29 457.49 224.22 457.49 226.4C457.49 226.4 457.49 226.4 457.49 226.4C437.52 226.4 426.43 226.4 424.21 226.4C424.21 226.4 424.21 226.4 424.21 226.4C424.21 206.73 424.21 195.81 424.21 193.62C424.21 193.62 424.21 193.62 424.21 193.62C444.18 193.62 455.27 193.62 457.49 193.62Z" id="aI0ulXWDw"></path><path d="M457.49 302.9C457.49 302.9 457.49 302.9 457.49 302.9C457.49 322.57 457.49 333.49 457.49 335.68C457.49 335.68 457.49 335.68 457.49 335.68C437.52 335.68 426.43 335.68 424.21 335.68C424.21 335.68 424.21 335.68 424.21 335.68C424.21 316.01 424.21 305.08 424.21 302.9C424.21 302.9 424.21 302.9 424.21 302.9C444.18 302.9 455.27 302.9 457.49 302.9Z" id="d2CCtS51F"></path><path d="M457.49 412.17C457.49 412.17 457.49 412.17 457.49 412.17C457.49 431.84 457.49 442.77 457.49 444.95C457.49 444.95 457.49 444.95 457.49 444.95C437.52 444.95 426.43 444.95 424.21 444.95C424.21 444.95 424.21 444.95 424.21 444.95C424.21 425.29 424.21 414.36 424.21 412.17C424.21 412.17 424.21 412.17 424.21 412.17C444.18 412.17 455.27 412.17 457.49 412.17Z" id="a1f8TiAxnW"></path><path d="M402.03 281.04C402.03 281.04 402.03 281.04 402.03 281.04C402.03 326.94 402.03 352.43 402.03 357.53C402.03 357.53 402.03 357.53 402.03 357.53C302.22 357.53 246.77 357.53 235.68 357.53C235.68 357.53 235.68 357.53 235.68 357.53C235.68 311.64 235.68 286.14 235.68 281.04C235.68 281.04 235.68 281.04 235.68 281.04C335.49 281.04 390.94 281.04 402.03 281.04Z" id="bSnyUWd6y"></path></defs><g><g><g><use xlink:href="#d2zWidT2G" opacity="1" fill="#595959" fill-opacity="1"></use><g><use xlink:href="#d2zWidT2G" opacity="1" fill-opacity="0" stroke="#000000" stroke-width="0.32" stroke-opacity="0"></use></g></g><g><use xlink:href="#d1jsNu7gZu" opacity="1" fill="#e9e2e2" fill-opacity="1"></use><g><use xlink:href="#d1jsNu7gZu" opacity="1" fill-opacity="0" stroke="#000000" stroke-width="0.35" stroke-opacity="0"></use></g></g><g><use xlink:href="#b45n8LnHx2" opacity="1" fill="#595959" fill-opacity="1"></use><g><use xlink:href="#b45n8LnHx2" opacity="1" fill-opacity="0" stroke="#000000" stroke-width="0.2" stroke-opacity="0"></use></g></g><g><use xlink:href="#a7cG21TcG" opacity="1" fill="#595959" fill-opacity="1"></use><g><use xlink:href="#a7cG21TcG" opacity="1" fill-opacity="0" stroke="#000000" stroke-width="0.2" stroke-opacity="0"></use></g></g><g><use xlink:href="#bDbMtEvdr" opacity="1" fill="#595959" fill-opacity="1"></use><g><use xlink:href="#bDbMtEvdr" opacity="1" fill-opacity="0" stroke="#000000" stroke-width="0.2" stroke-opacity="0"></use></g></g><g><use xlink:href="#d2prCS7rbw" opacity="1" fill="#e9e2e2" fill-opacity="1"></use><g><use xlink:href="#d2prCS7rbw" opacity="1" fill-opacity="0" stroke="#000000" stroke-width="0.35" stroke-opacity="0"></use></g></g><g><use xlink:href="#aI0ulXWDw" opacity="1" fill="#595959" fill-opacity="1"></use><g><use xlink:href="#aI0ulXWDw" opacity="1" fill-opacity="0" stroke="#000000" stroke-width="0.2" stroke-opacity="0"></use></g></g><g><use xlink:href="#d2CCtS51F" opacity="1" fill="#595959" fill-opacity="1"></use><g><use xlink:href="#d2CCtS51F" opacity="1" fill-opacity="0" stroke="#000000" stroke-width="0.2" stroke-opacity="0"></use></g></g><g><use xlink:href="#a1f8TiAxnW" opacity="1" fill="#595959" fill-opacity="1"></use><g><use xlink:href="#a1f8TiAxnW" opacity="1" fill-opacity="0" stroke="#000000" stroke-width="0.2" stroke-opacity="0"></use></g></g><g><use xlink:href="#bSnyUWd6y" opacity="1" fill="#e9e2e2" fill-opacity="1"></use><g><use xlink:href="#bSnyUWd6y" opacity="1" fill-opacity="0" stroke="#000000" stroke-width="0.28" stroke-opacity="0"></use></g></g></g></g></svg>