<?xml version="1.0" encoding="UTF-8" standalone="no"?>
<svg
   xmlns:dc="http://purl.org/dc/elements/1.1/"
   xmlns:cc="http://creativecommons.org/ns#"
   xmlns:rdf="http://www.w3.org/1999/02/22-rdf-syntax-ns#"
   xmlns:svg="http://www.w3.org/2000/svg"
   xmlns="http://www.w3.org/2000/svg"
   xmlns:sodipodi="http://sodipodi.sourceforge.net/DTD/sodipodi-0.dtd"
   xmlns:inkscape="http://www.inkscape.org/namespaces/inkscape"
   width="297mm"
   height="297mm"
   viewBox="0 0 297 297"
   version="1.1"
   id="svg8"
   inkscape:version="1.0.1 (3bc2e813f5, 2020-09-07, custom)"
   sodipodi:docname="com.github.xournalpp.xournalpp.desktop.svg">
  <defs
     id="defs2">
    <rect
       x="66.588691"
       y="147.70443"
       width="92.201096"
       height="108.04266"
       id="rect859" />
    <inkscape:perspective
       sodipodi:type="inkscape:persp3d"
       inkscape:vp_x="0 : 148.5 : 1"
       inkscape:vp_y="0 : 1000 : 0"
       inkscape:vp_z="297 : 148.5 : 1"
       inkscape:persp3d-origin="148.5 : 99 : 1"
       id="perspective841" />
  </defs>
  <sodipodi:namedview
     id="base"
     pagecolor="#ffffff"
     bordercolor="#666666"
     borderopacity="1.0"
     inkscape:pageopacity="0.0"
     inkscape:pageshadow="2"
     inkscape:zoom="0.55157105"
     inkscape:cx="486.18475"
     inkscape:cy="568.03771"
     inkscape:document-units="mm"
     inkscape:current-layer="text857"
     inkscape:document-rotation="0"
     showgrid="false"
     inkscape:window-width="1849"
     inkscape:window-height="1048"
     inkscape:window-x="71"
     inkscape:window-y="32"
     inkscape:window-maximized="1" />
  <metadata
     id="metadata5">
    <rdf:RDF>
      <cc:Work
         rdf:about="">
        <dc:format>image/svg+xml</dc:format>
        <dc:type
           rdf:resource="http://purl.org/dc/dcmitype/StillImage" />
        <dc:title />
      </cc:Work>
    </rdf:RDF>
  </metadata>
  <g
     inkscape:label="Layer 1"
     inkscape:groupmode="layer"
     id="layer1">
    <path
       style="fill:#ab9696;fill-opacity:1;stroke:#270000;stroke-width:3.865;stroke-linecap:butt;stroke-linejoin:miter;stroke-miterlimit:4;stroke-dasharray:none;stroke-opacity:1"
       d="m 35.078575,34.523673 176.229155,-0.698362 38.94745,47.273882 0.045,184.758507 -209.127491,-0.37475 -6.676769,0.41017 z"
       id="path833"
       sodipodi:nodetypes="ccccccc" />
    <path
       style="fill:#270000;fill-opacity:1;stroke:#270000;stroke-width:3.065;stroke-linecap:butt;stroke-linejoin:miter;stroke-miterlimit:4;stroke-dasharray:none;stroke-opacity:1"
       d="m 250.25518,81.099193 c 0,0 -43.30203,7.608473 -48.04289,1.489351 -4.55307,-5.876742 11.24335,-46.474287 11.24335,-46.474287 16.78531,20.011234 20.01424,24.973703 36.79954,44.984936 z"
       id="path839"
       sodipodi:nodetypes="cscc" />
    <g
       aria-label="x"
       transform="matrix(2.652899,0,0,3.4671288,-113.16925,-409.36903)"
       id="text857"
       style="font-style:normal;font-variant:normal;font-weight:normal;font-stretch:normal;font-size:50.8px;line-height:1.25;font-family:Kalam;-inkscape-font-specification:Kalam;word-spacing:0px;white-space:pre;shape-inside:url(#rect859);fill:#1c1c1c;fill-opacity:1">
      <path
         d="m 77.10349,171.98117 q 4.1148,-5.5372 6.096,-7.7724 2.032,-2.2352 2.9972,-2.2352 0.9652,0 1.8796,0.8128 0.9652,0.8128 0.9652,1.4224 0,0.5588 -0.3556,0.9652 -0.3556,0.3556 -1.1684,1.016 -0.762,0.6604 -1.4732,1.4224 -0.6604,0.7112 -1.7272,2.032 -1.0668,1.27 -2.5908,3.2004 -1.4732,1.8796 -2.4384,3.048 0.3048,0.4572 0.9144,1.524 0.6604,1.0668 1.0668,1.778 0.4572,0.7112 1.1176,1.8288 0.7112,1.0668 1.1684,1.778 0.4572,0.6604 0.8636,1.3716 0.8128,1.3208 0.8128,1.8288 0,0.508 -0.3556,0.8636 -0.3556,0.3048 -0.8636,0.3048 -2.286,0 -7.3152,-8.1788 -6.654799,8.1788 -8.077199,8.1788 -0.8128,0 -1.6764,-0.8128 -0.8636,-0.8636 -0.8636,-1.5748 0,-0.254 1.1176,-1.3716 4.9276,-4.9276 7.366,-8.0264 -2.3368,-4.1656 -3.9624,-7.7216 -1.6256,-3.556 -1.6256,-4.2672 0,-0.762 0.0508,-0.9652 0.1016,-0.4572 1.1176,-0.4572 1.016,0 2.4892,0.6096 1.4732,0.6096 1.4732,1.4732 0,2.1336 2.997199,7.9248 z"
         style="font-style:normal;font-variant:normal;font-weight:normal;font-stretch:normal;font-size:50.8px;font-family:Kalam;-inkscape-font-specification:Kalam;fill:#1c1c1c;fill-opacity:1"
         id="path860" />
    </g>
    <g
       id="g930"
       transform="matrix(0.28693815,0,0,0.28925699,108.0546,102.35289)"
       style="fill:#1c1c1c;fill-opacity:1">
      <g
         id="g871"
         style="fill:#1c1c1c;fill-opacity:1">
        <g
           id="g869"
           style="fill:#1c1c1c;fill-opacity:1">
          <g
             id="g867"
             style="fill:#1c1c1c;fill-opacity:1">
            <path
               d="m 347.878,151.357 c -4,-4.003 -11.083,-4.003 -15.083,0 L 129.909,354.414 c -2.427,2.429 -3.531,5.87 -2.99,9.258 0.552,3.388 2.698,6.307 5.76,7.84 l 16.656,8.34 v 28.049 l -51.031,14.602 -51.51,-51.554 14.59,-51.075 h 28.025 l 8.333,16.67 c 1.531,3.065 4.448,5.213 7.833,5.765 0.573,0.094 1.146,0.135 1.708,0.135 2.802,0 5.531,-1.105 7.542,-3.128 L 317.711,136.26 c 2,-2.002 3.125,-4.712 3.125,-7.548 0,-2.836 -1.125,-5.546 -3.125,-7.548 L 278.482,81.901 c -2,-2.002 -4.708,-3.128 -7.542,-3.128 h -0.021 c -2.844,0.01 -5.563,1.147 -7.552,3.159 L 45.763,301.682 c -0.105,0.107 -0.1,0.27 -0.201,0.379 -1.095,1.183 -2.009,2.549 -2.487,4.208 L 24.554,371.126 0.409,455.73 c -1.063,3.722 -0.021,7.736 2.719,10.478 2.031,2.033 4.75,3.128 7.542,3.128 0.979,0 1.958,-0.136 2.927,-0.407 l 84.531,-24.166 64.802,-18.537 c 0.195,-0.056 0.329,-0.203 0.52,-0.27 0.673,-0.232 1.262,-0.61 1.881,-0.976 0.608,-0.361 1.216,-0.682 1.73,-1.146 0.138,-0.122 0.319,-0.167 0.452,-0.298 L 387.076,205.747 c 2.01,-1.991 3.146,-4.712 3.156,-7.558 0.01,-2.836 -1.115,-5.557 -3.125,-7.569 z"
               id="path863"
               style="fill:#1c1c1c;fill-opacity:1" />
            <path
               d="m 456.836,76.168 -64,-64.054 c -16.125,-16.139 -44.177,-16.17 -60.365,0.031 l -39.073,39.461 c -4.135,4.181 -4.125,10.905 0.031,15.065 l 108.896,108.988 c 2.083,2.085 4.813,3.128 7.542,3.128 2.719,0 5.427,-1.032 7.51,-3.096 l 39.458,-39.137 c 8.063,-8.069 12.5,-18.787 12.5,-30.192 0,-11.405 -4.436,-22.125 -12.499,-30.194 z"
               id="path865"
               style="fill:#1c1c1c;fill-opacity:1" />
          </g>
        </g>
      </g>
      <g
         id="g873"
         style="fill:#1c1c1c;fill-opacity:1" />
      <g
         id="g875"
         style="fill:#1c1c1c;fill-opacity:1" />
      <g
         id="g877"
         style="fill:#1c1c1c;fill-opacity:1" />
      <g
         id="g879"
         style="fill:#1c1c1c;fill-opacity:1" />
      <g
         id="g881"
         style="fill:#1c1c1c;fill-opacity:1" />
      <g
         id="g883"
         style="fill:#1c1c1c;fill-opacity:1" />
      <g
         id="g885"
         style="fill:#1c1c1c;fill-opacity:1" />
      <g
         id="g887"
         style="fill:#1c1c1c;fill-opacity:1" />
      <g
         id="g889"
         style="fill:#1c1c1c;fill-opacity:1" />
      <g
         id="g891"
         style="fill:#1c1c1c;fill-opacity:1" />
      <g
         id="g893"
         style="fill:#1c1c1c;fill-opacity:1" />
      <g
         id="g895"
         style="fill:#1c1c1c;fill-opacity:1" />
      <g
         id="g897"
         style="fill:#1c1c1c;fill-opacity:1" />
      <g
         id="g899"
         style="fill:#1c1c1c;fill-opacity:1" />
      <g
         id="g901"
         style="fill:#1c1c1c;fill-opacity:1" />
    </g>
  </g>
</svg>
