<?xml version="1.0" encoding="UTF-8" standalone="no"?>
<svg
   xmlns:dc="http://purl.org/dc/elements/1.1/"
   xmlns:cc="http://creativecommons.org/ns#"
   xmlns:rdf="http://www.w3.org/1999/02/22-rdf-syntax-ns#"
   xmlns:svg="http://www.w3.org/2000/svg"
   xmlns="http://www.w3.org/2000/svg"
   xmlns:xlink="http://www.w3.org/1999/xlink"
   xmlns:sodipodi="http://sodipodi.sourceforge.net/DTD/sodipodi-0.dtd"
   xmlns:inkscape="http://www.inkscape.org/namespaces/inkscape"
   height="128px"
   viewBox="0 0 128 128"
   width="128px"
   version="1.1"
   id="svg202"
   sodipodi:docname="com.github.huluti.Curtail.svg"
   inkscape:version="1.0.1 (3bc2e813f5, 2020-09-07)">
  <metadata
     id="metadata208">
    <rdf:RDF>
      <cc:Work
         rdf:about="">
        <dc:format>image/svg+xml</dc:format>
        <dc:type
           rdf:resource="http://purl.org/dc/dcmitype/StillImage" />
        <dc:title></dc:title>
      </cc:Work>
    </rdf:RDF>
  </metadata>
  <defs
     id="defs206" />
  <sodipodi:namedview
     pagecolor="#ffffff"
     bordercolor="#666666"
     borderopacity="1"
     objecttolerance="10"
     gridtolerance="10"
     guidetolerance="10"
     inkscape:pageopacity="0"
     inkscape:pageshadow="2"
     inkscape:window-width="1242"
     inkscape:window-height="650"
     id="namedview204"
     showgrid="false"
     inkscape:zoom="3.0537838"
     inkscape:cx="47.626085"
     inkscape:cy="66.30724"
     inkscape:window-x="82"
     inkscape:window-y="83"
     inkscape:window-maximized="0"
     inkscape:current-layer="svg202" />
  <linearGradient
     id="a"
     gradientUnits="userSpaceOnUse">
    <stop
       offset="0"
       stop-color="#63452c"
       id="stop2" />
    <stop
       offset="0.0384615"
       stop-color="#865e3c"
       id="stop4" />
    <stop
       offset="0.0768555"
       stop-color="#63452c"
       id="stop6" />
    <stop
       offset="0.923077"
       stop-color="#63452c"
       id="stop8" />
    <stop
       offset="0.961538"
       stop-color="#865e3c"
       id="stop10" />
    <stop
       offset="1"
       stop-color="#63452c"
       id="stop12" />
  </linearGradient>
  <linearGradient
     id="b"
     gradientTransform="matrix(0.232143 0 0 0.203947 -8.566907 209.652496)"
     x1="88.595886"
     x2="536.595886"
     xlink:href="#a"
     y1="-449.394012"
     y2="-449.394012" />
  <linearGradient
     id="c"
     gradientTransform="matrix(0.232143 0 0 0.125 -8.566907 152.174255)"
     x1="88.595886"
     x2="536.595886"
     xlink:href="#a"
     y1="-449.394012"
     y2="-449.394012" />
  <linearGradient
     id="d"
     gradientUnits="userSpaceOnUse">
    <stop
       offset="0"
       stop-color="#3d3846"
       id="stop17" />
    <stop
       offset="0.0384615"
       stop-color="#c0bfbc"
       id="stop19" />
    <stop
       offset="0.0768555"
       stop-color="#77767b"
       id="stop21" />
    <stop
       offset="0.163635"
       stop-color="#cbcbcd"
       id="stop23" />
    <stop
       offset="0.923077"
       stop-color="#5f5e63"
       id="stop25" />
    <stop
       offset="0.961538"
       stop-color="#9a9996"
       id="stop27" />
    <stop
       offset="1"
       stop-color="#3d3846"
       id="stop29" />
  </linearGradient>
  <linearGradient
     id="e"
     gradientTransform="matrix(0.232143 0 0 0.203947 -8.566907 229.952728)"
     x1="87.541862"
     x2="535.261108"
     xlink:href="#d"
     y1="-591.636719"
     y2="-591.636719" />
  <radialGradient
     id="f"
     cx="58.126461"
     cy="294.379669"
     gradientTransform="matrix(1.631892,0,0,1.37953,-117.70261,-270.69655)"
     gradientUnits="userSpaceOnUse"
     r="52">
    <stop
       offset="0"
       stop-color="#deddda"
       id="stop33" />
    <stop
       offset="1"
       stop-color="#deddda"
       stop-opacity="0"
       id="stop35" />
  </radialGradient>
  <linearGradient
     id="g"
     gradientUnits="userSpaceOnUse"
     x1="29.999731"
     x2="103.999731"
     y1="94.000244"
     y2="108.000244">
    <stop
       offset="0"
       stop-color="#f6f5f4"
       id="stop38" />
    <stop
       offset="1"
       stop-color="#deddda"
       id="stop40" />
  </linearGradient>
  <radialGradient
     id="h"
     cx="105.224358"
     cy="148.630096"
     gradientTransform="matrix(-0.341487 -0.185811 -0.028119 0.280361 103.637192 95.975163)"
     gradientUnits="userSpaceOnUse"
     r="160">
    <stop
       offset="0"
       stop-color="#e0371b"
       id="stop43" />
    <stop
       offset="1"
       stop-color="#f6d32d"
       id="stop45" />
  </radialGradient>
  <radialGradient
     id="i"
     cx="352.97995"
     cy="275.930328"
     gradientTransform="matrix(0.299208 0.112467 0.0720504 -0.183313 -46.41727 48.045456)"
     gradientUnits="userSpaceOnUse"
     r="192">
    <stop
       offset="0"
       stop-color="#50db81"
       id="stop48" />
    <stop
       offset="1"
       stop-color="#8ff0a4"
       stop-opacity="0.004149"
       id="stop50" />
  </radialGradient>
  <radialGradient
     id="j"
     cx="527.623657"
     cy="194.650711"
     gradientTransform="matrix(-0.150913 -0.186565 -0.193646 0.156641 225.268084 143.026204)"
     gradientUnits="userSpaceOnUse"
     r="192">
    <stop
       offset="0"
       stop-color="#4a86cf"
       id="stop53" />
    <stop
       offset="1"
       stop-color="#87bae1"
       stop-opacity="0"
       id="stop55" />
  </radialGradient>
  <linearGradient
     id="k"
     gradientTransform="matrix(0.230134,0,0,0.202178,28.069403,233.7077)"
     x1="87.541862"
     x2="535.261108"
     xlink:href="#d"
     y1="-591.636719"
     y2="-591.636719" />
  <linearGradient
     id="l"
     gradientUnits="userSpaceOnUse"
     x1="52.549931"
     x2="56.978603"
     y1="103.61853"
     y2="57.048904"
     gradientTransform="translate(0.29592354,0.52290507)">
    <stop
       offset="0"
       stop-color="#9b9a96"
       id="stop59" />
    <stop
       offset="1"
       stop-color="#c0bfbc"
       id="stop61" />
  </linearGradient>
  <linearGradient
     id="m"
     gradientUnits="userSpaceOnUse">
    <stop
       offset="0"
       stop-color="#b1b0b6"
       id="stop64" />
    <stop
       offset="0.5"
       stop-color="#d8d7d6"
       id="stop66" />
    <stop
       offset="1"
       stop-color="#6f667f"
       id="stop68" />
  </linearGradient>
  <linearGradient
     id="n"
     gradientTransform="matrix(-0.34538061,0.86803336,0.84676025,0.35405758,-66.834431,-128.05836)"
     x1="49.325035"
     x2="53.604832"
     xlink:href="#m"
     y1="222.746582"
     y2="230.159409" />
  <linearGradient
     id="o"
     gradientTransform="matrix(3.001503,0,0,-3.001503,-101.17637,-556.00896)"
     gradientUnits="userSpaceOnUse"
     x1="58"
     x2="70"
     y1="-211"
     y2="-211">
    <stop
       offset="0"
       stop-color="#77767b"
       id="stop72" />
    <stop
       offset="0.5"
       stop-color="#9a9996"
       id="stop74" />
    <stop
       offset="1"
       stop-color="#77767b"
       id="stop76" />
  </linearGradient>
  <linearGradient
     id="p"
     gradientUnits="userSpaceOnUse"
     x1="56.854657"
     x2="71.126797"
     y1="46.0934879751"
     y2="46.0934879751">
    <stop
       offset="0"
       stop-color="#5e5c64"
       id="stop79" />
    <stop
       offset="0.5"
       stop-color="#c0bfbc"
       id="stop81" />
    <stop
       offset="1"
       stop-color="#3d3846"
       id="stop83" />
  </linearGradient>
  <linearGradient
     id="q"
     gradientUnits="userSpaceOnUse">
    <stop
       offset="0"
       stop-color="#b1b0b6"
       id="stop86" />
    <stop
       offset="0.271815"
       stop-color="#c0c0be"
       id="stop88" />
    <stop
       offset="1"
       stop-color="#6f667f"
       id="stop90" />
  </linearGradient>
  <linearGradient
     id="r"
     gradientTransform="matrix(-0.5602058,0.73297963,0.71381163,0.57524903,-54.8764,-140.72726)"
     x1="60.999699"
     x2="67.000298"
     xlink:href="#q"
     y1="220"
     y2="220" />
  <linearGradient
     id="s"
     gradientTransform="matrix(2.378662,0,0,-2.1207062,-88.243667,-416.59998)"
     gradientUnits="userSpaceOnUse"
     x1="58"
     x2="70"
     y1="-211"
     y2="-211">
    <stop
       offset="0"
       stop-color="#77767b"
       id="stop94" />
    <stop
       offset="0.5"
       stop-color="#c0bfbc"
       id="stop96" />
    <stop
       offset="1"
       stop-color="#77767b"
       id="stop98" />
  </linearGradient>
  <radialGradient
     id="t"
     cx="-203.366516"
     cy="-63.487907"
     gradientTransform="matrix(0,-1.189345,-1.189345,0,24.513405,-195.71469)"
     gradientUnits="userSpaceOnUse"
     r="11.999864">
    <stop
       offset="0"
       stop-color="#f0f0f0"
       id="stop101" />
    <stop
       offset="1"
       stop-color="#9a999a"
       id="stop103" />
  </radialGradient>
  <linearGradient
     id="u"
     gradientTransform="matrix(-0.46603821,0.6499524,0.59382372,0.5100885,-33.593959,-122.7728)"
     x1="60.999699"
     x2="67.000298"
     xlink:href="#q"
     y1="220"
     y2="220" />
  <linearGradient
     id="v"
     gradientTransform="matrix(-0.29748136,0.71149225,0.72932696,0.29020685,-80.286354,-77.272682)"
     x1="49.325035"
     x2="53.604832"
     xlink:href="#m"
     y1="222.746582"
     y2="230.159409" />
  <radialGradient
     id="w"
     cx="96.054092"
     cy="219.449142"
     gradientTransform="matrix(-2.482869 0 0 2.712091 268.232285 -538.415219)"
     gradientUnits="userSpaceOnUse"
     r="2.415031">
    <stop
       offset="0"
       stop-color="#cfcecd"
       id="stop108" />
    <stop
       offset="1"
       stop-color="#827b8f"
       id="stop110" />
  </radialGradient>
  <radialGradient
     id="x"
     cx="96.741417"
     cy="219.744949"
     gradientTransform="matrix(2.355437 0 0 2.572893 -127.996669 -507.959659)"
     gradientUnits="userSpaceOnUse"
     r="2.415031">
    <stop
       offset="0"
       stop-color="#92918f"
       id="stop113" />
    <stop
       offset="1"
       stop-color="#524d5b"
       id="stop115" />
  </radialGradient>
  <path
     d="m 20 56 h 88 c 4.417969 0 8 3.582031 8 8 v 46 c 0 4.417969 -3.582031 8 -8 8 h -88 c -4.417969 0 -8 -3.582031 -8 -8 v -46 c 0 -4.417969 3.582031 -8 8 -8 z m 0 0"
     fill="url(#b)"
     id="path118" />
  <path
     d="m 20 30 h 88 v 66 h -88 z m 0 0"
     fill="#f6f5f4"
     id="path120" />
  <path
     d="m 20 58 h 88 c 4.417969 0 8 3.582031 8 8 v 22 c 0 4.417969 -3.582031 8 -8 8 h -88 c -4.417969 0 -8 -3.582031 -8 -8 v -22 c 0 -4.417969 3.582031 -8 8 -8 z m 0 0"
     fill="url(#c)"
     id="path122" />
  <path
     d="m 20 58 h 88 c 4.417969 0 8 3.582031 8 8 v 46 c 0 4.417969 -3.582031 8 -8 8 h -88 c -4.417969 0 -8 -3.582031 -8 -8 v -46 c 0 -4.417969 3.582031 -8 8 -8 z m 0 0"
     fill="url(#e)"
     id="path124"
     style="fill:#3d3846;fill-opacity:1" />
  <path
     d="m 21.453125 26.082031 h 85.09375 c 5.21875 0 9.453125 3.582031 9.453125 8 v 71.917969 c 0 4.417969 -4.234375 8 -9.453125 8 h -85.09375 c -5.21875 0 -9.453125 -3.582031 -9.453125 -8 v -71.917969 c 0 -4.417969 4.234375 -8 9.453125 -8 z m 0 0"
     fill="#5e5c64"
     id="path128" />
  <path
     d="M 20.019531,64.328125 H 108.01953 V 110.32812 H 20.019531 Z m 0,0"
     fill="url(#g)"
     id="path130"
     style="fill:#f6f5f4;fill-opacity:1;stroke:#b1b0b6;stroke-opacity:1;stroke-width:0;stroke-miterlimit:4;stroke-dasharray:none" />
  <path
     d="m 29.777344 67.46875 l 52.238281 -42.253906 c 2.410156 -1.953125 5.898437 -1.613282 7.8125 0.757812 l 21.664063 26.777344 l -3.347657 29.25 l -40.265625 32.570312 c -2.414062 1.953126 -5.898437 1.613282 -7.816406 -0.753906 l -31.179688 -38.546875 c -1.914062 -2.371093 -1.519531 -5.847656 0.894532 -7.800781 z m 0 0"
     fill="#f6f5f4"
     id="path138" />
  <path
     d="m 111.546875 52.816406 l -11.972656 9.683594 c -2.410157 1.949219 -2.808594 5.429688 -0.890625 7.800781 l 9.460937 11.699219 z m 0 0"
     fill="#deddda"
     id="path140" />
  <path
     d="m 33.269531 71.785156 l 31.148438 38.507813 l 40.265625 -32.570313 l -6 -7.421875 c -1.917969 -2.371093 -1.519532 -5.851562 0.890625 -7.800781 l 7.617187 -6.160156 l -21.683594 -26.8125 z m 0 0"
     fill="url(#h)"
     id="path142" />
  <path
     d="m 33.269531 71.785156 l 31.148438 38.507813 l 40.265625 -32.570313 l -6 -7.421875 c -1.917969 -2.371093 -1.519532 -5.851562 0.890625 -7.800781 l 7.617187 -6.160156 l -21.683594 -26.8125 z m 0 0"
     fill="url(#i)"
     id="path144" />
  <path
     d="m 33.269531 71.785156 l 31.148438 38.507813 l 40.265625 -32.570313 l -6 -7.421875 c -1.917969 -2.371093 -1.519532 -5.851562 0.890625 -7.800781 l 7.617187 -6.160156 l -21.683594 -26.8125 z m 0 0"
     fill="url(#j)"
     id="path146"
     style="fill:#cf7e4a;fill-opacity:1;stroke:#b1b0b6;stroke-opacity:1;stroke-width:0;stroke-miterlimit:4;stroke-dasharray:none" />
  <path
     d="m 83.855469 101.496094 l 34.84375 -34.109375 c 0.78125 -0.761719 1.207031 -1.816407 1.175781 -2.90625 c -0.027344 -1.089844 -0.507812 -2.117188 -1.328125 -2.839844 l -9.207031 -8.089844 z m 0 0"
     fill="#f6f5f4"
     id="path148" />
  <path
     d="m 20.019531 64.328125 h 88.070313 c 4.417968 0 8 3.582031 8 8 v 21.730469 c 0 4.417968 -3.582032 8 -8 8 h -88.070313 c -4.417969 0 -8 -3.582032 -8 -8 v -21.730469 c 0 -4.417969 3.582031 -8 8 -8 z m 0 0"
     fill="url(#e)"
     id="path150"
     style="stroke:#9a9996;stroke-opacity:1;fill:#3d3846;fill-opacity:1" />
  <path
     d="m 21.670924,16.522905 h 85.128906 c 5.22266,0 9.45703,3.58203 9.45703,8 v 64.0586 c 0,4.41796 -4.23437,8 -9.45703,8 H 21.670924 c -5.222656,0 -9.453125,-3.58204 -9.453125,-8 v -64.0586 c 0,-4.41797 4.230469,-8 9.453125,-8 z m 0,0"
     fill="url(#l)"
     id="path154"
     style="fill:url(#l);stroke:#b1b0b6;stroke-opacity:1" />
  <path
     d="M 54.268499,35.880953 86.0758,11.71404"
     fill="#77767b"
     stroke="url(#n)"
     stroke-linecap="round"
     stroke-width="6.228"
     id="path156"
     style="fill:#a8a8a8;fill-opacity:1;stroke:#b1b0b6;stroke-opacity:1" />
  <path
     d="m 63.992188,36.628906 c -9.949219,0 -18.011719,8.066407 -18.011719,18.011719 v 5.628907 c 0,9.945312 8.0625,18.007812 18.011719,18.007812 9.94531,0 18.00781,-8.0625 18.00781,-18.007812 v -5.628907 c 0,-9.945312 -8.0625,-18.011719 -18.00781,-18.011719 z m 0,0"
     fill="url(#o)"
     id="path158"
     style="fill:#77767b;fill-opacity:1" />
  <path
     d="m 63.992188 36.628906 c -9.5 0 -17.199219 7.699219 -17.199219 17.195313 c 0 9.5 7.699219 17.199219 17.199219 17.199219 c 9.496093 0 17.195312 -7.699219 17.195312 -17.199219 c 0 -9.496094 -7.699219 -17.195313 -17.195312 -17.195313 z m 0 0"
     fill="#deddda"
     id="path160" />
  <path
     d="m 58.042969 31.226562 l -1.1875 2.378907 l 1.1875 2.378906 l -1.1875 2.378906 l 1.1875 2.378907 l -1.1875 2.378906 l 1.1875 2.378906 l -1.1875 2.378906 l 1.1875 2.378906 l -1.1875 2.378907 v 1.1875 c 0 2.550781 1.359375 4.90625 3.566406 6.179687 c 2.207031 1.273438 4.929687 1.273438 7.136719 0 c 2.207031 -1.273437 3.566406 -3.628906 3.566406 -6.179687 v -3.566407 l -1.1875 -2.378906 l 1.1875 -2.378906 l -1.1875 -2.378906 l 1.1875 -2.378906 l -1.1875 -2.378907 l 1.1875 -2.378906 l -1.1875 -2.378906 l 1.1875 -2.378907 l -1.1875 -2.378906 z m 0 0"
     fill="url(#p)"
     id="path162"
     style="fill:#5e5c64;fill-opacity:1" />
  <path
     d="m 69.9375 33.605469 s -1.609375 4.347656 -5.839844 4.777343 c -4.234375 0.429688 -6.054687 -2.398437 -6.054687 -2.398437 l -1.1875 2.378906 s 2.488281 3.308594 7.242187 3.035157 c 4.75 -0.277344 6.882813 -5.367188 7.027344 -5.414063 z m 0 0"
     fill="#ffffff"
     fill-opacity="0.38189"
     id="path164" />
  <path
     d="m 71.125 35.984375 c -0.144531 0.046875 -2.277344 5.136719 -7.027344 5.414063 c -4.753906 0.273437 -7.242187 -3.035157 -7.242187 -3.035157 l 1.1875 2.378907 s 1.820312 2.824218 6.054687 2.398437 c 4.230469 -0.429687 5.839844 -4.777344 5.839844 -4.777344 l 0.050781 0.101563 z m 0 0"
     fill="#241f31"
     fill-opacity="0.338583"
     id="path166" />
  <path
     d="M 70.848996,36.00139 40.611799,12.030561"
     fill="#77767b"
     stroke="url(#r)"
     stroke-linecap="round"
     stroke-width="6.18487"
     id="path180"
     style="stroke:#b1b0b6;stroke-opacity:1" />
  <path
     d="m 78.261719,30.870075 c 0,-7.027955 -6.390625,-12.725544 -14.269531,-12.725544 -7.882813,0 -14.273438,5.697589 -14.273438,12.725544 0,7.027955 6.390625,12.722061 14.273438,12.722061 7.878906,0 14.269531,-5.694106 14.269531,-12.722061 z m 0,0"
     fill="url(#s)"
     id="path182"
     style="fill:#77767b;stroke-width:0.944221;fill-opacity:1" />
  <path
     d="M 42.917145,44.373255 74.724446,20.206342"
     fill="#77767b"
     stroke="url(#n)"
     stroke-linecap="round"
     stroke-width="6.228"
     id="path1037"
     style="fill:#a8a8a8;fill-opacity:1;stroke:#b1b0b6;stroke-opacity:1" />
  <path
     d="M 82.361733,44.734472 52.124536,20.763643"
     fill="#77767b"
     stroke="url(#r)"
     stroke-linecap="round"
     stroke-width="6.18487"
     id="path1039"
     style="stroke:#b1b0b6;stroke-opacity:1" />
  <path
     d="m 63.992188,11.007812 c -7.88281,0 -14.273435,6.390626 -14.273435,14.273438 0,7.882812 6.390625,14.273438 14.273435,14.273438 7.87891,0 14.26953,-6.390626 14.26953,-14.273438 0,-7.882812 -6.39062,-14.273438 -14.26953,-14.273438 z m 0,0"
     fill="url(#t)"
     id="path184"
     style="fill:#dadada;fill-opacity:1" />
  <path
     d="m 63.992188 11.007812 c -6.8125 0 -12.335938 5.523438 -12.335938 12.335938 s 5.523438 12.335938 12.335938 12.335938 s 12.332031 -5.523438 12.332031 -12.335938 s -5.519531 -12.335938 -12.332031 -12.335938 z m 0 0"
     fill="#c0bfbc"
     id="path188" />
</svg>
