<?xml version="1.0" encoding="UTF-8" standalone="no"?><!DOCTYPE svg PUBLIC "-//W3C//DTD SVG 1.1//EN" "http://www.w3.org/Graphics/SVG/1.1/DTD/svg11.dtd"><svg width="100%" height="100%" viewBox="0 0 534 534" version="1.1" xmlns="http://www.w3.org/2000/svg" xmlns:xlink="http://www.w3.org/1999/xlink" xml:space="preserve" xmlns:serif="http://www.serif.com/" style="fill-rule:evenodd;clip-rule:evenodd;stroke-linejoin:round;stroke-miterlimit:2;"><rect id="com.github.huluti.Coulr" x="0" y="0" width="533.333" height="533.333" style="fill:none;"/><g id="com.github.huluti.Coulr1" serif:id="com.github.huluti.Coulr"><g id="Calque-1" serif:id="Calque 1"><g id="rect836"><path d="M525.357,124.906c-0,-64.535 -52.395,-116.929 -116.93,-116.929l-283.52,-0c-64.536,-0 -116.93,52.394 -116.93,116.929l-0,283.521c-0,64.535 52.394,116.929 116.93,116.929l283.52,0c64.535,0 116.93,-52.394 116.93,-116.929l-0,-283.521Z" style="fill:#9690ac;"/><path d="M525.357,124.906c-0,-64.535 -52.395,-116.929 -116.93,-116.929l-283.52,-0c-64.536,-0 -116.93,52.394 -116.93,116.929l-0,283.521c-0,64.535 52.394,116.929 116.93,116.929l283.52,0c64.535,0 116.93,-52.394 116.93,-116.929l-0,-283.521Zm-24.704,0l-0,283.521c-0,50.901 -41.325,92.226 -92.226,92.226c-0,-0 -283.52,-0 -283.52,-0c-50.901,-0 -92.227,-41.325 -92.227,-92.226c0,-0 0,-283.521 0,-283.521c0,-50.901 41.326,-92.226 92.227,-92.226c-0,0 283.52,0 283.52,0c50.901,0 92.226,41.325 92.226,92.226Z" style="fill:#aca7c2;"/></g><g id="text840"><path id="path12" d="M348.899,366.296c-0,30.707 -6.509,55.906 -19.526,75.599c-14.685,22.362 -36.047,33.543 -64.083,33.543c-32.709,0 -55.406,-14.018 -68.089,-42.054c-8.678,-19.359 -13.017,-48.898 -13.017,-88.616l0,-193.252c0,-17.689 4.84,-35.379 14.519,-53.069c14.686,-27.035 36.882,-40.553 66.587,-40.553c31.708,0 54.404,12.016 68.089,36.047c11.014,18.358 16.187,42.89 15.52,73.596c-0,10.013 -0.167,17.69 -0.501,23.03c-0.334,5.341 -2.837,8.345 -7.51,9.012c-4.672,0.667 -13.017,0.834 -25.032,0.5c-16.689,-0.667 -24.198,-1 -22.53,-1c-6.007,-0 -9.178,-2.837 -9.512,-8.511l-0,-35.547c-2.003,-17.356 -8.177,-26.034 -18.524,-26.034c-13.685,0 -20.527,29.706 -20.527,89.116l0,142.186c0,9.345 1.335,18.19 4.005,26.534c3.672,11.682 9.179,17.523 16.522,17.523c13.017,-0 19.525,-17.523 19.525,-52.568l0,-14.019c-0.333,-5.674 -0.5,-9.011 -0.5,-10.013c-0,-6.008 2.336,-9.012 7.009,-9.012c21.027,0 37.716,0.167 50.065,0.501c5.006,-0 7.51,2.837 7.51,8.511c0.334,8.678 0.334,21.528 -0,38.55l-0,0Z" style="fill:#e9e3ff;fill-rule:nonzero;"/></g></g></g></svg>