<?xml version="1.0" encoding="UTF-8" standalone="no"?>
<svg
   xmlns:dc="http://purl.org/dc/elements/1.1/"
   xmlns:cc="http://creativecommons.org/ns#"
   xmlns:rdf="http://www.w3.org/1999/02/22-rdf-syntax-ns#"
   xmlns:svg="http://www.w3.org/2000/svg"
   xmlns="http://www.w3.org/2000/svg"
   xmlns:xlink="http://www.w3.org/1999/xlink"
   xmlns:sodipodi="http://sodipodi.sourceforge.net/DTD/sodipodi-0.dtd"
   xmlns:inkscape="http://www.inkscape.org/namespaces/inkscape"
   version="1.1"
   preserveAspectRatio="xMidYMid meet"
   viewBox="0 0 640 640"
   width="64"
   height="64"
   id="svg108"
   sodipodi:docname="corectime.svg"
   inkscape:version="1.0.1 (3bc2e813f5, 2020-09-07)">
  <metadata
     id="metadata112">
    <rdf:RDF>
      <cc:Work
         rdf:about="">
        <dc:format>image/svg+xml</dc:format>
        <dc:type
           rdf:resource="http://purl.org/dc/dcmitype/StillImage" />
      </cc:Work>
    </rdf:RDF>
  </metadata>
  <sodipodi:namedview
     pagecolor="#ffffff"
     bordercolor="#666666"
     borderopacity="1"
     objecttolerance="10"
     gridtolerance="10"
     guidetolerance="10"
     inkscape:pageopacity="0"
     inkscape:pageshadow="2"
     inkscape:window-width="1850"
     inkscape:window-height="1048"
     id="namedview110"
     showgrid="false"
     inkscape:zoom="4.574097"
     inkscape:cx="-5.2232726"
     inkscape:cy="49.659796"
     inkscape:window-x="70"
     inkscape:window-y="32"
     inkscape:window-maximized="1"
     inkscape:current-layer="g104" />
  <defs
     id="defs22">
    <path
       d="M283.42 68.14L356.58 68.14L356.58 137.89L283.42 137.89L283.42 68.14Z"
       id="blUNvSexW" />
    <path
       d="M86.93 183.88L117.79 148.91L169.57 194.6L138.71 229.57L86.93 183.88Z"
       id="aHTfxDMXx" />
    <path
       d="M498.11 239.88L465.02 207.01L513.68 158.02L546.77 190.89L498.11 239.88Z"
       id="c2NRvVWhER" />
    <path
       d="M579.83 355.88C579.83 487.65 463.41 594.64 320 594.64C176.59 594.64 60.17 487.65 60.17 355.88C60.17 224.1 176.59 117.12 320 117.12C463.41 117.12 579.83 224.1 579.83 355.88Z"
       id="b4gdy3vULH" />
    <path
       d="M352.53 40.67C360.12 40.67 366.26 46.82 366.26 54.41C366.26 62.65 366.26 73.63 366.26 81.88C366.26 89.46 360.12 95.61 352.53 95.61C336.77 95.61 303.23 95.61 287.47 95.61C279.88 95.61 273.74 89.46 273.74 81.88C273.74 73.63 273.74 62.65 273.74 54.41C273.74 46.82 279.88 40.67 287.47 40.67C303.23 40.67 336.77 40.67 352.53 40.67Z"
       id="b3AZUHPuqL" />
    <path
       d="M105.84 130.76C110.64 125.88 118.48 125.82 123.36 130.62C128.66 135.83 135.73 142.79 141.03 148.01C145.91 152.81 145.97 160.65 141.17 165.53C132.22 174.62 114.07 193.07 105.12 202.16C100.32 207.04 92.48 207.1 87.6 202.3C82.3 197.08 75.23 190.13 69.93 184.91C65.05 180.11 64.99 172.26 69.79 167.38C78.74 158.29 96.89 139.85 105.84 130.76Z"
       id="c5A47lKKzA" />
    <path
       d="M571.73 165.69C576.71 170.39 576.94 178.23 572.24 183.21C567.14 188.62 560.34 195.84 555.24 201.25C550.54 206.23 542.7 206.46 537.72 201.76C528.44 193.01 509.61 175.25 500.33 166.5C495.35 161.81 495.12 153.96 499.82 148.98C504.92 143.57 511.72 136.36 516.82 130.95C521.52 125.97 529.36 125.74 534.34 130.44C543.62 139.19 562.45 156.94 571.73 165.69Z"
       id="aaGwEzth" />
    <path
       d="M565.59 355.31C565.59 479.86 455.68 580.97 320.3 580.97C184.91 580.97 75 479.86 75 355.31C75 230.76 184.91 129.65 320.3 129.65C455.68 129.65 565.59 230.76 565.59 355.31Z"
       id="a3UhtvZla2" />
    <path
       d="M554.2 354.3C554.2 473.75 449.52 570.72 320.57 570.72C191.62 570.72 86.93 473.75 86.93 354.3C86.93 234.86 191.62 137.89 320.57 137.89C449.52 137.89 554.2 234.86 554.2 354.3Z"
       id="dX71HFsz7" />
    <path
       d="M311.89 148.91L328.11 148.91L328.11 186.73L311.89 186.73L311.89 148.91Z"
       id="c1a3344Pfq" />
    <path
       d="M311.89 525.29L328.11 525.29L328.11 563.12L311.89 563.12L311.89 525.29Z"
       id="a7BftFhrn" />
    <path
       d="M97.82 364.4L97.35 348.19L136.29 347.07L136.76 363.27L97.82 364.4Z"
       id="e5jCBKRSLY" />
    <path
       d="M502.73 355.73L502.26 339.52L538.84 338.47L539.31 354.68L502.73 355.73Z"
       id="clijEBDol" />
    <path
       d="M163.49 210.06L181.4 226.85L170.32 238.68L152.4 221.89L163.49 210.06Z"
       id="cuY952NPz" />
    <path
       d="M458.29 226.17L476.29 209.48L487.31 221.36L469.31 238.06L458.29 226.17Z"
       id="e9JeajwSI" />
    <path
       d="M470.73 472.99L487.31 491.1L475.35 502.05L458.77 483.94L470.73 472.99Z"
       id="a12Q85K0Ff" />
    <path
       d="M167.26 502.05L183.84 483.94L171.88 472.99L155.3 491.1L167.26 502.05Z"
       id="ahyF4auhn" />
    <path
       d="M311.89 218.36L328.11 218.36L328.11 347.07L311.89 347.07L311.89 218.36Z"
       id="a8QOsCxgkh" />
    <path
       d="M412.89 338.03L413.13 354.24L312.13 355.73L311.89 339.52L412.89 338.03Z"
       id="ac67CdsH0" />
    <path
       d="M341.72 344.48C341.72 356.73 331.99 366.67 320 366.67C308.01 366.67 298.28 356.73 298.28 344.48C298.28 332.22 308.01 322.28 320 322.28C331.99 322.28 341.72 332.22 341.72 344.48Z"
       id="asruVtCFJ" />
  </defs>
  <rect
     style="fill:#ececec;fill-opacity:1;fill-rule:evenodd;stroke:#cccccc;stroke-width:24.8117;stroke-linecap:square;stroke-miterlimit:4;stroke-dasharray:none;stroke-opacity:1;paint-order:stroke markers fill"
     id="rect941"
     width="565.69092"
     height="562.26874"
     x="39.258308"
     y="35.580875"
     ry="64.193237" />
  <g
     id="g106"
     transform="matrix(0.76860447,0,0,0.80269234,73.141732,54.810738)">
    <g
       id="g104">
      <g
         id="g26"
         style="fill:#ececec">
        <use
           xlink:href="#blUNvSexW"
           opacity="1"
           fill="#505151"
           fill-opacity="1"
           id="use24"
           x="0"
           y="0"
           width="100%"
           height="100%"
           style="fill:#ececec" />
      </g>
      <g
         id="g30"
         style="fill:#ececec"
         transform="translate(-0.09027659,16.161482)">
        <use
           xlink:href="#aHTfxDMXx"
           opacity="1"
           fill="#505151"
           fill-opacity="1"
           id="use28"
           x="0"
           y="0"
           width="100%"
           height="100%"
           style="fill:#ececec" />
      </g>
      <g
         id="g34"
         style="fill:#ececec"
         transform="translate(-0.09027659,16.161482)">
        <use
           xlink:href="#c2NRvVWhER"
           opacity="1"
           fill="#505151"
           fill-opacity="1"
           id="use32"
           x="0"
           y="0"
           width="100%"
           height="100%"
           style="fill:#ececec" />
      </g>
      <g
         id="g38"
         style="fill:#cccccc"
         transform="matrix(0.99999249,0,0,1.0420253,4.5176953e-4,-4.9219992)">
        <use
           xlink:href="#b4gdy3vULH"
           opacity="1"
           fill="#5c6168"
           fill-opacity="1"
           id="use36"
           x="0"
           y="0"
           width="100%"
           height="100%"
           style="fill:#cccccc" />
      </g>
      <g
         id="g42"
         style="fill:#cccccc;fill-opacity:1">
        <use
           xlink:href="#b3AZUHPuqL"
           opacity="1"
           fill="#5c6168"
           fill-opacity="1"
           id="use40"
           x="0"
           y="0"
           width="100%"
           height="100%"
           style="fill:#cccccc;fill-opacity:1" />
      </g>
      <g
         id="g46"
         style="fill:#cccccc;fill-opacity:1">
        <use
           xlink:href="#c5A47lKKzA"
           opacity="1"
           fill="#5c6168"
           fill-opacity="1"
           id="use44"
           x="0"
           y="0"
           width="100%"
           height="100%"
           style="fill:#cccccc;fill-opacity:1" />
      </g>
      <g
         id="g50"
         style="fill:#cccccc;fill-opacity:1">
        <use
           xlink:href="#aaGwEzth"
           opacity="1"
           fill="#5c6168"
           fill-opacity="1"
           id="use48"
           x="0"
           y="0"
           width="100%"
           height="100%"
           style="fill:#cccccc;fill-opacity:1" />
      </g>
      <g
         id="g62"
         transform="translate(-0.09027659,16.161482)">
        <use
           xlink:href="#c1a3344Pfq"
           opacity="1"
           fill="#6d727a"
           fill-opacity="1"
           id="use60"
           x="0"
           y="0"
           width="100%"
           height="100%" />
      </g>
      <g
         id="g66"
         transform="translate(-0.09027659,16.161482)">
        <use
           xlink:href="#a7BftFhrn"
           opacity="1"
           fill="#6d727a"
           fill-opacity="1"
           id="use64"
           x="0"
           y="0"
           width="100%"
           height="100%" />
      </g>
      <g
         id="g70"
         transform="translate(-0.09027659,16.161482)">
        <use
           xlink:href="#e5jCBKRSLY"
           opacity="1"
           fill="#6d727a"
           fill-opacity="1"
           id="use68"
           x="0"
           y="0"
           width="100%"
           height="100%" />
      </g>
      <g
         id="g74"
         transform="translate(-0.09027659,16.161482)">
        <use
           xlink:href="#clijEBDol"
           opacity="1"
           fill="#6d727a"
           fill-opacity="1"
           id="use72"
           x="0"
           y="0"
           width="100%"
           height="100%" />
      </g>
      <g
         id="g78"
         transform="translate(-0.09027659,16.161482)">
        <use
           xlink:href="#cuY952NPz"
           opacity="1"
           fill="#6d727a"
           fill-opacity="1"
           id="use76"
           x="0"
           y="0"
           width="100%"
           height="100%" />
      </g>
      <g
         id="g82"
         transform="translate(-0.09027659,16.161482)">
        <use
           xlink:href="#e9JeajwSI"
           opacity="1"
           fill="#6d727a"
           fill-opacity="1"
           id="use80"
           x="0"
           y="0"
           width="100%"
           height="100%" />
      </g>
      <g
         id="g86"
         transform="translate(-0.09027659,16.161482)">
        <use
           xlink:href="#a12Q85K0Ff"
           opacity="1"
           fill="#6d727a"
           fill-opacity="1"
           id="use84"
           x="0"
           y="0"
           width="100%"
           height="100%" />
      </g>
      <g
         id="g90"
         transform="translate(-0.09027659,16.161482)">
        <use
           xlink:href="#ahyF4auhn"
           opacity="1"
           fill="#6d727a"
           fill-opacity="1"
           id="use88"
           x="0"
           y="0"
           width="100%"
           height="100%" />
      </g>
      <g
         id="g94"
         transform="translate(-0.09027659,16.161482)">
        <use
           xlink:href="#a8QOsCxgkh"
           opacity="1"
           fill="#ad3737"
           fill-opacity="1"
           id="use92"
           x="0"
           y="0"
           width="100%"
           height="100%" />
      </g>
      <g
         id="g98"
         transform="translate(-0.09027659,16.161482)">
        <use
           xlink:href="#ac67CdsH0"
           opacity="1"
           fill="#ad3737"
           fill-opacity="1"
           id="use96"
           x="0"
           y="0"
           width="100%"
           height="100%" />
      </g>
      <g
         id="g102"
         transform="translate(-0.09027659,16.161482)">
        <use
           xlink:href="#asruVtCFJ"
           opacity="1"
           fill="#5c6168"
           fill-opacity="1"
           id="use100"
           x="0"
           y="0"
           width="100%"
           height="100%" />
      </g>
    </g>
  </g>
</svg>
