<?xml version="1.0" encoding="UTF-8" standalone="no"?>
<svg
   xmlns:dc="http://purl.org/dc/elements/1.1/"
   xmlns:cc="http://creativecommons.org/ns#"
   xmlns:rdf="http://www.w3.org/1999/02/22-rdf-syntax-ns#"
   xmlns:svg="http://www.w3.org/2000/svg"
   xmlns="http://www.w3.org/2000/svg"
   xmlns:sodipodi="http://sodipodi.sourceforge.net/DTD/sodipodi-0.dtd"
   xmlns:inkscape="http://www.inkscape.org/namespaces/inkscape"
   height="48"
   width="48"
   version="1.1"
   id="svg18"
   sodipodi:docname="czkawka-gui.svg"
   inkscape:version="1.0.2 (e86c870879, 2021-01-15)">
  <metadata
     id="metadata24">
    <rdf:RDF>
      <cc:Work
         rdf:about="">
        <dc:format>image/svg+xml</dc:format>
        <dc:type
           rdf:resource="http://purl.org/dc/dcmitype/StillImage" />
        <dc:title></dc:title>
      </cc:Work>
    </rdf:RDF>
  </metadata>
  <defs
     id="defs22" />
  <sodipodi:namedview
     pagecolor="#ffffff"
     bordercolor="#666666"
     borderopacity="1"
     objecttolerance="10"
     gridtolerance="10"
     guidetolerance="10"
     inkscape:pageopacity="0"
     inkscape:pageshadow="2"
     inkscape:window-width="1920"
     inkscape:window-height="1028"
     id="namedview20"
     showgrid="false"
     inkscape:zoom="6.6880516"
     inkscape:cx="-15.631962"
     inkscape:cy="17.432134"
     inkscape:window-x="0"
     inkscape:window-y="24"
     inkscape:window-maximized="1"
     inkscape:current-layer="svg18"
     inkscape:document-rotation="0" />
  <rect
     fill="#9c6a9b"
     height="43"
     ry="1.452703"
     width="43"
     x="2"
     y="3"
     id="rect2"
     style="fill:#a297a2;fill-opacity:1" />
  <path
     d="m 14.994386,12.173578 v 6.111507 c 0,1.230287 1.002565,2.200321 2.232851,2.200321 l 6.111508,-0.0015 z m 0,0"
     fill="#deddda"
     id="path65583"
     style="stroke-width:0.37855" />
  <path
     d="m 13.765578,8.4220909 c -1.230286,0 -2.011045,1.041011 -2.011045,2.2712981 v 29.148328 h 2.271298 V 27.728126 h 2.271298 v 9.085192 h 2.271299 v -9.085192 h 2.271298 v 4.542596 h 2.271297 v -4.542596 h 1.892749 V 39.841717 H 27.27507 V 27.728126 h 1.892749 v 14.384889 h 2.271298 V 27.728126 h 2.271298 v 12.113591 h 2.271298 V 27.728126 l 0.01628,-10.997165 -8.344371,-8.3088701 z m 0,0"
     fill="#f6f5f4"
     id="path65601"
     style="stroke-width:0.37855" />
  <path
     d="m 27.65362,8.4220909 v 6.1100281 c 0,1.231766 1.002565,2.201799 2.23433,2.201799 l 6.11003,-0.0015 z m 0,0"
     fill="#deddda"
     id="path65603"
     style="stroke-width:0.37855" />
  <path
     d="m 29.167819,27.728126 h 2.271298 v 12.113591 h -2.271298 z m 0,0"
     fill="#f6f5f4"
     id="path65605"
     style="stroke-width:0.37855" />
  <g
     fill="#c0bfbc"
     id="g65621"
     transform="matrix(0.3785497,0,0,0.3785497,-6.4158519,3.5009449)">
    <path
       d="m 56,20 h 22 v 4 H 56 Z m 0,0"
       id="path65609" />
    <path
       d="m 56,28 h 26 v 4 H 56 Z m 0,0"
       id="path65611" />
    <path
       d="m 80,46 h 24 v 4 H 80 Z m 0,0"
       id="path65613" />
    <path
       d="m 80,38 h 16 v 4 H 80 Z m 0,0"
       id="path65615" />
    <path
       d="m 56,54 h 48 v 4 H 56 Z m 0,0"
       id="path65619" />
  </g>
  <path
     d="m 29.167819,40.598816 h 2.271298 v 1.514199 h -2.271298 z m 0,0"
     fill="#c0bfbc"
     id="path65627"
     style="stroke-width:0.37855" />
  <path
     d="m 33.710415,38.327518 h 2.271298 v 1.514199 h -2.271298 z m 0,0"
     fill="#c0bfbc"
     id="path65629"
     style="stroke-width:0.37855" />
  <path
     d="m 25.003772,38.327518 h 2.271298 v 1.514199 h -2.271298 z m 0,0"
     fill="#c0bfbc"
     id="path65631"
     style="stroke-width:0.37855" />
  <path
     d="m 20.839726,30.756523 h 2.271297 v 1.514199 h -2.271297 z m 0,0"
     fill="#c0bfbc"
     id="path65633"
     style="stroke-width:0.37855" />
  <path
     d="m 14.78293,17.128734 h 7.570994 V 22.42843 H 14.78293 Z m 0,0"
     fill="url(#t)"
     id="path65639"
     style="stroke-width:0.37855" />
  <rect
     style="fill:#a297a2;fill-opacity:1;fill-rule:evenodd;stroke:none;stroke-width:2.96035;stroke-linecap:square;stroke-dasharray:none;stroke-opacity:1;paint-order:stroke markers fill"
     id="rect67558-9"
     width="7.8624673"
     height="6.3327641"
     x="14.903989"
     y="16.53112"
     ry="0" />
</svg>
