<?xml version="1.0" encoding="UTF-8" standalone="no"?>
<svg
   xmlns:dc="http://purl.org/dc/elements/1.1/"
   xmlns:cc="http://creativecommons.org/ns#"
   xmlns:rdf="http://www.w3.org/1999/02/22-rdf-syntax-ns#"
   xmlns:svg="http://www.w3.org/2000/svg"
   xmlns="http://www.w3.org/2000/svg"
   xmlns:xlink="http://www.w3.org/1999/xlink"
   xmlns:sodipodi="http://sodipodi.sourceforge.net/DTD/sodipodi-0.dtd"
   xmlns:inkscape="http://www.inkscape.org/namespaces/inkscape"
   version="1.1"
   preserveAspectRatio="xMidYMid meet"
   viewBox="0 0 640 640"
   width="64"
   height="64"
   id="svg113"
   sodipodi:docname="de.haeckerfelix.Shortwave2.svg"
   inkscape:version="0.92.5 (2060ec1f9f, 2020-04-08)">
  <metadata
     id="metadata117">
    <rdf:RDF>
      <cc:Work
         rdf:about="">
        <dc:format>image/svg+xml</dc:format>
        <dc:type
           rdf:resource="http://purl.org/dc/dcmitype/StillImage" />
      </cc:Work>
    </rdf:RDF>
  </metadata>
  <sodipodi:namedview
     pagecolor="#ffffff"
     bordercolor="#666666"
     borderopacity="1"
     objecttolerance="10"
     gridtolerance="10"
     guidetolerance="10"
     inkscape:pageopacity="0"
     inkscape:pageshadow="2"
     inkscape:window-width="1850"
     inkscape:window-height="1048"
     id="namedview115"
     showgrid="false"
     inkscape:zoom="3.6875"
     inkscape:cx="-5.8610055"
     inkscape:cy="48.678043"
     inkscape:window-x="70"
     inkscape:window-y="32"
     inkscape:window-maximized="1"
     inkscape:current-layer="g111" />
  <defs
     id="defs23">
    <path
       d="M617.86 322.85C617.86 487.24 485.67 620.7 322.85 620.7C160.03 620.7 27.84 487.24 27.84 322.85C27.84 158.46 160.03 24.99 322.85 24.99C485.67 24.99 617.86 158.46 617.86 322.85Z"
       id="c1zbOFhQaK" />
    <path
       d="M186.58 212.5C191.75 212.5 195.95 216.7 195.95 221.88C195.95 227.5 195.95 235 195.95 240.63C195.95 245.8 191.75 250 186.58 250C179.45 250 167.45 250 160.33 250C155.15 250 150.95 245.8 150.95 240.63C150.95 235 150.95 227.5 150.95 221.88C150.95 216.7 155.15 212.5 160.33 212.5C167.45 212.5 179.45 212.5 186.58 212.5Z"
       id="c22rr5v1T" />
    <path
       d="M497.05 235.71C508.1 235.71 517.05 244.67 517.05 255.71C517.05 301.6 517.05 419.27 517.05 465.16C517.05 476.2 508.1 485.16 497.05 485.16C423.37 485.16 222.32 485.16 148.64 485.16C137.6 485.16 128.64 476.2 128.64 465.16C128.64 419.27 128.64 301.6 128.64 255.71C128.64 244.67 137.6 235.71 148.64 235.71C222.32 235.71 423.37 235.71 497.05 235.71Z"
       id="c1bQ9sV7Mk" />
    <path
       d="M422.01 235.71C461.56 235.71 486.28 235.71 496.17 235.71C509.31 235.71 519.97 246.37 519.97 259.51C519.97 304.64 519.97 415.51 519.97 460.45C519.97 474.1 508.91 485.16 495.26 485.16C485.5 485.16 461.08 485.16 422.01 485.16L422.01 235.71Z"
       id="d3YCaFMoMf" />
    <path
       d="M316.15 360.44C316.15 399.17 283.42 430.62 243.12 430.62C202.81 430.62 170.08 399.17 170.08 360.44C170.08 321.7 202.81 290.25 243.12 290.25C283.42 290.25 316.15 321.7 316.15 360.44Z"
       id="b4q9mu7WTO" />
    <path
       d="M187.37 314.75L298.87 314.75L308.37 325.25L176.87 325.25L187.37 314.75Z"
       id="a3y18KU1l" />
    <path
       d="M168.72 338.75L315.83 338.75L328.37 349.25L154.87 349.25L168.72 338.75Z"
       id="aCYl77daL" />
    <path
       d="M168.72 363.25L315.83 363.25L328.37 373.75L154.87 373.75L168.72 363.25Z"
       id="ax2ilvSkH" />
    <path
       d="M172.72 389.25L319.83 389.25L332.37 399.75L158.87 399.75L172.72 389.25Z"
       id="abu2qRCp9" />
    <path
       d="M495.36 295.63C495.36 309.08 484.44 320 470.99 320C457.54 320 446.61 309.08 446.61 295.63C446.61 282.17 457.54 271.25 470.99 271.25C484.44 271.25 495.36 282.17 495.36 295.63Z"
       id="fy9DFs64G" />
    <path
       d="M473.31 284C473.31 288.42 469.62 292 465.06 292C460.51 292 456.81 288.42 456.81 284C456.81 279.58 460.51 276 465.06 276C469.62 276 473.31 279.58 473.31 284Z"
       id="bIem0jwWz" />
    <path
       d="M454.56 345.25C457.46 345.25 459.81 347.6 459.81 350.5C459.81 353.75 459.81 358.25 459.81 361.5C459.81 364.4 457.46 366.75 454.56 366.75C451.41 366.75 447.21 366.75 444.06 366.75C441.16 366.75 438.81 364.4 438.81 361.5C438.81 358.25 438.81 353.75 438.81 350.5C438.81 347.6 441.16 345.25 444.06 345.25C447.21 345.25 451.41 345.25 454.56 345.25Z"
       id="jvvLMyKeT" />
    <path
       d="M498.06 345.25C500.96 345.25 503.31 347.6 503.31 350.5C503.31 353.75 503.31 358.25 503.31 361.5C503.31 364.4 500.96 366.75 498.06 366.75C494.91 366.75 490.71 366.75 487.56 366.75C484.66 366.75 482.31 364.4 482.31 361.5C482.31 358.25 482.31 353.75 482.31 350.5C482.31 347.6 484.66 345.25 487.56 345.25C490.71 345.25 494.91 345.25 498.06 345.25Z"
       id="a1y8Jlec" />
    <path
       d="M498.06 381.25C500.96 381.25 503.31 383.6 503.31 386.5C503.31 389.75 503.31 394.25 503.31 397.5C503.31 400.4 500.96 402.75 498.06 402.75C494.91 402.75 490.71 402.75 487.56 402.75C484.66 402.75 482.31 400.4 482.31 397.5C482.31 394.25 482.31 389.75 482.31 386.5C482.31 383.6 484.66 381.25 487.56 381.25C490.71 381.25 494.91 381.25 498.06 381.25Z"
       id="a17DxYMgrh" />
    <path
       d="M454.56 381.25C457.46 381.25 459.81 383.6 459.81 386.5C459.81 389.75 459.81 394.25 459.81 397.5C459.81 400.4 457.46 402.75 454.56 402.75C451.41 402.75 447.21 402.75 444.06 402.75C441.16 402.75 438.81 400.4 438.81 397.5C438.81 394.25 438.81 389.75 438.81 386.5C438.81 383.6 441.16 381.25 444.06 381.25C447.21 381.25 451.41 381.25 454.56 381.25Z"
       id="d8oldgnijM" />
    <path
       d="M454.56 419.87C457.46 419.87 459.81 422.22 459.81 425.12C459.81 428.37 459.81 432.87 459.81 436.12C459.81 439.02 457.46 441.37 454.56 441.37C451.41 441.37 447.21 441.37 444.06 441.37C441.16 441.37 438.81 439.02 438.81 436.12C438.81 432.87 438.81 428.37 438.81 425.12C438.81 422.22 441.16 419.87 444.06 419.87C447.21 419.87 451.41 419.87 454.56 419.87Z"
       id="fFMybK4ta" />
    <path
       d="M498.06 419.87C500.96 419.87 503.31 422.22 503.31 425.12C503.31 428.37 503.31 432.87 503.31 436.12C503.31 439.02 500.96 441.37 498.06 441.37C494.91 441.37 490.71 441.37 487.56 441.37C484.66 441.37 482.31 439.02 482.31 436.12C482.31 432.87 482.31 428.37 482.31 425.12C482.31 422.22 484.66 419.87 487.56 419.87C490.71 419.87 494.91 419.87 498.06 419.87Z"
       id="aMV6wjHCE" />
    <path
       d="M163.34 213.01L220.42 160.63L231.24 172.42L174.16 224.8L163.34 213.01Z"
       id="b1wLA8zsg0" />
    <path
       d="M212.36 171.85L266.32 122.33L273.42 130.06L219.46 179.58L212.36 171.85Z"
       id="dLhuaOHV1" />
    <path
       d="M250.31 140.35L304.28 90.83L308.37 95.28L254.4 144.8L250.31 140.35Z"
       id="f1fHiT9A85" />
    <path
       d="M313.15 93.83C313.15 98.24 309.45 101.83 304.9 101.83C300.34 101.83 296.65 98.24 296.65 93.83C296.65 89.41 300.34 85.83 304.9 85.83C309.45 85.83 313.15 89.41 313.15 93.83Z"
       id="a2AVZ6ifyg" />
  </defs>
  <g
     id="g111">
    <g
       id="g109">
      <g
         id="g27">
        <use
           xlink:href="#c1zbOFhQaK"
           opacity="1"
           fill="#dab155"
           fill-opacity="1"
           id="use25" />
      </g>
      <g
         id="g31"
         style="fill:#8e702c;fill-opacity:1">
        <use
           xlink:href="#c22rr5v1T"
           opacity="1"
           fill="#503e14"
           fill-opacity="1"
           id="use29"
           style="fill:#8e702c;fill-opacity:1" />
      </g>
      <g
         id="g35">
        <use
           xlink:href="#c1bQ9sV7Mk"
           opacity="1"
           fill="#ab7f1b"
           fill-opacity="1"
           id="use33" />
      </g>
      <g
         id="g39"
         style="fill:#8e702c;fill-opacity:1">
        <use
           xlink:href="#d3YCaFMoMf"
           opacity="1"
           fill="#503e14"
           fill-opacity="1"
           id="use37"
           style="fill:#8e702c;fill-opacity:1" />
      </g>
      <g
         id="g43"
         style="fill:#dab155;fill-opacity:1">
        <use
           xlink:href="#b4q9mu7WTO"
           opacity="1"
           fill="#503e14"
           fill-opacity="1"
           id="use41"
           style="fill:#dab155;fill-opacity:1" />
      </g>
      <g
         id="g47">
        <use
           xlink:href="#a3y18KU1l"
           id="use45"
           fill-opacity="1"
           fill="#ab7f1b"
           opacity="1" />
      </g>
      <g
         id="g51">
        <use
           xlink:href="#aCYl77daL"
           opacity="1"
           fill="#ab7f1b"
           fill-opacity="1"
           id="use49" />
      </g>
      <g
         id="g55">
        <use
           xlink:href="#ax2ilvSkH"
           opacity="1"
           fill="#ab7f1b"
           fill-opacity="1"
           id="use53" />
      </g>
      <g
         id="g59">
        <use
           xlink:href="#abu2qRCp9"
           opacity="1"
           fill="#ab7f1b"
           fill-opacity="1"
           id="use57" />
      </g>
      <g
         id="g63"
         style="fill:#dab155;fill-opacity:1">
        <use
           xlink:href="#fy9DFs64G"
           opacity="1"
           fill="#ab7f1b"
           fill-opacity="1"
           id="use61"
           style="fill:#dab155;fill-opacity:1" />
      </g>
      <g
         id="g67"
         style="fill:#dab155;fill-opacity:1">
        <use
           xlink:href="#bIem0jwWz"
           opacity="1"
           fill="#503e14"
           fill-opacity="1"
           id="use65"
           style="fill:#dab155;fill-opacity:1" />
      </g>
      <g
         id="g71"
         style="fill:#dab155;fill-opacity:1">
        <use
           xlink:href="#jvvLMyKeT"
           opacity="1"
           fill="#ab7f1b"
           fill-opacity="1"
           id="use69"
           style="fill:#dab155;fill-opacity:1" />
      </g>
      <g
         id="g75"
         style="fill:#dab155;fill-opacity:1">
        <use
           xlink:href="#a1y8Jlec"
           opacity="1"
           fill="#ab7f1b"
           fill-opacity="1"
           id="use73"
           style="fill:#dab155;fill-opacity:1" />
      </g>
      <g
         id="g79"
         style="fill:#dab155;fill-opacity:1">
        <use
           xlink:href="#a17DxYMgrh"
           opacity="1"
           fill="#ab7f1b"
           fill-opacity="1"
           id="use77"
           style="fill:#dab155;fill-opacity:1" />
      </g>
      <g
         id="g83"
         style="fill:#dab155;fill-opacity:1">
        <use
           xlink:href="#d8oldgnijM"
           opacity="1"
           fill="#ab7f1b"
           fill-opacity="1"
           id="use81"
           style="fill:#dab155;fill-opacity:1" />
      </g>
      <g
         id="g87"
         style="fill:#dab155;fill-opacity:1">
        <use
           xlink:href="#fFMybK4ta"
           opacity="1"
           fill="#ab7f1b"
           fill-opacity="1"
           id="use85"
           style="fill:#dab155;fill-opacity:1" />
      </g>
      <g
         id="g91"
         style="fill:#dab155;fill-opacity:1">
        <use
           xlink:href="#aMV6wjHCE"
           opacity="1"
           fill="#ab7f1b"
           fill-opacity="1"
           id="use89"
           style="fill:#dab155;fill-opacity:1" />
      </g>
      <g
         id="g95"
         style="fill:#8e702c;fill-opacity:1">
        <use
           xlink:href="#b1wLA8zsg0"
           opacity="1"
           fill="#503e14"
           fill-opacity="1"
           id="use93"
           style="fill:#8e702c;fill-opacity:1" />
      </g>
      <g
         id="g99"
         style="fill:#8e702c;fill-opacity:1">
        <use
           xlink:href="#dLhuaOHV1"
           opacity="1"
           fill="#503e14"
           fill-opacity="1"
           id="use97"
           style="fill:#8e702c;fill-opacity:1" />
      </g>
      <g
         id="g103"
         style="fill:#8e702c;fill-opacity:1">
        <use
           xlink:href="#f1fHiT9A85"
           opacity="1"
           fill="#503e14"
           fill-opacity="1"
           id="use101"
           style="fill:#8e702c;fill-opacity:1" />
      </g>
      <g
         id="g107"
         style="fill:#8e702c;fill-opacity:1">
        <use
           xlink:href="#a2AVZ6ifyg"
           opacity="1"
           fill="#503e14"
           fill-opacity="1"
           id="use105"
           style="fill:#8e702c;fill-opacity:1" />
      </g>
    </g>
  </g>
</svg>
