<?xml version="1.0" encoding="UTF-8" standalone="no"?>
<!DOCTYPE svg PUBLIC "-//W3C//DTD SVG 1.1//EN" "http://www.w3.org/Graphics/SVG/1.1/DTD/svg11.dtd">
<svg version="1.1" xmlns="http://www.w3.org/2000/svg" xmlns:xlink="http://www.w3.org/1999/xlink" preserveAspectRatio="xMidYMid meet" viewBox="0 0 640 640" width="64" height="64"><defs><path d="M598.98 319.43C598.98 470.89 474.48 593.86 321.14 593.86C167.79 593.86 43.3 470.89 43.3 319.43C43.3 167.97 167.79 45 321.14 45C474.48 45 598.98 167.97 598.98 319.43Z" id="dcEKK6USX"></path><path d="M449.31 175.68C461.05 175.68 470.57 185.2 470.57 196.94C470.57 242.69 470.57 358.68 470.57 404.43C470.57 416.17 461.05 425.68 449.31 425.68C383.11 425.68 205.75 425.68 139.55 425.68C127.81 425.68 118.3 416.17 118.3 404.43C118.3 358.68 118.3 242.69 118.3 196.94C118.3 185.2 127.81 175.68 139.55 175.68C205.75 175.68 383.11 175.68 449.31 175.68Z" id="a4qReGRY"></path><path d="M433.96 195.68C443.89 195.68 451.93 203.73 451.93 213.65C451.93 252.33 451.93 350.4 451.93 389.07C451.93 399 443.89 407.05 433.96 407.05C374.83 407.05 215.4 407.05 156.27 407.05C146.34 407.05 138.3 399 138.3 389.07C138.3 350.4 138.3 252.33 138.3 213.65C138.3 203.73 146.34 195.68 156.27 195.68C215.4 195.68 374.83 195.68 433.96 195.68Z" id="aBDfv8xxJ"></path><path d="M248.75 241.59C262.68 241.59 273.98 252.89 273.98 266.82C273.98 285.41 273.98 315.95 273.98 334.54C273.98 348.48 262.68 359.77 248.75 359.77C235.16 359.77 219.62 359.77 206.03 359.77C192.09 359.77 180.8 348.48 180.8 334.54C180.8 315.95 180.8 285.41 180.8 266.82C180.8 252.89 192.09 241.59 206.03 241.59C219.62 241.59 235.16 241.59 248.75 241.59Z" id="dKZIcdd0c"></path><path d="M245.1 248.98C256.66 248.98 266.02 258.34 266.02 269.9C266.02 286.62 266.02 315.88 266.02 332.6C266.02 344.16 256.66 353.52 245.1 353.52C233.83 353.52 220.94 353.52 209.67 353.52C198.12 353.52 188.75 344.16 188.75 332.6C188.75 315.88 188.75 286.62 188.75 269.9C188.75 258.34 198.12 248.98 209.67 248.98C220.94 248.98 233.83 248.98 245.1 248.98Z" id="baakit4Hm"></path><path d="M318.96 281.36C329.89 281.36 338.75 290.22 338.75 301.15C338.75 318.56 338.75 350.99 338.75 368.39C338.75 379.32 329.89 388.18 318.96 388.18C303.49 388.18 276.85 388.18 261.38 388.18C250.45 388.18 241.59 379.32 241.59 368.39C241.59 350.99 241.59 318.56 241.59 301.15C241.59 290.22 250.45 281.36 261.38 281.36C276.85 281.36 303.49 281.36 318.96 281.36Z" id="b2obaubDJX"></path><path d="M314.21 288.86C323.75 288.86 331.48 296.59 331.48 306.13C331.48 321.31 331.48 349.6 331.48 364.78C331.48 374.32 323.75 382.05 314.21 382.05C300.96 382.05 278.47 382.05 265.22 382.05C255.68 382.05 247.95 374.32 247.95 364.78C247.95 349.6 247.95 321.31 247.95 306.13C247.95 296.59 255.68 288.86 265.22 288.86C278.47 288.86 300.96 288.86 314.21 288.86Z" id="b1EeDUjLNd"></path><path d="M475.57 121.14C486.61 121.14 495.57 130.09 495.57 141.14C495.57 213.5 495.57 410.59 495.57 482.95C495.57 494 486.61 502.95 475.57 502.95C451.61 502.95 399.75 502.95 375.8 502.95C364.75 502.95 355.8 494 355.8 482.95C355.8 410.59 355.8 213.5 355.8 141.14C355.8 130.09 364.75 121.14 375.8 121.14C399.75 121.14 451.61 121.14 475.57 121.14Z" id="eCCd3rftr"></path><path d="M472.27 190.34C472.27 215.49 451.4 235.91 425.68 235.91C399.97 235.91 379.09 215.49 379.09 190.34C379.09 165.19 399.97 144.77 425.68 144.77C451.4 144.77 472.27 165.19 472.27 190.34Z" id="bObNHrGgc"></path><path d="M458.3 190.34C458.3 208.65 443.68 223.52 425.68 223.52C407.68 223.52 393.07 208.65 393.07 190.34C393.07 172.03 407.68 157.16 425.68 157.16C443.68 157.16 458.3 172.03 458.3 190.34Z" id="a3jkQj7L7k"></path><path d="M447.67 190.34C447.67 202.38 437.82 212.16 425.68 212.16C413.55 212.16 403.69 202.38 403.69 190.34C403.69 178.3 413.55 168.52 425.68 168.52C437.82 168.52 447.67 178.3 447.67 190.34Z" id="aa3pzMHMi"></path><path d="M413.07 290.23C413.07 302.27 404.11 312.05 393.07 312.05C382.03 312.05 373.07 302.27 373.07 290.23C373.07 278.19 382.03 268.41 393.07 268.41C404.11 268.41 413.07 278.19 413.07 290.23Z" id="d1oOX5Q4t"></path><path d="M478.3 290.23C478.3 302.27 469.33 312.05 458.3 312.05C447.26 312.05 438.3 302.27 438.3 290.23C438.3 278.19 447.26 268.41 458.3 268.41C469.33 268.41 478.3 278.19 478.3 290.23Z" id="a68VC6Gffo"></path><path d="M478.3 363.64C478.3 375.68 469.33 385.45 458.3 385.45C447.26 385.45 438.3 375.68 438.3 363.64C438.3 351.59 447.26 341.82 458.3 341.82C469.33 341.82 478.3 351.59 478.3 363.64Z" id="a1ZZYPtZf"></path><path d="M478.3 442.73C478.3 454.77 469.33 464.55 458.3 464.55C447.26 464.55 438.3 454.77 438.3 442.73C438.3 430.69 447.26 420.91 458.3 420.91C469.33 420.91 478.3 430.69 478.3 442.73Z" id="b1AO5PdfLG"></path><path d="M413.07 363.64C413.07 375.68 404.11 385.45 393.07 385.45C382.03 385.45 373.07 375.68 373.07 363.64C373.07 351.59 382.03 341.82 393.07 341.82C404.11 341.82 413.07 351.59 413.07 363.64Z" id="a5EH4nSMZm"></path><path d="M413.07 442.73C413.07 454.77 404.11 464.55 393.07 464.55C382.03 464.55 373.07 454.77 373.07 442.73C373.07 430.69 382.03 420.91 393.07 420.91C404.11 420.91 413.07 430.69 413.07 442.73Z" id="aAKHoESOG"></path></defs><g><g><g><use xlink:href="#dcEKK6USX" opacity="1" fill="#787878" fill-opacity="1"></use></g><g><use xlink:href="#a4qReGRY" opacity="1" fill="#c8c7c7" fill-opacity="1"></use></g><g><use xlink:href="#aBDfv8xxJ" opacity="1" fill="#ae9e5b" fill-opacity="1"></use></g><g><use xlink:href="#dKZIcdd0c" opacity="1" fill="#c8c7c7" fill-opacity="1"></use></g><g><use xlink:href="#baakit4Hm" opacity="1" fill="#787878" fill-opacity="1"></use></g><g><use xlink:href="#b2obaubDJX" opacity="1" fill="#c8c7c7" fill-opacity="1"></use></g><g><use xlink:href="#b1EeDUjLNd" opacity="1" fill="#787878" fill-opacity="1"></use></g><g><use xlink:href="#eCCd3rftr" opacity="1" fill="#505050" fill-opacity="1"></use></g><g><use xlink:href="#bObNHrGgc" opacity="1" fill="#787878" fill-opacity="1"></use></g><g><use xlink:href="#a3jkQj7L7k" opacity="1" fill="#4a4949" fill-opacity="1"></use></g><g><use xlink:href="#aa3pzMHMi" opacity="1" fill="#7d7a7a" fill-opacity="1"></use></g><g><use xlink:href="#d1oOX5Q4t" opacity="1" fill="#cc5353" fill-opacity="1"></use></g><g><use xlink:href="#a68VC6Gffo" opacity="1" fill="#7d7a7a" fill-opacity="1"></use></g><g><use xlink:href="#a1ZZYPtZf" opacity="1" fill="#7d7a7a" fill-opacity="1"></use></g><g><use xlink:href="#b1AO5PdfLG" opacity="1" fill="#7d7a7a" fill-opacity="1"></use></g><g><use xlink:href="#a5EH4nSMZm" opacity="1" fill="#7d7a7a" fill-opacity="1"></use></g><g><use xlink:href="#aAKHoESOG" opacity="1" fill="#7d7a7a" fill-opacity="1"></use></g></g></g></svg>