<?xml version="1.0" encoding="UTF-8" standalone="no"?><!DOCTYPE svg PUBLIC "-//W3C//DTD SVG 1.1//EN" "http://www.w3.org/Graphics/SVG/1.1/DTD/svg11.dtd"><svg width="100%" height="100%" viewBox="0 0 267 267" version="1.1" xmlns="http://www.w3.org/2000/svg" xmlns:xlink="http://www.w3.org/1999/xlink" xml:space="preserve" xmlns:serif="http://www.serif.com/" style="fill-rule:evenodd;clip-rule:evenodd;stroke-linejoin:round;stroke-miterlimit:2;"><rect id="Artboard2" x="-2.359" y="2.26" width="266.667" height="266.667" style="fill:none;"/><g><path d="M87.091,15.024c66.544,-24.22 140.233,10.141 164.453,76.685c24.22,66.544 -10.142,140.233 -76.686,164.453c-66.544,24.22 -140.233,-10.142 -164.453,-76.686c-24.22,-66.544 10.142,-140.232 76.686,-164.452Z" style="fill:#31333e;"/><clipPath id="_clip1"><path d="M87.091,15.024c66.544,-24.22 140.233,10.141 164.453,76.685c24.22,66.544 -10.142,140.233 -76.686,164.453c-66.544,24.22 -140.233,-10.142 -164.453,-76.686c-24.22,-66.544 10.142,-140.232 76.686,-164.452Z"/></clipPath><g clip-path="url(#_clip1)"><path d="M24.462,117.454c8.241,-15.204 19.206,-28.564 31.976,-39.972c12.748,-11.389 27.294,-20.831 42.717,-28.222c0.306,-0.149 0.433,-0.518 0.284,-0.825c-0.149,-0.306 -0.518,-0.433 -0.824,-0.284c-15.41,7.613 -29.916,17.275 -42.59,28.873c-12.658,11.584 -23.489,25.098 -31.563,40.43Z" style="fill:#bfae2d;"/><path d="M59.504,43.162c15.635,-7.574 32.009,-12.934 48.809,-16.085c16.769,-3.146 33.961,-4.089 51.263,-2.835c0.256,0.017 0.478,-0.176 0.495,-0.432c0.017,-0.256 -0.176,-0.478 -0.432,-0.495c-17.373,-1.102 -34.616,-0.002 -51.414,3.305c-16.79,3.307 -33.136,8.818 -48.721,16.542Z" style="fill:#fff;"/><path d="M230.725,183.556c-14.227,12.988 -29.095,22.525 -45.12,29.437c-16.041,6.919 -33.24,11.206 -52.113,13.694c-0.337,0.047 -0.573,0.358 -0.527,0.695c0.047,0.337 0.358,0.574 0.695,0.527c18.93,-2.715 36.158,-7.217 52.193,-14.351c15.976,-7.108 30.766,-16.828 44.872,-30.002Z" style="fill:#bfae2d;"/></g><path d="M118.864,208.682l0.066,7.965l6.931,-3.926l-6.866,4.04l6.866,4.04l-6.931,-3.926l-0.066,7.965l-0.066,-7.965l-6.931,3.926l6.866,-4.04l-6.866,-4.04l6.931,3.926l0.066,-7.965Z" style="fill:#fff;"/><path d="M196.474,56.827l0.066,7.965l6.931,-3.926l-6.866,4.04l6.866,4.04l-6.931,-3.926l-0.066,7.965l-0.066,-7.965l-6.931,3.926l6.866,-4.04l-6.866,-4.04l6.931,3.926l0.066,-7.965Z" style="fill:#fff;"/><path d="M152.611,43.162l0.065,7.965l6.932,-3.925l-6.866,4.039l6.866,4.04l-6.932,-3.926l-0.065,7.965l-0.066,-7.965l-6.931,3.926l6.865,-4.04l-6.865,-4.039l6.931,3.925l0.066,-7.965Z" style="fill:#fff;"/><path d="M61.673,118.534l0.066,7.966l6.931,-3.926l-6.866,4.039l6.866,4.04l-6.931,-3.926l-0.066,7.966l-0.065,-7.966l-6.932,3.926l6.866,-4.04l-6.866,-4.039l6.932,3.926l0.065,-7.966Z" style="fill:#fff;"/><g><g id="base"><path d="M109.728,118.115c8.967,-3.036 17.918,-6.301 26.737,-9.753c8.807,-2.053 17.749,-4.377 26.713,-6.942c8.046,-0.931 16.371,-2.155 24.868,-3.658c6.737,0.255 13.877,0.214 21.33,-0.125c4.968,1.424 10.437,2.568 16.336,3.417c2.861,2.496 6.286,4.747 10.23,6.726c0.56,3.397 1.707,6.603 3.427,9.576c-1.78,4.068 -2.989,8.009 -3.609,11.775c-4,4.46 -7.482,8.868 -10.401,13.169c-5.946,4.549 -11.463,9.124 -16.483,13.668c-7.486,4.328 -14.664,8.758 -21.441,13.234c-8.518,3.812 -16.866,7.795 -24.939,11.899c-8.968,3.036 -17.919,6.301 -26.737,9.753c-8.807,2.053 -17.75,4.377 -26.713,6.942c-8.047,0.93 -16.371,2.155 -24.869,3.658c-6.737,-0.256 -13.877,-0.214 -21.329,0.124c-4.969,-1.424 -10.437,-2.567 -16.337,-3.417c-2.861,-2.495 -6.286,-4.747 -10.23,-6.725c-0.56,-3.397 -1.707,-6.603 -3.427,-9.577c1.78,-4.067 2.989,-8.008 3.61,-11.774c3.999,-4.46 7.481,-8.868 10.4,-13.17c5.946,-4.548 11.464,-9.124 16.483,-13.667c7.487,-4.328 14.664,-8.758 21.441,-13.234c8.518,-3.812 16.866,-7.796 24.94,-11.899Z" style="fill:#606060;"/><path d="M122.257,111.541c55.013,-20.023 105.571,-20.084 112.831,-0.137c7.261,19.948 -31.509,52.399 -86.522,72.422c-55.013,20.023 -105.572,20.085 -112.832,0.137c-7.26,-19.947 31.509,-52.398 86.523,-72.422Z" style="fill:#d5d5d5;"/><clipPath id="_clip2"><path d="M122.257,111.541c55.013,-20.023 105.571,-20.084 112.831,-0.137c7.261,19.948 -31.509,52.399 -86.522,72.422c-55.013,20.023 -105.572,20.085 -112.832,0.137c-7.26,-19.947 31.509,-52.398 86.523,-72.422Z"/></clipPath><g clip-path="url(#_clip2)"><path d="M141.186,128.143l21.212,-3.048l13.981,3.005l3.003,8.252l-8.778,11.289l-18.208,11.3l-22.76,8.284l-21.211,3.047l-13.981,-3.005l-3.004,-8.252l8.779,-11.288l18.208,-11.3l22.759,-8.284Z" style="fill:#2f2f2f;"/><g><path d="M115.472,118.27l-3.226,1.174l-1.369,-3.761l22.759,-8.283l1.369,3.761l-3.226,1.174l-0.46,-1.266l-16.308,5.935l0.461,1.266Z" style="fill:#bfae2d;"/></g><g><path d="M162.257,104.481l-3.006,0.431l4.001,-5.144l21.211,-3.048l-4,5.145l-3.007,0.432l1.347,-1.732l-15.199,2.184l-1.347,1.732Z" style="fill:#bfae2d;"/></g><g><path d="M201.85,102.267l-1.982,-0.426l8.299,-5.15l13.98,3.005l-8.298,5.15l-1.982,-0.426l2.793,-1.733l-10.018,-2.153l-2.792,1.733Z" style="fill:#bfae2d;"/></g><g><path d="M223.64,112.223l-0.426,-1.17l10.373,-3.775l3.003,8.252l-10.372,3.776l-0.426,-1.17l3.491,-1.271l-2.152,-5.913l-3.491,1.271Z" style="fill:#bfae2d;"/></g><g><path d="M221.789,131.681l1.244,-1.6l9.668,-1.389l-8.779,11.288l-9.667,1.389l1.244,-1.6l3.254,-0.467l6.29,-8.089l-3.254,0.468Z" style="fill:#bfae2d;"/></g><g><path d="M196.794,155.426l2.58,-1.601l6.372,1.369l-18.208,11.3l-6.372,-1.369l2.581,-1.602l2.144,0.461l13.047,-8.097l-2.144,-0.461Z" style="fill:#bfae2d;"/></g><g><path d="M155.351,177.097l3.226,-1.174l1.369,3.761l-22.76,8.284l-1.368,-3.761l3.225,-1.174l0.461,1.266l16.308,-5.936l-0.461,-1.266Z" style="fill:#bfae2d;"/></g><g><path d="M108.565,190.887l3.007,-0.432l-4.001,5.145l-21.212,3.047l4.001,-5.144l3.006,-0.432l-1.346,1.731l15.199,-2.184l1.346,-1.731Z" style="fill:#bfae2d;"/></g><g><path d="M68.973,193.1l1.982,0.426l-8.299,5.15l-13.981,-3.005l8.299,-5.15l1.981,0.426l-2.793,1.734l10.018,2.153l2.793,-1.734Z" style="fill:#bfae2d;"/></g><g><path d="M47.183,183.145l0.425,1.169l-10.372,3.775l-3.004,-8.252l10.373,-3.775l0.426,1.169l-3.491,1.271l2.152,5.913l3.491,-1.27Z" style="fill:#bfae2d;"/></g><g><path d="M49.033,163.687l-1.244,1.6l-9.667,1.389l8.778,-11.289l9.668,-1.389l-1.245,1.6l-3.253,0.468l-6.29,8.088l3.253,-0.467Z" style="fill:#bfae2d;"/></g><g><path d="M74.029,139.941l-2.581,1.602l-6.372,-1.37l18.208,-11.3l6.372,1.37l-2.58,1.601l-2.145,-0.461l-13.047,8.097l2.145,0.461Z" style="fill:#bfae2d;"/></g></g></g><g><g><path d="M143.81,71.756l-63.638,23.163l23.756,65.266l63.637,-23.162l-23.755,-65.267Z" style="fill:#606060;"/><path d="M108.223,72.985c17.562,-6.392 33.507,-6.942 35.587,-1.229c2.08,5.714 -10.49,15.542 -28.051,21.934c-17.561,6.392 -33.507,6.942 -35.587,1.229c-2.079,-5.714 10.49,-15.542 28.051,-21.934Z" style="fill:#868686;"/><path d="M131.978,138.252c17.562,-6.392 33.508,-6.942 35.587,-1.229c2.08,5.714 -10.489,15.542 -28.051,21.934c-17.561,6.391 -33.507,6.942 -35.586,1.228c-2.08,-5.713 10.489,-15.541 28.05,-21.933Z" style="fill:#606060;"/><g><path d="M110.504,81.011c1.462,-0.532 2.856,-0.397 3.11,0.302c0.255,0.699 -0.726,1.698 -2.188,2.23c-1.462,0.533 -2.856,0.397 -3.11,-0.301c-0.255,-0.699 0.726,-1.698 2.188,-2.231Z" style="fill:#d7d7d7;"/><path d="M108.757,76.211c1.462,-0.532 2.856,-0.397 3.11,0.302c0.254,0.698 -0.726,1.698 -2.188,2.23c-1.463,0.532 -2.856,0.397 -3.111,-0.302c-0.254,-0.698 0.727,-1.698 2.189,-2.23Z" style="fill:#d7d7d7;"/><path d="M107.164,71.835l3.937,4.956l-3.767,1.372l-0.17,-6.328Z" style="fill:#d7d7d7;"/><path d="M111.867,76.513l-5.299,1.928l1.748,4.801l5.298,-1.929l-1.747,-4.8Z" style="fill:#d7d7d7;"/></g></g><g><g><clipPath id="_clip3"><path d="M99.093,150.376c0,0 -8.084,-22.212 -8.084,-22.212c2.152,5.914 18.658,5.344 36.835,-1.272c18.177,-6.616 31.187,-16.789 29.034,-22.703l8.085,22.213c2.152,5.913 -10.858,16.086 -29.035,22.702c-18.177,6.616 -34.682,7.186 -36.835,1.272Z"/></clipPath><g clip-path="url(#_clip3)"><path d="M144.509,70.206l-22.556,8.21l24.588,67.556l22.557,-8.21l-24.589,-67.556Z" style="fill:#c6c6c6;"/></g></g><g><clipPath id="_clip4"><path d="M82.824,105.677c0,0 -3.274,-8.996 -3.274,-8.996c2.153,5.914 18.658,5.344 36.835,-1.272c18.177,-6.616 31.187,-16.788 29.035,-22.702l3.274,8.995c2.152,5.914 -10.858,16.087 -29.035,22.703c-18.177,6.616 -34.682,7.186 -36.835,1.272Z"/></clipPath><g clip-path="url(#_clip4)"><path d="M139.449,72.047l-35.536,12.935l24.588,67.556l35.537,-12.935l-24.589,-67.556Z" style="fill:#2f2f2f;"/></g></g><g><clipPath id="_clip5"><path d="M93.256,134.339c0,-0 -8.14,-22.365 -8.14,-22.365c2.153,5.914 18.658,5.344 36.835,-1.272c18.177,-6.616 31.187,-16.788 29.035,-22.702l8.14,22.364c2.152,5.914 -10.858,16.087 -29.035,22.703c-18.177,6.616 -34.682,7.186 -36.835,1.272Z"/></clipPath><g clip-path="url(#_clip5)"><path d="M108.36,83.363l-29.72,10.817l24.588,67.556l29.72,-10.817l-24.588,-67.556Z" style="fill:#bfae2d;"/></g></g></g></g></g></g></svg>