<?xml version="1.0" encoding="UTF-8" standalone="no"?>
<!DOCTYPE svg PUBLIC "-//W3C//DTD SVG 1.1//EN" "http://www.w3.org/Graphics/SVG/1.1/DTD/svg11.dtd">
<svg version="1.1" xmlns="http://www.w3.org/2000/svg" xmlns:xlink="http://www.w3.org/1999/xlink" preserveAspectRatio="xMidYMid meet" viewBox="0 0 640 640" width="64" height="64"><defs><path d="M81.98 61.65C60 61.65 42.31 78.89 42.31 100.31C42.31 146.7 42.31 517.83 42.31 564.22C42.31 585.63 60 602.88 81.98 602.88C129.58 602.88 510.42 602.88 558.02 602.88C580 602.88 597.69 585.63 597.69 564.22C597.69 517.83 597.69 146.7 597.69 100.31C597.69 78.89 580 61.65 558.02 61.65C462.81 61.65 177.19 61.65 81.98 61.65Z" id="eLWs86p2J"></path><path d="M466.01 144.5C471.07 144.5 473.61 146.77 473.61 151.31C473.61 368.45 473.61 489.09 473.61 513.21C473.61 517.75 471.07 520.02 466.01 520.02C459.37 520.02 455.69 520.02 454.95 520.02C449.89 520.02 447.35 517.75 447.35 513.21C447.35 296.07 447.35 175.44 447.35 151.31C447.35 146.77 449.89 144.5 454.95 144.5C461.58 144.5 465.27 144.5 466.01 144.5Z" id="aKZsL1Y5f"></path><path d="M334.97 456.81C325.19 459.34 312.15 462.05 295.85 464.93C279.91 467.82 261.07 469.26 239.34 469.26C220.14 469.26 204.2 466.56 191.52 461.14C178.85 455.37 168.52 447.43 160.55 437.33C152.58 426.86 146.97 414.59 143.71 400.51C140.45 386.44 138.82 370.92 138.82 353.96C138.82 344.54 138.82 297.44 138.82 212.67L183.37 212.67C183.37 291.6 183.37 335.44 183.37 344.21C183.37 375.25 187.9 397.27 196.96 410.26C206.38 423.25 221.95 429.75 243.69 429.75C248.39 429.75 253.1 429.57 257.81 429.21C262.88 428.84 267.59 428.48 271.94 428.12C276.29 427.4 280.09 426.86 283.35 426.5C286.61 425.78 288.78 425.24 289.87 424.87C289.87 410.73 289.87 339.99 289.87 212.67L334.97 212.67L334.97 456.81" id="a9DLyQP8y"></path></defs><g><g><g><use xlink:href="#eLWs86p2J" opacity="1" fill="#cecece" fill-opacity="1"></use><g><use xlink:href="#eLWs86p2J" opacity="1" fill-opacity="0" stroke="#000000" stroke-width="0" stroke-opacity="0"></use></g></g><g><use xlink:href="#aKZsL1Y5f" opacity="1" fill="#746b6b" fill-opacity="1"></use><g><use xlink:href="#aKZsL1Y5f" opacity="1" fill-opacity="0" stroke="#000000" stroke-width="0" stroke-opacity="0"></use></g></g><g><use xlink:href="#a9DLyQP8y" opacity="1" fill="#e49967" fill-opacity="1"></use><g><use xlink:href="#a9DLyQP8y" opacity="1" fill-opacity="0" stroke="#000000" stroke-width="0" stroke-opacity="0"></use></g></g></g></g></svg>