<?xml version="1.0" encoding="UTF-8" standalone="no"?>
<!DOCTYPE svg PUBLIC "-//W3C//DTD SVG 1.1//EN" "http://www.w3.org/Graphics/SVG/1.1/DTD/svg11.dtd">
<svg version="1.1" xmlns="http://www.w3.org/2000/svg" xmlns:xlink="http://www.w3.org/1999/xlink" preserveAspectRatio="xMidYMid meet" viewBox="0 0 640 640" width="64" height="64"><defs><path d="M49.35 48.78C312.97 48.78 477.74 48.78 543.65 48.78C560.8 48.78 574.71 62.68 574.71 79.84C574.71 178.47 574.71 444.53 574.71 543.47C574.71 559.78 561.49 573 545.18 573C479.37 573 314.85 573 51.62 573L49.35 48.78Z" id="a1nMxKIovk"></path><path d="M77.96 100.17L535.85 100.17L535.85 105.86L77.96 105.86L77.96 100.17Z" id="bEwRimCp6"></path><path d="M77.96 191.42L535.85 191.42L535.85 197.12L77.96 197.12L77.96 191.42Z" id="iZRS7wqv"></path><path d="M77.96 280.4L535.85 280.4L535.85 286.1L77.96 286.1L77.96 280.4Z" id="aBPTfwx06"></path><path d="M77.96 368.48L535.85 368.48L535.85 374.17L77.96 374.17L77.96 368.48Z" id="a1n3lITV1v"></path><path d="M77.96 458.59L535.85 458.59L535.85 464.29L77.96 464.29L77.96 458.59Z" id="b2u4sVjuX"></path><path d="M111.3 73.79L113.1 533.96L107.4 533.98L105.59 73.82L111.3 73.79Z" id="e67hVRyBYM"></path><path d="M602.04 422.91C602.04 526.75 517.52 611.06 413.4 611.06C309.29 611.06 224.76 526.75 224.76 422.91C224.76 319.08 309.29 234.77 413.4 234.77C517.52 234.77 602.04 319.08 602.04 422.91Z" id="iPYwDgaJV"></path><path d="M350.5 439.22C350.5 447.83 352.23 455.89 355.69 463.39C359.14 470.9 363.96 477.5 370.12 483.21C376.28 488.91 383.42 493.36 391.52 496.57C399.63 499.77 408.33 501.37 417.63 501.37C426.93 501.37 435.69 499.77 443.9 496.57C452.12 493.36 459.31 488.91 465.47 483.21C471.63 477.5 476.5 470.9 480.07 463.39C483.63 455.89 485.42 447.83 485.42 439.22C485.42 439.22 485.42 439.22 485.42 439.22L485.42 424.81L495.8 424.81C495.8 433.46 495.8 438.26 495.8 439.22C495.8 448.43 494.01 457.09 490.44 465.19C486.88 473.3 482.01 480.5 475.85 486.81C469.69 493.11 462.44 498.32 454.12 502.42C445.79 506.52 436.88 509.08 427.36 510.08C427.36 510.08 427.36 510.08 427.36 510.08C427.36 527.37 427.36 536.98 427.36 538.9C442.93 539.7 456.01 542.1 466.61 546.11C477.2 550.11 482.5 554.31 482.5 558.71C482.5 558.92 475.85 559.02 462.55 559.02C462.55 559.02 462.55 559.02 462.55 559.02C410.01 559.02 380.82 559.02 374.98 559.02C361.69 559.02 355.04 558.92 355.04 558.71C355.04 554.51 359.96 550.46 369.79 546.56C379.63 542.65 391.9 540.1 406.6 538.9C406.6 538.9 406.6 538.9 406.6 538.9C406.6 521.61 406.6 512 406.6 510.08C397.31 508.88 388.6 506.17 380.5 501.97C372.39 497.77 365.36 492.56 359.41 486.36C353.47 480.15 348.77 473 345.31 464.89C341.85 456.79 340.12 448.23 340.12 439.22C340.12 439.22 340.12 439.22 340.12 439.22L340.12 424.81L350.5 424.81C350.5 433.46 350.5 438.26 350.5 439.22ZM475.04 438.62C475.04 453.23 469.42 465.64 458.17 475.85C446.93 486.06 433.42 491.16 417.63 491.16C401.85 491.16 388.44 486.06 377.42 475.85C366.39 465.64 360.87 453.23 360.87 438.62C360.87 438.62 360.87 438.62 360.87 438.62L360.87 424.81L475.04 424.81C475.04 433.1 475.04 437.7 475.04 438.62ZM458.17 295.86C469.12 305.9 474.74 317.88 475.03 331.81C475.03 331.88 475.03 332.26 475.04 332.94L475.04 376.48L433.52 376.48L433.52 386.08L475.04 386.08L475.04 395.69L433.52 395.69L433.52 405.3L475.04 405.3L475.04 415.51L360.87 415.51L360.87 405.3L402.39 405.3L402.39 395.69L360.87 395.69L360.87 386.08L402.39 386.08L402.39 376.48L360.87 376.48C360.87 350.36 360.87 335.84 360.87 332.94C360.87 318.53 366.39 306.17 377.42 295.86C388.44 285.56 401.85 280.4 417.63 280.4C433.42 280.4 446.93 285.56 458.17 295.86ZM462.07 364.47L462.07 369.27L467.25 369.27L467.25 364.47L462.07 364.47ZM451.69 364.47L451.69 369.27L456.88 369.27L456.88 364.47L451.69 364.47ZM441.31 364.47L441.31 369.27L446.5 369.27L446.5 364.47L441.31 364.47ZM430.93 364.47L430.93 369.27L436.12 369.27L436.12 364.47L430.93 364.47ZM420.55 364.47L420.55 369.27L425.74 369.27L425.74 364.47L420.55 364.47ZM410.17 364.47L410.17 369.27L415.36 369.27L415.36 364.47L410.17 364.47ZM399.79 364.47L399.79 369.27L404.98 369.27L404.98 364.47L399.79 364.47ZM389.42 364.47L389.42 369.27L394.6 369.27L394.6 364.47L389.42 364.47ZM379.04 364.47L379.04 369.27L384.23 369.27L384.23 364.47L379.04 364.47ZM368.66 364.47L368.66 369.27L373.85 369.27L373.85 364.47L368.66 364.47ZM462.07 354.86L462.07 359.66L467.25 359.66L467.25 354.86L462.07 354.86ZM451.69 354.86L451.69 359.66L456.88 359.66L456.88 354.86L451.69 354.86ZM441.31 354.86L441.31 359.66L446.5 359.66L446.5 354.86L441.31 354.86ZM430.93 354.86L430.93 359.66L436.12 359.66L436.12 354.86L430.93 354.86ZM420.55 354.86L420.55 359.66L425.74 359.66L425.74 354.86L420.55 354.86ZM410.17 354.86L410.17 359.66L415.36 359.66L415.36 354.86L410.17 354.86ZM399.79 354.86L399.79 359.66L404.98 359.66L404.98 354.86L399.79 354.86ZM389.42 354.86L389.42 359.66L394.6 359.66L394.6 354.86L389.42 354.86ZM379.04 354.86L379.04 359.66L384.23 359.66L384.23 354.86L379.04 354.86ZM368.66 354.86L368.66 359.66L373.85 359.66L373.85 354.86L368.66 354.86ZM462.07 345.25L462.07 350.06L467.25 350.06L467.25 345.25L462.07 345.25ZM451.69 345.25L451.69 350.06L456.88 350.06L456.88 345.25L451.69 345.25ZM441.31 345.25L441.31 350.06L446.5 350.06L446.5 345.25L441.31 345.25ZM430.93 345.25L430.93 350.06L436.12 350.06L436.12 345.25L430.93 345.25ZM420.55 345.25L420.55 350.06L425.74 350.06L425.74 345.25L420.55 345.25ZM410.17 345.25L410.17 350.06L415.36 350.06L415.36 345.25L410.17 345.25ZM399.79 345.25L399.79 350.06L404.98 350.06L404.98 345.25L399.79 345.25ZM389.42 345.25L389.42 350.06L394.6 350.06L394.6 345.25L389.42 345.25ZM379.04 345.25L379.04 350.06L384.23 350.06L384.23 345.25L379.04 345.25ZM368.66 345.25L368.66 350.06L373.85 350.06L373.85 345.25L368.66 345.25ZM462.07 335.64L462.07 340.45L467.25 340.45L467.25 335.64L462.07 335.64ZM451.69 335.64L451.69 340.45L456.88 340.45L456.88 335.64L451.69 335.64ZM441.31 335.64L441.31 340.45L446.5 340.45L446.5 335.64L441.31 335.64ZM430.93 335.64L430.93 340.45L436.12 340.45L436.12 335.64L430.93 335.64ZM420.55 335.64L420.55 340.45L425.74 340.45L425.74 335.64L420.55 335.64ZM410.17 335.64L410.17 340.45L415.36 340.45L415.36 335.64L410.17 335.64ZM399.79 335.64L399.79 340.45L404.98 340.45L404.98 335.64L399.79 335.64ZM389.42 335.64L389.42 340.45L394.6 340.45L394.6 335.64L389.42 335.64ZM379.04 335.64L379.04 340.45L384.23 340.45L384.23 335.64L379.04 335.64ZM368.66 335.64L368.66 340.45L373.85 340.45L373.85 335.64L368.66 335.64ZM462.07 326.04L462.07 330.84L467.25 330.84L467.25 326.04L462.07 326.04ZM451.69 326.04L451.69 330.84L456.88 330.84L456.88 326.04L451.69 326.04ZM441.31 326.04L441.31 330.84L446.5 330.84L446.5 326.04L441.31 326.04ZM430.93 326.04L430.93 330.84L436.12 330.84L436.12 326.04L430.93 326.04ZM420.55 326.04L420.55 330.84L425.74 330.84L425.74 326.04L420.55 326.04ZM410.17 326.04L410.17 330.84L415.36 330.84L415.36 326.04L410.17 326.04ZM399.79 326.04L399.79 330.84L404.98 330.84L404.98 326.04L399.79 326.04ZM389.42 326.04L389.42 330.84L394.6 330.84L394.6 326.04L389.42 326.04ZM379.04 326.04L379.04 330.84L384.23 330.84L384.23 326.04L379.04 326.04ZM368.66 326.04L368.66 330.84L373.85 330.84L373.85 326.04L368.66 326.04ZM462.07 316.43L462.07 321.23L467.25 321.23L467.25 316.43L462.07 316.43ZM451.69 316.43L451.69 321.23L456.88 321.23L456.88 316.43L451.69 316.43ZM441.31 316.43L441.31 321.23L446.5 321.23L446.5 316.43L441.31 316.43ZM430.93 316.43L430.93 321.23L436.12 321.23L436.12 316.43L430.93 316.43ZM420.55 316.43L420.55 321.23L425.74 321.23L425.74 316.43L420.55 316.43ZM410.17 316.43L410.17 321.23L415.36 321.23L415.36 316.43L410.17 316.43ZM399.79 316.43L399.79 321.23L404.98 321.23L404.98 316.43L399.79 316.43ZM389.42 316.43L389.42 321.23L394.6 321.23L394.6 316.43L389.42 316.43ZM379.04 316.43L379.04 321.23L384.23 321.23L384.23 316.43L379.04 316.43ZM368.66 316.43L368.66 321.23L373.85 321.23L373.85 316.43L368.66 316.43ZM456.88 306.82L456.88 311.63L462.07 311.63L462.07 306.82L456.88 306.82ZM446.5 306.82L446.5 311.63L451.69 311.63L451.69 306.82L446.5 306.82ZM436.12 306.82L436.12 311.63L441.31 311.63L441.31 306.82L436.12 306.82ZM425.74 306.82L425.74 311.63L430.93 311.63L430.93 306.82L425.74 306.82ZM415.36 306.82L415.36 311.63L420.55 311.63L420.55 306.82L415.36 306.82ZM404.98 306.82L404.98 311.63L410.17 311.63L410.17 306.82L404.98 306.82ZM394.6 306.82L394.6 311.63L399.79 311.63L399.79 306.82L394.6 306.82ZM384.23 306.82L384.23 311.63L389.42 311.63L389.42 306.82L384.23 306.82ZM373.85 306.82L373.85 311.63L379.04 311.63L379.04 306.82L373.85 306.82ZM451.69 297.21L451.69 302.02L456.88 302.02L456.88 297.21L451.69 297.21ZM441.31 297.21L441.31 302.02L446.5 302.02L446.5 297.21L441.31 297.21ZM430.93 297.21L430.93 302.02L436.12 302.02L436.12 297.21L430.93 297.21ZM420.55 297.21L420.55 302.02L425.74 302.02L425.74 297.21L420.55 297.21ZM410.17 297.21L410.17 302.02L415.36 302.02L415.36 297.21L410.17 297.21ZM399.79 297.21L399.79 302.02L404.98 302.02L404.98 297.21L399.79 297.21ZM389.42 297.21L389.42 302.02L394.6 302.02L394.6 297.21L389.42 297.21ZM379.04 297.21L379.04 302.02L384.23 302.02L384.23 297.21L379.04 297.21ZM441.31 287.61L441.31 292.41L446.5 292.41L446.5 287.61L441.31 287.61ZM430.93 287.61L430.93 292.41L436.12 292.41L436.12 287.61L430.93 287.61ZM420.55 287.61L420.55 292.41L425.74 292.41L425.74 287.61L420.55 287.61ZM410.17 287.61L410.17 292.41L415.36 292.41L415.36 287.61L410.17 287.61ZM399.79 287.61L399.79 292.41L404.98 292.41L404.98 287.61L399.79 287.61ZM389.42 287.61L389.42 292.41L394.6 292.41L394.6 287.61L389.42 287.61Z" id="aGIl1QolK"></path></defs><g><g><g><use xlink:href="#a1nMxKIovk" opacity="1" fill="#ababab" fill-opacity="1"></use></g><g><use xlink:href="#bEwRimCp6" opacity="1" fill="#ece7e6" fill-opacity="1"></use></g><g><use xlink:href="#iZRS7wqv" opacity="1" fill="#ece7e6" fill-opacity="1"></use></g><g><use xlink:href="#aBPTfwx06" opacity="1" fill="#ece7e6" fill-opacity="1"></use></g><g><use xlink:href="#a1n3lITV1v" opacity="1" fill="#ece7e6" fill-opacity="1"></use></g><g><use xlink:href="#b2u4sVjuX" opacity="1" fill="#ece7e6" fill-opacity="1"></use></g><g><use xlink:href="#e67hVRyBYM" opacity="1" fill="#ece7e6" fill-opacity="1"></use></g><g><use xlink:href="#iPYwDgaJV" opacity="1" fill="#b15050" fill-opacity="1"></use></g><g><use xlink:href="#aGIl1QolK" opacity="1" fill="#ece7e6" fill-opacity="1"></use><g><use xlink:href="#aGIl1QolK" opacity="1" fill-opacity="0" stroke="#000000" stroke-width="1" stroke-opacity="0"></use></g></g></g></g></svg>