<?xml version="1.0" encoding="UTF-8" standalone="no"?><!DOCTYPE svg PUBLIC "-//W3C//DTD SVG 1.1//EN" "http://www.w3.org/Graphics/SVG/1.1/DTD/svg11.dtd"><svg width="100%" height="100%" viewBox="0 0 427 427" version="1.1" xmlns="http://www.w3.org/2000/svg" xmlns:xlink="http://www.w3.org/1999/xlink" xml:space="preserve" xmlns:serif="http://www.serif.com/" style="fill-rule:evenodd;clip-rule:evenodd;stroke-linecap:round;stroke-linejoin:round;stroke-miterlimit:1.5;"><rect id="densify" x="0.747" y="0" width="426.667" height="426.667" style="fill:none;"/><path d="M407.618,70.16c0,-27.797 -22.567,-50.364 -50.364,-50.364l-286.347,-0c-27.796,-0 -50.364,22.567 -50.364,50.364l0,286.347c0,27.796 22.568,50.364 50.364,50.364l286.347,-0c27.797,-0 50.364,-22.568 50.364,-50.364l0,-286.347Z" style="fill:#b69e9e;"/><g><g><path d="M72.94,81.761c0,-2.652 1.054,-5.196 2.929,-7.071c1.876,-1.876 4.419,-2.929 7.071,-2.929c41.454,-0 199.561,-0 241.015,-0c2.652,-0 5.195,1.053 7.071,2.929c1.875,1.875 2.929,4.419 2.929,7.071c-0,9.782 -0,24.597 -0,34.38c-0,5.522 -4.477,10 -10,10c-34.985,-0 -151.65,-0 -186.635,-0c-5.523,-0 -10,4.477 -10,10c0,30.743 0,123.642 0,154.385c0,5.523 4.477,10 10,10c34.985,0 151.65,0 186.635,0c5.523,0 10,4.477 10,10c-0,9.782 -0,24.598 -0,34.38c-0,2.652 -1.054,5.196 -2.929,7.071c-1.876,1.875 -4.419,2.929 -7.071,2.929c-41.454,-0 -199.561,-0 -241.015,-0c-2.652,-0 -5.195,-1.054 -7.071,-2.929c-1.875,-1.875 -2.929,-4.419 -2.929,-7.071c0,-43.893 0,-219.252 0,-263.145Z" style="fill:#3d3d3d;"/><path d="M346.192,379.278c13.458,0 24.367,-10.909 24.367,-24.367c-0,-0.003 -0,-0.007 -0,-0.01c-0,-13.458 -10.909,-24.367 -24.367,-24.367c-38.237,-0 -111.906,-0 -150.144,-0c-13.457,-0 -24.366,10.909 -24.366,24.367c-0,0.003 -0,0.007 -0,0.01c-0,13.458 10.909,24.367 24.366,24.367c38.238,0 111.907,0 150.144,0Zm0,-283.145c13.458,-0 24.367,-10.91 24.367,-24.367c-0,-0.003 -0,-0.007 -0,-0.011c-0,-13.457 -10.909,-24.366 -24.367,-24.366c-38.237,-0 -111.906,-0 -150.144,-0c-13.457,-0 -24.366,10.909 -24.366,24.366c-0,0.004 -0,0.008 -0,0.011c-0,13.457 10.909,24.367 24.366,24.367c38.238,-0 111.907,-0 150.144,-0Z" style="fill:#646464;"/><path d="M144.962,268.492c4.04,0 7.315,-3.275 7.315,-7.314c-0,-0.377 -0,-0.755 -0,-1.131c-0,-4.04 -3.275,-7.315 -7.315,-7.315c-19.137,0 -70.526,0 -89.664,0c-4.039,0 -7.314,3.275 -7.314,7.315c-0,0.376 -0,0.754 -0,1.131c-0,4.039 3.275,7.314 7.314,7.314c19.138,0 70.527,0 89.664,0Zm0,-31.519c4.04,-0 7.315,-3.275 7.315,-7.315c-0,-0.376 -0,-0.754 -0,-1.13c-0,-4.04 -3.275,-7.315 -7.315,-7.315c-19.137,0 -70.526,0 -89.664,0c-4.039,0 -7.314,3.275 -7.314,7.315c-0,0.376 -0,0.754 -0,1.13c-0,4.04 3.275,7.315 7.314,7.315c19.138,-0 70.527,-0 89.664,-0Zm0,-31.519c4.04,-0.001 7.315,-3.275 7.315,-7.315c-0,-0.376 -0,-0.754 -0,-1.131c-0,-4.039 -3.275,-7.314 -7.315,-7.314c-19.137,-0 -70.526,-0 -89.664,-0c-4.039,-0 -7.314,3.275 -7.314,7.314c-0,0.377 -0,0.755 -0,1.131c-0,4.04 3.275,7.314 7.314,7.315c19.138,-0 70.527,-0 89.664,-0Zm0,-31.52c4.04,0 7.315,-3.275 7.315,-7.314c-0,-0.377 -0,-0.755 -0,-1.131c-0,-4.04 -3.275,-7.314 -7.315,-7.314c-19.137,-0 -70.526,-0 -89.664,-0c-4.039,-0 -7.314,3.274 -7.314,7.314c-0,0.376 -0,0.754 -0,1.131c-0,4.039 3.275,7.314 7.314,7.314c19.138,0 70.527,0 89.664,0Z" style="fill:#646464;"/></g><g><path d="M333.955,174.951l-41.25,-41.25l-84.419,0l-0,159.264l125.669,0l-0,-118.014Z" style="fill:#3d3d3d;"/><clipPath id="_clip1"><path d="M333.955,174.951l-41.25,-41.25l-84.419,0l-0,159.264l125.669,0l-0,-118.014Z"/></clipPath><g clip-path="url(#_clip1)"><path d="M271.12,200.84l3.155,43.792l31.186,25.058l-34.341,-18.733l-34.34,18.733l31.185,-25.058l3.155,-43.792Z" style="fill:#b69e9e;"/></g><g><rect x="171.682" y="144.52" width="116.363" height="48.744" style="fill:#c06464;"/><g><path d="M193.256,169.692c22.962,5.787 22.962,-21.605 -0,-15.819l-0,30.577" style="fill:none;stroke:#e1caca;stroke-width:7.5px;"/><path d="M266.471,154.142l-15.101,-0l-0,30.577m-0,-15.289l11.128,0" style="fill:none;stroke:#e1caca;stroke-width:7.5px;"/><path d="M221.46,184.45c25.236,3.819 25.236,-34.396 0,-30.577l0,30.577Z" style="fill:none;stroke:#e1caca;stroke-width:7.5px;"/></g></g></g></g></svg>