<?xml version="1.0" encoding="UTF-8" standalone="no"?>
<!DOCTYPE svg PUBLIC "-//W3C//DTD SVG 1.1//EN" "http://www.w3.org/Graphics/SVG/1.1/DTD/svg11.dtd">
<svg version="1.1" xmlns="http://www.w3.org/2000/svg" xmlns:xlink="http://www.w3.org/1999/xlink" preserveAspectRatio="xMidYMid meet" viewBox="0 0 640 640" width="64" height="64"><defs><path d="M47.83 38.05L598.25 38.05L598.25 596.44L47.83 596.44L47.83 38.05Z" id="b1kkenPWnl"></path><path d="M59.22 45.36L586.86 45.36L586.86 596.92L59.22 596.92L59.22 45.36Z" id="d3NSioU8BU"></path><path d="M275.04 106.26C303.28 67.55 359.76 67.55 359.76 67.55C359.76 67.55 362.7 73.05 359.76 80.45C384.3 70.38 416.24 80.45 416.24 80.45C416.24 80.45 411.77 89.06 402.12 93.36C426.45 101.47 444.48 119.16 444.48 119.16C444.48 119.16 440.01 126.97 430.36 132.07C454.47 134.14 472.72 157.87 472.72 157.87C472.72 157.87 466.33 167.9 458.6 170.77C478.68 178.68 486.84 181.37 486.84 196.58C486.84 211.79 444.48 235.29 444.48 235.29C444.48 235.29 419.77 177.2 402.12 157.87C384.47 138.54 367.35 128.03 345.64 119.16C323.94 110.3 275.04 106.26 275.04 106.26" id="ccQJ3PgK4"></path><path d="M359.76 132.07C359.76 132.07 359.76 209.48 317.4 235.29C275.04 261.09 190.32 274 133.84 299.8C77.36 325.61 63.24 364.32 63.24 364.32C63.24 364.32 119.72 338.51 147.96 338.51C176.2 338.51 218.56 351.41 218.56 351.41C218.56 351.41 246.8 325.61 289.16 325.61C331.52 325.61 373.88 338.51 373.88 338.51C374.82 329.05 379.53 281.74 388 196.58C372.94 162.17 363.53 140.67 359.76 132.07Z" id="cCZsh1MgU"></path><path d="M375.27 170.77C375.27 170.77 377.92 215.93 335.55 241.74C293.19 267.55 184.17 283.53 130.81 310.29C91.75 329.87 64.61 364.33 64.61 364.33C64.61 364.33 121.09 338.52 149.33 338.52C177.57 338.52 219.93 351.43 219.93 351.43C219.93 351.43 248.17 325.62 290.53 325.62C332.89 325.62 375.25 338.52 375.25 338.52C376.19 329.06 380.9 281.75 389.37 196.59C381.85 182.82 377.15 174.22 375.27 170.77Z" id="b1dWjEoV0i"></path><path d="M331.52 88.53C317.4 90.22 317.4 107.14 317.4 107.14C321.64 115.27 355.53 180.26 359.76 188.38C388 242.54 373.88 364.41 275.04 418.57C275.04 418.57 281.78 421.73 292.5 425.67C249.02 459.84 184.42 499.81 119.72 499.81C144.76 499.81 345.09 499.81 370.13 499.81C387.98 481.96 403.28 461.96 416.65 442.15C417.46 436.68 420.21 424.48 430.36 405.03C444.48 377.95 458.6 323.79 458.6 323.79C458.6 323.79 472.72 323.79 486.84 337.33C498.63 348.63 443.98 413.66 424.81 435.76C436.66 432 448.13 426.61 458.6 418.57C529.2 364.41 490.43 226.11 430.36 161.3C373.88 100.37 345.64 86.83 331.52 88.53" id="gu0Gdxe1l"></path><path d="M352.87 394.39C325.4 426.44 326.86 430.15 288.31 457.19C288.1 457.34 287.86 457.48 287.65 457.63C291.58 461.25 323.01 490.2 326.94 493.82C468.57 383.19 352.85 394.39 352.85 394.39M276 465.47C260.01 476.08 242.34 486.51 223.34 495.49C229.03 495.49 257.46 495.49 308.63 495.49C291.23 479.48 280.35 469.48 276 465.47Z" id="e3P4CJdcaP"></path><path d="M54.66 495.49L54.66 596.92L592.55 596.92L592.55 495.49L54.66 495.49Z" id="dDX44HJmj"></path><path d="M97.12 520.4L97.12 572.01L167.72 572.01L167.72 520.4L97.12 520.4ZM181.84 520.4L181.84 572.01L266.56 572.01L266.56 520.4L181.84 520.4ZM280.68 520.4L280.68 572.01L365.4 572.01L365.4 520.4L280.68 520.4ZM379.52 520.4L379.52 572.01L464.24 572.01L464.24 520.4L379.52 520.4ZM478.36 520.4L478.36 572.01L548.96 572.01L548.96 520.4L478.36 520.4Z" id="aHBubJO8A"></path><path d="M529.2 106.26C515.08 106.26 515.08 144.97 472.72 183.68C430.36 222.39 416.24 222.39 416.24 222.39C416.24 222.39 458.6 248.19 458.6 299.8C500.96 325.61 500.96 377.22 500.96 377.22C504.73 367.76 523.56 320.45 557.44 235.29L543.32 132.07C535.79 118.3 531.09 109.7 529.2 106.26Z" id="a7vK1zcEj"></path><path d="M529.2 106.26C543.32 106.26 585.68 183.68 571.56 299.8C557.44 415.93 486.84 441.73 486.84 441.73C486.84 441.73 388 428.83 359.76 428.83C331.52 428.83 317.4 441.73 317.4 441.73C317.4 441.73 275.04 415.93 218.56 415.93C162.08 415.93 91.48 467.54 91.48 467.54C91.48 467.54 105.6 415.93 190.32 390.12C275.04 364.32 413.41 388.07 458.6 338.51C599.8 183.68 515.08 106.26 529.2 106.26" id="crd8cTMdY"></path><path d="M317.4 157.87C287.45 166.99 246.8 157.87 232.68 170.77C231.27 172.07 219.97 182.39 218.56 183.68C218.56 183.68 204.44 157.87 218.56 144.97C232.68 132.07 260.92 132.07 275.04 106.26C289.16 80.45 331.52 80.45 345.64 93.36C373.88 119.16 359.76 144.97 317.4 157.87" id="a3es9hHIh"></path><path d="M334.21 241.74C291.85 267.55 182.83 283.53 129.47 310.29C90.41 329.87 63.27 364.33 63.27 364.33C63.27 364.33 119.75 338.52 147.99 338.52C176.23 338.52 218.59 351.43 218.59 351.43C218.59 351.43 376.57 215.95 334.21 241.75" id="bCdbLu8UM"></path></defs><g><g><g><use xlink:href="#b1kkenPWnl" opacity="1" fill="#444951" fill-opacity="1"></use></g><g><use xlink:href="#d3NSioU8BU" opacity="1" fill="#c7c7c9" fill-opacity="1"></use></g><g><use xlink:href="#ccQJ3PgK4" opacity="1" fill="#5b7498" fill-opacity="1"></use><g><use xlink:href="#ccQJ3PgK4" opacity="1" fill-opacity="0" stroke="#000000" stroke-width="0" stroke-opacity="0"></use></g></g><g><use xlink:href="#cCZsh1MgU" opacity="1" fill="#5b7498" fill-opacity="1"></use><g><use xlink:href="#cCZsh1MgU" opacity="1" fill-opacity="0" stroke="#000000" stroke-width="0" stroke-opacity="0"></use></g></g><g><use xlink:href="#b1dWjEoV0i" opacity="1" fill="#2e2e2f" fill-opacity="1"></use><g><use xlink:href="#b1dWjEoV0i" opacity="1" fill-opacity="0" stroke="#000000" stroke-width="0" stroke-opacity="0"></use></g></g><g><use xlink:href="#gu0Gdxe1l" opacity="1" fill="#414344" fill-opacity="1"></use><g><use xlink:href="#gu0Gdxe1l" opacity="1" fill-opacity="0" stroke="#000000" stroke-width="0" stroke-opacity="0"></use></g></g><g><use xlink:href="#e3P4CJdcaP" opacity="1" fill="#4785ae" fill-opacity="1"></use><g><use xlink:href="#e3P4CJdcaP" opacity="1" fill-opacity="0" stroke="#000000" stroke-width="1" stroke-opacity="0"></use></g></g><g><use xlink:href="#dDX44HJmj" opacity="1" fill="#444951" fill-opacity="1"></use><g><use xlink:href="#dDX44HJmj" opacity="1" fill-opacity="0" stroke="#000000" stroke-width="0" stroke-opacity="0"></use></g></g><g><use xlink:href="#aHBubJO8A" opacity="1" fill="#4785ae" fill-opacity="1"></use><g><use xlink:href="#aHBubJO8A" opacity="1" fill-opacity="0" stroke="#000000" stroke-width="0" stroke-opacity="0"></use></g></g><g><use xlink:href="#a7vK1zcEj" opacity="1" fill="#2e2e2f" fill-opacity="1"></use><g><use xlink:href="#a7vK1zcEj" opacity="1" fill-opacity="0" stroke="#000000" stroke-width="0" stroke-opacity="0"></use></g></g><g><use xlink:href="#crd8cTMdY" opacity="1" fill="#5b7498" fill-opacity="1"></use><g><use xlink:href="#crd8cTMdY" opacity="1" fill-opacity="0" stroke="#000000" stroke-width="0" stroke-opacity="0"></use></g></g><g><use xlink:href="#a3es9hHIh" opacity="1" fill="#3d3c3e" fill-opacity="1"></use><g><use xlink:href="#a3es9hHIh" opacity="1" fill-opacity="0" stroke="#000000" stroke-width="0" stroke-opacity="0"></use></g></g><g><use xlink:href="#bCdbLu8UM" opacity="1" fill="#414344" fill-opacity="1"></use><g><use xlink:href="#bCdbLu8UM" opacity="1" fill-opacity="0" stroke="#000000" stroke-width="0" stroke-opacity="0"></use></g></g></g></g></svg>