<?xml version="1.0" encoding="UTF-8" standalone="no"?><!DOCTYPE svg PUBLIC "-//W3C//DTD SVG 1.1//EN" "http://www.w3.org/Graphics/SVG/1.1/DTD/svg11.dtd"><svg width="100%" height="100%" viewBox="0 0 1024 1024" version="1.1" xmlns="http://www.w3.org/2000/svg" xmlns:xlink="http://www.w3.org/1999/xlink" xml:space="preserve" xmlns:serif="http://www.serif.com/" style="fill-rule:evenodd;clip-rule:evenodd;stroke-linejoin:round;stroke-miterlimit:2;"><g id="Layer1"><circle cx="512" cy="512" r="463.332" style="fill:#bde4ff;"/><circle cx="512" cy="512" r="290.259" style="fill:#769ec5;"/><path d="M476.136,246.279c-4.14,6.437 7.65,20.508 8.208,29.294c0.525,8.274 1.044,5.079 -5.079,27.516c-1.484,5.439 -0.147,7.558 0.467,10.903c1.265,6.901 8.2,7.895 14.093,6.243c8.692,-2.437 9.336,-9.556 20.848,-17.982c15.882,-11.626 15.704,-13.458 19.366,-23.788c3.909,-11.028 0.554,-23.552 -3.549,-27.136c-17.156,-14.985 -24.712,-7.531 -34.198,-8.63c-11.302,-1.308 -16.303,-2.409 -20.156,3.58Z" style="fill:#bde4ff;fill-opacity:0.9;"/><path d="M398.181,248.593c0,0 13.751,10.806 42.828,3.388c7.301,-1.862 19.813,4.345 26.133,15.324c5.748,9.986 7.239,22.678 0,27.881c-6.625,4.761 -12.983,4.708 -25.096,5.682c-9.192,0.739 -27.124,-8.088 -39.722,-5.682c-9.826,1.876 -11.198,12.519 -8.114,14.303c7.57,4.381 28.492,-8.702 36.142,-0.803c6.141,6.341 12.017,9.681 10.623,30.903c-0.523,7.965 -2.472,16.223 -26.328,18.979c-6.148,0.71 4.057,11.537 2.382,16.575c-4.85,14.594 -17.365,3.115 -28.603,-0.309c-6.882,-2.097 -2.787,12.11 -14.313,16.357c-7.095,2.614 -21.175,0.42 -25.632,6.313c-9.336,12.343 -13.397,57.105 -22.007,66.129c-5.363,5.623 -13.182,4.508 -17.799,-12.193c-2.249,-8.136 -3.524,-24.795 -9.075,-27.026c-5.55,-2.23 -13.308,-0.903 -20.038,11.208c-2.566,4.618 -4.729,15.751 -1.467,18.63c4.885,4.313 15.088,-0.309 19.331,1.572c13.737,6.091 -3.786,21.231 1.75,47.393c5.713,26.993 28.191,16.796 37.341,21.037c5.963,2.763 4.373,4.434 10.573,6.615c9.222,3.245 31.032,3.791 38.63,7.293c4.066,1.874 8.35,14.178 12.46,15.951c4.314,1.862 13.77,3.039 18.063,8.323c7.009,8.627 3.229,14.931 8.977,22.206c5.748,7.275 16.962,8.555 22.983,12.996c4.555,3.359 6.82,10.18 11.917,12.64c7.565,3.649 22.872,1.406 31.778,7.845c8.906,6.44 22.023,19.515 19.597,34.215c-1.418,8.593 -11.843,12.441 -16.648,20.338c-4.764,7.828 -3.282,16.581 -10.105,22.697c-7.565,6.781 -56.837,33.505 -61.713,43.947c-2.761,5.911 -0.304,19.193 -1.129,28.3c-0.62,6.837 -3.87,15.517 -3.87,15.517c-19.461,-6.752 -37.974,-15.542 -55.281,-26.114c0,0 -0.593,-16.564 -3.395,-23.45c-3.012,-7.403 -10.876,-17.264 -16.554,-25.004c-7.169,-9.771 -8.015,-15.009 -11.111,-25.455c-2.083,-7.028 -4.26,-25.953 -7.76,-32.393c-4.734,-8.71 -16.499,-26.751 -21.233,-37.632c-4.657,-10.703 -2.914,-16.962 -4.998,-28.447c-2.321,-12.785 -2.252,-20.996 -5.218,-29.882c-4.643,-13.909 -14.49,-16.753 -17.626,-26.183c-2.753,-8.279 -0.745,-29.077 -4.182,-39.692c-3.088,-9.535 -14.502,-17.501 -17.294,-31.061c-3.149,-15.301 -1.122,-17.868 0.656,-31.033c1.72,-12.737 8.784,-28.441 10.562,-38.772c1.41,-8.192 0.728,-22.53 0.728,-22.53c30.753,-51.632 77.255,-92.813 132.857,-116.896Zm381.018,158.779c12.721,32.423 19.706,67.716 19.706,104.628c0,79.743 -32.603,151.93 -85.195,203.949c0,0 -4.321,-12.062 -4.872,-13.433c-1.925,-4.782 -2.244,-11.414 -3.31,-22.308c-0.981,-10.029 -11.053,-19.565 -10.168,-29.349c1.311,-14.493 6.749,-39.514 -0.794,-46.319c-7.451,-6.723 -28.84,-4.623 -45.394,0.545c-17.94,5.601 -33.8,2.231 -42.843,-7.298c-9.043,-9.53 -9.144,-24.277 -14.841,-33.414c-3.94,-6.318 -17.428,-13.6 -19.56,-20.734c-11.644,-38.95 31.484,-31.106 31.115,-49.156c-0.451,-22.086 5.68,-48.06 22.487,-54.541c19.092,-7.362 44.473,5.524 67.193,-3.825c20.601,-8.478 35.731,-12.689 52.194,-18.745c11.172,-4.109 34.282,-10 34.282,-10Zm-177.659,-168.006c72.744,23.908 132.685,76.141 166.752,143.626c0,0 -14.626,7.302 -22.754,8.188c-7.189,0.783 -15.848,4.58 -21.934,4.67c-11.361,0.168 -7.948,-6.246 -18.15,-11.37c-4.524,-2.273 -4.251,13.143 -21.908,15.583c-8.208,1.134 -15.408,-17.384 -23.114,-15.056c-6.346,1.918 -9.723,27.935 -19.007,32.067c-25.21,11.224 -40.824,-0.759 -41.099,-9.101c-0.793,-24.068 17.294,-21.75 18.581,-29.834c1.087,-6.828 -13.779,-0.667 -10.946,-16.856c2.688,-15.365 47.8,-19.599 42.072,-32.328c-4.296,-9.547 -23.779,3.264 -37.853,-5.149c-11.035,-6.597 -20.56,-24.37 -17.012,-34.456c5.332,-15.155 18.127,-12.758 20.087,-22.062c1.959,-9.303 -13.715,-27.922 -13.715,-27.922Z" style="fill:#bde4ff;"/><g><path d="M599.019,402.806l-384.948,209.34l21.247,36.801l370.796,-232.051l-7.095,-14.09Z" style="fill:#e3e9eb;"/><path d="M611.587,405.218c-0.986,-1.965 -2.728,-3.445 -4.825,-4.102c-2.098,-0.657 -4.373,-0.435 -6.304,0.616c-45.388,24.71 -285.137,155.234 -285.137,155.234l18.299,30.586c0,0 233.523,-145.893 275.016,-171.816c3.551,-2.218 4.83,-6.775 2.951,-10.517c0,0 0,-0.001 0,-0.001Z" style="fill:#595959;"/><path d="M270.245,715.499c0,0 -20.962,-15.034 -27.661,-42.002c-4.548,-18.311 -1.078,-31.435 -8.433,-46.997c-7.429,-15.72 -19.595,-20.498 -33.268,-15.372c-16.28,6.103 -20.533,28.158 -11.53,43.032c30.004,49.57 80.892,61.339 80.892,61.339Z" style="fill:#595959;"/></g><g><path d="M424.981,621.194l384.948,-209.34l-21.247,-36.801l-370.796,232.051l7.095,14.09Z" style="fill:#e3e9eb;"/><path d="M412.413,618.782c0.986,1.965 2.728,3.445 4.825,4.102c2.098,0.657 4.373,0.435 6.304,-0.616c45.388,-24.71 285.137,-155.234 285.137,-155.234l-18.299,-30.586c0,0 -233.523,145.893 -275.016,171.816c-3.551,2.218 -4.83,6.775 -2.951,10.517c0,0 0,0.001 0,0.001Z" style="fill:#595959;"/><path d="M753.755,308.501c0,0 20.962,15.034 27.661,42.002c4.548,18.311 1.078,31.435 8.433,46.997c7.429,15.72 19.595,20.498 33.268,15.372c16.28,-6.103 20.533,-28.158 11.53,-43.032c-30.004,-49.57 -80.892,-61.339 -80.892,-61.339Z" style="fill:#595959;"/></g></g></svg>