<?xml version="1.0" encoding="UTF-8" standalone="no"?>
<svg
   xmlns:dc="http://purl.org/dc/elements/1.1/"
   xmlns:cc="http://creativecommons.org/ns#"
   xmlns:rdf="http://www.w3.org/1999/02/22-rdf-syntax-ns#"
   xmlns:svg="http://www.w3.org/2000/svg"
   xmlns="http://www.w3.org/2000/svg"
   xmlns:xlink="http://www.w3.org/1999/xlink"
   xmlns:sodipodi="http://sodipodi.sourceforge.net/DTD/sodipodi-0.dtd"
   xmlns:inkscape="http://www.inkscape.org/namespaces/inkscape"
   version="1.1"
   preserveAspectRatio="xMidYMid meet"
   viewBox="0 0 640 640"
   width="64"
   height="64"
   id="svg58"
   sodipodi:docname="drawio5.svg"
   inkscape:version="0.92.4 5da689c313, 2019-01-14">
  <metadata
     id="metadata62">
    <rdf:RDF>
      <cc:Work
         rdf:about="">
        <dc:format>image/svg+xml</dc:format>
        <dc:type
           rdf:resource="http://purl.org/dc/dcmitype/StillImage" />
      </cc:Work>
    </rdf:RDF>
  </metadata>
  <sodipodi:namedview
     pagecolor="#ffffff"
     bordercolor="#666666"
     borderopacity="1"
     objecttolerance="10"
     gridtolerance="10"
     guidetolerance="10"
     inkscape:pageopacity="0"
     inkscape:pageshadow="2"
     inkscape:window-width="1850"
     inkscape:window-height="1048"
     id="namedview60"
     showgrid="false"
     inkscape:zoom="2.6074563"
     inkscape:cx="62.885477"
     inkscape:cy="45.353604"
     inkscape:window-x="70"
     inkscape:window-y="32"
     inkscape:window-maximized="1"
     inkscape:current-layer="g54" />
  <defs
     id="defs12">
    <path
       d="M20.46 17.65L621.79 17.65L621.79 624.6L20.46 624.6L20.46 17.65Z"
       id="a20sBwPFko" />
    <path
       d="M557.49 533.55C562.58 533.55 566.71 537.68 566.71 542.77C566.71 549.02 566.71 558.55 566.71 564.8C566.71 569.89 562.58 574.02 557.49 574.02C463.12 574.02 189.24 574.02 94.87 574.02C89.78 574.02 85.65 569.89 85.65 564.8C85.65 558.55 85.65 549.02 85.65 542.77C85.65 537.68 89.78 533.55 94.87 533.55C189.24 533.55 463.12 533.55 557.49 533.55Z"
       id="aBIha2860" />
    <path
       d="M99.14 176.13L212.66 176.13L212.66 533.55L99.14 533.55L99.14 176.13Z"
       id="cIja1ZlJZ" />
    <path
       d="M439.14 299.77L552.66 299.77L552.66 533.55L439.14 533.55L439.14 299.77Z"
       id="b19LlmzlWz" />
    <path
       d="M269.42 421.16L382.94 421.16L382.94 533.55L269.42 533.55L269.42 421.16Z"
       id="c1j5f6EgBa" />
    <path
       d="M189.23 64.13C194.19 78.55 185.56 94.62 169.96 99.98C154.37 105.35 137.67 98 132.71 83.57C127.75 69.15 136.39 53.08 151.98 47.72C167.58 42.35 184.27 49.71 189.23 64.13Z"
       id="b3AF74Ov7l" />
    <path
       d="M362.81 276.63C362.81 291.88 349.42 304.26 332.93 304.26C316.43 304.26 303.04 291.88 303.04 276.63C303.04 261.38 316.43 248.99 332.93 248.99C349.42 248.99 362.81 261.38 362.81 276.63Z"
       id="bgf8OL7Bf" />
    <path
       d="M519.93 229.62C519.93 244.87 506.54 257.26 490.05 257.26C473.56 257.26 460.17 244.87 460.17 229.62C460.17 214.37 473.56 201.98 490.05 201.98C506.54 201.98 519.93 214.37 519.93 229.62Z"
       id="a2kL2aRJ9N" />
    <path
       d="M160.97 88.58L173.65 77.47L343.03 270.88L330.35 281.98L160.97 88.58Z"
       id="an2vsaPw" />
    <path
       d="M479.92 222.12L484.69 238.29L315.24 288.19L310.47 272.02L479.92 222.12Z"
       id="b5OT3ivbpg" />
  </defs>
  <g
     id="g56">
    <g
       id="g54">
      <g
         id="g16">
        <use
           xlink:href="#a20sBwPFko"
           opacity="1"
           fill="#aeb1b9"
           fill-opacity="1"
           id="use14" />
      </g>
      <g
         id="g20"
         style="fill:#626d86;fill-opacity:1">
        <use
           xlink:href="#aBIha2860"
           opacity="1"
           fill="#7a7c80"
           fill-opacity="1"
           id="use18"
           style="fill:#626d86;fill-opacity:1" />
      </g>
      <g
         id="g24">
        <use
           xlink:href="#cIja1ZlJZ"
           opacity="1"
           fill="#6b7793"
           fill-opacity="1"
           id="use22" />
      </g>
      <g
         id="g28">
        <use
           xlink:href="#b19LlmzlWz"
           opacity="1"
           fill="#7390ae"
           fill-opacity="1"
           id="use26" />
      </g>
      <g
         id="g32">
        <use
           xlink:href="#c1j5f6EgBa"
           opacity="1"
           fill="#726fb0"
           fill-opacity="1"
           id="use30" />
      </g>
      <g
         id="g36"
         style="fill:#6b7793;fill-opacity:1">
        <use
           xlink:href="#b3AF74Ov7l"
           opacity="1"
           fill="#7a7c80"
           fill-opacity="1"
           id="use34"
           style="fill:#6b7793;fill-opacity:1" />
      </g>
      <g
         id="g40"
         style="fill:#6b7793;fill-opacity:1">
        <use
           xlink:href="#bgf8OL7Bf"
           opacity="1"
           fill="#7a7c80"
           fill-opacity="1"
           id="use38"
           style="fill:#6b7793;fill-opacity:1" />
      </g>
      <g
         id="g44"
         style="fill:#6b7793;fill-opacity:1">
        <use
           xlink:href="#a2kL2aRJ9N"
           opacity="1"
           fill="#7a7c80"
           fill-opacity="1"
           id="use42"
           style="fill:#6b7793;fill-opacity:1" />
      </g>
      <g
         id="g48"
         style="fill:#6b7793;fill-opacity:1">
        <use
           xlink:href="#an2vsaPw"
           opacity="1"
           fill="#7a7c80"
           fill-opacity="1"
           id="use46"
           style="fill:#6b7793;fill-opacity:1" />
      </g>
      <g
         id="g52"
         style="fill:#6b7793;fill-opacity:1">
        <use
           xlink:href="#b5OT3ivbpg"
           opacity="1"
           fill="#7a7c80"
           fill-opacity="1"
           id="use50"
           style="fill:#6b7793;fill-opacity:1" />
      </g>
    </g>
  </g>
</svg>
