<?xml version="1.0" encoding="UTF-8" standalone="no"?>
<!DOCTYPE svg PUBLIC "-//W3C//DTD SVG 1.1//EN" "http://www.w3.org/Graphics/SVG/1.1/DTD/svg11.dtd">
<svg version="1.1" xmlns="http://www.w3.org/2000/svg" xmlns:xlink="http://www.w3.org/1999/xlink" preserveAspectRatio="xMidYMid meet" viewBox="0 0 640 640" width="64" height="64"><defs><path d="M610.78 320.19C610.78 480.05 480.99 609.83 321.14 609.83C161.29 609.83 31.51 480.05 31.51 320.19C31.51 160.34 161.29 30.56 321.14 30.56C480.99 30.56 610.78 160.34 610.78 320.19Z" id="b12p84tLz0"></path><path d="M603 320C603 476.19 476.19 603 320 603C163.81 603 37 476.19 37 320C37 163.81 163.81 37 320 37C476.19 37 603 163.81 603 320Z" id="bpXyrNBJO"></path><path d="M183.7 497.39C174.09 488.41 169.28 475.88 170.11 463.65C157.01 464.42 143.58 459.94 133.97 450.96C115.73 433.94 115.73 406.09 133.97 389.07C150.55 373.59 176.74 372.04 195.14 384.89C201.77 377.15 208.24 369.26 214.37 362.3C218.02 357.96 221 353.32 223.16 348.52C225.81 348.75 239.05 349.9 262.9 351.97L290.42 377.66C292.24 399.54 293.25 411.7 293.45 414.13C288.31 416.15 283.34 418.93 278.69 422.33C271.23 428.06 262.78 434.1 254.49 440.28C268.25 457.46 266.59 481.91 250.02 497.39C231.78 514.41 201.94 514.41 183.7 497.39Z" id="f1dLr9fu3e"></path><path d="M183.7 497.39C174.09 488.41 169.28 475.88 170.11 463.65C177.19 457.04 212.6 423.99 276.33 364.51L290.42 377.66C292.24 399.54 293.25 411.7 293.45 414.13C288.31 416.15 283.34 418.93 278.7 422.33C271.24 428.06 262.78 434.1 254.49 440.28C268.25 457.46 266.59 481.91 250.02 497.39C231.78 514.41 201.94 514.41 183.7 497.39Z" id="blYu1G2JC"></path><path d="M334.42 398.48C325.47 396.94 302.57 410.58 293.45 414.13C286.42 407.57 230.19 355.09 223.16 348.52C226.97 340.01 241.58 318.64 239.93 310.28C232.13 266.18 250.2 218.67 288.17 183.24C347.52 127.84 436.87 120.88 487.1 167.76C537.33 214.65 529.88 298.06 470.53 353.45C432.56 388.89 381.67 405.76 334.42 398.48Z" id="b9v2TrAFE"></path><path d="M334.42 398.48C325.47 396.94 302.57 410.58 293.45 414.13C291.11 411.95 279.39 401.01 258.3 381.33C395.58 253.19 471.85 182 487.1 167.76C537.34 214.65 529.88 298.06 470.53 353.45C432.56 388.89 381.67 405.76 334.42 398.48Z" id="b4dao1XJu"></path><path d="M363.55 179.31C357.07 179.31 351.83 184.21 351.83 190.25C351.83 196.29 357.07 201.19 363.55 201.19C370.02 201.19 375.27 196.29 375.27 190.25C375.27 184.21 370.02 179.31 363.55 179.31Z" id="c411JJmlOE"></path><path d="M363.55 210.25C357.07 210.25 351.83 215.15 351.83 221.19C351.83 227.23 357.07 232.13 363.55 232.13C370.02 232.13 375.27 227.23 375.27 221.19C375.27 215.15 370.02 210.25 363.55 210.25Z" id="b1ljZpW0AI"></path><path d="M396.71 210.25C390.23 210.25 384.99 215.15 384.99 221.19C384.99 227.23 390.23 232.13 396.71 232.13C403.18 232.13 408.43 227.23 408.43 221.19C408.43 215.15 403.18 210.25 396.71 210.25Z" id="a2d5aIfkCf"></path></defs><g><g><g><use xlink:href="#b12p84tLz0" opacity="1" fill="#589b43" fill-opacity="1"></use></g><g><use xlink:href="#bpXyrNBJO" opacity="1" fill="#507245" fill-opacity="1"></use></g><g><use xlink:href="#f1dLr9fu3e" opacity="1" fill="#dbcabe" fill-opacity="1"></use><g><use xlink:href="#f1dLr9fu3e" opacity="1" fill-opacity="0" stroke="#000000" stroke-width="1" stroke-opacity="0"></use></g></g><g><use xlink:href="#blYu1G2JC" opacity="1" fill="#ccaa88" fill-opacity="1"></use><g><use xlink:href="#blYu1G2JC" opacity="1" fill-opacity="0" stroke="#000000" stroke-width="0" stroke-opacity="0"></use></g></g><g><use xlink:href="#b9v2TrAFE" opacity="1" fill="#d28c3a" fill-opacity="1"></use><g><use xlink:href="#b9v2TrAFE" opacity="1" fill-opacity="0" stroke="#000000" stroke-width="0" stroke-opacity="0"></use></g></g><g><use xlink:href="#b4dao1XJu" opacity="1" fill="#ab6424" fill-opacity="1"></use><g><use xlink:href="#b4dao1XJu" opacity="1" fill-opacity="0" stroke="#000000" stroke-width="0" stroke-opacity="0"></use></g></g><g><use xlink:href="#c411JJmlOE" opacity="1" fill="#ab6424" fill-opacity="1"></use><g><use xlink:href="#c411JJmlOE" opacity="1" fill-opacity="0" stroke="#000000" stroke-width="0" stroke-opacity="0"></use></g></g><g><use xlink:href="#b1ljZpW0AI" opacity="1" fill="#ab6424" fill-opacity="1"></use><g><use xlink:href="#b1ljZpW0AI" opacity="1" fill-opacity="0" stroke="#000000" stroke-width="0" stroke-opacity="0"></use></g></g><g><use xlink:href="#a2d5aIfkCf" opacity="1" fill="#ab6424" fill-opacity="1"></use><g><use xlink:href="#a2d5aIfkCf" opacity="1" fill-opacity="0" stroke="#000000" stroke-width="0" stroke-opacity="0"></use></g></g></g></g></svg>