<?xml version="1.0" encoding="UTF-8" standalone="no"?>
<svg
   xmlns:dc="http://purl.org/dc/elements/1.1/"
   xmlns:cc="http://creativecommons.org/ns#"
   xmlns:rdf="http://www.w3.org/1999/02/22-rdf-syntax-ns#"
   xmlns:svg="http://www.w3.org/2000/svg"
   xmlns="http://www.w3.org/2000/svg"
   xmlns:xlink="http://www.w3.org/1999/xlink"
   xmlns:sodipodi="http://sodipodi.sourceforge.net/DTD/sodipodi-0.dtd"
   xmlns:inkscape="http://www.inkscape.org/namespaces/inkscape"
   version="1.1"
   preserveAspectRatio="xMidYMid meet"
   viewBox="0 0 640 640"
   width="64"
   height="64"
   id="svg93"
   sodipodi:docname="drumkv1.svg"
   inkscape:version="1.0.1 (3bc2e813f5, 2020-09-07)">
  <metadata
     id="metadata97">
    <rdf:RDF>
      <cc:Work
         rdf:about="">
        <dc:format>image/svg+xml</dc:format>
        <dc:type
           rdf:resource="http://purl.org/dc/dcmitype/StillImage" />
      </cc:Work>
    </rdf:RDF>
  </metadata>
  <sodipodi:namedview
     pagecolor="#ffffff"
     bordercolor="#666666"
     borderopacity="1"
     objecttolerance="10"
     gridtolerance="10"
     guidetolerance="10"
     inkscape:pageopacity="0"
     inkscape:pageshadow="2"
     inkscape:window-width="1850"
     inkscape:window-height="1048"
     id="namedview95"
     showgrid="false"
     inkscape:zoom="4.8554688"
     inkscape:cx="-21.066408"
     inkscape:cy="67.816121"
     inkscape:window-x="70"
     inkscape:window-y="32"
     inkscape:window-maximized="1"
     inkscape:current-layer="g89"
     inkscape:document-rotation="0" />
  <defs
     id="defs15">
    <path
       d="M604.29 321.46C604.29 478.69 478.92 606.35 324.51 606.35C170.1 606.35 44.74 478.69 44.74 321.46C44.74 164.23 170.1 36.57 324.51 36.57C478.92 36.57 604.29 164.23 604.29 321.46Z"
       id="d7BSvVsFqW" />
    <path
       d="M592.39 321.14C592.39 472.41 472.37 595.23 324.55 595.23C176.72 595.23 56.7 472.41 56.7 321.14C56.7 169.86 176.72 47.05 324.55 47.05C472.37 47.05 592.39 169.86 592.39 321.14Z"
       id="faN8eXZPX" />
    <path
       d="M97.94 303.09C96.05 317.89 106.93 331.36 122.24 333.19C130.79 334.21 199.2 342.37 207.76 343.39C222.15 321.81 243.39 304.96 268.52 295.62C268.73 293.94 270.45 280.48 270.66 278.8C272.55 264 261.67 250.53 246.36 248.7C235.2 247.37 145.89 236.72 134.72 235.39C119.41 233.56 105.48 244.08 103.59 258.87C102.46 267.71 98.51 298.67 97.94 303.09Z"
       id="f2P6s5SiER" />
    <path
       d="M385.64 136.89L360.33 144.26C362.83 153.1 364.21 158.02 364.49 159C295.54 179.31 243.37 201.04 245.52 208.95C247.79 217.3 310 207.06 384.89 186.05C385.16 186.52 387.29 190.27 387.56 190.74C381.13 193.64 376.63 200.18 376.63 207.81C376.63 215.98 381.81 222.85 388.98 225.39C388.98 225.8 388.98 227.85 388.98 231.53C369.13 233.9 358.1 235.22 355.9 235.48C340.59 237.31 329.71 250.78 331.6 265.58C331.9 267.95 334.33 286.95 334.63 289.32C354.8 292.65 373.29 300.61 388.98 312.06C388.98 312.34 388.98 313.77 388.98 316.34C388.98 319.01 388.98 320.49 388.98 320.78C373.87 308.67 355.59 300.17 335.55 296.51C328.39 295.19 321.01 294.43 313.45 294.43C297.18 294.43 281.66 297.63 267.53 303.39C246.46 311.99 228.5 326.32 215.7 344.33C202.62 362.76 194.92 385.02 194.92 409.01C194.92 428.13 199.85 446.14 208.45 462C208.28 462.19 207.41 463.15 205.84 464.87L203.34 467.61C187.99 484.47 179.47 493.83 177.76 495.71C171.18 502.94 171.9 513.96 179.39 520.32C182.82 523.24 187.07 524.67 191.3 524.67C196.3 524.67 201.29 522.67 204.86 518.74C206.25 517.22 213.18 509.6 225.68 495.89L228.02 493.31C229.47 491.71 230.28 490.83 230.44 490.65C251.85 511 281.15 523.59 313.47 523.59C345.23 523.59 374.04 511.38 395.35 491.65C395.51 491.83 396.32 492.72 397.77 494.31L400.11 496.89C412.05 510 418.69 517.28 420.01 518.74C423.58 522.67 428.57 524.67 433.57 524.67C437.8 524.67 442.06 523.24 445.48 520.32C452.96 513.96 453.69 502.94 447.11 495.71C445.48 493.92 437.36 485 422.74 468.94L420.28 466.24C418.76 464.57 417.92 463.64 417.75 463.45C426.84 447.24 432.01 428.7 432.01 409.01C432.01 382.34 422.46 357.84 406.61 338.35C406.61 337.97 406.61 336.09 406.61 332.7L406.61 328.71C406.61 328.04 406.61 327.68 406.61 327.6C406.92 327.93 407.23 328.26 407.54 328.59C414.79 327.73 472.8 320.8 480.05 319.94C495.36 318.11 506.24 304.64 504.35 289.84C503.78 285.42 499.27 250.04 498.7 245.62C496.81 230.82 482.87 220.3 467.56 222.13C463.5 222.62 443.18 225.04 406.61 229.4C406.61 225.05 406.61 222.63 406.61 222.15C410.7 218.72 413.35 213.59 413.35 207.78C413.35 201 409.77 195.11 404.46 191.84C403.9 190.86 399.43 183 398.88 182.02C468.95 161.52 522.34 139.4 520.17 131.4C517.96 123.42 460.62 132.53 389.85 151.82C389.29 149.83 387.89 144.85 385.64 136.89Z"
       id="awWh8FAJL" />
    <path
       d="M416.25 408.63C416.25 463.81 370.32 508.62 313.75 508.62C257.18 508.62 211.25 463.81 211.25 408.63C211.25 353.44 257.18 308.64 313.75 308.64C370.32 308.64 416.25 353.44 416.25 408.63Z"
       id="a18qGErHNi" />
    <path
       d="M245.8 254.15C256.39 255.36 264 264.93 262.78 275.53C262.55 277.6 261.95 282.78 261 291.08C250.56 295.84 240.61 302.06 231.14 309.74C221.68 317.42 212.7 326.55 204.21 337.15C160.29 331.8 132.84 328.45 121.87 327.12C111.31 325.83 103.77 316.27 104.98 305.71C106.51 292.34 108.7 273.26 110.17 260.37C111.53 248.51 122.24 240 134.1 241.36C160.28 244.35 219.16 251.1 245.8 254.15Z"
       id="b5sk47sZ4h" />
    <path
       d="M339.86 284.85C338.66 274.32 337.91 267.74 337.6 265.11C336.33 253.98 344.24 243.91 355.34 242.5C382.12 239.1 441.13 231.6 467.59 228.25C479.53 226.73 490.44 235.18 491.96 247.12C493.61 260.1 495.53 275.23 497.11 287.67C498.81 301.07 489.26 313.3 475.84 314.9C467.7 315.87 447.34 318.29 414.76 322.17C403.04 312.34 390.95 303.97 378.46 297.09C365.98 290.2 353.11 286.12 339.86 284.85Z"
       id="e4e1aiobot" />
    <path
       d="M506.76 135.26C508.56 141.62 454.39 162.58 385.85 182.04C317.31 201.5 260.2 212.14 258.4 205.78C256.59 199.42 310.77 178.46 379.31 159C447.85 139.54 504.95 128.9 506.76 135.26Z"
       id="b2mSXzvam" />
    <path
       d="M281.95 357.39C285.68 380.29 292.54 399.11 297.85 419.94C304.87 400.65 309.3 377.97 315.35 357.39C326.48 357.39 337.62 357.39 348.75 357.39C336.22 396.57 324.36 436.63 312.16 476.26C302.62 476.26 293.09 476.26 283.55 476.26C271.56 436.37 259.18 396.99 246.96 357.39C258.62 357.39 270.28 357.39 281.95 357.39Z"
       id="a1aP7Gjihe" />
    <path
       d="M278.83 364.39C282.12 384.69 293.17 417.04 297.85 435.51C304.05 418.41 312.45 382.63 317.78 364.39C327.6 364.39 332.93 364.39 342.75 364.39C331.69 399.12 321.23 434.63 310.47 469.76C302.06 469.76 293.65 469.76 285.24 469.76C274.66 434.4 263.74 399.49 252.96 364.39C263.25 364.39 268.53 364.39 278.83 364.39Z"
       id="abVBGiIyH" />
    <path
       d="M363.23 476.26L330.1 476.26C330.1 418.36 330.1 386.2 330.1 379.77C322.14 386.25 313.13 391.3 303.22 394.81C302.86 394.94 301.07 395.57 297.85 396.71C297.85 376.58 297.85 365.4 297.85 363.16C299.66 362.32 307.19 361.13 320.66 349.87C333.43 339.2 335.19 328.32 336.02 326.59C337.83 326.59 346.9 326.59 363.23 326.59L363.23 476.26ZM338.27 467.49L355.06 467.49L355.06 335.36C347.03 335.36 342.56 335.36 341.67 335.36C338.4 343.44 333.04 350.64 325.68 356.79C318.77 362.56 312.17 366.8 306.03 369.41C306.03 370.91 306.03 382.88 306.03 384.38C315.58 380.25 324.09 374.47 331.39 367.14C331.85 366.68 334.15 364.38 338.27 360.24L338.27 467.49Z"
       id="a372dgmaLt" />
    <path
       d="M336.43 333.07L361.06 333.07L361.06 472.07L336.43 472.07L336.43 333.07Z"
       id="b2bJj7Nan" />
    <path
       d="M344.92 338.28L355.69 352.69L307.24 388.9C302.79 382.94 300 379.22 298.89 377.73C297.55 375.94 297.92 373.41 299.71 372.07C305.74 367.56 320.81 356.3 344.92 338.28Z"
       id="a2rYB3um3a" />
  </defs>
  <g
     id="g91">
    <g
       id="g89">
      <g
         id="g19"
         style="fill:#060606;fill-opacity:1"
         transform="matrix(1.0610702,0,0,1.0420194,-15.7444,-10.737237)">
        <use
           xlink:href="#d7BSvVsFqW"
           opacity="1"
           fill="#696868"
           fill-opacity="1"
           id="use17"
           style="fill:#060606;fill-opacity:1"
           x="0"
           y="0"
           width="100%"
           height="100%" />
      </g>
      <g
         id="g23"
         style="fill:#844174;fill-opacity:1"
         transform="matrix(1.0694422,0,0,1.0450755,-17.489578,-11.016422)">
        <use
           xlink:href="#faN8eXZPX"
           opacity="1"
           fill="#a4a4a4"
           fill-opacity="1"
           id="use21"
           style="fill:#844174;fill-opacity:1"
           x="0"
           y="0"
           width="100%"
           height="100%" />
      </g>
      <g
         id="g31"
         transform="matrix(0.85226322,0,0,0.85226322,53.68531,38.492618)">
        <use
           xlink:href="#f2P6s5SiER"
           opacity="1"
           fill="#2d2d2d"
           fill-opacity="1"
           id="use25"
           x="0"
           y="0"
           width="100%"
           height="100%" />
        <g
           id="g29">
          <use
             xlink:href="#f2P6s5SiER"
             opacity="1"
             fill-opacity="0"
             stroke="#000000"
             stroke-width="0"
             stroke-opacity="0"
             id="use27"
             x="0"
             y="0"
             width="100%"
             height="100%" />
        </g>
      </g>
      <g
         id="g39"
         transform="matrix(0.85226322,0,0,0.85226322,53.68531,38.492618)">
        <use
           xlink:href="#awWh8FAJL"
           opacity="1"
           fill="#2d2d2d"
           fill-opacity="1"
           id="use33"
           x="0"
           y="0"
           width="100%"
           height="100%" />
        <g
           id="g37">
          <use
             xlink:href="#awWh8FAJL"
             opacity="1"
             fill-opacity="0"
             stroke="#000000"
             stroke-width="0"
             stroke-opacity="0"
             id="use35"
             x="0"
             y="0"
             width="100%"
             height="100%" />
        </g>
      </g>
      <g
         id="g43"
         style="fill:#ffffff"
         transform="matrix(0.85226322,0,0,0.85226322,53.68531,38.492618)">
        <use
           xlink:href="#a18qGErHNi"
           opacity="1"
           fill="#747070"
           fill-opacity="1"
           id="use41"
           style="fill:#ffffff"
           x="0"
           y="0"
           width="100%"
           height="100%" />
      </g>
      <g
         id="g47"
         style="fill:#ffffff"
         transform="matrix(0.85226322,0,0,0.85226322,53.68531,38.492618)">
        <use
           xlink:href="#b5sk47sZ4h"
           opacity="1"
           fill="#844174"
           fill-opacity="1"
           id="use45"
           style="fill:#ffffff"
           x="0"
           y="0"
           width="100%"
           height="100%" />
      </g>
      <g
         id="g51"
         style="fill:#ffffff"
         transform="matrix(0.85226322,0,0,0.85226322,53.68531,38.492618)">
        <use
           xlink:href="#e4e1aiobot"
           opacity="1"
           fill="#844174"
           fill-opacity="1"
           id="use49"
           style="fill:#ffffff"
           x="0"
           y="0"
           width="100%"
           height="100%" />
      </g>
      <g
         id="g55"
         style="fill:#ffffff"
         transform="matrix(0.85226322,0,0,0.85226322,53.68531,38.492618)">
        <use
           xlink:href="#b2mSXzvam"
           opacity="1"
           fill="#b49650"
           fill-opacity="1"
           id="use53"
           style="fill:#ffffff"
           x="0"
           y="0"
           width="100%"
           height="100%" />
      </g>
      <g
         id="g63"
         transform="matrix(0.85226322,0,0,0.85226322,53.68531,38.492618)">
        <use
           xlink:href="#a1aP7Gjihe"
           opacity="1"
           fill="#2d2d2d"
           fill-opacity="1"
           id="use57"
           x="0"
           y="0"
           width="100%"
           height="100%" />
        <g
           id="g61">
          <use
             xlink:href="#a1aP7Gjihe"
             opacity="1"
             fill-opacity="0"
             stroke="#000000"
             stroke-width="0"
             stroke-opacity="0"
             id="use59"
             x="0"
             y="0"
             width="100%"
             height="100%" />
        </g>
      </g>
      <g
         id="g71"
         transform="matrix(0.85226322,0,0,0.85226322,53.68531,38.492618)">
        <use
           xlink:href="#abVBGiIyH"
           opacity="1"
           fill="#844174"
           fill-opacity="1"
           id="use65"
           x="0"
           y="0"
           width="100%"
           height="100%" />
        <g
           id="g69">
          <use
             xlink:href="#abVBGiIyH"
             opacity="1"
             fill-opacity="0"
             stroke="#000000"
             stroke-width="0"
             stroke-opacity="0"
             id="use67"
             x="0"
             y="0"
             width="100%"
             height="100%" />
        </g>
      </g>
      <g
         id="g79"
         transform="matrix(0.85226322,0,0,0.85226322,53.68531,38.492618)">
        <use
           xlink:href="#a372dgmaLt"
           opacity="1"
           fill="#2d2d2d"
           fill-opacity="1"
           id="use73"
           x="0"
           y="0"
           width="100%"
           height="100%" />
        <g
           id="g77">
          <use
             xlink:href="#a372dgmaLt"
             opacity="1"
             fill-opacity="0"
             stroke="#000000"
             stroke-width="0"
             stroke-opacity="0"
             id="use75"
             x="0"
             y="0"
             width="100%"
             height="100%" />
        </g>
      </g>
      <g
         id="g83"
         transform="matrix(0.85226322,0,0,0.85226322,53.68531,38.492618)">
        <use
           xlink:href="#b2bJj7Nan"
           opacity="1"
           fill="#2d2d2d"
           fill-opacity="1"
           id="use81"
           x="0"
           y="0"
           width="100%"
           height="100%" />
      </g>
      <g
         id="g87"
         transform="matrix(0.85226322,0,0,0.85226322,53.68531,38.492618)">
        <use
           xlink:href="#a2rYB3um3a"
           opacity="1"
           fill="#2d2d2d"
           fill-opacity="1"
           id="use85"
           x="0"
           y="0"
           width="100%"
           height="100%" />
      </g>
    </g>
  </g>
</svg>
