<?xml version="1.0" encoding="UTF-8" standalone="no"?>
<!DOCTYPE svg PUBLIC "-//W3C//DTD SVG 1.1//EN" "http://www.w3.org/Graphics/SVG/1.1/DTD/svg11.dtd">
<svg width="100%" height="100%" viewBox="0 0 2048 2048" version="1.1" xmlns="http://www.w3.org/2000/svg" xmlns:xlink="http://www.w3.org/1999/xlink" xml:space="preserve" xmlns:serif="http://www.serif.com/" style="fill-rule:evenodd;clip-rule:evenodd;stroke-linejoin:round;stroke-miterlimit:2;">
    <g transform="matrix(1,0,0,1,-189.195,-45.6755)">
        <circle cx="1213.19" cy="1069.68" r="989.144" style="fill:rgb(176,151,151);"/>
    </g>
    <g transform="matrix(1.06567,0,0,1.06567,-445.338,-319.003)">
        <circle cx="1378.79" cy="1260.24" r="845.467" style="fill:rgb(228,199,199);"/>
    </g>
    <path d="M1924.99,1359.45L1745.79,1642.56L1523.88,1821.47L1184.35,1270.58C1184.35,1270.58 1119.69,1300.47 1079.42,1296.34C964.191,1284.49 679.081,1190.78 679.081,1190.78C679.081,1190.78 543.788,1204.16 496.502,1187.78C477.152,1181.08 474.353,1153.97 460.285,1139.16C446.005,1124.13 409.557,1101.4 411.487,1072.61C415.224,1016.87 471.582,975.047 471.582,975.047C471.582,975.047 513.304,885.699 584.3,843.461C721.55,761.808 932.11,778.955 932.11,778.955C1050.25,751.782 1200.1,689.619 1269.45,670.616C1368.95,643.349 1379.93,720.121 1379.93,720.121C1379.93,720.121 1410.32,670.265 1450.39,650.211C1487.58,631.603 1551.06,618.846 1562.94,633.681C1574.72,648.395 1559.15,909.819 1554.96,908.959C1593.65,905.531 1738.67,1142.16 1924.99,1359.45Z" style="fill:rgb(176,151,151);"/>
</svg>
