<?xml version="1.0" encoding="UTF-8" standalone="no"?>
<svg
   xmlns:dc="http://purl.org/dc/elements/1.1/"
   xmlns:cc="http://creativecommons.org/ns#"
   xmlns:rdf="http://www.w3.org/1999/02/22-rdf-syntax-ns#"
   xmlns:svg="http://www.w3.org/2000/svg"
   xmlns="http://www.w3.org/2000/svg"
   xmlns:sodipodi="http://sodipodi.sourceforge.net/DTD/sodipodi-0.dtd"
   xmlns:inkscape="http://www.inkscape.org/namespaces/inkscape"
   height="48"
   width="48"
   version="1.1"
   id="svg10"
   sodipodi:docname="electorrent.svg"
   inkscape:version="1.0.2 (e86c870879, 2021-01-15)">
  <metadata
     id="metadata16">
    <rdf:RDF>
      <cc:Work
         rdf:about="">
        <dc:format>image/svg+xml</dc:format>
        <dc:type
           rdf:resource="http://purl.org/dc/dcmitype/StillImage" />
        <dc:title></dc:title>
      </cc:Work>
    </rdf:RDF>
  </metadata>
  <defs
     id="defs14" />
  <sodipodi:namedview
     pagecolor="#ffffff"
     bordercolor="#666666"
     borderopacity="1"
     objecttolerance="10"
     gridtolerance="10"
     guidetolerance="10"
     inkscape:pageopacity="0"
     inkscape:pageshadow="2"
     inkscape:window-width="1920"
     inkscape:window-height="1028"
     id="namedview12"
     showgrid="false"
     inkscape:zoom="9.4583332"
     inkscape:cx="24.299013"
     inkscape:cy="17.763194"
     inkscape:window-x="0"
     inkscape:window-y="24"
     inkscape:window-maximized="1"
     inkscape:current-layer="svg10"
     inkscape:document-rotation="0" />
  <g
     fill="#be514c"
     opacity=".99"
     transform="matrix(1.1503549 0 0 1.1503549 -4.486125 -7.525565)"
     id="g6"
     style="fill:#85bfad;fill-opacity:1;stroke:none">
    <path
       d="m44.322082 27.405077a19.729762 19.729765 0 0 1 -19.729762 19.729765 19.729762 19.729765 0 0 1 -19.7297621-19.729765 19.729762 19.729765 0 0 1 19.7297621-19.7297632 19.729762 19.729765 0 0 1 19.729762 19.7297632z"
       id="path2"
       style="fill:#85bfad;fill-opacity:1;stroke:none" />
    <path
       d="m44.322082 27.405077a19.729762 19.729765 0 0 1 -19.729762 19.729765 19.729762 19.729765 0 0 1 -19.7297621-19.729765 19.729762 19.729765 0 0 1 19.7297621-19.7297632 19.729762 19.729765 0 0 1 19.729762 19.7297632z"
       id="path4"
       style="fill:#85bfad;fill-opacity:1;stroke:none" />
  </g>
  <path
     style="fill:#ffffff;fill-opacity:1;stroke:none;stroke-width:0.872935;stroke-opacity:1"
     d="m 21.378155,13.679393 c -0.411722,0.0032 -0.86002,0.235703 -1.424423,0.688729 l -1.443998,1.315969 4.437244,4.459535 1.218832,-1.111808 c 1.26418,-1.250938 1.059878,-1.864993 0.340199,-2.742628 l -1.918808,-1.928444 c -0.422012,-0.458664 -0.797322,-0.684649 -1.209046,-0.681353 z m -4.006492,3.042717 -4.705125,4.2929 c -2.420758,1.869592 -4.271676,4.561686 -4.8962596,7.349115 -0.5408952,2.709203 0.075064,6.745177 3.4264426,9.65946 3.258884,2.833861 7.070376,3.115108 9.584252,2.353986 2.513879,-0.761125 4.106838,-2.366287 4.106838,-2.366287 0.03068,-0.03036 0.06101,-0.06169 0.09057,-0.09347 l 6.520034,-6.998003 -4.432352,-4.454616 -5.871014,6.468786 c -2.512864,2.768721 -4.695089,1.349187 -5.898818,0.32752 -1.385198,-1.405659 -2.311158,-4.02929 -0.575153,-5.61316 l 7.087842,-6.466696 z m 13.468371,6.434715 c -0.576371,-0.03486 -1.074652,0.429557 -1.696088,1.079837 l -1.027937,1.101968 4.432352,4.454616 1.167439,-1.252015 c 1.405092,-1.381242 1.010862,-1.877154 0.286344,-2.708191 l -1.997119,-2.007157 c -0.446512,-0.448274 -0.819168,-0.648132 -1.164991,-0.669058 z"
     id="path8" />
  <path
     style="fill:none;stroke:#ffffff;stroke-width:1.22211px;stroke-linecap:round;stroke-opacity:1"
     d="M 34.039608,22.138762 C 32.659051,18.732749 30.72944,15.675943 26.548035,14.268827"
     id="path10" />
  <path
     style="fill:none;stroke:#ffffff;stroke-width:1.22211px;stroke-linecap:round;stroke-opacity:1"
     d="M 37.066505,21.457711 C 36.275385,17.546467 32.381723,12.101525 27.384974,11.393274"
     id="path12" />
  <g
     fill="#be514c"
     opacity="0.99"
     transform="matrix(1.021104,0,0,1.021104,-1.3075455,-3.983434)"
     id="g858"
     style="fill:#ffffff;fill-opacity:0.188494;stroke:none">
    <path
       d="M 44.322082,27.405077 A 19.729762,19.729765 0 0 1 24.59232,47.134842 19.729762,19.729765 0 0 1 4.8625579,27.405077 19.729762,19.729765 0 0 1 24.59232,7.6753138 19.729762,19.729765 0 0 1 44.322082,27.405077 Z"
       id="path852"
       style="fill:#ffffff;fill-opacity:0.188494;stroke:none" />
    <path
       d="M 44.322082,27.405077 A 19.729762,19.729765 0 0 1 24.59232,47.134842 19.729762,19.729765 0 0 1 4.8625579,27.405077 19.729762,19.729765 0 0 1 24.59232,7.6753138 19.729762,19.729765 0 0 1 44.322082,27.405077 Z"
       id="path854"
       style="fill:#ffffff;fill-opacity:0.188494;stroke:none" />
  </g>
  <path
     style="fill:none;stroke:#ffffff;stroke-width:1.22211px;stroke-linecap:round;stroke-opacity:1"
     d="M 40.02,19.903018 C 39.436331,15.784323 33.483589,8.7616392 28.290768,8.2494607"
     id="path14" />
</svg>
