<?xml version="1.0" encoding="UTF-8" standalone="no"?>
<!DOCTYPE svg PUBLIC "-//W3C//DTD SVG 1.1//EN" "http://www.w3.org/Graphics/SVG/1.1/DTD/svg11.dtd">
<svg version="1.1" xmlns="http://www.w3.org/2000/svg" xmlns:xlink="http://www.w3.org/1999/xlink" preserveAspectRatio="xMidYMid meet" viewBox="0 0 640 640" width="64" height="64"><defs><path d="M611.67 318.88C611.67 482.02 481.48 614.48 321.12 614.48C160.77 614.48 30.58 482.02 30.58 318.88C30.58 155.73 160.77 23.27 321.12 23.27C481.48 23.27 611.67 155.73 611.67 318.88Z" id="a1PjGswzZx"></path><path d="M481.1 266.46C486.92 287.94 520.4 298.43 520.4 322.13C520.4 446.88 433.57 548.17 326.63 548.17C219.68 548.17 132.86 446.88 132.86 322.13C132.86 197.38 219.68 96.1 326.63 96.1C413.25 96.1 456.33 174.91 481.1 266.46Z" id="a22PpqC26"></path><path d="M552.67 311.1C559.17 323.23 557.38 347.63 547.29 384.3C532.86 408.82 521.99 420.49 514.69 419.32C512.77 419.01 510.83 413.91 508.84 404.02C506.27 391.17 494.26 382.46 481.25 384C480.74 384.06 487.64 383.24 483.47 383.74C480.41 384.1 477.6 385.63 475.63 388.02C430.92 442.18 388.28 469.26 347.7 469.26C331.49 469.26 316.4 471.17 302.62 469.26C247.54 461.58 213.55 434.56 213.55 384.3C213.55 321.48 285.76 230.98 366.8 230.98C425.56 230.98 526.96 263.11 552.67 311.1Z" id="a1hb2dhtxf"></path><path d="M479.95 151.48C520.05 220.57 475.74 305.14 386.62 356.86C297.49 408.58 197.07 408 156.98 338.91C116.88 269.81 156.69 171.73 245.82 120C334.95 68.28 439.86 82.39 479.95 151.48Z" id="b1cLG4LXsX"></path><path d="M400.35 239.64C400.35 281.87 367.31 316.17 326.63 316.17C285.94 316.17 252.91 281.87 252.91 239.64C252.91 197.4 285.94 163.11 326.63 163.11C367.31 163.11 400.35 197.4 400.35 239.64Z" id="c4FMPgDmYo"></path></defs><g><g><g><use xlink:href="#a1PjGswzZx" opacity="1" fill="#b5cfb7" fill-opacity="1"></use></g><g><use xlink:href="#a22PpqC26" opacity="1" fill="#478d60" fill-opacity="1"></use></g><g><use xlink:href="#a1hb2dhtxf" opacity="1" fill="#b5cfb7" fill-opacity="1"></use></g><g><use xlink:href="#b1cLG4LXsX" opacity="1" fill="#478d60" fill-opacity="1"></use></g><g><use xlink:href="#c4FMPgDmYo" opacity="1" fill="#b5cfb7" fill-opacity="1"></use></g></g></g></svg>