<?xml version="1.0" encoding="UTF-8" standalone="no"?>
<svg
   xmlns:dc="http://purl.org/dc/elements/1.1/"
   xmlns:cc="http://creativecommons.org/ns#"
   xmlns:rdf="http://www.w3.org/1999/02/22-rdf-syntax-ns#"
   xmlns:svg="http://www.w3.org/2000/svg"
   xmlns="http://www.w3.org/2000/svg"
   xmlns:sodipodi="http://sodipodi.sourceforge.net/DTD/sodipodi-0.dtd"
   xmlns:inkscape="http://www.inkscape.org/namespaces/inkscape"
   height="48"
   width="48"
   version="1.1"
   id="svg14"
   sodipodi:docname="epic-games.svg"
   inkscape:version="1.0.2 (e86c870879, 2021-01-15)">
  <metadata
     id="metadata20">
    <rdf:RDF>
      <cc:Work
         rdf:about="">
        <dc:format>image/svg+xml</dc:format>
        <dc:type
           rdf:resource="http://purl.org/dc/dcmitype/StillImage" />
        <dc:title></dc:title>
      </cc:Work>
    </rdf:RDF>
  </metadata>
  <defs
     id="defs18" />
  <sodipodi:namedview
     pagecolor="#ffffff"
     bordercolor="#666666"
     borderopacity="1"
     objecttolerance="10"
     gridtolerance="10"
     guidetolerance="10"
     inkscape:pageopacity="0"
     inkscape:pageshadow="2"
     inkscape:window-width="1920"
     inkscape:window-height="1028"
     id="namedview16"
     showgrid="false"
     inkscape:zoom="9.4583333"
     inkscape:cx="23.35052"
     inkscape:cy="27.809722"
     inkscape:window-x="0"
     inkscape:window-y="24"
     inkscape:window-maximized="1"
     inkscape:current-layer="svg14" />
  <rect
     fill="#5f636c"
     height="43"
     ry="1.452703"
     width="43"
     x="2"
     y="3"
     id="rect2" />
  <path
     d="M 9.181726,6.4449961 V 25.417482 h 5.774235 V 22.94281 h -3.299563 v -5.774235 h 3.299563 V 14.693903 H 11.656398 V 8.9196676 h 3.299563 V 6.4449961 Z m 6.599125,0 V 25.417482 h 2.474672 v -7.424016 h 2.640617 c 1.919356,0 3.133618,-1.544545 3.133618,-3.463897 V 9.9088926 c 0,-1.9193531 -1.214262,-3.4638965 -3.133618,-3.4638965 h -2.310338 z m 9.816522,0 V 25.417482 h 2.474672 V 6.4449961 Z m 5.6099,0 c -1.27957,0 -2.310338,1.0307693 -2.310338,2.3103385 V 23.123254 c 0,1.279569 1.030768,2.310338 2.310338,2.310338 h 3.628231 c 1.27957,0 2.310338,-1.030769 2.310338,-2.310338 V 17.993466 H 34.67117 v 3.860231 c 0,0.639783 -0.660474,1.128216 -1.15517,1.269557 h -0.989223 c -0.639786,0 -1.15517,-0.513773 -1.15517,-1.153558 V 9.9088926 c 0,-0.639784 0.6822,-1.153558 1.15517,-1.153558 H 33.516 c 0.639786,0 1.15517,0.513774 1.15517,1.153558 v 3.1352294 h 2.474672 V 8.7553346 c 0,-1.2795692 -1.030768,-2.3103385 -2.310338,-2.3103385 z m -12.95175,2.4746715 h 2.144394 c 0.639785,0 1.155169,0.515386 1.155169,1.1551704 v 4.288786 c 0,0.639785 -0.515384,1.15517 -1.155169,1.15517 H 18.255523 Z M 12.716512,28.356155 c -1.320374,-0.02537 -2.7448344,0.947526 -2.7872288,2.706672 -0.030067,1.247455 1.1012658,2.646896 2.6277278,2.668006 1.339106,0.01853 2.308727,-0.836169 2.308727,-0.836169 v -1.773837 h -2.229782 v 0.952169 l 0.916724,0.0032 0.03866,0.182055 c 0,0 -0.297702,0.307205 -0.834556,0.317389 -0.943549,0.01791 -1.403284,-0.757483 -1.433893,-1.43228 -0.03286,-0.724635 0.481175,-1.591903 1.450004,-1.586948 0.645694,0.0032 1.058502,0.591279 1.058502,0.591279 l 0.874835,-1.074596 c 0,0 -0.834311,-0.694755 -1.989726,-0.716946 z m 8.76124,0.360889 v 4.944511 h 1.208336 v -2.743728 l 1.261503,1.872115 1.222836,-1.949449 0.0145,2.821062 h 1.237336 v -4.944511 h -1.251838 l -1.222836,1.970393 -1.222836,-1.970393 z m 5.769402,0 v 4.918733 h 3.639507 v -1.218003 l -2.402171,0.02255 v -1.248611 h 2.062227 V 30.366825 H 28.48449 V 29.95438 h 2.408616 l -0.0064,-1.237336 z m -9.652188,0.03061 -2.166949,4.912289 1.467726,-0.0032 0.336723,-0.886113 h 1.885004 l 0.328667,0.886113 h 1.367837 l -2.013893,-4.909066 z m 15.84209,0.0017 c -0.816023,0.0052 -1.997044,0.516553 -2.020337,1.770615 -0.02366,1.273369 2.775476,1.094342 2.784006,1.743226 0.003,0.224943 -0.141458,0.388532 -0.476891,0.377 -0.702276,-0.02418 -1.622392,-0.546207 -1.622392,-0.546207 l -0.715335,0.858725 c 0,0 1.042287,0.73476 2.286171,0.741112 0.82472,0.0043 1.812451,-0.398018 1.804449,-1.599837 -0.0096,-1.445077 -2.762302,-1.380686 -2.798506,-1.873726 -0.01818,-0.247567 0.3437,-0.384858 0.837779,-0.38989 0.480238,-0.0049 1.412948,0.467224 1.412948,0.467224 l 0.599334,-0.91028 c 0,0 -0.940594,-0.645342 -2.091226,-0.638002 z m -15.252421,1.501559 0.525223,1.421003 h -1.063336 z m -3.310841,9.189758 8.248907,4.124453 8.248906,-4.124453 z"
     style="fill:#ffffff;stroke-width:0.824891"
     id="path8" />
</svg>
