<?xml version="1.0" encoding="UTF-8" standalone="no"?><!DOCTYPE svg PUBLIC "-//W3C//DTD SVG 1.1//EN" "http://www.w3.org/Graphics/SVG/1.1/DTD/svg11.dtd"><svg width="100%" height="100%" viewBox="0 0 1071 1067" version="1.1" xmlns="http://www.w3.org/2000/svg" xmlns:xlink="http://www.w3.org/1999/xlink" xml:space="preserve" xmlns:serif="http://www.serif.com/" style="fill-rule:evenodd;clip-rule:evenodd;stroke-linejoin:round;stroke-miterlimit:2;"><rect id="f3d" x="2.412" y="0" width="1066.67" height="1066.67" style="fill:none;"/><circle cx="535.745" cy="533.333" r="492.571" style="fill:#f1eae7;"/><path d="M535.745,40.762c271.858,-0 492.572,220.714 492.572,492.571c-0,271.858 -220.714,492.572 -492.572,492.572c-271.857,-0 -492.571,-220.714 -492.571,-492.572c-0,-271.857 220.714,-492.571 492.571,-492.571Zm0,41.667c248.861,-0 450.905,202.043 450.905,450.904c0,248.861 -202.044,450.905 -450.905,450.905c-248.861,0 -450.905,-202.044 -450.905,-450.905c0,-248.861 202.044,-450.904 450.905,-450.904Z" style="fill:#ebe2dd;"/><g><path d="M386.951,912.793c-2.735,3.162 -7.39,3.807 -10.882,1.509c-3.493,-2.298 -4.742,-6.827 -2.921,-10.591c53.037,-109.63 166.443,-344.044 190.52,-393.812c2.783,-5.753 8.612,-9.408 15.003,-9.408c28.91,-0 110.219,-0 146.797,-0c3.261,-0 6.223,1.903 7.579,4.869c1.355,2.966 0.856,6.451 -1.278,8.917c-51.501,59.522 -256.183,296.078 -344.818,398.516Z" style="fill:#6a8cab;"/><path d="M354.924,563.295c-2.735,3.161 -7.39,3.807 -10.882,1.509c-3.493,-2.298 -4.742,-6.828 -2.921,-10.591c53.037,-109.63 166.443,-344.044 190.52,-393.812c2.783,-5.753 8.612,-9.408 15.003,-9.408c28.91,-0 110.219,-0 146.797,-0c3.261,-0 6.223,1.902 7.579,4.868c1.355,2.967 0.856,6.451 -1.278,8.918c-51.501,59.522 -256.183,296.078 -344.818,398.516Z" style="fill:#d07b81;"/><path d="M684.54,198.695c2.735,-3.162 7.389,-3.807 10.882,-1.509c3.492,2.298 4.741,6.828 2.921,10.591c-53.038,109.63 -166.444,344.044 -190.52,393.812c-2.784,5.753 -8.612,9.408 -15.004,9.408c-28.909,0 -110.218,0 -146.796,0c-3.261,0 -6.223,-1.903 -7.579,-4.869c-1.356,-2.966 -0.857,-6.451 1.277,-8.917c51.502,-59.522 256.183,-296.078 344.819,-398.516Z" style="fill:#66b07f;"/></g></svg>