<?xml version="1.0" encoding="UTF-8" standalone="no"?>
<svg
   xmlns:dc="http://purl.org/dc/elements/1.1/"
   xmlns:cc="http://creativecommons.org/ns#"
   xmlns:rdf="http://www.w3.org/1999/02/22-rdf-syntax-ns#"
   xmlns:svg="http://www.w3.org/2000/svg"
   xmlns="http://www.w3.org/2000/svg"
   xmlns:sodipodi="http://sodipodi.sourceforge.net/DTD/sodipodi-0.dtd"
   xmlns:inkscape="http://www.inkscape.org/namespaces/inkscape"
   height="48"
   width="48"
   version="1.1"
   id="svg18"
   sodipodi:docname="flare.svg"
   inkscape:version="1.0.2 (e86c870879, 2021-01-15)">
  <metadata
     id="metadata24">
    <rdf:RDF>
      <cc:Work
         rdf:about="">
        <dc:format>image/svg+xml</dc:format>
        <dc:type
           rdf:resource="http://purl.org/dc/dcmitype/StillImage" />
        <dc:title></dc:title>
      </cc:Work>
    </rdf:RDF>
  </metadata>
  <defs
     id="defs22" />
  <sodipodi:namedview
     pagecolor="#ffffff"
     bordercolor="#666666"
     borderopacity="1"
     objecttolerance="10"
     gridtolerance="10"
     guidetolerance="10"
     inkscape:pageopacity="0"
     inkscape:pageshadow="2"
     inkscape:window-width="1920"
     inkscape:window-height="1028"
     id="namedview20"
     showgrid="false"
     inkscape:zoom="6.6880516"
     inkscape:cx="-15.631962"
     inkscape:cy="17.432134"
     inkscape:window-x="0"
     inkscape:window-y="24"
     inkscape:window-maximized="1"
     inkscape:current-layer="svg18"
     inkscape:document-rotation="0" />
  <rect
     fill="#9c6a9b"
     height="43"
     ry="1.452703"
     width="43"
     x="2"
     y="3"
     id="rect2"
     style="fill:#eacf8e;fill-opacity:1" />
  <path
     style="fill:#ffffff;fill-opacity:0.91386396;fill-rule:evenodd;stroke:none;stroke-width:0.0420871;stroke-linecap:square;stroke-dasharray:none;stroke-opacity:1;paint-order:stroke markers fill"
     d="m 18.934592,41.575827 c -3.282534,-0.702229 -6.056149,-3.289831 -7.109597,-6.632792 -0.340219,-1.079632 -0.436505,-1.756557 -0.436505,-3.06878 0,-1.38837 0.09311,-1.980682 0.527449,-3.355493 0.403748,-1.277957 0.46129,-1.730988 0.405678,-3.193779 -0.04104,-1.079504 -0.03195,-1.274846 0.06578,-1.413638 0.332238,-0.47182 1.119622,0.167415 2.150176,1.745614 0.286317,0.438475 0.594705,0.849145 0.685306,0.912604 0.26425,0.185087 0.470507,0.145715 0.614177,-0.117245 0.106769,-0.195416 0.12603,-0.404353 0.120418,-1.306276 -0.0056,-0.896077 -0.05018,-1.322256 -0.269692,-2.576763 -0.366556,-2.094837 -0.5253,-3.750931 -0.42577,-4.441813 0.08546,-0.593167 0.17317,-0.747499 0.424838,-0.747499 0.183045,0 0.428325,0.228625 1.448871,1.350481 0.918986,1.010215 1.566682,1.382803 2.396913,1.378834 1.393641,-0.0067 2.499355,-1.618149 2.864238,-4.17438 0.284919,-1.99604 0.197409,-3.85275 -0.311219,-6.6032291 -0.17452,-0.943743 -0.188516,-1.399833 -0.04296,-1.399833 0.138814,0 0.635192,0.385502 1.625885,1.262713 2.751277,2.4361211 3.947575,4.5591281 5.107476,9.0639671 0.411963,1.599991 0.52207,1.860503 0.891605,2.109532 0.45487,0.306537 0.986205,0.129086 1.543623,-0.515526 0.756315,-0.874624 0.864198,-0.969446 1.102987,-0.969446 0.611229,0 1.055779,1.066281 1.472158,3.531054 0.344131,2.037104 0.321395,2.555876 -0.133415,3.044072 -0.123275,0.132324 -0.680457,0.540063 -1.238184,0.906087 -0.557727,0.366024 -1.068732,0.748955 -1.135565,0.850956 -0.108784,0.166023 -0.110345,0.202512 -0.0149,0.348162 0.05863,0.08949 0.424695,0.33613 0.813469,0.548098 0.388776,0.211967 0.884017,0.483806 1.100536,0.604081 0.21652,0.120279 0.575866,0.397038 0.798546,0.615025 0.426932,0.417932 0.576641,0.74966 0.505731,1.120606 -0.0609,0.318565 -0.754829,0.947683 -1.483217,1.344684 -1.00466,0.547577 -1.719152,1.025411 -1.822765,1.219012 -0.142756,0.266742 0.02215,0.456142 0.722691,0.830055 0.738562,0.394209 1.249714,0.878112 1.319285,1.248952 0.109447,0.583392 -0.193045,1.113739 -1.174372,2.058979 -1.178415,1.135079 -1.84092,1.457413 -2.86703,1.394915 -0.7749,-0.04719 -1.24908,-0.216508 -3.15654,-1.127067 -1.781462,-0.850414 -1.887628,-0.885793 -2.521718,-0.840426 -0.432658,0.03094 -0.610484,0.09344 -1.367727,0.480613 -1.233105,0.630477 -2.225327,1.194319 -2.482507,1.410725 -0.319612,0.268936 -0.262161,0.434292 0.26926,0.774992 0.245617,0.157472 0.687512,0.440159 0.98199,0.628207 0.561346,0.358451 0.853386,0.670519 0.935529,0.999686 0.07311,0.292956 -0.311453,0.653063 -0.812058,0.760422 -0.539597,0.115724 -1.383093,0.09184 -2.088866,-0.05914 z m 6.193977,-7.12273 c 2.770189,-1.360921 2.956891,-1.731099 1.284157,-2.546097 -0.998197,-0.486345 -1.345373,-0.580473 -2.288819,-0.620557 -1.740475,-0.07395 -3.387489,0.428527 -4.34724,1.326262 -0.18757,0.17545 -0.341038,0.361023 -0.341038,0.412388 0,0.353125 3.443553,2.386451 3.865143,2.282263 0.09842,-0.02431 0.920928,-0.40874 1.827797,-0.854259 z"
     id="path90398" />
</svg>
