<?xml version="1.0" encoding="UTF-8" standalone="no"?>
<svg
   xmlns:dc="http://purl.org/dc/elements/1.1/"
   xmlns:cc="http://creativecommons.org/ns#"
   xmlns:rdf="http://www.w3.org/1999/02/22-rdf-syntax-ns#"
   xmlns:svg="http://www.w3.org/2000/svg"
   xmlns="http://www.w3.org/2000/svg"
   xmlns:sodipodi="http://sodipodi.sourceforge.net/DTD/sodipodi-0.dtd"
   xmlns:inkscape="http://www.inkscape.org/namespaces/inkscape"
   width="297mm"
   height="297mm"
   viewBox="0 0 297 297"
   version="1.1"
   id="svg8"
   inkscape:version="1.0.1 (3bc2e813f5, 2020-09-07)"
   sodipodi:docname="freeplane.svg">
  <defs
     id="defs2">
    <inkscape:path-effect
       effect="bspline"
       id="path-effect1853"
       is_visible="true"
       lpeversion="1"
       weight="33.333333"
       steps="2"
       helper_size="0"
       apply_no_weight="true"
       apply_with_weight="true"
       only_selected="false" />
    <inkscape:path-effect
       effect="bspline"
       id="path-effect1849"
       is_visible="true"
       lpeversion="1"
       weight="33.333333"
       steps="2"
       helper_size="0"
       apply_no_weight="true"
       apply_with_weight="true"
       only_selected="false" />
    <inkscape:path-effect
       effect="spiro"
       id="path-effect1845"
       is_visible="true"
       lpeversion="1" />
    <inkscape:path-effect
       effect="spiro"
       id="path-effect1831"
       is_visible="true"
       lpeversion="1" />
    <inkscape:path-effect
       effect="spiro"
       id="path-effect1827"
       is_visible="true"
       lpeversion="1" />
    <inkscape:path-effect
       effect="bspline"
       id="path-effect1823"
       is_visible="true"
       lpeversion="1"
       weight="33.333333"
       steps="2"
       helper_size="0"
       apply_no_weight="true"
       apply_with_weight="true"
       only_selected="false" />
    <inkscape:path-effect
       effect="bspline"
       id="path-effect1819"
       is_visible="true"
       lpeversion="1"
       weight="33.333333"
       steps="2"
       helper_size="0"
       apply_no_weight="true"
       apply_with_weight="true"
       only_selected="false" />
    <path
       id="Square_6_"
       d="M147.318,181.079L20.895,161.048c-6.546-1.037-11.011-7.184-9.974-13.73L30.952,20.895      c1.037-6.546,7.184-11.011,13.73-9.974l126.423,20.032c6.546,1.037,11.011,7.184,9.974,13.73l-20.032,126.423      C160.01,177.651,153.863,182.117,147.318,181.079z" />
    <path
       id="SVGID_1_"
       d="M171.956,31.132C171.51,24.911,166.334,20,160,20h-58.016l-57.301-9.079      c-6.256-0.991-12.136,3.049-13.551,9.123C24.911,20.49,20,25.666,20,32v58.016l-9.079,57.301      c-0.991,6.256,3.049,12.136,9.123,13.551C20.49,167.089,25.666,172,32,172h58.016l57.301,9.079      c6.256,0.991,12.136-3.049,13.551-9.123C167.089,171.51,172,166.334,172,160v-58.016l9.079-57.301      C182.071,38.426,178.03,32.546,171.956,31.132z" />
    <path
       id="Square_8_"
       d="M160,172H32c-6.627,0-12-5.373-12-12V32c0-6.627,5.373-12,12-12h128c6.627,0,12,5.373,12,12v128       C172,166.627,166.627,172,160,172z" />
    <path
       id="SVGID_3_"
       d="M181.076,147.323L172,90.019V32c0-6.333-4.909-11.507-11.128-11.956      c-1.416-6.072-7.295-10.111-13.549-9.12L90.019,20H32c-6.333,0-11.507,4.909-11.956,11.127      c-6.072,1.416-10.111,7.295-9.12,13.549L20,101.981V160c0,6.333,4.909,11.507,11.128,11.956      c1.416,6.072,7.295,10.111,13.549,9.12L101.981,172H160c6.333,0,11.507-4.909,11.956-11.128      C178.028,159.457,182.067,153.578,181.076,147.323z" />
    <path
       id="Square_4_"
       d="M171.101,161.053L44.677,181.076c-6.546,1.037-12.693-3.429-13.729-9.975L10.924,44.677      c-1.037-6.546,3.429-12.693,9.975-13.729l126.424-20.024c6.546-1.037,12.693,3.429,13.729,9.975l20.024,126.424      C182.113,153.869,177.647,160.016,171.101,161.053z" />
    <path
       id="SVGID_5_"
       d="M171.961,31.133c-0.001,0-0.002-0.001-0.003-0.001c0-0.001,0-0.002,0-0.003l-11.085-11.085     c0.066,0.282,0.134,0.564,0.18,0.855l1.375,8.678l1.307,8.251L172,90.019v0l0.948,5.984l8.132-51.32     c0.25-1.578,0.178-3.131-0.164-4.595L171.961,31.133z" />
  </defs>
  <sodipodi:namedview
     id="base"
     pagecolor="#ffffff"
     bordercolor="#666666"
     borderopacity="1.0"
     inkscape:pageopacity="0.0"
     inkscape:pageshadow="2"
     inkscape:zoom="0.3444962"
     inkscape:cx="426.88901"
     inkscape:cy="673.66691"
     inkscape:document-units="mm"
     inkscape:current-layer="layer1"
     inkscape:document-rotation="0"
     showgrid="false"
     inkscape:window-width="1431"
     inkscape:window-height="684"
     inkscape:window-x="62"
     inkscape:window-y="32"
     inkscape:window-maximized="0"
     showguides="true"
     inkscape:guide-bbox="true" />
  <metadata
     id="metadata5">
    <rdf:RDF>
      <cc:Work
         rdf:about="">
        <dc:format>image/svg+xml</dc:format>
        <dc:type
           rdf:resource="http://purl.org/dc/dcmitype/StillImage" />
        <dc:title></dc:title>
      </cc:Work>
    </rdf:RDF>
  </metadata>
  <g
     inkscape:label="Layer 1"
     inkscape:groupmode="layer"
     id="layer1">
    <rect
       style="fill:#5aba66;fill-opacity:1;stroke:#297b28;stroke-width:8.3;stroke-linejoin:round;paint-order:markers fill stroke;stroke-miterlimit:4;stroke-dasharray:none;stroke-opacity:1"
       id="rect1797"
       width="247.3714"
       height="248.34576"
       x="26.904747"
       y="25.745535"
       ry="23.524548" />
    <path
       style="fill:#1b241c;fill-opacity:1;stroke:#1b241c;stroke-width:0.263326px;stroke-linecap:butt;stroke-linejoin:miter;stroke-opacity:1"
       d="m 31.176262,124.43484 c 0,0 19.573868,-22.64759 31.979773,-33.841976 13.059288,-11.78396 42.979925,-30.524543 42.979925,-30.524543 0,0 -10.737824,21.659364 -14.692442,33.057598 -4.521888,13.033261 -9.245028,26.346141 -10.233774,40.118831 -1.121189,15.61756 2.012711,31.33683 4.985674,46.7053 2.861353,14.79152 6.749777,29.48451 12.306944,43.47323 4.476278,11.26786 11.598818,21.28607 16.802158,32.23139 2.92701,6.15704 12.30327,14.08444 12.30327,14.08444 0,0 -24.97747,0.85662 -49.162817,0.93392 -19.441538,0.0621 -35.058576,2.53266 -42.093868,-5.04409 -6.381949,-6.87312 -5.204874,-13.53415 -5.448487,-20.33827 -0.583133,-16.28695 0.241876,-23.39008 0.02114,-50.19328 -0.186613,-22.66022 0.252504,-70.66255 0.252504,-70.66255 z"
       id="path1815"
       sodipodi:nodetypes="cscssssscssssc" />
    <path
       style="fill:#bec856;fill-opacity:1;stroke:#bec856;stroke-width:0.258838px;stroke-linecap:butt;stroke-linejoin:miter;stroke-opacity:1"
       d="m 106.13596,60.068321 c 5.5776,-1.49862 11.15527,-2.997259 20.04255,-4.3636 8.88728,-1.366341 21.08358,-2.600349 35.38114,3.361252 14.29755,5.961601 30.69506,19.1178 43.47181,37.213401 12.77674,18.095606 21.93136,41.128356 24.02947,70.883996 2.09812,29.75563 -2.86043,66.2312 -7.81911,102.70772 0,0 -112.46289,0.13397 -112.46289,0.13397 0,0 0,0 0,0 C 102.72447,259.59424 96.670183,249.18372 89.975495,234.22966 83.280807,219.2756 75.946382,199.77945 71.946444,182.54198 67.946507,165.3045 67.281625,150.32748 69.506683,135.44057 71.731741,120.55365 76.846507,105.75814 83.433192,93.210901 90.019876,80.663662 98.077851,70.366077 106.13596,60.068321 Z"
       id="path1821"
       inkscape:path-effect="#path-effect1823"
       inkscape:original-d="m 106.13596,60.068321 c 0,0 11.15535,-2.996946 16.73279,-4.495859 12.19707,-1.233794 24.39337,-2.467801 36.58968,-3.702101 16.39875,13.157243 32.79626,26.313442 49.19448,39.470161 9.15543,23.034398 18.31004,46.067158 27.46494,69.101018 -4.95851,36.4775 -14.87603,109.42955 -14.87603,109.42955 l -112.46289,0.13397 v 0 c 0,0 -12.108664,-20.82139 -18.16338,-31.23246 C 83.28095,219.27555 75.946526,199.7794 68.611402,180.28183 67.946759,165.30449 67.281878,150.32747 66.616719,135.3499 71.73206,120.55376 76.846824,105.75825 81.961633,90.96159 90.020168,80.663891 106.13596,60.068321 106.13596,60.068321 Z"
       sodipodi:nodetypes="ccccccccccccc" />
    <path
       style="fill:none;stroke:#1b241c;stroke-width:3.876;stroke-linecap:butt;stroke-linejoin:miter;stroke-miterlimit:4;stroke-dasharray:none;stroke-opacity:1"
       d="m 184.71286,101.79232 c -2.09634,-5.826621 -2.44671,-12.26903 -0.99462,-18.288631 1.45209,-6.019601 4.70116,-11.59373 9.22343,-15.823768 4.09452,-3.82993 9.30125,-6.577371 14.86731,-7.250024 5.56606,-0.672652 11.4681,0.853397 15.67954,4.554373 2.10572,1.850488 3.76812,4.214608 4.73106,6.847307 0.96294,2.632699 1.21686,5.530659 0.65747,8.277557 -0.5594,2.746897 -1.93941,5.331391 -3.95974,7.274748 -2.02033,1.943356 -4.67867,3.227927 -7.4651,3.534811 -2.84436,0.313265 -5.83669,-0.427483 -8.06024,-2.228694 -1.11177,-0.900606 -2.02248,-2.053722 -2.61148,-3.357647 -0.589,-1.303924 -0.85243,-2.757723 -0.7262,-4.182926 0.20884,-2.357959 1.53831,-4.60733 3.54376,-5.865018 1.00272,-0.628844 2.1592,-1.012799 3.33969,-1.098451 1.18049,-0.08565 2.38273,0.128166 3.45711,0.624765 1.34348,0.620986 2.50084,1.724336 2.98932,3.121464 0.24423,0.698564 0.31724,1.459957 0.18241,2.1876 -0.13484,0.727642 -0.48062,1.41891 -1.00212,1.943964 -0.18822,0.189508 -0.39837,0.357226 -0.6249,0.498739"
       id="path1825"
       inkscape:path-effect="#path-effect1827"
       inkscape:original-d="m 184.71286,101.79232 c 2.74321,-11.370699 5.48615,-22.7415 8.22881,-34.112399 2.74266,-11.370901 16.34063,15.492618 24.51054,23.238772 8.16992,7.74617 -7.59834,-6.512742 -11.39792,-9.769267 -3.79958,-3.256525 6.89398,-4.225702 10.34056,-6.338704 3.44658,-2.113002 1.44668,4.835454 2.16961,7.253028 0.72294,2.417576 -0.41632,0.332589 -0.6249,0.498739" />
    <path
       style="fill:#1b241c;fill-opacity:1;stroke:#bec856;stroke-width:5.76514;stroke-linejoin:round;stroke-miterlimit:4;stroke-dasharray:none;stroke-opacity:1;paint-order:markers fill stroke"
       id="path1833"
       sodipodi:type="arc"
       sodipodi:cx="116.7297"
       sodipodi:cy="155.14148"
       sodipodi:rx="28.781706"
       sodipodi:ry="38.034008"
       sodipodi:start="6.1474685"
       sodipodi:end="6.1472416"
       sodipodi:open="true"
       sodipodi:arc-type="arc"
       d="m 145.24674,149.99546 a 28.781706,38.034008 0 0 1 -24.62124,42.83 28.781706,38.034008 0 0 1 -32.412406,-32.53368 28.781706,38.034008 0 0 1 24.617566,-42.83369 28.781706,38.034008 0 0 1 32.4152,32.52882"
       transform="rotate(-7.6487514)" />
    <path
       style="fill:#1b241c;fill-opacity:1;stroke:#bec856;stroke-width:0;stroke-linejoin:round;stroke-miterlimit:4;stroke-dasharray:none;stroke-opacity:1;paint-order:markers fill stroke"
       id="path1835"
       sodipodi:type="arc"
       sodipodi:cx="180.42232"
       sodipodi:cy="179.63472"
       sodipodi:rx="19.766796"
       sodipodi:ry="24.258518"
       sodipodi:start="6.1474685"
       sodipodi:end="6.1472416"
       sodipodi:open="true"
       sodipodi:arc-type="arc"
       d="m 200.00735,176.35253 a 19.766796,24.258518 0 0 1 -16.90946,27.31746 19.766796,24.258518 0 0 1 -22.2603,-20.75035 19.766796,24.258518 0 0 1 16.90694,-27.31981 19.766796,24.258518 0 0 1 22.26221,20.74725"
       transform="matrix(0.98355506,-0.18060853,0.1658169,0.98615656,0,0)" />
    <path
       style="fill:#ebeeeb;fill-opacity:1;stroke:#bec856;stroke-width:0;stroke-linejoin:round;stroke-miterlimit:4;stroke-dasharray:none;stroke-opacity:1;paint-order:markers fill stroke"
       id="path1839"
       sodipodi:type="arc"
       sodipodi:cx="141.76331"
       sodipodi:cy="146.31757"
       sodipodi:rx="6.4002914"
       sodipodi:ry="6.5391655"
       sodipodi:start="6.1474685"
       sodipodi:end="6.1472416"
       sodipodi:open="true"
       sodipodi:arc-type="arc"
       d="m 148.10474,145.43281 a 6.4002914,6.5391655 0 0 1 -5.47511,7.36374 6.4002914,6.5391655 0 0 1 -7.20766,-5.5935 6.4002914,6.5391655 0 0 1 5.47429,-7.36437 6.4002914,6.5391655 0 0 1 7.20829,5.59266" />
    <path
       style="fill:#ebeeeb;fill-opacity:1;stroke:#bec856;stroke-width:0;stroke-linejoin:round;stroke-miterlimit:4;stroke-dasharray:none;stroke-opacity:1;paint-order:markers fill stroke"
       id="path1841"
       sodipodi:type="arc"
       sodipodi:cx="209.42781"
       sodipodi:cy="143.53018"
       sodipodi:rx="5.4900918"
       sodipodi:ry="5.7422233"
       sodipodi:start="6.1474685"
       sodipodi:end="6.1472416"
       sodipodi:open="true"
       sodipodi:arc-type="arc"
       d="m 214.86742,142.75326 a 5.4900918,5.7422233 0 0 1 -4.69649,6.4663 5.4900918,5.7422233 0 0 1 -6.18264,-4.91181 5.4900918,5.7422233 0 0 1 4.69578,-6.46686 5.4900918,5.7422233 0 0 1 6.18318,4.91107" />
    <path
       style="fill:none;stroke:#1b241c;stroke-width:4.73835;stroke-linecap:butt;stroke-linejoin:miter;stroke-miterlimit:4;stroke-dasharray:none;stroke-opacity:1"
       d="m 158.6746,101.41116 c 3.17691,-7.367834 3.99383,-15.732208 2.30254,-23.575503 -1.6913,-7.843295 -5.88265,-15.127706 -11.8136,-20.531559 -5.29566,-4.825028 -12.0654,-8.172009 -19.20595,-8.752897 -7.14056,-0.580888 -14.60595,1.772141 -19.6695,6.840217 -2.53177,2.534038 -4.43831,5.703517 -5.40402,9.152959 -0.9657,3.449442 -0.97801,7.17292 0.0508,10.604058 1.02884,3.431138 3.10697,6.553375 5.93048,8.757693 2.82351,2.204318 6.38628,3.46723 9.96829,3.445513 3.40335,-0.02063 6.82782,-1.228519 9.33731,-3.527584 2.50949,-2.299064 4.03004,-5.70608 3.83668,-9.103999 -0.16161,-2.839946 -1.55518,-5.631454 -3.86114,-7.296977 -1.15298,-0.832761 -2.51518,-1.379583 -3.92765,-1.546274 -1.41247,-0.16669 -2.87215,0.05042 -4.16308,0.647359 -1.71084,0.791111 -3.11619,2.286919 -3.65146,4.094211 -0.26764,0.903646 -0.31825,1.873322 -0.12565,2.79588 0.19259,0.922558 0.63015,1.795533 1.26943,2.488015 0.21927,0.237518 0.46152,0.453808 0.72227,0.644865"
       id="path1843"
       inkscape:path-effect="#path-effect1845"
       inkscape:original-d="m 158.6746,101.41116 c -3.17067,-14.702229 -6.34102,-29.404582 -9.51106,-44.107062 -3.17003,-14.702483 -18.88688,20.031829 -28.32986,30.047543 -9.44299,10.015735 8.78234,-8.420922 13.17399,-12.631583 4.39164,-4.21066 -7.96823,-5.463798 -11.95187,-8.195892 -3.98364,-2.732095 -1.67211,6.252202 -2.50768,9.378106 -0.8356,3.125906 0.48119,0.430035 0.72227,0.644865" />
    <path
       style="fill:none;stroke:#1b241c;stroke-width:5.265;stroke-linecap:butt;stroke-linejoin:miter;stroke-miterlimit:4;stroke-dasharray:none;stroke-opacity:1"
       d="m 84.556213,164.1921 c 9.348658,15.5287 18.697127,31.05709 31.163457,42.8056 12.46632,11.7485 28.04973,19.71696 44.14672,22.97701 16.09699,3.26005 32.70664,1.81178 44.86386,-2.69728 12.15721,-4.50906 19.86157,-12.07859 28.51276,-23.04567 8.6512,-10.96709 18.24874,-25.33106 27.84651,-39.69538"
       id="path1851"
       inkscape:path-effect="#path-effect1853"
       inkscape:original-d="m 84.556213,164.1921 c 9.348737,15.52865 18.697207,31.05704 28.045417,46.58517 15.58431,7.96903 31.16772,15.93749 46.75119,23.90584 16.61058,-1.44807 33.22024,-2.89633 49.82996,-4.3449 7.70494,-7.56957 15.4093,-15.1391 23.11355,-22.70905 9.59819,-14.36428 19.19573,-28.72826 28.79319,-43.09278" />
  </g>
</svg>
