<?xml version="1.0" encoding="UTF-8" standalone="no"?>
<!DOCTYPE svg PUBLIC "-//W3C//DTD SVG 1.1//EN" "http://www.w3.org/Graphics/SVG/1.1/DTD/svg11.dtd">
<svg version="1.1" xmlns="http://www.w3.org/2000/svg" xmlns:xlink="http://www.w3.org/1999/xlink" preserveAspectRatio="xMidYMid meet" viewBox="0 0 640 640" width="64" height="64"><defs><path d="M511.89 37.52C558.46 37.52 596.21 75.28 596.21 121.85C596.21 217.52 596.21 413.76 596.21 507.82C596.21 558.84 554.85 600.2 503.83 600.2C412.28 600.2 222.91 600.2 129.59 600.2C83.46 600.2 46.06 562.81 46.06 516.68C46.06 420.85 46.06 214.3 46.06 117.82C46.06 73.47 82.02 37.52 126.37 37.52C220.34 37.52 418.72 37.52 511.89 37.52Z" id="b1JyyyNzBR"></path><path d="M502.15 51.83C546.28 51.83 582.04 87.59 582.04 131.72C582.04 222.35 582.04 408.26 582.04 497.37C582.04 545.71 542.86 584.89 494.52 584.89C407.69 584.89 228.01 584.89 139.5 584.89C95.79 584.89 60.37 549.46 60.37 505.76C60.37 414.98 60.37 219.3 60.37 127.9C60.37 85.89 94.43 51.83 136.44 51.83C225.56 51.83 413.8 51.83 502.15 51.83Z" id="e4DWEKMqRw"></path><path d="M187.17 46.13L428.91 46.13L428.91 201.31L187.17 201.31L187.17 46.13Z" id="aYRxjshL9"></path><path d="M143.89 178.63L215.91 178.63L215.91 589.45L143.89 589.45L143.89 178.63Z" id="aijrGyw9s"></path><path d="M183.62 264.32L425.36 264.32L425.36 409.25L183.62 409.25L183.62 264.32Z" id="aJ2DMwo3r"></path><path d="M203.38 51.83L203.38 584.89C168.99 584.89 147.49 584.89 138.89 584.89C93.21 584.89 56.18 547.86 56.18 502.18C56.18 412.11 56.18 214.3 56.18 121.65C56.18 83.09 87.44 51.83 126 51.83C136.32 51.83 162.11 51.83 203.38 51.83Z" id="dAtayUsP0"></path><path d="M198.56 51.83L415.24 51.83L415.24 187.64L198.56 187.64L198.56 51.83Z" id="a85GyBi4V"></path><path d="M198.56 277.72L410.42 277.72L410.42 394.17L198.56 394.17L198.56 277.72Z" id="cIbNJJ1w0"></path></defs><g><g><g><use xlink:href="#b1JyyyNzBR" opacity="1" fill="#515051" fill-opacity="1"></use></g><g><use xlink:href="#e4DWEKMqRw" opacity="1" fill="#d2d2d2" fill-opacity="1"></use></g><g><use xlink:href="#aYRxjshL9" opacity="1" fill="#515051" fill-opacity="1"></use></g><g><use xlink:href="#aijrGyw9s" opacity="1" fill="#515051" fill-opacity="1"></use></g><g><use xlink:href="#aJ2DMwo3r" opacity="1" fill="#515051" fill-opacity="1"></use></g><g><use xlink:href="#dAtayUsP0" opacity="1" fill="#bdb13a" fill-opacity="1"></use></g><g><use xlink:href="#a85GyBi4V" opacity="1" fill="#bdb13a" fill-opacity="1"></use></g><g><use xlink:href="#cIbNJJ1w0" opacity="1" fill="#bdb13a" fill-opacity="1"></use></g></g></g></svg>