<?xml version="1.0" encoding="UTF-8" standalone="no"?>
<svg
   xmlns:dc="http://purl.org/dc/elements/1.1/"
   xmlns:cc="http://creativecommons.org/ns#"
   xmlns:rdf="http://www.w3.org/1999/02/22-rdf-syntax-ns#"
   xmlns:svg="http://www.w3.org/2000/svg"
   xmlns="http://www.w3.org/2000/svg"
   xmlns:sodipodi="http://sodipodi.sourceforge.net/DTD/sodipodi-0.dtd"
   xmlns:inkscape="http://www.inkscape.org/namespaces/inkscape"
   inkscape:export-ydpi="172.32001"
   inkscape:export-xdpi="172.32001"
   inkscape:export-filename="/home/tio/Pictures/webapps icons/friendica.png"
   inkscape:version="1.0 (4035a4fb49, 2020-05-01)"
   sodipodi:docname="friendica_icon_146178.svg"
   id="svg10"
   xml:space="preserve"
   style="enable-background:new 0 0 1024 1024;"
   viewBox="0 0 1024 1024"
   y="0px"
   x="0px"
   version="1.1"><metadata
   id="metadata16"><rdf:RDF><cc:Work
       rdf:about=""><dc:format>image/svg+xml</dc:format><dc:type
         rdf:resource="http://purl.org/dc/dcmitype/StillImage" /></cc:Work></rdf:RDF></metadata><defs
   id="defs14" /><sodipodi:namedview
   inkscape:current-layer="Icon"
   inkscape:window-maximized="1"
   inkscape:window-y="32"
   inkscape:window-x="70"
   inkscape:cy="922.13244"
   inkscape:cx="422.86686"
   inkscape:zoom="0.57176212"
   showgrid="false"
   id="namedview12"
   inkscape:window-height="1048"
   inkscape:window-width="1850"
   inkscape:pageshadow="2"
   inkscape:pageopacity="0"
   guidetolerance="10"
   gridtolerance="10"
   objecttolerance="10"
   borderopacity="1"
   bordercolor="#666666"
   pagecolor="#ffffff" />
<style
   id="style2"
   type="text/css">
	.st0{fill:#FEBF19;}
	.st1{fill:#FFFFFF;}
</style>
<g
   id="Guides">
</g>
<g
   id="Icon">
	<circle
   style="fill:#f1d17d;fill-opacity:1"
   id="circle5"
   r="512"
   cy="512"
   cx="512"
   class="st0" />
	<path
   style="fill:#ba8b25;fill-opacity:1"
   id="path7"
   d="M281.2,363.1v297.8c0,46.2,37.2,83.7,83.1,83.7h295.4c45.9,0,83.1-37.6,83.1-83.7V363.1   c0-46.2-37.2-83.7-83.1-83.7H364.3C318.4,279.3,281.2,316.9,281.2,363.1z M659.7,297.9c35.9,0,64.6,28.9,64.6,65.2v297.8   c0,36.3-28.7,65.2-64.6,65.2H438.2V614.4h147.7L585.5,503l-147.3,0.8v-94.2h147.7V297.9L659.7,297.9z"
   class="st1" />
</g>
</svg>
