<?xml version="1.0" encoding="UTF-8" standalone="no"?>
<!DOCTYPE svg PUBLIC "-//W3C//DTD SVG 1.1//EN" "http://www.w3.org/Graphics/SVG/1.1/DTD/svg11.dtd">
<svg version="1.1" xmlns="http://www.w3.org/2000/svg" xmlns:xlink="http://www.w3.org/1999/xlink" preserveAspectRatio="xMidYMid meet" viewBox="0 0 640 640" width="64" height="64"><defs><path d="M592.93 319.43C592.93 474.47 469.87 600.34 318.29 600.34C166.71 600.34 43.65 474.47 43.65 319.43C43.65 164.4 166.71 38.53 318.29 38.53C469.87 38.53 592.93 164.4 592.93 319.43Z" id="eO0JyT6oJ"></path><path d="M445.86 229.77C445.86 276.29 389.72 314.06 320.57 314.06C251.42 314.06 195.28 276.29 195.28 229.77C195.28 183.25 251.42 145.49 320.57 145.49C389.72 145.49 445.86 183.25 445.86 229.77Z" id="a2uGi7f7qq"></path><path d="M286.97 145.73C286.97 162.78 272.12 176.62 253.84 176.62C235.56 176.62 220.71 162.78 220.71 145.73C220.71 128.68 235.56 114.84 253.84 114.84C272.12 114.84 286.97 128.68 286.97 145.73Z" id="awKA31SXj"></path><path d="M414.34 145.73C414.34 162.78 399.5 176.62 381.21 176.62C362.93 176.62 348.09 162.78 348.09 145.73C348.09 128.68 362.93 114.84 381.21 114.84C399.5 114.84 414.34 128.68 414.34 145.73Z" id="dHyejPTeM"></path><path d="M427.64 400.47C427.64 451.61 378.59 493.13 318.17 493.13C257.76 493.13 208.71 451.61 208.71 400.47C208.71 349.33 257.76 307.8 318.17 307.8C378.59 307.8 427.64 349.33 427.64 400.47Z" id="aPW6zyMmR"></path><path d="M234.71 298.16L274.5 308.03L259.63 367.99L219.83 358.12L234.71 298.16Z" id="aS5Gi9PHl"></path><path d="M376.76 370.45L416.55 360.58L401.68 300.62L361.88 310.49L376.76 370.45Z" id="a1lrzDgEAO"></path><path d="M177.36 370.05L221.32 360.27L245.82 470.37L201.85 480.15L177.36 370.05Z" id="a7cfvB5yQZ"></path><path d="M389.22 467.59L433.18 477.37L457.68 367.27L413.71 357.49L389.22 467.59Z" id="djXZElO7G"></path><path d="M242.52 462.5L242.52 497.81L185.15 497.81C185.15 495.91 185.15 494.72 185.15 494.24C185.15 476.71 199.36 462.5 216.89 462.5C220.31 462.5 228.85 462.5 242.52 462.5Z" id="c21T2eThEd"></path><path d="M394.76 462.5L394.76 497.81L452.13 497.81C452.13 495.91 452.13 494.72 452.13 494.24C452.13 476.71 437.92 462.5 420.39 462.5C416.97 462.5 408.43 462.5 394.76 462.5Z" id="dPaGHZeM7"></path><path d="M460.31 400.15C465.28 378.26 459.07 366.58 452.96 360.64C446.28 354.13 436.41 351.32 424.74 352.46C421.54 334.74 417.17 315.82 412.27 295.97C436.67 278.98 451.82 255.41 451.82 229.41C451.82 204.46 437.7 180.58 412.86 163.11C422.95 146.22 416.96 124.61 399.48 114.86C382.01 105.1 359.65 110.89 349.56 127.79C347.73 130.86 346.38 134.18 345.57 137.64C327.72 135.11 309.58 135.11 291.72 137.64C287.28 118.61 267.71 106.66 248.01 110.95C228.32 115.25 215.96 134.17 220.4 153.21C221.22 156.68 222.57 160.02 224.41 163.1C199.59 180.58 185.47 204.46 185.47 229.41C185.47 255.41 200.62 278.98 225.03 295.97C220.12 315.83 215.75 334.75 212.55 352.47C200.88 351.35 190.99 354.15 184.33 360.64C178.22 366.58 172.01 378.26 176.98 400.15C184.23 432.05 190.93 457.15 193.86 467.82C181.92 472.46 175.19 483.74 175.19 499.69C175.18 502.91 177.87 505.52 181.2 505.53C181.21 505.53 181.22 505.53 181.23 505.53C187.67 505.53 239.26 505.53 245.71 505.53C249.04 505.53 251.74 502.92 251.74 499.7C251.74 499.29 251.7 498.89 251.61 498.49C250.53 493.58 249.67 488.32 249 482.81C249.3 482.96 249.59 483.12 249.89 483.26C250.1 483.37 250.32 483.48 250.54 483.56C267.72 491.62 290 495.52 318.65 495.52C347.14 495.52 369.3 491.65 386.41 483.7C386.83 483.56 387.24 483.37 387.62 483.14C387.84 483.03 388.05 482.92 388.27 482.81C387.61 488.25 386.76 493.5 385.68 498.49C384.99 501.64 387.08 504.74 390.34 505.4C390.75 505.49 391.17 505.53 391.59 505.53C398.03 505.53 449.62 505.53 456.07 505.53C459.4 505.54 462.1 502.93 462.11 499.72C462.11 499.71 462.11 499.7 462.11 499.69C462.11 483.74 455.38 472.46 443.43 467.82C446.37 457.15 453.06 432.05 460.31 400.15ZM405.72 145.49C405.72 158.57 394.75 169.18 381.21 169.18C367.68 169.18 356.7 158.57 356.7 145.49C356.7 145.49 356.7 145.49 356.7 145.49C356.7 132.4 367.68 121.79 381.21 121.79C394.75 121.79 405.72 132.4 405.72 145.49ZM280.59 145.49C280.59 158.57 269.62 169.18 256.08 169.18C242.54 169.18 231.57 158.57 231.57 145.49C231.57 132.4 242.54 121.79 256.08 121.79C269.62 121.79 280.59 132.4 280.59 145.49ZM232.15 172.15C247.36 184.95 270.42 183.4 283.66 168.7C288.55 163.27 291.6 156.53 292.41 149.38C309.8 146.79 327.49 146.79 344.88 149.38C347.07 168.75 365.09 182.74 385.13 180.62C392.55 179.84 399.53 176.88 405.15 172.15C427.19 187.43 439.74 208.08 439.74 229.41C439.74 274.63 385.42 311.43 318.65 311.43C251.88 311.43 197.55 274.63 197.55 229.41C197.55 208.08 210.1 187.43 232.15 172.15ZM318.65 323.1C347.63 323.41 376.2 316.36 401.49 302.68C420.9 381.84 430.47 440.86 391.24 467.56C391.32 465.63 391.42 463.71 391.42 461.77C391.42 404.98 358.76 358.78 318.63 358.78C278.49 358.78 245.86 404.98 245.86 461.77C245.86 463.71 245.96 465.62 246.04 467.55C206.82 440.9 216.38 381.86 235.8 302.68C261.1 316.37 289.66 323.41 318.65 323.1ZM187.68 493.85C189.03 484.51 193.96 479.07 202.35 477.57C204.01 477.27 205.47 476.32 206.36 474.93C207.26 473.54 207.52 471.85 207.08 470.26C206.98 469.96 198.38 439.79 188.79 397.62C185.82 384.57 187.27 374.36 192.93 368.89C197.77 364.79 204.25 363 210.6 363.99C202.93 413.54 206.25 452.62 236.1 475.01C236.64 481.56 237.36 487.9 238.42 493.85C238.43 493.85 192.76 493.85 187.68 493.85ZM257.96 461.77C257.94 411.42 285.16 370.46 318.65 370.46C352.13 370.46 379.35 411.42 379.35 461.77C379.35 466 379.09 470.16 378.7 474.25C363.52 480.67 343.88 483.84 318.65 483.84C293.41 483.84 273.77 480.67 258.58 474.23C258.21 470.15 257.96 465.99 257.96 461.77ZM398.87 493.85C399.93 487.84 400.68 481.5 401.21 474.98C431.05 452.59 434.36 413.52 426.7 363.98C433.04 362.99 439.51 364.78 444.37 368.85C450.03 374.36 451.48 384.57 448.51 397.65C438.91 439.79 430.32 469.96 430.21 470.26C429.77 471.85 430.03 473.54 430.94 474.93C431.83 476.32 433.28 477.27 434.94 477.57C443.33 479.07 448.27 484.51 449.61 493.85C439.46 493.85 409.02 493.85 398.87 493.85Z" id="c208Y0xrYK"></path><path d="M248.58 339.31C249.27 336.15 247.18 333.05 243.91 332.39C240.65 331.72 237.44 333.74 236.76 336.89C236.75 336.91 236.75 336.92 236.75 336.93C234.61 346.87 232.92 355.62 231.57 363.68C231.04 366.86 233.27 369.86 236.57 370.38C236.89 370.43 237.21 370.45 237.54 370.45C240.5 370.45 243.02 368.37 243.49 365.55C244.82 357.66 246.48 349.07 248.58 339.31Z" id="dp1ou1bY2"></path><path d="M393.88 145.49C393.88 152.79 388.2 158.72 381.21 158.72C374.22 158.72 368.55 152.79 368.55 145.49C368.55 138.18 374.22 132.25 381.21 132.25C388.2 132.25 393.88 138.18 393.88 145.49Z" id="d5cMtwLY3v"></path><path d="M268.74 145.49C268.74 152.79 263.07 158.72 256.08 158.72C249.09 158.72 243.42 152.79 243.42 145.49C243.42 138.18 249.09 132.25 256.08 132.25C263.07 132.25 268.74 138.18 268.74 145.49Z" id="a7rpfbyrb"></path><path d="M272.48 145.49C272.48 136.73 265.14 129.64 256.08 129.64C247.03 129.64 239.68 136.73 239.68 145.49C239.7 154.23 247.03 161.32 256.08 161.34C265.14 161.34 272.48 154.24 272.48 145.49ZM260.4 145.49C260.4 147.79 258.46 149.66 256.08 149.66C253.7 149.66 251.77 147.79 251.77 145.49C251.77 143.18 253.7 141.32 256.08 141.31C258.46 141.31 260.4 143.18 260.4 145.49Z" id="a4QIisryNR"></path><path d="M397.61 145.49C397.61 136.73 390.27 129.64 381.21 129.64C372.16 129.64 364.82 136.73 364.82 145.49C364.83 154.23 372.16 161.32 381.21 161.34C390.27 161.34 397.61 154.24 397.61 145.49ZM385.53 145.49C385.53 147.79 383.6 149.66 381.21 149.66C378.83 149.66 376.9 147.79 376.9 145.49C376.9 143.18 378.83 141.32 381.21 141.31C383.6 141.31 385.53 143.18 385.53 145.49Z" id="c2dqaaG0Gj"></path><path d="M415 228.83C412.77 226.44 408.95 226.25 406.47 228.41C382.54 249.64 351.12 261.23 318.65 260.83C286.17 261.23 254.75 249.64 230.82 228.41C228.36 226.23 224.54 226.41 222.29 228.79C220.04 231.17 220.22 234.87 222.69 237.04C222.7 237.05 222.72 237.07 222.74 237.08C248.87 260.27 283.17 272.95 318.65 272.51C354.12 272.95 388.43 260.27 414.56 237.08C417.04 234.92 417.23 231.23 415 228.83Z" id="f11GJJoLiH"></path></defs><g><g><g><use xlink:href="#eO0JyT6oJ" opacity="1" fill="#b7834a" fill-opacity="1"></use></g><g><use xlink:href="#a2uGi7f7qq" opacity="1" fill="#55814c" fill-opacity="1"></use></g><g><use xlink:href="#awKA31SXj" opacity="1" fill="#574224" fill-opacity="1"></use></g><g><use xlink:href="#dHyejPTeM" opacity="1" fill="#574224" fill-opacity="1"></use></g><g><use xlink:href="#aPW6zyMmR" opacity="1" fill="#55814c" fill-opacity="1"></use></g><g><use xlink:href="#aS5Gi9PHl" opacity="1" fill="#55814c" fill-opacity="1"></use></g><g><use xlink:href="#a1lrzDgEAO" opacity="1" fill="#55814c" fill-opacity="1"></use></g><g><use xlink:href="#a7cfvB5yQZ" opacity="1" fill="#55814c" fill-opacity="1"></use></g><g><use xlink:href="#djXZElO7G" opacity="1" fill="#55814c" fill-opacity="1"></use></g><g><use xlink:href="#c21T2eThEd" opacity="1" fill="#55814c" fill-opacity="1"></use></g><g><use xlink:href="#dPaGHZeM7" opacity="1" fill="#55814c" fill-opacity="1"></use></g><g><use xlink:href="#c208Y0xrYK" opacity="1" fill="#151515" fill-opacity="1"></use><g><use xlink:href="#c208Y0xrYK" opacity="1" fill-opacity="0" stroke="#000000" stroke-width="0" stroke-opacity="0"></use></g></g><g><use xlink:href="#dp1ou1bY2" opacity="1" fill="#151515" fill-opacity="1"></use><g><use xlink:href="#dp1ou1bY2" opacity="1" fill-opacity="0" stroke="#000000" stroke-width="1" stroke-opacity="0"></use></g></g><g><use xlink:href="#d5cMtwLY3v" opacity="1" fill="#5dc0bc" fill-opacity="1"></use></g><g><use xlink:href="#a7rpfbyrb" opacity="1" fill="#5dc0bc" fill-opacity="1"></use></g><g><use xlink:href="#a4QIisryNR" opacity="1" fill="#151515" fill-opacity="1"></use><g><use xlink:href="#a4QIisryNR" opacity="1" fill-opacity="0" stroke="#000000" stroke-width="1" stroke-opacity="0"></use></g></g><g><use xlink:href="#c2dqaaG0Gj" opacity="1" fill="#151515" fill-opacity="1"></use><g><use xlink:href="#c2dqaaG0Gj" opacity="1" fill-opacity="0" stroke="#000000" stroke-width="1" stroke-opacity="0"></use></g></g><g><use xlink:href="#f11GJJoLiH" opacity="1" fill="#151515" fill-opacity="1"></use><g><use xlink:href="#f11GJJoLiH" opacity="1" fill-opacity="0" stroke="#000000" stroke-width="1" stroke-opacity="0"></use></g></g></g></g></svg>