<?xml version="1.0" encoding="UTF-8" standalone="no"?>
<svg
   xmlns:dc="http://purl.org/dc/elements/1.1/"
   xmlns:cc="http://creativecommons.org/ns#"
   xmlns:rdf="http://www.w3.org/1999/02/22-rdf-syntax-ns#"
   xmlns:svg="http://www.w3.org/2000/svg"
   xmlns="http://www.w3.org/2000/svg"
   xmlns:sodipodi="http://sodipodi.sourceforge.net/DTD/sodipodi-0.dtd"
   xmlns:inkscape="http://www.inkscape.org/namespaces/inkscape"
   width="100%"
   height="100%"
   viewBox="0 0 2048 2048"
   version="1.1"
   xml:space="preserve"
   style="fill-rule:evenodd;clip-rule:evenodd;stroke-linejoin:round;stroke-miterlimit:2;"
   id="svg67"
   sodipodi:docname="gcompris-qt.svg"
   inkscape:version="0.92.4 5da689c313, 2019-01-14"><metadata
   id="metadata73"><rdf:RDF><cc:Work
       rdf:about=""><dc:format>image/svg+xml</dc:format><dc:type
         rdf:resource="http://purl.org/dc/dcmitype/StillImage" /></cc:Work></rdf:RDF></metadata><defs
   id="defs71" /><sodipodi:namedview
   pagecolor="#ffffff"
   bordercolor="#666666"
   borderopacity="1"
   objecttolerance="10"
   gridtolerance="10"
   guidetolerance="10"
   inkscape:pageopacity="0"
   inkscape:pageshadow="2"
   inkscape:window-width="1850"
   inkscape:window-height="1048"
   id="namedview69"
   showgrid="false"
   inkscape:zoom="0.11523438"
   inkscape:cx="1024"
   inkscape:cy="1024"
   inkscape:window-x="70"
   inkscape:window-y="32"
   inkscape:window-maximized="1"
   inkscape:current-layer="svg67" />
    <g
   transform="matrix(1.2246514,0,0,1.2246514,-179.05572,-165.99071)"
   id="g4">
        <path
   d="m 1739.42,302.114 c 0,-51.244 -41.54,-92.786 -92.78,-92.786 H 325.691 c -51.244,0 -92.786,41.542 -92.786,92.786 V 1623.06 c 0,51.25 41.542,92.79 92.786,92.79 H 1646.64 c 51.24,0 92.78,-41.54 92.78,-92.79 z"
   style="fill:#ffb688"
   id="path2"
   inkscape:connector-curvature="0" />
    </g>
    <g
   transform="matrix(1.2246514,0,0,1.2246514,-192.26799,-263.31241)"
   id="g22">
        <g
   transform="translate(-37.8693,-8.5396)"
   id="g8">
            <rect
   x="984.60797"
   y="1355.08"
   width="77.261002"
   height="97.613998"
   style="fill:#e1844a"
   id="rect6" />
        </g>
        <g
   transform="matrix(0.906651,0,0,1.31912,93.9141,-475.279)"
   id="g12">
            <path
   d="m 1325.27,1518.2 c 0,-40.89 -48.23,-74.05 -107.73,-74.05 -128.59,0 -342.334,0 -470.923,0 -59.496,0 -107.728,33.16 -107.728,74.05 0,0 0,0 0,0 0,0.43 0.251,0.85 0.698,1.16 0.447,0.3 1.053,0.48 1.685,0.48 42.473,0 639.138,0 681.618,0 0.63,0 1.23,-0.18 1.68,-0.48 0.45,-0.31 0.7,-0.73 0.7,-1.16 0,0 0,0 0,0 z"
   style="fill:#e1844a"
   id="path10"
   inkscape:connector-curvature="0" />
        </g>
        <g
   transform="matrix(0.924089,0,0,0.988168,37.9862,5.60625)"
   id="g16">
            <path
   d="m 666.778,480.185 c -1.65,-1.651 -3.962,-2.581 -6.378,-2.567 -2.416,0.014 -4.716,0.972 -6.343,2.641 -206.964,213.809 -204.849,554.921 6.352,766.121 211.468,211.47 553.171,213.32 766.921,5.56 3.18,-3.1 3.21,-7.99 0.07,-11.13 -47.34,-47.34 -380.71,-380.712 -380.71,-380.712 0,0 -329.733,-329.734 -379.912,-379.913 z m 8.131,127.141 c -146.292,146.292 -124.751,405.014 48.112,577.884 172.863,172.86 431.589,194.4 577.879,48.11 L 987.906,920.322 Z"
   style="fill:#e1844a"
   id="path14"
   inkscape:connector-curvature="0" />
        </g>
        <g
   transform="translate(-58.6226,-177.46)"
   id="g20">
            <circle
   cx="1073.23"
   cy="1036.11"
   r="385.11099"
   style="fill:#e1844a"
   id="circle18" />
        </g>
    </g>
    <g
   transform="matrix(1.2246514,0,0,1.2246514,-245.58905,-245.44675)"
   id="g36">
        <g
   transform="matrix(-0.234427,-1.38559,1.23639,-0.209184,-926.962,3061.63)"
   id="g26">
            <path
   d="m 1306.45,1653.63 149.07,88.18 -149.07,88.18 -149.07,-88.18 z"
   style="fill:#ffb688"
   id="path24"
   inkscape:connector-curvature="0" />
        </g>
        <g
   transform="matrix(1.05531,-0.92798,0.828056,0.941672,-1689.52,533.423)"
   id="g30">
            <path
   d="m 1306.45,1653.63 149.07,88.18 -149.07,88.18 -149.07,-88.18 z"
   style="fill:#ffb688"
   id="path28"
   inkscape:connector-curvature="0" />
        </g>
        <g
   transform="matrix(1.32756,0.460874,-0.411248,1.18461,74.0188,-1927.03)"
   id="g34">
            <path
   d="m 1306.45,1653.63 149.07,88.18 -149.07,88.18 -149.07,-88.18 z"
   style="fill:#ffb688"
   id="path32"
   inkscape:connector-curvature="0" />
        </g>
    </g>
    <g
   transform="matrix(0.37199398,0.04338989,-0.04338989,0.37199398,731.02803,273.68436)"
   id="g40">
        <path
   d="m 1085.3,668.575 c 52.47,0 100.96,17.166 140.15,46.184 4.23,3.134 12.37,9.81 12.37,9.81 l -104.34,101.109 c 0,0 -16.59,-19.588 -38.28,-15.477 -25.29,4.794 -40.74,12.068 -57.45,30.744 -29.28,32.738 -28.59,76.223 -17.38,109.919 12.82,38.527 99.9,87.176 139.45,39.955 11.41,-13.617 -5.41,-39.454 -5.41,-39.454 l -25.3,2.443 -32.93,-44.959 201.94,-61.516 c 0,0 1.67,9.35 1.73,21.488 0.1,19.025 -1.39,42.856 -0.98,56.565 1.34,44.552 5.42,57.537 -4.65,88.614 -26.15,80.7 -118.26,126.33 -208.92,126.33 -57.94,0 -117.08,-13.98 -158.158,-48.69 -51.225,-43.28 -77.72,-114.937 -77.72,-187.185 0,-62.976 25.321,-116.364 65.594,-158.686 10.108,-10.622 21.163,-20.518 33.034,-29.441 38.606,-29.019 85.85,-47.753 137.25,-47.753 z"
   style="fill:#b46737"
   id="path38"
   inkscape:connector-curvature="0" />
    </g>
    <g
   id="Layer1"
   transform="matrix(1.2246514,0,0,1.2246514,-247.02877,-243.47735)">
        <g
   transform="rotate(19.527308,2191.2397,122.91858)"
   id="g44">
            <ellipse
   cx="1208.7"
   cy="1192.42"
   rx="16.462"
   ry="30.951"
   style="fill:#e1844a"
   id="ellipse42" />
        </g>
        <g
   transform="rotate(19.527308,2008.9826,317.96091)"
   id="g48">
            <ellipse
   cx="1208.7"
   cy="1192.42"
   rx="16.462"
   ry="30.951"
   style="fill:#e1844a"
   id="ellipse46" />
        </g>
        <g
   transform="rotate(19.527308,1905.6983,73.943466)"
   id="g52">
            <ellipse
   cx="1208.7"
   cy="1192.42"
   rx="16.462"
   ry="30.951"
   style="fill:#e1844a"
   id="ellipse50" />
        </g>
        <g
   transform="rotate(19.527308,1723.444,268.98529)"
   id="g56">
            <ellipse
   cx="1208.7"
   cy="1192.42"
   rx="16.462"
   ry="30.951"
   style="fill:#e1844a"
   id="ellipse54" />
        </g>
        <g
   transform="rotate(17.513945,2029.7987,729.90667)"
   id="g60">
            <ellipse
   cx="1208.7"
   cy="1192.42"
   rx="16.462"
   ry="30.951"
   style="fill:#e1844a"
   id="ellipse58" />
        </g>
        <g
   transform="rotate(17.394617,1826.713,955.93178)"
   id="g64">
            <ellipse
   cx="1208.7"
   cy="1192.42"
   rx="16.462"
   ry="30.951"
   style="fill:#e1844a"
   id="ellipse62" />
        </g>
    </g>
</svg>