<?xml version="1.0" encoding="UTF-8" standalone="no"?>
<!DOCTYPE svg PUBLIC "-//W3C//DTD SVG 1.1//EN" "http://www.w3.org/Graphics/SVG/1.1/DTD/svg11.dtd">
<svg version="1.1" xmlns="http://www.w3.org/2000/svg" xmlns:xlink="http://www.w3.org/1999/xlink" preserveAspectRatio="xMidYMid meet" viewBox="0 0 640 640" width="64" height="64"><defs><path d="M620.86 323.93C620.86 492.97 487.9 630.21 324.13 630.21C160.36 630.21 27.4 492.97 27.4 323.93C27.4 154.89 160.36 17.65 324.13 17.65C487.9 17.65 620.86 154.89 620.86 323.93Z" id="j1tp4Jf1Oj"></path><path d="M307.27 310.31L349.98 358.82L346.61 565.45L307.27 565.45L307.27 310.31Z" id="c784Kh2LL"></path><path d="M361.12 541.81L361.13 541.82L327.02 602.12L263.83 490.43L297.94 430.13L327.01 481.51L430.59 301.82L447.84 388.53L361.12 541.81Z" id="e1jqTL2Kys"></path><path d="M292.95 541.81L292.94 541.82L327.06 602.12L390.25 490.43L356.13 430.13L327.07 481.51L231.35 301.82L206.23 388.53L292.95 541.81Z" id="a4fZaNufxV"></path><path d="M231.97 79.47L425.29 79.47L425.29 255.93L231.97 255.93L231.97 79.47Z" id="c2efD4Fk4X"></path><path d="M198.94 188.65L322.91 40.31L458.31 153.46L334.35 301.81L198.94 188.65Z" id="f8pqXEUnJ"></path><path d="M368.63 167.7C368.63 189.78 350.7 207.7 328.63 207.7C306.55 207.7 288.63 189.78 288.63 167.7C288.63 145.63 306.55 127.7 328.63 127.7C350.7 127.7 368.63 145.63 368.63 167.7Z" id="a1iKXLF3uN"></path></defs><g><g><g><use xlink:href="#j1tp4Jf1Oj" opacity="1" fill="#d29ed5" fill-opacity="1"></use></g><g><use xlink:href="#c784Kh2LL" opacity="1" fill="#954d99" fill-opacity="1"></use></g><g><use xlink:href="#e1jqTL2Kys" opacity="1" fill="#954d99" fill-opacity="1"></use></g><g><use xlink:href="#a4fZaNufxV" opacity="1" fill="#954d99" fill-opacity="1"></use></g><g><use xlink:href="#c2efD4Fk4X" opacity="1" fill="#9c55bd" fill-opacity="1"></use></g><g><use xlink:href="#f8pqXEUnJ" opacity="1" fill="#da61da" fill-opacity="1"></use></g><g><use xlink:href="#a1iKXLF3uN" opacity="1" fill="#954d99" fill-opacity="1"></use></g></g></g></svg>