<?xml version="1.0" encoding="UTF-8" standalone="no"?>
<!DOCTYPE svg PUBLIC "-//W3C//DTD SVG 1.1//EN" "http://www.w3.org/Graphics/SVG/1.1/DTD/svg11.dtd">
<svg version="1.1" xmlns="http://www.w3.org/2000/svg" xmlns:xlink="http://www.w3.org/1999/xlink" preserveAspectRatio="xMidYMid meet" viewBox="0 0 640 640" width="64" height="64"><defs><path d="M622.91 318.31C622.91 484.25 487.68 618.98 321.12 618.98C154.56 618.98 19.34 484.25 19.34 318.31C19.34 152.37 154.56 17.65 321.12 17.65C487.68 17.65 622.91 152.37 622.91 318.31Z" id="c25Mn3a8dG"></path><path d="M481.85 311.57C481.85 399.35 409.83 470.61 321.12 470.61C232.42 470.61 160.4 399.35 160.4 311.57C160.4 223.79 232.42 152.53 321.12 152.53C409.83 152.53 481.85 223.79 481.85 311.57Z" id="aHFuy51Xo"></path><path d="M333.16 36.76C344.2 36.76 353.16 45.71 353.16 56.76C353.16 70.07 353.16 90 353.16 103.31C353.16 114.35 344.2 123.31 333.16 123.31C325.69 123.31 323.3 123.31 315.83 123.31C304.79 123.31 295.83 114.35 295.83 103.31C295.83 90 295.83 70.07 295.83 56.76C295.83 45.71 304.79 36.76 315.83 36.76C323.3 36.76 325.69 36.76 333.16 36.76Z" id="b3hCk7RI5w"></path><path d="M333.16 501.85C344.2 501.85 353.16 510.81 353.16 521.85C353.16 535.16 353.16 555.09 353.16 568.4C353.16 579.44 344.2 588.4 333.16 588.4C325.69 588.4 323.3 588.4 315.83 588.4C304.79 588.4 295.83 579.44 295.83 568.4C295.83 555.09 295.83 535.16 295.83 521.85C295.83 510.81 304.79 501.85 315.83 501.85C323.3 501.85 325.69 501.85 333.16 501.85Z" id="aNNh4eipf"></path><path d="M599.12 328.4C599.19 339.45 590.29 348.46 579.24 348.52C565.93 348.6 546.01 348.72 532.7 348.8C521.65 348.86 512.65 339.96 512.58 328.92C512.54 321.45 512.52 319.06 512.48 311.6C512.41 300.55 521.31 291.54 532.36 291.48C545.67 291.4 565.6 291.28 578.9 291.2C589.95 291.14 598.96 300.04 599.02 311.08C599.07 318.55 599.08 320.94 599.12 328.4Z" id="a2ZykSyv98"></path><path d="M124.58 326.72C124.64 337.76 115.74 346.77 104.7 346.84C91.39 346.92 71.46 347.03 58.15 347.11C47.11 347.18 38.1 338.28 38.04 327.23C37.99 319.77 37.98 317.37 37.93 309.91C37.87 298.86 46.77 289.86 57.81 289.79C71.12 289.71 91.05 289.59 104.36 289.52C115.4 289.45 124.41 298.35 124.48 309.4C124.52 316.86 124.54 319.25 124.58 326.72Z" id="ei4ln5zgQ"></path><path d="M443.71 123.67C455.58 130.82 459.4 146.23 452.25 158.1C430.49 194.19 378.37 280.66 356.66 316.67C349.37 328.77 333.65 332.66 321.56 325.37C316.89 322.56 325.64 327.83 321.18 325.15C308.5 317.5 304.41 301.02 312.06 288.34C333.64 252.54 385.88 165.87 407.79 129.51C414.51 118.37 428.98 114.79 440.11 121.5C445.13 124.52 438.96 120.81 443.71 123.67Z" id="a3nXaBnHLQ"></path></defs><g><g><g><use xlink:href="#c25Mn3a8dG" opacity="1" fill="#4b4b4b" fill-opacity="1"></use></g><g><use xlink:href="#aHFuy51Xo" opacity="1" fill="#8c858c" fill-opacity="1"></use></g><g><use xlink:href="#b3hCk7RI5w" opacity="1" fill="#8c858c" fill-opacity="1"></use></g><g><use xlink:href="#aNNh4eipf" opacity="1" fill="#8c858c" fill-opacity="1"></use></g><g><use xlink:href="#a2ZykSyv98" opacity="1" fill="#8c858c" fill-opacity="1"></use></g><g><use xlink:href="#ei4ln5zgQ" opacity="1" fill="#8c858c" fill-opacity="1"></use></g><g><use xlink:href="#a3nXaBnHLQ" opacity="1" fill="#c6c6c6" fill-opacity="1"></use></g></g></g></svg>