<?xml version="1.0" encoding="UTF-8" standalone="no"?>
<svg
   xmlns:dc="http://purl.org/dc/elements/1.1/"
   xmlns:cc="http://creativecommons.org/ns#"
   xmlns:rdf="http://www.w3.org/1999/02/22-rdf-syntax-ns#"
   xmlns:svg="http://www.w3.org/2000/svg"
   xmlns="http://www.w3.org/2000/svg"
   xmlns:sodipodi="http://sodipodi.sourceforge.net/DTD/sodipodi-0.dtd"
   xmlns:inkscape="http://www.inkscape.org/namespaces/inkscape"
   height="48"
   width="48"
   version="1.1"
   id="svg14"
   sodipodi:docname="gnome-2048.svg"
   inkscape:version="1.0.2 (e86c870879, 2021-01-15)">
  <metadata
     id="metadata20">
    <rdf:RDF>
      <cc:Work
         rdf:about="">
        <dc:format>image/svg+xml</dc:format>
        <dc:type
           rdf:resource="http://purl.org/dc/dcmitype/StillImage" />
        <dc:title></dc:title>
      </cc:Work>
    </rdf:RDF>
  </metadata>
  <defs
     id="defs18" />
  <sodipodi:namedview
     pagecolor="#ffffff"
     bordercolor="#666666"
     borderopacity="1"
     objecttolerance="10"
     gridtolerance="10"
     guidetolerance="10"
     inkscape:pageopacity="0"
     inkscape:pageshadow="2"
     inkscape:window-width="1920"
     inkscape:window-height="1028"
     id="namedview16"
     showgrid="false"
     inkscape:zoom="9.4583333"
     inkscape:cx="12.229626"
     inkscape:cy="36.228466"
     inkscape:window-x="0"
     inkscape:window-y="24"
     inkscape:window-maximized="1"
     inkscape:current-layer="svg14"
     inkscape:document-rotation="0" />
  <rect
     fill="#5f636c"
     height="43"
     ry="1.452703"
     width="43"
     x="2"
     y="3"
     id="rect2"
     style="fill:#7394b1;fill-opacity:0.87525934" />
  <path
     id="path869"
     style="color:#000000;font-style:normal;font-variant:normal;font-weight:normal;font-stretch:normal;font-size:medium;line-height:0%;font-family:sans-serif;font-variant-ligatures:normal;font-variant-position:normal;font-variant-caps:normal;font-variant-numeric:normal;font-variant-alternates:normal;font-variant-east-asian:normal;font-feature-settings:normal;font-variation-settings:normal;text-indent:0;text-align:start;text-decoration:none;text-decoration-line:none;text-decoration-style:solid;text-decoration-color:#000000;letter-spacing:0px;word-spacing:0px;text-transform:none;writing-mode:lr-tb;direction:ltr;text-orientation:mixed;dominant-baseline:auto;baseline-shift:baseline;text-anchor:start;white-space:normal;shape-padding:0;shape-margin:0;inline-size:0;clip-rule:nonzero;display:inline;overflow:visible;visibility:visible;isolation:auto;mix-blend-mode:normal;color-interpolation:sRGB;color-interpolation-filters:linearRGB;solid-color:#000000;solid-opacity:1;vector-effect:none;fill:#ffffff;fill-opacity:1;fill-rule:nonzero;stroke:none;stroke-width:1.43906;stroke-linecap:butt;stroke-linejoin:round;stroke-miterlimit:4;stroke-dasharray:none;stroke-dashoffset:0;stroke-opacity:1;color-rendering:auto;image-rendering:auto;shape-rendering:auto;text-rendering:auto;enable-background:accumulate;stop-color:#000000"
     d="m 9.5380619,18.16261 c -1.6661604,0 -2.590834,0.533198 -3.6088363,1.175324 a 0.71960204,0.71960204 0 0 0 -0.2350647,0.974081 l 0.5157896,0.875997 a 0.71960204,0.71960204 0 0 0 1.0197414,0.233374 c 0.6530482,-0.435363 1.1782774,-0.786368 2.1054363,-0.786368 0.5289428,0 0.9022038,0.13893 1.1347368,0.344987 0.232533,0.206057 0.383883,0.495704 0.383883,1.033271 0,0.585862 -0.207456,1.136346 -0.9470235,2.152787 C 9.1671569,25.182505 7.91955,26.589824 6.0256191,28.71854 A 0.71960204,0.71960204 0 0 0 5.84467,29.197126 v 0.735634 a 0.71960204,0.71960204 0 0 0 0.7187232,0.720414 H 12.981168 A 0.71960204,0.71960204 0 0 0 13.701583,29.93276 V 28.89949 A 0.71960204,0.71960204 0 0 0 12.981168,28.180767 H 9.8931956 c 1.1132864,-1.298403 2.2213514,-2.574135 2.7379124,-3.363625 0.699958,-1.069787 0.960552,-1.932595 0.960553,-2.803866 0,-1.127392 -0.441952,-2.124737 -1.18378,-2.805558 C 11.666054,18.526897 10.648212,18.16261 9.5380619,18.16261 Z m 9.0660591,0 c -1.534133,0 -2.75537,0.838435 -3.476929,2.025954 -0.72156,1.18752 -1.029888,2.705557 -1.029888,4.297119 0,1.591563 0.308329,3.109599 1.029888,4.29712 0.721559,1.18752 1.942795,2.025954 3.476929,2.025954 1.522929,0 2.725598,-0.851448 3.424505,-2.041174 0.698908,-1.189727 0.989301,-2.702702 0.989301,-4.2819 0,-1.604894 -0.275217,-3.117476 -0.970699,-4.303884 -0.69548,-1.186406 -1.906945,-2.019189 -3.443107,-2.019189 z m 18.800109,0 c -0.944097,0 -1.876134,0.283064 -2.595859,0.886143 -0.719726,0.603081 -1.192235,1.546069 -1.192235,2.666887 0,1.047605 0.562332,1.777568 1.227748,2.379397 -1.235997,0.99435 -1.555825,2.22455 -1.555825,2.832614 0,1.222073 0.515533,2.255414 1.330907,2.91548 0.815374,0.660066 1.887366,0.965626 3.020329,0.965626 1.132717,0 2.176561,-0.346632 2.949302,-1.019742 0.77274,-0.67311 1.244659,-1.679371 1.244659,-2.829233 0,-0.841223 -0.39597,-1.553557 -0.916584,-2.059776 -0.285478,-0.277585 -0.644383,-0.437564 -0.979154,-0.640931 0.814528,-0.785437 1.317377,-1.695149 1.317377,-2.560347 0,-1.247306 -0.508356,-2.224163 -1.270026,-2.790337 -0.76167,-0.566174 -1.694852,-0.745781 -2.580639,-0.745781 z m -8.67203,0.218154 a 0.71960204,0.71960204 0 0 0 -0.610492,0.339913 l -4.5863,7.341124 a 0.71960204,0.71960204 0 0 0 -0.109923,0.380501 v 0.767765 a 0.71960204,0.71960204 0 0 0 0.720415,0.718724 h 4.523729 v 2.0361 a 0.71960204,0.71960204 0 0 0 0.720414,0.718723 h 1.298775 a 0.71960204,0.71960204 0 0 0 0.718723,-0.718723 v -2.0361 h 0.659535 a 0.71960204,0.71960204 0 0 0 0.718723,-0.718724 v -1.03327 a 0.71960204,0.71960204 0 0 0 -0.718723,-0.720415 h -0.659535 v -6.355204 a 0.71960204,0.71960204 0 0 0 -0.718723,-0.720414 z m -10.158519,2.254254 c 0.620514,0 0.931608,0.288047 1.241278,0.987611 0.309669,0.699562 0.465056,1.766305 0.465056,2.863054 0,1.09675 -0.155387,2.163492 -0.465056,2.863056 -0.309671,0.699563 -0.620764,0.98761 -1.241278,0.98761 -0.641132,0 -0.9578,-0.292889 -1.270026,-0.990992 -0.312226,-0.698105 -0.468439,-1.762924 -0.468439,-2.859674 0,-1.096749 0.156213,-2.161569 0.468439,-2.859672 0.312226,-0.698104 0.628894,-0.990993 1.270026,-0.990993 z m 18.90834,0 c 0.250478,0 0.524443,0.06815 0.69843,0.209698 0.173986,0.141548 0.334841,0.356011 0.334841,0.963934 0,0.428732 -0.112311,0.805133 -0.732252,1.249734 -0.390239,-0.19452 -0.798888,-0.39006 -1.028197,-0.573288 -0.313806,-0.250746 -0.400795,-0.403033 -0.400795,-0.629094 0,-0.860132 0.636856,-1.220984 1.127973,-1.220984 z m -8.812392,2.049629 v 2.771735 h -1.724937 z m 8.350718,2.849527 c 0.551581,0.274463 1.117883,0.541378 1.476342,0.786368 0.458973,0.313686 0.598655,0.514002 0.598655,0.764382 0,0.425258 -0.149231,0.684645 -0.410941,0.897982 -0.26171,0.213337 -0.665228,0.353443 -1.124591,0.353443 -0.787842,0 -1.533839,-0.498887 -1.533839,-1.549061 0,-0.117675 -2.6e-4,-0.257538 0.138671,-0.50226 0.105753,-0.186282 0.464078,-0.471365 0.855703,-0.750854 z" />
</svg>
