<?xml version="1.0" encoding="UTF-8" standalone="no"?>
<!DOCTYPE svg PUBLIC "-//W3C//DTD SVG 1.1//EN" "http://www.w3.org/Graphics/SVG/1.1/DTD/svg11.dtd">
<svg width="100%" height="100%" viewBox="0 0 2048 2048" version="1.1" xmlns="http://www.w3.org/2000/svg" xmlns:xlink="http://www.w3.org/1999/xlink" xml:space="preserve" xmlns:serif="http://www.serif.com/" style="fill-rule:evenodd;clip-rule:evenodd;stroke-linejoin:round;stroke-miterlimit:2;">
    <g transform="matrix(1.29424,0,0,1.24102,-423.792,-375.425)">
        <path d="M1584.84,560.631C1584.84,548.454 1580.2,536.776 1571.94,528.165C1563.69,519.555 1552.49,514.717 1540.81,514.717L696.468,514.717C684.791,514.717 673.593,519.555 665.337,528.165C657.08,536.776 652.442,548.454 652.442,560.631L652.442,1694.65C652.442,1706.83 657.08,1718.51 665.337,1727.12C673.593,1735.73 684.791,1740.57 696.468,1740.57L1540.81,1740.57C1552.49,1740.57 1563.69,1735.73 1571.94,1727.12C1580.2,1718.51 1584.84,1706.83 1584.84,1694.65L1584.84,560.631Z" style="fill:rgb(149,164,192);"/>
    </g>
    <g transform="matrix(1.29337,0,0,1.23812,-451.8,-401.682)">
        <path d="M1107.65,384.686C1116.02,374.525 1128.21,368.68 1141.05,368.68C1153.88,368.68 1166.07,374.525 1174.44,384.686C1291.16,526.398 1679.3,997.654 1781.29,1121.48C1795.5,1138.73 1795.5,1164.25 1781.29,1181.51C1679.3,1305.33 1291.16,1776.59 1174.44,1918.3C1166.07,1928.46 1153.88,1934.31 1141.05,1934.31C1128.21,1934.31 1116.02,1928.46 1107.65,1918.3C990.932,1776.59 602.789,1305.33 500.804,1181.51C486.591,1164.25 486.591,1138.73 500.804,1121.48C602.789,997.654 990.932,526.398 1107.65,384.686Z" style="fill:rgb(160,192,255);"/>
    </g>
    <g transform="matrix(1.36037,0,0,1.36037,-365.252,-520.66)">
        <g transform="matrix(1.22495,0,0,1.20637,-84.526,-216.343)">
            <path d="M770.418,954.446C770.418,950.08 766.933,946.542 762.634,946.542C747.788,946.542 715.589,946.542 700.743,946.542C696.444,946.542 692.959,950.08 692.959,954.446C692.959,974.172 692.959,1024 692.959,1024L770.418,1024L770.418,954.446Z" style="fill:rgb(108,108,108);"/>
        </g>
        <g transform="matrix(0.877369,0,0,1,162.645,0)">
            <path d="M1326.29,964.198C1326.29,954.447 1317.28,946.542 1306.17,946.542C1204.04,946.542 743.976,946.542 641.85,946.542C630.735,946.542 621.725,954.447 621.725,964.198C621.725,1027.48 621.725,1242.53 621.725,1305.81C621.725,1315.56 630.735,1323.47 641.85,1323.47C743.976,1323.47 1204.04,1323.47 1306.17,1323.47C1317.28,1323.47 1326.29,1315.56 1326.29,1305.81C1326.29,1242.53 1326.29,1027.48 1326.29,964.198Z" style="fill:rgb(132,132,132);"/>
        </g>
        <g transform="matrix(0.830225,0,0,0.830225,131.894,208.422)">
            <circle cx="1074.54" cy="1115.51" r="251.755" style="fill:rgb(108,108,108);"/>
        </g>
        <g transform="matrix(0.778348,0,0,0.778348,187.638,266.291)">
            <circle cx="1074.54" cy="1115.51" r="251.755" style="fill:rgb(132,132,132);"/>
        </g>
        <g transform="matrix(0.654612,0,0,0.654612,320.596,404.32)">
            <circle cx="1074.54" cy="1115.51" r="251.755" style="fill:rgb(183,207,233);"/>
        </g>
    </g>
    <g transform="matrix(1.03943,0,0,1.03943,-29.8034,-10.7239)">
        <g transform="matrix(1.03748,0,0,1.03748,587.703,-375.462)">
            <circle cx="414.646" cy="1320.26" r="201.073" style="fill:rgb(149,164,192);fill-opacity:0.68;"/>
        </g>
        <g transform="matrix(1.07621,0,0,1.07621,-87.6402,-52.9545)">
            <g transform="matrix(0.929185,0,0,0.929185,81.434,49.2045)">
                <path d="M1075.99,793.894C1153.99,816.498 1213.22,883.447 1224.54,965.596L1208.5,940.459L1204.24,1003.25L1188.84,956.929L1183.32,961.798L1166.53,948.329L1139.24,946.401L1127.28,938.717L1116.14,941.345L1134.6,961.515L1143.44,953.452L1157.6,963.444L1138.76,997.24L1111.67,1010.84L1108.54,996.517L1092.35,981.306L1079.38,958.418L1069.98,953.772L1097.87,1002.91L1114.31,1025.38L1140.57,1015.71L1094.72,1084.57L1098.75,1112.83L1078.59,1130.99L1077.87,1144.23L1065.79,1151.19L1046.25,1170.19L1013.88,1173.67L1007.45,1164.78L999.588,1156.94L997.314,1146.92L987.282,1133.86L986.11,1121.06L990.788,1112.14L987.063,1090.58L972.194,1077.55L973.426,1052.45L962.58,1052.79L949.549,1040.02L931.591,1044.23L909.253,1045.08L890.133,1026.87L876.337,998.662L885.335,985.416L882.813,970.465L900.006,946.907L914.706,936.818L930.011,920.251L942.795,920.378L961.567,914.66L985.544,916.774L982.544,928.218L999.618,934.004L1011.83,945.671L1016.46,937.898L1027.39,933.914L1049.6,941.628L1056.16,937.644L1066.76,938.813L1070.2,930.653L1068.59,917.474L1059.19,920.475L1043.22,917.474L1036.41,903.625L1027.1,905.643L1031.68,913.327L1026.19,918.167L1019.27,911.183L1015.87,896.507L997.125,883.738L998.068,892.144L1011.8,905.516L1002.08,917.251L994.89,913.394L1002.78,905.71L986.904,888.54L968.788,891.355L957.594,901.756L940.361,914.369L924.708,906.119L932.226,889.017L954.058,889.396L953.233,872.323L966.106,868.965L982.673,858.184L993.903,845.136L996.837,857.931L1020.03,853.791L1026.62,837.701L1015.17,835.735L1008.17,851.327L987.182,842.221L1000.4,829.824L1011.01,818.573L1025.46,814.463L1053.29,822.266L1069.51,814.299L1067.3,801.083L1075.99,793.894Z" style="fill:rgb(63,119,77);"/>
            </g>
            <path d="M1129.68,1075.66L1110.92,1091.46L1110.47,1102.01L1104.87,1107.53L1108.3,1116.46L1129.68,1075.66Z" style="fill:rgb(63,119,77);"/>
            <path d="M982.207,830.047L971.151,836.834L975.055,846L969.01,853.05L984.229,848.09L982.207,830.047Z" style="fill:rgb(63,119,77);"/>
            <path d="M965.346,841.628L959.485,848.941L969.72,846.533L965.346,841.628Z" style="fill:rgb(63,119,77);"/>
            <g transform="matrix(0.929185,0,0,0.929185,81.434,49.2045)">
                <path d="M809.526,984.122L820.844,1031.86L840.59,1056.9L838.226,1079.8L846.554,1113.26C823.06,1079.51 809.281,1038.5 809.281,994.292C809.281,990.882 809.363,987.492 809.526,984.122Z" style="fill:rgb(63,119,77);"/>
            </g>
            <g transform="matrix(1,0,0,1,-5.03689,-0.915798)">
                <path d="M935.564,818.707L949.721,804.345L980.039,791.802L1006.77,789.034L981.617,805.929L935.564,818.707Z" style="fill:rgb(63,119,77);"/>
            </g>
            <path d="M968.225,821.44L979.393,816.092L971.825,814.452L968.225,821.44Z" style="fill:rgb(63,119,77);"/>
            <path d="M1031.11,795.115L1018.94,793.856L1023.1,801.467L1031.11,795.115Z" style="fill:rgb(63,119,77);"/>
            <path d="M1062.89,794.562L1055.97,799.993L1063.8,805.784L1062.89,794.562Z" style="fill:rgb(63,119,77);"/>
            <path d="M1205.38,972.576L1204.42,982.229L1208.52,982.296L1205.38,972.576Z" style="fill:rgb(63,119,77);"/>
        </g>
    </g>
</svg>
