<?xml version="1.0" encoding="UTF-8" standalone="no"?>
<svg
   xmlns:dc="http://purl.org/dc/elements/1.1/"
   xmlns:cc="http://creativecommons.org/ns#"
   xmlns:rdf="http://www.w3.org/1999/02/22-rdf-syntax-ns#"
   xmlns:svg="http://www.w3.org/2000/svg"
   xmlns="http://www.w3.org/2000/svg"
   xmlns:xlink="http://www.w3.org/1999/xlink"
   xmlns:sodipodi="http://sodipodi.sourceforge.net/DTD/sodipodi-0.dtd"
   xmlns:inkscape="http://www.inkscape.org/namespaces/inkscape"
   width="297mm"
   height="297mm"
   viewBox="0 0 297 297"
   version="1.1"
   id="svg8"
   inkscape:version="1.0.1 (3bc2e813f5, 2020-09-07)"
   sodipodi:docname="helm-synth3.svg">
  <defs
     id="defs2">
    <clipPath
       id="_clipPath_pedkB2BO9LJqqpfzYxiy2CNxBWzVm7YQ">
      <rect
         width="180"
         height="180"
         id="rect1311" />
    </clipPath>
    <linearGradient
       id="a">
      <stop
         stop-color="#fcdd99"
         id="stop1362" />
      <stop
         offset="1"
         stop-color="#fcdd99"
         stop-opacity="0"
         id="stop1364" />
    </linearGradient>
    <linearGradient
       id="b"
       y1="522.99"
       x1="430.51"
       y2="523.86"
       gradientUnits="userSpaceOnUse"
       x2="378.58"
       gradientTransform="matrix(0.70711,0.70711,-0.70711,0.70711,105.4,-635.69)">
      <stop
         stop-color="#fcfcfc"
         id="stop1367" />
      <stop
         offset="1"
         stop-color="#e9eaeb"
         id="stop1369" />
    </linearGradient>
    <linearGradient
       id="c"
       y1="19.869"
       x1="-28.649"
       y2="49.804"
       gradientUnits="userSpaceOnUse"
       x2="3.614"
       gradientTransform="translate(45.719-.92)">
      <stop
         id="stop1372" />
      <stop
         offset="1"
         stop-opacity="0"
         id="stop1374" />
    </linearGradient>
    <linearGradient
       id="d"
       y1="522.18"
       x1="388.34"
       y2="523.7"
       gradientUnits="userSpaceOnUse"
       x2="402.03"
       gradientTransform="matrix(0.70711,0.70711,-0.70711,0.70711,105.48,-635.28)">
      <stop
         stop-color="#ffffff"
         id="stop1377" />
      <stop
         offset="1"
         stop-color="#eff0f1"
         id="stop1379" />
    </linearGradient>
    <linearGradient
       id="e"
       y1="527.21"
       x1="422.48"
       y2="527.34"
       gradientUnits="userSpaceOnUse"
       x2="425.86"
       gradientTransform="matrix(0.70711,0.70711,-0.70711,0.70711,105.48,-635.28)">
      <stop
         stop-color="#f9f9f9"
         id="stop1382" />
      <stop
         offset="1"
         stop-color="#f6f6f6"
         id="stop1384" />
    </linearGradient>
    <linearGradient
       id="f"
       y1="8.627"
       x1="9.642"
       y2="24.326"
       x2="23.912"
       gradientUnits="userSpaceOnUse">
      <stop
         stop-color="#491309"
         id="stop1387" />
      <stop
         offset="1"
         stop-color="#b6642d"
         id="stop1389" />
    </linearGradient>
    <linearGradient
       id="g"
       y1="15.871"
       x1="16.296"
       y2="31.01"
       x2="30.633"
       gradientUnits="userSpaceOnUse">
      <stop
         stop-color="#fee3a8"
         id="stop1392" />
      <stop
         offset="1"
         stop-color="#fcdd99"
         stop-opacity="0"
         id="stop1394" />
    </linearGradient>
    <linearGradient
       id="h"
       y1="33.922"
       x1="32.641"
       y2="34.953"
       x2="33.609"
       gradientUnits="userSpaceOnUse"
       gradientTransform="translate(-51.64974,-1.0711201)">
      <stop
         stop-color="#cfcfcf"
         id="stop1397" />
      <stop
         offset="1"
         stop-color="#ededed"
         stop-opacity="0"
         id="stop1399" />
    </linearGradient>
    <linearGradient
       id="i"
       y1="42.01"
       x1="13.247"
       y2="34.887"
       x2="8.892"
       gradientUnits="userSpaceOnUse"
       gradientTransform="matrix(1.31518,0,0,1.22972,-3.891,-7.222)">
      <stop
         stop-color="#d6d6d6"
         id="stop1402" />
      <stop
         offset="1"
         stop-color="#7a7a7a"
         id="stop1404" />
    </linearGradient>
    <linearGradient
       id="j"
       y1="1.586"
       x1="12"
       y2="45.31"
       gradientUnits="userSpaceOnUse"
       x2="11.875">
      <stop
         stop-color="#e0e0e0"
         id="stop1407" />
      <stop
         offset=".125"
         stop-color="#c0c0c0"
         id="stop1409" />
      <stop
         offset=".66"
         stop-color="#9b9b9b"
         id="stop1411" />
      <stop
         offset=".732"
         stop-color="#b3b3b3"
         id="stop1413" />
      <stop
         offset="1"
         stop-color="#b1b1b1"
         id="stop1415" />
    </linearGradient>
    <radialGradient
       cx="23.731"
       cy="23.885"
       xlink:href="#a"
       id="k"
       r="8.335"
       gradientUnits="userSpaceOnUse"
       gradientTransform="matrix(3.38134,-0.04028,0.04004,3.36093,-57.47,-55.43)" />
    <radialGradient
       cx="23.748"
       cy="23.82"
       xlink:href="#a"
       id="l"
       r="5.657"
       gradientUnits="userSpaceOnUse"
       gradientTransform="matrix(4.9331,-0.01446,0.01148,3.91554,-93.68,-69.1)" />
    <linearGradient
       xlink:href="#c"
       id="m"
       y1="20.869"
       x1="-20.15"
       y2="21.429"
       gradientUnits="userSpaceOnUse"
       x2="-11.636"
       gradientTransform="translate(0.97982187,-8.1418527)" />
    <linearGradient
       xlink:href="#c"
       id="n"
       y1="19.12"
       x1="-14.524"
       y2="19.804"
       gradientUnits="userSpaceOnUse"
       x2="-10.761"
       gradientTransform="translate(6.7228833,18.904274)" />
    <linearGradient
       id="o"
       y1="522.24"
       x1="385.61"
       y2="523.27"
       gradientUnits="userSpaceOnUse"
       x2="409.82"
       gradientTransform="matrix(0.70711,0.70711,-0.70711,0.70711,105.48,-635.28)">
      <stop
         stop-color="#ffffff"
         id="stop1422" />
      <stop
         offset="1"
         stop-color="#dfe1e3"
         id="stop1424" />
    </linearGradient>
    <path
       id="p"
       color="#000000"
       d="M25 15A9 9 0 1 1 7 15 9 9 0 1 1 25 15" />
  </defs>
  <sodipodi:namedview
     id="base"
     pagecolor="#ffffff"
     bordercolor="#666666"
     borderopacity="1.0"
     inkscape:pageopacity="0.0"
     inkscape:pageshadow="2"
     inkscape:zoom="0.33972488"
     inkscape:cx="236.66872"
     inkscape:cy="575.1023"
     inkscape:document-units="mm"
     inkscape:current-layer="layer1"
     inkscape:document-rotation="0"
     showgrid="false"
     inkscape:window-width="1849"
     inkscape:window-height="1048"
     inkscape:window-x="71"
     inkscape:window-y="32"
     inkscape:window-maximized="1"
     showguides="true"
     inkscape:guide-bbox="true" />
  <metadata
     id="metadata5">
    <rdf:RDF>
      <cc:Work
         rdf:about="">
        <dc:format>image/svg+xml</dc:format>
        <dc:type
           rdf:resource="http://purl.org/dc/dcmitype/StillImage" />
        <dc:title />
      </cc:Work>
    </rdf:RDF>
  </metadata>
  <g
     inkscape:label="Layer 1"
     inkscape:groupmode="layer"
     id="layer1">
    <circle
       style="fill:#8babce;fill-opacity:1;stroke:#6e707b;stroke-width:5.985;stroke-linejoin:round;stroke-miterlimit:2;stroke-dasharray:none;stroke-opacity:1;paint-order:markers fill stroke"
       id="path1535"
       cx="146.33723"
       cy="148.6786"
       r="106.69939" />
    <rect
       style="opacity:1;fill:#657d96;fill-opacity:1;stroke:#505568;stroke-width:0;stroke-linejoin:round;stroke-miterlimit:4;stroke-dasharray:none;stroke-opacity:1;paint-order:markers fill stroke"
       id="rect1719"
       width="176.83369"
       height="44.323853"
       x="62.111603"
       y="117.70146" />
    <path
       style="fill:#5083b9;fill-opacity:1;stroke:#505568;stroke-width:5.985;stroke-linecap:butt;stroke-linejoin:miter;stroke-miterlimit:4;stroke-dasharray:none;stroke-opacity:1"
       d="M 75.018869,269.46727 74.88802,142.43867 c 0,0 14.485888,-6.50095 21.802465,-9.58022 8.844865,-3.72247 26.706125,-10.75077 26.706125,-10.75077 l -0.41575,96.18918 c 0,0 18.78063,5.78869 28.44918,5.66625 8.99289,-0.11388 26.31915,-5.93866 26.31915,-5.93866 l -0.0141,-95.82668 c 0,0 17.5345,6.81689 26.20838,10.4536 8.38678,3.51634 24.97209,10.98721 24.97209,10.98721 l -0.0366,124.55818 c 0,0 15.32318,-14.71681 21.71146,-23.14953 6.07654,-8.02122 11.5159,-16.64807 15.60636,-25.84222 4.36297,-9.80667 7.44086,-20.25326 9.32852,-30.81939 2.10896,-11.8049 2.93533,-23.94569 2.14488,-35.91142 -0.86054,-13.0267 -3.42236,-26.03289 -7.45758,-38.4487 -3.87173,-11.91275 -9.26678,-23.423298 -15.90043,-34.048673 -4.31849,-6.917089 -9.52285,-13.348215 -15.36968,-19.032404 -7.65063,-7.4378 -16.2742,-13.974221 -25.46136,-19.400921 -10.44266,-6.168299 -21.61699,-11.383357 -33.28246,-14.702055 -7.92426,-2.254363 -16.24573,-3.134073 -24.47983,-3.409124 -7.75053,-0.258898 -15.53796,0.460801 -23.20497,1.66408 -7.93362,1.245118 -15.83298,3.048698 -23.43501,5.724481 -7.8212,2.752929 -15.453257,6.249406 -22.603301,10.552981 -8.580974,5.164844 -16.60919,11.383767 -24.088769,18.161531 -6.209187,5.626568 -12.207711,11.657055 -17.109006,18.547796 -6.002352,8.43873 -10.718106,17.8827 -14.767873,27.504858 -3.372171,8.01219 -6.104321,16.38382 -7.841206,24.94497 -2.519811,12.4202 -4.187571,25.21182 -3.654484,37.89515 0.438052,10.4222 2.603324,20.76964 5.60403,30.74544 2.710129,9.00978 6.514812,17.73551 11.097723,25.95244 4.99301,8.95222 10.876412,17.49816 17.703273,25.14448 6.41527,7.18533 21.599695,19.19674 21.599695,19.19674 z"
       id="path1655"
       sodipodi:nodetypes="ccaccaccaccaaaaaaaaaaaaaaaaaaaaacc" />
  </g>
</svg>
