<?xml version="1.0" encoding="UTF-8" standalone="no"?>
<svg
   xmlns:dc="http://purl.org/dc/elements/1.1/"
   xmlns:cc="http://creativecommons.org/ns#"
   xmlns:rdf="http://www.w3.org/1999/02/22-rdf-syntax-ns#"
   xmlns:svg="http://www.w3.org/2000/svg"
   xmlns="http://www.w3.org/2000/svg"
   xmlns:xlink="http://www.w3.org/1999/xlink"
   xmlns:sodipodi="http://sodipodi.sourceforge.net/DTD/sodipodi-0.dtd"
   xmlns:inkscape="http://www.inkscape.org/namespaces/inkscape"
   version="1.1"
   preserveAspectRatio="xMidYMid meet"
   viewBox="0 0 640 640"
   width="64"
   height="64"
   id="svg99"
   sodipodi:docname="hyperspace2.svg"
   inkscape:version="0.92.5 (2060ec1f9f, 2020-04-08)">
  <metadata
     id="metadata103">
    <rdf:RDF>
      <cc:Work
         rdf:about="">
        <dc:format>image/svg+xml</dc:format>
        <dc:type
           rdf:resource="http://purl.org/dc/dcmitype/StillImage" />
      </cc:Work>
    </rdf:RDF>
  </metadata>
  <sodipodi:namedview
     pagecolor="#ffffff"
     bordercolor="#666666"
     borderopacity="1"
     objecttolerance="10"
     gridtolerance="10"
     guidetolerance="10"
     inkscape:pageopacity="0"
     inkscape:pageshadow="2"
     inkscape:window-width="1850"
     inkscape:window-height="1048"
     id="namedview101"
     showgrid="false"
     inkscape:zoom="5.2149125"
     inkscape:cx="13.325177"
     inkscape:cy="35.106455"
     inkscape:window-x="70"
     inkscape:window-y="32"
     inkscape:window-maximized="1"
     inkscape:current-layer="g97" />
  <defs
     id="defs13">
    <path
       d="M618.3 320.57C618.3 484.57 485.14 617.73 321.14 617.73C157.13 617.73 23.98 484.57 23.98 320.57C23.98 156.56 157.13 23.41 321.14 23.41C485.14 23.41 618.3 156.56 618.3 320.57Z"
       id="bUENdWupP" />
    <path
       d="M603.07 320.68C603.07 474.97 477.04 600.23 321.82 600.23C166.59 600.23 40.57 474.97 40.57 320.68C40.57 166.4 166.59 41.14 321.82 41.14C477.04 41.14 603.07 166.4 603.07 320.68Z"
       id="a23XcnN8JL" />
    <path
       d="M240.16 441.77C240.28 430.31 249.31 421.13 260.33 421.25C271.35 421.38 280.19 430.76 280.07 442.22C279.95 452.99 271.87 465.7 264.64 473.04C255.95 481.86 244.3 487.34 232.4 489.44C224.64 490.81 216.73 486.59 216.19 477.63C215.83 471.77 219.23 466.57 224.23 464.57C224.23 464.57 224.3 464.54 224.3 464.54C233.02 461.05 240.06 451.5 240.16 441.77Z"
       id="gbhxBhHlg1" />
    <path
       d="M405.37 441.77C405.25 430.31 396.22 421.13 385.2 421.25C374.18 421.38 365.34 430.76 365.46 442.22C365.57 452.99 373.66 465.7 380.89 473.04C389.58 481.86 401.23 487.34 413.12 489.44C420.89 490.81 428.8 486.59 429.34 477.63C429.7 471.77 426.3 466.57 421.29 464.57C421.29 464.57 421.23 464.54 421.23 464.54C412.51 461.05 405.47 451.5 405.37 441.77Z"
       id="a18KY6W2Xw" />
    <path
       d="M246.01 159.28C158.12 104.87 66.81 144.78 121.55 262.89C141.52 309.82 93.43 420.85 201.27 378.55C210.22 334.69 237.06 203.13 246.01 159.28Z"
       id="a18IANU40W" />
    <path
       d="M391.59 159.28C479.48 104.87 570.79 144.78 516.05 262.89C496.08 309.82 544.17 420.85 436.33 378.55C427.39 334.69 400.54 203.13 391.59 159.28Z"
       id="d4DDykWj5n" />
    <path
       d="M231.62 185.45C213.27 174.09 190.29 165.96 171.53 165.96C160.97 165.96 151.76 168.53 145.44 174.54C133.28 186.11 135.41 213.28 151.14 247.22C151.15 247.25 151.22 247.41 151.35 247.69C151.47 247.98 151.54 248.14 151.56 248.17C160.36 268.86 160.1 292.87 159.86 316.08C159.8 321.11 160.2 329.83 160.69 337.65C161.28 347.16 168.43 354.81 177.56 355.68C194.39 357.28 220.25 358.84 230.73 354.73C230.91 320.88 231.45 219.31 231.62 185.45Z"
       id="c33p6TV6Tz" />
    <path
       d="M413.01 185.45C431.37 174.09 454.35 165.96 473.11 165.96C483.66 165.96 492.88 168.53 499.2 174.54C511.36 186.11 509.23 213.28 493.5 247.22C493.49 247.25 493.41 247.41 493.28 247.69C493.16 247.98 493.09 248.14 493.08 248.17C484.27 268.86 484.53 292.87 484.78 316.08C484.83 321.11 484.43 329.83 483.95 337.65C483.36 347.16 476.21 354.81 467.07 355.68C450.25 357.28 424.38 358.84 413.91 354.73C413.73 320.88 413.19 219.31 413.01 185.45Z"
       id="a1uCegKLCA" />
    <path
       d="M447.76 271.91C444.83 262.13 442.98 252.02 441.73 241.84C437.37 206.37 419.92 175.34 394.77 154.55C387.07 148.19 378.66 142.79 369.68 138.51C354.48 131.28 337.68 127.27 320 127.27C302.32 127.27 285.52 131.28 270.33 138.51C261.34 142.79 252.93 148.19 245.23 154.55C220.08 175.34 202.63 206.37 198.28 241.84C196.98 252.4 194.88 262.82 191.92 272.99C188.04 286.38 185.92 300.61 185.86 315.35C185.58 382.98 229.16 440.27 287.7 455.96C287.7 455.96 291.17 496.28 274.39 520.31C268.76 528.36 270.64 539.83 278.64 545.07C278.94 545.27 281.34 546.84 281.64 547.04C289.65 552.28 299.97 551.19 306.75 544.22C338.8 511.29 352.45 455.96 352.45 455.96C410.86 440.36 454.15 383.62 454.15 316C454.15 300.62 451.9 285.8 447.76 271.91Z"
       id="f1cMRRnuq5" />
    <path
       d="M253.12 374.41C253.12 375.83 253.12 387.21 253.12 388.64C253.12 392.38 256.03 395.41 259.63 395.41C263.22 395.41 266.14 392.38 266.14 388.64C266.14 387.21 266.14 375.83 266.14 374.41C266.14 370.67 263.22 367.64 259.63 367.64C256.03 367.64 253.12 370.67 253.12 374.41Z"
       id="d1bQVSj8bO" />
    <path
       d="M378.57 374.41C378.57 375.83 378.57 387.21 378.57 388.64C378.57 392.38 381.48 395.41 385.08 395.41C388.68 395.41 391.59 392.38 391.59 388.64C391.59 387.21 391.59 375.83 391.59 374.41C391.59 370.67 388.68 367.64 385.08 367.64C381.48 367.64 378.57 370.67 378.57 374.41Z"
       id="b1GXFKR0iN" />
  </defs>
  <g
     id="g97">
    <g
       id="g95">
      <g
         id="g17">
        <use
           xlink:href="#bUENdWupP"
           id="use15"
           fill-opacity="1"
           fill="#acb8c6"
           opacity="1" />
      </g>
      <g
         id="g21"
         style="fill:#62616a;fill-opacity:1">
        <use
           xlink:href="#a23XcnN8JL"
           id="use19"
           style="fill:#62616a;fill-opacity:1"
           fill-opacity="1"
           fill="#84838f"
           opacity="1" />
      </g>
      <g
         id="g29"
         style="fill:#adb7c2;fill-opacity:1"
         transform="matrix(0.83268426,0,0,0.83268426,54.38403,56.753943)">
        <use
           xlink:href="#gbhxBhHlg1"
           id="use23"
           style="opacity:1;fill:#adb7c2;fill-opacity:1"
           x="0"
           y="0"
           width="100%"
           height="100%" />
        <g
           id="g27"
           style="fill:#adb7c2;fill-opacity:1">
          <use
             xlink:href="#gbhxBhHlg1"
             id="use25"
             style="opacity:1;fill:#adb7c2;fill-opacity:1;stroke:#000000;stroke-width:1;stroke-opacity:0"
             x="0"
             y="0"
             width="100%"
             height="100%" />
        </g>
      </g>
      <g
         id="g37"
         style="fill:#adb7c2;fill-opacity:1"
         transform="matrix(0.83268426,0,0,0.83268426,54.38403,56.753943)">
        <use
           xlink:href="#a18KY6W2Xw"
           id="use31"
           style="opacity:1;fill:#adb7c2;fill-opacity:1"
           x="0"
           y="0"
           width="100%"
           height="100%" />
        <g
           id="g35"
           style="fill:#adb7c2;fill-opacity:1">
          <use
             xlink:href="#a18KY6W2Xw"
             id="use33"
             style="opacity:1;fill:#adb7c2;fill-opacity:1;stroke:#000000;stroke-width:1;stroke-opacity:0"
             x="0"
             y="0"
             width="100%"
             height="100%" />
        </g>
      </g>
      <g
         id="g45"
         style="fill:#fdfdfd;fill-opacity:1"
         transform="matrix(0.83268426,0,0,0.83268426,54.38403,56.753943)">
        <use
           xlink:href="#a18IANU40W"
           id="use39"
           style="opacity:1;fill:#fdfdfd;fill-opacity:1"
           x="0"
           y="0"
           width="100%"
           height="100%" />
        <g
           id="g43"
           style="fill:#fdfdfd;fill-opacity:1">
          <use
             xlink:href="#a18IANU40W"
             id="use41"
             style="opacity:1;fill:#fdfdfd;fill-opacity:1;stroke:#000000;stroke-width:1;stroke-opacity:0"
             x="0"
             y="0"
             width="100%"
             height="100%" />
        </g>
      </g>
      <g
         id="g53"
         style="fill:#fdfdfd;fill-opacity:1"
         transform="matrix(0.83268426,0,0,0.83268426,54.38403,56.753943)">
        <use
           xlink:href="#d4DDykWj5n"
           id="use47"
           style="opacity:1;fill:#fdfdfd;fill-opacity:1"
           x="0"
           y="0"
           width="100%"
           height="100%" />
        <g
           id="g51"
           style="fill:#fdfdfd;fill-opacity:1">
          <use
             xlink:href="#d4DDykWj5n"
             id="use49"
             style="opacity:1;fill:#fdfdfd;fill-opacity:1;stroke:#000000;stroke-width:1;stroke-opacity:0"
             x="0"
             y="0"
             width="100%"
             height="100%" />
        </g>
      </g>
      <g
         id="g61"
         style="fill:#adb7c2;fill-opacity:1"
         transform="matrix(0.83268426,0,0,0.83268426,54.38403,56.753943)">
        <use
           xlink:href="#c33p6TV6Tz"
           id="use55"
           style="opacity:1;fill:#adb7c2;fill-opacity:1"
           x="0"
           y="0"
           width="100%"
           height="100%" />
        <g
           id="g59"
           style="fill:#adb7c2;fill-opacity:1">
          <use
             xlink:href="#c33p6TV6Tz"
             id="use57"
             style="opacity:1;fill:#adb7c2;fill-opacity:1;stroke:#000000;stroke-width:1;stroke-opacity:0"
             x="0"
             y="0"
             width="100%"
             height="100%" />
        </g>
      </g>
      <g
         id="g69"
         style="fill:#adb7c2;fill-opacity:1"
         transform="matrix(0.83268426,0,0,0.83268426,54.38403,56.753943)">
        <use
           xlink:href="#a1uCegKLCA"
           id="use63"
           style="opacity:1;fill:#adb7c2;fill-opacity:1"
           x="0"
           y="0"
           width="100%"
           height="100%" />
        <g
           id="g67"
           style="fill:#adb7c2;fill-opacity:1">
          <use
             xlink:href="#a1uCegKLCA"
             id="use65"
             style="opacity:1;fill:#adb7c2;fill-opacity:1;stroke:#000000;stroke-width:1;stroke-opacity:0"
             x="0"
             y="0"
             width="100%"
             height="100%" />
        </g>
      </g>
      <g
         id="g77"
         style="fill:#fdfdfd;fill-opacity:1"
         transform="matrix(0.83268426,0,0,0.83268426,54.38403,56.753943)">
        <use
           xlink:href="#f1cMRRnuq5"
           id="use71"
           style="opacity:1;fill:#fdfdfd;fill-opacity:1"
           x="0"
           y="0"
           width="100%"
           height="100%" />
        <g
           id="g75"
           style="fill:#fdfdfd;fill-opacity:1">
          <use
             xlink:href="#f1cMRRnuq5"
             id="use73"
             style="opacity:1;fill:#fdfdfd;fill-opacity:1;stroke:#000000;stroke-width:1;stroke-opacity:0"
             x="0"
             y="0"
             width="100%"
             height="100%" />
        </g>
      </g>
      <g
         id="g85"
         style="fill:#acb8c6;fill-opacity:1"
         transform="matrix(0.83268426,0,0,0.83268426,54.38403,56.753943)">
        <use
           xlink:href="#d1bQVSj8bO"
           id="use79"
           style="opacity:1;fill:#acb8c6;fill-opacity:1"
           x="0"
           y="0"
           width="100%"
           height="100%" />
        <g
           id="g83"
           style="fill:#acb8c6;fill-opacity:1">
          <use
             xlink:href="#d1bQVSj8bO"
             id="use81"
             style="opacity:1;fill:#acb8c6;fill-opacity:1;stroke:#000000;stroke-width:1;stroke-opacity:0"
             x="0"
             y="0"
             width="100%"
             height="100%" />
        </g>
      </g>
      <g
         id="g93"
         style="fill:#acb8c6;fill-opacity:1"
         transform="matrix(0.83268426,0,0,0.83268426,54.38403,56.753943)">
        <use
           xlink:href="#b1GXFKR0iN"
           id="use87"
           style="opacity:1;fill:#acb8c6;fill-opacity:1"
           x="0"
           y="0"
           width="100%"
           height="100%" />
        <g
           id="g91"
           style="fill:#acb8c6;fill-opacity:1">
          <use
             xlink:href="#b1GXFKR0iN"
             id="use89"
             style="opacity:1;fill:#acb8c6;fill-opacity:1;stroke:#000000;stroke-width:1;stroke-opacity:0"
             x="0"
             y="0"
             width="100%"
             height="100%" />
        </g>
      </g>
    </g>
  </g>
</svg>
