<?xml version="1.0" encoding="UTF-8" standalone="no"?>
<!DOCTYPE svg PUBLIC "-//W3C//DTD SVG 1.1//EN" "http://www.w3.org/Graphics/SVG/1.1/DTD/svg11.dtd">
<svg version="1.1" xmlns="http://www.w3.org/2000/svg" xmlns:xlink="http://www.w3.org/1999/xlink" preserveAspectRatio="xMidYMid meet" viewBox="0 0 640 640" width="64" height="64"><defs><path d="M616.25 318.86C616.25 483.31 483.76 616.82 320.57 616.82C157.38 616.82 24.89 483.31 24.89 318.86C24.89 154.42 157.38 20.91 320.57 20.91C483.76 20.91 616.25 154.42 616.25 318.86Z" id="d1ybWTV8X0"></path><path d="M428.53 271.72C428.53 281.83 428.53 287.45 428.53 288.57C428.53 301.32 417.77 311.66 404.49 311.66C401.01 311.66 383.61 311.66 352.29 311.66L324.57 351.59L296.84 311.65C265.53 311.65 248.13 311.65 244.65 311.65C231.37 311.65 220.6 301.32 220.6 288.57C220.6 287.44 220.6 281.83 220.6 271.72L185.95 271.72L123.57 271.72L123.57 498L525.57 498L525.57 271.72L470.12 271.72L428.53 271.72Z" id="agzXLl5L5"></path><path d="M428.53 288.57C428.53 301.32 417.77 311.66 404.49 311.66C401.01 311.66 383.61 311.66 352.29 311.66L324.57 351.59L296.84 311.65C265.53 311.65 248.13 311.65 244.65 311.65C231.37 311.65 220.6 301.32 220.6 288.57C220.6 287.44 220.6 281.83 220.6 271.72L123.57 271.72L123.57 498C232.37 429.55 292.82 391.52 304.91 383.92C316.85 376.41 332.29 376.41 344.22 383.92C356.31 391.52 416.76 429.55 525.57 498L525.57 271.72L428.53 271.72C428.53 281.83 428.53 287.45 428.53 288.57Z" id="c6tW2YYoU"></path><path d="M525.57 498L525.57 271.72L367.25 398.41L525.57 498Z" id="bFN6p6IKK"></path><path d="M352.29 313.03L324.57 352.96L296.84 313.03C265.53 313.03 248.13 313.03 244.65 313.03C231.37 313.03 220.6 302.7 220.6 289.95C220.6 274.6 220.6 151.81 220.6 136.46C220.6 123.71 231.37 113.38 244.65 113.38C260.63 113.38 388.51 113.38 404.5 113.38C417.77 113.38 428.53 123.71 428.53 136.46C428.53 151.81 428.53 274.6 428.53 289.95C428.53 302.7 417.77 313.03 404.49 313.03C397.53 313.03 380.13 313.03 352.29 313.03Z" id="eZBFdlHBX"></path><path d="M123.57 498L281.89 398.41L123.57 271.72L123.57 498Z" id="g42FnnqmjO"></path><path d="M123.57 271.72L220.6 271.72L220.6 194.62L123.57 271.72Z" id="d5xYcn0nzX"></path><path d="M525.57 271.72L428.53 194.62L428.53 271.72L525.57 271.72Z" id="cec6fRgCa"></path></defs><g><g><g><use xlink:href="#d1ybWTV8X0" opacity="1" fill="#c8c8c8" fill-opacity="1"></use></g><g><use xlink:href="#agzXLl5L5" opacity="1" fill="#7e7d7d" fill-opacity="1"></use><g><use xlink:href="#agzXLl5L5" opacity="1" fill-opacity="0" stroke="#000000" stroke-width="1" stroke-opacity="0"></use></g></g><g><use xlink:href="#c6tW2YYoU" opacity="1" fill="#bab7b7" fill-opacity="1"></use><g><use xlink:href="#c6tW2YYoU" opacity="1" fill-opacity="0" stroke="#000000" stroke-width="1" stroke-opacity="0"></use></g></g><g><use xlink:href="#bFN6p6IKK" opacity="1" fill="#878787" fill-opacity="1"></use><g><use xlink:href="#bFN6p6IKK" opacity="1" fill-opacity="0" stroke="#000000" stroke-width="1" stroke-opacity="0"></use></g></g><g><use xlink:href="#eZBFdlHBX" opacity="1" fill="#d47e75" fill-opacity="1"></use><g><use xlink:href="#eZBFdlHBX" opacity="1" fill-opacity="0" stroke="#000000" stroke-width="1" stroke-opacity="0"></use></g></g><g><use xlink:href="#g42FnnqmjO" opacity="1" fill="#878787" fill-opacity="1"></use><g><use xlink:href="#g42FnnqmjO" opacity="1" fill-opacity="0" stroke="#000000" stroke-width="1" stroke-opacity="0"></use></g></g><g><use xlink:href="#d5xYcn0nzX" opacity="1" fill="#878787" fill-opacity="1"></use><g><use xlink:href="#d5xYcn0nzX" opacity="1" fill-opacity="0" stroke="#000000" stroke-width="1" stroke-opacity="0"></use></g></g><g><use xlink:href="#cec6fRgCa" opacity="1" fill="#878787" fill-opacity="1"></use><g><use xlink:href="#cec6fRgCa" opacity="1" fill-opacity="0" stroke="#000000" stroke-width="1" stroke-opacity="0"></use></g></g></g></g></svg>