<?xml version="1.0" encoding="UTF-8" standalone="no"?>
<svg
   xmlns:dc="http://purl.org/dc/elements/1.1/"
   xmlns:cc="http://creativecommons.org/ns#"
   xmlns:rdf="http://www.w3.org/1999/02/22-rdf-syntax-ns#"
   xmlns:svg="http://www.w3.org/2000/svg"
   xmlns="http://www.w3.org/2000/svg"
   xmlns:xlink="http://www.w3.org/1999/xlink"
   xmlns:sodipodi="http://sodipodi.sourceforge.net/DTD/sodipodi-0.dtd"
   xmlns:inkscape="http://www.inkscape.org/namespaces/inkscape"
   version="1.1"
   preserveAspectRatio="xMidYMid meet"
   viewBox="0 0 640 640"
   width="64"
   height="64"
   id="svg53"
   sodipodi:docname="io.github.jlijebl.Flowblade4.svg"
   inkscape:version="0.92.4 5da689c313, 2019-01-14">
  <metadata
     id="metadata57">
    <rdf:RDF>
      <cc:Work
         rdf:about="">
        <dc:format>image/svg+xml</dc:format>
        <dc:type
           rdf:resource="http://purl.org/dc/dcmitype/StillImage" />
      </cc:Work>
    </rdf:RDF>
  </metadata>
  <sodipodi:namedview
     pagecolor="#ffffff"
     bordercolor="#666666"
     borderopacity="1"
     objecttolerance="10"
     gridtolerance="10"
     guidetolerance="10"
     inkscape:pageopacity="0"
     inkscape:pageshadow="2"
     inkscape:window-width="1851"
     inkscape:window-height="1048"
     id="namedview55"
     showgrid="false"
     inkscape:zoom="7.375"
     inkscape:cx="35.879109"
     inkscape:cy="32.465331"
     inkscape:window-x="69"
     inkscape:window-y="32"
     inkscape:window-maximized="1"
     inkscape:current-layer="svg53" />
  <defs
     id="defs7">
    <path
       d="M558.02 58.22L559.7 58.29L561.4 58.41L563.05 58.57L564.71 58.75L566.3 58.99L567.9 59.26L569.47 59.56L571.01 59.89L572.5 60.28L573.99 60.69L575.46 61.14L576.87 61.63L578.25 62.14L579.58 62.69L580.91 63.26L582.19 63.87L583.41 64.5L584.61 65.17L585.75 65.86L586.87 66.58L587.93 67.32L588.94 68.09L589.92 68.88L590.83 69.69L591.7 70.54L592.53 71.4L593.3 72.28L594.01 73.19L594.68 74.1L595.26 75.04L595.82 76L596.29 76.97L596.72 77.97L597.09 78.96L597.38 79.98L597.61 81.01L597.8 82.05L597.87 83.11L597.92 84.18L596.47 586.64L596.41 587.68L596.3 588.7L596.11 589.71L595.84 590.71L595.52 591.7L595.12 592.68L594.66 593.63L594.13 594.59L593.54 595.51L592.9 596.42L592.18 597.31L591.4 598.18L590.55 599.04L589.66 599.88L588.7 600.68L587.72 601.47L586.65 602.23L585.55 602.97L584.41 603.69L583.21 604.38L581.95 605.06L580.65 605.7L579.31 606.3L577.93 606.89L576.51 607.44L575.05 607.96L573.55 608.45L572.03 608.91L570.46 609.35L568.86 609.74L567.21 610.1L565.56 610.43L563.85 610.72L562.12 610.96L560.39 611.19L558.6 611.36L556.82 611.49L554.98 611.58L553.14 611.64L551.28 611.66L551.32 598.74L551.26 598.08L551.21 597.75L551.05 597.09L550.95 596.76L550.84 596.45L550.71 596.11L550.23 595.17L550.05 594.86L549.84 594.54L549.62 594.25L549.15 593.65L548.88 593.35L548.62 593.07L548.03 592.51L547.39 591.94L547.07 591.68L546.73 591.41L545.98 590.92L545.59 590.67L545.21 590.42L543.94 589.72L543.03 589.29L542.58 589.09L541.62 588.69L540.61 588.32L540.08 588.14L539.57 587.97L538.51 587.67L537.95 587.54L537.42 587.41L536.86 587.27L536.3 587.16L535.18 586.95L534.6 586.87L534.04 586.79L533.45 586.72L532.89 586.65L532.31 586.58L531.72 586.55L531.16 586.5L530.58 586.48L529.99 586.44L529.41 586.43L528.23 586.42L527.65 586.44L527.06 586.47L526.48 586.48L525.89 586.53L525.33 586.56L524.16 586.69L523.6 586.76L523.01 586.84L522.45 586.92L521.33 587.11L520.77 587.23L520.21 587.36L519.68 587.49L519.12 587.62L518.06 587.91L517.52 588.08L516 588.62L514.56 589.21L514.11 589.42L513.68 589.63L512.4 590.32L512 590.57L510.88 591.31L510.53 591.57L510.21 591.84L509.87 592.12L509.57 592.4L509.25 592.68L508.72 593.24L508.45 593.53L507.97 594.13L507.76 594.42L507.54 594.73L507.17 595.36L507.01 595.67L506.87 595.99L506.74 596.32L506.63 596.63L506.52 596.96L506.36 597.62L506.31 597.95L506.25 598.61L506.22 598.96L506.19 611.52L145.44 610.48L145.48 597.57L145.45 597.24L145.3 596.24L145.19 595.91L145.11 595.58L144.98 595.27L144.85 594.94L144.71 594.62L144.56 594.31L144 593.37L143.76 593.07L143.55 592.77L143.31 592.47L143.04 592.18L142.78 591.89L142.19 591.33L141.56 590.77L140.86 590.24L140.52 589.99L140.12 589.74L139.75 589.49L139.35 589.24L138.95 589.01L138.1 588.55L137.2 588.11L136.72 587.91L136.26 587.71L135.76 587.51L135.28 587.33L134.75 587.15L134.24 586.97L133.71 586.8L132.65 586.5L132.11 586.36L131 586.1L130.44 585.98L129.32 585.78L128.76 585.69L128.17 585.61L127.61 585.54L127.03 585.47L126.47 585.41L125.88 585.37L125.3 585.32L124.71 585.3L124.13 585.27L123.54 585.25L122.95 585.25L122.37 585.26L121.81 585.26L121.22 585.29L120.64 585.31L120.05 585.36L119.47 585.39L118.88 585.45L118.32 585.52L117.73 585.58L116.61 585.74L116.03 585.84L115.47 585.94L114.91 586.05L114.38 586.18L113.82 586.31L113.28 586.44L112.22 586.74L111.68 586.9L111.15 587.08L110.64 587.26L110.16 587.44L109.66 587.64L109.18 587.83L108.72 588.03L107.82 588.46L106.96 588.92L106.56 589.15L105.76 589.64L105.39 589.89L105.04 590.13L104.35 590.66L103.71 591.22L103.12 591.78L102.85 592.06L102.59 592.36L102.11 592.95L101.89 593.25L101.33 594.19L101.17 594.5L101.03 594.81L100.9 595.14L100.77 595.46L100.66 595.79L100.58 596.12L100.52 596.45L100.44 596.78L100.39 597.44L100.35 610.35L98.49 610.33L96.65 610.26L94.84 610.15L93.03 610.01L91.27 609.83L89.51 609.59L87.78 609.34L86.11 609.04L84.43 608.7L82.8 608.33L81.21 607.93L79.64 607.48L78.09 607.01L76.6 606.52L75.14 605.98L73.73 605.43L72.35 604.84L71.02 604.22L69.71 603.57L68.49 602.89L67.3 602.19L66.13 601.46L65.04 600.72L63.97 599.96L62.99 599.16L62.03 598.35L61.16 597.5L60.33 596.64L59.56 595.77L58.85 594.87L58.18 593.96L57.6 593.03L57.07 592.08L56.62 591.12L56.22 590.14L55.91 589.15L55.64 588.14L55.46 587.13L55.36 586.11L55.33 585.07L56.79 81.41L56.82 80.91L56.93 79.92L57.01 79.42L57.23 78.43L57.36 77.96L57.5 77.46L57.68 76.98L57.85 76.5L58.27 75.55L58.52 75.07L58.76 74.61L59.02 74.13L59.29 73.67L59.61 73.21L59.91 72.75L60.25 72.3L60.6 71.84L60.95 71.39L61.32 70.95L61.72 70.52L62.13 70.08L62.98 69.22L63.43 68.81L63.91 68.38L64.4 67.97L64.9 67.57L65.41 67.16L65.94 66.77L66.48 66.39L67.04 66L68.21 65.24L68.8 64.88L69.41 64.52L70.05 64.15L71.33 63.47L72.67 62.81L74.05 62.18L74.75 61.89L75.47 61.59L76.91 61.04L78.4 60.51L79.95 60.02L81.49 59.56L82.29 59.35L83.06 59.14L83.89 58.94L84.69 58.75L85.52 58.57L86.32 58.39L87.17 58.23L88.82 57.93L90.53 57.67L91.38 57.56L92.26 57.45L93.11 57.35L93.99 57.26L94.84 57.18L96.6 57.05L97.51 57L98.38 56.95L99.26 56.92L100.17 56.89L101.05 56.88L556.29 58.2L558.02 58.22ZM526.18 485.9L524.74 486.03L523.3 486.21L521.89 486.43L520.51 486.73L519.15 487.05L517.81 487.45L516.53 487.89L515.33 488.38L514.19 488.9L513.12 489.46L512.11 490.05L511.17 490.68L510.32 491.35L509.54 492.05L508.88 492.75L508.26 493.49L507.75 494.25L507.3 495.04L506.98 495.84L506.73 496.66L506.57 497.49L506.52 498.33L506.44 523.48L506.57 524.77L506.92 526.02L507.44 527.23L508.21 528.39L509.17 529.48L510.28 530.52L511.59 531.5L513.02 532.4L514.62 533.21L516.37 533.94L518.21 534.58L520.18 535.11L522.26 535.54L524.41 535.86L526.65 536.05L528.97 536.13L530.51 536.08L532.03 535.94L533.55 535.69L535.04 535.35L536.53 534.93L537.97 534.38L539.41 533.75L540.83 533.02L542.24 532.18L543.63 531.25L544.99 530.23L546.32 529.11L547.66 527.87L548.97 526.56L550.28 525.12L551.53 523.61L551.61 498.46L551.58 497.62L551.42 496.79L551.19 495.96L550.84 495.17L550.42 494.38L549.92 493.62L549.31 492.87L548.61 492.16L547.84 491.46L547.02 490.78L546.09 490.15L545.08 489.56L544.02 488.99L542.87 488.46L541.65 487.96L540.37 487.51L539.07 487.11L537.71 486.78L536.3 486.48L534.89 486.24L533.48 486.05L532.01 485.92L530.58 485.83L529.11 485.79L527.65 485.82L526.18 485.9ZM120.34 484.73L118.9 484.85L117.47 485.03L116.05 485.26L114.67 485.55L113.31 485.88L111.98 486.27L110.7 486.71L109.5 487.2L108.35 487.73L107.26 488.29L106.27 488.88L105.33 489.5L104.48 490.18L103.71 490.87L103.01 491.58L102.42 492.32L101.89 493.08L101.46 493.87L101.11 494.66L100.87 495.49L100.73 496.31L100.68 497.15L100.61 522.3L100.66 523.14L100.79 523.97L101.02 524.8L101.37 525.59L101.79 526.38L102.32 527.14L102.91 527.89L103.6 528.6L104.37 529.3L105.22 529.98L106.15 530.61L107.13 531.2L108.22 531.77L109.37 532.3L110.56 532.8L111.84 533.25L113.17 533.63L114.53 533.98L115.91 534.28L117.32 534.52L118.76 534.71L120.2 534.84L121.66 534.93L123.13 534.97L124.57 534.94L126.03 534.86L127.47 534.73L128.91 534.55L130.32 534.33L131.71 534.03L133.07 533.69L134.4 533.31L135.25 533L136.1 532.64L136.93 532.25L137.73 531.79L138.51 531.3L139.25 530.74L140 530.13L140.72 529.47L141.42 528.78L142.08 528.02L142.75 527.21L143.37 526.36L143.98 525.45L144.57 524.49L145.16 523.49L145.7 522.43L145.77 497.28L145.72 496.44L145.59 495.61L145.35 494.79L145.01 493.99L144.58 493.2L144.05 492.44L143.47 491.69L142.78 490.98L142.01 490.29L141.16 489.61L140.23 488.98L139.24 488.38L138.15 487.82L137.01 487.28L135.81 486.78L134.53 486.34L133.2 485.94L131.85 485.6L130.46 485.3L129.05 485.06L127.61 484.88L126.18 484.74L124.71 484.66L123.27 484.62L121.81 484.65L120.34 484.73ZM524.85 385.43L522.69 385.74L520.64 386.15L518.66 386.67L516.8 387.31L515.07 388.01L513.47 388.82L512 389.72L510.69 390.67L509.57 391.71L508.61 392.8L507.86 393.95L507.29 395.16L506.94 396.41L506.81 397.7L506.73 422.85L506.86 424.14L507.21 425.39L507.76 426.58L508.5 427.74L509.46 428.85L510.58 429.89L511.88 430.85L513.34 431.75L514.94 432.56L516.67 433.3L518.53 433.93L520.5 434.46L522.55 434.9L524.7 435.22L526.94 435.41L529.26 435.48L530.8 435.43L532.32 435.29L533.84 435.05L535.33 434.72L536.8 434.28L538.26 433.74L539.7 433.1L541.12 432.38L542.53 431.54L543.92 430.62L545.28 429.58L546.62 428.46L547.95 427.24L549.26 425.91L550.57 424.49L551.85 422.98L551.92 397.83L551.79 396.54L551.45 395.28L550.9 394.08L550.15 392.92L549.2 391.83L548.08 390.78L546.78 389.82L545.32 388.91L543.72 388.1L541.99 387.38L540.13 386.73L538.16 386.2L536.11 385.78L533.93 385.46L531.69 385.27L529.4 385.2L527.09 385.26L524.85 385.43ZM119.01 384.26L116.85 384.56L114.77 384.97L112.8 385.49L110.93 386.13L109.2 386.84L107.6 387.64L106.13 388.54L104.85 389.5L103.7 390.54L102.77 391.62L101.99 392.78L101.43 393.98L101.08 395.23L100.97 396.52L100.9 421.67L101 422.96L101.34 424.22L101.9 425.41L102.67 426.56L103.6 427.67L104.74 428.72L106.01 429.68L107.48 430.57L109.07 431.39L110.8 432.12L112.66 432.75L114.63 433.29L116.71 433.72L118.87 434.04L121.1 434.23L123.39 434.3L124.96 434.26L126.48 434.11L128 433.87L129.49 433.54L130.96 433.1L132.43 432.56L133.84 431.94L135.28 431.2L136.67 430.36L138.05 429.44L139.42 428.4L140.78 427.29L142.11 426.07L143.42 424.73L144.7 423.32L145.99 421.8L146.06 396.65L145.96 395.36L145.61 394.11L145.06 392.9L144.29 391.74L143.36 390.65L142.22 389.61L140.92 388.65L139.48 387.73L137.88 386.92L136.16 386.2L134.29 385.55L132.32 385.02L130.25 384.6L128.09 384.28L125.85 384.09L123.54 384.02L121.25 384.08L119.01 384.26ZM526.79 284.62L525.33 284.75L523.91 284.95L522.47 285.17L521.09 285.47L519.73 285.79L518.4 286.19L517.14 286.63L515.92 287.12L514.77 287.63L513.7 288.2L512.69 288.79L511.76 289.42L510.9 290.08L510.15 290.77L509.46 291.49L508.84 292.23L508.34 292.99L507.91 293.78L507.56 294.58L507.32 295.4L507.15 296.23L507.1 297.07L507.03 322.22L507.08 323.06L507.23 323.89L507.47 324.7L507.82 325.51L508.24 326.28L508.74 327.06L509.35 327.81L510.04 328.52L510.79 329.21L511.64 329.88L512.57 330.52L513.58 331.12L514.64 331.68L515.79 332.22L517.01 332.7L518.26 333.15L519.59 333.55L520.95 333.9L522.33 334.2L523.77 334.44L525.18 334.62L526.65 334.76L528.08 334.84L529.55 334.88L531.01 334.85L532.45 334.77L533.92 334.65L535.33 334.47L536.77 334.24L538.15 333.95L539.51 333.61L540.85 333.21L541.7 332.92L542.53 332.56L543.35 332.16L544.15 331.7L544.93 331.19L545.7 330.65L546.42 330.04L547.14 329.38L547.84 328.68L548.53 327.94L549.17 327.13L549.81 326.27L550.43 325.36L551.02 324.41L551.58 323.4L552.14 322.35L552.22 297.2L552.17 296.36L552.01 295.53L551.77 294.7L551.43 293.91L551 293.12L550.5 292.35L549.89 291.61L549.2 290.88L548.45 290.19L547.6 289.52L546.67 288.89L545.66 288.3L544.6 287.71L543.46 287.2L542.23 286.7L540.98 286.25L539.65 285.85L538.29 285.52L536.91 285.21L535.47 284.98L534.06 284.78L532.6 284.64L531.16 284.57L529.69 284.53L528.23 284.56L526.79 284.62ZM120.93 283.46L119.49 283.58L118.05 283.77L116.64 284L115.25 284.29L113.89 284.62L112.56 285.01L111.28 285.45L110.05 285.94L108.93 286.45L107.84 287.03L106.85 287.62L105.92 288.24L105.06 288.9L104.29 289.59L103.59 290.32L102.98 291.06L102.47 291.82L102.04 292.61L101.69 293.4L101.45 294.22L101.32 295.05L101.26 295.89L101.19 321.04L101.24 321.88L101.37 322.71L101.61 323.52L101.95 324.33L102.38 325.11L102.91 325.88L103.49 326.63L104.18 327.34L104.95 328.04L105.8 328.7L106.73 329.35L107.71 329.94L108.8 330.51L109.95 331.04L111.15 331.52L112.42 331.97L113.75 332.37L115.11 332.72L116.49 333.02L117.91 333.26L119.34 333.45L120.78 333.58L122.25 333.67L123.71 333.71L125.15 333.68L126.61 333.6L128.05 333.47L129.49 333.29L130.9 333.07L132.29 332.77L133.65 332.43L134.98 332.04L135.83 331.74L136.69 331.38L137.51 330.99L138.31 330.53L139.09 330.02L139.84 329.48L140.58 328.87L141.3 328.21L142 327.5L142.67 326.76L143.34 325.95L143.95 325.1L144.57 324.19L145.15 323.23L145.72 322.23L146.28 321.17L146.35 296.02L146.3 295.18L146.17 294.35L145.93 293.53L145.59 292.73L145.16 291.94L144.63 291.18L144.05 290.43L143.36 289.71L142.59 289.01L141.74 288.35L140.81 287.72L139.83 287.12L138.74 286.54L137.59 286.02L136.39 285.52L135.12 285.07L133.79 284.67L132.43 284.34L131.05 284.04L129.63 283.8L128.2 283.6L126.76 283.47L125.29 283.39L123.83 283.36L122.39 283.39L120.93 283.46ZM527.08 183.99L525.62 184.12L524.2 184.32L522.77 184.54L521.38 184.82L520.02 185.16L518.69 185.55L517.44 186L516.21 186.47L515.06 187L513.99 187.56L512.98 188.16L512.05 188.79L511.19 189.45L510.45 190.14L509.75 190.86L509.14 191.6L508.63 192.36L508.2 193.15L507.85 193.95L507.61 194.75L507.45 195.6L507.39 196.42L507.32 221.59L507.37 222.43L507.53 223.26L507.76 224.06L508.11 224.87L508.53 225.65L509.03 226.43L509.65 227.17L510.34 227.89L511.08 228.58L511.93 229.25L512.86 229.89L513.87 230.49L514.93 231.05L516.08 231.59L517.3 232.07L518.55 232.52L519.88 232.92L521.24 233.27L522.62 233.57L524.06 233.81L525.47 233.99L526.94 234.13L528.37 234.21L529.84 234.25L531.3 234.22L532.74 234.14L534.21 234.02L535.62 233.84L537.06 233.61L538.44 233.32L539.8 232.98L541.14 232.58L541.99 232.29L542.82 231.93L543.64 231.53L544.44 231.07L545.22 230.56L545.99 230.02L546.71 229.41L547.43 228.75L548.13 228.05L548.82 227.3L549.46 226.5L550.11 225.64L550.72 224.73L551.31 223.78L551.87 222.77L552.43 221.72L552.51 196.55L552.46 195.73L552.3 194.88L552.06 194.07L551.72 193.28L551.29 192.49L550.79 191.72L550.18 190.98L549.49 190.25L548.75 189.56L547.9 188.89L546.97 188.26L545.95 187.66L544.89 187.08L543.75 186.55L542.52 186.07L541.27 185.62L539.94 185.22L538.59 184.87L537.2 184.58L535.76 184.35L534.35 184.15L532.89 184.01L531.45 183.94L529.99 183.9L528.52 183.93L527.08 183.99ZM121.22 182.82L119.78 182.95L118.34 183.14L116.93 183.37L115.54 183.64L114.18 183.99L112.85 184.38L111.57 184.82L110.37 185.3L109.22 185.82L108.13 186.38L107.14 186.99L106.21 187.61L105.36 188.27L104.58 188.96L103.89 189.69L103.3 190.43L102.76 191.19L102.33 191.98L101.99 192.77L101.74 193.58L101.61 194.42L101.55 195.24L101.48 220.41L101.53 221.25L101.66 222.08L101.9 222.89L102.24 223.7L102.67 224.48L103.2 225.25L103.78 226L104.47 226.71L105.24 227.41L106.09 228.07L107.02 228.72L108.01 229.31L109.1 229.88L110.24 230.41L111.44 230.89L112.71 231.34L114.04 231.74L115.4 232.09L116.79 232.39L118.2 232.63L119.63 232.82L121.07 232.95L122.54 233.04L124 233.08L125.44 233.05L126.91 232.97L128.34 232.84L129.78 232.66L131.19 232.44L132.58 232.14L133.94 231.8L135.27 231.41L136.13 231.11L136.98 230.75L137.81 230.36L138.61 229.9L139.38 229.39L140.13 228.85L140.87 228.24L141.6 227.58L142.29 226.87L142.96 226.13L143.63 225.32L144.24 224.46L144.86 223.56L145.45 222.6L146.03 221.6L146.57 220.54L146.64 195.38L146.59 194.55L146.46 193.71L146.22 192.9L145.88 192.1L145.46 191.31L144.93 190.55L144.34 189.8L143.65 189.08L142.88 188.38L142.03 187.72L141.1 187.09L140.12 186.49L139.03 185.91L137.88 185.38L136.69 184.89L135.41 184.44L134.08 184.04L132.72 183.69L131.34 183.41L129.93 183.17L128.49 182.97L127.05 182.83L125.59 182.76L124.12 182.73L122.68 182.76L121.22 182.82ZM525.72 83.52L523.56 83.83L521.49 84.25L519.51 84.78L517.67 85.4L515.91 86.12L514.31 86.93L512.87 87.81L511.56 88.78L510.44 89.8L509.48 90.91L508.71 92.06L508.17 93.27L507.82 94.52L507.68 95.79L507.61 120.96L507.74 122.24L508.08 123.48L508.61 124.69L509.38 125.85L510.34 126.96L511.45 128L512.75 128.96L514.19 129.88L515.78 130.69L517.54 131.42L519.38 132.05L521.35 132.59L523.42 133.01L525.58 133.33L527.81 133.53L530.13 133.6L531.68 133.56L533.19 133.42L534.71 133.17L536.21 132.83L537.7 132.39L539.14 131.86L540.58 131.22L541.99 130.48L543.41 129.66L544.79 128.73L546.16 127.71L547.52 126.57L548.83 125.35L550.13 124.02L551.44 122.6L552.73 121.09L552.8 95.92L552.67 94.65L552.33 93.39L551.77 92.19L551.03 91.03L550.07 89.92L548.96 88.89L547.66 87.91L546.22 87.02L544.6 86.2L542.87 85.47L541.01 84.84L539.04 84.31L536.99 83.87L534.83 83.55L532.59 83.36L530.28 83.29L527.96 83.35L525.72 83.52ZM119.88 82.36L117.73 82.67L115.65 83.08L113.68 83.6L111.81 84.22L110.08 84.95L108.48 85.75L107.01 86.64L105.73 87.61L104.58 88.64L103.64 89.73L102.87 90.89L102.3 92.09L101.95 93.34L101.84 94.61L101.77 119.78L101.87 121.07L102.22 122.31L102.77 123.52L103.54 124.67L104.47 125.78L105.61 126.81L106.89 127.79L108.35 128.68L109.95 129.5L111.68 130.23L113.54 130.86L115.51 131.4L117.58 131.83L119.74 132.15L121.98 132.34L124.27 132.41L125.84 132.37L127.36 132.22L128.88 131.98L130.37 131.64L131.83 131.21L133.3 130.67L134.71 130.03L136.15 129.31L137.54 128.47L138.93 127.55L140.29 126.51L141.65 125.39L142.99 124.18L144.3 122.84L145.58 121.43L146.86 119.91L146.93 94.75L146.83 93.47L146.49 92.22L145.93 91.01L145.16 89.85L144.24 88.76L143.09 87.72L141.79 86.74L140.36 85.84L138.76 85.03L137.03 84.3L135.17 83.66L133.2 83.13L131.12 82.71L128.97 82.39L126.73 82.19L124.41 82.11L122.12 82.17L119.88 82.36Z"
       id="b3fMNouf5U" />
    <path
       d="M451.27 271.76C451.27 282.76 451.27 370.72 451.27 381.72C451.27 390.39 433.49 397.42 411.55 397.42C395.67 397.42 268.55 397.42 252.64 397.42C230.7 397.42 212.92 390.39 212.92 381.72C212.92 370.72 212.92 282.76 212.92 271.76C212.92 263.09 230.7 256.06 252.64 256.06C284.43 256.06 395.67 256.06 411.55 256.06C433.49 256.06 451.27 263.09 451.27 271.76Z"
       id="f2j00kDbf" />
    <path
       d="M212.92 550.32C212.92 553.22 212.92 567.66 212.92 593.67C236.76 593.67 427.44 593.67 451.27 593.67C451.27 567.66 451.27 553.22 451.27 550.32C451.27 526.38 433.49 506.96 411.55 506.96C411.55 506.96 411.55 506.96 411.55 506.96C316.2 506.96 263.25 506.96 252.64 506.96C230.7 506.96 212.92 526.38 212.92 550.32Z"
       id="c24MT09ov6" />
    <path
       d="M451.27 159.84C451.27 163.55 447.1 167.11 439.64 169.73C432.2 172.35 422.09 173.83 411.55 173.83C395.67 173.83 268.55 173.83 252.64 173.83C230.7 173.83 212.92 167.57 212.92 159.84C212.92 154.25 212.92 126.29 212.92 75.96C212.92 75.96 212.92 75.96 212.92 75.96L451.27 75.96C451.27 128.16 451.27 156.12 451.27 159.84Z"
       id="c1oMTevlk" />
    <path
       d="M386.04 121.12L502.8 171.72C448.61 179.31 417.99 187.41 410.92 196.02C403.86 204.62 404.81 228.65 413.76 268.11C378.11 291.73 358.4 307.36 354.65 315.01C350.9 322.66 354.87 346.67 366.55 387.05C334.79 395.63 317.24 402.78 313.9 408.5C310.56 414.22 316.43 434.72 331.53 470.01C299.93 479.42 282.52 487.77 279.3 495.07C276.09 502.37 294.12 527.7 333.4 571.07L161.39 515.62L386.04 121.12Z"
       id="e1mRM7aSbO" />
  </defs>
  <g
     id="g51"
     transform="translate(-6.2180155,-18.846773)">
    <g
       id="g49">
      <g
         id="g15">
        <use
           xlink:href="#b3fMNouf5U"
           id="use9"
           style="opacity:1;fill:#525054;fill-opacity:1"
           x="0"
           y="0"
           width="100%"
           height="100%" />
        <g
           id="g13">
          <use
             xlink:href="#b3fMNouf5U"
             id="use11"
             style="opacity:1;fill-opacity:0;stroke:#000000;stroke-width:1;stroke-opacity:0"
             x="0"
             y="0"
             width="100%"
             height="100%" />
        </g>
      </g>
      <g
         id="g23">
        <use
           xlink:href="#f2j00kDbf"
           id="use17"
           style="opacity:1;fill:#a19fa5;fill-opacity:1"
           x="0"
           y="0"
           width="100%"
           height="100%" />
        <g
           id="g21">
          <use
             xlink:href="#f2j00kDbf"
             id="use19"
             style="opacity:1;fill-opacity:0;stroke:#000000;stroke-width:1;stroke-opacity:0"
             x="0"
             y="0"
             width="100%"
             height="100%" />
        </g>
      </g>
      <g
         id="g31">
        <use
           xlink:href="#c24MT09ov6"
           id="use25"
           style="opacity:1;fill:#a19fa5;fill-opacity:1"
           x="0"
           y="0"
           width="100%"
           height="100%" />
        <g
           id="g29">
          <use
             xlink:href="#c24MT09ov6"
             id="use27"
             style="opacity:1;fill-opacity:0;stroke:#000000;stroke-width:1;stroke-opacity:0"
             x="0"
             y="0"
             width="100%"
             height="100%" />
        </g>
      </g>
      <g
         id="g39">
        <use
           xlink:href="#c1oMTevlk"
           id="use33"
           style="opacity:1;fill:#a19fa5;fill-opacity:1"
           x="0"
           y="0"
           width="100%"
           height="100%" />
        <g
           id="g37">
          <use
             xlink:href="#c1oMTevlk"
             id="use35"
             style="opacity:1;fill-opacity:0;stroke:#000000;stroke-width:1;stroke-opacity:0"
             x="0"
             y="0"
             width="100%"
             height="100%" />
        </g>
      </g>
      <g
         id="g47">
        <use
           xlink:href="#e1mRM7aSbO"
           id="use41"
           style="opacity:1;fill:#f9f9f9;fill-opacity:1"
           x="0"
           y="0"
           width="100%"
           height="100%" />
        <g
           id="g45">
          <use
             xlink:href="#e1mRM7aSbO"
             id="use43"
             style="opacity:1;fill-opacity:0;stroke:#e14e94;stroke-width:0;stroke-opacity:1"
             x="0"
             y="0"
             width="100%"
             height="100%" />
        </g>
      </g>
    </g>
  </g>
</svg>
