<?xml version="1.0" encoding="UTF-8" standalone="no"?>
<svg
   xmlns:dc="http://purl.org/dc/elements/1.1/"
   xmlns:cc="http://creativecommons.org/ns#"
   xmlns:rdf="http://www.w3.org/1999/02/22-rdf-syntax-ns#"
   xmlns:svg="http://www.w3.org/2000/svg"
   xmlns="http://www.w3.org/2000/svg"
   xmlns:xlink="http://www.w3.org/1999/xlink"
   xmlns:sodipodi="http://sodipodi.sourceforge.net/DTD/sodipodi-0.dtd"
   xmlns:inkscape="http://www.inkscape.org/namespaces/inkscape"
   version="1.1"
   preserveAspectRatio="xMidYMid meet"
   viewBox="0 0 640 640"
   width="64"
   height="64"
   id="svg124"
   sodipodi:docname="org.kde.khangman.svg"
   inkscape:version="0.92.5 (2060ec1f9f, 2020-04-08)">
  <metadata
     id="metadata128">
    <rdf:RDF>
      <cc:Work
         rdf:about="">
        <dc:format>image/svg+xml</dc:format>
        <dc:type
           rdf:resource="http://purl.org/dc/dcmitype/StillImage" />
      </cc:Work>
    </rdf:RDF>
  </metadata>
  <sodipodi:namedview
     pagecolor="#ffffff"
     bordercolor="#666666"
     borderopacity="1"
     objecttolerance="10"
     gridtolerance="10"
     guidetolerance="10"
     inkscape:pageopacity="0"
     inkscape:pageshadow="2"
     inkscape:window-width="1850"
     inkscape:window-height="1048"
     id="namedview126"
     showgrid="false"
     inkscape:zoom="2.6074563"
     inkscape:cx="-25.139562"
     inkscape:cy="30.445302"
     inkscape:window-x="70"
     inkscape:window-y="32"
     inkscape:window-maximized="1"
     inkscape:current-layer="svg124" />
  <defs
     id="defs22">
    <path
       d="M24.99 23.49L615.01 23.49L615.01 615.76L24.99 615.76L24.99 23.49Z"
       id="cQiS2R4bI" />
    <path
       d="M101.88 555.78L145.16 555.78L145.16 573.96L101.88 573.96L101.88 555.78Z"
       id="a1lmon3MLE" />
    <path
       d="M177.69 555.78L220.97 555.78L220.97 573.96L177.69 573.96L177.69 555.78Z"
       id="h30FnSYtwD" />
    <path
       d="M254.64 555.78L297.92 555.78L297.92 573.96L254.64 573.96L254.64 555.78Z"
       id="c6MOBuPdNI" />
    <path
       d="M332.73 555.78L376.01 555.78L376.01 573.96L332.73 573.96L332.73 555.78Z"
       id="b3xN0Wd3" />
    <path
       d="M414.24 555.78L457.52 555.78L457.52 573.96L414.24 573.96L414.24 555.78Z"
       id="g1AvlX3PqQ" />
    <path
       d="M495.75 555.78L539.03 555.78L539.03 573.96L495.75 573.96L495.75 555.78Z"
       id="mhRbIMnpG" />
    <path
       d="M76.82 420L245 420L245 448.41L76.82 448.41L76.82 420Z"
       id="aPVJ6uF0f" />
    <path
       d="M137.46 510.3C133.75 510.3 130.74 512.8 130.74 515.9C130.74 518.99 133.75 521.5 137.46 521.5C137.68 521.5 138.8 521.5 140.82 521.5C140.82 523.18 140.82 524.11 140.82 524.3C140.82 528.94 136.31 532.7 130.74 532.7C129.74 532.7 121.68 532.7 120.67 532.7C115.11 532.7 110.6 528.94 110.6 524.3C110.6 521.22 110.6 496.57 110.6 493.49C110.6 488.85 115.11 485.09 120.67 485.09C121.68 485.09 129.74 485.09 130.74 485.09C136.31 485.09 140.82 488.85 140.82 493.49C140.82 496.59 143.82 499.09 147.53 499.09C151.24 499.09 154.25 496.59 154.25 493.49C154.25 482.66 143.72 473.89 130.74 473.89C129.74 473.89 121.68 473.89 120.67 473.89C107.69 473.89 97.17 482.66 97.17 493.49C97.17 496.57 97.17 521.22 97.17 524.3C97.17 529.5 99.65 534.48 104.05 538.16C108.46 541.84 114.44 543.9 120.67 543.9C121.68 543.9 129.74 543.9 130.74 543.9C136.98 543.9 142.95 541.84 147.36 538.16C151.77 534.48 154.25 529.5 154.25 524.3C154.25 524.11 154.25 523.18 154.25 521.5C156.26 521.5 157.38 521.5 157.6 521.5C161.31 521.5 164.32 518.99 164.32 515.9C164.32 512.8 161.31 510.3 157.6 510.3C153.57 510.3 139.47 510.3 137.46 510.3Z"
       id="b7ureYK067" />
    <path
       d="M548.3 477.81C545.12 476.87 541.36 477.74 539.83 479.77C537.76 482.1 521.14 500.69 519.06 503.01C518.69 503.38 518.06 503.59 517.39 503.59C516.71 503.59 516.08 503.38 515.71 503.01C513.63 500.69 497.01 482.09 494.93 479.77C493.74 478.36 491.5 477.45 489.02 477.38C488.12 477.38 487.24 477.53 486.47 477.81C484.75 478.5 483.74 479.74 483.82 481.04C483.82 481.91 484.18 482.77 484.86 483.52C487.51 486.48 508.67 510.15 511.32 513.11C511.49 513.3 511.58 513.52 511.58 513.74C511.58 516.73 511.58 540.66 511.58 543.65C511.58 545.72 514.18 547.4 517.39 547.4C520.59 547.4 523.2 545.72 523.2 543.65C523.2 540.66 523.2 516.73 523.2 513.74C523.2 513.52 523.29 513.3 523.46 513.12C526.1 510.16 547.26 486.48 549.9 483.52C550.59 482.77 550.95 481.92 550.96 481.04C551.04 479.74 550.02 478.5 548.3 477.81Z"
       id="b3XAzcdg6" />
    <path
       d="M149.55 68.86L172.27 68.86L172.27 420L149.55 420L149.55 68.86Z"
       id="a1HZ1BtQTG" />
    <path
       d="M149.55 50.68L317.73 50.68L317.73 79.09L149.55 79.09L149.55 50.68Z"
       id="bGSlooCgn" />
    <path
       d="M336.74 192.9C336.74 225.1 309.65 251.25 276.28 251.25C242.92 251.25 215.83 225.1 215.83 192.9C215.83 160.69 242.92 134.55 276.28 134.55C309.65 134.55 336.74 160.69 336.74 192.9Z"
       id="a5wfoXLdg" />
    <path
       d="M284.83 64.32L285.91 144.31L267.73 144.56L266.65 64.56L284.83 64.32Z"
       id="bFEGmcKNZ" />
    <path
       d="M321.17 192.9C321.17 216.86 301.05 236.31 276.28 236.31C251.51 236.31 231.4 216.86 231.4 192.9C231.4 168.94 251.51 149.49 276.28 149.49C301.05 149.49 321.17 168.94 321.17 192.9Z"
       id="gkzUErO3O" />
    <path
       d="M287.65 239.13L264.92 239.13L264.92 342.2L287.65 342.2L287.65 239.13Z"
       id="bOZpKCXPn" />
    <path
       d="M285.9 261.79L276.28 277.22L344.17 319.54L353.79 304.11L285.9 261.79Z"
       id="a3k8sUw3lo" />
    <path
       d="M208.95 319.54L199.33 304.11L267.22 261.79L276.84 277.22L208.95 319.54Z"
       id="csNDnSsF" />
    <path
       d="M503.37 304.19C493.76 316.83 416.86 417.93 407.25 430.57C406.1 432.08 405.77 434.02 406.35 435.78C406.94 437.55 408.38 438.92 410.21 439.47C410.88 439.67 414.2 440.67 420.18 442.46L422.51 457.46L395.3 469.75L362.33 446.72L366.21 418.13L381.82 415.67C385.43 420.57 387.44 423.3 387.85 423.85C388.95 425.35 390.76 426.24 392.69 426.24C393.01 426.24 393.34 426.21 393.65 426.16C395.21 425.92 396.64 425.09 397.59 423.83C407.2 411.19 484.1 310.09 493.71 297.45C494.66 296.2 495.06 294.66 494.83 293.14C494.59 291.62 493.74 290.27 492.46 289.38C489.95 287.63 469.86 273.59 467.35 271.84C466.07 270.94 464.46 270.58 462.89 270.83C462.89 270.83 462.88 270.83 462.87 270.83C461.29 271.09 459.87 271.93 458.93 273.18C448.64 286.84 366.29 396.12 356 409.78C355.95 409.84 355.96 409.93 355.92 410C355.41 410.73 355.01 411.54 354.88 412.47C354.55 414.89 352.91 426.99 349.96 448.76C346.11 477.17 343.97 492.96 343.54 496.11C343.26 498.2 344.17 500.25 345.93 501.48C347.23 502.38 348.83 502.73 350.39 502.49C350.93 502.4 351.47 502.24 351.98 502.01C354.99 500.65 370.01 493.87 397.05 481.66C417.79 472.3 429.3 467.1 431.61 466.06C431.71 466.01 431.77 465.92 431.87 465.87C432.23 465.69 432.53 465.43 432.84 465.18C433.15 464.94 433.46 464.71 433.71 464.42C433.78 464.34 433.87 464.3 433.94 464.22C444.35 450.65 527.7 342.07 538.12 328.5C539.08 327.26 539.48 325.7 539.25 324.18C539.02 322.67 538.17 321.31 536.88 320.41C535.21 319.24 526.84 313.39 511.77 302.87C507.43 302.09 504.63 302.53 503.37 304.19Z"
       id="a1HlAx10kM" />
    <path
       d="M525.44 224.64C515.12 217.48 499.48 219.93 491.8 229.97C489.94 232.41 475.13 251.95 473.28 254.39C471.32 256.98 471.88 260.55 474.54 262.4C481.51 267.23 537.28 305.93 544.25 310.77C545.58 311.7 547.19 312.01 548.71 311.77C550.23 311.53 551.65 310.75 552.64 309.47C554.52 307.04 569.53 287.61 571.4 285.18C575.23 280.19 576.82 274.1 575.87 268.03C574.93 261.97 571.57 256.66 566.41 253.08C558.22 247.39 529.54 227.49 525.44 224.64Z"
       id="e6sLAfjLrW" />
  </defs>
  <rect
     style="opacity:1;fill:#94bdb5;fill-opacity:1;stroke:#477269;stroke-width:26.96;stroke-linecap:square;stroke-miterlimit:4;stroke-dasharray:none;stroke-dashoffset:0;stroke-opacity:1;paint-order:stroke markers fill"
     id="rect935"
     width="572.20343"
     height="580.33899"
     x="35.254246"
     y="35.254238"
     ry="8.1355896" />
  <g
     id="g122"
     transform="translate(762.03392,-26.743643)">
    <g
       id="g120">
      <g
         id="g30"
         transform="matrix(0.78752018,0,0,0.78752018,-691.47391,73.141358)"
         style="stroke:none;stroke-opacity:1;fill:#477269;fill-opacity:1">
        <use
           xlink:href="#a1lmon3MLE"
           id="use28"
           style="opacity:1;fill:#477269;fill-opacity:1;stroke:none;stroke-opacity:1"
           x="0"
           y="0"
           width="100%"
           height="100%" />
      </g>
      <g
         id="g34"
         transform="matrix(0.78752018,0,0,0.78752018,-691.47391,73.141358)"
         style="stroke:none;stroke-opacity:1;fill:#477269;fill-opacity:1">
        <use
           xlink:href="#h30FnSYtwD"
           id="use32"
           style="opacity:1;fill:#477269;fill-opacity:1;stroke:none;stroke-opacity:1"
           x="0"
           y="0"
           width="100%"
           height="100%" />
      </g>
      <g
         id="g38"
         transform="matrix(0.78752018,0,0,0.78752018,-691.47391,73.141358)"
         style="stroke:none;stroke-opacity:1;fill:#477269;fill-opacity:1">
        <use
           xlink:href="#c6MOBuPdNI"
           id="use36"
           style="opacity:1;fill:#477269;fill-opacity:1;stroke:none;stroke-opacity:1"
           x="0"
           y="0"
           width="100%"
           height="100%" />
      </g>
      <g
         id="g42"
         transform="matrix(0.78752018,0,0,0.78752018,-691.47391,73.141358)"
         style="stroke:none;stroke-opacity:1;fill:#477269;fill-opacity:1">
        <use
           xlink:href="#b3xN0Wd3"
           id="use40"
           style="opacity:1;fill:#477269;fill-opacity:1;stroke:none;stroke-opacity:1"
           x="0"
           y="0"
           width="100%"
           height="100%" />
      </g>
      <g
         id="g46"
         transform="matrix(0.78752018,0,0,0.78752018,-691.47391,73.141358)"
         style="stroke:none;stroke-opacity:1;fill:#477269;fill-opacity:1">
        <use
           xlink:href="#g1AvlX3PqQ"
           id="use44"
           style="opacity:1;fill:#477269;fill-opacity:1;stroke:none;stroke-opacity:1"
           x="0"
           y="0"
           width="100%"
           height="100%" />
      </g>
      <g
         id="g50"
         transform="matrix(0.78752018,0,0,0.78752018,-691.47391,73.141358)"
         style="stroke:none;stroke-opacity:1;fill:#477269;fill-opacity:1">
        <use
           xlink:href="#mhRbIMnpG"
           id="use48"
           style="opacity:1;fill:#477269;fill-opacity:1;stroke:none;stroke-opacity:1"
           x="0"
           y="0"
           width="100%"
           height="100%" />
      </g>
      <g
         id="g54"
         transform="matrix(0.78752018,0,0,0.78752018,-691.47391,73.141358)"
         style="stroke:none;stroke-opacity:1;fill:#477269;fill-opacity:1">
        <use
           xlink:href="#aPVJ6uF0f"
           id="use52"
           style="opacity:1;fill:#477269;fill-opacity:1;stroke:none;stroke-opacity:1"
           x="0"
           y="0"
           width="100%"
           height="100%" />
      </g>
      <g
         id="g62"
         transform="matrix(0.78752018,0,0,0.78752018,-691.47391,73.141358)"
         style="stroke:none;stroke-opacity:1;fill:#477269;fill-opacity:1">
        <use
           xlink:href="#b7ureYK067"
           id="use56"
           style="opacity:1;fill:#477269;fill-opacity:1;stroke:none;stroke-opacity:1"
           x="0"
           y="0"
           width="100%"
           height="100%" />
        <g
           id="g60"
           style="stroke:none;stroke-opacity:1;fill:#477269;fill-opacity:1">
          <use
             xlink:href="#b7ureYK067"
             id="use58"
             style="opacity:1;fill-opacity:1;stroke:none;stroke-width:1;stroke-opacity:1;fill:#477269"
             x="0"
             y="0"
             width="100%"
             height="100%" />
        </g>
      </g>
      <g
         id="g70"
         transform="matrix(0.78752018,0,0,0.78752018,-691.47391,73.141358)"
         style="stroke:none;stroke-opacity:1;fill:#477269;fill-opacity:1">
        <use
           xlink:href="#b3XAzcdg6"
           id="use64"
           style="opacity:1;fill:#477269;fill-opacity:1;stroke:none;stroke-opacity:1"
           x="0"
           y="0"
           width="100%"
           height="100%" />
        <g
           id="g68"
           style="stroke:none;stroke-opacity:1;fill:#477269;fill-opacity:1">
          <use
             xlink:href="#b3XAzcdg6"
             id="use66"
             style="opacity:1;fill-opacity:1;stroke:none;stroke-width:1;stroke-opacity:1;fill:#477269"
             x="0"
             y="0"
             width="100%"
             height="100%" />
        </g>
      </g>
      <g
         id="g74"
         transform="matrix(0.78752018,0,0,0.78752018,-691.47391,73.141358)"
         style="stroke:none;stroke-opacity:1;fill:#477269;fill-opacity:1">
        <use
           xlink:href="#a1HZ1BtQTG"
           id="use72"
           style="opacity:1;fill:#477269;fill-opacity:1;stroke:none;stroke-opacity:1"
           x="0"
           y="0"
           width="100%"
           height="100%" />
      </g>
      <g
         id="g78"
         transform="matrix(0.78752018,0,0,0.78752018,-691.47391,73.141358)"
         style="stroke:none;stroke-opacity:1;fill:#477269;fill-opacity:1">
        <use
           xlink:href="#bGSlooCgn"
           id="use76"
           style="opacity:1;fill:#477269;fill-opacity:1;stroke:none;stroke-opacity:1"
           x="0"
           y="0"
           width="100%"
           height="100%" />
      </g>
      <g
         id="g82"
         transform="matrix(0.78752018,0,0,0.78752018,-691.47391,73.141358)"
         style="stroke:none;stroke-opacity:1;fill:#477269;fill-opacity:1">
        <use
           xlink:href="#a5wfoXLdg"
           id="use80"
           style="opacity:1;fill:#477269;fill-opacity:1;stroke:none;stroke-opacity:1"
           x="0"
           y="0"
           width="100%"
           height="100%" />
      </g>
      <g
         id="g86"
         transform="matrix(0.78752018,0,0,0.78752018,-691.47391,73.141358)"
         style="stroke:none;stroke-opacity:1;fill:#477269;fill-opacity:1">
        <use
           xlink:href="#bFEGmcKNZ"
           id="use84"
           style="opacity:1;fill:#477269;fill-opacity:1;stroke:none;stroke-opacity:1"
           x="0"
           y="0"
           width="100%"
           height="100%" />
      </g>
      <g
         id="g90"
         transform="matrix(0.78752018,0,0,0.78752018,-691.47391,73.141358)"
         style="stroke:none;stroke-opacity:1;fill:#477269;fill-opacity:1">
        <use
           xlink:href="#gkzUErO3O"
           id="use88"
           style="opacity:1;fill:#477269;fill-opacity:1;stroke:none;stroke-opacity:1"
           x="0"
           y="0"
           width="100%"
           height="100%" />
      </g>
      <g
         id="g94"
         transform="matrix(0.78752018,0,0,0.78752018,-691.47391,73.141358)"
         style="stroke:none;stroke-opacity:1;fill:#477269;fill-opacity:1">
        <use
           xlink:href="#bOZpKCXPn"
           id="use92"
           style="opacity:1;fill:#477269;fill-opacity:1;stroke:none;stroke-opacity:1"
           x="0"
           y="0"
           width="100%"
           height="100%" />
      </g>
      <g
         id="g98"
         transform="matrix(0.78752018,0,0,0.78752018,-691.47391,73.141358)"
         style="stroke:none;stroke-opacity:1;fill:#477269;fill-opacity:1">
        <use
           xlink:href="#a3k8sUw3lo"
           id="use96"
           style="opacity:1;fill:#477269;fill-opacity:1;stroke:none;stroke-opacity:1"
           x="0"
           y="0"
           width="100%"
           height="100%" />
      </g>
      <g
         id="g102"
         transform="matrix(0.78752018,0,0,0.78752018,-691.47391,73.141358)"
         style="stroke:none;stroke-opacity:1;fill:#477269;fill-opacity:1">
        <use
           xlink:href="#csNDnSsF"
           id="use100"
           style="opacity:1;fill:#477269;fill-opacity:1;stroke:none;stroke-opacity:1"
           x="0"
           y="0"
           width="100%"
           height="100%" />
      </g>
      <g
         id="g110"
         transform="matrix(0.78752018,0,0,0.78752018,-691.47391,73.141358)"
         style="stroke:none;stroke-opacity:1;fill:#477269;fill-opacity:1">
        <use
           xlink:href="#a1HlAx10kM"
           id="use104"
           style="opacity:1;fill:#477269;fill-opacity:1;stroke:none;stroke-opacity:1"
           x="0"
           y="0"
           width="100%"
           height="100%" />
        <g
           id="g108"
           style="stroke:none;stroke-opacity:1;fill:#477269;fill-opacity:1">
          <use
             xlink:href="#a1HlAx10kM"
             id="use106"
             style="opacity:1;fill-opacity:1;stroke:none;stroke-width:1;stroke-opacity:1;fill:#477269"
             x="0"
             y="0"
             width="100%"
             height="100%" />
        </g>
      </g>
      <g
         id="g118"
         transform="matrix(0.78752018,0,0,0.78752018,-691.47391,73.141358)"
         style="stroke:none;stroke-opacity:1;fill:#477269;fill-opacity:1">
        <use
           xlink:href="#e6sLAfjLrW"
           id="use112"
           style="opacity:1;fill:#477269;fill-opacity:1;stroke:none;stroke-opacity:1"
           x="0"
           y="0"
           width="100%"
           height="100%" />
        <g
           id="g116"
           style="stroke:none;stroke-opacity:1;fill:#477269;fill-opacity:1">
          <use
             xlink:href="#e6sLAfjLrW"
             id="use114"
             style="opacity:1;fill-opacity:1;stroke:none;stroke-width:1;stroke-opacity:1;fill:#477269"
             x="0"
             y="0"
             width="100%"
             height="100%" />
        </g>
      </g>
    </g>
  </g>
</svg>
