<?xml version="1.0" encoding="UTF-8" standalone="no"?>
<!DOCTYPE svg PUBLIC "-//W3C//DTD SVG 1.1//EN" "http://www.w3.org/Graphics/SVG/1.1/DTD/svg11.dtd">
<svg version="1.1" xmlns="http://www.w3.org/2000/svg" xmlns:xlink="http://www.w3.org/1999/xlink" preserveAspectRatio="xMidYMid meet" viewBox="0 0 640 640" width="64" height="64"><defs><path d="M617.29 321.12C617.29 481.79 486.6 612.23 325.62 612.23C164.64 612.23 33.95 481.79 33.95 321.12C33.95 160.46 164.64 30.02 325.62 30.02C486.6 30.02 617.29 160.46 617.29 321.12Z" id="fy4Hlh7CM"></path><path d="M286.45 448.67L206.59 367.03L399.73 169.57L479.58 251.21L286.45 448.67ZM199.13 381.41L272.38 456.3L162.56 493.69L199.13 381.41ZM490.29 240.37L410.34 158.62C418.65 150.12 423.26 145.4 424.19 144.46C438.14 130.18 460.76 130.18 474.72 144.46C477.66 147.46 501.2 171.54 504.14 174.54C518 188.86 518 211.9 504.14 226.2C502.3 228.09 497.68 232.81 490.29 240.37Z" id="d3tKQXg6Ke"></path></defs><g><g><g><use xlink:href="#fy4Hlh7CM" opacity="1" fill="#74818d" fill-opacity="1"></use></g><g><use xlink:href="#d3tKQXg6Ke" opacity="1" fill="#c3d0de" fill-opacity="1"></use><g><use xlink:href="#d3tKQXg6Ke" opacity="1" fill-opacity="0" stroke="#000000" stroke-width="1" stroke-opacity="0"></use></g></g></g></g></svg>