<?xml version="1.0" encoding="UTF-8" standalone="no"?>
<svg
   xmlns:dc="http://purl.org/dc/elements/1.1/"
   xmlns:cc="http://creativecommons.org/ns#"
   xmlns:rdf="http://www.w3.org/1999/02/22-rdf-syntax-ns#"
   xmlns:svg="http://www.w3.org/2000/svg"
   xmlns="http://www.w3.org/2000/svg"
   xmlns:sodipodi="http://sodipodi.sourceforge.net/DTD/sodipodi-0.dtd"
   xmlns:inkscape="http://www.inkscape.org/namespaces/inkscape"
   inkscape:version="1.0 (4035a4fb49, 2020-05-01)"
   sodipodi:docname="org.kde.kturtle (2).svg"
   id="svg29"
   style="fill-rule:evenodd;clip-rule:evenodd;stroke-linejoin:round;stroke-miterlimit:2;"
   xml:space="preserve"
   version="1.1"
   viewBox="0 0 538 534"
   height="100%"
   width="100%"><metadata
     id="metadata35"><rdf:RDF><cc:Work
         rdf:about=""><dc:format>image/svg+xml</dc:format><dc:type
           rdf:resource="http://purl.org/dc/dcmitype/StillImage" /><dc:title></dc:title></cc:Work></rdf:RDF></metadata><defs
     id="defs33" /><sodipodi:namedview
     inkscape:current-layer="svg29"
     inkscape:window-maximized="1"
     inkscape:window-y="32"
     inkscape:window-x="70"
     inkscape:cy="354.17205"
     inkscape:cx="203.27823"
     inkscape:zoom="0.7752809"
     showgrid="false"
     id="namedview31"
     inkscape:window-height="1048"
     inkscape:window-width="1850"
     inkscape:pageshadow="2"
     inkscape:pageopacity="0"
     guidetolerance="10"
     gridtolerance="10"
     objecttolerance="10"
     borderopacity="1"
     bordercolor="#666666"
     pagecolor="#ffffff" /><rect
     style="fill:none;"
     height="533.333"
     width="533.333"
     y="0"
     x="0.626"
     id="org.kde.kturtle" /><circle
     r="249"
     id="circle3"
     style="fill:#d2dde4;fill-opacity:1"
     cy="266.66699"
     cx="267.29199" /><path
     id="path5"
     style="fill:#b0c4d6;fill-opacity:1"
     d="M267.292,17.667c137.427,-0 249,111.573 249,249c-0,137.426 -111.573,248.999 -249,248.999c-137.426,0 -249,-111.573 -249,-248.999c0,-137.427 111.574,-249 249,-249Zm0,22.5c125.009,-0 226.5,101.491 226.5,226.5c-0,125.008 -101.491,226.499 -226.5,226.499c-125.008,0 -226.5,-101.491 -226.5,-226.499c0,-125.009 101.492,-226.5 226.5,-226.5Z" /><g
     id="g27"><g
       id="g19"><g
         id="g11"><path
           id="path7"
           style="fill:#91c791;"
           d="M342.5,350.72c7.438,-4.295 16.949,-1.746 21.243,5.692c8.29,14.358 21.341,36.964 29.631,51.322c4.294,7.438 1.746,16.949 -5.692,21.243c-2.698,1.558 -5.534,3.195 -8.232,4.753c-7.438,4.294 -16.949,1.746 -21.243,-5.692c-8.29,-14.359 -21.341,-36.964 -29.631,-51.323c-4.294,-7.438 -1.746,-16.948 5.692,-21.243c2.698,-1.557 5.534,-3.195 8.232,-4.752Z" /><path
           id="path9"
           style="fill:#91c791;"
           d="M192.084,350.72c-7.438,-4.295 -16.948,-1.746 -21.243,5.692c-8.289,14.358 -21.341,36.964 -29.631,51.322c-4.294,7.438 -1.746,16.949 5.692,21.243c2.699,1.558 5.534,3.195 8.233,4.753c7.437,4.294 16.948,1.746 21.242,-5.692c8.29,-14.359 21.342,-36.964 29.631,-51.323c4.295,-7.438 1.746,-16.948 -5.691,-21.243c-2.699,-1.557 -5.534,-3.195 -8.233,-4.752Z" /></g><g
         id="g17"><path
           id="path13"
           style="fill:#91c791;"
           d="M130.394,204.698c-6.073,6.073 -6.073,15.919 -0,21.992c11.723,11.724 30.181,30.181 41.904,41.905c6.073,6.073 15.919,6.073 21.992,-0c2.204,-2.203 4.519,-4.518 6.722,-6.722c6.073,-6.073 6.073,-15.919 0,-21.992c-11.724,-11.724 -30.181,-30.181 -41.905,-41.905c-6.073,-6.073 -15.919,-6.073 -21.992,0c-2.203,2.204 -4.518,4.519 -6.721,6.722Z" /><path
           id="path15"
           style="fill:#91c791;"
           d="M404.191,204.698c6.073,6.073 6.073,15.919 -0,21.992c-11.724,11.724 -30.181,30.181 -41.905,41.905c-6.073,6.073 -15.919,6.073 -21.992,-0c-2.203,-2.203 -4.519,-4.518 -6.722,-6.722c-6.073,-6.073 -6.073,-15.919 0,-21.992c11.724,-11.724 30.181,-30.181 41.905,-41.905c6.073,-6.073 15.919,-6.073 21.992,0c2.203,2.204 4.519,4.519 6.722,6.722Z" /></g></g><g
       id="g25"><circle
         id="circle21"
         style="fill:#91c791;"
         r="74.84"
         cy="151.021"
         cx="267.292" /><ellipse
         id="ellipse23"
         style="fill:#8bbc8a;"
         ry="130.067"
         rx="116.113"
         cy="305.749"
         cx="267.292" /></g></g></svg>
