<?xml version="1.0" encoding="UTF-8" standalone="no"?>
<!DOCTYPE svg PUBLIC "-//W3C//DTD SVG 1.1//EN" "http://www.w3.org/Graphics/SVG/1.1/DTD/svg11.dtd">
<svg version="1.1" xmlns="http://www.w3.org/2000/svg" xmlns:xlink="http://www.w3.org/1999/xlink" preserveAspectRatio="xMidYMid meet" viewBox="0 0 640 640" width="64" height="64"><defs><path d="M53.06 47.66L592.11 47.66L592.11 592.34L53.06 592.34L53.06 47.66Z" id="fErCOFOc"></path><path d="M519.27 509.39L448.15 509.39L361.47 379.93L359.25 379.93L360.36 378.27L359.25 376.61L361.47 376.61L448.15 247.16L519.27 247.16L431.48 378.27L519.27 509.39ZM217.47 376.61L304.15 247.16L375.27 247.16L287.48 378.27L375.27 509.39L304.15 509.39L217.47 379.93L215.25 379.93L215.25 509.39L146.35 509.39L146.35 154.21L215.25 154.21L215.25 376.61L217.47 376.61ZM216.36 378.27L215.25 376.61L215.25 379.93L216.36 378.27Z" id="d18pMZm7o"></path></defs><g><g><g><use xlink:href="#fErCOFOc" opacity="1" fill="#955656" fill-opacity="1"></use></g><g><use xlink:href="#d18pMZm7o" opacity="1" fill="#bec2cb" fill-opacity="1"></use></g></g></g></svg>