<?xml version="1.0" encoding="UTF-8" standalone="no"?>
<!DOCTYPE svg PUBLIC "-//W3C//DTD SVG 1.1//EN" "http://www.w3.org/Graphics/SVG/1.1/DTD/svg11.dtd">
<svg width="100%" height="100%" viewBox="0 0 2048 2048" version="1.1" xmlns="http://www.w3.org/2000/svg" xmlns:xlink="http://www.w3.org/1999/xlink" xml:space="preserve" xmlns:serif="http://www.serif.com/" style="fill-rule:evenodd;clip-rule:evenodd;stroke-linejoin:round;stroke-miterlimit:2;">
    <g transform="matrix(1,0,0,1,-69.9025,-164.623)">
        <circle cx="1093.9" cy="1188.62" r="995.503" style="fill:rgb(186,214,170);"/>
    </g>
    <g transform="matrix(0.88555,0,0,0.88555,57.2171,170.139)">
        <g transform="matrix(0.995902,0,0,1,4.95727,0)">
            <rect x="269.427" y="955.399" width="940.166" height="377.046" style="fill:rgb(115,152,95);"/>
        </g>
        <g transform="matrix(1,0,0,0.662905,0,337.25)">
            <rect x="352.309" y="863.712" width="170.404" height="91.687" style="fill:rgb(115,152,95);"/>
        </g>
        <g transform="matrix(1,0,0,0.662905,270.723,337.25)">
            <rect x="352.309" y="863.712" width="170.404" height="91.687" style="fill:rgb(115,152,95);"/>
        </g>
    </g>
    <g transform="matrix(0.88555,0,0,0.88555,57.2171,170.139)">
        <g transform="matrix(1,0,0,0.987179,-37.9198,-13.5322)">
            <rect x="1247.51" y="981.515" width="610.076" height="381.942" style="fill:rgb(85,121,65);"/>
        </g>
        <g transform="matrix(1,0,0,0.807249,1218.94,212.578)">
            <rect x="352.309" y="863.712" width="170.404" height="91.687" style="fill:rgb(85,121,65);"/>
        </g>
    </g>
    <g transform="matrix(0.88555,0,0,0.88555,57.2171,170.139)">
        <g transform="matrix(1,0,0,0.987179,-342.958,-390.578)">
            <rect x="1247.51" y="981.515" width="610.076" height="381.942" style="fill:rgb(151,195,126);"/>
        </g>
        <g transform="matrix(1,0,0,0.799091,639.209,-156.913)">
            <rect x="352.309" y="863.712" width="170.404" height="91.687" style="fill:rgb(151,195,126);"/>
        </g>
        <g transform="matrix(1,0,0,0.799091,909.932,-156.913)">
            <rect x="352.309" y="863.712" width="170.404" height="91.687" style="fill:rgb(151,195,126);"/>
        </g>
    </g>
</svg>
