<?xml version="1.0" encoding="UTF-8" standalone="no"?>
<!-- Created with Inkscape (http://www.inkscape.org/) -->

<svg
   xmlns:dc="http://purl.org/dc/elements/1.1/"
   xmlns:cc="http://creativecommons.org/ns#"
   xmlns:rdf="http://www.w3.org/1999/02/22-rdf-syntax-ns#"
   xmlns:svg="http://www.w3.org/2000/svg"
   xmlns="http://www.w3.org/2000/svg"
   xmlns:sodipodi="http://sodipodi.sourceforge.net/DTD/sodipodi-0.dtd"
   xmlns:inkscape="http://www.inkscape.org/namespaces/inkscape"
   version="1.1"
   id="svg2"
   width="240"
   height="240"
   viewBox="0 0 240 240"
   sodipodi:docname="logo-dat-desktop.svg"
   inkscape:version="0.92.4 5da689c313, 2019-01-14">
  <sodipodi:namedview
     pagecolor="#ffffff"
     bordercolor="#666666"
     borderopacity="1"
     objecttolerance="10"
     gridtolerance="10"
     guidetolerance="10"
     inkscape:pageopacity="0"
     inkscape:pageshadow="2"
     inkscape:window-width="1850"
     inkscape:window-height="1048"
     id="namedview9"
     showgrid="false"
     inkscape:zoom="0.98333333"
     inkscape:cx="120"
     inkscape:cy="120"
     inkscape:window-x="70"
     inkscape:window-y="32"
     inkscape:window-maximized="1"
     inkscape:current-layer="svg2" />
  <metadata
     id="metadata8">
    <rdf:RDF>
      <cc:Work
         rdf:about="">
        <dc:format>image/svg+xml</dc:format>
        <dc:type
           rdf:resource="http://purl.org/dc/dcmitype/StillImage" />
      </cc:Work>
    </rdf:RDF>
  </metadata>
  <defs
     id="defs6" />
  <g
     id="g514"
     transform="matrix(1.0282019,0,0,-1.0282019,120.23395,35.397034)"
     style="fill:#56a866;fill-opacity:1">
    <path
       d="m 0,0 -35.972,-20.768 h -0.051 l -35.92,-20.736 v -41.603 -41.604 l 35.92,-20.736 h 0.051 L 0,-166.217 l 35.971,20.77 h 0.053 l 35.918,20.736 v 41.604 41.603 l -35.918,20.736 h -0.053 z"
       style="fill:#56a866;fill-opacity:1;fill-rule:nonzero;stroke:none"
       id="path516"
       inkscape:connector-curvature="0" />
  </g>
  <g
     id="g518"
     transform="matrix(1.0282019,0,0,-1.0282019,69.584017,33.160893)"
     style="fill:#6dcc80;fill-opacity:1">
    <path
       d="m 0,0 -0.013,0.021 42.622,24.611 6.652,3.838 6.65,-3.838 L 98.536,0.021 98.521,0 l 42.58,-24.584 6.708,-3.872 v -7.61 -49.216 -49.216 -7.615 l -6.708,-3.867 -42.58,-24.583 0.015,-0.025 -42.625,-24.608 -6.65,-3.841 -6.652,3.841 -42.622,24.608 0.013,0.025 -42.58,24.583 -6.705,3.867 v 7.615 49.216 49.216 7.61 l 6.705,3.872 z M 49.261,-2.175 13.289,-22.942 h -0.052 l -35.92,-20.737 v -41.603 -41.604 l 35.92,-20.736 h 0.052 l 35.972,-20.77 35.97,20.77 h 0.054 l 35.918,20.736 v 41.604 41.603 l -35.918,20.737 h -0.054 z"
       style="fill:#6dcc80;fill-opacity:1;fill-rule:nonzero;stroke:none"
       id="path520"
       inkscape:connector-curvature="0" />
  </g>
</svg>
