<?xml version="1.0" encoding="UTF-8" standalone="no"?>
<svg
   xmlns:osb="http://www.openswatchbook.org/uri/2009/osb"
   xmlns:dc="http://purl.org/dc/elements/1.1/"
   xmlns:cc="http://creativecommons.org/ns#"
   xmlns:rdf="http://www.w3.org/1999/02/22-rdf-syntax-ns#"
   xmlns:svg="http://www.w3.org/2000/svg"
   xmlns="http://www.w3.org/2000/svg"
   xmlns:xlink="http://www.w3.org/1999/xlink"
   xmlns:sodipodi="http://sodipodi.sourceforge.net/DTD/sodipodi-0.dtd"
   xmlns:inkscape="http://www.inkscape.org/namespaces/inkscape"
   width="330.93661"
   height="330.93661"
   id="svg2"
   version="1.1"
   inkscape:version="1.0 (4035a4fb49, 2020-05-01)"
   sodipodi:docname="lufi ethibox.svg"
   inkscape:export-filename="/home/tio/Downloads/Ethibox Lufi.png"
   inkscape:export-xdpi="174.05145"
   inkscape:export-ydpi="174.05145">
  <defs
     id="defs4">
    <linearGradient
       id="linearGradient1739"
       osb:paint="solid">
      <stop
         style="stop-color:#b4b4b4;stop-opacity:1;"
         offset="0"
         id="stop1737" />
    </linearGradient>
    <linearGradient
       id="linearGradient3790">
      <stop
         style="stop-color:#a9a9a9;stop-opacity:1;"
         offset="0"
         id="stop3792" />
      <stop
         style="stop-color:#000000;stop-opacity:1;"
         offset="1"
         id="stop3794" />
    </linearGradient>
    <linearGradient
       inkscape:collect="always"
       xlink:href="#linearGradient3790"
       id="linearGradient3912"
       x1="186.74416"
       y1="354.42426"
       x2="255.84358"
       y2="254.35953"
       gradientUnits="userSpaceOnUse"
       gradientTransform="matrix(1.2227304,0,0,0.89945099,-289.31433,113.40259)" />
    <linearGradient
       id="linearGradient7636"
       inkscape:collect="always">
      <stop
         id="stop7664"
         offset="0"
         style="stop-color:#ffab00;stop-opacity:1" />
      <stop
         style="stop-color:#ffa500;stop-opacity:1"
         offset="0.20623536"
         id="stop4188" />
      <stop
         id="stop4190"
         offset="0.2469174"
         style="stop-color:#ffab00;stop-opacity:1" />
      <stop
         id="stop7666"
         offset="1"
         style="stop-color:#ff8800;stop-opacity:1" />
    </linearGradient>
    <linearGradient
       osb:paint="solid"
       id="linearGradient7620">
      <stop
         id="stop7622"
         offset="0"
         style="stop-color:#fcff00;stop-opacity:1;" />
    </linearGradient>
    <radialGradient
       spreadMethod="pad"
       gradientUnits="userSpaceOnUse"
       gradientTransform="matrix(1.3983125,1.4831815e-7,-1.507182e-7,1.4209396,-99.578086,-105.23497)"
       r="229.85291"
       fy="250.00003"
       fx="250"
       cy="250.00003"
       cx="250"
       id="radialGradient7642"
       xlink:href="#linearGradient7636" />
    <filter
       id="filter9316"
       style="color-interpolation-filters:sRGB">
      <feGaussianBlur
         id="feGaussianBlur9318"
         stdDeviation="3"
         result="result1" />
      <feBlend
         id="feBlend9320"
         in="result1"
         mode="multiply"
         result="result5"
         in2="result1" />
      <feGaussianBlur
         id="feGaussianBlur9322"
         stdDeviation="1"
         result="result6"
         in="result5" />
      <feComposite
         id="feComposite9324"
         operator="xor"
         in="result6"
         in2="result5"
         result="result8" />
      <feComposite
         id="feComposite9326"
         in2="result8"
         operator="xor"
         result="fbSourceGraphic"
         in="result6" />
      <feSpecularLighting
         id="feSpecularLighting9328"
         specularExponent="55"
         specularConstant="2.20000005"
         surfaceScale="2"
         lighting-color="#ffffff"
         result="result1"
         in="fbSourceGraphic">
        <fePointLight
           id="fePointLight9330"
           z="20000"
           y="-10000"
           x="-5000" />
      </feSpecularLighting>
      <feComposite
         id="feComposite9332"
         operator="in"
         result="result2"
         in="result1"
         in2="fbSourceGraphic" />
      <feComposite
         k4="0"
         k1="0"
         id="feComposite9334"
         in2="result2"
         k3="1"
         k2="2"
         operator="arithmetic"
         result="result4"
         in="fbSourceGraphic" />
      <feComposite
         id="feComposite9336"
         result="result91"
         operator="in"
         in="result4"
         in2="result4" />
      <feBlend
         id="feBlend9338"
         in2="result91"
         mode="darken" />
    </filter>
    <pattern
       id="pattern9832"
       patternTransform="translate(-105.5802,590.28444)"
       height="75.64963"
       width="150.00683"
       patternUnits="userSpaceOnUse">
      <rect
         style="opacity:1;fill:#ebee00;fill-opacity:0.69724767;fill-rule:nonzero;stroke:#000000;stroke-width:5.46199989;stroke-linecap:round;stroke-linejoin:round;stroke-miterlimit:4;stroke-dasharray:none;stroke-dashoffset:0;stroke-opacity:1"
         id="rect9830"
         width="144.54483"
         height="70.18763"
         x="2.7309999"
         y="2.7309999" />
    </pattern>
    <filter
       style="color-interpolation-filters:sRGB"
       id="filter9316-8">
      <feGaussianBlur
         result="result1"
         stdDeviation="3"
         id="feGaussianBlur9318-0" />
      <feBlend
         in2="result1"
         result="result5"
         mode="multiply"
         in="result1"
         id="feBlend9320-6" />
      <feGaussianBlur
         in="result5"
         result="result6"
         stdDeviation="1"
         id="feGaussianBlur9322-8" />
      <feComposite
         result="result8"
         in2="result5"
         in="result6"
         operator="xor"
         id="feComposite9324-0" />
      <feComposite
         in="result6"
         result="fbSourceGraphic"
         operator="xor"
         in2="result8"
         id="feComposite9326-9" />
      <feSpecularLighting
         in="fbSourceGraphic"
         result="result1"
         lighting-color="#ffffff"
         surfaceScale="2"
         specularConstant="2.20000005"
         specularExponent="55"
         id="feSpecularLighting9328-2">
        <fePointLight
           x="-5000"
           y="-10000"
           z="20000"
           id="fePointLight9330-6" />
      </feSpecularLighting>
      <feComposite
         in2="fbSourceGraphic"
         in="result1"
         result="result2"
         operator="in"
         id="feComposite9332-7" />
      <feComposite
         k4="0"
         k1="0"
         in="fbSourceGraphic"
         result="result4"
         operator="arithmetic"
         k2="2"
         k3="1"
         in2="result2"
         id="feComposite9334-8" />
      <feComposite
         in2="result4"
         in="result4"
         operator="in"
         result="result91"
         id="feComposite9336-2" />
      <feBlend
         mode="darken"
         in2="result91"
         id="feBlend9338-7" />
    </filter>
    <pattern
       patternUnits="userSpaceOnUse"
       width="150.00683"
       height="75.64963"
       patternTransform="translate(-105.5802,590.28444)"
       id="pattern9832-3">
      <rect
         y="2.7309999"
         x="2.7309999"
         height="70.18763"
         width="144.54483"
         id="rect9830-3"
         style="opacity:1;fill:#ebee00;fill-opacity:0.69724767;fill-rule:nonzero;stroke:#000000;stroke-width:5.46199989;stroke-linecap:round;stroke-linejoin:round;stroke-miterlimit:4;stroke-dasharray:none;stroke-dashoffset:0;stroke-opacity:1" />
    </pattern>
    <filter
       style="color-interpolation-filters:sRGB"
       inkscape:label="Invert"
       id="filter2866">
      <feColorMatrix
         values="-1 0 0 0 1 0 -1 0 0 1 0 0 -1 0 1 0.21 0.72 0.07 1 0 "
         result="color2"
         id="feColorMatrix2864" />
    </filter>
    <linearGradient
       y2="305.8201"
       x2="364.61819"
       y1="323.15329"
       x1="364.61819"
       gradientUnits="userSpaceOnUse"
       id="SVGID_5_">
      <stop
         id="stop702"
         style="stop-color:#1B75BC"
         offset="0" />
      <stop
         id="stop704"
         style="stop-color:#00AEEF"
         offset="1" />
      <stop
         id="stop706"
         style="stop-color:#000000"
         offset="1" />
    </linearGradient>
    <linearGradient
       y2="305.8201"
       x2="364.61819"
       y1="323.15329"
       x1="364.61819"
       gradientUnits="userSpaceOnUse"
       id="SVGID_5_-5">
      <stop
         id="stop702-6"
         style="stop-color:#1B75BC"
         offset="0" />
      <stop
         id="stop704-2"
         style="stop-color:#00AEEF"
         offset="1" />
      <stop
         id="stop706-9"
         style="stop-color:#000000"
         offset="1" />
    </linearGradient>
  </defs>
  <sodipodi:namedview
     id="base"
     pagecolor="#ffffff"
     bordercolor="#666666"
     borderopacity="1.0"
     inkscape:pageopacity="0.0"
     inkscape:pageshadow="2"
     inkscape:zoom="0.98994948"
     inkscape:cx="121.33201"
     inkscape:cy="162.94498"
     inkscape:document-units="px"
     inkscape:current-layer="g4673"
     showgrid="false"
     inkscape:window-width="1850"
     inkscape:window-height="1048"
     inkscape:window-x="70"
     inkscape:window-y="32"
     inkscape:window-maximized="1"
     showguides="true"
     inkscape:guide-bbox="true"
     fit-margin-top="0"
     fit-margin-left="0"
     fit-margin-right="-24"
     fit-margin-bottom="-6"
     inkscape:document-rotation="0" />
  <metadata
     id="metadata7">
    <rdf:RDF>
      <cc:Work
         rdf:about="">
        <dc:format>image/svg+xml</dc:format>
        <dc:type
           rdf:resource="http://purl.org/dc/dcmitype/StillImage" />
        <dc:title />
      </cc:Work>
    </rdf:RDF>
  </metadata>
  <g
     inkscape:label="Layer 1"
     inkscape:groupmode="layer"
     id="layer1"
     transform="translate(-61.719803,-34.870671)"
     style="display:inline">
    <g
       id="XMLID_7_"
       transform="matrix(1.0845447,0,0,1.0845447,-197.55366,-166.3264)"
       style="display:inline">
      <g
         id="g729" />
      <g
         transform="matrix(0.91425715,0,0,0.91425715,155.82657,-293.5609)"
         id="g4673">
        <circle
           cy="690.92896"
           cx="258.70734"
           style="fill:#269fae;fill-opacity:1;stroke:#00899b;stroke-width:10.9378;stroke-miterlimit:4;stroke-dasharray:none;stroke-dashoffset:0;stroke-opacity:1"
           id="path3759"
           r="154.16086" />
        <path
           inkscape:connector-curvature="0"
           id="path4473-2"
           d="M 142.46798,822.50729 H 353.94285"
           style="fill:none;fill-rule:evenodd;stroke:none;stroke-width:5.17596;stroke-linecap:butt;stroke-linejoin:miter;stroke-miterlimit:4;stroke-dasharray:none;stroke-opacity:1" />
      </g>
    </g>
    <path
       d=""
       style="fill:#f9f9f9;fill-opacity:1;fill-rule:nonzero;stroke:none"
       id="path2987"
       cx="-407.99075"
       cy="391.12405"
       r="107.58125" />
    <path
       d=""
       style="fill:#ececec;fill-opacity:1;fill-rule:nonzero;stroke:none;stroke-width:0.768657"
       id="path3757"
       cx="-408.24332"
       cy="390.87152"
       r="78.034286" />
    <path
       id="path907"
       d="m 158.78051,291.60704 c -4.09056,-1.16999 -6.92092,-6.00537 -5.80034,-9.9093 0.19036,-0.66316 0.65415,-1.67676 1.03065,-2.25245 1.19965,-1.83428 5.35844,-6.48232 11.2262,-12.54686 7.39932,-7.64748 9.96008,-10.59023 9.96008,-11.44583 0,-0.16678 -1.16168,-2.06912 -2.58152,-4.22741 -2.9244,-4.44537 -4.41319,-7.01886 -5.72733,-9.90011 -6.15358,-13.49166 -8.77946,-29.94312 -7.09602,-44.45744 3.11489,-26.85607 22.57455,-52.88772 47.96699,-64.16661 18.11528,-8.04649 40.55367,-8.8697 59.87934,-2.19684 5.66171,1.9549 10.41233,4.3146 16.39032,8.14128 2.22363,1.42341 4.2094,2.63427 4.41283,2.69082 0.25735,0.0715 2.28512,-1.77349 6.6654,-6.06474 20.10727,-19.69856 18.49333,-18.32156 21.48389,-18.32992 1.39244,-0.004 1.85866,0.1008 3.09878,0.69583 4.56313,2.18945 7.12277,7.79698 5.121,11.21881 -0.62636,1.07072 -146.62728,148.88795 -153.43809,155.34692 -4.67159,4.43027 -7.13649,6.56597 -8.29455,7.18678 -0.86401,0.46318 -3.05097,0.57364 -4.29763,0.21707 z m 4.41419,-5.45104 c 3.33371,-2.2516 13.71595,-12.57199 70.13873,-69.72087 66.70031,-67.55867 83.24158,-84.65177 86.03981,-88.91013 1.82505,-2.77736 0.72571,-5.24674 -2.34516,-5.26777 -1.00218,-0.007 -1.3679,0.1085 -2.20033,0.69407 -2.78362,1.95815 -12.30629,11.26463 -31.02469,30.32032 -7.03546,7.16224 -33.7353,34.28716 -59.33299,60.2776 -55.14145,55.98751 -63.97375,65.1209 -65.9099,68.15677 -0.76545,1.20022 -0.78035,1.77294 -0.0855,3.28459 0.39422,0.85762 0.72911,1.25413 1.25446,1.48532 1.19357,0.52526 2.37579,0.41613 3.46555,-0.3199 z m 6.81763,-58.56119 c 2.95969,-2.35317 10.05186,-9.4126 44.05426,-43.85083 28.98604,-29.35758 35.87074,-36.43882 35.66798,-36.68625 -0.61121,-0.74588 -10.41578,-3.62051 -14.3979,-4.22137 -3.5619,-0.53745 -5.03366,-1.60064 -4.05446,-2.92893 0.73728,-1.00014 1.45727,-1.39648 3.01028,-1.65711 2.62166,-0.43997 7.19242,0.33964 10.72608,1.82952 2.65077,1.11762 4.14047,2.24857 5.42311,4.11714 l 1.12088,1.63292 3.89944,-3.9332 c 4.24176,-4.27849 5.89797,-6.2824 5.79486,-7.01142 -0.0885,-0.62578 -1.13403,-1.09915 -3.88958,-1.76105 -5.89339,-1.41564 -13.15973,-2.23515 -19.66839,-2.21824 -10.72485,0.0279 -19.89671,2.04788 -29.32039,6.45756 -11.21482,5.24781 -22.83815,15.21371 -31.03123,26.60635 -11.24856,15.64132 -15.10355,34.37062 -11.52562,55.99674 0.83126,5.02436 1.94299,8.63214 2.65986,8.63177 0.1478,-7e-5 0.83667,-0.45169 1.53082,-1.0036 z m 5.16143,-13.7701 c -0.77095,-0.86546 -1.23179,-2.00583 -1.84197,-4.55801 -1.10939,-4.64021 -1.50251,-11.607 -0.76379,-13.5358 0.48546,-1.26755 1.76122,-2.25619 2.52725,-1.95848 0.46424,0.18043 1.09041,1.49689 1.38778,2.91773 0.13591,0.64932 0.49249,3.38829 0.79241,6.0866 0.29991,2.69831 0.64554,5.45381 0.76807,6.12334 0.12252,0.66953 0.28145,1.86791 0.35317,2.66308 0.12128,1.34462 0.089,1.49559 -0.46132,2.15798 -0.79446,0.95622 -1.96301,1.00004 -2.7616,0.10356 z m 10.75161,-6.45377 c -1.56923,-1.58929 -3.95784,-9.32775 -3.95038,-12.79817 0.005,-2.10306 0.29071,-2.58729 1.57895,-2.67165 0.56398,-0.0369 1.21314,0.0346 1.44259,0.15897 0.60053,0.3255 1.28474,1.93779 2.01756,4.75423 1.40559,5.40208 1.84523,9.08192 1.2324,10.31512 -0.3731,0.75078 -1.68364,0.88714 -2.32112,0.2415 z m 7.2209,-11.4279 c -1.03731,-0.88399 -1.62767,-2.71359 -1.64961,-5.1123 -0.0209,-2.28869 0.30191,-2.9571 1.42827,-2.9571 0.75305,0 2.0279,1.08242 2.58213,2.19236 1.83349,3.67188 0.10394,7.97748 -2.36079,5.87704 z m 40.71772,-38.69122 c -2.91429,-1.09749 -6.33906,-3.48453 -6.87322,-4.79057 -0.25137,-0.61463 -0.23405,-0.7596 0.15364,-1.28549 0.64982,-0.8815 1.54811,-1.05819 3.23562,-0.63643 4.74217,1.1852 9.2668,5.47242 7.27023,6.88875 -0.6816,0.48351 -2.2251,0.41166 -3.78627,-0.17626 z"
       style="opacity:0.677435;fill:#ffffff;stroke-width:0.21993" />
  </g>
</svg>
