<?xml version="1.0" encoding="UTF-8" standalone="no"?>
<!DOCTYPE svg PUBLIC "-//W3C//DTD SVG 1.1//EN" "http://www.w3.org/Graphics/SVG/1.1/DTD/svg11.dtd">
<svg version="1.1" xmlns="http://www.w3.org/2000/svg" xmlns:xlink="http://www.w3.org/1999/xlink" preserveAspectRatio="xMidYMid meet" viewBox="0 0 640 640" width="64" height="64"><defs><path d="M587.38 47.99C598 47.99 606.62 56.61 606.62 67.23C606.62 175.56 606.62 481.3 606.62 589.62C606.62 600.25 598 608.86 587.38 608.86C477.48 608.86 167.02 608.86 57.12 608.86C46.49 608.86 37.88 600.25 37.88 589.62C37.88 481.3 37.88 175.56 37.88 67.23C37.88 56.61 46.49 47.99 57.12 47.99C167.02 47.99 477.48 47.99 587.38 47.99Z" id="elbloOfo5"></path><path d="M565.46 325.62C565.46 454.65 455.47 559.41 320 559.41C184.53 559.41 74.54 454.65 74.54 325.62C74.54 196.59 184.53 91.83 320 91.83C455.47 91.83 565.46 196.59 565.46 325.62Z" id="d3Uq24GWHU"></path><path d="M559.77 130.17L560.32 130.26L560.81 130.38L561.26 130.55L561.66 130.75L562.01 131L562.3 131.29L562.53 131.62L562.45 132L562.09 132.9L561.47 134.29L560.6 136.15L559.49 138.45L558.16 141.16L556.61 144.25L554.87 147.71L552.95 151.49L550.86 155.59L548.61 159.97L546.22 164.6L543.7 169.46L541.07 174.52L538.33 179.76L535.51 185.14L532.62 190.65L529.66 196.26L526.66 201.94L523.62 207.66L520.57 213.4L517.51 219.14L514.46 224.84L511.42 230.48L508.43 236.03L505.48 241.47L502.6 246.76L499.79 251.9L497.07 256.84L494.45 261.56L491.95 266.04L489.58 270.25L487.36 274.16L485.29 277.75L483.39 280.98L481.68 283.85L480.17 286.31L478.87 288.34L477.8 289.91L476.96 291.01L476.3 291.77L475.6 292.5L474.88 293.19L474.14 293.85L473.36 294.47L472.56 295.06L471.74 295.63L470.88 296.16L470 296.66L469.09 297.13L468.15 297.58L467.18 298L466.18 298.39L465.16 298.76L464.1 299.1L463.02 299.42L461.91 299.72L460.77 299.99L459.6 300.24L458.39 300.48L457.16 300.69L455.9 300.88L454.61 301.06L453.28 301.22L451.93 301.37L450.55 301.49L449.13 301.61L447.68 301.71L446.2 301.8L444.69 301.87L443.15 301.94L441.57 301.99L439.96 302.03L438.32 302.07L436.65 302.1L434.94 302.12L433.2 302.13L431.42 302.14L429.61 302.15L427.77 302.15L427.23 302.15L426.69 302.15L426.14 302.15L425.59 302.15L425.04 302.15L424.48 302.14L423.92 302.14L423.36 302.14L422.8 302.14L422.24 302.13L421.67 302.13L421.1 302.12L420.53 302.12L419.96 302.11L419.39 302.11L418.81 302.1L418.23 302.1L417.65 302.09L417.07 302.09L416.49 302.08L415.9 302.07L415.32 302.07L414.73 302.06L414.14 302.05L413.55 302.04L412.96 302.04L412.37 302.03L411.78 302.02L411.18 302.01L410.59 302.01L409.99 302L409.4 301.99L408.8 301.98L408.2 301.97L407.6 301.96L407 301.95L406.4 301.95L405.8 301.94L405.2 301.93L404.6 301.92L405.31 302.39L406.02 302.86L406.71 303.33L407.39 303.81L408.06 304.29L408.72 304.78L409.37 305.26L410.01 305.75L410.64 306.25L411.25 306.75L411.85 307.25L412.44 307.76L413.02 308.27L413.58 308.78L414.13 309.3L414.66 309.83L415.18 310.36L415.68 310.9L416.17 311.44L416.64 311.98L417.1 312.53L417.54 313.09L417.96 313.65L418.37 314.22L418.76 314.8L419.13 315.38L419.48 315.97L419.82 316.56L420.13 317.16L420.43 317.77L420.71 318.39L420.96 319.01L421.2 319.64L421.42 320.28L421.61 320.92L421.79 321.58L421.94 322.24L422.07 322.9L422.18 323.58L422.27 324.27L422.32 324.81L422.36 325.34L422.38 325.88L422.38 326.42L422.37 326.95L422.34 327.48L422.3 328.01L422.25 328.54L422.17 329.06L422.09 329.58L421.99 330.1L421.87 330.62L421.74 331.13L421.59 331.65L421.43 332.15L421.25 332.66L421.06 333.16L420.86 333.66L420.64 334.15L420.4 334.65L420.15 335.13L419.89 335.62L419.61 336.1L419.32 336.58L419.01 337.05L418.69 337.51L418.36 337.98L418.01 338.44L417.65 338.89L417.27 339.34L416.88 339.78L416.47 340.22L416.06 340.66L415.62 341.09L415.18 341.51L414.72 341.93L414.25 342.34L413.76 342.75L413.26 343.15L412.75 343.55L401.85 351.63L391.1 359.35L380.49 366.7L370.03 373.7L359.73 380.35L349.58 386.66L339.59 392.64L329.77 398.3L320.12 403.65L310.64 408.7L301.34 413.45L292.22 417.91L283.28 422.1L274.54 426.03L265.98 429.69L257.63 433.1L249.48 436.27L241.53 439.2L233.79 441.92L226.27 444.41L218.96 446.7L211.87 448.79L205.01 450.69L198.39 452.42L191.99 453.96L185.83 455.35L179.91 456.58L174.24 457.67L168.82 458.61L163.66 459.43L158.75 460.14L154.1 460.72L149.72 461.21L145.61 461.61L141.77 461.92L138.21 462.15L134.93 462.32L131.94 462.42L129.24 462.48L126.84 462.5L126.3 462.5L125.78 462.5L125.27 462.49L124.77 462.49L124.29 462.48L123.82 462.47L123.37 462.46L122.92 462.45L122.49 462.44L122.08 462.43L121.67 462.42L121.28 462.41L120.91 462.39L120.54 462.38L120.19 462.36L119.85 462.35L119.53 462.33L119.22 462.31L118.92 462.3L118.64 462.28L118.37 462.26L118.12 462.25L117.87 462.23L117.64 462.22L117.43 462.2L117.23 462.19L117.04 462.17L116.87 462.16L116.71 462.14L116.56 462.13L116.43 462.12L116.31 462.11L116.2 462.1L116.11 462.09L116.04 462.08L115.97 462.07L115.92 462.07L115.89 462.06L115.87 462.06L115.86 462.06L115.84 462.06L115.81 462.06L115.79 462.05L115.77 462.05L115.75 462.04L115.73 462.04L115.71 462.03L115.68 462.03L115.66 462.02L115.64 462.01L115.62 462.01L115.6 462L115.58 461.99L115.56 461.99L115.54 461.98L115.52 461.97L115.5 461.96L115.47 461.96L115.43 461.94L115.41 461.93L115.39 461.93L115.37 461.92L115.35 461.91L115.33 461.9L115.31 461.9L115.29 461.89L115.27 461.88L115.25 461.88L115.22 461.87L115.2 461.86L115.18 461.86L115.16 461.85L115.14 461.84L115.12 461.84L115.1 461.83L115.07 461.83L115.05 461.82L115.03 461.82L115.01 461.82L114.29 462.9L113.57 463.99L112.86 465.07L112.15 466.16L111.44 467.24L110.73 468.33L110.03 469.42L109.33 470.5L108.63 471.59L107.93 472.68L107.24 473.77L106.55 474.86L105.86 475.95L105.17 477.05L104.49 478.14L103.81 479.23L103.13 480.33L102.46 481.42L101.79 482.52L101.12 483.62L100.45 484.71L99.79 485.81L99.13 486.91L98.48 488.01L97.83 489.11L97.18 490.21L96.53 491.32L95.89 492.42L95.26 493.52L94.62 494.63L93.99 495.74L93.36 496.84L92.74 497.95L92.12 499.06L91.51 500.17L90.9 501.28L90.29 502.39L89.69 503.5L89.09 504.62L88.49 505.73L88.31 506.04L88.08 506.42L87.78 506.86L87.43 507.37L87.03 507.94L86.58 508.56L86.09 509.23L85.56 509.95L84.98 510.71L84.37 511.51L83.73 512.34L83.07 513.2L82.37 514.09L81.66 515L80.92 515.92L80.18 516.86L79.41 517.81L78.64 518.76L77.87 519.71L77.09 520.66L76.31 521.61L75.54 522.54L74.77 523.45L74.01 524.34L73.27 525.21L72.55 526.05L71.84 526.86L71.16 527.63L70.51 528.37L69.88 529.05L69.29 529.69L68.74 530.27L68.22 530.8L67.75 531.27L67.32 531.66L66.95 531.99L66.62 532.25L66.36 532.43L66.15 532.52L66 532.53L65.56 532.34L65.14 532.05L64.77 531.68L64.42 531.23L64.11 530.7L63.84 530.1L63.59 529.43L63.37 528.7L63.18 527.91L63.02 527.07L62.89 526.17L62.78 525.23L62.7 524.25L62.64 523.23L62.6 522.18L62.58 521.11L62.59 520.01L62.61 518.89L62.65 517.76L62.71 516.61L62.79 515.46L62.88 514.32L62.99 513.17L63.11 512.03L63.24 510.91L63.38 509.8L63.54 508.71L63.7 507.65L63.87 506.62L64.05 505.63L64.23 504.67L64.42 503.76L64.62 502.9L64.81 502.08L65.01 501.33L65.21 500.64L65.41 500.01L65.61 499.45L65.81 498.97L66 498.57L72.39 486.93L79.12 475.36L86.19 463.89L93.58 452.5L101.3 441.2L109.34 430L117.7 418.9L126.36 407.91L135.32 397.03L144.59 386.26L154.14 375.61L163.98 365.08L174.11 354.68L184.51 344.4L195.18 334.27L206.12 324.27L217.32 314.41L228.78 304.7L240.48 295.14L252.43 285.73L264.62 276.49L277.04 267.41L289.69 258.49L302.57 249.75L315.66 241.18L328.96 232.79L342.47 224.59L356.19 216.57L370.1 208.75L384.2 201.12L398.49 193.69L412.95 186.47L427.6 179.45L442.41 172.65L457.39 166.06L472.53 159.7L487.82 153.56L503.26 147.65L518.84 141.97L534.56 136.53L535.05 136.37L535.58 136.18L536.16 135.98L536.78 135.77L537.43 135.53L538.12 135.29L538.84 135.04L539.59 134.77L540.37 134.5L541.17 134.23L541.99 133.95L542.83 133.66L543.69 133.38L544.55 133.1L545.43 132.82L546.32 132.54L547.2 132.28L548.1 132.01L548.98 131.76L549.87 131.52L550.75 131.3L551.62 131.08L552.48 130.89L553.32 130.71L554.14 130.55L554.95 130.41L555.73 130.29L556.48 130.2L557.21 130.13L557.9 130.1L558.57 130.09L559.19 130.11L559.77 130.17ZM501.96 169.3L489.54 174.21L477.23 179.28L465.02 184.5L452.92 189.87L440.93 195.38L429.06 201.03L417.3 206.83L405.67 212.76L394.16 218.83L382.77 225.03L371.52 231.36L360.39 237.83L349.41 244.42L338.56 251.13L327.85 257.97L317.29 264.92L306.87 272L296.61 279.19L286.49 286.49L276.54 293.9L266.74 301.42L257.11 309.05L247.64 316.78L238.34 324.62L229.21 332.55L220.26 340.58L211.48 348.71L202.88 356.93L194.47 365.23L186.24 373.63L178.2 382.11L170.35 390.68L162.7 399.32L155.25 408.05L148 416.85L140.95 425.73L134.11 434.67L127.48 443.69L129.77 443.67L132.32 443.6L135.15 443.48L138.23 443.31L141.57 443.08L145.16 442.77L149 442.38L153.09 441.89L157.43 441.32L162.01 440.63L166.82 439.83L171.88 438.91L177.16 437.86L182.67 436.67L188.41 435.33L194.37 433.84L200.54 432.18L206.94 430.35L213.55 428.34L220.36 426.15L227.38 423.75L234.61 421.16L242.04 418.35L249.66 415.32L257.47 412.06L265.48 408.56L273.67 404.82L282.05 400.82L290.61 396.56L299.34 392.04L308.25 387.23L317.33 382.14L326.58 376.75L335.99 371.06L345.57 365.06L355.3 358.74L365.19 352.09L375.23 345.11L385.42 337.78L395.75 330.1L396.8 329.17L397.52 328.21L397.94 327.23L398.06 326.22L397.91 325.18L397.51 324.12L396.86 323.05L395.99 321.95L394.91 320.83L393.64 319.7L392.19 318.56L390.59 317.4L388.85 316.23L386.98 315.05L385 313.86L382.94 312.66L380.8 311.45L378.6 310.25L376.36 309.03L374.1 307.82L371.83 306.61L369.57 305.4L367.33 304.19L365.14 302.98L363 301.78L360.94 300.59L358.98 299.41L357.12 298.23L355.39 297.07L353.8 295.92L352.36 294.79L351.11 293.67L350.05 292.57L349.19 291.49L348.56 290.43L348.18 289.39L348.05 288.37L348.2 287.38L348.64 286.41L349.39 285.48L349.56 285.32L349.77 285.17L350.02 285.03L350.31 284.89L350.63 284.76L350.98 284.63L351.37 284.51L351.79 284.4L352.25 284.29L352.74 284.18L353.25 284.08L353.8 283.98L354.39 283.89L355 283.8L355.64 283.72L356.3 283.64L357 283.57L357.72 283.5L358.47 283.44L359.25 283.38L360.05 283.32L360.87 283.27L361.72 283.22L362.59 283.17L363.49 283.13L364.4 283.09L365.34 283.05L366.3 283.02L367.28 282.99L368.28 282.97L369.29 282.94L370.33 282.92L371.38 282.91L372.45 282.89L373.53 282.88L374.64 282.87L375.75 282.86L376.88 282.86L378.03 282.85L379.18 282.85L380.33 282.85L381.49 282.86L382.65 282.86L383.83 282.87L385.02 282.87L386.21 282.88L387.42 282.89L388.63 282.91L389.85 282.92L391.07 282.93L392.3 282.95L393.54 282.96L394.78 282.98L396.02 282.99L397.27 283.01L398.52 283.03L399.78 283.05L401.03 283.07L402.28 283.09L403.54 283.1L404.8 283.12L406.05 283.14L407.3 283.16L408.55 283.18L409.8 283.2L411.05 283.21L412.29 283.23L413.52 283.25L414.75 283.26L415.98 283.28L417.2 283.29L418.41 283.3L419.61 283.31L420.81 283.32L422 283.33L423.18 283.34L424.34 283.35L425.5 283.35L426.65 283.35L427.78 283.35L428.92 283.35L430.04 283.35L431.15 283.35L432.24 283.34L433.32 283.33L434.38 283.32L435.43 283.3L436.45 283.28L437.47 283.26L438.46 283.24L439.43 283.22L440.38 283.19L441.32 283.16L442.23 283.12L443.12 283.08L443.99 283.04L444.84 283L445.66 282.95L446.46 282.9L447.23 282.84L447.98 282.78L448.7 282.72L449.4 282.65L450.07 282.58L450.71 282.5L451.32 282.42L451.91 282.33L452.46 282.24L452.98 282.15L453.48 282.05L453.94 281.95L454.37 281.84L454.76 281.73L455.13 281.61L455.45 281.48L455.75 281.35L456.01 281.22L456.23 281.08L456.41 280.93L456.56 280.78L459.47 277.29L462.33 273.8L465.13 270.32L467.89 266.85L470.59 263.38L473.24 259.93L475.84 256.48L478.38 253.05L480.87 249.64L483.3 246.24L485.68 242.86L488 239.5L490.26 236.17L492.47 232.85L494.61 229.56L496.7 226.3L498.72 223.06L500.69 219.85L502.59 216.68L504.43 213.53L506.21 210.42L507.92 207.35L509.57 204.31L511.16 201.32L512.67 198.36L514.13 195.44L515.51 192.57L516.83 189.75L518.08 186.97L519.26 184.24L520.36 181.55L521.4 178.92L522.37 176.35L523.27 173.82L524.09 171.36L524.84 168.95L525.51 166.6L526.11 164.31L526.64 162.09L527.09 159.93L514.48 164.53L501.96 169.3Z" id="a7hcwo48dq"></path></defs><g><g><g><use xlink:href="#elbloOfo5" opacity="1" fill="#bababa" fill-opacity="1"></use></g><g><use xlink:href="#d3Uq24GWHU" opacity="1" fill="#70767d" fill-opacity="1"></use></g><g><use xlink:href="#a7hcwo48dq" opacity="1" fill="#212121" fill-opacity="1"></use><g><use xlink:href="#a7hcwo48dq" opacity="1" fill-opacity="0" stroke="#000000" stroke-width="0" stroke-opacity="0"></use></g></g></g></g></svg>