<?xml version="1.0" encoding="UTF-8" standalone="no"?>
<svg
   xmlns:dc="http://purl.org/dc/elements/1.1/"
   xmlns:cc="http://creativecommons.org/ns#"
   xmlns:rdf="http://www.w3.org/1999/02/22-rdf-syntax-ns#"
   xmlns:svg="http://www.w3.org/2000/svg"
   xmlns="http://www.w3.org/2000/svg"
   xmlns:sodipodi="http://sodipodi.sourceforge.net/DTD/sodipodi-0.dtd"
   xmlns:inkscape="http://www.inkscape.org/namespaces/inkscape"
   width="100%"
   height="100%"
   viewBox="0 0 1024 1024"
   version="1.1"
   xml:space="preserve"
   style="fill-rule:evenodd;clip-rule:evenodd;stroke-linejoin:round;stroke-miterlimit:2;"
   id="svg32"
   sodipodi:docname="mapton.svg"
   inkscape:version="0.92.4 5da689c313, 2019-01-14"><metadata
     id="metadata38"><rdf:RDF><cc:Work
         rdf:about=""><dc:format>image/svg+xml</dc:format><dc:type
           rdf:resource="http://purl.org/dc/dcmitype/StillImage" /></cc:Work></rdf:RDF></metadata><defs
     id="defs36" /><sodipodi:namedview
     pagecolor="#ffffff"
     bordercolor="#666666"
     borderopacity="1"
     objecttolerance="10"
     gridtolerance="10"
     guidetolerance="10"
     inkscape:pageopacity="0"
     inkscape:pageshadow="2"
     inkscape:window-width="1851"
     inkscape:window-height="1048"
     id="namedview34"
     showgrid="false"
     inkscape:zoom="0.23046875"
     inkscape:cx="512"
     inkscape:cy="512"
     inkscape:window-x="69"
     inkscape:window-y="32"
     inkscape:window-maximized="1"
     inkscape:current-layer="svg32" /><path
     d="m 949.47056,136.01829 c 0,-29.71673 -24.09112,-53.807849 -53.80785,-53.807849 H 130.02125 c -29.71672,0 -53.807843,24.091119 -53.807843,53.807849 v 765.64146 c 0,29.71673 24.091123,53.80784 53.807843,53.80784 h 765.64146 c 29.71673,0 53.80785,-24.09111 53.80785,-53.80784 z"
     style="fill:#f1b769;stroke-width:1.33055997"
     id="path2"
     inkscape:connector-curvature="0" /><g
     id="g6"
     transform="matrix(1.33056,0,0,1.33056,-163.75175,-145.34725)"><path
       d="m 347.305,284.309 80.938,45.782 V 709.983 L 347.305,667.586 278.56,709.532 V 329.639 Z m 391.141,49.846 v 379.892 l -67.391,-46.461 -80.937,42.397 -80.938,-42.397 -80.937,42.397 V 330.091 l 80.937,-45.782 80.938,45.782 80.937,-45.782 z"
       style="fill:#ffd4a3"
       id="path4"
       inkscape:connector-curvature="0" /></g><circle
     cx="513.43146"
     cy="516.13525"
     r="138.78406"
     style="fill:#e9a953;stroke-width:1.33055997"
     id="circle8" /><g
     id="g30"
     transform="matrix(1.33056,0,0,1.33056,-163.75175,-145.34725)"><path
       d="m 537.997,396.947 -4.348,3.595 1.107,6.608 -8.11,3.983 -13.915,-3.901 -7.226,2.055 -5.304,5.625 -6.61,6.198 10.494,4.553 3.501,-7.795 5.726,0.983 -3.297,8.045 -11.597,2.069 -1.467,-6.397 -5.614,6.524 -8.284,5.391 -6.436,1.679 0.412,8.536 -10.916,-0.19 -3.759,8.552 7.827,4.125 8.616,-6.307 5.597,-5.201 9.058,-1.407 7.936,8.585 -3.943,3.842 3.596,1.928 4.857,-5.867 -6.864,-6.686 -0.472,-4.203 9.372,6.385 1.703,7.337 3.457,3.492 2.746,-2.42 -2.29,-3.842 4.654,-1.008 3.407,6.924 7.985,1.5 4.698,-1.5 0.805,6.589 -1.718,4.081 -5.299,-0.585 -3.283,1.992 -11.105,-3.857 -5.462,1.992 -2.32,3.886 -6.103,-5.833 -8.537,-2.893 1.5,-5.722 -11.989,-1.057 -9.386,2.859 -6.391,-0.063 -7.653,8.283 -7.35,5.044 -8.597,11.78 1.262,7.475 -4.5,6.623 6.898,14.102 9.56,9.106 11.169,-0.424 8.979,-2.104 6.516,6.385 5.423,-0.171 -0.616,12.549 7.435,6.515 1.862,10.782 -2.339,4.46 0.586,6.399 5.016,6.53 1.137,5.011 3.928,3.92 3.218,4.445 16.185,-1.738 9.769,-9.505 6.039,-3.477 0.362,-6.623 10.082,-9.076 -2.017,-14.132 22.924,-34.433 -13.13,4.84 -8.219,-11.239 -13.945,-24.567 4.703,2.323 6.48,11.444 8.095,7.606 1.565,7.159 13.548,-6.798 9.421,-16.898 -7.082,-4.996 -4.42,4.032 -9.227,-10.086 5.567,-1.314 5.979,3.842 13.647,0.965 8.393,6.734 2.761,-2.435 7.698,23.16 2.13,-31.395 9.426,14.767 3.561,-52.836 -39.599,-31.099 z"
       style="fill:#ffd4a3"
       id="path10"
       inkscape:connector-curvature="0" /><path
       d="m 564.067,552.34 -10.097,8.503 -0.238,5.678 -3.014,2.971 1.847,4.806 z"
       style="fill:#ffd4a3"
       id="path12"
       inkscape:connector-curvature="0" /><path
       d="m 484.712,420.176 -5.95,3.652 2.101,4.933 -3.253,3.793 8.189,-2.669 z"
       style="fill:#ffd4a3"
       id="path14"
       inkscape:connector-curvature="0" /><path
       d="m 475.638,426.408 -3.153,3.935 5.507,-1.296 z"
       style="fill:#ffd4a3"
       id="path16"
       inkscape:connector-curvature="0" /><path
       d="m 404.622,491.469 5.8,24.462 9.873,12.52 -1.182,11.448 4.614,18.539 -22.602,-19.094 z"
       style="fill:#ffd4a3"
       id="path18"
       inkscape:connector-curvature="0" /><path
       d="m 456.902,413.581 7.618,-7.728 16.314,-6.75 14.387,-1.489 -13.538,9.091 z"
       style="fill:#ffd4a3"
       id="path20"
       inkscape:connector-curvature="0" /><path
       d="m 477.188,415.545 6.009,-2.878 -4.072,-0.882 z"
       style="fill:#ffd4a3"
       id="path22"
       inkscape:connector-curvature="0" /><path
       d="m 511.028,401.379 -6.551,-0.677 2.24,4.095 z"
       style="fill:#ffd4a3"
       id="path24"
       inkscape:connector-curvature="0" /><path
       d="m 528.126,401.081 -3.719,2.923 4.211,3.116 z"
       style="fill:#ffd4a3"
       id="path26"
       inkscape:connector-curvature="0" /><path
       d="m 604.804,496.872 -0.521,5.194 2.208,0.036 z"
       style="fill:#ffd4a3"
       id="path28"
       inkscape:connector-curvature="0" /></g></svg>