<?xml version="1.0" encoding="UTF-8" standalone="no"?>
<svg
   xmlns:dc="http://purl.org/dc/elements/1.1/"
   xmlns:cc="http://creativecommons.org/ns#"
   xmlns:rdf="http://www.w3.org/1999/02/22-rdf-syntax-ns#"
   xmlns:svg="http://www.w3.org/2000/svg"
   xmlns="http://www.w3.org/2000/svg"
   xmlns:sodipodi="http://sodipodi.sourceforge.net/DTD/sodipodi-0.dtd"
   xmlns:inkscape="http://www.inkscape.org/namespaces/inkscape"
   width="100%"
   height="100%"
   viewBox="0 0 1024 1024"
   version="1.1"
   xml:space="preserve"
   style="fill-rule:evenodd;clip-rule:evenodd;stroke-linecap:round;stroke-linejoin:round;stroke-miterlimit:1.5;"
   id="svg12"
   sodipodi:docname="Mini Diary.svg"
   inkscape:version="0.92.4 5da689c313, 2019-01-14"><metadata
     id="metadata18"><rdf:RDF><cc:Work
         rdf:about=""><dc:format>image/svg+xml</dc:format><dc:type
           rdf:resource="http://purl.org/dc/dcmitype/StillImage" /></cc:Work></rdf:RDF></metadata><defs
     id="defs16" /><sodipodi:namedview
     pagecolor="#ffffff"
     bordercolor="#666666"
     borderopacity="1"
     objecttolerance="10"
     gridtolerance="10"
     guidetolerance="10"
     inkscape:pageopacity="0"
     inkscape:pageshadow="2"
     inkscape:window-width="1851"
     inkscape:window-height="1048"
     id="namedview14"
     showgrid="false"
     inkscape:zoom="0.23046875"
     inkscape:cx="512"
     inkscape:cy="512"
     inkscape:window-x="69"
     inkscape:window-y="32"
     inkscape:window-maximized="1"
     inkscape:current-layer="svg12" /><g
     id="g10"
     transform="matrix(1.258767,0,0,1.258767,-125.98023,-134.99718)"><circle
       cx="512"
       cy="512"
       r="394.04599"
       style="fill:#83b1ea"
       id="circle2" /><path
       d="m 686.116,335.178 c 0,-13.58 -5.395,-26.604 -14.997,-36.207 -9.603,-9.603 -22.627,-14.997 -36.207,-14.997 H 352.184 c -7.897,0 -14.3,6.402 -14.3,14.3 v 421.525 c 0,7.898 6.403,14.301 14.3,14.301 h 282.728 c 13.58,0 26.604,-5.395 36.207,-14.998 9.602,-9.602 14.997,-22.626 14.997,-36.206 z"
       style="fill:#3f7abf"
       id="path4"
       inkscape:connector-curvature="0" /><path
       d="m 372.92,271.124 -0.49,481.752"
       style="fill:none;stroke:#83b1ea;stroke-width:8.84000015px"
       id="path6"
       inkscape:connector-curvature="0" /><path
       d="m 611.244,283.974 h -70.427 v 164.313 l 35.326,-36.825 35.101,36.825 z"
       style="fill:#c1d6ef"
       id="path8"
       inkscape:connector-curvature="0" /></g></svg>