<?xml version="1.0" encoding="UTF-8" standalone="no"?>
<!DOCTYPE svg PUBLIC "-//W3C//DTD SVG 1.1//EN" "http://www.w3.org/Graphics/SVG/1.1/DTD/svg11.dtd">
<svg version="1.1" xmlns="http://www.w3.org/2000/svg" xmlns:xlink="http://www.w3.org/1999/xlink" preserveAspectRatio="xMidYMid meet" viewBox="0 0 640 640" width="64" height="64"><defs><path d="M574.48 46.88C585.71 46.88 594.81 55.98 594.81 67.21C594.81 174.64 594.81 476.6 594.81 584.03C594.81 595.26 585.71 604.36 574.48 604.36C468.4 604.36 170.48 604.36 64.4 604.36C53.17 604.36 44.07 595.26 44.07 584.03C44.07 476.6 44.07 174.64 44.07 67.21C44.07 55.98 53.17 46.88 64.4 46.88C170.48 46.88 468.4 46.88 574.48 46.88Z" id="a3uKA0dyE"></path><path d="M269.61 279.46C269.61 328.47 229.07 368.26 179.13 368.26C129.19 368.26 88.65 328.47 88.65 279.46C88.65 230.46 129.19 190.67 179.13 190.67C229.07 190.67 269.61 230.46 269.61 279.46Z" id="a14FMgeuB8"></path><path d="M205.6 279.96C205.6 294.54 193.52 306.38 178.63 306.38C163.74 306.38 151.65 294.54 151.65 279.96C151.65 265.38 163.74 253.55 178.63 253.55C193.52 253.55 205.6 265.38 205.6 279.96Z" id="c1lM8WMeI6"></path><path d="M352.6 169.39C359.11 169.39 364.4 174.67 364.4 181.19C364.4 239.07 364.4 400.93 364.4 458.81C364.4 465.33 359.11 470.61 352.6 470.61C350.23 470.61 354.96 470.61 352.6 470.61C346.08 470.61 340.79 465.33 340.79 458.81C340.79 400.93 340.79 239.07 340.79 181.19C340.79 174.67 346.08 169.39 352.6 169.39C354.96 169.39 350.23 169.39 352.6 169.39Z" id="brDPCL4WT"></path><path d="M446.34 169.39C452.85 169.39 458.14 174.67 458.14 181.19C458.14 239.07 458.14 400.93 458.14 458.81C458.14 465.33 452.85 470.61 446.34 470.61C443.98 470.61 448.7 470.61 446.34 470.61C439.82 470.61 434.53 465.33 434.53 458.81C434.53 400.93 434.53 239.07 434.53 181.19C434.53 174.67 439.82 169.39 446.34 169.39C448.7 169.39 443.98 169.39 446.34 169.39Z" id="k1HxoIHFbk"></path><path d="M542.64 169.39C549.16 169.39 554.45 174.67 554.45 181.19C554.45 239.07 554.45 400.93 554.45 458.81C554.45 465.33 549.16 470.61 542.64 470.61C540.28 470.61 545 470.61 542.64 470.61C536.13 470.61 530.84 465.33 530.84 458.81C530.84 400.93 530.84 239.07 530.84 181.19C530.84 174.67 536.13 169.39 542.64 169.39C545 169.39 540.28 169.39 542.64 169.39Z" id="lysTmD0ED"></path><path d="M373.42 350.35C376.2 350.35 378.45 348.1 378.45 345.32C378.45 342.5 378.45 339.08 378.45 336.27C378.45 333.49 376.2 331.24 373.42 331.24C364.08 331.24 341.11 331.24 331.77 331.24C328.99 331.24 326.74 333.49 326.74 336.27C326.74 339.08 326.74 342.5 326.74 345.32C326.74 348.1 328.99 350.35 331.77 350.35C341.11 350.35 364.08 350.35 373.42 350.35Z" id="g1GgPOTOTJ"></path><path d="M467.16 209.78C469.94 209.78 472.19 207.53 472.19 204.75C472.19 201.93 472.19 198.51 472.19 195.7C472.19 192.92 469.94 190.67 467.16 190.67C457.83 190.67 434.85 190.67 425.51 190.67C422.74 190.67 420.48 192.92 420.48 195.7C420.48 198.51 420.48 201.93 420.48 204.75C420.48 207.53 422.74 209.78 425.51 209.78C434.85 209.78 457.83 209.78 467.16 209.78Z" id="bTozv2xcO"></path><path d="M564.66 299.45C567.44 299.45 569.69 297.2 569.69 294.43C569.69 291.61 569.69 288.19 569.69 285.37C569.69 282.6 567.44 280.35 564.66 280.35C555.33 280.35 532.35 280.35 523.02 280.35C520.24 280.35 517.99 282.6 517.99 285.37C517.99 288.19 517.99 291.61 517.99 294.43C517.99 297.2 520.24 299.45 523.02 299.45C532.35 299.45 555.33 299.45 564.66 299.45Z" id="b4RsS3d1y3"></path><path d="M188.68 280.46C188.68 285.67 184.4 289.9 179.13 289.9C173.86 289.9 169.57 285.67 169.57 280.46C169.57 275.25 173.86 271.02 179.13 271.02C184.4 271.02 188.68 275.25 188.68 280.46Z" id="a20q2APzuk"></path><path d="M152.08 329.25L158.03 333.49L102 412.26L96.05 408.02L152.08 329.25Z" id="a2gEleX9UK"></path><path d="M96.05 408.01L103.36 408.01L103.36 436.19L96.05 436.19L96.05 408.01Z" id="b17E28DzFY"></path><path d="M105.95 432.22C110.26 432.22 113.75 435.72 113.75 440.03C113.75 442.96 113.75 443.96 113.75 446.9C113.75 451.21 110.26 454.7 105.95 454.7C101.89 454.7 97.52 454.7 93.46 454.7C89.15 454.7 85.65 451.21 85.65 446.9C85.65 443.96 85.65 442.96 85.65 440.03C85.65 435.72 89.15 432.22 93.46 432.22C97.52 432.22 101.89 432.22 105.95 432.22Z" id="d6zeADSWCN"></path><path d="M165.62 323.52C168.04 325.17 168.66 328.47 167.01 330.89C165.97 332.41 165.86 332.58 164.82 334.09C163.17 336.51 159.86 337.13 157.44 335.48C155.17 333.92 152.71 332.24 150.43 330.68C148.01 329.03 147.39 325.72 149.05 323.31C150.09 321.79 150.2 321.62 151.24 320.11C152.89 317.69 156.19 317.07 158.61 318.72C160.89 320.28 163.35 321.96 165.62 323.52Z" id="a10ags7sEb"></path></defs><g><g><g><use xlink:href="#a3uKA0dyE" opacity="1" fill="#b98b8b" fill-opacity="1"></use></g><g><use xlink:href="#a14FMgeuB8" opacity="1" fill="#c06565" fill-opacity="1"></use></g><g><use xlink:href="#c1lM8WMeI6" opacity="1" fill="#694747" fill-opacity="1"></use></g><g><use xlink:href="#brDPCL4WT" opacity="1" fill="#893e3e" fill-opacity="1"></use></g><g><use xlink:href="#k1HxoIHFbk" opacity="1" fill="#893e3e" fill-opacity="1"></use></g><g><use xlink:href="#lysTmD0ED" opacity="1" fill="#893e3e" fill-opacity="1"></use></g><g><use xlink:href="#g1GgPOTOTJ" opacity="1" fill="#694747" fill-opacity="1"></use></g><g><use xlink:href="#bTozv2xcO" opacity="1" fill="#694747" fill-opacity="1"></use></g><g><use xlink:href="#b4RsS3d1y3" opacity="1" fill="#694747" fill-opacity="1"></use></g><g><use xlink:href="#a20q2APzuk" opacity="1" fill="#b98b8b" fill-opacity="1"></use></g><g><use xlink:href="#a2gEleX9UK" opacity="1" fill="#694747" fill-opacity="1"></use></g><g><use xlink:href="#b17E28DzFY" opacity="1" fill="#694747" fill-opacity="1"></use></g><g><use xlink:href="#d6zeADSWCN" opacity="1" fill="#893e3e" fill-opacity="1"></use></g><g><use xlink:href="#a10ags7sEb" opacity="1" fill="#893e3e" fill-opacity="1"></use></g></g></g></svg>