<?xml version="1.0" encoding="UTF-8" standalone="no"?><!DOCTYPE svg PUBLIC "-//W3C//DTD SVG 1.1//EN" "http://www.w3.org/Graphics/SVG/1.1/DTD/svg11.dtd"><svg width="100%" height="100%" viewBox="0 0 1604 1600" version="1.1" xmlns="http://www.w3.org/2000/svg" xmlns:xlink="http://www.w3.org/1999/xlink" xml:space="preserve" xmlns:serif="http://www.serif.com/" style="fill-rule:evenodd;clip-rule:evenodd;stroke-linejoin:round;stroke-miterlimit:2;"><rect id="motrix" x="1.123" y="0" width="1600" height="1600" style="fill:none;"/><circle cx="801.123" cy="800" r="737.866" style="fill:#a18eae;"/><path d="M801.123,62.134c407.239,0 737.866,330.627 737.866,737.866c-0,407.239 -330.627,737.866 -737.866,737.866c-407.239,-0 -737.866,-330.627 -737.866,-737.866c0,-407.239 330.627,-737.866 737.866,-737.866Zm-0,62.246c372.885,0 675.62,302.735 675.62,675.62c-0,372.885 -302.735,675.62 -675.62,675.62c-372.885,-0 -675.62,-302.735 -675.62,-675.62c0,-372.885 302.735,-675.62 675.62,-675.62Z" style="fill:#bdacc8;"/><path d="M1245.64,430.858c-0,-41.601 -33.775,-75.376 -75.376,-75.376l-738.284,0c-41.601,0 -75.376,33.775 -75.376,75.376l0,738.284c0,41.601 33.775,75.376 75.376,75.376l738.284,-0c41.601,-0 75.376,-33.775 75.376,-75.376l-0,-738.284Z" style="fill:#e5dbec;"/><clipPath id="_clip1"><path d="M1245.64,430.858c-0,-41.601 -33.775,-75.376 -75.376,-75.376l-738.284,0c-41.601,0 -75.376,33.775 -75.376,75.376l0,738.284c0,41.601 33.775,75.376 75.376,75.376l738.284,-0c41.601,-0 75.376,-33.775 75.376,-75.376l-0,-738.284Z"/></clipPath><g clip-path="url(#_clip1)"><path d="M1051.08,340.875c-0,-29.084 -23.612,-52.696 -52.696,-52.696l-394.516,-0c-29.084,-0 -52.696,23.612 -52.696,52.696l-0,169.409c-0,29.084 23.612,52.696 52.696,52.696l394.516,0c29.084,0 52.696,-23.612 52.696,-52.696l-0,-169.409Z" style="fill:#564b5d;"/><g><path d="M971.294,437.019c-0,-6.314 -5.126,-11.439 -11.439,-11.439l-106.194,-0c-6.313,-0 -11.439,5.125 -11.439,11.439l0,36.775c0,6.313 5.126,11.439 11.439,11.439l106.194,0c6.313,0 11.439,-5.126 11.439,-11.439l-0,-36.775Z" style="fill:#ddd174;"/><path d="M760.024,437.019c-0,-6.314 -5.126,-11.439 -11.44,-11.439l-106.193,-0c-6.313,-0 -11.439,5.125 -11.439,11.439l-0,36.775c-0,6.313 5.126,11.439 11.439,11.439l106.193,0c6.314,0 11.44,-5.126 11.44,-11.439l-0,-36.775Z" style="fill:#ddd174;"/></g><g><path d="M1131.95,1047.26c-0,-7.365 -5.924,-13.344 -13.221,-13.344l-107.652,0c-7.297,0 -13.221,5.979 -13.221,13.344c-0,-0 -0,70.224 -0,70.224c-0,7.365 5.924,13.344 13.221,13.344c-0,0 107.652,0 107.652,0c7.297,0 13.221,-5.979 13.221,-13.344l-0,-70.224Zm-118.091,2.808l0,64.608l102.087,-0l0,-64.608l-102.087,0Z" style="fill:#a18eae;"/><path d="M783.666,1033.92l110.36,0c11.584,0 20.975,9.212 20.975,20.576l-0,68.26c-0,4.457 -3.689,8.076 -8.233,8.076c-4.544,0 -8.233,-3.619 -8.233,-8.076c0,0 0,-45.586 0,-68.26c0,-2.443 -2.019,-4.424 -4.509,-4.424l-46.947,0l-0,72.684c-0,4.457 -3.689,8.076 -8.233,8.076c-4.544,0 -8.233,-3.619 -8.233,-8.076l0,-72.684l-46.947,0c-2.491,0 -4.51,1.981 -4.51,4.424c0,22.674 0,68.26 0,68.26c0,4.457 -3.689,8.076 -8.233,8.076c-4.543,0 -8.232,-3.619 -8.232,-8.076c-0,0 -0,-45.586 -0,-68.26c-0,-11.364 9.391,-20.576 20.975,-20.576Z" style="fill:#a18eae;"/><path d="M973.023,1079.61c0,-1.525 -1.238,-2.763 -2.763,-2.763l-27.662,-0c-1.525,-0 -2.763,1.238 -2.763,2.763l0,5.526c0,1.525 1.238,2.763 2.763,2.763l27.662,0c1.525,0 2.763,-1.238 2.763,-2.763l0,-5.526Z" style="fill:#a18eae;"/></g></g></svg>