<?xml version="1.0" encoding="UTF-8" standalone="no"?>
<svg
   xmlns:dc="http://purl.org/dc/elements/1.1/"
   xmlns:cc="http://creativecommons.org/ns#"
   xmlns:rdf="http://www.w3.org/1999/02/22-rdf-syntax-ns#"
   xmlns:svg="http://www.w3.org/2000/svg"
   xmlns="http://www.w3.org/2000/svg"
   xmlns:sodipodi="http://sodipodi.sourceforge.net/DTD/sodipodi-0.dtd"
   xmlns:inkscape="http://www.inkscape.org/namespaces/inkscape"
   width="48"
   height="48"
   viewBox="0 0 12.7 12.7"
   version="1.1"
   id="svg5184"
   inkscape:version="1.0.2 (e86c870879, 2021-01-15)"
   sodipodi:docname="ms-powerpoint.svg">
  <defs
     id="defs5178" />
  <sodipodi:namedview
     id="base"
     pagecolor="#ffffff"
     bordercolor="#666666"
     borderopacity="1.0"
     inkscape:pageopacity="0.0"
     inkscape:pageshadow="2"
     inkscape:zoom="11.2"
     inkscape:cx="35.656112"
     inkscape:cy="15.457993"
     inkscape:document-units="mm"
     inkscape:current-layer="layer1"
     showgrid="true"
     units="px"
     inkscape:measure-start="45,1"
     inkscape:measure-end="30,1"
     inkscape:window-width="1920"
     inkscape:window-height="1028"
     inkscape:window-x="0"
     inkscape:window-y="24"
     inkscape:window-maximized="1"
     inkscape:document-rotation="0">
    <inkscape:grid
       type="xygrid"
       id="grid5729" />
  </sodipodi:namedview>
  <metadata
     id="metadata5181">
    <rdf:RDF>
      <cc:Work
         rdf:about="">
        <dc:format>image/svg+xml</dc:format>
        <dc:type
           rdf:resource="http://purl.org/dc/dcmitype/StillImage" />
        <dc:title></dc:title>
      </cc:Work>
    </rdf:RDF>
  </metadata>
  <g
     inkscape:label="Capa 1"
     inkscape:groupmode="layer"
     id="layer1"
     transform="translate(0,-284.29998)">
    <path
       id="rect5731"
       style="opacity:1;fill:#d48c4b;fill-opacity:1;stroke:none;stroke-width:1;stroke-miterlimit:4;stroke-dasharray:none;stroke-opacity:1"
       d="M 1.0583357,285.09372 H 11.377081 c 0.29316,0 0.529169,0.23601 0.529169,0.52917 v 10.58334 c 0,0.29316 -0.236009,0.52917 -0.529169,0.52917 H 1.0583357 c -0.29315968,0 -0.52916906,-0.23601 -0.52916906,-0.52917 v -10.58334 c 0,-0.29316 0.23600938,-0.52917 0.52916906,-0.52917 z" />
    <path
       style="opacity:1;fill:#e3a369;fill-opacity:1;stroke:none;stroke-width:3.77952766;stroke-miterlimit:4;stroke-dasharray:none;stroke-opacity:1"
       d="M 4,3 C 2.8919949,3 2,3.8919937 2,5 v 40 c 0,1.108006 0.8919949,2 2,2 h 6 L 45,13 45,5 C 45,3.8919937 44.108006,3 43,3 Z"
       transform="matrix(0.26458333,0,0,0.26458333,0,284.29998)"
       id="rect5739"
       inkscape:connector-curvature="0"
       sodipodi:nodetypes="ssssccsss" />
    <path
       id="path838"
       style="opacity:1;fill:#ffffff;fill-opacity:0.44425052;stroke:none;stroke-width:3.77953;stroke-miterlimit:4;stroke-dasharray:none;stroke-opacity:1"
       d="M 4 3 C 2.8919949 3 2 3.8919937 2 5 L 2 25 L 32.646484 25 L 45 13 L 45 5 C 45 3.8919937 44.108006 3 43 3 L 4 3 z "
       transform="matrix(0.26458333,0,0,0.26458333,0,284.29998)" />
    <path
       style="opacity:1;fill:#ffffff;fill-opacity:0.37288135;stroke:none;stroke-width:3.77952766;stroke-miterlimit:4;stroke-dasharray:none;stroke-opacity:1"
       d="M 4 3 C 2.8919949 3 2 3.8919937 2 5 L 2 45 C 2 46.108006 2.8919949 47 4 47 L 10 47 L 23.5 33.884766 L 23.5 3 L 4 3 z "
       id="rect820"
       transform="matrix(0.26458333,0,0,0.26458333,0,284.29998)" />
    <text
       xml:space="preserve"
       style="font-style:normal;font-variant:normal;font-weight:bold;font-stretch:normal;font-size:5.51078px;line-height:1.25;font-family:sans-serif;-inkscape-font-specification:'sans-serif Bold';stroke-width:0.0275538;fill:#ffffff;"
       x="7.5038223"
       y="296.16504"
       id="text853"><tspan
         sodipodi:role="line"
         id="tspan851"
         x="7.5038223"
         y="296.16504"
         style="font-style:normal;font-variant:normal;font-weight:bold;font-stretch:normal;font-family:sans-serif;-inkscape-font-specification:'sans-serif Bold';stroke-width:0.0275538;fill:#ffffff;">P</tspan></text>
  </g>
</svg>
