<?xml version="1.0" encoding="UTF-8" standalone="no"?>
<!DOCTYPE svg PUBLIC "-//W3C//DTD SVG 1.1//EN" "http://www.w3.org/Graphics/SVG/1.1/DTD/svg11.dtd">
<svg version="1.1" xmlns="http://www.w3.org/2000/svg" xmlns:xlink="http://www.w3.org/1999/xlink" preserveAspectRatio="xMidYMid meet" viewBox="0 0 640 640" width="64" height="64"><defs><path d="M609.24 320C609.24 476.71 479.64 603.94 320 603.94C160.36 603.94 30.76 476.71 30.76 320C30.76 163.29 160.36 36.06 320 36.06C479.64 36.06 609.24 163.29 609.24 320Z" id="bNxuYZciW"></path><path d="M596.92 320C596.92 471.58 472.84 594.64 320 594.64C167.16 594.64 43.08 471.58 43.08 320C43.08 168.42 167.16 45.36 320 45.36C472.84 45.36 596.92 168.42 596.92 320Z" id="bG4jiwQhT"></path><path d="M148.06 288.23C148.06 378.1 227.65 451.22 325.48 451.22C423.31 451.22 502.9 378.1 502.9 288.23C502.9 198.37 423.31 125.25 325.48 125.25C227.65 125.25 148.06 198.37 148.06 288.23ZM162.26 288.23C162.26 205.56 235.47 138.29 325.48 138.29C415.49 138.29 488.7 205.56 488.7 288.23C488.7 370.91 415.49 438.18 325.48 438.18C235.47 438.18 162.26 370.91 162.26 288.23Z" id="b640ZQHO76"></path><path d="M502.9 438.18C502.9 445.37 509.26 451.22 517.09 451.22C524.92 451.22 531.28 445.37 531.28 438.18C531.28 430.32 531.28 367.42 531.28 359.56C524.18 376.8 514.58 392.92 502.9 407.55C502.9 413.68 502.9 432.05 502.9 438.18Z" id="ciXTnaLV"></path><path d="M119.68 288.23C119.68 392.48 212.01 477.29 325.48 477.29C438.96 477.29 531.28 392.48 531.28 288.23C531.28 183.98 438.96 99.18 325.48 99.18C212.01 99.18 119.68 183.98 119.68 288.23ZM133.87 288.23C133.87 191.18 219.83 112.21 325.48 112.21C431.14 112.21 517.09 191.18 517.09 288.23C517.09 385.29 431.14 464.25 325.48 464.25C219.83 464.25 133.87 385.29 133.87 288.23Z" id="b96IoWmd"></path><path d="M119.68 438.18C119.68 445.37 126.04 451.22 133.87 451.22C141.7 451.22 148.06 445.37 148.06 438.18C148.06 435.11 148.06 410.61 148.06 407.55C136.38 392.92 126.78 376.81 119.68 359.56C119.68 375.28 119.68 422.45 119.68 438.18Z" id="cbBddX24r"></path><path d="M509.99 480.88L524.19 480.88C524.19 464.68 524.19 455.68 524.19 453.88C521.9 454.42 519.55 454.8 517.09 454.8C514.63 454.8 512.28 454.42 509.99 453.88C509.99 457.48 509.99 466.48 509.99 480.88Z" id="b1vj4kAPHi"></path><path d="M126.78 481.33L140.97 481.33C140.97 465.13 140.97 456.13 140.97 454.33C138.68 454.88 136.33 455.25 133.87 455.25C131.41 455.25 129.06 454.88 126.78 454.33C126.78 457.93 126.78 466.93 126.78 481.33Z" id="hsuCDGiWH"></path><path d="M230.86 179.02L260.51 179.02C260.51 242.34 260.51 281.91 260.51 297.74C260.51 310.61 269.73 321.64 282.39 323.93C289.54 325.22 267.15 321.17 268.82 321.47C301.34 327.35 334.72 326.53 366.91 319.05C387.76 314.21 399.13 311.79 401.01 311.79C408.96 311.77 401.15 298.61 408.13 296.46C413.24 294.88 393.06 309.3 397.38 306.77C410.34 299.2 399.22 301.5 401.01 288.23C401.34 285.82 400.13 273.74 397.38 251.99C396.47 272.5 396.47 286.23 397.38 293.19C399.39 308.69 427.88 308.83 413.03 311.79C411.65 312.06 442.87 302.84 441.42 302.92C429.03 303.56 423.14 307.37 395.51 315.8C393.11 316.54 394.71 315.12 392.3 315.8C341.19 330.36 283.64 336.59 230.86 329.99C230.86 329.99 230.86 329.99 230.86 329.99L230.86 179.02Z" id="d4BythP9GZ"></path><path d="M384.03 182.55L414.14 182.55C414.14 243.39 414.14 281.42 414.14 296.64C414.14 311.93 425.19 324.98 440.27 327.5C441.6 327.72 429.96 325.77 433.91 326.44C442.28 327.84 450.88 326.09 458.04 321.54C460.16 320.19 465.45 316.83 473.92 311.45C466.1 321.47 461.21 327.74 459.26 330.25C453.75 337.31 445.19 341.3 436.23 340.97C425.79 340.59 413.68 340.15 404.48 339.82C393.07 339.4 384.03 330.03 384.03 318.61C384.03 300.47 384.03 255.11 384.03 182.55Z" id="dhwhPUc4c"></path><path d="M458.32 297.69C462.19 309.92 455.96 322.8 444.42 326.45C432.88 330.09 420.38 323.13 416.51 310.9C412.65 298.67 418.88 285.79 430.42 282.14C441.96 278.5 454.46 285.46 458.32 297.69Z" id="a1cE7KRobr"></path><path d="M231.32 296.46L251.33 296.62L250.87 353.12L230.86 352.96L231.32 296.46Z" id="bbQSxHvRm"></path><path d="M265.05 383.23C265.05 396.44 257.89 405.39 242.71 405.39C227.53 405.39 217.15 396.44 217.15 383.23C217.15 374.43 225.67 357.59 242.71 332.72C257.6 357.59 265.05 374.43 265.05 383.23Z" id="e1NbYQpTdE"></path><path d="M234.42 518.54L226.25 484.29L208.46 484.29L199.89 518.16L193.2 484.29L176.15 484.29L190.74 551.05L207.32 551.05L217.1 512.17L226.92 551.05L243.22 551.05L258.15 484.29L241.2 484.29L234.42 518.54Z" id="aqXZlWRzg"></path><path d="M275.74 486L295.76 486L295.76 552.75L275.74 552.75L275.74 486Z" id="gctUvzJu6"></path><path d="M367.72 525.13C366.44 524.11 365.06 523.09 363.41 522.12C374.6 519.42 380.86 512.92 380.86 503.81C380.86 495.6 375.16 488.67 366.39 486.09C362.18 484.88 355.82 484.29 346.89 484.29C344.7 484.29 333.72 484.29 313.95 484.29L313.95 551.05L335.19 551.05C335.19 535.24 335.19 526.45 335.19 524.7C341.47 524.7 341.15 525.47 343.4 527.32C346.02 529.5 354.88 540.15 364.08 551.05C366.61 551.05 386.85 551.05 389.38 551.05C378.97 537.82 371.48 528.31 367.72 525.17C367.72 525.16 367.72 525.13 367.72 525.13ZM335.19 498.8C339.68 498.79 350.98 498.75 353 498.96C357.05 499.51 359.1 501.39 359.1 504.59C359.1 507.41 357.56 509.33 354.64 510.11C351.33 511.01 339.86 510.73 335.19 510.73C335.19 508.35 335.19 501.19 335.19 498.8Z" id="b73Yc3uzV"></path><path d="M456.47 538.17L419.18 538.17L419.18 525.05L452.69 525.05L452.69 510.59L419.18 510.59L419.18 500.63L455.2 500.63L455.2 486L401.47 486L401.47 552.75L456.47 552.75L456.47 538.17Z" id="cVZa17rFN"></path></defs><g><g><g><use xlink:href="#bNxuYZciW" opacity="1" fill="#363636" fill-opacity="1"></use></g><g><use xlink:href="#bG4jiwQhT" opacity="1" fill="#c2bfbf" fill-opacity="1"></use></g><g><use xlink:href="#b640ZQHO76" opacity="1" fill="#363636" fill-opacity="1"></use><g><use xlink:href="#b640ZQHO76" opacity="1" fill-opacity="0" stroke="#000000" stroke-width="0" stroke-opacity="0"></use></g></g><g><use xlink:href="#ciXTnaLV" opacity="1" fill="#363636" fill-opacity="1"></use><g><use xlink:href="#ciXTnaLV" opacity="1" fill-opacity="0" stroke="#000000" stroke-width="0" stroke-opacity="0"></use></g></g><g><use xlink:href="#b96IoWmd" opacity="1" fill="#363636" fill-opacity="1"></use><g><use xlink:href="#b96IoWmd" opacity="1" fill-opacity="0" stroke="#000000" stroke-width="0" stroke-opacity="0"></use></g></g><g><use xlink:href="#cbBddX24r" opacity="1" fill="#363636" fill-opacity="1"></use><g><use xlink:href="#cbBddX24r" opacity="1" fill-opacity="0" stroke="#000000" stroke-width="0" stroke-opacity="0"></use></g></g><g><use xlink:href="#b1vj4kAPHi" opacity="1" fill="#363636" fill-opacity="1"></use><g><use xlink:href="#b1vj4kAPHi" opacity="1" fill-opacity="0" stroke="#000000" stroke-width="0" stroke-opacity="0"></use></g></g><g><use xlink:href="#hsuCDGiWH" opacity="1" fill="#363636" fill-opacity="1"></use><g><use xlink:href="#hsuCDGiWH" opacity="1" fill-opacity="0" stroke="#000000" stroke-width="0" stroke-opacity="0"></use></g></g><g><use xlink:href="#d4BythP9GZ" opacity="1" fill="#363636" fill-opacity="1"></use></g><g><use xlink:href="#dhwhPUc4c" opacity="1" fill="#363636" fill-opacity="1"></use></g><g><use xlink:href="#a1cE7KRobr" opacity="1" fill="#c2bfbf" fill-opacity="1"></use></g><g><use xlink:href="#bbQSxHvRm" opacity="1" fill="#363636" fill-opacity="1"></use></g><g><use xlink:href="#e1NbYQpTdE" opacity="1" fill="#363636" fill-opacity="1"></use></g><g><use xlink:href="#aqXZlWRzg" opacity="1" fill="#363636" fill-opacity="1"></use><g><use xlink:href="#aqXZlWRzg" opacity="1" fill-opacity="0" stroke="#000000" stroke-width="0" stroke-opacity="0"></use></g></g><g><use xlink:href="#gctUvzJu6" opacity="1" fill="#363636" fill-opacity="1"></use></g><g><use xlink:href="#b73Yc3uzV" opacity="1" fill="#363636" fill-opacity="1"></use><g><use xlink:href="#b73Yc3uzV" opacity="1" fill-opacity="0" stroke="#000000" stroke-width="0" stroke-opacity="0"></use></g></g><g><use xlink:href="#cVZa17rFN" opacity="1" fill="#363636" fill-opacity="1"></use><g><use xlink:href="#cVZa17rFN" opacity="1" fill-opacity="0" stroke="#000000" stroke-width="0" stroke-opacity="0"></use></g></g></g></g></svg>