<?xml version="1.0" encoding="UTF-8" standalone="no"?>
<!DOCTYPE svg PUBLIC "-//W3C//DTD SVG 1.1//EN" "http://www.w3.org/Graphics/SVG/1.1/DTD/svg11.dtd">
<svg version="1.1" xmlns="http://www.w3.org/2000/svg" xmlns:xlink="http://www.w3.org/1999/xlink" preserveAspectRatio="xMidYMid meet" viewBox="0 0 640 640" width="64" height="64"><defs><path d="M631.01 322.42C631.01 492.86 491.93 631.24 320.62 631.24C149.31 631.24 10.22 492.86 10.22 322.42C10.22 151.97 149.31 13.6 320.62 13.6C491.93 13.6 631.01 151.97 631.01 322.42Z" id="a1lPgUvGag"></path><path d="M622.25 322.25C622.25 488.44 486.81 623.37 320 623.37C153.19 623.37 17.75 488.44 17.75 322.25C17.75 156.05 153.19 21.12 320 21.12C486.81 21.12 622.25 156.05 622.25 322.25Z" id="a3gxjw5tx"></path><path d="M608.2 320C608.2 479.37 479.06 608.76 320 608.76C160.94 608.76 31.8 479.37 31.8 320C31.8 160.63 160.94 31.24 320 31.24C479.06 31.24 608.2 160.63 608.2 320Z" id="ctGSJekG2"></path><path d="M593.03 318.31C593.03 470.87 470.69 594.72 320 594.72C169.31 594.72 46.97 470.87 46.97 318.31C46.97 165.76 169.31 41.91 320 41.91C470.69 41.91 593.03 165.76 593.03 318.31Z" id="e1nNMcEuu2"></path><path d="M602.76 236.09L611.06 257.21L583.31 268.13L575 247.01L602.76 236.09Z" id="a5Oi8DCXOA"></path><path d="M578.99 316.63C578.99 460.81 462.69 577.87 319.44 577.87C176.19 577.87 59.89 460.81 59.89 316.63C59.89 172.45 176.19 55.39 319.44 55.39C462.69 55.39 578.99 172.45 578.99 316.63Z" id="e2vq66CdK"></path><path d="M131.73 89.22L150.5 76.46L168.95 103.59L150.18 116.35L131.73 89.22Z" id="cVTAIfnG"></path><path d="M192.7 51.36L213.5 42.28L226.63 72.35L205.82 81.43L192.7 51.36Z" id="a9XorvY9j"></path><path d="M261.59 27.93L284.09 24.95L288.01 54.52L265.51 57.5L261.59 27.93Z" id="b20q1nsU6Z"></path><path d="M337.11 24.16L359.76 25.57L357.91 55.33L335.25 53.92L337.11 24.16Z" id="bBK46rpAP"></path><path d="M407.32 38.64L429.65 42.69L424.33 72.03L402 67.98L407.32 38.64Z" id="cRoQpAbm0"></path><path d="M474.14 67.7L494.92 76.85L482.9 104.15L462.12 95L474.14 67.7Z" id="ctqlTwiKY"></path><path d="M533.67 116.41L550.62 131.5L530.79 153.77L513.84 138.68L533.67 116.41Z" id="ciKbO8jNy"></path><path d="M79.77 141.61L94.96 124.75L119.33 146.71L104.14 163.57L79.77 141.61Z" id="f3ynvc1xpT"></path><path d="M13.37 363.09L13.15 297.31L69.56 297.12L69.78 362.9L13.37 363.09Z" id="g2HIbMd1o1"></path><path d="M569.21 363.09L568.99 297.31L625.4 297.12L625.62 362.9L569.21 363.09Z" id="ca2VmvnjO"></path><path d="M43.93 205.26L54 184.92L83.4 199.47L73.34 219.81L43.93 205.26Z" id="dQ7fONai4"></path><path d="M25.25 269.81L30.8 247.8L62.61 255.82L57.07 277.83L25.25 269.81Z" id="m1QLcsm3O3"></path><path d="M573.31 166.83L587.17 184.8L563.55 203.01L549.69 185.03L573.31 166.83Z" id="d1CEwsbvaR"></path><path d="M43.21 424.79L35.71 403.36L66.68 392.53L74.18 413.95L43.21 424.79Z" id="bugTz4n3E"></path><path d="M80.15 500.46L69.16 480.6L97.87 464.72L108.86 484.58L80.15 500.46Z" id="aC8ED84Bp"></path><path d="M136.33 554.92L119.7 539.47L142.03 515.43L158.66 530.88L136.33 554.92Z" id="bW3gtwYda"></path><path d="M206.21 592.47L185.71 582.73L199.79 553.1L220.29 562.84L206.21 592.47Z" id="chtuhLryT"></path><path d="M280.78 614.95L258.31 611.76L262.92 579.28L285.39 582.46L280.78 614.95Z" id="e8zBFXOcw"></path><path d="M351.41 616.95L328.71 616.83L328.9 584.02L351.59 584.14L351.41 616.95Z" id="cOhpZtTV"></path><path d="M428.4 596L406.87 603.16L396.51 572.03L418.05 564.87L428.4 596Z" id="a1vobQtwBF"></path><path d="M500.22 560.97L480.99 573.02L463.57 545.22L482.8 533.17L500.22 560.97Z" id="b2zK45WQAM"></path><path d="M551.02 501.23L535.1 517.41L511.71 494.4L527.62 478.22L551.02 501.23Z" id="e11GibIv6R"></path><path d="M593.3 435.82L581.43 455.17L553.46 438.01L565.33 418.67L593.3 435.82Z" id="el5OJE2o1"></path><path d="M413.61 224.72C426.38 224.72 436.74 235.07 436.74 247.84C436.74 283.23 436.74 366.27 436.74 401.66C436.74 414.43 426.38 424.79 413.61 424.79C368.03 424.79 254.42 424.79 208.84 424.79C196.06 424.79 185.71 414.43 185.71 401.66C185.71 366.27 185.71 283.23 185.71 247.84C185.71 235.07 196.06 224.72 208.84 224.72C254.42 224.72 368.03 224.72 413.61 224.72Z" id="b2TyUrzGdz"></path><path d="M457.46 290.29C483.13 276.36 499.18 267.65 505.59 264.16C512.88 260.21 521.77 265.43 521.85 273.72C521.92 280.4 522.09 297.09 522.37 323.8C522.07 350.81 521.88 367.69 521.81 374.45C521.74 380.67 515.29 384.76 509.63 382.17C502.77 379.04 485.62 371.2 458.17 358.66L393.27 325.14L457.46 290.29Z" id="c1djRUVu7"></path><path d="M330.43 354.34L268.92 382.65L267.21 330.1L265.49 277.56L328.71 301.79L391.94 326.03L330.43 354.34Z" id="deyp3TgMr"></path></defs><g><g><g><use xlink:href="#a1lPgUvGag" opacity="1" fill="#484646" fill-opacity="1"></use></g><g><use xlink:href="#a3gxjw5tx" opacity="1" fill="#9b9b9b" fill-opacity="1"></use></g><g><use xlink:href="#ctGSJekG2" opacity="1" fill="#484646" fill-opacity="1"></use></g><g><use xlink:href="#e1nNMcEuu2" opacity="1" fill="#9b9b9b" fill-opacity="1"></use></g><g><use xlink:href="#a5Oi8DCXOA" opacity="1" fill="#9b9b9b" fill-opacity="1"></use></g><g><use xlink:href="#e2vq66CdK" opacity="1" fill="#484646" fill-opacity="1"></use></g><g><use xlink:href="#cVTAIfnG" opacity="1" fill="#9b9b9b" fill-opacity="1"></use></g><g><use xlink:href="#a9XorvY9j" opacity="1" fill="#9b9b9b" fill-opacity="1"></use></g><g><use xlink:href="#b20q1nsU6Z" opacity="1" fill="#9b9b9b" fill-opacity="1"></use></g><g><use xlink:href="#bBK46rpAP" opacity="1" fill="#9b9b9b" fill-opacity="1"></use></g><g><use xlink:href="#cRoQpAbm0" opacity="1" fill="#9b9b9b" fill-opacity="1"></use></g><g><use xlink:href="#ctqlTwiKY" opacity="1" fill="#9b9b9b" fill-opacity="1"></use></g><g><use xlink:href="#ciKbO8jNy" opacity="1" fill="#9b9b9b" fill-opacity="1"></use></g><g><use xlink:href="#f3ynvc1xpT" opacity="1" fill="#9b9b9b" fill-opacity="1"></use></g><g><use xlink:href="#g2HIbMd1o1" opacity="1" fill="#484646" fill-opacity="1"></use></g><g><use xlink:href="#ca2VmvnjO" opacity="1" fill="#484646" fill-opacity="1"></use></g><g><use xlink:href="#dQ7fONai4" opacity="1" fill="#9b9b9b" fill-opacity="1"></use></g><g><use xlink:href="#m1QLcsm3O3" opacity="1" fill="#9b9b9b" fill-opacity="1"></use></g><g><use xlink:href="#d1CEwsbvaR" opacity="1" fill="#9b9b9b" fill-opacity="1"></use></g><g><use xlink:href="#bugTz4n3E" opacity="1" fill="#9b9b9b" fill-opacity="1"></use></g><g><use xlink:href="#aC8ED84Bp" opacity="1" fill="#9b9b9b" fill-opacity="1"></use></g><g><use xlink:href="#bW3gtwYda" opacity="1" fill="#9b9b9b" fill-opacity="1"></use></g><g><use xlink:href="#chtuhLryT" opacity="1" fill="#9b9b9b" fill-opacity="1"></use></g><g><use xlink:href="#e8zBFXOcw" opacity="1" fill="#9b9b9b" fill-opacity="1"></use></g><g><use xlink:href="#cOhpZtTV" opacity="1" fill="#9b9b9b" fill-opacity="1"></use></g><g><use xlink:href="#a1vobQtwBF" opacity="1" fill="#9b9b9b" fill-opacity="1"></use></g><g><use xlink:href="#b2zK45WQAM" opacity="1" fill="#9b9b9b" fill-opacity="1"></use></g><g><use xlink:href="#e11GibIv6R" opacity="1" fill="#9b9b9b" fill-opacity="1"></use></g><g><use xlink:href="#el5OJE2o1" opacity="1" fill="#9b9b9b" fill-opacity="1"></use></g><g><use xlink:href="#b2TyUrzGdz" opacity="1" fill="#9b9b9b" fill-opacity="1"></use></g><g><use xlink:href="#c1djRUVu7" opacity="1" fill="#9b9b9b" fill-opacity="1"></use></g><g><use xlink:href="#deyp3TgMr" opacity="1" fill="#484646" fill-opacity="1"></use></g></g></g></svg>