<?xml version="1.0" encoding="UTF-8" standalone="no"?>
<svg
   xmlns:dc="http://purl.org/dc/elements/1.1/"
   xmlns:cc="http://creativecommons.org/ns#"
   xmlns:rdf="http://www.w3.org/1999/02/22-rdf-syntax-ns#"
   xmlns:svg="http://www.w3.org/2000/svg"
   xmlns="http://www.w3.org/2000/svg"
   xmlns:sodipodi="http://sodipodi.sourceforge.net/DTD/sodipodi-0.dtd"
   xmlns:inkscape="http://www.inkscape.org/namespaces/inkscape"
   width="297mm"
   height="297mm"
   viewBox="0 0 297 297"
   version="1.1"
   id="svg8"
   inkscape:version="1.0.1 (3bc2e813f5, 2020-09-07)"
   sodipodi:docname="nsm-legacy-gui1.svg">
  <defs
     id="defs2" />
  <sodipodi:namedview
     id="base"
     pagecolor="#ffffff"
     bordercolor="#666666"
     borderopacity="1.0"
     inkscape:pageopacity="0.0"
     inkscape:pageshadow="2"
     inkscape:zoom="0.2455846"
     inkscape:cx="-154.53712"
     inkscape:cy="336.34793"
     inkscape:document-units="mm"
     inkscape:current-layer="layer1"
     inkscape:document-rotation="0"
     showgrid="false"
     inkscape:window-width="1369"
     inkscape:window-height="641"
     inkscape:window-x="72"
     inkscape:window-y="56"
     inkscape:window-maximized="0"
     showguides="true"
     inkscape:guide-bbox="true" />
  <metadata
     id="metadata5">
    <rdf:RDF>
      <cc:Work
         rdf:about="">
        <dc:format>image/svg+xml</dc:format>
        <dc:type
           rdf:resource="http://purl.org/dc/dcmitype/StillImage" />
        <dc:title></dc:title>
      </cc:Work>
    </rdf:RDF>
  </metadata>
  <g
     inkscape:label="Layer 1"
     inkscape:groupmode="layer"
     id="layer1">
    <rect
       style="fill:#2e2f31;fill-opacity:1;stroke:#505152;stroke-width:4.08798;stroke-linejoin:round;stroke-opacity:1"
       id="rect833"
       width="259.20166"
       height="267.95255"
       x="18.359739"
       y="16.387899"
       ry="6.9508357" />
    <rect
       style="fill:#505152;fill-opacity:1;stroke:#d6dcea;stroke-width:0;stroke-linejoin:round;stroke-miterlimit:4;stroke-dasharray:none;stroke-opacity:1"
       id="rect977"
       width="257.82449"
       height="6.7456889"
       x="19.634811"
       y="99.814957" />
    <rect
       style="fill:#fff5f5;fill-opacity:1;stroke:#d6dcea;stroke-width:0;stroke-linejoin:round;stroke-miterlimit:4;stroke-dasharray:none;stroke-opacity:1"
       id="rect979"
       width="77.248932"
       height="162.18864"
       x="25.267914"
       y="113.55975" />
    <rect
       style="fill:#fff5f5;fill-opacity:1;stroke:#d6dcea;stroke-width:0;stroke-linejoin:round;stroke-miterlimit:4;stroke-dasharray:none;stroke-opacity:1"
       id="rect983"
       width="77.248932"
       height="162.18864"
       x="109.73753"
       y="113.33579" />
    <rect
       style="fill:#fff5f5;fill-opacity:1;stroke:#d6dcea;stroke-width:0;stroke-linejoin:round;stroke-miterlimit:4;stroke-dasharray:none;stroke-opacity:1"
       id="rect985"
       width="77.248932"
       height="162.18864"
       x="193.88437"
       y="113.00719" />
    <rect
       style="fill:#2e2f31;fill-opacity:1;stroke:#d6dcea;stroke-width:0;stroke-linejoin:round;stroke-miterlimit:4;stroke-dasharray:none;stroke-opacity:1"
       id="rect987"
       width="30.913548"
       height="99.955063"
       x="90.123947"
       y="109.68012" />
    <g
       transform="translate(-344.24226,-55.575298)"
       inkscape:label="Layer 1"
       id="layer1-3">
      <g
         id="nsm"
         inkscape:label="nsm"
         transform="translate(-172.56864)">
        <title
           id="title888">nsm</title>
      </g>
      <g
         transform="translate(-170.13191,80.919145)"
         inkscape:label="jackpatch"
         id="jackpatch">
        <title
           id="title890">jackpatch</title>
      </g>
      <g
         id="proxy"
         inkscape:label="proxy">
        <title
           id="title940">proxy</title>
      </g>
      <g
         style="font-style:normal;font-weight:normal;font-size:67.6707px;line-height:1.25;font-family:sans-serif;letter-spacing:0px;word-spacing:0px;fill:#000000;fill-opacity:1;stroke:none;stroke-width:1.45009"
         id="text1683"
         aria-label="PRX" />
      <g
         style="font-style:normal;font-weight:normal;font-size:67.6707px;line-height:1.25;font-family:sans-serif;letter-spacing:0px;word-spacing:0px;fill:#000000;fill-opacity:1;stroke:none;stroke-width:1.45009"
         id="text1879"
         aria-label="NSM">
        <path
           id="path1886"
           style="font-style:normal;font-variant:normal;font-weight:normal;font-stretch:normal;font-size:67.6707px;font-family:'Sturkopf Grotesk';-inkscape-font-specification:'Sturkopf Grotesk';text-align:center;text-anchor:middle;fill:#a7b3d8;fill-opacity:1;stroke:#323335;stroke-width:3.82769;stroke-miterlimit:4;stroke-dasharray:none;stroke-opacity:1"
           d="m 375.4077,190.91266 0.36196,0.70527 V 309.7491 h 13.39117 v -77.40234 l 23.52503,77.40234 h 14.29596 l -0.36192,-1.05788 V 190.91266 h -13.93404 v 77.22607 l -23.34407,-77.22607 z" />
        <path
           id="path1888"
           style="font-style:normal;font-variant:normal;font-weight:normal;font-stretch:normal;font-size:67.6707px;font-family:'Sturkopf Grotesk';-inkscape-font-specification:'Sturkopf Grotesk';text-align:center;text-anchor:middle;fill:#ffffff;fill-opacity:1;stroke:#323335;stroke-width:4.06122;stroke-opacity:1"
           d="m 502.50018,309.4033 c 4.10748,0 7.59887,-1.22428 10.47411,-3.49794 3.08061,-2.44855 4.51822,-5.42175 4.51822,-8.91966 v -37.42776 c 0,-3.32303 -1.43761,-6.29627 -4.10748,-8.9197 -2.87524,-2.44855 -6.57196,-4.19752 -10.88485,-5.42178 l -11.09022,-2.97321 c -1.23223,-0.3498 -2.4645,-1.22429 -3.49135,-2.44856 -1.02687,-1.39918 -1.43761,-2.62343 -1.43761,-3.84772 V 207.9636 c 0,-1.22427 0.41074,-2.09875 1.43761,-2.97321 1.02685,-0.8745 2.05374,-1.22429 3.49135,-1.22429 h 4.92899 c 1.43761,0 2.4645,0.34979 3.49136,1.22429 1.0269,0.87446 1.43764,1.74894 1.43764,2.97321 v 9.09462 h 15.19771 v -13.64191 c 0,-3.6728 -1.43765,-6.64603 -4.31289,-9.09456 -3.0806,-2.44855 -6.57197,-3.67284 -10.67945,-3.67284 H 486.481 c -4.31289,0 -7.80424,1.22429 -10.67949,3.67284 -2.87524,2.44853 -4.31284,5.42176 -4.31284,9.09456 v 36.72816 c 0,3.32303 1.4376,6.47115 4.10746,9.09462 2.87525,2.62343 6.57198,4.37237 10.88487,5.59666 l 11.09018,2.79833 c 1.43764,0.3498 2.46451,1.04936 3.49141,2.27367 1.02685,1.22424 1.43759,2.27364 1.43759,3.4979 v 28.85785 c 0,1.22426 -0.41074,2.27365 -1.43759,3.14812 -1.0269,0.87447 -2.05377,1.22425 -3.49141,1.22425 h -4.92895 c -1.43765,0 -2.4645,-0.34978 -3.49136,-1.22425 -1.02689,-0.87447 -1.43764,-1.92386 -1.43764,-3.14812 v -9.09461 h -15.1977 v 13.81681 c 0,3.49791 1.43761,6.47111 4.31284,8.91966 3.08062,2.27366 6.57201,3.49794 10.67949,3.49794 z" />
        <path
           id="path1890"
           style="font-style:normal;font-variant:normal;font-weight:normal;font-stretch:normal;font-size:67.6707px;font-family:'Sturkopf Grotesk';-inkscape-font-specification:'Sturkopf Grotesk';text-align:center;text-anchor:middle;fill:#a7b3d8;fill-opacity:1;stroke:#323335;stroke-width:3.68685;stroke-opacity:1"
           d="m 559.78891,194.34241 0.3369,117.744 h 12.80185 v -82.94802 l 10.44359,41.47403 h 1.68447 l 9.93827,-41.47403 v 82.94802 h 13.13872 v -117.744 H 596.1731 L 584.21348,233.3561 572.0854,194.34241 Z" />
      </g>
    </g>
    <rect
       style="fill:#2e2f31;fill-opacity:1;stroke:#d6dcea;stroke-width:0;stroke-linejoin:round;stroke-miterlimit:4;stroke-dasharray:none;stroke-opacity:1"
       id="rect1077"
       width="30.913548"
       height="99.955063"
       x="176.61317"
       y="108.90649" />
    <rect
       style="fill:#505152;fill-opacity:1;stroke:#323335;stroke-width:0;stroke-linejoin:round;stroke-miterlimit:4;stroke-dasharray:none;stroke-opacity:1"
       id="rect1091"
       width="209.6638"
       height="4.4371614"
       x="45.049236"
       y="37.440498"
       ry="2.2185807" />
    <rect
       style="fill:#505152;fill-opacity:1;stroke:#323335;stroke-width:0;stroke-linejoin:round;stroke-miterlimit:4;stroke-dasharray:none;stroke-opacity:1"
       id="rect1093"
       width="209.6638"
       height="4.4371614"
       x="45.049236"
       y="56.863091"
       ry="2.2185807" />
    <rect
       style="fill:#505152;fill-opacity:1;stroke:#323335;stroke-width:0;stroke-linejoin:round;stroke-miterlimit:4;stroke-dasharray:none;stroke-opacity:1"
       id="rect1095"
       width="209.6638"
       height="4.4371614"
       x="45.049236"
       y="78.154083"
       ry="2.2185807" />
    <path
       style="fill:#a7b3d8;fill-opacity:1;stroke:#2e2f31;stroke-width:3;stroke-linejoin:round;stroke-miterlimit:4;stroke-dasharray:none;stroke-opacity:1"
       id="path1099"
       sodipodi:type="arc"
       sodipodi:cx="75.645813"
       sodipodi:cy="38.369366"
       sodipodi:rx="15.246117"
       sodipodi:ry="13.83456"
       sodipodi:start="6.1474685"
       sodipodi:end="6.1473454"
       sodipodi:open="true"
       sodipodi:arc-type="arc"
       d="M 90.751736,36.497542 A 15.246117,13.83456 0 0 1 77.709086,52.076654 15.246117,13.83456 0 0 1 60.540017,40.242033 15.246117,13.83456 0 0 1 73.58161,24.662192 15.246117,13.83456 0 0 1 90.751481,36.495855" />
    <path
       style="fill:#a7b3d8;fill-opacity:1;stroke:#2e2f31;stroke-width:3;stroke-linejoin:round;stroke-miterlimit:4;stroke-dasharray:none;stroke-opacity:1"
       id="path1103"
       sodipodi:type="arc"
       sodipodi:cx="162.91537"
       sodipodi:cy="59.682453"
       sodipodi:rx="15.246117"
       sodipodi:ry="13.83456"
       sodipodi:start="6.1474685"
       sodipodi:end="6.1473454"
       sodipodi:open="true"
       sodipodi:arc-type="arc"
       d="M 178.0213,57.810629 A 15.246117,13.83456 0 0 1 164.97865,73.389742 15.246117,13.83456 0 0 1 147.80958,61.555121 15.246117,13.83456 0 0 1 160.85117,45.97528 15.246117,13.83456 0 0 1 178.02104,57.808942" />
    <path
       style="fill:#a7b3d8;fill-opacity:1;stroke:#2e2f31;stroke-width:3;stroke-linejoin:round;stroke-miterlimit:4;stroke-dasharray:none;stroke-opacity:1"
       id="path1105"
       sodipodi:type="arc"
       sodipodi:cx="217.16194"
       sodipodi:cy="78.520813"
       sodipodi:rx="15.246117"
       sodipodi:ry="13.83456"
       sodipodi:start="6.1474685"
       sodipodi:end="6.1473454"
       sodipodi:open="true"
       sodipodi:arc-type="arc"
       d="M 232.26786,76.648989 A 15.246117,13.83456 0 0 1 219.22521,92.228101 15.246117,13.83456 0 0 1 202.05615,80.39348 15.246117,13.83456 0 0 1 215.09774,64.81364 15.246117,13.83456 0 0 1 232.26761,76.647302" />
  </g>
</svg>
