<?xml version="1.0" encoding="UTF-8" standalone="no"?>
<!DOCTYPE svg PUBLIC "-//W3C//DTD SVG 1.1//EN" "http://www.w3.org/Graphics/SVG/1.1/DTD/svg11.dtd">
<svg width="100%" height="100%" viewBox="0 0 2048 2048" version="1.1" xmlns="http://www.w3.org/2000/svg" xmlns:xlink="http://www.w3.org/1999/xlink" xml:space="preserve" xmlns:serif="http://www.serif.com/" style="fill-rule:evenodd;clip-rule:evenodd;stroke-linejoin:round;stroke-miterlimit:2;">
    <g transform="matrix(1.21102,0,0,1.21102,-170.265,-141.713)">
        <path d="M1739.42,285.946C1739.42,265.626 1731.35,246.138 1716.98,231.769C1702.61,217.401 1683.12,209.328 1662.81,209.328L309.523,209.328C289.203,209.328 269.714,217.401 255.346,231.769C240.977,246.138 232.905,265.626 232.905,285.946L232.905,1639.23C232.905,1659.55 240.977,1679.04 255.346,1693.4C269.714,1707.77 289.203,1715.85 309.523,1715.85L1662.81,1715.85C1683.12,1715.85 1702.61,1707.77 1716.98,1693.4C1731.35,1679.04 1739.42,1659.55 1739.42,1639.23L1739.42,285.946Z" style="fill:rgb(212,182,227);"/>
    </g>
    <g transform="matrix(0.943189,0,0,0.943189,58.1741,58.1741)">
        <g transform="matrix(-0.943687,-3.88744e-16,3.02123e-16,-1.25974,2539.56,2794.56)">
            <path d="M1204.7,1024L1606,1405.49L803.394,1405.49L1204.7,1024Z" style="fill:rgb(192,144,216);"/>
        </g>
        <g transform="matrix(-0.943687,-3.88744e-16,3.02123e-16,-1.25974,1782.15,2794.56)">
            <path d="M1204.7,1024L1606,1405.49L803.394,1405.49L1204.7,1024Z" style="fill:rgb(192,144,216);"/>
        </g>
        <g transform="matrix(-0.943687,-3.88744e-16,3.02123e-16,-1.25974,2160.86,2313.98)">
            <path d="M1204.7,1024L1606,1405.49L803.394,1405.49L1204.7,1024Z" style="fill:rgb(192,144,216);"/>
        </g>
    </g>
</svg>
