<?xml version="1.0" encoding="UTF-8" standalone="no"?><!DOCTYPE svg PUBLIC "-//W3C//DTD SVG 1.1//EN" "http://www.w3.org/Graphics/SVG/1.1/DTD/svg11.dtd"><svg width="100%" height="100%" viewBox="0 0 804 804" version="1.1" xmlns="http://www.w3.org/2000/svg" xmlns:xlink="http://www.w3.org/1999/xlink" xml:space="preserve" xmlns:serif="http://www.serif.com/" style="fill-rule:evenodd;clip-rule:evenodd;stroke-linecap:round;stroke-linejoin:round;stroke-miterlimit:1.5;"><rect id="ocenaudio" x="3.086" y="1.117" width="800" height="800" style="fill:none;"/><circle cx="403.086" cy="401.117" r="364.619" style="fill:#337575;"/><path d="M403.086,36.499c201.239,-0 364.619,163.38 364.619,364.618c-0,201.239 -163.38,364.619 -364.619,364.619c-201.238,0 -364.619,-163.38 -364.619,-364.619c0,-201.238 163.381,-364.618 364.619,-364.618Zm0,30.488c184.412,-0 334.131,149.719 334.131,334.13c0,184.412 -149.719,334.131 -334.131,334.131c-184.412,0 -334.131,-149.719 -334.131,-334.131c0,-184.411 149.719,-334.13 334.131,-334.13Z" style="fill:#366060;"/><g><clipPath id="_clip1"><path d="M626.43,136.609l-522.295,78.13l44.87,299.951l522.295,-78.131l-44.87,-299.95Z"/></clipPath><g clip-path="url(#_clip1)"><path d="M365.283,175.674c4.88,32.622 21.059,73.555 43.907,74.485c-0,-0 38.524,-72.041 43.316,-70.935c-4.617,32.235 -0.767,76.41 20.877,85.744c0,0 57.471,-52.917 61.751,-50.11c-13.613,28.356 -22.509,70.985 -4.414,87.712c-0,-0 70.189,-28.059 73.493,-23.855c-21.134,21.403 -41.812,57.867 -29.228,80.174c0,0 75.302,-0.16 77.272,4.985c-26.364,12.132 -56.584,38.48 -50.873,63.95c-0,-0 72.253,27.755 72.677,33.285c-28.739,1.544 -65.226,14.92 -67.007,40.793c-0,0 61.376,52.664 60.206,57.978c-27.998,-9.209 -66.798,-10.254 -75.879,13.218c0,-0 43.848,71.865 41.211,76.388c-24.223,-18.965 -61.131,-34.318 -76.527,-15.791c-0,0 21.567,83.279 17.75,86.521c-17.824,-26.666 -48.841,-54.663 -68.884,-43.088c-0,-0 -3.051,85.667 -7.634,87.277c-9.494,-31.477 -31.258,-69.085 -53.776,-65.716c-0,-0 -27.337,78.773 -32.191,78.576c-0.134,-32.877 -10.287,-76.02 -32.84,-81.223c-0,0 -48.662,63.343 -53.26,61.36c9.241,-30.715 11.799,-74.717 -8.346,-87.928c0,0 -64.712,41.048 -68.557,37.494c17.614,-25.223 32.606,-65.317 17.054,-85.104c-0,0 -73.751,14.305 -76.425,9.566c24.078,-16.999 49.879,-48.84 40.604,-73.058c0,-0 -74.797,-13.989 -76.011,-19.4c27.933,-6.933 61.747,-27.069 59.755,-53.096c0,0 -67.738,-40.765 -67.36,-46.262c28.761,3.885 66.924,-2.366 72.431,-27.379c-0,-0 -53.339,-63.125 -51.41,-68.112c26.472,14.282 64.849,22.594 77.257,1.304c-0,0 -33.16,-78.644 -29.888,-82.58c21.314,23.13 55.746,45.105 73.711,29.846c-0,-0 -9.387,-85.641 -5.128,-88.1c13.847,29.473 40.603,62.729 62.178,55.154c-0,-0 15.404,-83.358 20.188,-84.073Z" style="fill:#3b3b3b;"/></g><g><g><path d="M504.911,127.17l-287.339,42.984l52.122,348.436l287.34,-42.983l-52.123,-348.437Z" style="fill:none;stroke:#3b3b3b;stroke-width:43.28px;"/><path d="M504.911,127.17l-287.339,42.984l52.122,348.436l287.34,-42.983l-52.123,-348.437Z" style="fill:none;stroke:#f1a600;stroke-width:16.72px;"/></g><g><g><path d="M267.144,417.19c54.946,-8.219 106.227,29.716 114.447,84.662c8.219,54.945 -29.717,106.226 -84.662,114.446c-54.945,8.219 -106.227,-29.717 -114.446,-84.662c-8.219,-54.945 29.716,-106.227 84.661,-114.446Z" style="fill:#3b3b3b;"/><path d="M287.481,427.54c47.716,-7.137 92.25,25.807 99.388,73.522c7.137,47.716 -25.807,92.249 -73.522,99.387c-47.716,7.138 -92.25,-25.806 -99.387,-73.521c-7.138,-47.716 25.806,-92.25 73.521,-99.388Z" style="fill:#f1a600;"/><g><path d="M197.782,521.456c4.264,-0.638 8.242,2.305 8.88,6.569c0.638,4.263 -2.305,8.242 -6.569,8.879c-4.263,0.638 -8.242,-2.305 -8.879,-6.568c-0.638,-4.264 2.305,-8.242 6.568,-8.88Z" style="fill:#f1a600;"/><path d="M198.585,491.479c4.263,-0.638 8.242,2.305 8.88,6.568c0.638,4.264 -2.306,8.243 -6.569,8.88c-4.263,0.638 -8.242,-2.305 -8.88,-6.569c-0.637,-4.263 2.306,-8.242 6.569,-8.879Z" style="fill:#f1a600;"/><path d="M207.554,463.809c4.263,-0.638 8.242,2.305 8.88,6.569c0.637,4.263 -2.306,8.242 -6.569,8.879c-4.263,0.638 -8.242,-2.305 -8.88,-6.569c-0.638,-4.263 2.306,-8.242 6.569,-8.879Z" style="fill:#f1a600;"/><path d="M206.425,547.78c4.263,-0.638 8.242,2.305 8.88,6.568c0.637,4.264 -2.306,8.242 -6.569,8.88c-4.263,0.638 -8.242,-2.306 -8.88,-6.569c-0.638,-4.263 2.306,-8.242 6.569,-8.879Z" style="fill:#f1a600;"/><path d="M222.394,573.105c4.263,-0.638 8.242,2.306 8.88,6.569c0.638,4.263 -2.306,8.242 -6.569,8.879c-4.263,0.638 -8.242,-2.305 -8.88,-6.568c-0.637,-4.263 2.306,-8.242 6.569,-8.88Z" style="fill:#f1a600;"/></g></g><g><path d="M529.799,377.899c-54.945,8.22 -92.881,59.501 -84.661,114.447c8.219,54.945 59.5,92.88 114.446,84.661c54.945,-8.219 92.881,-59.501 84.661,-114.446c-8.219,-54.945 -59.501,-92.881 -114.446,-84.662Z" style="fill:#3b3b3b;"/><path d="M513.381,393.748c-47.715,7.138 -80.659,51.672 -73.521,99.387c7.137,47.716 51.671,80.66 99.387,73.522c47.715,-7.138 80.659,-51.672 73.521,-99.387c-7.137,-47.716 -51.671,-80.66 -99.387,-73.522Z" style="fill:#f1a600;"/><g><path d="M626.636,457.303c-4.263,0.638 -7.206,4.617 -6.569,8.88c0.638,4.263 4.617,7.207 8.88,6.569c4.263,-0.638 7.207,-4.617 6.569,-8.88c-0.638,-4.263 -4.617,-7.206 -8.88,-6.569Z" style="fill:#f1a600;"/><path d="M617.096,428.873c-4.263,0.638 -7.206,4.617 -6.568,8.88c0.637,4.263 4.616,7.207 8.879,6.569c4.264,-0.638 7.207,-4.617 6.569,-8.88c-0.638,-4.263 -4.616,-7.206 -8.88,-6.569Z" style="fill:#f1a600;"/><path d="M600.423,405.039c-4.263,0.638 -7.206,4.617 -6.569,8.88c0.638,4.263 4.617,7.207 8.88,6.569c4.263,-0.638 7.207,-4.617 6.569,-8.88c-0.638,-4.263 -4.617,-7.207 -8.88,-6.569Z" style="fill:#f1a600;"/><path d="M626.075,485.004c-4.263,0.638 -7.206,4.617 -6.569,8.88c0.638,4.263 4.617,7.206 8.88,6.569c4.263,-0.638 7.207,-4.617 6.569,-8.88c-0.638,-4.263 -4.617,-7.207 -8.88,-6.569Z" style="fill:#f1a600;"/><path d="M618.216,513.894c-4.263,0.638 -7.206,4.616 -6.569,8.88c0.638,4.263 4.617,7.206 8.88,6.568c4.263,-0.637 7.207,-4.616 6.569,-8.879c-0.638,-4.264 -4.617,-7.207 -8.88,-6.569Z" style="fill:#f1a600;"/></g></g></g></g><g><g><path d="M381.559,284.486c89.742,-13.425 170.686,29.724 188.24,147.068c17.554,117.344 -47.014,264.91 -124.87,276.557c-77.857,11.646 -182.779,-110.566 -200.332,-227.91c-17.554,-117.344 47.22,-182.291 136.962,-195.715Z" style="fill:#3b3b3b;"/><path d="M384.263,302.558c78.555,-11.751 152.092,43.954 168.153,151.324c16.062,107.37 -48.343,228.542 -109.951,237.758c-61.607,9.215 -158.651,-87.805 -174.713,-195.175c-16.061,-107.37 37.955,-182.156 116.511,-193.907Z" style="fill:#f1a600;"/></g><g><path d="M321.851,561.361c-3.405,-5.933 -3.659,-13.165 -0.68,-19.322c2.98,-6.158 8.808,-10.446 15.574,-11.458c41.972,-6.278 117.799,-17.621 159.741,-23.895c6.758,-1.011 13.58,1.378 18.231,6.385c4.651,5.006 6.532,11.986 5.026,18.651c-4.887,21.634 -11.644,51.549 -17.401,77.035c-6.96,30.811 -32.124,54.187 -63.364,58.86c-0.002,0.001 -0.004,0.001 -0.005,0.001c-31.185,4.665 -62.04,-10.266 -77.734,-37.614c-13.021,-22.693 -28.323,-49.36 -39.388,-68.643Z" style="fill:#3b3b3b;"/><path d="M431.057,615.369c17.552,-2.626 32.83,2.111 34.096,10.572c1.265,8.46 -11.957,17.46 -29.51,20.086c-17.552,2.626 -32.83,-2.111 -34.096,-10.572c-1.265,-8.46 11.957,-17.46 29.51,-20.086Z" style="fill:#f1a600;"/><path d="M354.531,576.311c-0.26,1.076 -1.187,1.859 -2.291,1.936c-1.104,0.077 -2.131,-0.57 -2.538,-1.599c-3.133,-7.917 -8.056,-20.358 -11.169,-28.226c-0.702,-1.772 -0.556,-3.768 0.396,-5.42c0.952,-1.651 2.605,-2.779 4.491,-3.061c27.742,-4.15 121.622,-18.193 149.365,-22.343c1.886,-0.282 3.797,0.312 5.19,1.613c1.393,1.301 2.117,3.166 1.965,5.067c-0.675,8.434 -1.742,21.771 -2.422,30.258c-0.088,1.103 -0.881,2.022 -1.959,2.271c-1.078,0.249 -2.193,-0.228 -2.757,-1.181c-1.543,-2.609 -3.239,-5.475 -4.535,-7.667c-1.295,-2.189 -3.788,-3.375 -6.304,-2.999c-19.396,2.901 -100.793,15.078 -120.188,17.979c-2.515,0.376 -4.552,2.24 -5.15,4.712c-0.599,2.475 -1.381,5.713 -2.094,8.66Z" style="fill:#fff;"/></g><g><path d="M515.687,490.418c-6.854,-3.091 -15.224,-6.886 -24.572,-10.643c-11.795,-4.741 -24.982,-9.491 -38.308,-12.838c-9.1,-2.285 -18.242,-3.877 -26.967,-4.463c-6.507,-0.437 -12.784,-0.217 -18.651,0.59c-5.801,0.963 -11.758,2.582 -17.698,4.892c-8.058,3.135 -16.12,7.387 -23.949,12.231c-7.558,4.675 -14.87,9.886 -21.743,15.202c-11.756,9.091 -22.114,18.389 -30.203,25.456c8.808,-6.066 20.196,-13.952 32.782,-21.734c7.239,-4.475 14.846,-8.869 22.599,-12.824c7.793,-3.976 15.716,-7.418 23.514,-10.008c5.458,-1.814 10.835,-3.236 16.093,-3.947c5.288,-0.865 10.956,-1.085 16.854,-0.949c8.325,0.191 17.079,1.184 25.892,2.646c13.332,2.212 26.71,5.429 38.755,8.785c9.679,2.698 18.446,5.363 25.602,7.604Z" style="fill:#3b3b3b;"/><path d="M278.439,456.959c13.918,-4.166 26.785,-4.344 39.094,-2.587c7.347,1.049 14.446,2.826 21.453,4.818c10.929,3.107 21.539,6.84 32.151,9.627c7.56,1.986 15.119,3.468 22.74,3.956c5.218,0.335 10.465,0.145 15.76,-0.603c6.594,-1.051 12.86,-2.919 18.87,-5.489c5.832,-2.493 11.433,-5.597 16.943,-9.017c7.806,-4.844 15.423,-10.309 23.295,-15.588c7.56,-5.069 15.31,-9.969 23.741,-13.909c11.265,-5.265 23.623,-8.858 38.152,-8.936c-14.763,-1.342 -27.683,1.084 -39.615,5.397c-8.996,3.252 -17.384,7.572 -25.529,12.176c-8.186,4.628 -16.09,9.526 -24.103,13.87c-5.346,2.898 -10.737,5.516 -16.282,7.665c-5.417,2.098 -10.98,3.749 -16.858,4.571c-4.67,0.737 -9.304,0.91 -13.926,0.751c-7.114,-0.245 -14.195,-1.334 -21.334,-2.791c-10.714,-2.188 -21.517,-5.172 -32.617,-7.404c-7.363,-1.481 -14.83,-2.605 -22.471,-2.975c-12.676,-0.613 -25.741,0.85 -39.464,6.468Z" style="fill:#3b3b3b;"/><path d="M537.216,463.214c-15.872,-5.854 -59.28,-10.102 -128.876,0.309c-69.595,10.411 -109.856,27.175 -123.32,37.417c13.811,-7.919 64.175,-22.884 124.152,-31.856c59.977,-8.972 112.519,-9.401 128.044,-5.87Z" style="fill:#3b3b3b;"/></g></g></g></svg>