<?xml version="1.0" encoding="UTF-8" standalone="no"?>
<svg
   xmlns:dc="http://purl.org/dc/elements/1.1/"
   xmlns:cc="http://creativecommons.org/ns#"
   xmlns:rdf="http://www.w3.org/1999/02/22-rdf-syntax-ns#"
   xmlns:svg="http://www.w3.org/2000/svg"
   xmlns="http://www.w3.org/2000/svg"
   xmlns:xlink="http://www.w3.org/1999/xlink"
   xmlns:sodipodi="http://sodipodi.sourceforge.net/DTD/sodipodi-0.dtd"
   xmlns:inkscape="http://www.inkscape.org/namespaces/inkscape"
   version="1.1"
   preserveAspectRatio="xMidYMid meet"
   viewBox="0 0 640 640"
   width="64"
   height="64"
   id="svg71"
   sodipodi:docname="openscad2.svg"
   inkscape:version="0.92.5 (2060ec1f9f, 2020-04-08)">
  <metadata
     id="metadata75">
    <rdf:RDF>
      <cc:Work
         rdf:about="">
        <dc:format>image/svg+xml</dc:format>
        <dc:type
           rdf:resource="http://purl.org/dc/dcmitype/StillImage" />
      </cc:Work>
    </rdf:RDF>
  </metadata>
  <sodipodi:namedview
     pagecolor="#ffffff"
     bordercolor="#666666"
     borderopacity="1"
     objecttolerance="10"
     gridtolerance="10"
     guidetolerance="10"
     inkscape:pageopacity="0"
     inkscape:pageshadow="2"
     inkscape:window-width="1850"
     inkscape:window-height="1048"
     id="namedview73"
     showgrid="false"
     inkscape:zoom="3.6875"
     inkscape:cx="17.736182"
     inkscape:cy="28.662018"
     inkscape:window-x="70"
     inkscape:window-y="32"
     inkscape:window-maximized="1"
     inkscape:current-layer="svg71" />
  <defs
     id="defs13">
    <path
       d="M470.42 19.16C553.18 19.16 620.27 86.25 620.27 169.01C620.27 259.15 620.27 379.71 620.27 469.85C620.27 552.61 553.18 619.7 470.42 619.7C380.51 619.7 260.63 619.7 170.72 619.7C87.96 619.7 20.87 552.61 20.87 469.85C20.87 379.71 20.87 259.15 20.87 169.01C20.87 86.25 87.96 19.16 170.72 19.16C260.63 19.16 380.51 19.16 470.42 19.16Z"
       id="b7XTMbNW" />
    <path
       d="M460.96 34.62C538.29 34.62 600.98 97.31 600.98 174.65C600.98 260.08 600.98 376.36 600.98 461.79C600.98 539.13 538.29 601.82 460.96 601.82C376.94 601.82 264.92 601.82 180.9 601.82C103.56 601.82 40.87 539.13 40.87 461.79C40.87 376.36 40.87 260.08 40.87 174.65C40.87 97.31 103.56 34.62 180.9 34.62C264.92 34.62 376.94 34.62 460.96 34.62Z"
       id="dcRQfeoWf" />
    <path
       d="M521.17 321.71C521.17 435.57 428.48 528.01 314.3 528.01C200.13 528.01 107.44 435.57 107.44 321.71C107.44 207.85 200.13 115.41 314.3 115.41C428.48 115.41 521.17 207.85 521.17 321.71Z"
       id="bnNhcuegC" />
    <path
       d="M275.86 345.74C295.85 403.52 278.54 462.04 237.22 476.34C195.9 490.63 146.13 455.32 126.14 397.54C106.15 339.76 123.46 281.25 164.78 266.95C206.09 252.66 255.87 287.96 275.86 345.74Z"
       id="b5XuBA89t" />
    <path
       d="M404.55 170.96C408.38 205.08 366.89 237.79 311.95 243.96C257.01 250.13 209.29 227.44 205.46 193.32C201.63 159.2 243.12 126.49 298.06 120.31C353 114.14 400.71 136.83 404.55 170.96Z"
       id="a1kwYLzNvc" />
    <path
       d="M506.58 387.2C526.57 329.42 509.26 270.9 467.94 256.61C426.62 242.31 376.85 277.62 356.86 335.4C336.87 393.18 354.18 451.7 395.5 465.99C436.82 480.29 486.59 444.98 506.58 387.2Z"
       id="b1f1UQ9k2X" />
    <path
       d="M360.13 441.49C360.13 437.48 359.3 433.52 357.7 429.85C356.99 428.21 358.44 431.54 358.01 430.57C355.49 424.77 354.87 418.32 356.26 412.14C358.33 402.93 363.51 379.91 371.79 343.06C401.62 302.01 420.26 276.35 427.72 266.09C434.44 256.84 444.28 250.33 455.41 247.76C475.19 243.2 515.46 233.91 534.78 229.45C545.56 226.96 556.32 233.68 558.8 244.46C565.55 273.68 581.27 341.82 588.01 371.04C590.5 381.82 583.78 392.58 573 395.06C553.67 399.52 511.82 409.18 491.65 413.84C491.65 413.84 460.99 420.55 460.99 420.55C440.82 424.74 388.13 435.68 366.07 440.25C363.01 440.89 360.13 438.55 360.13 435.42C360.13 435.42 360.13 441.49 360.13 441.49Z"
       id="bOT31P59" />
    <path
       d="M244.2 292.14L254.75 308.39C256.61 312.47 258.94 316.34 261.75 320C265.96 325.49 263.84 326.9 267.68 332.86C271.52 338.81 267.39 337.73 270.16 343.59C272.93 349.44 272.05 346.88 274.27 353.77C275.75 358.36 277.33 363.65 279 369.64C279 369.64 279 369.64 279 369.64C281.3 377.93 282.86 386.42 283.64 395C283.68 395.34 283.76 396.21 283.88 397.6L284.17 409.06C283.63 409.96 283.29 410.53 283.15 410.75C280.4 415.34 278.38 420.33 277.18 425.54C276.82 427.07 275.94 430.88 274.53 436.98L263.18 458.51C181.38 479.87 130.25 493.23 109.8 498.57C99.18 501.35 88.36 494.84 85.82 484.17C78.9 455.04 62.76 387.1 55.84 357.97C53.28 347.21 59.91 336.42 70.66 333.84C93.8 328.28 151.65 314.38 244.2 292.14Z"
       id="b4mN1mjNXV" />
    <path
       d="M446.56 359.05C434.24 379.89 418.41 400.53 402.99 414.69C393.51 423.38 387.19 403.68 378.92 406.89C373.17 409.12 364.93 438.38 360.51 435.76C358.53 434.59 356.89 429.97 355.52 426.48C351.19 415.44 349.64 395.75 348.89 386.15C347.36 366.4 350.54 339.65 365.88 313.71C373.35 301.09 381.96 285.81 397.72 273.88C410.45 264.24 418.8 259.93 433.57 253.94C448.33 247.96 478.17 243.41 481.67 245.48C502.83 257.99 471.7 316.53 446.56 359.05Z"
       id="i1PmmnGuK2" />
    <path
       d="M274.86 341.95C279.54 352.14 281.66 363.98 283.72 376.82C289.51 412.97 281.06 445.51 264.42 456.95C261.37 459.05 258.04 460.44 254.47 461.01C231.47 464.7 207.23 432.96 200.38 390.18C193.52 347.39 206.62 309.67 229.62 305.98C236.79 304.83 271.25 334.11 274.86 341.95Z"
       id="bIi5MtZWp" />
    <path
       d="M281.2 402.11C283.12 391.07 282.13 379.08 280.83 366.14C277.17 329.71 262.66 298.93 243.64 292.14C240.16 290.89 233.08 299.39 229.49 299.75C206.31 302.08 192.52 331.47 196.85 374.58C201.18 417.7 223.52 450.81 246.69 448.48C253.92 447.75 279.72 410.62 281.2 402.11Z"
       id="eurviSuux" />
  </defs>
  <g
     id="g69">
    <g
       id="g67"
       style="stroke:none">
      <g
         id="g29"
         style="stroke:none;fill:#e0e0e0;fill-opacity:1"
         transform="matrix(1.0787422,0,0,1.0507117,-24.311548,-17.09626)">
        <use
           xlink:href="#dcRQfeoWf"
           id="use23"
           style="opacity:1;fill:#e0e0e0;fill-opacity:1;stroke:none"
           x="0"
           y="0"
           width="100%"
           height="100%" />
        <g
           id="g27"
           style="stroke:none;fill:#e0e0e0;fill-opacity:1">
          <use
             xlink:href="#dcRQfeoWf"
             id="use25"
             style="opacity:1;fill-opacity:1;stroke:none;stroke-width:0;stroke-opacity:1;fill:#e0e0e0"
             x="0"
             y="0"
             width="100%"
             height="100%" />
        </g>
      </g>
      <g
         id="g33"
         style="stroke:none;fill:#86af7f;fill-opacity:1">
        <use
           xlink:href="#bnNhcuegC"
           id="use31"
           style="stroke:none;fill:#86af7f;fill-opacity:1"
           fill-opacity="1"
           fill="#b6da6d"
           opacity="1" />
      </g>
      <g
         id="g37"
         style="stroke:none;fill:#688862;fill-opacity:1">
        <use
           xlink:href="#b5XuBA89t"
           opacity="1"
           fill="#dadada"
           fill-opacity="1"
           id="use35"
           style="stroke:none;fill:#688862;fill-opacity:1" />
      </g>
      <g
         id="g41"
         style="stroke:none;fill:#688862;fill-opacity:1">
        <use
           xlink:href="#a1kwYLzNvc"
           opacity="1"
           fill="#e0dcdc"
           fill-opacity="1"
           id="use39"
           style="stroke:none;fill:#688862;fill-opacity:1" />
      </g>
      <g
         id="g45"
         style="stroke:none;fill:#688862;fill-opacity:1">
        <use
           xlink:href="#b1f1UQ9k2X"
           opacity="1"
           fill="#dadada"
           fill-opacity="1"
           id="use43"
           style="stroke:none;fill:#688862;fill-opacity:1" />
      </g>
      <g
         id="g49"
         style="stroke:none;fill:#4b4b4b;fill-opacity:1">
        <use
           xlink:href="#bOT31P59"
           opacity="1"
           fill="#7e7e7e"
           fill-opacity="1"
           id="use47"
           style="stroke:none;fill:#4b4b4b;fill-opacity:1" />
      </g>
      <g
         id="g53"
         style="stroke:none;fill:#4b4b4b;fill-opacity:1">
        <use
           xlink:href="#b4mN1mjNXV"
           opacity="1"
           fill="#7e7e7e"
           fill-opacity="1"
           id="use51"
           style="stroke:none;fill:#4b4b4b;fill-opacity:1" />
      </g>
      <g
         id="g57"
         style="stroke:none;fill:#4b4b4b;fill-opacity:1">
        <use
           xlink:href="#i1PmmnGuK2"
           opacity="1"
           fill="#7e7e7e"
           fill-opacity="1"
           id="use55"
           style="stroke:none;fill:#4b4b4b;fill-opacity:1" />
      </g>
      <g
         id="g61"
         style="stroke:none;fill:#4b4b4b;fill-opacity:1">
        <use
           xlink:href="#bIi5MtZWp"
           opacity="1"
           fill="#7e7e7e"
           fill-opacity="1"
           id="use59"
           style="stroke:none;fill:#4b4b4b;fill-opacity:1" />
      </g>
      <g
         id="g65"
         style="stroke:none;fill:#4b4b4b;fill-opacity:1">
        <use
           xlink:href="#eurviSuux"
           opacity="1"
           fill="#7e7e7e"
           fill-opacity="1"
           id="use63"
           style="stroke:none;fill:#4b4b4b;fill-opacity:1" />
      </g>
    </g>
  </g>
</svg>
