<?xml version="1.0" encoding="UTF-8" standalone="no"?>
<!DOCTYPE svg PUBLIC "-//W3C//DTD SVG 1.1//EN" "http://www.w3.org/Graphics/SVG/1.1/DTD/svg11.dtd">
<svg version="1.1" xmlns="http://www.w3.org/2000/svg" xmlns:xlink="http://www.w3.org/1999/xlink" preserveAspectRatio="xMidYMid meet" viewBox="0 0 640 640" width="64" height="64"><defs><path d="M39.57 46.88L604.93 46.88L604.93 596.5L39.57 596.5L39.57 46.88Z" id="bhge1jOyQ"></path><path d="M511.18 234.58C521.86 234.58 530.51 243.23 530.51 253.91C530.51 308.94 530.51 454.7 530.51 509.72C530.51 520.4 521.86 529.06 511.18 529.06C469.41 529.06 363.45 529.06 321.68 529.06C311 529.06 302.35 520.4 302.35 509.72C302.35 454.7 302.35 308.94 302.35 253.91C302.35 243.23 311 234.58 321.68 234.58C363.45 234.58 469.41 234.58 511.18 234.58Z" id="bXCi7S7Oq"></path><path d="M380.69 306.57C380.69 317.71 369.88 326.74 356.53 326.74C343.18 326.74 332.36 317.71 332.36 306.57C332.36 295.44 343.18 286.41 356.53 269.42C369.88 286.41 380.69 295.44 380.69 306.57Z" id="e2ZuZkl6Fh"></path><path d="M501.85 306.57C501.85 317.71 491.03 326.74 477.69 326.74C464.34 326.74 453.52 317.71 453.52 306.57C453.52 295.44 464.34 286.41 477.69 269.42C491.03 286.41 501.85 295.44 501.85 306.57Z" id="c48cHhajOR"></path><path d="M365.65 420.88L388.56 424.44L371.98 441.72L375.9 466.12L355.4 454.59L334.91 466.12L338.83 441.72L322.25 424.44L345.16 420.88L355.4 398.68L365.65 420.88Z" id="e1X7pZo1FC"></path><path d="M486.81 420.88L509.72 424.44L493.14 441.72L497.05 466.12L476.56 454.59L456.07 466.12L459.98 441.72L443.4 424.44L466.32 420.88L476.56 398.68L486.81 420.88Z" id="g23Q7PKjRu"></path><path d="M319.77 122.18C330.45 122.18 339.11 130.84 339.11 141.52C339.11 196.54 339.11 342.3 339.11 397.33C339.11 408.01 330.45 416.66 319.77 416.66C278.01 416.66 172.04 416.66 130.28 416.66C119.6 416.66 110.94 408.01 110.94 397.33C110.94 342.3 110.94 196.54 110.94 141.52C110.94 130.84 119.6 122.18 130.28 122.18C172.04 122.18 278.01 122.18 319.77 122.18Z" id="cYKatgT41"></path><path d="M293.25 175.62L316.17 179.18L299.59 196.46L303.5 220.86L283.01 209.34L262.52 220.86L266.43 196.46L249.85 179.18L272.76 175.62L283.01 153.42L293.25 175.62Z" id="a3s20E4Exi"></path><path d="M294.38 317.47L317.29 321.03L300.71 338.31L304.62 362.71L284.13 351.19L263.64 362.71L267.55 338.31L250.98 321.03L273.89 317.47L284.13 295.27L294.38 317.47Z" id="g1qdkv2Yet"></path><path d="M189.16 195.63C189.16 206.77 178.34 215.8 164.99 215.8C151.65 215.8 140.83 206.77 140.83 195.63C140.83 184.49 151.65 175.46 164.99 158.48C178.34 175.46 189.16 184.49 189.16 195.63Z" id="b3Frr1W8b2"></path><path d="M192.53 342.54C192.53 353.68 181.71 362.71 168.36 362.71C155.02 362.71 144.2 353.68 144.2 342.54C144.2 331.4 155.02 322.37 168.36 305.39C181.71 322.37 192.53 331.4 192.53 342.54Z" id="eBmVsNTVg"></path></defs><g><g><g><use xlink:href="#bhge1jOyQ" opacity="1" fill="#e8e9c0" fill-opacity="1"></use></g><g><use xlink:href="#bXCi7S7Oq" opacity="1" fill="#ddb37f" fill-opacity="1"></use></g><g><use xlink:href="#e2ZuZkl6Fh" opacity="1" fill="#e4e4b9" fill-opacity="1"></use></g><g><use xlink:href="#c48cHhajOR" opacity="1" fill="#e4e4b9" fill-opacity="1"></use></g><g><use xlink:href="#e1X7pZo1FC" opacity="1" fill="#c38e4c" fill-opacity="1"></use></g><g><use xlink:href="#g23Q7PKjRu" opacity="1" fill="#c38e4c" fill-opacity="1"></use></g><g><use xlink:href="#cYKatgT41" opacity="1" fill="#ddb37f" fill-opacity="1"></use></g><g><use xlink:href="#a3s20E4Exi" opacity="1" fill="#e4e4b9" fill-opacity="1"></use></g><g><use xlink:href="#g1qdkv2Yet" opacity="1" fill="#e4e4b9" fill-opacity="1"></use></g><g><use xlink:href="#b3Frr1W8b2" opacity="1" fill="#c38e4c" fill-opacity="1"></use></g><g><use xlink:href="#eBmVsNTVg" opacity="1" fill="#c38e4c" fill-opacity="1"></use></g></g></g></svg>