<?xml version="1.0" encoding="UTF-8" standalone="no"?>
<!DOCTYPE svg PUBLIC "-//W3C//DTD SVG 1.1//EN" "http://www.w3.org/Graphics/SVG/1.1/DTD/svg11.dtd">
<svg version="1.1" xmlns="http://www.w3.org/2000/svg" xmlns:xlink="http://www.w3.org/1999/xlink" preserveAspectRatio="xMidYMid meet" viewBox="0 0 640 640" width="64" height="64"><defs><path d="M597.28 18.78C609.57 18.78 619.54 28.74 619.54 41.04C619.54 157.3 619.54 483.83 619.54 600.09C619.54 612.38 609.57 622.35 597.28 622.35C482.14 622.35 158.98 622.35 43.85 622.35C31.55 622.35 21.59 612.38 21.59 600.09C21.59 483.83 21.59 157.3 21.59 41.04C21.59 28.74 31.55 18.78 43.85 18.78C158.98 18.78 482.14 18.78 597.28 18.78Z" id="c2PzJSaxm5"></path><path d="M272.5 50.25C287.87 50.25 300.33 62.71 300.33 78.07C300.33 122.86 300.33 229.4 300.33 274.19C300.33 289.56 287.87 302.02 272.5 302.02C227.94 302.02 122.08 302.02 77.51 302.02C62.14 302.02 49.69 289.56 49.69 274.19C49.69 229.4 49.69 122.86 49.69 78.07C49.69 62.71 62.14 50.25 77.51 50.25C122.08 50.25 227.94 50.25 272.5 50.25Z" id="i3h5bmy3L"></path><path d="M564.5 50.25C579.87 50.25 592.33 62.71 592.33 78.07C592.33 122.86 592.33 229.4 592.33 274.19C592.33 289.56 579.87 302.02 564.5 302.02C519.94 302.02 414.08 302.02 369.51 302.02C354.14 302.02 341.69 289.56 341.69 274.19C341.69 229.4 341.69 122.86 341.69 78.07C341.69 62.71 354.14 50.25 369.51 50.25C414.08 50.25 519.94 50.25 564.5 50.25Z" id="b1kp1JcgE"></path><path d="M564.5 331.01C579.87 331.01 592.33 343.47 592.33 358.83C592.33 403.62 592.33 510.16 592.33 554.95C592.33 570.32 579.87 582.78 564.5 582.78C519.94 582.78 414.08 582.78 369.51 582.78C354.14 582.78 341.69 570.32 341.69 554.95C341.69 510.16 341.69 403.62 341.69 358.83C341.69 343.47 354.14 331.01 369.51 331.01C414.08 331.01 519.94 331.01 564.5 331.01Z" id="a18anL3gVp"></path><path d="M272.5 327.4C287.87 327.4 300.33 339.86 300.33 355.23C300.33 400.02 300.33 506.56 300.33 551.35C300.33 566.72 287.87 579.17 272.5 579.17C227.94 579.17 122.08 579.17 77.51 579.17C62.14 579.17 49.69 566.72 49.69 551.35C49.69 506.56 49.69 400.02 49.69 355.23C49.69 339.86 62.14 327.4 77.51 327.4C122.08 327.4 227.94 327.4 272.5 327.4Z" id="fpeOYxBM1"></path><path d="M240.76 177.82C240.76 215.66 210.79 246.38 173.88 246.38C136.97 246.38 107.01 215.66 107.01 177.82C107.01 139.98 136.97 109.26 173.88 109.26C210.79 109.26 240.76 139.98 240.76 177.82Z" id="c4fka2xZub"></path><path d="M538.38 177.82C538.38 215.66 508.41 246.38 471.5 246.38C434.59 246.38 404.63 215.66 404.63 177.82C404.63 139.98 434.59 109.26 471.5 109.26C508.41 109.26 538.38 139.98 538.38 177.82Z" id="a51M46ZOf7"></path><path d="M538.38 456.89C538.38 494.73 508.41 525.45 471.5 525.45C434.59 525.45 404.63 494.73 404.63 456.89C404.63 419.05 434.59 388.33 471.5 388.33C508.41 388.33 538.38 419.05 538.38 456.89Z" id="aShQ02XuG"></path><path d="M222.21 178.38C222.21 207.23 200.31 230.64 173.32 230.64C146.34 230.64 124.43 207.23 124.43 178.38C124.43 149.53 146.34 126.12 173.32 126.12C200.31 126.12 222.21 149.53 222.21 178.38Z" id="a5L9hNFh4r"></path><path d="M520.4 178.38C520.4 207.23 498.49 230.64 471.5 230.64C444.52 230.64 422.61 207.23 422.61 178.38C422.61 149.53 444.52 126.12 471.5 126.12C498.49 126.12 520.4 149.53 520.4 178.38Z" id="a5mB33iqld"></path><path d="M520.4 456.89C520.4 485.74 498.49 509.16 471.5 509.16C444.52 509.16 422.61 485.74 422.61 456.89C422.61 428.05 444.52 404.63 471.5 404.63C498.49 404.63 520.4 428.05 520.4 456.89Z" id="a1aRIlPQab"></path><path d="M98.58 388.33L249.19 388.33L249.19 519.27L98.58 519.27L98.58 388.33Z" id="b8egSCGMu"></path><path d="M117.69 408L230.08 408L230.08 499.6L117.69 499.6L117.69 408Z" id="ag9ziY5Wo"></path></defs><g><g><g><use xlink:href="#c2PzJSaxm5" opacity="1" fill="#444a6f" fill-opacity="1"></use></g><g><use xlink:href="#i3h5bmy3L" opacity="1" fill="#7c86c5" fill-opacity="1"></use></g><g><use xlink:href="#b1kp1JcgE" opacity="1" fill="#7c86c5" fill-opacity="1"></use></g><g><use xlink:href="#a18anL3gVp" opacity="1" fill="#7c86c5" fill-opacity="1"></use></g><g><use xlink:href="#fpeOYxBM1" opacity="1" fill="#61965a" fill-opacity="1"></use></g><g><use xlink:href="#c4fka2xZub" opacity="1" fill="#464c72" fill-opacity="1"></use></g><g><use xlink:href="#a51M46ZOf7" opacity="1" fill="#464c72" fill-opacity="1"></use></g><g><use xlink:href="#aShQ02XuG" opacity="1" fill="#464c72" fill-opacity="1"></use></g><g><use xlink:href="#a5L9hNFh4r" opacity="1" fill="#7c86c5" fill-opacity="1"></use></g><g><use xlink:href="#a5mB33iqld" opacity="1" fill="#7c86c5" fill-opacity="1"></use></g><g><use xlink:href="#a1aRIlPQab" opacity="1" fill="#7c86c5" fill-opacity="1"></use></g><g><use xlink:href="#b8egSCGMu" opacity="1" fill="#365f26" fill-opacity="1"></use></g><g><use xlink:href="#ag9ziY5Wo" opacity="1" fill="#61965a" fill-opacity="1"></use></g></g></g></svg>