<?xml version="1.0" encoding="UTF-8" standalone="no"?>
<!DOCTYPE svg PUBLIC "-//W3C//DTD SVG 1.1//EN" "http://www.w3.org/Graphics/SVG/1.1/DTD/svg11.dtd">
<svg version="1.1" xmlns="http://www.w3.org/2000/svg" xmlns:xlink="http://www.w3.org/1999/xlink" preserveAspectRatio="xMidYMid meet" viewBox="0 0 640 640" width="64" height="64"><defs><path d="M616.17 321.69C616.17 488.87 481.19 624.6 314.94 624.6C148.69 624.6 13.72 488.87 13.72 321.69C13.72 154.51 148.69 18.78 314.94 18.78C481.19 18.78 616.17 154.51 616.17 321.69Z" id="c3hKuuWXW9"></path><path d="M200.32 361.08L81.79 400.99L81.65 321.57L81.52 242.15L200.18 281.65L318.84 321.16L200.32 361.08Z" id="a51MK6bPz"></path><path d="M199.91 282.22L81.52 242.76L127.84 180.34L174.17 117.91L246.24 219.8L318.31 321.69L199.91 282.22Z" id="i18bzMlWAB"></path><path d="M245.86 219.59L174.1 117.48L248.46 94.82L322.82 72.16L320.22 196.93L317.62 321.7L245.86 219.59Z" id="a1ywdzVxil"></path><path d="M318.41 196.81L321.45 72.04L394.71 98.04L467.97 124.04L391.67 222.81L315.37 321.57L318.41 196.81Z" id="b2qtlzonHW"></path><path d="M390.78 222.57L466.62 123.45L510.57 187.57L554.53 251.68L434.74 286.69L314.94 321.69L390.78 222.57Z" id="aOahddaTw"></path><path d="M434.95 286.35L554.53 250.62L552.48 328.33L550.43 406.03L432.9 364.06L315.37 322.08L434.95 286.35Z" id="a1i5bDQciP"></path><path d="M432.05 363.15L549.15 406.3L500.89 467.25L452.64 528.19L383.79 424.1L314.94 320L432.05 363.15Z" id="c2EM1Wuhc"></path><path d="M383.32 423.88L452.49 527.76L377.59 548.55L302.69 569.34L308.41 444.67L314.15 320L383.32 423.88Z" id="b5woRRvS1"></path><path d="M308.87 444.65L302.79 569.31L230.18 541.53L157.58 513.75L236.26 416.88L314.94 320L308.87 444.65Z" id="atljY5mmA"></path><path d="M237.8 417.57L157.58 513.57L119.13 457.15L80.67 400.74L199.34 361.15L318.02 321.57L237.8 417.57Z" id="baCX40e5m"></path><path d="M365.44 322.85C365.44 350.17 342.81 372.35 314.94 372.35C287.07 372.35 264.44 350.17 264.44 322.85C264.44 295.53 287.07 273.35 314.94 273.35C342.81 273.35 365.44 295.53 365.44 322.85Z" id="ak2lbZ4gc"></path><path d="M327.19 314.95L339.27 338.46L312.7 337.05L286.13 335.64L300.62 313.54L315.12 291.45L327.19 314.95Z" id="c2qaJNKUA7"></path></defs><g><g><g><use xlink:href="#c3hKuuWXW9" opacity="1" fill="#878686" fill-opacity="1"></use></g><g><use xlink:href="#a51MK6bPz" opacity="1" fill="#98e484" fill-opacity="1"></use></g><g><use xlink:href="#i18bzMlWAB" opacity="1" fill="#568d48" fill-opacity="1"></use></g><g><use xlink:href="#a1ywdzVxil" opacity="1" fill="#386081" fill-opacity="1"></use></g><g><use xlink:href="#b2qtlzonHW" opacity="1" fill="#8f4d34" fill-opacity="1"></use></g><g><use xlink:href="#aOahddaTw" opacity="1" fill="#7c4587" fill-opacity="1"></use></g><g><use xlink:href="#a1i5bDQciP" opacity="1" fill="#2e7261" fill-opacity="1"></use></g><g><use xlink:href="#c2EM1Wuhc" opacity="1" fill="#b0b954" fill-opacity="1"></use></g><g><use xlink:href="#b5woRRvS1" opacity="1" fill="#472a6c" fill-opacity="1"></use></g><g><use xlink:href="#atljY5mmA" opacity="1" fill="#c84f99" fill-opacity="1"></use></g><g><use xlink:href="#baCX40e5m" opacity="1" fill="#4fb4a5" fill-opacity="1"></use></g><g><use xlink:href="#ak2lbZ4gc" opacity="1" fill="#878686" fill-opacity="1"></use></g><g><use xlink:href="#c2qaJNKUA7" opacity="1" fill="#515050" fill-opacity="1"></use></g></g></g></svg>