<?xml version="1.0" encoding="UTF-8" standalone="no"?><!DOCTYPE svg PUBLIC "-//W3C//DTD SVG 1.1//EN" "http://www.w3.org/Graphics/SVG/1.1/DTD/svg11.dtd"><svg width="100%" height="100%" viewBox="0 0 267 267" version="1.1" xmlns="http://www.w3.org/2000/svg" xmlns:xlink="http://www.w3.org/1999/xlink" xml:space="preserve" xmlns:serif="http://www.serif.com/" style="fill-rule:evenodd;clip-rule:evenodd;stroke-linecap:round;stroke-linejoin:round;stroke-miterlimit:1.5;"><rect id="Artboard2" x="0.235" y="0" width="266.667" height="266.667" style="fill:none;"/><circle cx="133.568" cy="133.333" r="121.329" style="fill:#edd1c7;"/><g><path d="M199.423,54.167c0,-6.904 -5.596,-12.5 -12.5,-12.5c-25.142,-0 -81.569,-0 -106.711,-0c-6.903,-0 -12.5,5.596 -12.5,12.5c0,33.472 0,124.86 0,158.333c0,6.904 5.597,12.5 12.5,12.5c25.142,0 81.569,0 106.711,0c6.904,-0 12.5,-5.596 12.5,-12.5c0,-33.473 0,-124.861 0,-158.333Z" style="fill:#c59b7f;"/><g><g><path d="M153.357,123.972c0.085,-0.366 -0.002,-0.75 -0.235,-1.044c-0.233,-0.293 -0.588,-0.464 -0.963,-0.464c-0.001,-0 -0.002,-0 -0.004,-0c-0.358,-0 -0.669,0.247 -0.75,0.596c-0.668,2.868 -3.561,15.29 -4.572,19.635c-0.085,0.365 0.001,0.749 0.234,1.043c0.233,0.294 0.588,0.465 0.963,0.465c0.001,0 0.003,0 0.004,0c0.358,0 0.669,-0.247 0.751,-0.596c0.667,-2.868 3.56,-15.29 4.572,-19.635Z" style="fill:#464646;"/><path d="M147.848,123.972c0.085,-0.366 -0.002,-0.75 -0.235,-1.044c-0.233,-0.293 -0.587,-0.464 -0.963,-0.464c-0.001,-0 -0.002,-0 -0.004,-0c-0.358,-0 -0.669,0.247 -0.75,0.596c-0.668,2.868 -3.56,15.29 -4.572,19.635c-0.085,0.365 0.001,0.749 0.234,1.043c0.233,0.294 0.588,0.465 0.963,0.465c0.001,0 0.003,0 0.004,0c0.358,0 0.669,-0.247 0.751,-0.596c0.668,-2.868 3.56,-15.29 4.572,-19.635Z" style="fill:#464646;"/><path d="M142.339,123.972c0.085,-0.366 -0.002,-0.75 -0.235,-1.044c-0.233,-0.293 -0.587,-0.464 -0.962,-0.464c-0.002,-0 -0.003,-0 -0.005,-0c-0.358,-0 -0.669,0.247 -0.75,0.596c-0.668,2.868 -3.56,15.29 -4.572,19.635c-0.085,0.365 0.001,0.749 0.234,1.043c0.233,0.294 0.588,0.465 0.963,0.465c0.001,0 0.003,0 0.004,0c0.358,0 0.67,-0.247 0.751,-0.596c0.668,-2.868 3.56,-15.29 4.572,-19.635Z" style="fill:#464646;"/><path d="M136.83,123.972c0.085,-0.366 -0.001,-0.75 -0.235,-1.044c-0.233,-0.293 -0.587,-0.464 -0.962,-0.464c-0.002,-0 -0.003,-0 -0.004,-0c-0.359,-0 -0.67,0.247 -0.751,0.596c-0.668,2.868 -3.56,15.29 -4.572,19.635c-0.085,0.365 0.001,0.749 0.234,1.043c0.233,0.294 0.588,0.465 0.963,0.465c0.001,0 0.003,0 0.004,0c0.358,0 0.67,-0.247 0.751,-0.596c0.668,-2.868 3.56,-15.29 4.572,-19.635Z" style="fill:#464646;"/><path d="M131.321,123.972c0.085,-0.366 -0.001,-0.75 -0.235,-1.044c-0.233,-0.293 -0.587,-0.464 -0.962,-0.464c-0.002,-0 -0.003,-0 -0.004,-0c-0.359,-0 -0.67,0.247 -0.751,0.596c-0.668,2.868 -3.56,15.29 -4.572,19.635c-0.085,0.365 0.001,0.749 0.234,1.043c0.234,0.294 0.588,0.465 0.963,0.465c0.001,0 0.003,0 0.004,0c0.359,0 0.67,-0.247 0.751,-0.596c0.668,-2.868 3.56,-15.29 4.572,-19.635Z" style="fill:#464646;"/><path d="M125.812,123.972c0.085,-0.366 -0.001,-0.75 -0.234,-1.044c-0.234,-0.293 -0.588,-0.464 -0.963,-0.464c-0.002,-0 -0.003,-0 -0.004,-0c-0.359,-0 -0.67,0.247 -0.751,0.596c-0.668,2.868 -3.56,15.29 -4.572,19.635c-0.085,0.365 0.001,0.749 0.234,1.043c0.234,0.294 0.588,0.465 0.963,0.465c0.002,0 0.003,0 0.004,0c0.359,0 0.67,-0.247 0.751,-0.596c0.668,-2.868 3.56,-15.29 4.572,-19.635Z" style="fill:#464646;"/><path d="M120.303,123.972c0.085,-0.366 -0.001,-0.75 -0.234,-1.044c-0.234,-0.293 -0.588,-0.464 -0.963,-0.464c-0.001,-0 -0.003,-0 -0.004,-0c-0.359,-0 -0.67,0.247 -0.751,0.596c-0.668,2.868 -3.56,15.29 -4.572,19.635c-0.085,0.365 0.001,0.749 0.235,1.043c0.233,0.294 0.587,0.465 0.962,0.465c0.002,0 0.003,0 0.004,0c0.359,0 0.67,-0.247 0.751,-0.596c0.668,-2.868 3.56,-15.29 4.572,-19.635Z" style="fill:#464646;"/></g><path d="M133.568,133.333l-0,48.94" style="fill:none;stroke:#858585;stroke-width:3.13px;"/><rect x="83.726" y="59.264" width="99.684" height="74.07" style="fill:none;stroke:#e2e2e2;stroke-width:6.54px;"/><path d="M136.4,128.905c4.349,-16.873 14.532,-29.726 8.996,-52.083c-2.185,-8.825 -8.836,-28.947 -21.682,-21.881c-1.454,0.799 -2.801,1.848 -3.911,3.084c-5.582,6.216 -2.984,19.523 7.022,18.492c9.981,-1.028 16.576,-12.986 19.149,-21.637" style="fill:none;stroke:#858585;stroke-width:3.13px;"/><g><path d="M115.959,123.526c-0,-0.443 -0.176,-0.868 -0.489,-1.181c-0.314,-0.313 -0.739,-0.489 -1.182,-0.489c-0.001,-0 -0.002,-0 -0.003,-0c-0.443,-0 -0.868,0.176 -1.181,0.489c-0.314,0.313 -0.49,0.738 -0.49,1.181c0,4.239 0,15.375 0,19.614c0,0.443 0.176,0.868 0.49,1.182c0.313,0.313 0.738,0.489 1.181,0.489c0.001,0 0.002,0 0.003,0c0.443,0 0.868,-0.176 1.182,-0.489c0.313,-0.314 0.489,-0.739 0.489,-1.182c-0,-4.239 -0,-15.375 -0,-19.614Z" style="fill:#909090;"/><path d="M121.468,123.526c-0,-0.443 -0.176,-0.868 -0.49,-1.181c-0.313,-0.313 -0.738,-0.489 -1.181,-0.489c-0.001,-0 -0.002,-0 -0.003,-0c-0.443,-0 -0.868,0.176 -1.181,0.489c-0.314,0.313 -0.49,0.738 -0.49,1.181c0,4.239 0,15.375 0,19.614c0,0.443 0.176,0.868 0.49,1.182c0.313,0.313 0.738,0.489 1.181,0.489c0.001,0 0.002,0 0.003,0c0.443,0 0.868,-0.176 1.181,-0.489c0.314,-0.314 0.49,-0.739 0.49,-1.182c-0,-4.239 -0,-15.375 -0,-19.614Z" style="fill:#909090;"/><path d="M126.977,123.526c-0,-0.443 -0.176,-0.868 -0.49,-1.181c-0.313,-0.313 -0.738,-0.489 -1.181,-0.489c-0.001,-0 -0.002,-0 -0.003,-0c-0.443,-0 -0.868,0.176 -1.181,0.489c-0.314,0.313 -0.49,0.738 -0.49,1.181c0,4.239 0,15.375 0,19.614c0,0.443 0.176,0.868 0.49,1.182c0.313,0.313 0.738,0.489 1.181,0.489c0.001,0 0.002,0 0.003,0c0.443,0 0.868,-0.176 1.181,-0.489c0.314,-0.314 0.49,-0.739 0.49,-1.182c-0,-4.239 -0,-15.375 -0,-19.614Z" style="fill:#909090;"/><path d="M132.486,123.526c-0,-0.443 -0.176,-0.868 -0.49,-1.181c-0.313,-0.313 -0.738,-0.489 -1.181,-0.489c-0.001,-0 -0.002,-0 -0.003,-0c-0.443,-0 -0.868,0.176 -1.182,0.489c-0.313,0.313 -0.489,0.738 -0.489,1.181c0,4.239 0,15.375 0,19.614c0,0.443 0.176,0.868 0.489,1.182c0.314,0.313 0.739,0.489 1.182,0.489c0.001,0 0.002,0 0.003,0c0.443,0 0.868,-0.176 1.181,-0.489c0.314,-0.314 0.49,-0.739 0.49,-1.182c-0,-4.239 -0,-15.375 -0,-19.614Z" style="fill:#909090;"/><path d="M137.995,123.526c-0,-0.443 -0.176,-0.868 -0.49,-1.181c-0.313,-0.313 -0.738,-0.489 -1.181,-0.489c-0.001,-0 -0.002,-0 -0.003,-0c-0.443,-0 -0.868,0.176 -1.182,0.489c-0.313,0.313 -0.489,0.738 -0.489,1.181c0,4.239 0,15.375 0,19.614c-0,0.443 0.176,0.868 0.489,1.182c0.314,0.313 0.739,0.489 1.182,0.489c0.001,0 0.002,0 0.003,0c0.443,0 0.868,-0.176 1.181,-0.489c0.314,-0.314 0.49,-0.739 0.49,-1.182c-0,-4.239 -0,-15.375 -0,-19.614Z" style="fill:#909090;"/><path d="M143.504,123.526c-0,-0.443 -0.177,-0.868 -0.49,-1.181c-0.313,-0.313 -0.738,-0.489 -1.181,-0.489c-0.001,-0 -0.002,-0 -0.003,-0c-0.443,-0 -0.868,0.176 -1.182,0.489c-0.313,0.313 -0.489,0.738 -0.489,1.181c-0,4.239 -0,15.375 -0,19.614c-0,0.443 0.176,0.868 0.489,1.182c0.314,0.313 0.739,0.489 1.182,0.489c0.001,0 0.002,0 0.003,0c0.443,0 0.868,-0.176 1.181,-0.489c0.313,-0.314 0.49,-0.739 0.49,-1.182c-0,-4.239 -0,-15.375 -0,-19.614Z" style="fill:#909090;"/><path d="M149.012,123.526c0,-0.443 -0.176,-0.868 -0.489,-1.181c-0.313,-0.313 -0.738,-0.489 -1.181,-0.489c-0.001,-0 -0.002,-0 -0.003,-0c-0.443,-0 -0.868,0.176 -1.182,0.489c-0.313,0.313 -0.489,0.738 -0.489,1.181c-0,4.239 -0,15.375 -0,19.614c-0,0.443 0.176,0.868 0.489,1.182c0.314,0.313 0.739,0.489 1.182,0.489c0.001,0 0.002,0 0.003,0c0.443,0 0.868,-0.176 1.181,-0.489c0.313,-0.314 0.489,-0.739 0.489,-1.182c0,-4.239 0,-15.375 0,-19.614Z" style="fill:#909090;"/><path d="M154.521,123.526c0,-0.443 -0.176,-0.868 -0.489,-1.181c-0.313,-0.313 -0.738,-0.489 -1.182,-0.489c-0,-0 -0.001,-0 -0.002,-0c-0.444,-0 -0.869,0.176 -1.182,0.489c-0.313,0.313 -0.489,0.738 -0.489,1.181c-0,4.239 -0,15.375 -0,19.614c-0,0.443 0.176,0.868 0.489,1.182c0.313,0.313 0.738,0.489 1.182,0.489c0.001,0 0.002,0 0.002,0c0.444,0 0.869,-0.176 1.182,-0.489c0.313,-0.314 0.489,-0.739 0.489,-1.182c0,-4.239 0,-15.375 0,-19.614Z" style="fill:#909090;"/></g></g><path d="M169.367,156.046c-0,-0.829 -0.329,-1.624 -0.915,-2.21c-0.587,-0.586 -1.381,-0.915 -2.21,-0.915c-11.797,-0 -53.551,-0 -65.348,-0c-0.829,-0 -1.624,0.329 -2.21,0.915c-0.586,0.586 -0.915,1.381 -0.915,2.21c-0,9.725 -0,39.385 -0,49.111c-0,0.828 0.329,1.623 0.915,2.209c0.586,0.586 1.381,0.916 2.21,0.916c11.797,-0 53.551,-0 65.348,-0c0.829,-0 1.623,-0.33 2.21,-0.916c0.586,-0.586 0.915,-1.381 0.915,-2.209c-0,-9.726 -0,-39.386 -0,-49.111Z" style="fill:#ffdf63;"/><clipPath id="_clip1"><path d="M169.367,156.046c-0,-0.829 -0.329,-1.624 -0.915,-2.21c-0.587,-0.586 -1.381,-0.915 -2.21,-0.915c-11.797,-0 -53.551,-0 -65.348,-0c-0.829,-0 -1.624,0.329 -2.21,0.915c-0.586,0.586 -0.915,1.381 -0.915,2.21c-0,9.725 -0,39.385 -0,49.111c-0,0.828 0.329,1.623 0.915,2.209c0.586,0.586 1.381,0.916 2.21,0.916c11.797,-0 53.551,-0 65.348,-0c0.829,-0 1.623,-0.33 2.21,-0.916c0.586,-0.586 0.915,-1.381 0.915,-2.209c-0,-9.726 -0,-39.386 -0,-49.111Z"/></clipPath><g clip-path="url(#_clip1)"><circle cx="168.65" cy="182.273" r="12.69" style="fill:#e6c853;"/><circle cx="100.806" cy="204.617" r="15.727" style="fill:#e6c853;"/><circle cx="123.714" cy="173.42" r="7.181" style="fill:#e6c853;"/><circle cx="140.749" cy="197.436" r="7.181" style="fill:#e6c853;"/><circle cx="147.93" cy="153.549" r="12.69" style="fill:#e6c853;"/><circle cx="96.416" cy="156.893" r="12.69" style="fill:#e6c853;"/></g></g></svg>