<?xml version="1.0" encoding="UTF-8" standalone="no"?>
<svg
   xmlns:dc="http://purl.org/dc/elements/1.1/"
   xmlns:cc="http://creativecommons.org/ns#"
   xmlns:rdf="http://www.w3.org/1999/02/22-rdf-syntax-ns#"
   xmlns:svg="http://www.w3.org/2000/svg"
   xmlns="http://www.w3.org/2000/svg"
   xmlns:sodipodi="http://sodipodi.sourceforge.net/DTD/sodipodi-0.dtd"
   xmlns:inkscape="http://www.inkscape.org/namespaces/inkscape"
   version="1.1"
   preserveAspectRatio="xMidYMid meet"
   viewBox="0 0 640 640"
   width="64"
   height="64"
   id="svg101"
   sodipodi:docname="org.kde.kphotoalbum.svg"
   inkscape:version="1.0.1 (3bc2e813f5, 2020-09-07)">
  <metadata
     id="metadata105">
    <rdf:RDF>
      <cc:Work
         rdf:about="">
        <dc:format>image/svg+xml</dc:format>
        <dc:type
           rdf:resource="http://purl.org/dc/dcmitype/StillImage" />
      </cc:Work>
    </rdf:RDF>
  </metadata>
  <sodipodi:namedview
     pagecolor="#ffffff"
     bordercolor="#666666"
     borderopacity="1"
     objecttolerance="10"
     gridtolerance="10"
     guidetolerance="10"
     inkscape:pageopacity="0"
     inkscape:pageshadow="2"
     inkscape:window-width="1849"
     inkscape:window-height="1048"
     id="namedview103"
     showgrid="false"
     inkscape:zoom="0.921875"
     inkscape:cx="-463.97491"
     inkscape:cy="-155.21561"
     inkscape:window-x="71"
     inkscape:window-y="32"
     inkscape:window-maximized="1"
     inkscape:current-layer="svg101"
     inkscape:document-rotation="0" />
  <defs
     id="defs15">
    <path
       d="M590.38 22.15C602.45 22.15 612.23 31.93 612.23 44C612.23 156.07 612.23 470.44 612.23 582.51C612.23 594.58 602.45 604.36 590.38 604.36C477.86 604.36 162.14 604.36 49.62 604.36C37.55 604.36 27.77 594.58 27.77 582.51C27.77 470.44 27.77 156.07 27.77 44C27.77 31.93 37.55 22.15 49.62 22.15C162.14 22.15 477.86 22.15 590.38 22.15Z"
       id="e2p0dmBIeC" />
    <path
       d="M293.47 369.25C290.99 369.25 278.55 369.25 256.16 369.25C256.16 368.93 256.16 368.76 256.16 368.73C256.16 362.2 253.91 355.94 250.09 351.77C246.26 347.34 241.09 344.73 235.47 344.73C228.73 344.73 174.78 344.73 168.03 344.73C162.19 344.73 157.02 347.34 153.19 351.77C149.37 356.21 147.12 362.2 147.12 368.73C147.12 368.76 147.12 368.93 147.12 369.25C124.87 369.25 112.5 369.25 110.03 369.25C102.61 369.25 96.09 372.64 91.37 378.38C86.65 383.86 83.5 391.68 83.5 400.03C83.5 413.02 83.5 516.95 83.5 529.94C83.5 538.55 86.43 546.11 91.37 551.59C96.09 557.07 102.84 560.72 110.03 560.72C128.38 560.72 275.13 560.72 293.47 560.72C300.89 560.72 307.41 557.33 312.13 551.59C316.85 546.11 320 538.28 320 529.94C320 516.95 320 413.02 320 400.03C320 391.42 317.08 383.86 312.13 378.38C307.41 372.64 300.89 369.25 293.47 369.25ZM308.09 529.94C308.09 534.63 306.51 538.81 303.81 541.94C301.12 545.07 297.52 546.89 293.47 546.89C275.13 546.89 128.38 546.89 110.03 546.89C105.98 546.89 102.39 545.07 99.69 541.94C96.99 538.81 95.42 534.63 95.42 529.94C95.42 516.95 95.42 413.02 95.42 400.03C95.42 395.33 96.99 391.16 99.69 388.03C102.39 384.9 105.98 383.07 110.03 383.07C114.37 383.07 149.08 383.07 153.42 383.07C156.79 383.07 159.49 379.94 159.49 376.03C159.49 375.27 159.49 369.22 159.49 368.47C159.49 365.6 160.39 362.99 161.96 361.16C163.54 359.34 165.78 358.29 168.26 358.29C174.98 358.29 228.75 358.29 235.47 358.29C237.95 358.29 240.19 359.34 241.77 361.16C243.34 362.99 244.24 365.6 244.24 368.47C244.24 369.22 244.24 375.27 244.24 376.03C244.24 379.94 246.94 383.07 250.31 383.07C254.65 383.07 289.36 383.07 293.7 383.07C297.74 383.07 301.34 384.9 304.04 388.03C306.74 391.16 308.31 395.33 308.31 400.03C308.31 408.69 308.31 451.99 308.31 529.94C308.18 529.94 308.1 529.94 308.09 529.94Z"
       id="j3LSpxZe7L" />
    <path
       d="M162.64 420.62C152.52 432.36 146.45 448.27 146.45 466.01C146.45 483.75 152.74 499.92 162.64 511.4C172.75 523.14 186.47 530.18 201.75 530.18C217.04 530.18 230.98 522.88 240.87 511.4C250.98 499.66 257.05 483.75 257.05 466.01C257.05 448.27 250.76 432.1 240.87 420.62C230.98 409.15 217.04 401.84 201.75 401.84C186.47 401.84 172.53 409.15 162.64 420.62ZM201.75 516.36C189.84 516.36 179.05 510.62 171.18 501.75C163.31 492.62 158.59 480.1 158.59 466.27C158.59 452.45 163.54 439.93 171.18 430.8C179.05 421.67 189.84 416.19 201.75 416.19C213.67 416.19 224.46 421.93 232.33 430.8C240.19 439.93 244.91 452.45 244.91 466.27C245.14 480.1 240.19 492.62 232.33 501.75C224.46 510.62 213.67 516.36 201.75 516.36Z"
       id="n3tprXAySR" />
    <path
       d="M273.58 393.71C267.5 393.71 262.57 399.44 262.57 406.49C262.57 413.55 267.5 419.28 273.58 419.28C279.67 419.28 284.6 413.55 284.6 406.49C284.6 399.44 279.67 393.71 273.58 393.71Z"
       id="aasOmsaXdl" />
    <path
       d="M222.91 105.01L376.3 60.92L441.82 288.85L288.42 332.93L222.91 105.01Z"
       id="baoptR3jd" />
    <path
       d="M347.54 86.85C359.31 83.47 371.59 90.27 374.97 102.04C382.58 128.53 399.28 186.68 406.89 213.17C410.27 224.94 403.47 237.22 391.7 240.6C370.21 246.77 327.05 259.16 305.56 265.34C293.79 268.72 281.51 261.92 278.13 250.14C270.52 223.66 253.82 165.51 246.21 139.02C242.83 127.25 249.64 114.97 261.41 111.59C282.9 105.42 326.05 93.02 347.54 86.85Z"
       id="e25JlMelQT" />
    <path
       d="M454.16 63.35L600.21 127.7L504.59 344.73L358.53 280.37L454.16 63.35Z"
       id="b9KA4CpGV" />
    <path
       d="M565.54 125.25C576.68 130.34 581.58 143.5 576.49 154.63C565.04 179.7 539.89 234.72 528.44 259.79C523.35 270.92 510.19 275.83 499.05 270.74C478.72 261.44 437.88 242.78 417.54 233.48C406.4 228.39 401.5 215.24 406.59 204.1C418.05 179.04 443.2 124.01 454.65 98.95C459.74 87.81 472.9 82.91 484.04 88C504.37 97.29 545.21 115.95 565.54 125.25Z"
       id="b1QhhC7nfD" />
    <path
       d="M288.13 139.6C288.13 145.24 283.19 149.82 277.11 149.82C271.03 149.82 266.1 145.24 266.1 139.6C266.1 133.97 271.03 129.39 277.11 129.39C283.19 129.39 288.13 133.97 288.13 139.6Z"
       id="a2Ka9jUzhZ" />
    <path
       d="M301.27 243.07L340.37 230.99L342.36 237.41L303.25 249.49L301.27 243.07Z"
       id="d6siliIKm" />
    <path
       d="M289.75 229.52L358.11 208.14L360.11 214.55L291.75 235.93L289.75 229.52Z"
       id="c1byX7OKKJ" />
    <path
       d="M476.09 166.97C476.89 169.48 483.29 189.6 484.09 192.12C484.25 192.62 484.6 193.04 485.07 193.27C485.16 193.32 485.26 193.36 485.37 193.4C485.98 193.59 486.65 193.47 487.16 193.07C493.97 187.93 496.84 179 494.28 170.93C494.24 170.78 494.01 170.04 493.59 168.71C501.08 172.5 505.24 174.6 506.07 175.02C507.05 175.52 508.25 175.11 508.76 174.1C508.86 173.91 508.93 173.7 508.96 173.48C510.28 165.03 506.12 156.78 498.65 153.01C498.49 152.93 497.73 152.54 496.34 151.84C504.43 149.06 508.92 147.51 509.82 147.2C510.87 146.84 511.45 145.69 511.12 144.63C511.05 144.42 510.95 144.23 510.83 144.06C505.88 137.25 497.13 134.51 489.11 137.25C488.85 137.34 486.79 138.04 486.54 138.13C485.7 138.42 484.88 138.76 484.08 139.17C483.94 138.29 483.73 137.42 483.47 136.58C483.39 136.32 482.74 134.24 482.66 133.99C480.12 125.9 472.73 120.48 464.32 120.53C463.21 120.53 462.31 121.44 462.29 122.56C462.29 122.78 462.32 123 462.38 123.2C462.67 124.11 464.08 128.65 466.64 136.82C465.24 136.11 464.46 135.72 464.31 135.64C456.84 131.85 447.73 133.39 441.71 139.45C440.91 140.25 440.89 141.53 441.66 142.32C441.81 142.47 441.99 142.6 442.18 142.7C443.01 143.12 447.17 145.22 454.65 149.01C453.33 149.46 452.59 149.71 452.45 149.76C444.43 152.49 438.94 160.09 438.82 168.62C438.81 169.27 439.11 169.88 439.63 170.25C439.72 170.32 439.81 170.38 439.9 170.42C440.37 170.66 440.92 170.7 441.42 170.53C443.75 169.74 462.38 163.45 464.71 162.66C453.99 179.11 439.2 192.45 421.86 201.29C419.8 199.45 417.63 197.72 415.38 196.12C415.31 196.07 414.96 195.85 414.33 195.44L412.14 198.88C412.73 199.26 413.06 199.46 413.12 199.51C414.77 200.66 416.34 201.92 417.89 203.23C417.3 203.5 416.71 203.79 416.12 204.05C416.27 204.42 417.51 207.39 417.66 207.76C439.7 198.06 458.26 181.56 470.65 160.65C470.86 160.58 471.89 160.23 473.75 159.61C474.19 161 474.44 161.78 474.49 161.94C460.91 184.14 441.9 202.45 419.35 215.05C419.54 215.41 421.02 218.25 421.2 218.61C423.63 217.27 426.03 215.83 428.41 214.33C434.66 222.59 439.01 232.18 441.17 242.41C441.56 242.32 444.69 241.59 445.08 241.5C443.8 235.45 441.79 229.6 439.1 224.08C444.05 226.59 468.85 239.13 513.48 261.71L515.32 258.08C467.53 233.9 440.99 220.47 435.68 217.78C434.48 215.83 433.18 213.95 431.8 212.11C449.43 200.28 464.51 184.9 476.09 166.97ZM477.88 159.32C483.42 160.28 487.94 164.23 489.67 169.64C489.75 169.9 490.41 171.97 490.49 172.23C492.2 177.66 490.86 183.65 486.97 187.89C485.16 182.17 478.79 162.17 477.88 159.32ZM490.5 162.58C487.93 159.18 484.3 156.76 480.19 155.68C484.65 153.27 489.95 153.17 494.41 155.43C494.65 155.55 496.56 156.52 496.8 156.64C501.82 159.17 505.04 164.3 505.2 170.02C502.26 168.53 491.97 163.33 490.5 162.58ZM490.31 141.09C495.7 139.24 501.59 140.5 505.7 144.36C504.1 144.91 491.3 149.32 489.69 149.87C485.63 149.43 481.51 150.3 477.91 152.36C479.33 147.5 483.01 143.61 487.75 141.97C487.75 141.97 490.06 141.17 490.31 141.09ZM479.66 137.87C480.03 139.1 480.25 140.37 480.31 141.66C478.54 143.17 477.04 144.98 475.9 147.01C475.02 144.78 473.75 142.74 472.15 140.99C471.64 139.37 467.61 126.45 467.1 124.83C472.64 125.85 477.14 129.86 478.85 135.28C478.85 135.28 479.58 137.62 479.66 137.87ZM464.86 140.48C469.32 142.73 472.39 147.06 473.09 152.09C469.79 149.42 465.69 147.94 461.43 147.87C459.96 147.13 448.2 141.18 446.73 140.44C451.43 137.18 457.46 136.73 462.47 139.27C462.47 139.27 464.62 140.36 464.86 140.48ZM443.13 165.7C444.24 160.07 448.27 155.43 453.66 153.6C453.91 153.51 455.97 152.81 456.23 152.72C460.1 151.4 464.3 151.7 467.9 153.53C469.23 154.21 470.46 155.07 471.54 156.1C465.86 158.02 448.81 163.78 443.13 165.7Z"
       id="a7E4MbBAM" />
    <path
       d="M272.37 215.63L386.26 180.01L388.27 186.41L274.37 222.04L272.37 215.63Z"
       id="b2dgMpQiCf" />
  </defs>
  <g
     id="g99">
    <g
       id="g97">
      <g
         id="g19"
         transform="matrix(1.8164805,0,0,2.3697089,-1025.8185,-473.87472)">
        <rect
           style="fill:#81b1ac;fill-opacity:1;fill-rule:evenodd;stroke:#b4ddd8;stroke-width:20;stroke-linecap:square;stroke-miterlimit:4;stroke-dasharray:none;stroke-opacity:1;paint-order:stroke markers fill"
           id="rect868"
           width="293.01974"
           height="228.47098"
           x="596.19635"
           y="221.17651" />
      </g>
      <g
         id="g87"
         transform="matrix(11.186117,-4.8662346,4.6353811,10.655449,-6319.9633,2266.7462)"
         style="fill:#c5f2ec;fill-opacity:1">
        <path
           d="m 551.71065,94.57362 26.46124,-19.717371 0.50693,19.083717 -4.51228,10.889054 z"
           fill="#384868"
           id="path12"
           style="stroke-width:0.676733" />
        <path
           d="m 537.07018,79.690104 15.49821,-10.17887 0.74476,2.553362 14.05865,-10.217782 -0.21755,39.779766 -33.0039,-14.890326 z"
           fill="#43567c"
           id="path14"
           style="stroke-width:0.676733" />
        <path
           d="m 578.00008,60.131367 a 3.60888,3.7886114 1.6934351e-6 1 0 1.86994,4.98481 3.6082196,3.7879179 1.6934351e-6 0 0 -1.86994,-4.98481 z"
           fill="#f6ba5b"
           id="path16"
           style="stroke-width:0.676733" />
      </g>
    </g>
  </g>
</svg>
