<?xml version="1.0" encoding="UTF-8" standalone="no"?>
<svg
   xmlns:dc="http://purl.org/dc/elements/1.1/"
   xmlns:cc="http://creativecommons.org/ns#"
   xmlns:rdf="http://www.w3.org/1999/02/22-rdf-syntax-ns#"
   xmlns:svg="http://www.w3.org/2000/svg"
   xmlns="http://www.w3.org/2000/svg"
   xmlns:sodipodi="http://sodipodi.sourceforge.net/DTD/sodipodi-0.dtd"
   xmlns:inkscape="http://www.inkscape.org/namespaces/inkscape"
   height="48"
   width="48"
   version="1.1"
   id="svg10"
   sodipodi:docname="org.gnome.World.Secrets.svg"
   inkscape:version="1.0.2 (e86c870879, 2021-01-15)">
  <metadata
     id="metadata16">
    <rdf:RDF>
      <cc:Work
         rdf:about="">
        <dc:format>image/svg+xml</dc:format>
        <dc:type
           rdf:resource="http://purl.org/dc/dcmitype/StillImage" />
        <dc:title></dc:title>
      </cc:Work>
    </rdf:RDF>
  </metadata>
  <defs
     id="defs14" />
  <sodipodi:namedview
     pagecolor="#ffffff"
     bordercolor="#666666"
     borderopacity="1"
     objecttolerance="10"
     gridtolerance="10"
     guidetolerance="10"
     inkscape:pageopacity="0"
     inkscape:pageshadow="2"
     inkscape:window-width="1920"
     inkscape:window-height="1028"
     id="namedview12"
     showgrid="false"
     inkscape:zoom="4.7291666"
     inkscape:cx="1.9107847"
     inkscape:cy="27.984293"
     inkscape:window-x="0"
     inkscape:window-y="24"
     inkscape:window-maximized="1"
     inkscape:current-layer="svg10"
     inkscape:document-rotation="0" />
  <path
     d="M 46.499999,24 A 22.696228,22.696232 0 0 1 23.803771,46.696231 22.696228,22.696232 0 0 1 1.1075423,24 22.696228,22.696232 0 0 1 23.803771,1.3037698 22.696228,22.696232 0 0 1 46.499999,24 Z"
     id="path2"
     style="opacity:0.99;fill:#85a7bf;fill-opacity:1;stroke-width:1.15035" />
  <path
     d="M 46.499999,24 A 22.696228,22.696232 0 0 1 23.803771,46.696231 22.696228,22.696232 0 0 1 1.1075423,24 22.696228,22.696232 0 0 1 23.803771,1.3037698 22.696228,22.696232 0 0 1 46.499999,24 Z"
     id="path4"
     style="opacity:0.99;fill:#8f7eb0;fill-opacity:1;stroke-width:1.15035" />
  <path
     d="M 43.769278,24 A 19.965508,19.965511 0 0 1 23.803772,43.96551 19.965508,19.965511 0 0 1 3.8382628,24 19.965508,19.965511 0 0 1 23.803772,4.0344904 19.965508,19.965511 0 0 1 43.769278,24 Z"
     id="path1131"
     style="opacity:0.99;fill:#f6edff;fill-opacity:0.298647;stroke-width:1.01194" />
  <path
     style="fill:#ffffff;fill-opacity:1;fill-rule:evenodd;stroke:none;stroke-width:4.54528;stroke-linecap:square;stroke-dasharray:none;stroke-opacity:1;paint-order:stroke markers fill"
     d="m 17.32782,30.558992 c 0,-6.365266 0.0057,-6.475967 0.332099,-6.475967 0.182658,0 0.332104,-0.07473 0.332104,-0.16605 0,-0.09133 0.149444,-0.16605 0.332101,-0.16605 0.182654,0 0.332099,-0.07473 0.332099,-0.16605 0,-0.09133 0.149448,-0.166051 0.332101,-0.166051 0.182654,0 0.332101,-0.07473 0.332101,-0.16605 0,-0.09133 0.149446,-0.16605 0.3321,-0.16605 0.182656,0 0.332104,-0.07472 0.332104,-0.166051 0,-0.09133 0.149443,-0.16605 0.3321,-0.16605 0.182654,0 0.3321,-0.07473 0.3321,-0.166051 0,-0.09133 0.149445,-0.166051 0.332101,-0.166051 0.182653,0 0.3321,-0.07472 0.3321,-0.166049 0,-0.09133 0.149446,-0.166052 0.332099,-0.166052 0.182658,0 0.332105,-0.07472 0.332105,-0.166051 0,-0.09133 0.149443,-0.166049 0.332101,-0.166049 0.182653,0 0.332099,-0.07473 0.332099,-0.166051 0,-0.09133 0.149446,-0.16605 0.332101,-0.16605 0.182653,0 0.3321,-0.06601 0.3321,-0.146684 0,-0.08068 0.149446,-0.185764 0.3321,-0.23353 0.306925,-0.08026 0.332104,-0.226495 0.332104,-1.928946 v -1.8421 h -3.32101 -3.321009 v -3.154957 -3.15496 h 6.475965 6.475969 l -0.0053,6.434455 -0.0053,6.434453 -3.227417,1.577479 c -2.756602,1.347355 -3.228191,1.631983 -3.232704,1.951093 -0.0037,0.264674 0.09155,0.373613 0.326822,0.373613 0.182653,0 0.3321,0.07472 0.3321,0.16605 0,0.09133 0.149446,0.166051 0.332101,0.166051 0.182653,0 0.3321,0.07473 0.3321,0.16605 0,0.09133 0.149445,0.16605 0.3321,0.16605 0.182657,0 0.332101,0.07473 0.332101,0.16605 0,0.09133 0.149445,0.166052 0.332103,0.166052 0.182654,0 0.332101,0.07472 0.332101,0.166049 0,0.09133 0.149444,0.166052 0.332099,0.166052 0.182654,0 0.3321,0.07473 0.3321,0.16605 0,0.09133 0.149446,0.166049 0.332101,0.166049 0.182657,0 0.332101,0.07473 0.332101,0.166052 0,0.09133 0.149445,0.166051 0.332103,0.166051 0.182654,0 0.332099,0.07472 0.332099,0.166049 0,0.09133 0.149446,0.166051 0.332101,0.166051 0.182655,0 0.332101,0.07472 0.332101,0.166051 0,0.09133 0.149445,0.166049 0.3321,0.166049 0.182658,0 0.332099,0.07473 0.332099,0.166051 0,0.09133 0.112087,0.166051 0.249077,0.166051 0.212661,0 0.249077,0.461252 0.249077,3.154958 v 3.154957 h -6.475968 -6.475965 z"
     id="path120611" />
</svg>
