<?xml version="1.0" encoding="UTF-8" standalone="no"?>
<!DOCTYPE svg PUBLIC "-//W3C//DTD SVG 1.1//EN" "http://www.w3.org/Graphics/SVG/1.1/DTD/svg11.dtd">
<svg version="1.1" xmlns="http://www.w3.org/2000/svg" xmlns:xlink="http://www.w3.org/1999/xlink" preserveAspectRatio="xMidYMid meet" viewBox="0 0 640 640" width="64" height="64"><defs><path d="M87.98 55.96L540.79 55.96L540.79 620L87.98 620L87.98 55.96Z" id="c6a5hntod"></path><path d="M96.97 64.38L531.8 64.38L531.8 611.57L96.97 611.57L96.97 64.38Z" id="e7ovyoltc"></path><path d="M551.65 250.9L243.41 43.03L553.73 46.19L551.65 250.9Z" id="a3itarPYr"></path><path d="M264.38 275.06L464.38 275.06L464.38 468.31L264.38 468.31L264.38 275.06Z" id="ashCxZcPc"></path><path d="M276.57 286.5L453.42 286.5L453.42 455.29L276.57 455.29L276.57 286.5Z" id="anmwP0w0q"></path><path d="M360.45 278.31C360.45 334.81 314.89 380.67 258.76 380.67C202.64 380.67 157.08 334.81 157.08 278.31C157.08 221.82 202.64 175.96 258.76 175.96C314.89 175.96 360.45 221.82 360.45 278.31Z" id="d29BEoNN2u"></path><path d="M344.78 278.2C344.78 326.45 305.89 365.62 257.98 365.62C210.07 365.62 171.17 326.45 171.17 278.2C171.17 229.95 210.07 190.78 257.98 190.78C305.89 190.78 344.78 229.95 344.78 278.2Z" id="dVRV3o9RR"></path><path d="M344.68 275.03L344.78 286.5L333.85 291.41L280.48 350.47L276.57 363.69L264.53 365.62L264.53 275.03L344.68 275.03Z" id="agI6QDlTm"></path><path d="M344.92 286.74L276.61 364.36L276.88 286.5L344.92 286.74Z" id="d2Q4i493e"></path><path d="M204.67 535.71C212.82 527.03 278.02 457.6 286.17 448.92C287.14 447.88 288.46 447.27 289.71 447.27C290.95 447.27 291.98 447.89 292.47 448.93C292.64 449.31 293.52 451.19 295.1 454.58L305.56 452.92L312.46 433.24L294.71 417.29L275.25 425.69L274.45 436.02C278.03 437.27 280.03 437.97 280.42 438.11C281.52 438.49 282.24 439.44 282.35 440.66C282.37 440.86 282.37 441.07 282.35 441.28C282.27 442.31 281.78 443.39 280.97 444.25C272.82 452.93 207.62 522.36 199.47 531.04C198.67 531.9 197.62 532.47 196.57 532.64C195.51 532.81 194.53 532.55 193.84 531.93C192.49 530.72 181.67 521 180.32 519.79C179.63 519.17 179.29 518.23 179.37 517.19C179.37 517.19 179.37 517.18 179.37 517.18C179.46 516.13 179.96 515.06 180.76 514.21C189.58 504.89 260.09 430.32 268.91 421C268.95 420.96 269.01 420.95 269.06 420.9C269.53 420.43 270.06 420.01 270.7 419.74C272.34 419.03 280.58 415.48 295.41 409.08C314.75 400.74 325.49 396.11 327.64 395.19C329.06 394.57 330.53 394.72 331.47 395.57C332.17 396.2 332.5 397.14 332.42 398.17C332.39 398.53 332.31 398.9 332.19 399.27C331.42 401.44 327.62 412.31 320.76 431.87C315.51 446.86 312.59 455.19 312 456.86C311.98 456.93 311.92 456.99 311.89 457.06C311.78 457.33 311.62 457.57 311.47 457.82C311.32 458.06 311.18 458.3 310.99 458.52C310.94 458.58 310.92 458.65 310.87 458.7C302.12 468.09 232.15 543.14 223.4 552.52C222.6 553.38 221.55 553.96 220.49 554.13C219.43 554.3 218.45 554.05 217.76 553.43C216.86 552.62 212.35 548.57 204.24 541.28C203.45 538.71 203.6 536.86 204.67 535.71Z" id="aaS7rGvAy"></path><path d="M149.09 568.36C143.43 563.18 144.48 552.71 151.4 545.82C153.08 544.16 166.55 530.85 168.23 529.19C170.01 527.43 172.63 527.08 174.08 528.42C177.91 531.92 208.5 559.92 212.32 563.42C213.05 564.09 213.35 565.05 213.25 566.07C213.15 567.09 212.64 568.15 211.76 569.03C210.09 570.71 196.72 584.12 195.04 585.8C191.6 589.22 187.26 591.44 182.83 592.03C178.39 592.62 174.39 591.52 171.56 588.93C167.07 584.82 151.34 570.42 149.09 568.36Z" id="e5gXc5K6g"></path><path d="M278.44 446.62L282.83 452.54L232.83 504.6L229.6 500.27L278.44 446.62Z" id="iCNNDRDtf"></path><path d="M531.88 213.3L299.36 59.98L533.41 62.37L531.88 213.3Z" id="a1wsZ62uv"></path><path d="M514.31 183.1L375.28 86.59L512.96 84.7L514.31 183.1Z" id="cszQzefb4"></path><path d="M500.04 150.69L419.91 99.87L500.21 100.14L500.04 150.69Z" id="g358TUBxM"></path></defs><g><g><g><use xlink:href="#c6a5hntod" opacity="1" fill="#757575" fill-opacity="1"></use></g><g><use xlink:href="#e7ovyoltc" opacity="1" fill="#d1d1d1" fill-opacity="1"></use></g><g><use xlink:href="#a3itarPYr" opacity="1" fill="#757575" fill-opacity="1"></use></g><g><use xlink:href="#ashCxZcPc" opacity="1" fill="#757575" fill-opacity="1"></use></g><g><use xlink:href="#anmwP0w0q" opacity="1" fill="#d1d1d1" fill-opacity="1"></use></g><g><use xlink:href="#d29BEoNN2u" opacity="1" fill="#aa6060" fill-opacity="1"></use></g><g><use xlink:href="#dVRV3o9RR" opacity="1" fill="#d1d1d1" fill-opacity="1"></use></g><g><use xlink:href="#agI6QDlTm" opacity="1" fill="#757575" fill-opacity="1"></use></g><g><use xlink:href="#d2Q4i493e" opacity="1" fill="#d1d1d1" fill-opacity="1"></use></g><g><use xlink:href="#aaS7rGvAy" opacity="1" fill="#757575" fill-opacity="1"></use><g><use xlink:href="#aaS7rGvAy" opacity="1" fill-opacity="0" stroke="#000000" stroke-width="1" stroke-opacity="0"></use></g></g><g><use xlink:href="#e5gXc5K6g" opacity="1" fill="#757575" fill-opacity="1"></use><g><use xlink:href="#e5gXc5K6g" opacity="1" fill-opacity="0" stroke="#000000" stroke-width="1" stroke-opacity="0"></use></g></g><g><use xlink:href="#iCNNDRDtf" opacity="1" fill="#d1d1d1" fill-opacity="1"></use><g><use xlink:href="#iCNNDRDtf" opacity="1" fill-opacity="0" stroke="#d1d1d1" stroke-width="0" stroke-opacity="1"></use></g></g><g><use xlink:href="#a1wsZ62uv" opacity="1" fill="#d1d1d1" fill-opacity="1"></use></g><g><use xlink:href="#cszQzefb4" opacity="1" fill="#757575" fill-opacity="1"></use></g><g><use xlink:href="#g358TUBxM" opacity="1" fill="#d1d1d1" fill-opacity="1"></use></g></g></g></svg>