<?xml version="1.0" encoding="UTF-8" standalone="no"?>
<svg
   xmlns:dc="http://purl.org/dc/elements/1.1/"
   xmlns:cc="http://creativecommons.org/ns#"
   xmlns:rdf="http://www.w3.org/1999/02/22-rdf-syntax-ns#"
   xmlns:svg="http://www.w3.org/2000/svg"
   xmlns="http://www.w3.org/2000/svg"
   xmlns:sodipodi="http://sodipodi.sourceforge.net/DTD/sodipodi-0.dtd"
   xmlns:inkscape="http://www.inkscape.org/namespaces/inkscape"
   width="100%"
   height="100%"
   viewBox="0 0 2048 2048"
   version="1.1"
   xml:space="preserve"
   style="fill-rule:evenodd;clip-rule:evenodd;stroke-linecap:round;stroke-linejoin:round;stroke-miterlimit:1.5;"
   id="svg40"
   sodipodi:docname="org.gnome.Taquin.svg"
   inkscape:version="0.92.4 5da689c313, 2019-01-14"><metadata
   id="metadata46"><rdf:RDF><cc:Work
       rdf:about=""><dc:format>image/svg+xml</dc:format><dc:type
         rdf:resource="http://purl.org/dc/dcmitype/StillImage" /></cc:Work></rdf:RDF></metadata><defs
   id="defs44" /><sodipodi:namedview
   pagecolor="#ffffff"
   bordercolor="#666666"
   borderopacity="1"
   objecttolerance="10"
   gridtolerance="10"
   guidetolerance="10"
   inkscape:pageopacity="0"
   inkscape:pageshadow="2"
   inkscape:window-width="1850"
   inkscape:window-height="1048"
   id="namedview42"
   showgrid="false"
   inkscape:zoom="0.11523438"
   inkscape:cx="1024"
   inkscape:cy="1024"
   inkscape:window-x="70"
   inkscape:window-y="32"
   inkscape:window-maximized="1"
   inkscape:current-layer="svg40" />
    <g
   transform="matrix(1.2534517,0,0,1.2534517,-203.43135,-173.87922)"
   id="g4">
        <path
   d="m 1739.42,302.114 c 0,-51.244 -41.54,-92.786 -92.78,-92.786 H 325.691 c -51.244,0 -92.786,41.542 -92.786,92.786 V 1623.06 c 0,51.25 41.542,92.79 92.786,92.79 H 1646.64 c 51.24,0 92.78,-41.54 92.78,-92.79 z"
   style="fill:#6992a3"
   id="path2"
   inkscape:connector-curvature="0" />
    </g>
    <g
   transform="matrix(1.1425438,0,0,1.1425438,-94.057788,-67.120984)"
   id="g8">
        <path
   d="m 1739.42,311.121 c 0,-26.997 -10.72,-52.888 -29.81,-71.978 -19.09,-19.09 -44.98,-29.815 -71.98,-29.815 H 334.698 c -26.997,0 -52.889,10.725 -71.979,29.815 -19.09,19.09 -29.814,44.981 -29.814,71.978 V 1614.05 c 0,27 10.724,52.89 29.814,71.98 19.09,19.09 44.982,29.82 71.979,29.82 H 1637.63 c 27,0 52.89,-10.73 71.98,-29.82 19.09,-19.09 29.81,-44.98 29.81,-71.98 z"
   style="fill:#ddf5ff"
   id="path6"
   inkscape:connector-curvature="0" />
    </g>
    <g
   transform="matrix(1.319847,0,0,1.319847,-443.75075,-407.39927)"
   id="g12">
        <path
   d="m 987.714,602.494 c 0,-72.256 58.666,-130.919 130.916,-130.919 72.26,0 130.92,58.663 130.92,130.919 36.13,-62.575 116.27,-84.048 178.84,-47.919 62.58,36.128 84.05,116.263 47.92,178.839 62.58,-36.128 142.71,-14.656 178.84,47.92 36.13,62.575 14.66,142.711 -47.92,178.839 72.26,0 130.92,58.667 130.92,130.917 0,72.26 -58.66,130.92 -130.92,130.92 62.58,36.13 84.05,116.27 47.92,178.84 -36.13,62.58 -116.26,84.05 -178.84,47.92 36.13,62.58 14.66,142.71 -47.92,178.84 -62.57,36.13 -142.71,14.66 -178.84,-47.92 0,72.26 -58.66,130.92 -130.92,130.92 -72.25,0 -130.916,-58.66 -130.916,-130.92 -36.128,62.58 -116.263,84.05 -178.839,47.92 -62.576,-36.13 -84.048,-116.26 -47.92,-178.84 -62.576,36.13 -142.711,14.66 -178.839,-47.92 -36.128,-62.57 -14.656,-142.71 47.92,-178.84 -72.257,0 -130.92,-58.66 -130.92,-130.92 0,-72.25 58.663,-130.917 130.92,-130.917 -62.576,-36.128 -84.048,-116.264 -47.92,-178.839 36.128,-62.576 116.263,-84.048 178.839,-47.92 -36.128,-62.576 -14.656,-142.711 47.92,-178.839 62.576,-36.129 142.711,-14.656 178.839,47.919 z"
   style="fill:#acbfc7"
   id="path10"
   inkscape:connector-curvature="0" />
    </g>
    <g
   transform="matrix(1.347824,0,0,1.347824,-419.91511,-443.35453)"
   id="g16">
        <circle
   cx="1077.73"
   cy="1095.12"
   r="182.94701"
   style="fill:#e2e2aa"
   id="circle14" />
    </g>
    <g
   id="g38"
   transform="matrix(1.2534517,0,0,1.2534517,-250.85707,-250.85695)">
        <g
   transform="matrix(0.973995,0,0,1.03813,23.7604,-48.1244)"
   id="g20">
            <rect
   x="300.004"
   y="1262.13"
   width="481.05099"
   height="448.47699"
   style="fill:#6992a3"
   id="rect18" />
        </g>
        <g
   transform="translate(17.3887)"
   id="g24">
            <path
   d="M 767.021,337.391 V 1710.61"
   style="fill:none;stroke:#6992a3;stroke-width:9.76000023px"
   id="path22"
   inkscape:connector-curvature="0" />
        </g>
        <g
   transform="translate(493.653)"
   id="g28">
            <path
   d="M 767.021,337.391 V 1710.61"
   style="fill:none;stroke:#6992a3;stroke-width:9.76000023px"
   id="path26"
   inkscape:connector-curvature="0" />
        </g>
        <g
   transform="rotate(90,1013.8466,1032.6934)"
   id="g32">
            <path
   d="M 767.021,337.391 V 1710.61"
   style="fill:none;stroke:#6992a3;stroke-width:9.76000023px"
   id="path30"
   inkscape:connector-curvature="0" />
        </g>
        <g
   transform="rotate(90,775.7145,1270.8255)"
   id="g36">
            <path
   d="M 767.021,337.391 V 1710.61"
   style="fill:none;stroke:#6992a3;stroke-width:9.76000023px"
   id="path34"
   inkscape:connector-curvature="0" />
        </g>
    </g>
</svg>