<?xml version="1.0" encoding="UTF-8" standalone="no"?><!DOCTYPE svg PUBLIC "-//W3C//DTD SVG 1.1//EN" "http://www.w3.org/Graphics/SVG/1.1/DTD/svg11.dtd"><svg width="100%" height="100%" viewBox="0 0 267 267" version="1.1" xmlns="http://www.w3.org/2000/svg" xmlns:xlink="http://www.w3.org/1999/xlink" xml:space="preserve" xmlns:serif="http://www.serif.com/" style="fill-rule:evenodd;clip-rule:evenodd;stroke-linejoin:round;stroke-miterlimit:2;"><rect id="Artboard2" x="0" y="0" width="266.667" height="266.667" style="fill:none;"/><g><path d="M244.241,61.227c0,-10.29 -4.088,-20.16 -11.365,-27.437c-7.276,-7.277 -17.146,-11.365 -27.437,-11.365l-144.212,0c-10.29,0 -20.16,4.088 -27.437,11.365c-7.277,7.277 -11.365,17.147 -11.365,27.437l0,144.212c0,10.291 4.088,20.161 11.365,27.437c7.277,7.277 17.147,11.365 27.437,11.365l144.212,0c10.291,0 20.161,-4.088 27.437,-11.365c7.277,-7.276 11.365,-17.146 11.365,-27.437l0,-144.212Z" style="fill:#d8cfc7;"/><path d="M256.741,61.227c0,-13.606 -5.405,-26.655 -15.026,-36.276c-9.621,-9.621 -22.67,-15.026 -36.276,-15.026c-40.517,0 -103.695,0 -144.212,0c-13.606,0 -26.655,5.405 -36.276,15.026c-9.621,9.621 -15.026,22.67 -15.026,36.276c0,40.517 0,103.695 0,144.212c0,13.606 5.405,26.655 15.026,36.276c9.621,9.621 22.67,15.026 36.276,15.026c40.517,0 103.695,0 144.212,0c13.606,0 26.655,-5.405 36.276,-15.026c9.621,-9.621 15.026,-22.67 15.026,-36.276l0,-144.212Zm-12.5,0c0,-10.29 -4.088,-20.16 -11.365,-27.437c-7.276,-7.277 -17.146,-11.365 -27.437,-11.365l-144.212,0c-10.29,0 -20.16,4.088 -27.437,11.365c-7.277,7.277 -11.365,17.147 -11.365,27.437l0,144.212c0,10.291 4.088,20.161 11.365,27.437c7.277,7.277 17.147,11.365 27.437,11.365l144.212,0c10.291,0 20.161,-4.088 27.437,-11.365c7.277,-7.276 11.365,-17.146 11.365,-27.437l0,-144.212Z" style="fill:#c1b8b3;"/><g><path d="M170.327,92.173c-0,2.301 1.865,4.167 4.167,4.167l60.086,-0c1.075,-0 1.946,0.871 1.946,1.946c-0,0 -0,0.001 -0,0.002c-0,1.075 -0.871,1.946 -1.946,1.946c-9.073,-0 -47.322,-0 -60.086,-0c-2.302,-0 -4.167,1.865 -4.167,4.167l-0,57.865c-0,2.301 1.865,4.167 4.167,4.167l60.086,-0c1.075,-0 1.946,0.871 1.946,1.946c-0,0 -0,0.001 -0,0.002c-0,1.075 -0.871,1.946 -1.946,1.946c-9.073,-0 -47.322,-0 -60.086,-0c-2.302,-0 -4.167,1.865 -4.167,4.167l-0,60.086c-0,1.075 -0.871,1.946 -1.946,1.946c-0.001,-0 -0.002,-0 -0.002,-0c-1.075,-0 -1.946,-0.871 -1.946,-1.946c-0,-9.073 -0,-47.322 -0,-60.086c-0,-2.302 -1.866,-4.167 -4.167,-4.167l-57.865,-0c-2.302,-0 -4.167,1.865 -4.167,4.167l-0,60.086c-0,1.075 -0.871,1.946 -1.946,1.946c-0.001,-0 -0.002,-0 -0.002,-0c-1.075,-0 -1.946,-0.871 -1.946,-1.946c-0,-9.073 -0,-47.322 -0,-60.086c-0,-2.302 -1.866,-4.167 -4.167,-4.167l-60.086,-0c-1.075,-0 -1.946,-0.871 -1.946,-1.946c-0,-0.001 -0,-0.002 -0,-0.002c-0,-1.075 0.871,-1.946 1.946,-1.946c9.073,-0 47.321,-0 60.086,-0c2.301,-0 4.167,-1.866 4.167,-4.167l-0,-57.865c-0,-2.302 -1.866,-4.167 -4.167,-4.167l-60.086,-0c-1.075,-0 -1.946,-0.871 -1.946,-1.946c-0,-0.001 -0,-0.002 -0,-0.002c-0,-1.075 0.871,-1.946 1.946,-1.946c9.073,-0 47.321,-0 60.086,-0c2.301,-0 4.167,-1.866 4.167,-4.167l-0,-60.086c-0,-1.075 0.871,-1.946 1.946,-1.946c0,-0 0.001,-0 0.002,-0c1.075,-0 1.946,0.871 1.946,1.946c-0,9.073 -0,47.321 -0,60.086c-0,2.301 1.865,4.167 4.167,4.167l57.865,-0c2.301,-0 4.167,-1.866 4.167,-4.167l-0,-60.086c-0,-1.075 0.871,-1.946 1.946,-1.946c0,-0 0.001,-0 0.002,-0c1.075,-0 1.946,0.871 1.946,1.946c-0,9.073 -0,47.321 -0,60.086Zm-65.926,8.061c-2.302,-0 -4.167,1.865 -4.167,4.167l-0,57.865c-0,2.301 1.865,4.167 4.167,4.167l57.865,-0c2.301,-0 4.167,-1.866 4.167,-4.167l-0,-57.865c-0,-2.302 -1.866,-4.167 -4.167,-4.167l-57.865,-0Z" style="fill:#c1b8b3;"/></g><path d="M133.327,176.992c14.59,-0 26.435,11.845 26.435,26.434c-0,14.59 -11.845,26.435 -26.435,26.435c-14.589,0 -26.434,-11.845 -26.434,-26.435c-0,-14.589 11.845,-26.434 26.434,-26.434Zm0,13.217c7.295,0 13.218,5.923 13.218,13.217c-0,7.295 -5.923,13.218 -13.218,13.218c-7.295,-0 -13.217,-5.923 -13.217,-13.218c-0,-7.294 5.922,-13.217 13.217,-13.217Z" style="fill:#dd5b5a;"/><path d="M63.24,176.992c14.59,-0 26.435,11.845 26.435,26.434c0,14.59 -11.845,26.435 -26.435,26.435c-14.589,0 -26.434,-11.845 -26.434,-26.435c-0,-14.589 11.845,-26.434 26.434,-26.434Zm0,13.217c7.295,0 13.218,5.923 13.218,13.217c-0,7.295 -5.923,13.218 -13.218,13.218c-7.295,-0 -13.217,-5.923 -13.217,-13.218c-0,-7.294 5.922,-13.217 13.217,-13.217Z" style="fill:#dd5b5a;"/><path d="M133.333,123.987l17.095,-17.094l9.346,9.346l-17.095,17.094l17.095,17.095l-9.346,9.346l-17.095,-17.095l-17.094,17.095l-9.346,-9.346l17.094,-17.095l-17.094,-17.094l9.346,-9.346l17.094,17.094Z" style="fill:#4580d2;"/><path d="M133.333,53.894l17.095,-17.094l9.346,9.346l-17.095,17.094l17.095,17.095l-9.346,9.346l-17.095,-17.095l-17.094,17.095l-9.346,-9.346l17.094,-17.095l-17.094,-17.094l9.346,-9.346l17.094,17.094Z" style="fill:#4580d2;"/></g></svg>