<?xml version="1.0" encoding="UTF-8" standalone="no"?>
<!DOCTYPE svg PUBLIC "-//W3C//DTD SVG 1.1//EN" "http://www.w3.org/Graphics/SVG/1.1/DTD/svg11.dtd">
<svg version="1.1" xmlns="http://www.w3.org/2000/svg" xmlns:xlink="http://www.w3.org/1999/xlink" preserveAspectRatio="xMidYMid meet" viewBox="0 0 640 640" width="64" height="64"><defs><path d="M614.94 320.56C614.94 485.21 482.53 618.88 319.44 618.88C156.34 618.88 23.93 485.21 23.93 320.56C23.93 155.92 156.34 22.25 319.44 22.25C482.53 22.25 614.94 155.92 614.94 320.56Z" id="a2uzrogSa8"></path><path d="M184.74 294.72L296.19 427.8L260.12 458.01L148.66 324.93L184.74 294.72Z" id="b56ybc8LX"></path><path d="M470.21 282.09L376.71 457.58L335.18 435.45L428.68 259.96L470.21 282.09Z" id="a1b2u9BTCA"></path><path d="M390.34 482.37C390.34 520.88 358.82 552.15 320 552.15C281.18 552.15 249.66 520.88 249.66 482.37C249.66 443.86 281.18 412.6 320 412.6C358.82 412.6 390.34 443.86 390.34 482.37Z" id="c2N697Seg9"></path><path d="M419.35 238.59L197.85 271.12L191.01 224.56L412.52 192.04L419.35 238.59Z" id="e3X7EdnlyQ"></path><path d="M534.93 218.2C534.93 256.71 503.41 287.98 464.59 287.98C425.77 287.98 394.26 256.71 394.26 218.2C394.26 179.69 425.77 148.43 464.59 148.43C503.41 148.43 534.93 179.69 534.93 218.2Z" id="emv9vfbbx"></path><path d="M215.62 263.26C215.62 301.77 184.1 333.03 145.28 333.03C106.46 333.03 74.94 301.77 74.94 263.26C74.94 224.75 106.46 193.48 145.28 193.48C184.1 193.48 215.62 224.75 215.62 263.26Z" id="a93tVhsVA"></path></defs><g><g><g><use xlink:href="#a2uzrogSa8" opacity="1" fill="#b5c0c2" fill-opacity="1"></use></g><g><use xlink:href="#b56ybc8LX" opacity="1" fill="#505a87" fill-opacity="1"></use></g><g><use xlink:href="#a1b2u9BTCA" opacity="1" fill="#505a87" fill-opacity="1"></use></g><g><use xlink:href="#c2N697Seg9" opacity="1" fill="#896e9f" fill-opacity="1"></use></g><g><use xlink:href="#e3X7EdnlyQ" opacity="1" fill="#505a87" fill-opacity="1"></use></g><g><use xlink:href="#emv9vfbbx" opacity="1" fill="#6373b9" fill-opacity="1"></use></g><g><use xlink:href="#a93tVhsVA" opacity="1" fill="#725372" fill-opacity="1"></use></g></g></g></svg>