<?xml version="1.0" encoding="UTF-8" standalone="no"?>
<!DOCTYPE svg PUBLIC "-//W3C//DTD SVG 1.1//EN" "http://www.w3.org/Graphics/SVG/1.1/DTD/svg11.dtd">
<svg width="100%" height="100%" viewBox="0 0 2048 2048" version="1.1" xmlns="http://www.w3.org/2000/svg" xmlns:xlink="http://www.w3.org/1999/xlink" xml:space="preserve" xmlns:serif="http://www.serif.com/" style="fill-rule:evenodd;clip-rule:evenodd;stroke-linejoin:round;stroke-miterlimit:2;">
    <g transform="matrix(1.21102,0,0,1.21102,-170.265,-141.713)">
        <path d="M1739.42,285.946C1739.42,265.626 1731.35,246.138 1716.98,231.769C1702.61,217.401 1683.12,209.328 1662.81,209.328L309.523,209.328C289.203,209.328 269.714,217.401 255.346,231.769C240.977,246.138 232.905,265.626 232.905,285.946L232.905,1639.23C232.905,1659.55 240.977,1679.04 255.346,1693.4C269.714,1707.77 289.203,1715.85 309.523,1715.85L1662.81,1715.85C1683.12,1715.85 1702.61,1707.77 1716.98,1693.4C1731.35,1679.04 1739.42,1659.55 1739.42,1639.23L1739.42,285.946Z" style="fill:rgb(139,161,196);"/>
    </g>
    <g transform="matrix(-0.754858,-1.00166,0.576027,-0.434097,175.179,1601.21)">
        <path d="M325.552,585.46L352.5,1681.78L298.604,1681.78L325.552,585.46Z" style="fill:rgb(191,201,217);"/>
    </g>
    <g transform="matrix(-0.431095,-1.0669,0.63978,-0.258512,-17.6696,1552.74)">
        <path d="M325.552,585.46L352.5,1681.78L298.604,1681.78L325.552,585.46Z" style="fill:rgb(191,201,217);"/>
    </g>
    <g transform="matrix(-0.189669,-1.11546,0.682407,-0.116034,-77.0465,1485.03)">
        <path d="M325.552,585.46L352.5,1681.78L298.604,1681.78L325.552,585.46Z" style="fill:rgb(191,201,217);"/>
    </g>
    <g transform="matrix(0.920341,-0.658173,0.402652,0.56304,-263.111,1056)">
        <path d="M325.552,585.46L350.175,1587.2L1071.94,1798.88L298.604,1681.78L325.552,585.46Z" style="fill:rgb(191,201,217);"/>
    </g>
    <g transform="matrix(0.565649,0.979928,0.599494,-0.346049,473.221,1601.92)">
        <path d="M325.552,585.46L352.5,1681.78L387.189,998.608L325.552,585.46Z" style="fill:rgb(191,201,217);"/>
    </g>
    <g transform="matrix(1.02223,-0.144201,0.144201,1.02223,-377.417,5.42154)">
        <circle cx="1308.62" cy="840.784" r="284.624" style="fill:rgb(105,117,137);"/>
    </g>
</svg>
