<?xml version="1.0" encoding="UTF-8" standalone="no"?>
<svg
   xmlns:dc="http://purl.org/dc/elements/1.1/"
   xmlns:cc="http://creativecommons.org/ns#"
   xmlns:rdf="http://www.w3.org/1999/02/22-rdf-syntax-ns#"
   xmlns:svg="http://www.w3.org/2000/svg"
   xmlns="http://www.w3.org/2000/svg"
   xmlns:xlink="http://www.w3.org/1999/xlink"
   xmlns:sodipodi="http://sodipodi.sourceforge.net/DTD/sodipodi-0.dtd"
   xmlns:inkscape="http://www.inkscape.org/namespaces/inkscape"
   version="1.1"
   preserveAspectRatio="xMidYMid meet"
   viewBox="0 0 640 640"
   width="64"
   height="64"
   id="svg63"
   sodipodi:docname="org.kde.kfourinline.svg"
   inkscape:version="0.92.4 5da689c313, 2019-01-14">
  <metadata
     id="metadata67">
    <rdf:RDF>
      <cc:Work
         rdf:about="">
        <dc:format>image/svg+xml</dc:format>
        <dc:type
           rdf:resource="http://purl.org/dc/dcmitype/StillImage" />
      </cc:Work>
    </rdf:RDF>
  </metadata>
  <sodipodi:namedview
     pagecolor="#ffffff"
     bordercolor="#666666"
     borderopacity="1"
     objecttolerance="10"
     gridtolerance="10"
     guidetolerance="10"
     inkscape:pageopacity="0"
     inkscape:pageshadow="2"
     inkscape:window-width="1850"
     inkscape:window-height="1048"
     id="namedview65"
     showgrid="false"
     inkscape:zoom="2.6074563"
     inkscape:cx="-28.99112"
     inkscape:cy="39.93101"
     inkscape:window-x="70"
     inkscape:window-y="32"
     inkscape:window-maximized="1"
     inkscape:current-layer="g59" />
  <defs
     id="defs13">
    <path
       d="M598.3 24.4C610.03 24.4 619.54 33.9 619.54 45.63C619.54 160.3 619.54 483.07 619.54 597.74C619.54 609.47 610.03 618.98 598.3 618.98C482.51 618.98 156.36 618.98 40.57 618.98C28.85 618.98 19.34 609.47 19.34 597.74C19.34 483.07 19.34 160.3 19.34 45.63C19.34 33.9 28.85 24.4 40.57 24.4C156.36 24.4 482.51 24.4 598.3 24.4Z"
       id="a1S2q9nvoy" />
    <path
       d="M156.46 561.09C156.46 586.83 135.81 607.74 110.38 607.74C84.95 607.74 64.3 586.83 64.3 561.09C64.3 535.35 84.95 514.45 110.38 514.45C135.81 514.45 156.46 535.35 156.46 561.09Z"
       id="a2oMI6gdWs" />
    <path
       d="M265.26 564.23C265.26 589.98 244.61 610.88 219.17 610.88C193.74 610.88 173.09 589.98 173.09 564.23C173.09 538.49 193.74 517.59 219.17 517.59C244.61 517.59 265.26 538.49 265.26 564.23Z"
       id="hxDKytZr9" />
    <path
       d="M370.68 561.09C370.68 586.83 350.03 607.74 324.6 607.74C299.16 607.74 278.51 586.83 278.51 561.09C278.51 535.35 299.16 514.45 324.6 514.45C350.03 514.45 370.68 535.35 370.68 561.09Z"
       id="d2ppDrJ9Tp" />
    <path
       d="M474.98 558.61C474.98 584.36 454.33 605.26 428.89 605.26C403.46 605.26 382.81 584.36 382.81 558.61C382.81 532.87 403.46 511.97 428.89 511.97C454.33 511.97 474.98 532.87 474.98 558.61Z"
       id="a4WTbZYIFA" />
    <path
       d="M583.77 555.01C583.77 580.75 563.12 601.65 537.69 601.65C512.25 601.65 491.6 580.75 491.6 555.01C491.6 529.26 512.25 508.36 537.69 508.36C563.12 508.36 583.77 529.26 583.77 555.01Z"
       id="b6Fd8hcDkx" />
    <path
       d="M583.77 449.12C583.77 474.87 563.12 495.77 537.69 495.77C512.25 495.77 491.6 474.87 491.6 449.12C491.6 423.38 512.25 402.48 537.69 402.48C563.12 402.48 583.77 423.38 583.77 449.12Z"
       id="f1UQsp7T8V" />
    <path
       d="M474.98 453.39C474.98 479.13 454.33 500.03 428.89 500.03C403.46 500.03 382.81 479.13 382.81 453.39C382.81 427.64 403.46 406.74 428.89 406.74C454.33 406.74 474.98 427.64 474.98 453.39Z"
       id="a5SndHEhG5" />
    <path
       d="M474.98 346.38C474.98 372.12 454.33 393.02 428.89 393.02C403.46 393.02 382.81 372.12 382.81 346.38C382.81 320.64 403.46 299.74 428.89 299.74C454.33 299.74 474.98 320.64 474.98 346.38Z"
       id="a2KiemolY" />
    <path
       d="M265.26 453.39C265.26 479.13 244.61 500.03 219.17 500.03C193.74 500.03 173.09 479.13 173.09 453.39C173.09 427.64 193.74 406.74 219.17 406.74C244.61 406.74 265.26 427.64 265.26 453.39Z"
       id="cjLkUSTVy" />
    <path
       d="M265.26 135.07C265.26 160.82 244.61 181.72 219.17 181.72C193.74 181.72 173.09 160.82 173.09 135.07C173.09 109.33 193.74 88.43 219.17 88.43C244.61 88.43 265.26 109.33 265.26 135.07Z"
       id="asBvDoFa" />
  </defs>
  <g
     id="g61">
    <g
       id="g59">
      <g
         id="g17"
         style="fill:#bfcddc;fill-opacity:1;stroke:#98aec5;stroke-opacity:1;stroke-width:17;stroke-miterlimit:4;stroke-dasharray:none">
        <use
           xlink:href="#a1S2q9nvoy"
           opacity="1"
           fill="#96abc9"
           fill-opacity="1"
           id="use15"
           style="fill:#bfcddc;fill-opacity:1;stroke:#98aec5;stroke-opacity:1;stroke-width:17;stroke-miterlimit:4;stroke-dasharray:none" />
      </g>
      <g
         id="g25"
         transform="matrix(1.3218214,0,0,1.3218214,-178.37815,-202.01799)"
         style="opacity:0.551">
        <use
           xlink:href="#hxDKytZr9"
           id="use23"
           style="opacity:1;fill:#66aa66;fill-opacity:1"
           x="0"
           y="0"
           width="100%"
           height="100%" />
      </g>
      <g
         id="g29"
         transform="matrix(1.3218214,0,0,1.3218214,-178.37815,-202.01799)"
         style="opacity:0.551">
        <use
           xlink:href="#d2ppDrJ9Tp"
           id="use27"
           style="opacity:1;fill:#66aa66;fill-opacity:1"
           x="0"
           y="0"
           width="100%"
           height="100%" />
      </g>
      <g
         id="g33"
         transform="matrix(1.3218214,0,0,1.3218214,-178.37815,-202.01799)"
         style="opacity:0.551">
        <use
           xlink:href="#a4WTbZYIFA"
           id="use31"
           style="opacity:1;fill:#276292;fill-opacity:1"
           x="0"
           y="0"
           width="100%"
           height="100%" />
      </g>
      <g
         id="g37"
         transform="matrix(1.3218214,0,0,1.3218214,-178.37815,-202.01799)"
         style="opacity:0.551">
        <use
           xlink:href="#b6Fd8hcDkx"
           id="use35"
           style="opacity:1;fill:#66aa66;fill-opacity:1"
           x="0"
           y="0"
           width="100%"
           height="100%" />
      </g>
      <g
         id="g41"
         transform="matrix(1.3218214,0,0,1.3218214,-178.37815,-202.01799)"
         style="opacity:0.551">
        <use
           xlink:href="#f1UQsp7T8V"
           id="use39"
           style="opacity:1;fill:#875ca5;fill-opacity:1"
           x="0"
           y="0"
           width="100%"
           height="100%" />
      </g>
      <g
         id="g45"
         transform="matrix(1.3218214,0,0,1.3218214,-178.37815,-202.01799)"
         style="opacity:0.551">
        <use
           xlink:href="#a5SndHEhG5"
           id="use43"
           style="opacity:1;fill:#276292;fill-opacity:1"
           x="0"
           y="0"
           width="100%"
           height="100%" />
      </g>
      <g
         id="g49"
         transform="matrix(1.3218214,0,0,1.3218214,-178.37815,-202.01799)"
         style="opacity:0.551">
        <use
           xlink:href="#a2KiemolY"
           id="use47"
           style="opacity:1;fill:#276292;fill-opacity:1"
           x="0"
           y="0"
           width="100%"
           height="100%" />
      </g>
      <g
         id="g53"
         transform="matrix(1.3218214,0,0,1.3218214,-178.37815,-202.01799)"
         style="opacity:0.551">
        <use
           xlink:href="#cjLkUSTVy"
           id="use51"
           style="opacity:1;fill:#875ca5;fill-opacity:1"
           x="0"
           y="0"
           width="100%"
           height="100%" />
      </g>
    </g>
  </g>
</svg>
