<?xml version="1.0" encoding="UTF-8" standalone="no"?>
<svg
   xmlns:dc="http://purl.org/dc/elements/1.1/"
   xmlns:cc="http://creativecommons.org/ns#"
   xmlns:rdf="http://www.w3.org/1999/02/22-rdf-syntax-ns#"
   xmlns:svg="http://www.w3.org/2000/svg"
   xmlns="http://www.w3.org/2000/svg"
   xmlns:xlink="http://www.w3.org/1999/xlink"
   xmlns:sodipodi="http://sodipodi.sourceforge.net/DTD/sodipodi-0.dtd"
   xmlns:inkscape="http://www.inkscape.org/namespaces/inkscape"
   version="1.1"
   preserveAspectRatio="xMidYMid meet"
   viewBox="0 0 640 640"
   width="64"
   height="64"
   id="svg88"
   sodipodi:docname="org.kde.klines.svg"
   inkscape:version="0.92.4 5da689c313, 2019-01-14">
  <metadata
     id="metadata92">
    <rdf:RDF>
      <cc:Work
         rdf:about="">
        <dc:format>image/svg+xml</dc:format>
        <dc:type
           rdf:resource="http://purl.org/dc/dcmitype/StillImage" />
      </cc:Work>
    </rdf:RDF>
  </metadata>
  <sodipodi:namedview
     pagecolor="#ffffff"
     bordercolor="#666666"
     borderopacity="1"
     objecttolerance="10"
     gridtolerance="10"
     guidetolerance="10"
     inkscape:pageopacity="0"
     inkscape:pageshadow="2"
     inkscape:window-width="1850"
     inkscape:window-height="1048"
     id="namedview90"
     showgrid="false"
     inkscape:zoom="2.6074563"
     inkscape:cx="-4.1582682"
     inkscape:cy="51.988672"
     inkscape:window-x="70"
     inkscape:window-y="32"
     inkscape:window-maximized="1"
     inkscape:current-layer="g84" />
  <defs
     id="defs18">
    <path
       d="M19.34 15.4L620.66 15.4L620.66 615.6L19.34 615.6L19.34 15.4Z"
       id="a9qP0UEw6" />
    <path
       d="M30.25 26.31L607.33 26.31L607.33 605L30.25 605L30.25 26.31Z"
       id="gkYAjGzqi" />
    <path
       d="M215.9 133.06L173.1 178.18L130.3 223.3L87.5 178.18L44.71 133.06L87.5 87.94L130.3 42.81L173.1 87.94L215.9 133.06Z"
       id="hVGeuGShS" />
    <path
       d="M272.65 178.18L229.86 133.06L272.65 87.94L315.45 42.81L358.25 87.94L401.05 133.06L358.25 178.18L315.45 223.3L272.65 178.18Z"
       id="h1hq1A7B4O" />
    <path
       d="M592.26 133.06L549.47 178.18L506.66 223.3L463.86 178.18L421.07 133.06L463.86 87.94L506.66 42.81L549.47 87.94L592.26 133.06Z"
       id="b1q6K3Jaop" />
    <path
       d="M463.86 365.12L421.07 320L463.86 274.88L506.66 229.76L549.47 274.88L592.26 320L549.47 365.12L506.66 410.24L463.86 365.12Z"
       id="d3VC7KyMxV" />
    <path
       d="M592.26 504.39L592.26 504.39L549.47 549.52L506.66 594.64L463.86 549.52L421.07 504.39L463.86 459.27L506.66 414.15L549.47 459.27L592.26 504.39Z"
       id="b1wOOolTOF" />
    <path
       d="M404.39 507.18L404.39 507.18L361.59 552.3L318.79 597.42L275.98 552.3L233.19 507.18L275.98 462.06L318.79 416.93L361.59 462.06L404.39 507.18Z"
       id="aeP5E3plw" />
    <path
       d="M215.9 507.18L215.9 507.18L173.1 552.3L130.3 597.42L87.5 552.3L44.71 507.18L87.5 462.06L130.3 416.93L173.1 462.06L215.9 507.18Z"
       id="c6oxgf23v" />
    <path
       d="M215.9 320L173.1 365.12L130.3 410.24L87.5 365.12L44.71 320L87.5 274.88L130.3 229.76L173.1 274.88L215.9 320Z"
       id="b8F6mZlz1C" />
    <path
       d="M272.65 365.12L229.86 320L272.65 274.88L315.45 229.76L358.25 274.88L401.05 320L358.25 365.12L315.45 410.24L272.65 365.12Z"
       id="egnWw0AiQ" />
    <path
       d="M180.91 507.18C180.91 537.62 158.23 562.33 130.3 562.33C102.37 562.33 79.7 537.62 79.7 507.18C79.7 476.74 102.37 452.03 130.3 452.03C158.23 452.03 180.91 476.74 180.91 507.18Z"
       id="b1y8eOTrl" />
    <path
       d="M270.45 418.94C270.45 449.38 247.77 474.09 219.84 474.09C191.91 474.09 169.24 449.38 169.24 418.94C169.24 388.5 191.91 363.79 219.84 363.79C247.77 363.79 270.45 388.5 270.45 418.94Z"
       id="f3W4nktO48" />
    <path
       d="M557.27 133.06C557.27 163.5 534.6 188.21 506.67 188.21C478.74 188.21 456.06 163.5 456.06 133.06C456.06 102.62 478.74 77.91 506.67 77.91C534.6 77.91 557.27 102.62 557.27 133.06Z"
       id="a7r9NLwTQ" />
    <path
       d="M464.24 223.3C464.24 253.74 441.57 278.45 413.64 278.45C385.71 278.45 363.03 253.74 363.03 223.3C363.03 192.86 385.71 168.15 413.64 168.15C441.57 168.15 464.24 192.86 464.24 223.3Z"
       id="bjT7DNZOX" />
    <path
       d="M366.06 323.91C366.06 354.35 343.38 379.06 315.45 379.06C287.52 379.06 264.85 354.35 264.85 323.91C264.85 293.47 287.52 268.76 315.45 268.76C343.38 268.76 366.06 293.47 366.06 323.91Z"
       id="a4hrljNny" />
  </defs>
  <g
     id="g86">
    <g
       id="g84">
      <g
         id="g22"
         transform="translate(3.8351554)">
        <use
           xlink:href="#a9qP0UEw6"
           id="use20"
           style="opacity:1;fill:#a2bee1;fill-opacity:1"
           x="0"
           y="0"
           width="100%"
           height="100%" />
      </g>
      <g
         id="g26"
         style="fill:#888266;fill-opacity:1;stroke:#bab59d;stroke-width:12.54347134;stroke-miterlimit:4;stroke-dasharray:none;stroke-opacity:1"
         transform="matrix(1.0420046,0,0,1.0371702,-8.3454836,-11.887947)">
        <use
           xlink:href="#gkYAjGzqi"
           id="use24"
           style="opacity:1;fill:#888266;fill-opacity:1;stroke:#bab59d;stroke-width:12.54347134;stroke-miterlimit:4;stroke-dasharray:none;stroke-opacity:1"
           x="0"
           y="0"
           width="100%"
           height="100%" />
      </g>
      <g
         id="g30"
         transform="translate(3.8351554)">
        <use
           xlink:href="#hVGeuGShS"
           id="use28"
           style="opacity:1;fill:#bab59d;fill-opacity:1"
           x="0"
           y="0"
           width="100%"
           height="100%" />
      </g>
      <g
         id="g34"
         transform="translate(3.8351554)">
        <use
           xlink:href="#h1hq1A7B4O"
           id="use32"
           style="opacity:1;fill:#bab59d;fill-opacity:1"
           x="0"
           y="0"
           width="100%"
           height="100%" />
      </g>
      <g
         id="g38"
         transform="translate(3.8351554)">
        <use
           xlink:href="#b1q6K3Jaop"
           id="use36"
           style="opacity:1;fill:#bab59d;fill-opacity:1"
           x="0"
           y="0"
           width="100%"
           height="100%" />
      </g>
      <g
         id="g42"
         transform="translate(3.8351554)">
        <use
           xlink:href="#d3VC7KyMxV"
           id="use40"
           style="opacity:1;fill:#bab59d;fill-opacity:1"
           x="0"
           y="0"
           width="100%"
           height="100%" />
      </g>
      <g
         id="g46"
         transform="translate(3.8351554)">
        <use
           xlink:href="#b1wOOolTOF"
           id="use44"
           style="opacity:1;fill:#bab59d;fill-opacity:1"
           x="0"
           y="0"
           width="100%"
           height="100%" />
      </g>
      <g
         id="g50"
         transform="translate(3.8351554)">
        <use
           xlink:href="#aeP5E3plw"
           id="use48"
           style="opacity:1;fill:#bab59d;fill-opacity:1"
           x="0"
           y="0"
           width="100%"
           height="100%" />
      </g>
      <g
         id="g54"
         transform="translate(3.8351554)">
        <use
           xlink:href="#c6oxgf23v"
           id="use52"
           style="opacity:1;fill:#bab59d;fill-opacity:1"
           x="0"
           y="0"
           width="100%"
           height="100%" />
      </g>
      <g
         id="g58"
         transform="translate(3.8351554)">
        <use
           xlink:href="#b8F6mZlz1C"
           id="use56"
           style="opacity:1;fill:#bab59d;fill-opacity:1"
           x="0"
           y="0"
           width="100%"
           height="100%" />
      </g>
      <g
         id="g62"
         transform="translate(3.8351554)">
        <use
           xlink:href="#egnWw0AiQ"
           id="use60"
           style="opacity:1;fill:#bab59d;fill-opacity:1"
           x="0"
           y="0"
           width="100%"
           height="100%" />
      </g>
      <g
         id="g66"
         style="fill:#9a5252;fill-opacity:1"
         transform="translate(3.8351554)">
        <use
           xlink:href="#b1y8eOTrl"
           id="use64"
           style="opacity:1;fill:#9a5252;fill-opacity:1"
           x="0"
           y="0"
           width="100%"
           height="100%" />
      </g>
      <g
         id="g70"
         style="fill:#9a5252;fill-opacity:1"
         transform="translate(3.8351554)">
        <use
           xlink:href="#f3W4nktO48"
           id="use68"
           style="opacity:1;fill:#9a5252;fill-opacity:1"
           x="0"
           y="0"
           width="100%"
           height="100%" />
      </g>
      <g
         id="g74"
         style="fill:#9a5252;fill-opacity:1"
         transform="translate(3.8351554)">
        <use
           xlink:href="#a7r9NLwTQ"
           id="use72"
           style="opacity:1;fill:#9a5252;fill-opacity:1"
           x="0"
           y="0"
           width="100%"
           height="100%" />
      </g>
      <g
         id="g78"
         style="fill:#9a5252;fill-opacity:1"
         transform="translate(3.8351554)">
        <use
           xlink:href="#bjT7DNZOX"
           id="use76"
           style="opacity:1;fill:#9a5252;fill-opacity:1"
           x="0"
           y="0"
           width="100%"
           height="100%" />
      </g>
      <g
         id="g82"
         style="fill:#9a5252;fill-opacity:1"
         transform="translate(3.8351554)">
        <use
           xlink:href="#a4hrljNny"
           id="use80"
           style="opacity:1;fill:#9a5252;fill-opacity:1"
           x="0"
           y="0"
           width="100%"
           height="100%" />
      </g>
    </g>
  </g>
</svg>
