<?xml version="1.0" encoding="UTF-8" standalone="no"?>
<!DOCTYPE svg PUBLIC "-//W3C//DTD SVG 1.1//EN" "http://www.w3.org/Graphics/SVG/1.1/DTD/svg11.dtd">
<svg width="100%" height="100%" viewBox="0 0 2048 2048" version="1.1" xmlns="http://www.w3.org/2000/svg" xmlns:xlink="http://www.w3.org/1999/xlink" xml:space="preserve" xmlns:serif="http://www.serif.com/" style="fill-rule:evenodd;clip-rule:evenodd;stroke-linecap:round;stroke-linejoin:round;stroke-miterlimit:1.5;">
    <g transform="matrix(0.928818,0,0,0.928818,-100.039,-130.129)">
        <circle cx="1210.18" cy="1242.58" r="1018.91" style="fill:rgb(177,154,190);"/>
    </g>
    <g transform="matrix(1.11286,0,0,1.11286,-72.66,-106.232)">
        <path d="M1045.93,619.296C1045.93,599.445 1029.84,583.353 1009.99,583.353L533.165,583.353C513.315,583.353 497.222,599.445 497.222,619.296L497.222,1096.12C497.222,1115.97 513.315,1132.06 533.165,1132.06L1009.99,1132.06C1029.84,1132.06 1045.93,1115.97 1045.93,1096.12L1045.93,619.296Z" style="fill:rgb(144,126,155);"/>
    </g>
    <g transform="matrix(0.859649,0,0,0.860904,192.185,667.782)">
        <path d="M1045.93,629.816C1045.93,604.155 1025.1,583.353 999.4,583.353L543.753,583.353C518.055,583.353 497.222,604.155 497.222,629.816L497.222,1085.6C497.222,1111.26 518.055,1132.06 543.753,1132.06L999.4,1132.06C1025.1,1132.06 1045.93,1111.26 1045.93,1085.6L1045.93,629.816Z" style="fill:rgb(211,187,226);"/>
    </g>
    <g transform="matrix(0.867495,0,0,0.868762,659.98,186.501)">
        <path d="M1045.93,629.395C1045.93,617.184 1041.07,605.473 1032.42,596.839C1023.78,588.204 1012.05,583.353 999.821,583.353C896.374,583.353 646.778,583.353 543.332,583.353C531.103,583.353 519.375,588.204 510.727,596.839C502.08,605.473 497.222,617.184 497.222,629.395C497.222,732.823 497.222,982.591 497.222,1086.02C497.222,1098.23 502.08,1109.94 510.727,1118.58C519.375,1127.21 531.103,1132.06 543.332,1132.06C646.778,1132.06 896.374,1132.06 999.821,1132.06C1012.05,1132.06 1023.78,1127.21 1032.42,1118.58C1041.07,1109.94 1045.93,1098.23 1045.93,1086.02C1045.93,982.591 1045.93,732.823 1045.93,629.395Z" style="fill:rgb(211,187,226);"/>
    </g>
    <g transform="matrix(1.11286,0,0,1.11286,-117.583,-140.928)">
        <circle cx="1086.3" cy="1172.43" r="40.367" style="fill:rgb(234,207,250);stroke:rgb(234,207,250);stroke-width:0.9px;"/>
        <g transform="matrix(1,0,0,1,2.27374e-13,-422.81)">
            <circle cx="1086.3" cy="1172.43" r="40.367" style="fill:rgb(234,207,250);stroke:rgb(234,207,250);stroke-width:0.9px;"/>
        </g>
        <g transform="matrix(1,0,0,1.10253,0,-120.207)">
            <path d="M1086.3,1172.43L1086.3,788.937" style="fill:none;stroke:rgb(234,207,250);stroke-width:24.47px;"/>
        </g>
    </g>
    <g transform="matrix(6.81432e-17,-1.11286,1.11286,6.81432e-17,-213.435,2372.73)">
        <circle cx="1086.3" cy="1172.43" r="40.367" style="fill:rgb(234,207,250);stroke:rgb(234,207,250);stroke-width:0.9px;"/>
        <g transform="matrix(1,0,0,1,2.27374e-13,-422.81)">
            <circle cx="1086.3" cy="1172.43" r="40.367" style="fill:rgb(234,207,250);stroke:rgb(234,207,250);stroke-width:0.9px;"/>
        </g>
        <g transform="matrix(1,0,0,1.10253,0,-120.207)">
            <path d="M1086.3,1172.43L1086.3,788.937" style="fill:none;stroke:rgb(234,207,250);stroke-width:24.47px;"/>
        </g>
    </g>
</svg>
