<?xml version="1.0" encoding="UTF-8" standalone="no"?>
<svg
   xmlns:dc="http://purl.org/dc/elements/1.1/"
   xmlns:cc="http://creativecommons.org/ns#"
   xmlns:rdf="http://www.w3.org/1999/02/22-rdf-syntax-ns#"
   xmlns:svg="http://www.w3.org/2000/svg"
   xmlns="http://www.w3.org/2000/svg"
   xmlns:xlink="http://www.w3.org/1999/xlink"
   xmlns:sodipodi="http://sodipodi.sourceforge.net/DTD/sodipodi-0.dtd"
   xmlns:inkscape="http://www.inkscape.org/namespaces/inkscape"
   version="1.1"
   preserveAspectRatio="xMidYMid meet"
   viewBox="0 0 640 640"
   width="64"
   height="64"
   id="svg70"
   sodipodi:docname="org.kde.kbruch.svg"
   inkscape:version="0.92.4 5da689c313, 2019-01-14">
  <metadata
     id="metadata74">
    <rdf:RDF>
      <cc:Work
         rdf:about="">
        <dc:format>image/svg+xml</dc:format>
        <dc:type
           rdf:resource="http://purl.org/dc/dcmitype/StillImage" />
      </cc:Work>
    </rdf:RDF>
  </metadata>
  <sodipodi:namedview
     pagecolor="#ffffff"
     bordercolor="#666666"
     borderopacity="1"
     objecttolerance="10"
     gridtolerance="10"
     guidetolerance="10"
     inkscape:pageopacity="0"
     inkscape:pageshadow="2"
     inkscape:window-width="1850"
     inkscape:window-height="1048"
     id="namedview72"
     showgrid="false"
     inkscape:zoom="5.2149125"
     inkscape:cx="15.893952"
     inkscape:cy="12.764419"
     inkscape:window-x="70"
     inkscape:window-y="32"
     inkscape:window-maximized="1"
     inkscape:current-layer="g68" />
  <defs
     id="defs12">
    <path
       d="M17.59 18.16L622.41 18.16L622.41 626.4L17.59 626.4L17.59 18.16Z"
       id="akwnWZUIl" />
    <path
       d="M49.48 51.19L589.38 51.19L589.38 592.23L49.48 592.23L49.48 51.19Z"
       id="i29BmeGWRJ" />
    <path
       d="M141.98 188.24C136.62 194.11 133.56 202.19 132.8 212.47C141.98 206.59 151.92 203.66 161.86 203.66C175.62 203.66 187.09 208.06 196.26 216.87C205.44 225.69 210.03 237.43 210.03 251.38C210.03 266.07 204.68 277.08 195.5 285.89C186.32 294.71 173.33 299.11 158.03 299.11C147.33 299.11 138.15 296.91 130.51 293.24C122.86 289.57 116.74 283.69 112.92 277.08C104.51 263.87 99.92 246.98 99.92 226.42C99.92 213.2 101.45 202.19 105.27 191.91C108.33 182.36 112.92 174.29 119.04 168.41C130.51 158.13 144.27 152.26 161.09 152.26C167.97 152.26 174.85 152.99 180.97 155.19C187.09 157.4 192.44 158.87 195.5 161.07C198.56 163.27 202.38 165.47 206.97 169.15C205.44 171.35 193.21 188.97 191.68 191.17C190.91 190.44 189.38 188.97 187.85 188.24C186.32 186.77 183.27 185.3 177.91 183.1C172.56 180.89 167.97 179.43 163.39 179.43C154.21 179.43 147.33 182.36 141.98 188.24ZM142.74 236.7C138.15 240.37 135.86 245.51 135.86 251.38C135.86 257.26 138.15 262.4 141.98 266.8C146.56 271.21 151.15 273.41 158.03 273.41C164.15 273.41 169.5 271.21 174.09 267.54C178.68 263.87 180.21 258.73 180.21 252.85C180.21 246.98 178.68 241.84 174.86 237.43C171.03 233.03 165.68 230.82 159.56 230.82C152.68 230.82 147.33 233.03 142.74 236.7Z"
       id="a6C8Avam" />
    <path
       d="M73.87 310.89L252.7 310.89L252.7 329.11L73.87 329.11L73.87 310.89Z"
       id="ai0y4hqX3" />
    <path
       d="M175.05 442.06C175.05 428.71 165.85 426.12 153.52 426.12C145.89 426.12 143.43 420.14 143.43 414.17C143.43 408.19 145.89 402.21 153.52 402.21C162.04 402.21 171.01 401.22 171.01 385.08C171.01 373.52 163.61 370.73 154.41 370.73C143.43 370.73 137.82 373.12 137.82 380.89C137.82 382.34 135.92 383.02 132.13 382.91C132.13 382.91 107.78 383.25 107.78 383.25C104.78 383.42 103.28 382.63 103.28 380.89C103.28 365.35 115.84 344.03 154.41 344.03C182.89 344.03 204.42 353.19 204.42 380.09C204.42 394.64 198.37 408.19 187.15 412.77C200.39 417.16 210.03 425.92 210.03 442.06C210.03 442.44 210.03 445.47 210.03 445.85C210.03 478.53 184.69 490.88 153.29 490.88C114.72 490.88 99.92 469.96 99.92 453.22C99.92 452.47 100.61 452.1 101.98 452.11C101.98 452.11 131 451.07 131 451.07C133.3 450.88 134.45 451.27 134.45 452.23C134.45 461.59 144.32 463.78 154.41 463.78C169.66 463.78 175.05 458.8 175.05 445.85C175.05 445.09 175.05 442.44 175.05 442.06Z"
       id="bnVBZgRrC" />
    <path
       d="M296.65 274.44L385.49 274.44L385.49 302.91L296.65 302.91L296.65 274.44Z"
       id="gfDwieTc9" />
    <path
       d="M295.51 329.11L384.36 329.11L384.36 357.59L295.51 357.59L295.51 329.11Z"
       id="ayKWVMeDC" />
    <path
       d="M496.06 273.99C496.06 269.54 494.49 265.09 491.34 262.12C488.2 259.15 483.48 256.93 478.76 256.93C469.32 256.93 459.88 263.6 451.23 276.21C448.48 274.73 426.46 262.86 423.7 261.38C430.78 251 438.65 242.84 447.3 237.65C455.95 232.45 466.96 229.49 479.55 229.49C492.13 229.49 503.93 233.2 514.15 241.35C524.38 249.51 529.09 259.9 529.09 273.25C529.09 280.66 526.74 288.08 522.8 294.76C518.87 301.43 511.79 310.33 500.78 320.72C498.95 322.5 489.77 331.4 473.25 347.42L533.81 347.42L533.81 376.34L426.06 376.34L426.06 352.61C452.96 326.8 467.91 312.46 470.89 309.59C480.33 300.69 486.62 294.01 490.56 288.82C494.49 283.63 496.06 278.44 496.06 273.99Z"
       id="a21MRUk0GG" />
    <path
       d="M362.71 575.14L434.47 575.14L434.47 592.23L362.71 592.23L362.71 575.14Z"
       id="a6LWxTBWi" />
    <path
       d="M459.03 575.14L530.79 575.14L530.79 592.23L459.03 592.23L459.03 575.14Z"
       id="e3E0GBVuhM" />
  </defs>
  <g
     id="g68">
    <g
       id="g66">
      <g
         id="g16">
        <use
           xlink:href="#akwnWZUIl"
           opacity="1"
           fill="#c8a873"
           fill-opacity="1"
           id="use14" />
      </g>
      <g
         id="g20">
        <use
           xlink:href="#i29BmeGWRJ"
           opacity="1"
           fill="#575655"
           fill-opacity="1"
           id="use18" />
      </g>
      <g
         id="g28"
         transform="translate(15.340622,7.6703108)"
         style="fill:#c8a873;fill-opacity:1">
        <use
           xlink:href="#a6C8Avam"
           id="use22"
           style="opacity:1;fill:#c8a873;fill-opacity:1"
           x="0"
           y="0"
           width="100%"
           height="100%" />
        <g
           id="g26"
           style="fill:#c8a873;fill-opacity:1">
          <use
             xlink:href="#a6C8Avam"
             id="use24"
             style="opacity:1;fill-opacity:1;stroke:#000000;stroke-width:1;stroke-opacity:0;fill:#c8a873"
             x="0"
             y="0"
             width="100%"
             height="100%" />
        </g>
      </g>
      <g
         id="g32"
         transform="translate(15.340622,7.6703108)"
         style="fill:#c8a873;fill-opacity:1">
        <use
           xlink:href="#ai0y4hqX3"
           id="use30"
           style="opacity:1;fill:#c8a873;fill-opacity:1"
           x="0"
           y="0"
           width="100%"
           height="100%" />
      </g>
      <g
         id="g40"
         transform="translate(15.340622,7.6703108)"
         style="fill:#c8a873;fill-opacity:1">
        <use
           xlink:href="#bnVBZgRrC"
           id="use34"
           style="opacity:1;fill:#c8a873;fill-opacity:1"
           x="0"
           y="0"
           width="100%"
           height="100%" />
        <g
           id="g38"
           style="fill:#c8a873;fill-opacity:1">
          <use
             xlink:href="#bnVBZgRrC"
             id="use36"
             style="opacity:1;fill-opacity:1;stroke:#000000;stroke-width:1;stroke-opacity:0;fill:#c8a873"
             x="0"
             y="0"
             width="100%"
             height="100%" />
        </g>
      </g>
      <g
         id="g44"
         transform="translate(15.340622,7.6703108)"
         style="fill:#c8a873;fill-opacity:1">
        <use
           xlink:href="#gfDwieTc9"
           id="use42"
           style="opacity:1;fill:#c8a873;fill-opacity:1"
           x="0"
           y="0"
           width="100%"
           height="100%" />
      </g>
      <g
         id="g48"
         transform="translate(15.340622,7.6703108)"
         style="fill:#c8a873;fill-opacity:1">
        <use
           xlink:href="#ayKWVMeDC"
           id="use46"
           style="opacity:1;fill:#c8a873;fill-opacity:1"
           x="0"
           y="0"
           width="100%"
           height="100%" />
      </g>
      <g
         id="g56"
         transform="translate(15.340622,7.6703108)"
         style="fill:#c8a873;fill-opacity:1">
        <use
           xlink:href="#a21MRUk0GG"
           id="use50"
           style="opacity:1;fill:#c8a873;fill-opacity:1"
           x="0"
           y="0"
           width="100%"
           height="100%" />
        <g
           id="g54"
           style="fill:#c8a873;fill-opacity:1">
          <use
             xlink:href="#a21MRUk0GG"
             id="use52"
             style="opacity:1;fill-opacity:1;stroke:#000000;stroke-width:1;stroke-opacity:0;fill:#c8a873"
             x="0"
             y="0"
             width="100%"
             height="100%" />
        </g>
      </g>
    </g>
  </g>
</svg>
