<?xml version="1.0" encoding="UTF-8" standalone="no"?>
<!DOCTYPE svg PUBLIC "-//W3C//DTD SVG 1.1//EN" "http://www.w3.org/Graphics/SVG/1.1/DTD/svg11.dtd">
<svg version="1.1" xmlns="http://www.w3.org/2000/svg" xmlns:xlink="http://www.w3.org/1999/xlink" preserveAspectRatio="xMidYMid meet" viewBox="0 0 640 640" width="64" height="64"><defs><path d="M605.62 318.75C605.62 473.29 476.73 598.75 317.96 598.75C159.2 598.75 30.3 473.29 30.3 318.75C30.3 164.21 159.2 38.75 317.96 38.75C476.73 38.75 605.62 164.21 605.62 318.75Z" id="b12gru6sQL"></path><path d="M30.3 319.24C30.3 477.15 160 605.15 320 605.15C480 605.15 609.7 477.15 609.7 319.24C609.7 161.34 480 33.33 320 33.33C160 33.33 30.3 161.34 30.3 319.24ZM66.52 319.24C66.52 181.08 180 69.07 320 69.07C460 69.07 573.48 181.08 573.48 319.24C573.48 457.41 460 569.41 320 569.41C180 569.41 66.52 457.41 66.52 319.24Z" id="agVC3aQsE"></path><path d="M229.47 194.16C209.47 194.16 193.26 210.16 193.26 229.9C193.26 249.63 209.47 265.63 229.47 265.63C249.47 265.63 265.68 249.63 265.68 229.9C265.68 210.16 249.47 194.16 229.47 194.16Z" id="hDqlmleup"></path><path d="M410.53 194.16C390.53 194.16 374.32 210.16 374.32 229.9C374.32 249.63 390.53 265.63 410.53 265.63C430.53 265.63 446.74 249.63 446.74 229.9C446.74 210.16 430.53 194.16 410.53 194.16Z" id="h2HH7A6oae"></path><path d="M417.85 396.93C390.55 434.36 351.27 444.33 320 444.33C250 444.33 193.26 388.33 193.26 319.24C189.64 319.24 160.67 319.24 157.05 319.24C157.05 408.06 230 480.07 320 480.07C410 480.07 482.95 408.06 482.95 319.24C480.54 319.24 468.47 319.24 446.74 319.24C440.93 352.59 431.29 378.49 417.85 396.93Z" id="a2hDYYaO15"></path></defs><g><g><g><use xlink:href="#b12gru6sQL" opacity="1" fill="#c8c8c8" fill-opacity="1"></use></g><g><use xlink:href="#agVC3aQsE" opacity="1" fill="#4a4a4a" fill-opacity="1"></use><g><use xlink:href="#agVC3aQsE" opacity="1" fill-opacity="0" stroke="#000000" stroke-width="1" stroke-opacity="0"></use></g></g><g><use xlink:href="#hDqlmleup" opacity="1" fill="#4a4a4a" fill-opacity="1"></use><g><use xlink:href="#hDqlmleup" opacity="1" fill-opacity="0" stroke="#000000" stroke-width="1" stroke-opacity="0"></use></g></g><g><use xlink:href="#h2HH7A6oae" opacity="1" fill="#4a4a4a" fill-opacity="1"></use><g><use xlink:href="#h2HH7A6oae" opacity="1" fill-opacity="0" stroke="#000000" stroke-width="1" stroke-opacity="0"></use></g></g><g><use xlink:href="#a2hDYYaO15" opacity="1" fill="#4a4a4a" fill-opacity="1"></use><g><use xlink:href="#a2hDYYaO15" opacity="1" fill-opacity="0" stroke="#000000" stroke-width="1" stroke-opacity="0"></use></g></g></g></g></svg>