<?xml version="1.0" encoding="UTF-8" standalone="no"?><!DOCTYPE svg PUBLIC "-//W3C//DTD SVG 1.1//EN" "http://www.w3.org/Graphics/SVG/1.1/DTD/svg11.dtd"><svg width="100%" height="100%" viewBox="0 0 1024 1024" version="1.1" xmlns="http://www.w3.org/2000/svg" xmlns:xlink="http://www.w3.org/1999/xlink" xml:space="preserve" xmlns:serif="http://www.serif.com/" style="fill-rule:evenodd;clip-rule:evenodd;stroke-linecap:round;stroke-linejoin:round;stroke-miterlimit:1.5;"><circle cx="510.926" cy="509.981" r="482.402" style="fill:#ffae5c;"/><path d="M834.55,324.994c0,-13.127 -5.214,-25.716 -14.497,-34.999c-9.282,-9.282 -21.872,-14.497 -34.999,-14.497l-546.108,0c-13.127,0 -25.717,5.215 -34.999,14.497c-9.283,9.283 -14.497,21.872 -14.497,34.999l0,396.807c0,13.127 5.214,25.717 14.497,34.999c9.282,9.283 21.872,14.497 34.999,14.497l546.108,0c13.127,0 25.717,-5.214 34.999,-14.497c9.283,-9.282 14.497,-21.872 14.497,-34.999l0,-396.807Z" style="fill:none;stroke:#ffdfbf;stroke-width:6.29px;"/><path d="M451.786,594.837l0,36.931l-183.866,0l0,-36.931l183.866,0Zm15.79,-69.931l0,36.93l-199.656,0l0,-36.93l199.656,0Zm-15.79,-68.981l0,36.93l-183.866,0l0,-36.93l183.866,0Zm15.79,-68.526l0,36.931l-199.656,0l0,-36.931l199.656,0Z" style="fill:#ffdfbf;"/><circle cx="582.545" cy="593.57" r="38.197" style="fill:#ffdfbf;"/><path d="M540.893,480.406c0,0 0.221,9.257 0.419,17.567c0.168,7.036 5.776,12.729 12.809,13.002c70.701,2.599 102.55,42.109 107.521,108.788c0.544,7.119 6.602,12.544 13.738,12.301c9.137,-0.304 19.693,-0.664 19.693,-0.664c-0.211,-97.604 -53.302,-156.237 -154.18,-150.994Z" style="fill:#ffdfbf;"/><path d="M540.165,408.349c0,0 0.225,9.447 0.425,17.821c0.168,7.001 5.723,12.679 12.719,12.998c121.167,5.662 172.155,80.114 180.564,181.051c0.585,7.085 6.628,12.463 13.733,12.221c9.185,-0.307 19.907,-0.672 19.907,-0.672c-2.984,-154.171 -86.714,-225.08 -227.348,-223.419Z" style="fill:#ffdfbf;"/></svg>