<?xml version="1.0" encoding="UTF-8" standalone="no"?>
<svg
   xmlns:dc="http://purl.org/dc/elements/1.1/"
   xmlns:cc="http://creativecommons.org/ns#"
   xmlns:rdf="http://www.w3.org/1999/02/22-rdf-syntax-ns#"
   xmlns:svg="http://www.w3.org/2000/svg"
   xmlns="http://www.w3.org/2000/svg"
   xmlns:xlink="http://www.w3.org/1999/xlink"
   xmlns:sodipodi="http://sodipodi.sourceforge.net/DTD/sodipodi-0.dtd"
   xmlns:inkscape="http://www.inkscape.org/namespaces/inkscape"
   version="1.1"
   preserveAspectRatio="xMidYMid meet"
   viewBox="0 0 640 640"
   width="64"
   height="64"
   id="svg49"
   sodipodi:docname="org.kde.kpatience.svg"
   inkscape:version="0.92.4 5da689c313, 2019-01-14">
  <metadata
     id="metadata53">
    <rdf:RDF>
      <cc:Work
         rdf:about="">
        <dc:format>image/svg+xml</dc:format>
        <dc:type
           rdf:resource="http://purl.org/dc/dcmitype/StillImage" />
      </cc:Work>
    </rdf:RDF>
  </metadata>
  <sodipodi:namedview
     pagecolor="#ffffff"
     bordercolor="#666666"
     borderopacity="1"
     objecttolerance="10"
     gridtolerance="10"
     guidetolerance="10"
     inkscape:pageopacity="0"
     inkscape:pageshadow="2"
     inkscape:window-width="1850"
     inkscape:window-height="1048"
     id="namedview51"
     showgrid="false"
     inkscape:zoom="3.6875"
     inkscape:cx="-6.4331952"
     inkscape:cy="53.395602"
     inkscape:window-x="70"
     inkscape:window-y="32"
     inkscape:window-maximized="1"
     inkscape:current-layer="g11" />
  <defs
     id="defs7">
    <path
       d="M601.56 13.34C615.07 13.24 626.05 24.2 625.98 37.72C625.33 154.32 623.52 480.84 622.87 597.76C622.8 610.48 612.47 620.76 599.74 620.76C483.4 620.76 157.36 620.76 41.01 620.76C28.33 620.76 18.05 610.48 18.05 597.8C18.05 481.77 18.05 156.67 18.05 40.64C18.05 27.92 28.31 17.58 41.04 17.48C158.05 16.62 484.86 14.2 601.56 13.34Z"
       id="ddORzC8YX" />
    <path
       d="M282.86 277.58C282.27 277.95 281.53 277.42 281.68 276.73C283.68 267.1 282.7 256.71 278.14 247.06C268.23 226.09 244.08 215.83 222.53 223.48C197.45 232.38 185.39 260.87 195.65 285.35C199.46 294.44 205.79 301.64 213.45 306.47C214.04 306.84 213.9 307.75 213.24 307.93C211.3 308.47 209.37 309.14 207.47 309.97C183.9 320.25 173.5 348.81 185.38 372.49C195.67 393.01 219.92 402.4 240.99 394.08C261.09 386.15 272.16 365.18 268.93 344.59C268.8 343.76 269.84 343.3 270.34 343.97C282.7 360.58 305.21 366.92 324.72 357.59C345.17 347.8 355.28 323.43 347.86 301.67C339.29 276.55 311.86 264.47 288.29 274.75C286.39 275.58 284.58 276.53 282.86 277.58Z"
       id="axfFPRMo" />
    <path
       d="M600.66 139.96L510.2 120.84L510.49 98.05L419 96.87L413.05 63.89L320.55 81.28L302.13 37.42L32.6 155.21L208.36 573.65C229.26 564.52 240.87 559.44 243.19 558.43C243.39 558.44 243.58 558.45 243.77 558.45C243.83 558.45 244.12 558.45 244.64 558.44L287.24 550.43L346.82 551.2L510.08 585.72L600.66 139.96ZM467.64 460.34L474.43 497.88L311.8 528.44L467.64 460.34ZM488.61 512.58L488.32 535.93L372.32 534.44L470.93 515.91L488.61 512.58ZM487.8 553.02L499.59 553.17L497.08 565.52L434.7 552.33L487.8 553.02ZM505.2 525.55L506.74 401.31L509.99 138.24L580.86 153.23L505.2 525.55ZM488.96 484.06L422.1 113.99L493.52 114.91L488.96 484.06ZM401.93 96.65L401.93 96.65L458.48 409.65L402.45 276.24L327.32 97.38L399.61 83.79L401.93 96.65ZM293.33 59.86L303.67 84.46L303.67 84.46L455.9 446.88C326.54 503.42 254.67 534.83 240.29 541.11C240.29 541.11 240.29 541.11 240.29 541.11C238.74 541.79 231.04 545.16 217.16 551.22L54.59 164.19L293.33 59.86Z"
       id="bOhmBN7u" />
    <path
       d="M273.01 374.08C274.02 376.5 279.1 388.61 288.23 410.4L264.66 420.67L271.24 436.38L333.78 409.12L327.2 393.41L303.63 403.68C294.52 381.93 289.45 369.85 288.44 367.43C293.98 369.4 299.84 370.46 305.8 370.46C305.81 370.46 305.81 370.46 305.81 370.46C313.6 370.46 321.16 368.73 328.28 365.32C352.46 353.75 364.53 324.56 355.77 298.86C348.36 277.14 328.26 262.54 305.76 262.54C300.73 262.54 295.79 263.26 291 264.69C290.68 257.36 288.9 250.15 285.68 243.35C276.8 224.55 257.76 212.41 237.19 212.41C231.24 212.41 225.38 213.42 219.77 215.42C205.5 220.48 194.29 231 188.21 245.04C182.22 258.88 182.12 274.8 187.95 288.71C190.51 294.82 194.08 300.32 198.49 305.03C187.79 311.36 179.47 321.42 175.22 333.39C170.18 347.6 171.14 362.87 177.92 376.39C186.84 394.16 205.36 405.65 225.11 405.65C231.61 405.65 237.97 404.44 244.01 402.05C257.2 396.85 267.4 386.57 273.01 374.08ZM190.98 339.2C194.42 329.48 201.45 321.89 210.76 317.83C212.25 317.18 213.83 316.62 215.43 316.18C218.95 315.2 221.57 312.19 222.1 308.5C222.63 304.82 220.96 301.17 217.85 299.21C211.37 295.11 206.35 289.16 203.35 281.99C199.28 272.28 199.35 261.61 203.54 251.94C207.72 242.28 215.44 235.04 225.28 231.55C229.11 230.19 233.12 229.5 237.19 229.5C251.37 229.5 264.49 237.85 270.59 250.76C274.19 258.38 275.19 266.74 273.48 274.96C272.9 277.73 273.57 280.58 275.32 282.77C277.07 284.98 279.67 286.25 282.45 286.25C284.11 286.25 285.75 285.78 287.17 284.9C288.6 284.03 290.08 283.26 291.58 282.6C296.11 280.63 300.88 279.62 305.76 279.62C321.13 279.62 334.87 289.61 339.94 304.48C345.93 322.02 337.68 341.95 321.16 349.85C316.28 352.19 311.12 353.37 305.81 353.37C305.8 353.37 305.8 353.37 305.8 353.37C294.55 353.37 283.79 347.93 277.01 338.81C275.26 336.46 272.6 335.11 269.72 335.11C267.02 335.11 264.47 336.31 262.72 338.4C260.99 340.48 260.23 343.23 260.66 345.94C263.33 362.98 253.78 379.88 237.97 386.12C233.85 387.74 229.53 388.56 225.11 388.56C211.59 388.56 198.92 380.73 192.83 368.6C188.19 359.35 187.53 348.91 190.98 339.2Z"
       id="aVNL0sCdd" />
    <path
       d="M98.21 225.26L109.62 220.28L108.67 207.67L123.68 201.13L132.03 210.52L143.44 205.55L105.25 164.03L95.2 168.41L98.21 225.26ZM107.16 199.07L105.65 179.17L118.57 194.1L107.16 199.07Z"
       id="i1gNmfbchh" />
  </defs>
  <g
     id="g47">
    <g
       id="g45">
      <g
         id="g11"
         style="fill:#aa8484;fill-opacity:1">
        <use
           xlink:href="#ddORzC8YX"
           opacity="1"
           fill="#8d999e"
           fill-opacity="1"
           id="use9"
           style="fill:#aa8484;fill-opacity:1" />
        <path
           style="fill:#d1b4b4;stroke:none;stroke-width:10px;stroke-linecap:butt;stroke-linejoin:miter;stroke-opacity:1;fill-opacity:1"
           d="M 293.33,59.86 54.59,164.19 217.16,551.22 372.32,534.44 462.37288,569.49153 497.08,565.52 505.2,525.55 580.86,153.23 510.2,120.84 493.52,114.91 419,96.87 399.61,83.79 327.32,97.38 Z"
           id="path860"
           inkscape:connector-curvature="0" />
      </g>
      <g
         id="g19"
         style="fill:#7c4a4a;fill-opacity:1">
        <use
           xlink:href="#axfFPRMo"
           opacity="1"
           fill="#6d6b78"
           fill-opacity="1"
           id="use13"
           style="fill:#7c4a4a;fill-opacity:1" />
        <g
           id="g17"
           style="fill:#7c4a4a;fill-opacity:1">
          <use
             xlink:href="#axfFPRMo"
             opacity="1"
             fill-opacity="0"
             stroke="#000000"
             stroke-width="1"
             stroke-opacity="0"
             id="use15"
             style="fill:#7c4a4a;fill-opacity:1" />
        </g>
      </g>
      <g
         id="g27">
        <use
           xlink:href="#bOhmBN7u"
           opacity="1"
           fill="#663d3d"
           fill-opacity="1"
           id="use21" />
        <g
           id="g25">
          <use
             xlink:href="#bOhmBN7u"
             opacity="1"
             fill-opacity="0"
             stroke="#000000"
             stroke-width="1"
             stroke-opacity="0"
             id="use23" />
        </g>
      </g>
      <g
         id="g35">
        <use
           xlink:href="#aVNL0sCdd"
           opacity="1"
           fill="#663d3d"
           fill-opacity="1"
           id="use29" />
        <g
           id="g33">
          <use
             xlink:href="#aVNL0sCdd"
             opacity="1"
             fill-opacity="0"
             stroke="#000000"
             stroke-width="1"
             stroke-opacity="0"
             id="use31" />
        </g>
      </g>
      <g
         id="g43"
         style="fill:#7c4a4a;fill-opacity:1">
        <use
           xlink:href="#i1gNmfbchh"
           opacity="1"
           fill="#663d3d"
           fill-opacity="1"
           id="use37"
           style="fill:#7c4a4a;fill-opacity:1" />
        <g
           id="g41"
           style="fill:#7c4a4a;fill-opacity:1">
          <use
             xlink:href="#i1gNmfbchh"
             opacity="1"
             fill-opacity="0"
             stroke="#000000"
             stroke-width="1"
             stroke-opacity="0"
             id="use39"
             style="fill:#7c4a4a;fill-opacity:1" />
        </g>
      </g>
    </g>
  </g>
</svg>
