<?xml version="1.0" encoding="UTF-8" standalone="no"?>
<svg
   xmlns:dc="http://purl.org/dc/elements/1.1/"
   xmlns:cc="http://creativecommons.org/ns#"
   xmlns:rdf="http://www.w3.org/1999/02/22-rdf-syntax-ns#"
   xmlns:svg="http://www.w3.org/2000/svg"
   xmlns="http://www.w3.org/2000/svg"
   xmlns:xlink="http://www.w3.org/1999/xlink"
   xmlns:sodipodi="http://sodipodi.sourceforge.net/DTD/sodipodi-0.dtd"
   xmlns:inkscape="http://www.inkscape.org/namespaces/inkscape"
   version="1.1"
   preserveAspectRatio="xMidYMid meet"
   viewBox="0 0 640 640"
   width="64"
   height="64"
   id="svg63"
   sodipodi:docname="org.gnome.Reversi1.svg"
   inkscape:version="0.92.5 (2060ec1f9f, 2020-04-08)">
  <metadata
     id="metadata67">
    <rdf:RDF>
      <cc:Work
         rdf:about="">
        <dc:format>image/svg+xml</dc:format>
        <dc:type
           rdf:resource="http://purl.org/dc/dcmitype/StillImage" />
      </cc:Work>
    </rdf:RDF>
  </metadata>
  <sodipodi:namedview
     pagecolor="#ffffff"
     bordercolor="#666666"
     borderopacity="1"
     objecttolerance="10"
     gridtolerance="10"
     guidetolerance="10"
     inkscape:pageopacity="0"
     inkscape:pageshadow="2"
     inkscape:window-width="1850"
     inkscape:window-height="1048"
     id="namedview65"
     showgrid="false"
     inkscape:zoom="5.2149125"
     inkscape:cx="23.257388"
     inkscape:cy="31.081029"
     inkscape:window-x="70"
     inkscape:window-y="32"
     inkscape:window-maximized="1"
     inkscape:current-layer="g61" />
  <defs
     id="defs13">
    <path
       d="M466.15 24.86C545.6 24.86 610.02 89.27 610.02 168.73C610.02 257.55 610.02 380.17 610.02 468.99C610.02 548.45 545.6 612.86 466.15 612.86C379.83 612.86 264.73 612.86 178.41 612.86C98.95 612.86 34.54 548.45 34.54 468.99C34.54 380.17 34.54 257.55 34.54 168.73C34.54 89.27 98.95 24.86 178.41 24.86C264.73 24.86 379.83 24.86 466.15 24.86Z"
       id="aD6SfNGlA" />
    <path
       d="M302.48 182.75C302.48 242.86 253.93 291.66 194.14 291.66C134.34 291.66 85.8 242.86 85.8 182.75C85.8 122.64 134.34 73.84 194.14 73.84C253.93 73.84 302.48 122.64 302.48 182.75Z"
       id="a4oQ6vyHEm" />
    <path
       d="M552.56 178.83C552.56 238.94 504.02 287.74 444.22 287.74C384.43 287.74 335.88 238.94 335.88 178.83C335.88 118.72 384.43 69.92 444.22 69.92C504.02 69.92 552.56 118.72 552.56 178.83Z"
       id="a2IpXxs0i" />
    <path
       d="M552.56 436.88C552.56 496.99 504.02 545.8 444.22 545.8C384.43 545.8 335.88 496.99 335.88 436.88C335.88 376.77 384.43 327.97 444.22 327.97C504.02 327.97 552.56 376.77 552.56 436.88Z"
       id="a3mbdZiwWS" />
    <path
       d="M302.48 436.88C302.48 496.99 253.93 545.8 194.14 545.8C134.34 545.8 85.8 496.99 85.8 436.88C85.8 376.77 134.34 327.97 194.14 327.97C253.93 327.97 302.48 376.77 302.48 436.88Z"
       id="bCtV87qFS" />
    <path
       d="M471.81 147.81L523.45 154.56L486.08 187.31L494.9 233.57L448.71 211.73L402.52 233.57L411.34 187.31L373.97 154.56L425.62 147.81L448.71 105.73L471.81 147.81Z"
       id="i7NzLs9g6" />
    <path
       d="M217.23 409.28L268.88 416.03L231.51 448.79L240.33 495.04L194.14 473.2L147.95 495.04L156.77 448.79L119.4 416.03L171.04 409.28L194.14 367.2L217.23 409.28Z"
       id="a4P9iWvfK" />
    <path
       d="M217.23 156.99L268.88 163.74L231.51 196.49L240.33 242.75L194.14 220.91L147.95 242.75L156.77 196.49L119.4 163.74L171.04 156.99L194.14 114.91L217.23 156.99Z"
       id="aMJ86LwhZ" />
    <path
       d="M229.55 173.12L268.6 207.58L219.31 213.86L200.77 257.15L174.67 213.22L124.16 205.52L157.33 172.09L144.64 124.04L191.25 147.31L233.91 125.32L229.55 173.12Z"
       id="c1xZhZultV" />
    <path
       d="M481.88 428.9L520.93 463.36L471.64 469.64L453.1 512.92L427 469L376.49 461.3L409.66 427.87L396.97 379.82L443.57 403.09L486.24 381.1L481.88 428.9Z"
       id="cbO0Dg9fMc" />
    <path
       d="M471.81 409.28L523.45 416.03L486.08 448.79L494.9 495.04L448.71 473.2L402.52 495.04L411.34 448.79L373.97 416.03L425.62 409.28L448.71 367.2L471.81 409.28Z"
       id="bedmRlyjW" />
  </defs>
  <g
     id="g61">
    <g
       id="g59">
      <g
         id="g17"
         style="fill:#bdb795;fill-opacity:1">
        <use
           xlink:href="#aD6SfNGlA"
           opacity="1"
           fill="#9f9f9c"
           fill-opacity="1"
           id="use15"
           style="fill:#bdb795;fill-opacity:1" />
      </g>
      <g
         id="g21"
         style="fill:#fff1a7;fill-opacity:1">
        <use
           xlink:href="#a4oQ6vyHEm"
           opacity="1"
           fill="#868686"
           fill-opacity="1"
           id="use19"
           style="fill:#fff1a7;fill-opacity:1" />
      </g>
      <g
         id="g25">
        <use
           xlink:href="#a2IpXxs0i"
           opacity="1"
           fill="#4d4d4d"
           fill-opacity="1"
           id="use23" />
      </g>
      <g
         id="g29"
         style="fill:#fff1a7;fill-opacity:1">
        <use
           xlink:href="#a3mbdZiwWS"
           opacity="1"
           fill="#868686"
           fill-opacity="1"
           id="use27"
           style="fill:#fff1a7;fill-opacity:1" />
      </g>
      <g
         id="g33">
        <use
           xlink:href="#bCtV87qFS"
           opacity="1"
           fill="#4d4d4d"
           fill-opacity="1"
           id="use31" />
      </g>
      <g
         id="g37"
         style="fill:#bbb17b;fill-opacity:1">
        <use
           xlink:href="#i7NzLs9g6"
           opacity="1"
           fill="#b7b7b4"
           fill-opacity="1"
           id="use35"
           style="fill:#bbb17b;fill-opacity:1" />
      </g>
      <g
         id="g41"
         style="fill:#bbb17b;fill-opacity:1">
        <use
           xlink:href="#a4P9iWvfK"
           opacity="1"
           fill="#b7b7b4"
           fill-opacity="1"
           id="use39"
           style="fill:#bbb17b;fill-opacity:1" />
      </g>
      <g
         id="g45"
         style="fill:#bbb17b;fill-opacity:1">
        <use
           xlink:href="#aMJ86LwhZ"
           opacity="1"
           fill="#b7b7b4"
           fill-opacity="1"
           id="use43"
           style="fill:#bbb17b;fill-opacity:1" />
      </g>
      <g
         id="g49"
         style="fill:#bbb17b;fill-opacity:1">
        <use
           xlink:href="#c1xZhZultV"
           opacity="1"
           fill="#b7b7b4"
           fill-opacity="1"
           id="use47"
           style="fill:#bbb17b;fill-opacity:1" />
      </g>
      <g
         id="g53"
         style="fill:#bbb17b;fill-opacity:1">
        <use
           xlink:href="#cbO0Dg9fMc"
           opacity="1"
           fill="#b7b7b4"
           fill-opacity="1"
           id="use51"
           style="fill:#bbb17b;fill-opacity:1" />
      </g>
      <g
         id="g57"
         style="fill:#bbb17b;fill-opacity:1">
        <use
           xlink:href="#bedmRlyjW"
           opacity="1"
           fill="#b7b7b4"
           fill-opacity="1"
           id="use55"
           style="fill:#bbb17b;fill-opacity:1" />
      </g>
    </g>
  </g>
</svg>
