<?xml version="1.0" encoding="UTF-8" standalone="no"?>
<svg
   xmlns:dc="http://purl.org/dc/elements/1.1/"
   xmlns:cc="http://creativecommons.org/ns#"
   xmlns:rdf="http://www.w3.org/1999/02/22-rdf-syntax-ns#"
   xmlns:svg="http://www.w3.org/2000/svg"
   xmlns="http://www.w3.org/2000/svg"
   xmlns:xlink="http://www.w3.org/1999/xlink"
   xmlns:sodipodi="http://sodipodi.sourceforge.net/DTD/sodipodi-0.dtd"
   xmlns:inkscape="http://www.inkscape.org/namespaces/inkscape"
   version="1.1"
   preserveAspectRatio="xMidYMid meet"
   viewBox="0 0 640 640"
   width="64"
   height="64"
   id="svg125"
   sodipodi:docname="org.kde.kanagram.svg"
   inkscape:version="0.92.4 5da689c313, 2019-01-14">
  <metadata
     id="metadata129">
    <rdf:RDF>
      <cc:Work
         rdf:about="">
        <dc:format>image/svg+xml</dc:format>
        <dc:type
           rdf:resource="http://purl.org/dc/dcmitype/StillImage" />
      </cc:Work>
    </rdf:RDF>
  </metadata>
  <sodipodi:namedview
     pagecolor="#ffffff"
     bordercolor="#666666"
     borderopacity="1"
     objecttolerance="10"
     gridtolerance="10"
     guidetolerance="10"
     inkscape:pageopacity="0"
     inkscape:pageshadow="2"
     inkscape:window-width="1850"
     inkscape:window-height="1048"
     id="namedview127"
     showgrid="false"
     inkscape:zoom="2.6074563"
     inkscape:cx="7.4851379"
     inkscape:cy="28.324877"
     inkscape:window-x="70"
     inkscape:window-y="32"
     inkscape:window-maximized="1"
     inkscape:current-layer="g121" />
  <defs
     id="defs23">
    <path
       d="M25.06 23.37L622.81 23.37L622.81 618.88L25.06 618.88L25.06 23.37Z"
       id="bJD8bs5Ct" />
    <path
       d="M47.53 46.82L600.34 46.82L600.34 597.38L47.53 597.38L47.53 46.82Z"
       id="h15n2th7m9" />
    <path
       d="M112.11 78.89L124.53 53.25L185.48 193.53L163.5 192.31L112.11 78.89Z"
       id="a5vQAk3cm7" />
    <path
       d="M133.78 78.39L123.23 49.82L59.66 188.92L83.7 188.92L133.78 78.39Z"
       id="a3NwCMDyVU" />
    <path
       d="M102.93 129.14L146.75 129.14L146.75 147.12L102.93 147.12L102.93 129.14Z"
       id="e1eycJsArR" />
    <path
       d="M344.69 100.07L320.37 93.57L378.01 45.74L408.64 45.27L344.69 100.07Z"
       id="f2js2mTGjp" />
    <path
       d="M399.69 158.5L398.13 188.92L511.36 86.11L497.27 70.64L399.69 158.5Z"
       id="e1vnfe21F9" />
    <path
       d="M320 93.39L415.65 87.34L407.39 109.2L330.72 112.22L320 93.39Z"
       id="c25AYQNjK9" />
    <path
       d="M380.62 175.06L393.57 105.26L415.65 87.34L398.13 188.92L380.62 175.06Z"
       id="cOOsGGpKx" />
    <path
       d="M329.52 255.72C329.9 250.47 331.42 245.77 333.94 241.67C336.38 237.81 340.13 234.73 345.43 232.54C348.96 231.25 352.45 230.67 355.8 231.05C359.41 231.43 362.71 232.54 365.85 234.3C368.99 236.07 371.82 238.55 374.36 241.56C376.89 244.56 379.01 248.03 380.7 251.87C383.31 250.84 404.21 242.6 406.82 241.57C403.39 233.52 399.07 226.61 394 220.81C388.93 215 383.14 210.58 376.82 207.36C370.49 204.15 363.77 202.5 356.58 202.23C349.4 201.96 342.06 203.25 334.62 206.18C325.13 209.92 317.64 215.07 312.17 221.73C306.7 228.39 302.94 235.97 300.93 244.57C298.92 253.17 298.49 262.34 299.75 272.16C301 281.97 303.62 291.84 307.55 301.8C307.74 302.28 309.24 306.09 309.43 306.57C313.39 316.61 318.27 325.6 324.05 333.63C329.83 341.66 336.4 348.07 343.7 352.9C351 357.73 358.92 360.71 367.54 361.82C376.15 362.93 385.15 361.59 394.63 357.85C401.49 355.15 407.4 351.32 412.33 346.27C417.26 341.23 421.08 335.52 423.76 329.06C426.44 322.6 427.97 315.79 428.14 308.52C428.31 301.25 427.25 294.06 424.67 286.87C422.06 287.9 401.16 296.14 398.55 297.17C399.83 300.86 400.4 304.44 400.32 308.08C400.23 311.71 399.5 315 398.17 318.03C396.83 321.06 394.96 323.8 392.52 326.16C390.19 328.38 387.51 330.14 384.37 331.37C379.05 333.27 374.23 333.67 369.7 332.45C364.96 331.11 360.64 328.71 356.79 325.13C352.93 321.55 349.49 317.1 346.44 311.7C343.38 306.3 340.9 300.87 338.62 295.06C338.43 294.59 336.93 290.78 336.74 290.3C334.42 284.41 332.5 278.46 331.08 272.52C329.67 266.57 329.15 260.97 329.52 255.72Z"
       id="kaEyvJtFR" />
    <path
       d="M346.29 463.09C358.77 503.41 337.77 545.78 299.43 557.65C261.08 569.52 219.82 546.42 207.34 506.1C194.86 465.79 215.86 423.42 254.21 411.55C292.55 399.68 333.81 422.78 346.29 463.09Z"
       id="eK14BtgHp" />
    <path
       d="M328.52 484.6C328.52 515.54 305.36 540.66 276.82 540.66C248.28 540.66 225.11 515.54 225.11 484.6C225.11 453.66 248.28 428.54 276.82 428.54C305.36 428.54 328.52 453.66 328.52 484.6Z"
       id="acFG23Ryl" />
    <path
       d="M573.39 501.04C586.92 481.56 579 452.56 555.72 436.4C551.04 433.14 527.59 416.85 485.39 387.54L474.48 403.24L483.86 409.75L418.42 503.96L409.04 497.45L398.13 513.15C440.34 542.46 463.79 558.75 468.47 562.01C491.75 578.17 521.69 575.48 535.22 556C542.92 544.91 543.67 530.74 538.6 517.61C552.67 517.78 565.69 512.13 573.39 501.04ZM437.18 516.99L464.44 477.74C489.76 495.33 503.83 505.1 506.65 507.05C519.57 516.03 523.98 532.14 516.46 542.97C508.94 553.79 492.31 555.29 479.38 546.31C473.75 542.4 459.69 532.62 437.18 516.99ZM475.35 462.04L502.61 422.78C527.94 440.37 542 450.15 544.82 452.1C557.75 461.08 562.15 477.19 554.63 488.01C547.12 498.83 530.48 500.33 517.55 491.35C511.93 487.44 497.86 477.67 475.35 462.04Z"
       id="aCt1Wgww" />
    <path
       d="M569.26 217.97L582.89 231.21L509.04 307.24L495.41 294.01L569.26 217.97Z"
       id="d1sjVmX6M0" />
    <path
       d="M601.08 270.21L600.94 294.59L550.15 349.24L536.52 336.01L601.08 270.21Z"
       id="bhxn1FsLw" />
    <path
       d="M564.48 226.9L582.89 231.59L555.94 337.49L536.52 336.31L564.48 226.9Z"
       id="g7FeimcaQU" />
    <path
       d="M158.27 325.27L172.36 345.55L43.61 436.77L44.05 406.18L158.27 325.27Z"
       id="bKr9F1YuQ" />
    <path
       d="M189.16 383.89L210.04 408.6L114.25 405.49L115.28 380.82L189.16 383.89Z"
       id="b2NSpa1WZ0" />
    <path
       d="M91.48 501.65L76.18 469.48L106.31 380.57L129.69 388.49L91.48 501.65Z"
       id="abzvb9RyS" />
    <path
       d="M217.99 311.07L191.87 303.21L232.23 169.12L258.35 176.98L217.99 311.07Z"
       id="c5poFd90I" />
    <path
       d="M245.45 123.39L271.72 130.72L264.69 155.92L238.42 148.59L245.45 123.39Z"
       id="a1pTGB8s05" />
  </defs>
  <g
     id="g123">
    <g
       id="g121">
      <g
         id="g27"
         style="fill:#6f917c;fill-opacity:1">
        <use
           xlink:href="#bJD8bs5Ct"
           opacity="1"
           fill="#bfbfbf"
           fill-opacity="1"
           id="use25"
           style="fill:#6f917c;fill-opacity:1" />
      </g>
      <g
         id="g31">
        <use
           xlink:href="#h15n2th7m9"
           id="use29"
           style="fill:#4b5d42;fill-opacity:1"
           fill-opacity="1"
           fill="#29391e"
           opacity="1" />
      </g>
      <g
         id="g35"
         style="fill:#6f917c">
        <use
           xlink:href="#a5vQAk3cm7"
           opacity="1"
           fill="#bfbfbf"
           fill-opacity="1"
           id="use33"
           style="fill:#6f917c" />
      </g>
      <g
         id="g39"
         style="fill:#6f917c">
        <use
           xlink:href="#a3NwCMDyVU"
           opacity="1"
           fill="#bfbfbf"
           fill-opacity="1"
           id="use37"
           style="fill:#6f917c" />
      </g>
      <g
         id="g43"
         style="fill:#6f917c">
        <use
           xlink:href="#e1eycJsArR"
           opacity="1"
           fill="#bfbfbf"
           fill-opacity="1"
           id="use41"
           style="fill:#6f917c" />
      </g>
      <g
         id="g47"
         style="fill:#6f917c">
        <use
           xlink:href="#f2js2mTGjp"
           opacity="1"
           fill="#bfbfbf"
           fill-opacity="1"
           id="use45"
           style="fill:#6f917c" />
      </g>
      <g
         id="g51"
         style="fill:#6f917c">
        <use
           xlink:href="#e1vnfe21F9"
           opacity="1"
           fill="#bfbfbf"
           fill-opacity="1"
           id="use49"
           style="fill:#6f917c" />
      </g>
      <g
         id="g55"
         style="fill:#6f917c">
        <use
           xlink:href="#c25AYQNjK9"
           opacity="1"
           fill="#bfbfbf"
           fill-opacity="1"
           id="use53"
           style="fill:#6f917c" />
      </g>
      <g
         id="g59"
         style="fill:#6f917c">
        <use
           xlink:href="#cOOsGGpKx"
           opacity="1"
           fill="#bfbfbf"
           fill-opacity="1"
           id="use57"
           style="fill:#6f917c" />
      </g>
      <g
         id="g67"
         style="fill:#6f917c;fill-opacity:0.46953404">
        <use
           xlink:href="#kaEyvJtFR"
           opacity="1"
           fill="#bfbfbf"
           fill-opacity="1"
           id="use61"
           style="fill:#6f917c;fill-opacity:0.46953404" />
        <g
           id="g65"
           style="fill:#6f917c;fill-opacity:0.46953404">
          <use
             xlink:href="#kaEyvJtFR"
             opacity="1"
             fill-opacity="0"
             stroke="#000000"
             stroke-width="1"
             stroke-opacity="0"
             id="use63"
             style="fill:#6f917c;fill-opacity:0.46953404" />
        </g>
      </g>
      <g
         id="g71"
         style="fill:#6f917c">
        <use
           xlink:href="#eK14BtgHp"
           opacity="1"
           fill="#bfbfbf"
           fill-opacity="1"
           id="use69"
           style="fill:#6f917c" />
      </g>
      <g
         id="g79"
         style="fill:#4b5d42;fill-opacity:1">
        <use
           xlink:href="#acFG23Ryl"
           id="use73"
           style="fill:#4b5d42;fill-opacity:1"
           fill-opacity="1"
           fill="#29391e"
           opacity="1" />
        <g
           id="g77"
           style="fill:#4b5d42;fill-opacity:1">
          <use
             xlink:href="#acFG23Ryl"
             id="use75"
             style="fill:#4b5d42;fill-opacity:1"
             stroke-opacity="1"
             stroke-width="1"
             stroke="#1a2c0e"
             fill-opacity="0"
             opacity="1" />
        </g>
      </g>
      <g
         id="g87"
         style="fill:#6f917c">
        <use
           xlink:href="#aCt1Wgww"
           opacity="1"
           fill="#bfbfbf"
           fill-opacity="1"
           id="use81"
           style="fill:#6f917c" />
        <g
           id="g85"
           style="fill:#6f917c">
          <use
             xlink:href="#aCt1Wgww"
             opacity="1"
             fill-opacity="0"
             stroke="#000000"
             stroke-width="1"
             stroke-opacity="0"
             id="use83"
             style="fill:#6f917c" />
        </g>
      </g>
      <g
         id="g91"
         style="fill:#6f917c">
        <use
           xlink:href="#d1sjVmX6M0"
           opacity="1"
           fill="#bfbfbf"
           fill-opacity="1"
           id="use89"
           style="fill:#6f917c" />
      </g>
      <g
         id="g95"
         style="fill:#6f917c">
        <use
           xlink:href="#bhxn1FsLw"
           opacity="1"
           fill="#bfbfbf"
           fill-opacity="1"
           id="use93"
           style="fill:#6f917c" />
      </g>
      <g
         id="g99"
         style="fill:#6f917c">
        <use
           xlink:href="#g7FeimcaQU"
           opacity="1"
           fill="#bfbfbf"
           fill-opacity="1"
           id="use97"
           style="fill:#6f917c" />
      </g>
      <g
         id="g103"
         style="fill:#5f7a62;fill-opacity:1">
        <use
           xlink:href="#bKr9F1YuQ"
           opacity="1"
           fill="#bfbfbf"
           fill-opacity="1"
           id="use101"
           style="fill:#5f7a62;fill-opacity:1" />
      </g>
      <g
         id="g107"
         style="fill:#5f7a62;fill-opacity:1">
        <use
           xlink:href="#b2NSpa1WZ0"
           opacity="1"
           fill="#bfbfbf"
           fill-opacity="1"
           id="use105"
           style="fill:#5f7a62;fill-opacity:1" />
      </g>
      <g
         id="g111"
         style="fill:#5f7a62;fill-opacity:1">
        <use
           xlink:href="#abzvb9RyS"
           opacity="1"
           fill="#bfbfbf"
           fill-opacity="1"
           id="use109"
           style="fill:#5f7a62;fill-opacity:1" />
      </g>
      <g
         id="g115"
         style="fill:#6f917c;fill-opacity:0.59856629">
        <use
           xlink:href="#c5poFd90I"
           opacity="1"
           fill="#bfbfbf"
           fill-opacity="1"
           id="use113"
           style="fill:#6f917c;fill-opacity:0.59856629" />
      </g>
      <g
         id="g119"
         style="fill:#6f917c;fill-opacity:0.59856629">
        <use
           xlink:href="#a1pTGB8s05"
           opacity="1"
           fill="#bfbfbf"
           fill-opacity="1"
           id="use117"
           style="fill:#6f917c;fill-opacity:0.59856629" />
      </g>
    </g>
  </g>
</svg>
