<?xml version="1.0" encoding="UTF-8" standalone="no"?><!DOCTYPE svg PUBLIC "-//W3C//DTD SVG 1.1//EN" "http://www.w3.org/Graphics/SVG/1.1/DTD/svg11.dtd"><svg width="100%" height="100%" viewBox="0 0 1255 1250" version="1.1" xmlns="http://www.w3.org/2000/svg" xmlns:xlink="http://www.w3.org/1999/xlink" xml:space="preserve" xmlns:serif="http://www.serif.com/" style="fill-rule:evenodd;clip-rule:evenodd;stroke-linejoin:round;stroke-miterlimit:2;"><rect id="parlatype" x="1.005" y="0" width="1250" height="1250" style="fill:none;"/><path d="M1150.27,362.87c0,-144.674 -117.456,-262.13 -262.13,-262.13l-524.26,-0c-144.673,-0 -262.13,117.456 -262.13,262.13l-0,524.26c-0,144.674 117.457,262.13 262.13,262.13l524.26,0c144.674,0 262.13,-117.456 262.13,-262.13l0,-524.26Z" style="fill:#96a199;"/><path d="M1073.45,401.276c-0,-123.476 -100.247,-223.724 -223.724,-223.724l-447.448,0c-123.476,0 -223.724,100.248 -223.724,223.724l0,447.448c0,123.476 100.248,223.724 223.724,223.724l447.448,-0c123.477,-0 223.724,-100.248 223.724,-223.724l-0,-447.448Z" style="fill:#d2d7d4;"/><path d="M323.398,603.896c11.067,-157.497 142.32,-281.809 302.607,-281.809c160.288,0 291.54,124.312 302.608,281.809c-0,0 0.429,49.142 0.64,73.234c0.065,7.495 5.564,13.832 12.974,14.953c0.003,0.001 0.007,0.001 0.01,0.002c8.45,1.279 14.264,9.166 12.985,17.617c-6.399,42.269 -24.279,160.395 -30.886,204.039c-0.661,4.37 -3.032,8.299 -6.59,10.921c-3.558,2.623 -8.012,3.725 -12.383,3.063c-32.135,-4.864 -102.829,-15.565 -134.964,-20.429c-4.371,-0.662 -8.299,-3.032 -10.922,-6.591c-2.623,-3.558 -3.724,-8.012 -3.063,-12.383c6.546,-43.245 24.161,-159.615 30.707,-202.86c0.662,-4.371 3.032,-8.299 6.59,-10.922c3.559,-2.623 8.013,-3.724 12.383,-3.063c3.741,0.566 7.745,1.172 11.586,1.754c4.801,0.727 9.681,-0.677 13.362,-3.843c3.682,-3.166 5.799,-7.78 5.799,-12.636c0,-14.308 0,-31.303 0,-31.303c0,-116.442 -94.394,-210.837 -210.836,-210.837c-116.441,0 -210.836,94.395 -210.836,210.837c-0,-0 -0,16.995 -0,31.303c-0,4.856 2.118,9.47 5.799,12.636c3.682,3.166 8.561,4.57 13.362,3.843c3.841,-0.582 7.845,-1.188 11.586,-1.754c4.37,-0.661 8.825,0.44 12.383,3.063c3.558,2.623 5.929,6.551 6.59,10.922c6.546,43.245 24.161,159.615 30.707,202.86c0.662,4.371 -0.44,8.825 -3.063,12.383c-2.622,3.559 -6.551,5.929 -10.922,6.591c-32.134,4.864 -102.829,15.565 -134.964,20.429c-4.37,0.662 -8.825,-0.44 -12.383,-3.063c-3.558,-2.622 -5.929,-6.551 -6.59,-10.921c-6.606,-43.644 -24.487,-161.77 -30.885,-204.039c-1.279,-8.451 4.534,-16.338 12.984,-17.617c0.004,-0.001 0.007,-0.001 0.01,-0.002c7.41,-1.121 12.909,-7.458 12.974,-14.953c0.211,-24.093 0.641,-73.234 0.641,-73.234Z" style="fill:#535353;"/></svg>