<?xml version="1.0" encoding="UTF-8" standalone="no"?><!DOCTYPE svg PUBLIC "-//W3C//DTD SVG 1.1//EN" "http://www.w3.org/Graphics/SVG/1.1/DTD/svg11.dtd"><svg width="100%" height="100%" viewBox="0 0 267 267" version="1.1" xmlns="http://www.w3.org/2000/svg" xmlns:xlink="http://www.w3.org/1999/xlink" xml:space="preserve" xmlns:serif="http://www.serif.com/" style="fill-rule:evenodd;clip-rule:evenodd;stroke-linejoin:round;stroke-miterlimit:2;"><rect id="Artboard2" x="0" y="0" width="266.667" height="266.667" style="fill:none;"/><path d="M253.464,60.599c-0,-12.57 -4.994,-24.626 -13.882,-33.514c-8.889,-8.889 -20.944,-13.882 -33.514,-13.882l-145.469,0c-12.57,-0 -24.626,4.993 -33.514,13.882c-8.889,8.888 -13.882,20.944 -13.882,33.514l0,145.469c-0,12.57 4.993,24.625 13.882,33.514c8.888,8.888 20.944,13.882 33.514,13.882l145.469,-0c12.57,-0 24.625,-4.994 33.514,-13.882c8.888,-8.889 13.882,-20.944 13.882,-33.514l-0,-145.469Z" style="fill:#647597;"/><clipPath id="_clip1"><path d="M253.464,60.599c-0,-12.57 -4.994,-24.626 -13.882,-33.514c-8.889,-8.889 -20.944,-13.882 -33.514,-13.882l-145.469,0c-12.57,-0 -24.626,4.993 -33.514,13.882c-8.889,8.888 -13.882,20.944 -13.882,33.514l0,145.469c-0,12.57 4.993,24.625 13.882,33.514c8.888,8.888 20.944,13.882 33.514,13.882l145.469,-0c12.57,-0 24.625,-4.994 33.514,-13.882c8.888,-8.889 13.882,-20.944 13.882,-33.514l-0,-145.469Z"/></clipPath><g clip-path="url(#_clip1)"><path d="M241.927,62.123c0,-9.915 -3.938,-19.423 -10.949,-26.434c-7.011,-7.011 -16.519,-10.949 -26.434,-10.949l-142.421,-0c-9.915,-0 -19.423,3.938 -26.434,10.949c-7.011,7.011 -10.949,16.519 -10.949,26.434l-0,142.421c-0,9.915 3.938,19.423 10.949,26.434c7.011,7.011 16.519,10.949 26.434,10.949l142.421,0c9.915,0 19.423,-3.938 26.434,-10.949c7.011,-7.011 10.949,-16.519 10.949,-26.434l0,-142.421Z" style="fill:#b7c9d9;"/><clipPath id="_clip2"><path d="M241.927,62.123c0,-9.915 -3.938,-19.423 -10.949,-26.434c-7.011,-7.011 -16.519,-10.949 -26.434,-10.949l-142.421,-0c-9.915,-0 -19.423,3.938 -26.434,10.949c-7.011,7.011 -10.949,16.519 -10.949,26.434l-0,142.421c-0,9.915 3.938,19.423 10.949,26.434c7.011,7.011 16.519,10.949 26.434,10.949l142.421,0c9.915,0 19.423,-3.938 26.434,-10.949c7.011,-7.011 10.949,-16.519 10.949,-26.434l0,-142.421Z"/></clipPath><g clip-path="url(#_clip2)"><path d="M221.553,182.03l13.426,-0l0,22.849l-13.426,0l0,-22.849Zm-169.21,-120.243l161.981,0l-0,143.092l-161.699,0l-0,-143.092l-0.282,0Zm-20.374,120.243l13.426,-0l0,22.849l-13.426,0l0,-22.849Zm148.541,6.404l-0,10.041l-13.519,0l0,-10.041l-13.426,-0l0,10.041l-13.519,0l0,-10.041l40.464,-0Zm-53.89,10.041l-13.518,0l-0,-10.041l13.518,-0l0,10.041Zm-26.944,0l-13.519,0l-0,-10.041l13.519,-0l-0,10.041Zm142.251,-136.688l-6.948,0l0,22.85l-13.426,-0l0,-22.85l-7.229,0l27.603,0Zm-189.584,0l-6.948,0l0,22.85l-13.426,-0l0,-22.85l-7.229,0l27.603,0Zm60.759,16.446l-13.426,-0l-0,-10.042l-13.519,0l-0,10.042l40.463,-0l0,-10.042l-13.518,0l-0,10.042Zm40.463,-0l0,-10.042l13.426,0l0,10.042l13.519,-0l-0,-10.042l-40.464,0l0,10.042l13.519,-0Z" style="fill:#4d5970;"/><clipPath id="_clip3"><path d="M221.553,182.03l13.426,-0l0,22.849l-13.426,0l0,-22.849Zm-169.21,-120.243l161.981,0l-0,143.092l-161.699,0l-0,-143.092l-0.282,0Zm-20.374,120.243l13.426,-0l0,22.849l-13.426,0l0,-22.849Zm148.541,6.404l-0,10.041l-13.519,0l0,-10.041l-13.426,-0l0,10.041l-13.519,0l0,-10.041l40.464,-0Zm-53.89,10.041l-13.518,0l-0,-10.041l13.518,-0l0,10.041Zm-26.944,0l-13.519,0l-0,-10.041l13.519,-0l-0,10.041Zm142.251,-136.688l-6.948,0l0,22.85l-13.426,-0l0,-22.85l-7.229,0l27.603,0Zm-189.584,0l-6.948,0l0,22.85l-13.426,-0l0,-22.85l-7.229,0l27.603,0Zm60.759,16.446l-13.426,-0l-0,-10.042l-13.519,0l-0,10.042l40.463,-0l0,-10.042l-13.518,0l-0,10.042Zm40.463,-0l0,-10.042l13.426,0l0,10.042l13.519,-0l-0,-10.042l-40.464,0l0,10.042l13.519,-0Z"/></clipPath><g clip-path="url(#_clip3)"><rect x="69.401" y="84.637" width="127.865" height="97.393" style="fill:#cbedff;"/><clipPath id="_clip4"><rect x="69.401" y="84.637" width="127.865" height="97.393"/></clipPath><g clip-path="url(#_clip4)"><circle cx="168.784" cy="108.886" r="17.85" style="fill:#fffb9b;"/><path d="M121.968,183.796c35.821,-58.441 62.845,-56.896 99.971,20.791c-44.472,4.57 -99.67,1.814 -99.67,1.814c-0,-0 -4.354,-15.994 -0.301,-22.605Z" style="fill:#50a674;"/><path d="M64.897,163.708c35.822,-58.441 62.845,-56.895 99.972,20.791c-44.472,4.571 -99.671,1.814 -99.671,1.814c-0,0 -4.354,-15.994 -0.301,-22.605Z" style="fill:#6cc893;"/><g><circle cx="145.868" cy="128.784" r="8.924" style="fill:#fff;"/><circle cx="156.841" cy="126.736" r="12.406" style="fill:#fff;"/><circle cx="168.895" cy="130.2" r="7.508" style="fill:#fff;"/></g><g><circle cx="87.353" cy="164.113" r="6.569" style="fill:#fff;"/><circle cx="95.43" cy="162.605" r="9.133" style="fill:#fff;"/><circle cx="104.303" cy="165.156" r="5.527" style="fill:#fff;"/></g></g></g><path d="M100.225,55.383l-27.494,0l-0,155.9l27.494,0l0,20.102l-47.882,-0l-0,-196.103l47.882,-0l0,20.101Zm66.216,0l0,-20.101l47.883,-0l-0,196.103l-47.883,-0l0,-20.102l27.495,0l-0,-155.9l-27.495,0Z" style="fill:#ffd238;"/></g></g></svg>