<?xml version="1.0" encoding="UTF-8" standalone="no"?>
<svg
   xmlns:dc="http://purl.org/dc/elements/1.1/"
   xmlns:cc="http://creativecommons.org/ns#"
   xmlns:rdf="http://www.w3.org/1999/02/22-rdf-syntax-ns#"
   xmlns:svg="http://www.w3.org/2000/svg"
   xmlns="http://www.w3.org/2000/svg"
   xmlns:xlink="http://www.w3.org/1999/xlink"
   xmlns:sodipodi="http://sodipodi.sourceforge.net/DTD/sodipodi-0.dtd"
   xmlns:inkscape="http://www.inkscape.org/namespaces/inkscape"
   version="1.1"
   preserveAspectRatio="xMidYMid meet"
   viewBox="0 0 640 640"
   width="64"
   height="64"
   id="svg58"
   sodipodi:docname="parole.svg"
   inkscape:version="0.92.4 5da689c313, 2019-01-14">
  <metadata
     id="metadata62">
    <rdf:RDF>
      <cc:Work
         rdf:about="">
        <dc:format>image/svg+xml</dc:format>
        <dc:type
           rdf:resource="http://purl.org/dc/dcmitype/StillImage" />
      </cc:Work>
    </rdf:RDF>
  </metadata>
  <sodipodi:namedview
     pagecolor="#ffffff"
     bordercolor="#666666"
     borderopacity="1"
     objecttolerance="10"
     gridtolerance="10"
     guidetolerance="10"
     inkscape:pageopacity="0"
     inkscape:pageshadow="2"
     inkscape:window-width="1850"
     inkscape:window-height="1048"
     id="namedview60"
     showgrid="false"
     inkscape:zoom="3.6875"
     inkscape:cx="-7.6469336"
     inkscape:cy="32"
     inkscape:window-x="70"
     inkscape:window-y="32"
     inkscape:window-maximized="1"
     inkscape:current-layer="g54" />
  <defs
     id="defs12">
    <path
       d="M21.59 19.9L621.79 19.9L621.79 621.22L21.59 621.22L21.59 19.9Z"
       id="gnEBLSFJ8" />
    <path
       d="M59.8 58.12L588.07 58.12L588.07 438.02L59.8 438.02L59.8 58.12Z"
       id="ioxkdXL4F" />
    <path
       d="M62.61 476.23L594.25 476.23L594.25 530.18L62.61 530.18L62.61 476.23Z"
       id="a5xSR0NqXu" />
    <path
       d="M275.6 526.81L381.26 526.81L381.26 572.89L275.6 572.89L275.6 526.81Z"
       id="hFIxSHQps" />
    <path
       d="M223.34 572.89L433.52 572.89L433.52 585.26L223.34 585.26L223.34 572.89Z"
       id="a1cUmNixmp" />
    <path
       d="M357.69 264.96L249.36 320L247.94 212.79L246.52 105.59L356.28 157.74L466.03 209.91L357.69 264.96Z"
       id="a1oN5FGbhV" />
    <path
       d="M309.04 220.69L294.14 231.41L293.37 211.13L292.6 190.86L308.27 200.41L323.93 209.97L309.04 220.69Z"
       id="a1byu8WgxC" />
    <path
       d="M133.16 384.13L523.73 384.55L523.7 410.98L133.13 410.56L133.16 384.13Z"
       id="bi9ArdAtu" />
    <path
       d="M282.61 394.74C282.61 413.41 267.71 428.56 249.36 428.56C231 428.56 216.1 413.41 216.1 394.74C216.1 376.08 231 360.93 249.36 360.93C267.71 360.93 282.61 376.08 282.61 394.74Z"
       id="b1oLkOZf9I" />
    <path
       d="M268 394.74C268 404.98 259.65 413.29 249.36 413.29C239.07 413.29 230.71 404.98 230.71 394.74C230.71 384.51 239.07 376.2 249.36 376.2C259.65 376.2 268 384.51 268 394.74Z"
       id="cbIkVL15n" />
  </defs>
  <g
     id="g56">
    <g
       id="g54">
      <g
         id="g16"
         style="fill:#bbbfd5;fill-opacity:1">
        <use
           xlink:href="#gnEBLSFJ8"
           opacity="1"
           fill="#f7f7f9"
           fill-opacity="1"
           id="use14"
           style="fill:#bbbfd5;fill-opacity:1" />
      </g>
      <g
         id="g20">
        <use
           xlink:href="#ioxkdXL4F"
           opacity="1"
           fill="#5a6296"
           fill-opacity="1"
           id="use18" />
      </g>
      <g
         id="g24">
        <use
           xlink:href="#a5xSR0NqXu"
           opacity="1"
           fill="#5a6296"
           fill-opacity="1"
           id="use22" />
      </g>
      <g
         id="g28">
        <use
           xlink:href="#hFIxSHQps"
           opacity="1"
           fill="#5a6296"
           fill-opacity="1"
           id="use26" />
      </g>
      <g
         id="g32">
        <use
           xlink:href="#a1cUmNixmp"
           opacity="1"
           fill="#5a6296"
           fill-opacity="1"
           id="use30" />
      </g>
      <g
         id="g36">
        <use
           xlink:href="#a1oN5FGbhV"
           opacity="1"
           fill="#bbbfd5"
           fill-opacity="1"
           id="use34" />
      </g>
      <g
         id="g40">
        <use
           xlink:href="#a1byu8WgxC"
           opacity="1"
           fill="#5a6298"
           fill-opacity="1"
           id="use38" />
      </g>
      <g
         id="g44">
        <use
           xlink:href="#bi9ArdAtu"
           opacity="1"
           fill="#bbbfd5"
           fill-opacity="1"
           id="use42" />
      </g>
      <g
         id="g48">
        <use
           xlink:href="#b1oLkOZf9I"
           opacity="1"
           fill="#bbbfd5"
           fill-opacity="1"
           id="use46" />
      </g>
      <g
         id="g52">
        <use
           xlink:href="#cbIkVL15n"
           opacity="1"
           fill="#5a6296"
           fill-opacity="1"
           id="use50" />
      </g>
    </g>
  </g>
</svg>
