<?xml version="1.0" encoding="UTF-8" standalone="no"?>
<svg
   xmlns:dc="http://purl.org/dc/elements/1.1/"
   xmlns:cc="http://creativecommons.org/ns#"
   xmlns:rdf="http://www.w3.org/1999/02/22-rdf-syntax-ns#"
   xmlns:svg="http://www.w3.org/2000/svg"
   xmlns="http://www.w3.org/2000/svg"
   xmlns:sodipodi="http://sodipodi.sourceforge.net/DTD/sodipodi-0.dtd"
   xmlns:inkscape="http://www.inkscape.org/namespaces/inkscape"
   width="100%"
   height="100%"
   viewBox="0 0 1024 1024"
   version="1.1"
   xml:space="preserve"
   style="fill-rule:evenodd;clip-rule:evenodd;stroke-linejoin:round;stroke-miterlimit:2;"
   id="svg10"
   sodipodi:docname="org.gnome.SystemMonitor.svg"
   inkscape:version="0.92.4 5da689c313, 2019-01-14"><metadata
     id="metadata16"><rdf:RDF><cc:Work
         rdf:about=""><dc:format>image/svg+xml</dc:format><dc:type
           rdf:resource="http://purl.org/dc/dcmitype/StillImage" /></cc:Work></rdf:RDF></metadata><defs
     id="defs14" /><sodipodi:namedview
     pagecolor="#ffffff"
     bordercolor="#666666"
     borderopacity="1"
     objecttolerance="10"
     gridtolerance="10"
     guidetolerance="10"
     inkscape:pageopacity="0"
     inkscape:pageshadow="2"
     inkscape:window-width="1851"
     inkscape:window-height="1048"
     id="namedview12"
     showgrid="false"
     inkscape:zoom="0.23046875"
     inkscape:cx="512"
     inkscape:cy="512"
     inkscape:window-x="69"
     inkscape:window-y="32"
     inkscape:window-maximized="1"
     inkscape:current-layer="svg10" /><g
     id="Layer1"
     transform="matrix(1.287875,0,0,1.287875,-132.13334,-147.15881)"><path
       d="m 872.9,182.324 c 0,-11.498 -4.568,-22.525 -12.698,-30.656 -8.13,-8.13 -19.157,-12.697 -30.655,-12.697 H 178.973 c -11.835,0 -23.185,4.701 -31.554,13.07 -8.369,8.368 -13.07,19.719 -13.07,31.553 v 648.598 c 0,25.035 20.295,45.329 45.33,45.329 h 646.902 c 12.285,0 24.066,-4.879 32.752,-13.566 8.687,-8.686 13.567,-20.467 13.567,-32.752 z"
       style="fill:#53885d"
       id="path2"
       inkscape:connector-curvature="0" /><path
       d="m 838.769,216.454 c 0,-11.498 -4.567,-22.525 -12.698,-30.655 -8.13,-8.13 -19.157,-12.698 -30.655,-12.698 H 213.103 c -24.645,0 -44.623,19.979 -44.623,44.624 v 580.336 c 0,25.035 20.294,45.33 45.329,45.33 h 578.642 c 12.284,0 24.066,-4.88 32.752,-13.566 8.686,-8.687 13.566,-20.468 13.566,-32.752 z"
       style="fill:#5f996a"
       id="path4"
       inkscape:connector-curvature="0" /></g><g
     id="Layer2"
     transform="matrix(1.287875,0,0,1.287875,-132.13334,-147.15881)"><path
       d="m 599.843,216.753 89.538,303.428 149.388,0.141 v 21.136 l -3.461,-0.007 -159.13,-0.26 -68.1,-224.558 -47.786,384.655 -68.183,-159.301 -81.116,-0.17 -44.481,-93.51 -26.437,219.799 -55.722,-125.794 -115.873,0.181 v -22.819 l 129.122,0.22 31.074,76.742 24.67,-222.575 67.343,145.853 82.378,0.802 45.017,109.208 z"
       style="fill:#77c931"
       id="path7"
       inkscape:connector-curvature="0" /></g></svg>