<?xml version="1.0" encoding="UTF-8" standalone="no"?>
<!DOCTYPE svg PUBLIC "-//W3C//DTD SVG 1.1//EN" "http://www.w3.org/Graphics/SVG/1.1/DTD/svg11.dtd">
<svg width="100%" height="100%" viewBox="0 0 2048 2048" version="1.1" xmlns="http://www.w3.org/2000/svg" xmlns:xlink="http://www.w3.org/1999/xlink" xml:space="preserve" xmlns:serif="http://www.serif.com/" style="fill-rule:evenodd;clip-rule:evenodd;stroke-linejoin:round;stroke-miterlimit:2;">
    <g transform="matrix(1.29424,0,0,1.24102,-423.792,-375.425)">
        <path d="M1584.84,560.631C1584.84,548.454 1580.2,536.776 1571.94,528.165C1563.69,519.555 1552.49,514.717 1540.81,514.717L696.468,514.717C684.791,514.717 673.593,519.555 665.337,528.165C657.08,536.776 652.442,548.454 652.442,560.631L652.442,1694.65C652.442,1706.83 657.08,1718.51 665.337,1727.12C673.593,1735.73 684.791,1740.57 696.468,1740.57L1540.81,1740.57C1552.49,1740.57 1563.69,1735.73 1571.94,1727.12C1580.2,1718.51 1584.84,1706.83 1584.84,1694.65L1584.84,560.631Z" style="fill:rgb(214,165,61);"/>
    </g>
    <g transform="matrix(1.29337,0,0,1.23812,-451.8,-401.682)">
        <path d="M1107.65,384.686C1116.02,374.525 1128.21,368.68 1141.05,368.68C1153.88,368.68 1166.07,374.525 1174.44,384.686C1291.16,526.398 1679.3,997.654 1781.29,1121.48C1795.5,1138.73 1795.5,1164.25 1781.29,1181.51C1679.3,1305.33 1291.16,1776.59 1174.44,1918.3C1166.07,1928.46 1153.88,1934.31 1141.05,1934.31C1128.21,1934.31 1116.02,1928.46 1107.65,1918.3C990.932,1776.59 602.789,1305.33 500.804,1181.51C486.591,1164.25 486.591,1138.73 500.804,1121.48C602.789,997.654 990.932,526.398 1107.65,384.686Z" style="fill:rgb(230,191,108);"/>
    </g>
    <g>
        <g transform="matrix(1.0545,0,0,0.854953,-47.697,77.6925)">
            <path d="M793.136,689.666L665.307,689.666C657.451,689.666 651.082,697.521 651.082,707.211C651.082,801.482 651.082,1247.12 651.082,1341.39C651.082,1351.08 657.451,1358.93 665.307,1358.93C692.527,1358.93 751.691,1358.93 778.911,1358.93C786.767,1358.93 793.136,1351.08 793.136,1341.39C793.136,1235.82 793.136,689.666 793.136,689.666Z" style="fill:rgb(214,165,61);"/>
        </g>
        <g transform="matrix(1.0545,0,0,0.620276,212.56,422.743)">
            <path d="M793.136,689.666L651.082,689.666L651.082,1334.75C651.082,1348.11 657.451,1358.93 665.307,1358.93C692.527,1358.93 751.691,1358.93 778.911,1358.93C786.767,1358.93 793.136,1348.11 793.136,1334.75C793.136,1214.83 793.136,689.666 793.136,689.666Z" style="fill:rgb(214,165,61);"/>
        </g>
        <g transform="matrix(1.0545,0,0,0.0276531,211.335,1259.44)">
            <path d="M793.136,1024.24C793.136,839.459 789.207,689.666 784.362,689.666C758.918,689.666 685.3,689.666 659.856,689.666C655.011,689.666 651.082,839.459 651.082,1024.24C651.082,1024.28 651.082,1024.32 651.082,1024.36C651.082,1209.14 655.011,1358.93 659.856,1358.93C685.3,1358.93 758.918,1358.93 784.362,1358.93C789.207,1358.93 793.136,1209.14 793.136,1024.36C793.136,1024.32 793.136,1024.28 793.136,1024.24Z" style="fill:rgb(214,165,61);"/>
        </g>
        <g transform="matrix(1.0545,0,0,0.0276531,211.335,1289.45)">
            <path d="M793.136,1024.24C793.136,839.459 789.207,689.666 784.362,689.666C758.918,689.666 685.3,689.666 659.856,689.666C655.011,689.666 651.082,839.459 651.082,1024.24C651.082,1024.28 651.082,1024.32 651.082,1024.36C651.082,1209.14 655.011,1358.93 659.856,1358.93C685.3,1358.93 758.918,1358.93 784.362,1358.93C789.207,1358.93 793.136,1209.14 793.136,1024.36C793.136,1024.32 793.136,1024.28 793.136,1024.24Z" style="fill:rgb(214,165,61);"/>
        </g>
        <g transform="matrix(1.0545,0,0,0.0279483,211.335,1321.42)">
            <path d="M793.136,1024.28C793.136,935.537 792.201,850.426 790.538,787.673C788.875,724.92 786.619,689.666 784.267,689.666C758.767,689.666 685.451,689.666 659.951,689.666C657.599,689.666 655.343,724.92 653.68,787.673C652.017,850.426 651.082,935.537 651.082,1024.28C651.082,1024.29 651.082,1024.3 651.082,1024.31C651.082,1113.06 652.017,1198.17 653.68,1260.92C655.343,1323.68 657.599,1358.93 659.951,1358.93C685.451,1358.93 758.767,1358.93 784.267,1358.93C786.619,1358.93 788.875,1323.68 790.538,1260.92C792.201,1198.17 793.136,1113.06 793.136,1024.31C793.136,1024.3 793.136,1024.29 793.136,1024.28Z" style="fill:rgb(214,165,61);"/>
        </g>
        <g transform="matrix(1.0545,0,0,0.156845,-47.697,1144.62)">
            <path d="M793.136,785.302C793.136,732.483 786.767,689.666 778.911,689.666C751.691,689.666 692.527,689.666 665.307,689.666C657.451,689.666 651.082,732.483 651.082,785.302C651.082,912.511 651.082,1136.09 651.082,1263.3C651.082,1316.11 657.451,1358.93 665.307,1358.93C692.527,1358.93 751.691,1358.93 778.911,1358.93C786.767,1358.93 793.136,1316.11 793.136,1263.3C793.136,1136.09 793.136,912.511 793.136,785.302Z" style="fill:rgb(214,165,61);"/>
        </g>
        <g transform="matrix(6.45694e-17,1.0545,-0.348588,2.13449e-17,1112.58,-19.2408)">
            <rect x="651.082" y="689.666" width="142.053" height="669.266" style="fill:rgb(214,165,61);"/>
        </g>
        <g transform="matrix(6.45694e-17,1.0545,-0.57766,3.53715e-17,1832.7,395.38)">
            <path d="M793.136,715.633C793.136,701.292 786.767,689.666 778.911,689.666C751.691,689.666 692.527,689.666 665.307,689.666C657.451,689.666 651.082,701.292 651.082,715.633C651.082,838.884 651.082,1358.93 651.082,1358.93L793.136,1358.93L793.136,715.633Z" style="fill:rgb(214,165,61);"/>
        </g>
        <g transform="matrix(-1.0545,1.29139e-16,-7.0743e-17,-0.57766,2002.46,1748.54)">
            <path d="M793.136,715.633C793.136,701.292 786.767,689.666 778.911,689.666C751.691,689.666 692.527,689.666 665.307,689.666C657.451,689.666 651.082,701.292 651.082,715.633C651.082,822.315 651.082,1226.28 651.082,1332.96C651.082,1347.31 657.451,1358.93 665.307,1358.93C692.527,1358.93 751.691,1358.93 778.911,1358.93C786.767,1358.93 793.136,1347.31 793.136,1332.96C793.136,1226.28 793.136,822.315 793.136,715.633Z" style="fill:rgb(214,165,61);"/>
        </g>
        <clipPath id="_clip1">
            <rect x="857.042" y="667.324" width="191.878" height="196.815"/>
        </clipPath>
        <g clip-path="url(#_clip1)">
            <path d="M873.66,667.324C970.389,667.324 1048.92,745.856 1048.92,842.584C1048.92,939.313 970.389,1017.84 873.66,1017.84C776.932,1017.84 698.4,939.313 698.4,842.584C698.4,745.856 776.932,667.324 873.66,667.324ZM723.511,896.381C760.924,858.968 850.276,793.323 882.9,825.947C915.525,858.572 897.671,911.759 860.259,949.171" style="fill:rgb(214,165,61);"/>
        </g>
    </g>
</svg>
