<?xml version="1.0" encoding="UTF-8" standalone="no"?><!DOCTYPE svg PUBLIC "-//W3C//DTD SVG 1.1//EN" "http://www.w3.org/Graphics/SVG/1.1/DTD/svg11.dtd"><svg width="100%" height="100%" viewBox="0 0 267 267" version="1.1" xmlns="http://www.w3.org/2000/svg" xmlns:xlink="http://www.w3.org/1999/xlink" xml:space="preserve" xmlns:serif="http://www.serif.com/" style="fill-rule:evenodd;clip-rule:evenodd;stroke-linecap:round;stroke-linejoin:round;stroke-miterlimit:1.5;"><rect id="Artboard1" x="0" y="0" width="266.667" height="266.667" style="fill:none;"/><g id="Artboard11" serif:id="Artboard1"><g><path d="M254.653,33.889c-0,-5.802 -2.305,-11.366 -6.407,-15.468c-4.102,-4.103 -9.666,-6.407 -15.468,-6.407l-198.889,-0c-5.802,-0 -11.366,2.304 -15.468,6.407c-4.103,4.102 -6.407,9.666 -6.407,15.468l-0,198.889c-0,5.802 2.304,11.366 6.407,15.468c4.102,4.102 9.666,6.407 15.468,6.407l198.889,-0c5.802,-0 11.366,-2.305 15.468,-6.407c4.102,-4.102 6.407,-9.666 6.407,-15.468l-0,-198.889Z" style="fill:#a6775a;"/><g><circle cx="28.852" cy="28.797" r="3.236" style="fill:#d1d1d1;"/><circle cx="28.852" cy="237.842" r="3.236" style="fill:#d1d1d1;"/><circle cx="237.842" cy="237.842" r="3.236" style="fill:#d1d1d1;"/><circle cx="237.842" cy="28.797" r="3.236" style="fill:#d1d1d1;"/></g><path d="M244.444,133.331c0,-61.364 -49.744,-111.109 -111.108,-111.109l-0.005,0c-61.364,0 -111.109,49.745 -111.109,111.109l0,0.005c0,61.364 49.745,111.108 111.109,111.108l0.005,0c61.364,0 111.108,-49.744 111.108,-111.108l0,-0.005Z" style="fill:#3b3b3b;"/><path d="M166.667,111.111l-61.111,50l73.494,73.495c24.661,-11.1 44.444,-30.895 55.556,-55.556l-67.939,-67.939Z" style="fill-opacity:0.11;"/><path d="M172.222,133.328c0,-21.475 -17.408,-38.884 -38.883,-38.884l-0.011,0c-21.475,0 -38.884,17.409 -38.884,38.884l0,0.011c0,21.475 17.409,38.883 38.884,38.883l0.011,0c21.475,0 38.883,-17.408 38.883,-38.883l0,-0.011Z" style="fill:#f07854;"/><path d="M144.444,133.336c0,6.135 -4.973,11.108 -11.108,11.108l-0.005,0c-6.135,0 -11.109,-4.973 -11.109,-11.108l0,-0.005c0,-6.135 4.974,-11.109 11.109,-11.109l0.005,0c6.135,0 11.108,4.974 11.108,11.109l0,0.005Z" style="fill:#2e2e2e;"/><path d="M133.333,100c-18.466,0 -33.333,14.867 -33.333,33.333c0,18.467 14.867,33.334 33.333,33.334c18.467,-0 33.334,-14.867 33.334,-33.334c-0,-18.466 -14.867,-33.333 -33.334,-33.333m0,5.556c15.389,-0 27.778,12.388 27.778,27.777c0,15.389 -12.389,27.778 -27.778,27.778c-15.389,0 -27.777,-12.389 -27.777,-27.778c-0,-15.389 12.388,-27.777 27.777,-27.777" style="fill:#fff;fill-opacity:0.27;fill-rule:nonzero;"/><g><path d="M186.111,41.889c-5.394,-3.111 -10.961,-5.556 -16.611,-7.65l-19.25,52.044c2.75,0.995 5.456,2.2 8.078,3.711c2.622,1.517 5.016,3.262 7.255,5.139l35.45,-42.694c-4.611,-3.856 -9.533,-7.445 -14.927,-10.561" style="fill:#4c5053;fill-rule:nonzero;"/><path d="M80.556,224.722c-5.395,-3.111 -10.317,-6.705 -14.928,-10.561l35.45,-42.694c2.239,1.883 4.633,3.627 7.255,5.139c2.623,1.516 5.334,2.716 8.078,3.711l-19.25,52.044c-5.644,-2.067 -11.222,-4.533 -16.611,-7.644" style="fill:#4c5053;fill-rule:nonzero;"/><g><path d="M208,58.667c-4.406,-4.406 -9.144,-8.228 -14.061,-11.684l-32.061,45.289c2.394,1.672 4.7,3.534 6.844,5.678c2.145,2.144 4.006,4.45 5.678,6.844l45.289,-32.061c-3.456,-4.916 -7.283,-9.661 -11.683,-14.061" style="fill:#4c5053;fill-opacity:0.2;fill-rule:nonzero;"/><path d="M58.722,207.944c-4.405,-4.405 -8.228,-9.144 -11.683,-14.066l45.289,-32.061c1.672,2.394 3.533,4.7 5.678,6.844c2.144,2.145 4.45,4.006 6.844,5.678l-32.061,45.289c-4.917,-3.456 -9.661,-7.284 -14.061,-11.684" style="fill:#4c5053;fill-opacity:0.2;fill-rule:nonzero;"/><path d="M224.778,80.556c-3.111,-5.395 -6.706,-10.317 -10.561,-14.928l-42.695,35.45c1.884,2.239 3.628,4.633 5.139,7.255c1.517,2.623 2.717,5.334 3.711,8.078l52.045,-19.25c-2.067,-5.644 -4.534,-11.222 -7.65,-16.611" style="fill:#4c5053;fill-opacity:0.2;fill-rule:nonzero;"/><path d="M41.944,186.111c-3.111,-5.394 -5.555,-10.961 -7.65,-16.611l52.045,-19.25c0.994,2.75 2.2,5.456 3.711,8.078c1.517,2.622 3.261,5.016 5.139,7.255l-42.695,35.45c-3.855,-4.611 -7.444,-9.533 -10.561,-14.927" style="fill:#4c5053;fill-opacity:0.2;fill-rule:nonzero;"/></g></g><g><path d="M131.389,34.325c-53.085,1.042 -95.902,43.765 -97.06,96.848c1.158,-53.083 43.975,-95.806 97.06,-96.848Z" style="fill:none;stroke:#c6deff;stroke-opacity:0.1;stroke-width:2.54px;"/></g><g><path d="M182.003,219.576c15.202,-8.579 27.867,-21.025 36.71,-36.075c-8.843,15.05 -21.508,27.496 -36.71,36.075Z" style="fill:none;stroke:#000;stroke-opacity:0.1;stroke-width:2.54px;"/></g></g></g></svg>