<?xml version="1.0" encoding="UTF-8" standalone="no"?>
<svg
   xmlns:dc="http://purl.org/dc/elements/1.1/"
   xmlns:cc="http://creativecommons.org/ns#"
   xmlns:rdf="http://www.w3.org/1999/02/22-rdf-syntax-ns#"
   xmlns:svg="http://www.w3.org/2000/svg"
   xmlns="http://www.w3.org/2000/svg"
   xmlns:sodipodi="http://sodipodi.sourceforge.net/DTD/sodipodi-0.dtd"
   xmlns:inkscape="http://www.inkscape.org/namespaces/inkscape"
   height="48"
   width="48"
   version="1.1"
   id="svg6"
   sodipodi:docname="org.surge_synth_team.surge-xt.svg"
   inkscape:version="1.0.2 (e86c870879, 2021-01-15)">
  <metadata
     id="metadata12">
    <rdf:RDF>
      <cc:Work
         rdf:about="">
        <dc:format>image/svg+xml</dc:format>
        <dc:type
           rdf:resource="http://purl.org/dc/dcmitype/StillImage" />
        <dc:title></dc:title>
      </cc:Work>
    </rdf:RDF>
  </metadata>
  <defs
     id="defs10" />
  <sodipodi:namedview
     pagecolor="#ffffff"
     bordercolor="#666666"
     borderopacity="1"
     objecttolerance="10"
     gridtolerance="10"
     guidetolerance="10"
     inkscape:pageopacity="0"
     inkscape:pageshadow="2"
     inkscape:window-width="1507"
     inkscape:window-height="1026"
     id="namedview8"
     showgrid="false"
     inkscape:zoom="3.9999998"
     inkscape:cx="-40.800033"
     inkscape:cy="10.433125"
     inkscape:window-x="409"
     inkscape:window-y="24"
     inkscape:window-maximized="0"
     inkscape:current-layer="svg6"
     inkscape:document-rotation="0" />
  <circle
     cx="23.940615"
     cy="31.534513"
     fill="#74a2f3"
     opacity=".99"
     id="circle2"
     style="fill:#eccc7d;fill-opacity:1"
     transform="matrix(1.75830584759 0 0 1.75830608345 -18.15909274367 -30.97874795549)"
     r="13.232998" />
  <path
     style="fill:#ffffff;fill-opacity:1;fill-rule:evenodd;stroke:none;stroke-width:2.1684;stroke-linecap:square;stroke-dasharray:none;stroke-opacity:1;paint-order:stroke markers fill"
     d="m 23.013921,21.514622 3.753056,-3.611528 -1.427228,-1.484968 c -0.784975,-0.816732 -1.417501,-1.494316 -1.40563,-1.505725 0.01186,-0.01144 3.660659,-0.934932 8.108401,-2.052257 l 8.086805,-2.031498 -3.740189,3.62302 -3.74019,3.623019 1.403875,1.491137 1.403873,1.491138 -7.877726,1.97789 c -4.332747,1.08784 -7.976807,2.003405 -8.097911,2.034589 -0.191251,0.04925 0.273021,-0.417906 3.532871,-3.554825 z"
     id="path126651" />
  <path
     style="fill:#ffffff;fill-opacity:0.65335542;fill-rule:evenodd;stroke:none;stroke-width:2.1684;stroke-linecap:square;stroke-dasharray:none;stroke-opacity:1;paint-order:stroke markers fill"
     d="M 14.061572,37.060838 17.814628,33.44931 16.3874,31.964342 c -0.784975,-0.816731 -1.417501,-1.494316 -1.40563,-1.505725 0.01186,-0.01144 3.660659,-0.934932 8.108401,-2.052257 l 8.086806,-2.031497 -3.74019,3.623019 -3.74019,3.623019 1.403874,1.491137 1.403874,1.491138 -7.877726,1.977891 c -4.332747,1.087839 -7.976806,2.003404 -8.09791,2.034589 -0.191251,0.04925 0.273021,-0.417907 3.53287,-3.554826 z"
     id="path126651-4" />
</svg>
