<?xml version="1.0" encoding="UTF-8" standalone="no"?>
<!DOCTYPE svg PUBLIC "-//W3C//DTD SVG 1.1//EN" "http://www.w3.org/Graphics/SVG/1.1/DTD/svg11.dtd">
<svg version="1.1" xmlns="http://www.w3.org/2000/svg" xmlns:xlink="http://www.w3.org/1999/xlink" preserveAspectRatio="xMidYMid meet" viewBox="0 0 640 640" width="64" height="64"><defs><path d="M596.04 24.4C611.5 24.4 624.03 36.93 624.03 52.39C624.03 165.7 624.03 477.67 624.03 590.99C624.03 606.44 611.5 618.98 596.04 618.98C481.15 618.98 164.47 618.98 49.58 618.98C34.12 618.98 21.59 606.44 21.59 590.99C21.59 477.67 21.59 165.7 21.59 52.39C21.59 36.93 34.12 24.4 49.58 24.4C164.47 24.4 481.15 24.4 596.04 24.4Z" id="h5rePyfb97"></path><path d="M470.8 218.57C443.16 218.57 420.76 195.31 420.76 166.62C420.76 137.93 443.16 114.67 470.8 114.67C498.43 114.67 520.84 137.93 520.84 166.62C520.84 195.31 498.43 218.57 470.8 218.57Z" id="grfajX7OW"></path><path d="M396.16 243.89C405.68 234.01 405.68 217.98 396.16 208.1C389.92 201.62 339.99 149.78 333.74 143.3C322.58 131.72 304.48 131.72 293.31 143.3C284.93 152.01 217.84 221.66 209.46 230.36C199.93 240.25 199.93 256.27 209.46 266.15C209.46 266.16 209.49 266.19 209.5 266.2C219.02 276.08 234.45 276.08 243.97 266.2C248.61 261.38 271.79 237.31 313.53 193.98C342.4 223.95 358.44 240.6 361.65 243.93C371.16 253.82 386.6 253.82 396.12 243.93C396.12 243.92 396.15 243.89 396.16 243.89Z" id="ahR4op3i5"></path><path d="M420.76 307.63L420.76 263.1L377.87 307.63C377.87 325.44 377.87 335.34 377.87 337.31C377.87 345.51 384.27 352.16 392.16 352.16C402.89 352.16 488.67 352.16 499.39 352.16C511.23 352.16 520.84 342.19 520.84 329.89C520.84 317.6 511.23 307.63 499.39 307.63C488.91 307.63 462.7 307.63 420.76 307.63Z" id="j9QJVU7Vt"></path><path d="M116.21 534.77C125.73 544.65 141.16 544.65 150.68 534.77C159.16 525.96 201.58 481.93 277.93 402.66L243.4 366.83C167.06 446.09 124.64 490.12 116.16 498.93C106.65 508.81 106.65 524.84 116.16 534.72C116.17 534.73 116.2 534.76 116.21 534.77Z" id="bE8cI7tpO"></path><path d="M315.14 325.44C305.6 315.54 290.15 315.54 280.61 325.44C271.08 335.34 271.08 351.39 280.61 361.29C284.79 365.62 305.67 387.29 343.27 426.3C297.63 451.54 272.28 465.57 267.21 468.37C261.6 471.7 257.49 477.21 255.8 483.69C254.11 490.16 254.98 497.07 258.2 502.89C258.29 503.06 259.04 504.49 259.13 504.67C265.85 516.79 280.76 520.97 292.44 514.02C298.31 510.74 327.64 494.37 380.44 464.89C387.3 460.8 391.12 458.52 391.88 458.07C399.61 453.47 404.83 445.4 406 436.23C407.18 427.06 404.18 417.85 397.87 411.31C381.33 394.14 331.68 342.61 315.14 325.44Z" id="d1OcpsjocJ"></path></defs><g><g><g><use xlink:href="#h5rePyfb97" opacity="1" fill="#4d4d4c" fill-opacity="1"></use><g><use xlink:href="#h5rePyfb97" opacity="1" fill-opacity="0" stroke="#c1fe16" stroke-width="0" stroke-opacity="1"></use></g></g><g><use xlink:href="#grfajX7OW" opacity="1" fill="#dbd469" fill-opacity="1"></use><g><use xlink:href="#grfajX7OW" opacity="1" fill-opacity="0" stroke="#000000" stroke-width="1" stroke-opacity="0"></use></g></g><g><use xlink:href="#ahR4op3i5" opacity="1" fill="#dbd469" fill-opacity="1"></use><g><use xlink:href="#ahR4op3i5" opacity="1" fill-opacity="0" stroke="#000000" stroke-width="1" stroke-opacity="0"></use></g></g><g><use xlink:href="#j9QJVU7Vt" opacity="1" fill="#dbd469" fill-opacity="1"></use><g><use xlink:href="#j9QJVU7Vt" opacity="1" fill-opacity="0" stroke="#000000" stroke-width="1" stroke-opacity="0"></use></g></g><g><use xlink:href="#bE8cI7tpO" opacity="1" fill="#dbd469" fill-opacity="1"></use><g><use xlink:href="#bE8cI7tpO" opacity="1" fill-opacity="0" stroke="#000000" stroke-width="1" stroke-opacity="0"></use></g></g><g><use xlink:href="#d1OcpsjocJ" opacity="1" fill="#dbd469" fill-opacity="1"></use><g><use xlink:href="#d1OcpsjocJ" opacity="1" fill-opacity="0" stroke="#000000" stroke-width="1" stroke-opacity="0"></use></g></g></g></g></svg>