<?xml version="1.0" encoding="UTF-8" standalone="no"?>
<!DOCTYPE svg PUBLIC "-//W3C//DTD SVG 1.1//EN" "http://www.w3.org/Graphics/SVG/1.1/DTD/svg11.dtd">
<svg version="1.1" xmlns="http://www.w3.org/2000/svg" xmlns:xlink="http://www.w3.org/1999/xlink" preserveAspectRatio="xMidYMid meet" viewBox="0 0 640 640" width="64" height="64"><defs><path d="M618.82 323.41C618.82 488.48 485.57 622.5 321.44 622.5C157.3 622.5 24.05 488.48 24.05 323.41C24.05 158.34 157.3 24.32 321.44 24.32C485.57 24.32 618.82 158.34 618.82 323.41Z" id="b42Kh45chF"></path><path d="M391.96 456.24C291.39 508.79 228.53 541.64 203.39 554.78C170.06 572.2 130.11 548.18 129.86 510.57C129.7 485.57 129.28 423.06 128.62 323.03C127.96 224.97 127.56 163.68 127.39 139.17C127.13 99.89 168.52 74.25 203.57 91.98C228.45 104.56 290.65 136.01 390.17 186.34C468.03 225.73 516.7 250.35 536.16 260.19C585.26 285.03 585.72 354.97 536.96 380.46C517.63 390.56 469.29 415.82 391.96 456.24Z" id="a1AgVT4Gmy"></path><path d="M456.89 424.85L222.73 544.49C238.41 538.25 249.01 516.68 254.54 479.77C260.07 442.86 260.53 390.61 255.91 323.02C255.42 248 255.1 201.11 254.98 182.35C254.78 152.39 286.37 132.84 313.1 146.38C332.09 156 379.56 180.05 455.52 218.53C500.55 241.35 528.69 255.61 539.95 261.31C588.75 286.04 589.21 355.58 540.74 380.96C529.56 386.81 501.61 401.44 456.89 424.85Z" id="a1ZHlpScry"></path><path d="M555.51 372.8L440.96 433.42C448.63 430.26 453.83 419.31 456.56 400.54C459.29 381.78 459.55 355.22 457.33 320.85C457.21 295.84 457.13 280.21 457.1 273.96C456.96 247.71 484.87 230.81 508.08 243.08C514.33 246.39 529.96 254.66 554.97 267.9C573.19 277.54 584.57 283.56 589.13 285.97C616.51 300.46 616.71 339.62 589.47 354.38C584.95 356.84 573.62 362.98 555.51 372.8Z" id="b2JACa355v"></path></defs><g><g><g><use xlink:href="#b42Kh45chF" opacity="1" fill="#bfbfbf" fill-opacity="1"></use></g><g><use xlink:href="#a1AgVT4Gmy" opacity="1" fill="#7c5289" fill-opacity="1"></use></g><g><use xlink:href="#a1ZHlpScry" opacity="1" fill="#607fa1" fill-opacity="1"></use></g><g><use xlink:href="#b2JACa355v" opacity="1" fill="#3ca19c" fill-opacity="1"></use></g></g></g></svg>