<?xml version="1.0" encoding="UTF-8" standalone="no"?>
<svg
   xmlns:dc="http://purl.org/dc/elements/1.1/"
   xmlns:cc="http://creativecommons.org/ns#"
   xmlns:rdf="http://www.w3.org/1999/02/22-rdf-syntax-ns#"
   xmlns:svg="http://www.w3.org/2000/svg"
   xmlns="http://www.w3.org/2000/svg"
   xmlns:xlink="http://www.w3.org/1999/xlink"
   xmlns:sodipodi="http://sodipodi.sourceforge.net/DTD/sodipodi-0.dtd"
   xmlns:inkscape="http://www.inkscape.org/namespaces/inkscape"
   version="1.1"
   preserveAspectRatio="xMidYMid meet"
   viewBox="0 0 640 640"
   width="64"
   height="64"
   id="svg31"
   sodipodi:docname="org.kde.knavalbattle.svg"
   inkscape:version="0.92.4 5da689c313, 2019-01-14">
  <metadata
     id="metadata35">
    <rdf:RDF>
      <cc:Work
         rdf:about="">
        <dc:format>image/svg+xml</dc:format>
        <dc:type
           rdf:resource="http://purl.org/dc/dcmitype/StillImage" />
      </cc:Work>
    </rdf:RDF>
  </metadata>
  <sodipodi:namedview
     pagecolor="#ffffff"
     bordercolor="#666666"
     borderopacity="1"
     objecttolerance="10"
     gridtolerance="10"
     guidetolerance="10"
     inkscape:pageopacity="0"
     inkscape:pageshadow="2"
     inkscape:window-width="1850"
     inkscape:window-height="1048"
     id="namedview33"
     showgrid="false"
     inkscape:zoom="5.2149125"
     inkscape:cx="30.439751"
     inkscape:cy="36.28144"
     inkscape:window-x="70"
     inkscape:window-y="32"
     inkscape:window-maximized="1"
     inkscape:current-layer="svg31" />
  <defs
     id="defs5">
    <path
       d="M616.63 320C616.63 485.26 483.71 619.44 320 619.44C156.29 619.44 23.37 485.26 23.37 320C23.37 154.74 156.29 20.56 320 20.56C483.71 20.56 616.63 154.74 616.63 320Z"
       id="aIdMLj6pW" />
    <path
       d="M288.36 313.8C284.82 313.81 267.11 313.82 235.24 313.84L227.74 297.5C260.31 267.32 278.41 250.56 282.03 247.2C285.34 244.14 286.29 238.34 284.16 234.25C282.02 230.17 277.61 229.34 274.3 232.41C270.43 235.99 251.11 253.89 216.33 286.1C192.14 286.12 178.7 286.13 176.01 286.13C172.08 286.14 168.66 290.28 168.39 295.39C168.32 296.62 167.98 302.79 167.38 313.89L153.14 313.9C154.66 286.15 155.5 270.73 155.67 267.65C155.94 262.54 152.98 258.4 149.05 258.4C148.1 258.4 143.36 258.4 134.82 258.41L135.32 249.16C143.86 249.15 148.61 249.15 149.56 249.15C153.49 249.15 156.9 245 157.18 239.89C157.46 234.78 154.5 230.64 150.57 230.65C149.62 230.65 144.87 230.65 136.33 230.66L136.84 221.41C141.11 221.4 143.48 221.4 143.95 221.4C147.88 221.4 151.3 217.25 151.58 212.14C151.85 207.04 148.89 202.9 144.96 202.9C144.25 202.9 138.56 202.9 137.85 202.9C138.13 197.79 135.16 193.65 131.23 193.66C127.3 193.66 123.89 197.8 123.61 202.91C122.9 202.91 117.21 202.92 116.5 202.92C112.57 202.92 109.15 207.07 108.88 212.17C108.6 217.28 111.56 221.42 115.49 221.42C115.96 221.42 118.33 221.42 122.6 221.42L122.1 230.67C113.56 230.67 108.82 230.68 107.87 230.68C103.94 230.68 100.52 234.82 100.25 239.93C99.97 245.04 102.93 249.18 106.86 249.18C107.81 249.18 112.55 249.18 121.09 249.17L120.59 258.42C112.05 258.43 107.3 258.43 106.35 258.43C102.42 258.43 99.01 262.58 98.73 267.69C98.56 270.77 97.72 286.19 96.21 313.94C83.4 313.95 76.28 313.96 74.86 313.96C72.57 313.96 70.35 315.39 68.88 317.8C67.41 320.22 66.88 323.32 67.44 326.14C69.13 334.47 82.57 401.06 84.26 409.39C85.02 413.16 87.6 415.71 90.66 415.71C106.22 415.7 230.67 415.61 246.22 415.59C248.4 415.59 250.52 414.3 251.99 412.08C253.47 409.86 254.12 406.96 253.77 404.21C252.44 393.74 254.09 380.78 258.31 368.67C264.96 349.6 276.8 335.5 287.11 334.38C289.72 334.1 292.1 332 293.32 328.91C293.4 328.7 294.07 327.02 294.16 326.81C295.29 323.94 295.27 320.63 294.1 318.01C292.93 315.39 290.77 313.8 288.36 313.8ZM182.11 304.63L213.89 304.61L218.13 313.86L181.61 313.88L182.11 304.63ZM112.46 276.93L140.93 276.91L138.91 313.91L110.44 313.93L112.46 276.93ZM239.04 397.1C229.56 397.1 182.15 397.14 96.8 397.2L83.73 332.45C190.42 332.38 249.7 332.33 261.55 332.33C255.12 340.15 249.46 350.36 245.38 362.08C241.31 373.75 239.15 385.83 239.04 397.1Z"
       id="dCh1HwpYv" />
    <path
       d="M358.93 312.68C362.48 312.7 380.18 312.81 412.06 313.01L419.64 296.7C387.23 266.35 369.22 249.49 365.62 246.12C362.33 243.03 361.41 237.23 363.56 233.15C365.72 229.08 370.14 228.28 373.44 231.36C377.28 234.96 396.5 252.96 431.11 285.37C455.3 285.52 468.75 285.6 471.43 285.61C475.36 285.64 478.75 289.8 479.01 294.91C479.07 296.15 479.37 302.32 479.91 313.42L494.15 313.51C492.78 285.75 492.03 270.32 491.87 267.24C491.62 262.13 494.61 258 498.54 258.03C499.49 258.03 504.23 258.06 512.77 258.11L512.31 248.86C503.77 248.81 499.03 248.78 498.08 248.77C494.15 248.75 490.76 244.59 490.51 239.48C490.26 234.37 493.24 230.24 497.17 230.27C498.12 230.27 502.87 230.3 511.41 230.35L510.95 221.1C506.68 221.07 504.31 221.06 503.83 221.06C499.9 221.03 496.51 216.87 496.26 211.76C496.01 206.65 498.99 202.52 502.92 202.55C503.64 202.55 509.33 202.59 510.04 202.59C509.79 197.48 512.77 193.36 516.7 193.38C520.63 193.4 524.02 197.57 524.27 202.68C524.99 202.68 530.68 202.72 531.39 202.72C535.32 202.75 538.71 206.91 538.96 212.02C539.21 217.13 536.23 221.25 532.3 221.23C531.83 221.23 529.45 221.21 525.18 221.19L525.64 230.44C534.18 230.49 538.92 230.52 539.87 230.53C543.8 230.55 547.19 234.71 547.44 239.82C547.69 244.93 544.71 249.06 540.78 249.03C539.83 249.03 535.09 249 526.55 248.95L527 258.2C535.54 258.25 540.29 258.28 541.24 258.29C545.17 258.31 548.56 262.47 548.81 267.58C548.96 270.67 549.72 286.09 551.08 313.85C563.89 313.93 571.01 313.97 572.43 313.98C574.72 314 576.94 315.44 578.39 317.86C579.85 320.28 580.36 323.39 579.78 326.2C578.05 334.52 564.25 401.04 562.52 409.36C561.74 413.13 559.14 415.66 556.08 415.65C540.53 415.55 416.08 414.79 400.53 414.7C398.35 414.68 396.23 413.38 394.77 411.15C393.31 408.92 392.67 406.02 393.04 403.27C394.43 392.81 392.84 379.84 388.69 367.71C382.14 348.6 370.38 334.44 360.07 333.27C357.47 332.97 355.1 330.86 353.89 327.76C353.81 327.55 353.15 325.86 353.07 325.65C351.95 322.79 351.99 319.47 353.17 316.86C354.36 314.24 356.52 312.67 358.93 312.68ZM465.23 304.08L433.45 303.89L429.16 313.11L465.68 313.33L465.23 304.08ZM535.03 276.75L506.56 276.58L508.38 313.59L536.85 313.77L535.03 276.75ZM407.8 396.24C417.29 396.3 464.7 396.59 550.04 397.11L563.47 332.43C456.77 331.78 397.5 331.42 385.64 331.35C392.04 339.21 397.64 349.45 401.66 361.18C405.66 372.88 407.76 384.98 407.8 396.24Z"
       id="bKYBwCwmR" />
  </defs>
  <g
     id="g29"
     transform="matrix(0.85271076,0,0,0.85271076,79.545742,33.70951)"
     style="stroke:none;stroke-opacity:0.63898915;stroke-width:25.6241556;stroke-miterlimit:4;stroke-dasharray:none">
    <g
       id="g27"
       style="stroke:none;stroke-opacity:0.63898915;stroke-width:25.6241556;stroke-miterlimit:4;stroke-dasharray:none">
      <g
         id="g9"
         style="stroke:none;stroke-opacity:0.63898915;stroke-width:25.6241556;stroke-miterlimit:4;stroke-dasharray:none">
        <use
           xlink:href="#aIdMLj6pW"
           id="use7"
           style="opacity:1;fill:#8c9aaa;fill-opacity:1;stroke:none;stroke-opacity:0.63898915;stroke-width:25.6241556;stroke-miterlimit:4;stroke-dasharray:none"
           x="0"
           y="0"
           width="100%"
           height="100%" />
      </g>
    </g>
  </g>
  <path
     style="fill:#5f6975;stroke-width:15.28;fill-opacity:1;stroke:none;stroke-opacity:0.63898915;stroke-miterlimit:4;stroke-dasharray:none"
     d="M 20.990242,359.78749 7.1903573,344.26208 H 51.586446 c 42.312962,0 44.396082,-0.32376 44.396082,-6.90018 0,-6.51684 2.08311,-6.90018 37.496142,-6.90018 35.413,0 37.49612,-0.38333 37.49612,-6.90018 0,-6.51684 2.08314,-6.90016 37.49613,-6.90016 h 37.49614 v -10.3503 c 0,-6.90017 1.56232,-10.35027 4.68701,-10.35027 3.12466,0 4.68703,-3.45007 4.68703,-10.35025 0,-10.21238 0.22301,-10.35027 16.74058,-10.35027 h 16.7406 l 2.00747,-21.20665 c 1.10411,-11.66363 2.00747,-30.96242 2.00747,-42.88616 0,-19.7394 -0.62917,-21.81334 -7.03054,-23.17471 l -7.03051,-1.49514 7.03051,-0.46986 c 4.4072,-0.29453 7.06763,-2.72267 7.12991,-6.5075 0.0911,-5.53547 0.42246,-5.56897 3.98377,-0.40249 2.13639,3.09932 6.66153,6.41244 10.05581,7.36248 5.52258,1.54573 5.43225,1.76942 -0.85906,2.12756 -6.51516,0.37089 -7.03054,2.00703 -7.03054,22.3197 0,12.05572 0.90337,31.46249 2.00747,43.12612 l 2.00747,21.20665 h 10.49126 c 10.35563,0 10.49122,-0.20132 10.49122,-15.57222 0,-8.56471 -1.67304,-18.53016 -3.71786,-22.14543 -2.91563,-5.15494 -2.8331,-7.7503 0.38262,-12.02852 9.45525,-12.57935 30.33156,-1.50572 22.67652,12.02852 -2.04484,3.61527 -3.71787,13.58072 -3.71787,22.14543 0,15.0024 0.34302,15.57222 9.37403,15.57222 8.85323,0 9.37403,0.76666 9.37403,13.80035 v 13.80037 h 28.12209 c 16.66494,0 28.1221,1.4056 28.1221,3.45007 0,2.21328 29.68445,3.4501 82.80395,3.4501 45.54218,0 82.80396,0.79978 82.80396,1.77721 0,0.9775 -9.46301,15.72663 -21.02895,32.77586 l -21.02893,30.99864 H 286.51991 34.79014 Z M 36.613641,334.194 c 0,-12.36532 12.262674,-22.66664 29.684445,-24.93653 8.997834,-1.1723 9.412581,-0.63289 10.334857,13.44154 l 0.96083,14.66289 H 57.103714 c -11.269536,0 -20.490073,-1.42556 -20.490073,-3.1679 z m 84.366319,-22.70777 c 0,-16.93698 3.55826,-19.10777 20.00409,-12.2039 5.71879,2.4007 11.05317,1.87246 19.24231,-1.90552 6.23154,-2.87487 12.95684,-4.58784 14.9451,-3.80658 1.98827,0.78122 -2.29253,3.41438 -9.51287,5.85143 -13.11949,4.42817 -13.12501,4.43722 -8.59287,14.11412 2.49427,5.3257 4.53503,10.53648 4.53503,11.57947 0,1.04301 -9.13967,1.89638 -20.3104,1.89638 h -20.31039 z m -92.959188,0.87374 c -5.585355,-1.97832 -10.1552,-4.7796 -10.1552,-6.22502 0,-1.44545 4.921371,-0.96039 10.936376,1.07792 6.015004,2.03834 10.936365,4.9981 10.936365,6.57725 0,1.57918 -0.351534,2.71275 -0.781162,2.51903 -0.429651,-0.19398 -5.351022,-1.97084 -10.936379,-3.94918 z M 449.07107,290.35442 v -15.95668 l 10.15521,2.19618 c 13.33859,2.88458 25.53005,13.03793 26.77707,22.30062 0.92831,6.89514 -0.33481,7.41654 -17.96689,7.41654 h -18.96539 z m 39.05847,-13.49368 c 5.15573,-2.60661 11.48319,-4.68325 14.06105,-4.61471 2.57786,0.0686 0.4687,2.25726 -4.68701,4.8639 -5.15572,2.60663 -11.4832,4.68324 -14.06105,4.61472 -2.57787,-0.0686 -0.4687,-2.2573 4.68701,-4.86391 z"
     id="path883"
     inkscape:connector-curvature="0" />
</svg>
