<?xml version="1.0" encoding="UTF-8" standalone="no"?>
<!DOCTYPE svg PUBLIC "-//W3C//DTD SVG 1.1//EN" "http://www.w3.org/Graphics/SVG/1.1/DTD/svg11.dtd">
<svg version="1.1" xmlns="http://www.w3.org/2000/svg" xmlns:xlink="http://www.w3.org/1999/xlink" preserveAspectRatio="xMidYMid meet" viewBox="0 0 640 640" width="64" height="64"><defs><path d="M30.27 603.96L601.86 603.96L601.86 33.79L30.27 33.79L30.27 603.96Z" id="a7XsyJX2K"></path><path d="M398.32 85.8C398.32 85.8 398.32 85.8 398.32 85.8C398.32 179.03 398.32 230.82 398.32 241.18C398.32 241.18 398.32 241.18 398.32 241.18C306.35 241.18 255.26 241.18 245.04 241.18C245.04 241.18 245.04 241.18 245.04 241.18C245.04 147.95 245.04 96.15 245.04 85.8C245.04 85.8 245.04 85.8 245.04 85.8C337.01 85.8 388.1 85.8 398.32 85.8Z" id="aem6klyuZ"></path><path d="M245.04 85.8C245.04 85.8 245.04 85.8 245.04 85.8C245.04 179.03 245.04 230.82 245.04 241.18C245.04 241.18 245.04 241.18 245.04 241.18C153.08 241.18 101.99 241.18 91.77 241.18C91.77 241.18 91.77 241.18 91.77 241.18C91.77 147.95 91.77 96.15 91.77 85.8C91.77 85.8 91.77 85.8 91.77 85.8C183.74 85.8 234.83 85.8 245.04 85.8Z" id="c7GDqodCBG"></path><path d="M551.6 85.8C551.6 85.8 551.6 85.8 551.6 85.8C551.6 179.03 551.6 230.82 551.6 241.18C551.6 241.18 551.6 241.18 551.6 241.18C459.64 241.18 408.55 241.18 398.33 241.18C398.33 241.18 398.33 241.18 398.33 241.18C398.33 147.95 398.33 96.15 398.33 85.8C398.33 85.8 398.33 85.8 398.33 85.8C490.29 85.8 541.38 85.8 551.6 85.8Z" id="a3H8fAsOnM"></path><path d="M245.04 241.18C245.04 241.18 245.04 241.18 245.04 241.18C245.04 334.41 245.04 386.2 245.04 396.56C245.04 396.56 245.04 396.56 245.04 396.56C153.08 396.56 101.99 396.56 91.77 396.56C91.77 396.56 91.77 396.56 91.77 396.56C91.77 303.33 91.77 251.54 91.77 241.18C91.77 241.18 91.77 241.18 91.77 241.18C183.74 241.18 234.83 241.18 245.04 241.18Z" id="b2TTSMCZ4L"></path><path d="M245.04 396.57C245.04 396.57 245.04 396.57 245.04 396.57C245.04 489.8 245.04 541.6 245.04 551.96C245.04 551.96 245.04 551.96 245.04 551.96C153.08 551.96 101.99 551.96 91.77 551.96C91.77 551.96 91.77 551.96 91.77 551.96C91.77 458.73 91.77 406.93 91.77 396.57C91.77 396.57 91.77 396.57 91.77 396.57C183.74 396.57 234.83 396.57 245.04 396.57Z" id="bos182Nl"></path><path d="M551.6 241.18C551.6 241.18 551.6 241.18 551.6 241.18C551.6 334.41 551.6 386.2 551.6 396.56C551.6 396.56 551.6 396.56 551.6 396.56C459.64 396.56 408.55 396.56 398.33 396.56C398.33 396.56 398.33 396.56 398.33 396.56C398.33 303.33 398.33 251.54 398.33 241.18C398.33 241.18 398.33 241.18 398.33 241.18C490.29 241.18 541.38 241.18 551.6 241.18Z" id="c47tyHi7Kd"></path><path d="M398.32 396.57C398.32 396.57 398.32 396.57 398.32 396.57C398.32 489.8 398.32 541.6 398.32 551.96C398.32 551.96 398.32 551.96 398.32 551.96C306.35 551.96 255.26 551.96 245.04 551.96C245.04 551.96 245.04 551.96 245.04 551.96C245.04 458.73 245.04 406.93 245.04 396.57C245.04 396.57 245.04 396.57 245.04 396.57C337.01 396.57 388.1 396.57 398.32 396.57Z" id="d2OwZFsjF0"></path><path d="M398.32 241.18C398.32 241.18 398.32 241.18 398.32 241.18C398.32 334.41 398.32 386.2 398.32 396.56C398.32 396.56 398.32 396.56 398.32 396.56C306.35 396.56 255.26 396.56 245.04 396.56C245.04 396.56 245.04 396.56 245.04 396.56C245.04 303.33 245.04 251.54 245.04 241.18C245.04 241.18 245.04 241.18 245.04 241.18C337.01 241.18 388.1 241.18 398.32 241.18Z" id="g6n2Ul320"></path><path d="M551.6 396.57C551.6 396.57 551.6 396.57 551.6 396.57C551.6 489.8 551.6 541.6 551.6 551.96C551.6 551.96 551.6 551.96 551.6 551.96C459.64 551.96 408.55 551.96 398.33 551.96C398.33 551.96 398.33 551.96 398.33 551.96C398.33 458.73 398.33 406.93 398.33 396.57C398.33 396.57 398.33 396.57 398.33 396.57C490.29 396.57 541.38 396.57 551.6 396.57Z" id="b385Vmt2Ll"></path><path d="M32.01 12.36C25.5 12.36 20.23 17.7 20.23 24.27C20.23 82.85 20.23 551.53 20.23 610.11C20.23 616.68 25.5 622.02 32.01 622.02C89.94 622.02 553.43 622.02 611.36 622.02C617.87 622.02 623.14 616.68 623.14 610.11C623.14 551.53 623.14 82.85 623.14 24.27C623.14 17.7 617.87 12.36 611.36 12.36C495.49 12.36 89.94 12.36 32.01 12.36ZM43.78 598.2L43.78 36.18L599.59 36.18L599.59 598.2L43.78 598.2Z" id="a5a2ykhsUu"></path><path d="M551.6 563.27C557.76 563.27 562.76 558.2 562.76 551.96C562.76 505.34 562.76 132.41 562.76 85.8C562.76 79.55 557.76 74.48 551.6 74.48C505.62 74.48 137.75 74.48 91.77 74.48C85.61 74.48 80.61 79.55 80.61 85.8C80.61 132.41 80.61 505.34 80.61 551.96C80.61 558.2 85.61 563.27 91.77 563.27C183.74 563.27 505.62 563.27 551.6 563.27ZM409.49 385.25L409.49 252.5L540.44 252.5L540.44 385.25L409.49 385.25ZM256.21 385.25L256.21 252.5L387.16 252.5L387.16 385.25L256.21 385.25ZM102.93 385.25L102.93 252.5L233.89 252.5L233.89 385.25L233.89 385.25L102.93 385.25ZM233.89 407.88L233.89 540.64L102.93 540.64L102.93 407.88L233.89 407.88ZM387.16 407.88L387.16 540.64L256.21 540.64L256.21 407.88L387.16 407.88ZM409.49 540.64L409.49 407.88L540.44 407.88L540.44 540.64L409.49 540.64ZM409.49 229.87L409.49 97.11L540.44 97.11L540.44 229.87L409.49 229.87ZM256.21 229.87L256.21 97.11L387.16 97.11L387.16 229.87L256.21 229.87ZM233.89 97.11L233.89 229.87L102.93 229.87L102.93 97.11L233.89 97.11Z" id="a1lviD3q8n"></path><path d="M169.28 127.43C169.28 127.43 156.08 135.55 156.02 135.58C152.68 137.64 152.28 142.29 154.52 145.36C155.96 147.34 158.5 147.86 160.54 146.48C160.83 146.29 163.16 144.83 163.46 144.64C163.46 144.64 163.46 196.22 163.46 196.48C163.46 200.31 168.37 201.36 171.29 201.36C174.25 201.36 179.13 200.29 179.13 196.48C179.13 196.48 179.13 131.98 179.13 131.71C179.13 130.19 178.26 128.96 177 128.1C174.75 126.54 171.24 126.17 169.28 127.43Z" id="b3tGFKgGR"></path><path d="M177.93 357.53C185.23 357.53 191.12 355.63 195.61 351.82C201.36 346.95 202.34 339.3 202.34 332.17C202.34 326.1 200.55 319.88 196.05 315.67C191.23 311.15 184.05 309.97 177.73 309.97C177.29 309.97 175.12 309.97 171.2 309.97C171.8 301.78 172.14 297.23 172.2 296.32C172.2 296.32 194.07 296.32 194.2 296.32C197.58 296.32 198.72 292.14 198.72 289.4C198.72 286.69 197.6 282.47 194.2 282.47C191 282.47 165.36 282.47 162.16 282.47C160.62 282.47 159.68 284.1 159.34 287.36C159.07 289.93 156.9 310.46 156.63 313.02C156.41 315.5 156.03 318.56 157.79 320.61C158.69 321.66 160.25 322.19 162.46 322.19C162.46 322.19 177.69 322.19 177.73 322.19C183.59 322.19 186.67 326.58 186.67 332.17C186.67 338.62 184.73 343.68 177.53 343.68C173.79 343.68 168.79 342.1 168.79 337.46C168.79 332.6 165 331.56 160.95 331.56C156.27 331.56 153.12 333.64 153.12 338.58C153.12 343.75 155.33 348.19 159.75 351.92C164.17 355.66 170.23 357.53 177.93 357.53Z" id="cZyInxHg7"></path><path d="M460.05 463.63C462.68 463.63 467.98 462.36 467.98 458.75C467.98 458.29 467.98 456.02 467.98 451.93L485.96 451.93C485.96 456.2 485.96 458.58 485.96 459.05C485.96 459.05 461.27 502.39 461.25 502.43C459.59 505.34 461.11 508.87 463.61 510.78C466.25 512.8 472.86 514.96 474.91 510.99C477.26 506.43 496.07 469.93 498.42 465.37C500.56 461.29 501.63 458.07 501.63 455.69C501.63 455.69 501.63 443.02 501.63 442.97C501.63 439.93 497.26 438.08 494.8 438.08C494.8 438.08 459.22 438.08 459.14 438.08C456.57 438.08 452.31 439.82 452.31 442.97C452.31 442.97 452.31 458.56 452.31 458.75C452.31 460.34 453.25 461.48 454.55 462.25C456.21 463.24 458.47 463.63 460.05 463.63Z" id="ba2idFENG"></path><path d="M338.72 268.29L558.46 97.48L596.47 146.37L376.72 317.19L338.72 268.29Z" id="d1iZ1IiVkK"></path><path d="M304.64 313.87L339.44 267.62L358.3 292.18L377.16 316.73L323.5 338.43L269.84 360.12L304.64 313.87Z" id="c3HHNYzRF"></path></defs><g><g><g><use xlink:href="#a7XsyJX2K" opacity="1" fill="#b07189" fill-opacity="1"></use><g><use xlink:href="#a7XsyJX2K" opacity="1" fill-opacity="0" stroke="#000000" stroke-width="1" stroke-opacity="0"></use></g></g><g><use xlink:href="#aem6klyuZ" opacity="1" fill="#e3fbff" fill-opacity="1"></use><g><use xlink:href="#aem6klyuZ" opacity="1" fill-opacity="0" stroke="#000000" stroke-width="1" stroke-opacity="0"></use></g></g><g><use xlink:href="#c7GDqodCBG" opacity="1" fill="#e3fbff" fill-opacity="1"></use><g><use xlink:href="#c7GDqodCBG" opacity="1" fill-opacity="0" stroke="#000000" stroke-width="1" stroke-opacity="0"></use></g></g><g><use xlink:href="#a3H8fAsOnM" opacity="1" fill="#e3fbff" fill-opacity="1"></use><g><use xlink:href="#a3H8fAsOnM" opacity="1" fill-opacity="0" stroke="#000000" stroke-width="1" stroke-opacity="0"></use></g></g><g><use xlink:href="#b2TTSMCZ4L" opacity="1" fill="#e3fbff" fill-opacity="1"></use><g><use xlink:href="#b2TTSMCZ4L" opacity="1" fill-opacity="0" stroke="#000000" stroke-width="1" stroke-opacity="0"></use></g></g><g><use xlink:href="#bos182Nl" opacity="1" fill="#e3fbff" fill-opacity="1"></use><g><use xlink:href="#bos182Nl" opacity="1" fill-opacity="0" stroke="#000000" stroke-width="1" stroke-opacity="0"></use></g></g><g><use xlink:href="#c47tyHi7Kd" opacity="1" fill="#e3fbff" fill-opacity="1"></use><g><use xlink:href="#c47tyHi7Kd" opacity="1" fill-opacity="0" stroke="#000000" stroke-width="1" stroke-opacity="0"></use></g></g><g><use xlink:href="#d2OwZFsjF0" opacity="1" fill="#e3fbff" fill-opacity="1"></use><g><use xlink:href="#d2OwZFsjF0" opacity="1" fill-opacity="0" stroke="#000000" stroke-width="1" stroke-opacity="0"></use></g></g><g><use xlink:href="#g6n2Ul320" opacity="1" fill="#e3fbff" fill-opacity="1"></use><g><use xlink:href="#g6n2Ul320" opacity="1" fill-opacity="0" stroke="#000000" stroke-width="1" stroke-opacity="0"></use></g></g><g><use xlink:href="#b385Vmt2Ll" opacity="1" fill="#e3fbff" fill-opacity="1"></use><g><use xlink:href="#b385Vmt2Ll" opacity="1" fill-opacity="0" stroke="#000000" stroke-width="1" stroke-opacity="0"></use></g></g><g><use xlink:href="#a5a2ykhsUu" opacity="1" fill="#564b4b" fill-opacity="1"></use><g><use xlink:href="#a5a2ykhsUu" opacity="1" fill-opacity="0" stroke="#000000" stroke-width="1" stroke-opacity="0"></use></g></g><g><use xlink:href="#a1lviD3q8n" opacity="1" fill="#564b4b" fill-opacity="1"></use><g><use xlink:href="#a1lviD3q8n" opacity="1" fill-opacity="0" stroke="#000000" stroke-width="1" stroke-opacity="0"></use></g></g><g><use xlink:href="#b3tGFKgGR" opacity="1" fill="#564b4b" fill-opacity="1"></use><g><use xlink:href="#b3tGFKgGR" opacity="1" fill-opacity="0" stroke="#000000" stroke-width="1" stroke-opacity="0"></use></g></g><g><use xlink:href="#cZyInxHg7" opacity="1" fill="#564b4b" fill-opacity="1"></use><g><use xlink:href="#cZyInxHg7" opacity="1" fill-opacity="0" stroke="#000000" stroke-width="1" stroke-opacity="0"></use></g></g><g><use xlink:href="#ba2idFENG" opacity="1" fill="#564b4b" fill-opacity="1"></use><g><use xlink:href="#ba2idFENG" opacity="1" fill-opacity="0" stroke="#000000" stroke-width="1" stroke-opacity="0"></use></g></g><g><use xlink:href="#d1iZ1IiVkK" opacity="1" fill="#635757" fill-opacity="1"></use></g><g><use xlink:href="#c3HHNYzRF" opacity="1" fill="#635757" fill-opacity="1"></use></g></g></g></svg>