<?xml version="1.0" encoding="UTF-8" standalone="no"?><!DOCTYPE svg PUBLIC "-//W3C//DTD SVG 1.1//EN" "http://www.w3.org/Graphics/SVG/1.1/DTD/svg11.dtd"><svg width="100%" height="100%" viewBox="0 0 534 534" version="1.1" xmlns="http://www.w3.org/2000/svg" xmlns:xlink="http://www.w3.org/1999/xlink" xml:space="preserve" xmlns:serif="http://www.serif.com/" style="fill-rule:evenodd;clip-rule:evenodd;stroke-linecap:round;stroke-linejoin:round;stroke-miterlimit:1.5;"><rect id="org.gnome.Passbook" x="0" y="0" width="533.333" height="533.333" style="fill:none;"/><rect x="54.995" y="43.491" width="76.345" height="446.352" style="fill:#588d57;"/><clipPath id="_clip1"><rect x="54.995" y="43.491" width="76.345" height="446.352"/></clipPath><g clip-path="url(#_clip1)"><path d="M69.914,43.491l-0,446.352" style="fill:none;stroke:#4e4e4e;stroke-width:6.25px;stroke-dasharray:18.75,18.75,0,0;stroke-dashoffset:29.69;"/></g><path d="M495.699,62.635c-0,-13.808 -11.193,-25 -25,-25c-79.321,-0 -323.526,-0 -381.629,-0c-6.904,-0 -12.5,5.596 -12.5,12.5c-0,65.398 -0,367.665 -0,433.064c-0,6.903 5.596,12.5 12.5,12.5c58.103,-0 302.308,-0 381.629,-0c13.807,-0 25,-11.193 25,-25c-0,-79.855 -0,-328.21 -0,-408.064Z" style="fill:#4e4e4e;"/><g><path d="M334.711,197.45c-0.883,0.238 -1.52,1.008 -1.588,1.92c-1.446,17.202 -13.463,32.454 -31.089,37.177c-22.468,6.02 -45.596,-7.333 -51.617,-29.801c-6.02,-22.468 7.334,-45.597 29.801,-51.617c17.627,-4.723 35.659,2.478 45.519,16.647c0.513,0.754 1.446,1.1 2.326,0.864c9.048,-2.414 56.855,-15.224 67.447,-18.062c0.551,-0.148 1.139,-0.071 1.633,0.215c0.495,0.285 0.856,0.755 1.003,1.307c1.253,4.674 4.279,15.968 5.532,20.642c0.147,0.552 0.07,1.139 -0.216,1.634c-0.285,0.494 -0.755,0.855 -1.307,1.003c-2.888,0.774 -8.085,2.166 -10.974,2.94c-0.551,0.148 -1.022,0.509 -1.307,1.003c-0.286,0.495 -0.363,1.082 -0.215,1.634c1.046,3.904 3.292,12.287 4.338,16.191c0.308,1.149 -0.373,2.329 -1.522,2.637c-4.062,1.088 -13.01,3.486 -17.073,4.575c-1.148,0.307 -2.328,-0.374 -2.636,-1.523c-1.046,-3.904 -3.293,-12.287 -4.339,-16.191c-0.307,-1.148 -1.488,-1.83 -2.636,-1.522c-6.383,1.71 -25.591,6.857 -31.08,8.327Zm-48.486,-19.906c10.096,-2.705 20.49,3.296 23.195,13.392c2.705,10.097 -3.295,20.49 -13.392,23.196c-10.096,2.705 -20.49,-3.296 -23.195,-13.392c-2.706,-10.097 3.295,-20.49 13.392,-23.196Z" style="fill:#5e715d;"/><path d="M297.717,359.08c-0.551,-0.146 -1.133,0.071 -1.454,0.541c-5.897,8.453 -16.665,12.744 -27.191,9.924c-13.433,-3.6 -21.416,-17.428 -17.817,-30.861c3.599,-13.433 17.428,-21.417 30.861,-17.817c10.525,2.82 17.705,11.92 18.588,22.188c0.043,0.567 0.439,1.044 0.988,1.191c5.484,1.476 33.804,9.064 40.23,10.786c0.344,0.092 0.637,0.317 0.815,0.626c0.179,0.308 0.227,0.675 0.135,1.019c-0.753,2.809 -2.526,9.424 -3.278,12.233c-0.192,0.717 -0.929,1.142 -1.646,0.95c-1.719,-0.461 -4.733,-1.268 -6.452,-1.729c-0.344,-0.092 -0.711,-0.044 -1.019,0.134c-0.309,0.178 -0.534,0.472 -0.626,0.816c-0.627,2.338 -1.938,7.233 -2.565,9.572c-0.092,0.344 -0.317,0.637 -0.626,0.815c-0.309,0.178 -0.675,0.227 -1.019,0.135c-2.436,-0.653 -7.664,-2.054 -10.099,-2.706c-0.344,-0.093 -0.638,-0.318 -0.816,-0.626c-0.178,-0.309 -0.226,-0.676 -0.134,-1.02c0.627,-2.338 1.938,-7.233 2.565,-9.571c0.092,-0.345 0.044,-0.711 -0.134,-1.02c-0.179,-0.308 -0.472,-0.534 -0.816,-0.626c-3.855,-1.033 -15.175,-4.066 -18.49,-4.954Zm-19.192,-24.812c6.036,1.618 9.624,7.832 8.006,13.868c-1.617,6.037 -7.831,9.625 -13.868,8.007c-6.036,-1.617 -9.624,-7.831 -8.006,-13.868c1.617,-6.036 7.831,-9.624 13.868,-8.007Z" style="fill:#576457;"/><path d="M294.563,292.906c-1.771,0.001 -3.347,1.122 -3.931,2.795c-11.385,31.635 -41.68,54.276 -77.221,54.276c-45.296,-0 -82.071,-36.775 -82.071,-82.071c0,-45.296 36.775,-82.071 82.071,-82.071c35.541,-0 65.836,22.641 77.235,54.271c0.582,1.666 2.153,2.782 3.917,2.782c18.199,0.018 114.704,0.018 136.014,0.018c1.105,-0 2.165,0.439 2.946,1.22c0.782,0.782 1.221,1.841 1.221,2.947c-0,9.416 -0,32.25 -0,41.666c-0,1.105 -0.439,2.165 -1.221,2.947c-0.781,0.781 -1.841,1.22 -2.946,1.22c-5.827,-0 -16.348,-0 -22.176,-0c-1.105,-0 -2.164,0.439 -2.946,1.22c-0.781,0.782 -1.22,1.841 -1.22,2.947c-0,7.867 -0,24.825 -0,32.693c-0,2.301 -1.866,4.167 -4.167,4.167c-8.187,-0 -26.284,-0 -34.47,-0c-2.302,-0 -4.167,-1.866 -4.167,-4.167c-0,-7.868 -0,-24.826 -0,-32.693c-0,-2.302 -1.866,-4.167 -4.167,-4.167c-12.848,-0 -51.651,-0 -62.701,-0Zm-81.152,-61.881c20.355,0 36.881,16.526 36.881,36.881c-0,20.355 -16.526,36.88 -36.881,36.88c-20.355,0 -36.881,-16.525 -36.881,-36.88c0,-20.355 16.526,-36.881 36.881,-36.881Z" style="fill:#58b257;"/></g><path d="M63.258,50.226c0,-3.339 -1.326,-6.542 -3.688,-8.903c-2.361,-2.362 -5.564,-3.688 -8.903,-3.688c-0.147,-0 -0.294,-0 -0.441,-0c-3.339,-0 -6.542,1.326 -8.903,3.688c-2.362,2.361 -3.688,5.564 -3.688,8.903c-0,65.559 -0,367.322 -0,432.881c-0,3.34 1.326,6.542 3.688,8.904c2.361,2.361 5.564,3.688 8.903,3.688c0.147,-0 0.294,-0 0.441,-0c3.339,-0 6.542,-1.327 8.903,-3.688c2.362,-2.362 3.688,-5.564 3.688,-8.904c0,-65.559 0,-367.322 0,-432.881Z" style="fill:#58b257;"/></svg>