<?xml version="1.0" encoding="UTF-8" standalone="no"?><!DOCTYPE svg PUBLIC "-//W3C//DTD SVG 1.1//EN" "http://www.w3.org/Graphics/SVG/1.1/DTD/svg11.dtd"><svg width="100%" height="100%" viewBox="0 0 534 534" version="1.1" xmlns="http://www.w3.org/2000/svg" xmlns:xlink="http://www.w3.org/1999/xlink" xml:space="preserve" xmlns:serif="http://www.serif.com/" style="fill-rule:evenodd;clip-rule:evenodd;stroke-linejoin:round;stroke-miterlimit:2;"><rect id="org.gnome.design.IconPreview" x="3.12" y="0" width="533.333" height="533.333" style="fill:none;"/><circle cx="269.787" cy="266.666" r="242.713" style="fill:#74748f;"/><g><g><path d="M450.614,168.255c-0,-6.354 -2.525,-12.448 -7.018,-16.941c-4.493,-4.493 -10.587,-7.017 -16.941,-7.017c-65.678,-0 -248.058,-0 -313.736,-0c-6.354,-0 -12.448,2.524 -16.941,7.017c-4.493,4.493 -7.018,10.587 -7.018,16.941c0,46.827 0,149.995 0,196.822c0,6.355 2.525,12.448 7.018,16.942c4.493,4.493 10.587,7.017 16.941,7.017c65.678,-0 248.058,-0 313.736,-0c6.354,-0 12.448,-2.524 16.941,-7.017c4.493,-4.494 7.018,-10.587 7.018,-16.942c-0,-46.827 -0,-149.995 -0,-196.822Z" style="fill:#c4c4d1;"/><path d="M450.614,168.255c-0,-6.354 -2.525,-12.448 -7.018,-16.941c-4.493,-4.493 -10.587,-7.017 -16.941,-7.017c-49.163,-0 -156.868,-0 -156.868,-0l0,244.739l156.868,-0c6.354,-0 12.448,-2.524 16.941,-7.017c4.493,-4.494 7.018,-10.587 7.018,-16.942c-0,-46.827 -0,-149.995 -0,-196.822Z" style="fill:#353541;"/><rect x="246.959" y="158.332" width="4.331" height="216.667" style="fill:#353541;"/></g><g><circle cx="395.833" cy="266.667" r="83.333" style="fill:#c4c4d1;"/><g><circle cx="395.833" cy="266.667" r="65.647" style="fill:#5b5b63;"/><g><circle cx="387.933" cy="253.31" r="21.69" style="fill:#fff;"/><circle cx="426.719" cy="292.095" r="8.762" style="fill:#fff;"/></g></g></g></g></svg>