<?xml version="1.0" encoding="UTF-8" standalone="no"?>
<!DOCTYPE svg PUBLIC "-//W3C//DTD SVG 1.1//EN" "http://www.w3.org/Graphics/SVG/1.1/DTD/svg11.dtd">
<svg version="1.1" xmlns="http://www.w3.org/2000/svg" xmlns:xlink="http://www.w3.org/1999/xlink" preserveAspectRatio="xMidYMid meet" viewBox="0 0 640 640" width="64" height="64"><defs><path d="M74.87 167.93L270.31 282.39L559.02 209.46L353.78 106.77L74.87 167.93Z" id="e8QNfMq9"></path><path d="M86.6 401.34L74.87 167.93L269.13 279.76L272.14 534.42L86.6 401.34Z" id="atTLFXrpB"></path><path d="M271.19 534.42L538.49 441.7L559.02 209.34L269.57 279.3L271.19 534.42Z" id="dEIQvKIth"></path><path d="M415.77 246.2L419.74 263.5L363.94 273.57L355.87 314.1L405.52 305.15L409.47 322.34L352.07 332.69L342.1 382.93L310.32 388.66L320.49 338.38L271.64 347.19L261.47 397.47L229.89 403.16L239.86 352.92L188.62 362.16L184.67 344.97L243.66 334.33L251.72 293.8L198.89 303.32L194.92 286.02L255.1 275.17L265.05 224.82L296.82 219.09L286.88 269.44L335.53 260.67L345.68 210.28L377.46 204.55L367.31 254.94L415.77 246.2ZM275.44 328.61L324.29 319.8L332.16 279.3L283.5 288.07L275.44 328.61Z" id="a3KF89GTm"></path></defs><g><g><g><use xlink:href="#e8QNfMq9" opacity="1" fill="#b0aac5" fill-opacity="1"></use><g><use xlink:href="#e8QNfMq9" opacity="1" fill-opacity="0" stroke="#ffffff" stroke-width="0" stroke-opacity="1"></use></g></g><g><use xlink:href="#atTLFXrpB" opacity="1" fill="#cc9393" fill-opacity="1"></use><g><use xlink:href="#atTLFXrpB" opacity="1" fill-opacity="0" stroke="#ffffff" stroke-width="0" stroke-opacity="1"></use></g></g><g><use xlink:href="#dEIQvKIth" opacity="1" fill="#92c38f" fill-opacity="1"></use><g><use xlink:href="#dEIQvKIth" opacity="1" fill-opacity="0" stroke="#ffffff" stroke-width="0" stroke-opacity="1"></use></g></g><g><use xlink:href="#a3KF89GTm" opacity="1" fill="#ffe7e7" fill-opacity="1"></use><g><use xlink:href="#a3KF89GTm" opacity="1" fill-opacity="0" stroke="#000000" stroke-width="0" stroke-opacity="1"></use></g></g></g></g></svg>