<?xml version="1.0" encoding="UTF-8" standalone="no"?><!DOCTYPE svg PUBLIC "-//W3C//DTD SVG 1.1//EN" "http://www.w3.org/Graphics/SVG/1.1/DTD/svg11.dtd"><svg width="100%" height="100%" viewBox="0 0 1024 1024" version="1.1" xmlns="http://www.w3.org/2000/svg" xmlns:xlink="http://www.w3.org/1999/xlink" xml:space="preserve" xmlns:serif="http://www.serif.com/" style="fill-rule:evenodd;clip-rule:evenodd;stroke-linejoin:round;stroke-miterlimit:2;"><path d="M934.522,136.59c0,-12.263 -4.871,-24.023 -13.542,-32.694c-8.671,-8.671 -20.432,-13.543 -32.695,-13.543l-750.82,0c-12.263,0 -24.023,4.872 -32.694,13.543c-8.671,8.671 -13.543,20.431 -13.543,32.694l0,750.82c0,12.263 4.872,24.023 13.543,32.694c8.671,8.671 20.431,13.543 32.694,13.543l750.82,0c12.263,0 24.024,-4.872 32.695,-13.543c8.671,-8.671 13.542,-20.431 13.542,-32.694l0,-750.82Z" style="fill:#b79db7;"/><g><path d="M657.546,288.384c0,-2.303 -0.915,-4.511 -2.543,-6.139c-1.629,-1.629 -3.837,-2.543 -6.14,-2.543l-388.196,0c-2.302,0 -4.511,0.914 -6.139,2.543c-1.628,1.628 -2.543,3.836 -2.543,6.139l0,269.484c0,2.303 0.915,4.511 2.543,6.139c1.628,1.629 3.837,2.543 6.139,2.543l388.196,0c2.303,0 4.511,-0.914 6.14,-2.543c1.628,-1.628 2.543,-3.836 2.543,-6.139l0,-269.484Z" style="fill:#e1cce1;"/><rect x="276.057" y="301.424" width="357.416" height="236.543" style="fill:#b79db7;"/></g><g><path d="M700.436,341.263c0,-2.303 -0.914,-4.511 -2.543,-6.139c-1.628,-1.629 -3.836,-2.543 -6.139,-2.543l-388.196,0c-2.303,0 -4.511,0.914 -6.139,2.543c-1.629,1.628 -2.543,3.836 -2.543,6.139l0,269.484c0,2.303 0.914,4.511 2.543,6.139c1.628,1.629 3.836,2.543 6.139,2.543l388.196,0c2.303,0 4.511,-0.914 6.139,-2.543c1.629,-1.628 2.543,-3.836 2.543,-6.139l0,-269.484Z" style="fill:#e1cce1;"/><rect x="318.948" y="354.303" width="357.416" height="236.543" style="fill:#cfaecf;"/></g><g><path d="M741.577,397.485c0,-2.303 -0.915,-4.511 -2.543,-6.14c-1.628,-1.628 -3.837,-2.543 -6.14,-2.543l-388.195,0c-2.303,0 -4.511,0.915 -6.14,2.543c-1.628,1.629 -2.543,3.837 -2.543,6.14l0,269.484c0,2.302 0.915,4.511 2.543,6.139c1.629,1.628 3.837,2.543 6.14,2.543l388.195,0c2.303,0 4.512,-0.915 6.14,-2.543c1.628,-1.628 2.543,-3.837 2.543,-6.139l0,-269.484Z" style="fill:#e5e5e5;"/><path d="M617.957,728.107c0,-4.941 -4.006,-8.947 -8.947,-8.947c-27.821,0 -112.606,0 -140.427,0c-4.941,0 -8.947,4.006 -8.947,8.947c0,2.353 0,4.891 0,7.244c0,4.941 4.006,8.947 8.947,8.947c27.821,0 112.606,0 140.427,0c4.941,0 8.947,-4.006 8.947,-8.947c0,-2.353 0,-4.891 0,-7.244Z" style="fill:#e5e5e5;"/><clipPath id="_clip1"><rect x="535.183" y="607.901" width="68.643" height="116.716"/></clipPath><g clip-path="url(#_clip1)"><path d="M590.51,607.901l-103.427,0l36.22,119.24l73.076,4.588l7.446,-12.569c0,0 -8.595,-3.799 -11.12,-7.491c-2.298,-3.36 -2.109,-9.157 -2.109,-9.157l-0.086,-94.611Z" style="fill:#e5e5e5;"/></g><clipPath id="_clip2"><rect x="473.768" y="607.901" width="65.029" height="121.816"/></clipPath><g clip-path="url(#_clip2)"><path d="M487.083,607.901l103.427,0l-23.972,123.828l-88.063,1.913l-4.707,-14.482c0,0 8.595,-3.799 11.12,-7.491c2.298,-3.36 2.109,-9.157 2.109,-9.157l0.086,-94.611Z" style="fill:#e5e5e5;"/></g><rect x="360.089" y="410.524" width="357.416" height="236.543" style="fill:#d395d3;"/></g></svg>