<?xml version="1.0" encoding="UTF-8" standalone="no"?>
<!DOCTYPE svg PUBLIC "-//W3C//DTD SVG 1.1//EN" "http://www.w3.org/Graphics/SVG/1.1/DTD/svg11.dtd">
<svg width="100%" height="100%" viewBox="0 0 2048 2048" version="1.1" xmlns="http://www.w3.org/2000/svg" xmlns:xlink="http://www.w3.org/1999/xlink" xml:space="preserve" xmlns:serif="http://www.serif.com/" style="fill-rule:evenodd;clip-rule:evenodd;stroke-linejoin:round;stroke-miterlimit:2;">
    <g transform="matrix(0.947059,0,0,0.947059,-111.889,-270.199)">
        <circle cx="1199.38" cy="1366.55" r="1029.71" style="fill:rgb(222,207,186);"/>
    </g>
    <g transform="matrix(1.34075,0,0,1.34075,-348.932,-402.474)">
        <g transform="matrix(1.00676,0,0,1.02783,-0.841552,104.721)">
            <rect x="616.186" y="622.771" width="803.539" height="520.896" style="fill:rgb(177,157,129);"/>
        </g>
        <g transform="matrix(0.745849,0,0,0.745849,297.304,334.22)">
            <path d="M757.821,845.598L702.2,789.976C857.182,634.994 1108.46,634.994 1263.44,789.976L1207.82,845.598C1257.56,899.894 1287.93,972.221 1287.93,1051.58C1287.93,1219.98 1151.21,1356.69 982.82,1356.69C814.427,1356.69 677.713,1219.98 677.713,1051.58C677.713,972.221 708.081,899.894 757.821,845.598ZM1207.82,845.598C1152.02,784.692 1071.85,746.478 982.82,746.478C893.791,746.478 813.616,784.692 757.821,845.598L803.19,890.966C765.029,933.604 741.808,989.904 741.808,1051.58C741.808,1184.6 849.802,1292.6 982.82,1292.6C1115.84,1292.6 1223.83,1184.6 1223.83,1051.58C1223.83,989.904 1200.61,933.604 1162.45,890.966L1207.82,845.598ZM803.19,890.966C847.342,841.633 910.171,816.349 981.509,816.349C1052.85,816.349 1118.3,841.633 1162.45,890.966L1108.42,944.995C1146.97,979.512 1171.23,1029.64 1171.23,1085.38C1171.23,1189.37 1086.81,1273.79 982.82,1273.79C878.834,1273.79 794.411,1189.37 794.411,1085.38C794.411,1029.64 818.674,979.512 857.218,944.995L803.19,890.966ZM1108.42,944.995C1075.09,915.143 1031.06,896.975 982.82,896.975C934.581,896.975 890.552,915.143 857.218,944.995L901.348,989.125C874.035,1012.27 856.689,1046.82 856.689,1085.38C856.689,1155 913.206,1211.51 982.82,1211.51C1052.43,1211.51 1108.95,1155 1108.95,1085.38C1108.95,1046.82 1091.6,1012.27 1064.29,989.125L1108.42,944.995ZM901.348,989.125C923.33,970.495 951.772,959.253 982.82,959.253C1013.87,959.253 1042.31,970.495 1064.29,989.125L982.82,1070.6L901.348,989.125Z" style="fill:rgb(104,104,104);"/>
        </g>
        <g transform="matrix(0.648012,-0.648012,0.648012,0.648012,-205.895,970.003)">
            <clipPath id="_clip1">
                <rect x="578.884" y="755.486" width="574.254" height="566.828"/>
            </clipPath>
            <g clip-path="url(#_clip1)">
                <path d="M833.655,755.486C657.209,755.486 514.172,898.524 514.172,1074.97C514.172,1251.3 657.327,1394.45 833.655,1394.45C1010.1,1394.45 1153.14,1251.41 1153.14,1074.97L833.655,1074.97L833.655,755.486Z" style="fill:rgb(177,157,129);"/>
            </g>
        </g>
        <g transform="matrix(0.524083,0,0,0.723829,629.172,347.498)">
            <path d="M1556.82,805.312L1556.82,1306.65L856.567,1306.65L1556.82,805.312Z" style="fill:rgb(160,175,133);"/>
        </g>
        <g transform="matrix(0.745849,0,0,0.745849,297.304,334.22)">
            <path d="M1326.21,1009.62L1538.88,799.339L1538.88,1285.88L1326.21,1285.88L1326.21,1009.62Z" style="fill:rgb(110,127,81);"/>
        </g>
        <g transform="matrix(0.671518,0,0,0.759427,329.074,325.939)">
            <path d="M427.405,609.884L1166.07,1280.64L427.405,1280.64L427.405,609.884Z" style="fill:rgb(146,165,188);"/>
        </g>
        <g transform="matrix(0.745849,0,0,0.745849,297.304,334.22)">
            <path d="M1092.45,1292.85L521.595,1292.85L810.818,1003.63L1092.45,1292.85Z" style="fill:rgb(87,112,142);"/>
        </g>
        <g transform="matrix(0.745849,0,0,0.745849,297.304,334.22)">
            <path d="M1589.69,501.961C1589.69,492.37 1581.91,484.596 1572.32,484.596C1434.15,484.596 514.491,484.596 376.317,484.596C366.726,484.596 358.951,492.37 358.951,501.961C358.951,613.345 358.951,1226.33 358.951,1337.72C358.951,1347.31 366.726,1355.08 376.317,1355.08C514.491,1355.08 1434.15,1355.08 1572.32,1355.08C1581.91,1355.08 1589.69,1347.31 1589.69,1337.72C1589.69,1226.33 1589.69,613.345 1589.69,501.961ZM1516.64,550.515L432.003,550.515L432.003,1268.34L1516.64,1268.34L1516.64,550.515Z" style="fill:rgb(136,136,136);"/>
        </g>
        <g transform="matrix(1,0,0,1,-7.9189,141.082)">
            <path d="M1211.09,1315.65C1211.09,1308.28 1205.12,1302.3 1197.74,1302.3C1141.3,1302.3 922.536,1302.3 866.094,1302.3C858.722,1302.3 852.747,1308.28 852.747,1315.65C852.747,1324.75 852.747,1336.75 852.747,1345.85C852.747,1353.23 858.722,1359.2 866.094,1359.2C922.536,1359.2 1141.3,1359.2 1197.74,1359.2C1205.12,1359.2 1211.09,1353.23 1211.09,1345.85C1211.09,1336.75 1211.09,1324.75 1211.09,1315.65Z" style="fill:rgb(136,136,136);"/>
        </g>
        <g transform="matrix(1,0,0,0.85517,10.6448,290.117)">
            <clipPath id="_clip2">
                <rect x="1005.18" y="1181.69" width="155.366" height="181.334"/>
            </clipPath>
            <g clip-path="url(#_clip2)">
                <path d="M1130.4,1054.11L896.306,1054.11L978.288,1369.71L1143.69,1381.85L1160.54,1348.58C1160.54,1348.58 1141.09,1338.53 1135.37,1328.76C1130.17,1319.86 1130.6,1304.52 1130.6,1304.52L1130.4,1054.11Z" style="fill:rgb(136,136,136);"/>
            </g>
        </g>
        <g transform="matrix(-1,0,0,0.85517,2037.36,290.117)">
            <clipPath id="_clip3">
                <rect x="1004.13" y="1175.85" width="156.406" height="200.672"/>
            </clipPath>
            <g clip-path="url(#_clip3)">
                <path d="M1130.4,1054.11L896.306,1054.11L950.565,1381.85L1149.89,1386.91L1160.54,1348.58C1160.54,1348.58 1141.09,1338.53 1135.37,1328.76C1130.17,1319.86 1130.6,1304.52 1130.6,1304.52L1130.4,1054.11Z" style="fill:rgb(136,136,136);"/>
            </g>
        </g>
    </g>
</svg>
