<?xml version="1.0" encoding="UTF-8" standalone="no"?><!DOCTYPE svg PUBLIC "-//W3C//DTD SVG 1.1//EN" "http://www.w3.org/Graphics/SVG/1.1/DTD/svg11.dtd"><svg width="100%" height="100%" viewBox="0 0 267 267" version="1.1" xmlns="http://www.w3.org/2000/svg" xmlns:xlink="http://www.w3.org/1999/xlink" xml:space="preserve" xmlns:serif="http://www.serif.com/" style="fill-rule:evenodd;clip-rule:evenodd;stroke-linejoin:round;stroke-miterlimit:2;"><rect id="Artboard2" x="4.122" y="0" width="266.667" height="266.667" style="fill:none;"/><g><g><circle cx="137.478" cy="133.349" r="91.085" style="fill:#448de8;"/><path d="M136.255,42.328c-0.039,-0 -0.079,-0 -0.119,0c-6.523,0.095 -12.85,0.897 -18.963,2.282c-0.92,0.211 -1.797,0.576 -2.594,1.081c-0.5,0.475 -1.143,0.749 -1.832,0.958c-2.248,0.746 -4.054,2.441 -4.941,4.636c-0.242,-0.075 -0.25,-0.056 -0.258,-0.037c-0.465,1.118 -2.105,2.317 -3.228,2.221c-0.83,-0.071 -1.776,-1.235 -1.781,-2.009c0,-0 0,-0 0,-0c-0.001,-0.501 -0.255,-0.968 -0.675,-1.241c-0.42,-0.274 -0.95,-0.317 -1.409,-0.116c-4.544,2.024 -8.881,4.417 -12.989,7.128c-0.3,0.204 -0.431,0.58 -0.321,0.926c0.11,0.346 0.435,0.578 0.797,0.571c0,0.003 0,0.003 0,0.003c0.248,-0.005 0.476,0.02 0.699,0.076c1.007,0.263 3.663,3.172 1.447,4.118c-0.208,0.091 -3.249,0.42 -3.775,0.329c-0.769,-0.132 -1.229,-1.194 -2.008,-1.336c-1.306,-0.228 -2.965,1.128 -4.094,0.521c-11.952,9.648 -21.323,22.279 -27.155,36.77c-0.097,0.248 -0.029,0.53 0.169,0.708c0.197,0.178 0.485,0.215 0.722,0.093c0,0.002 0,0.002 0,0.002c1.624,-0.845 3.001,-2.212 4.893,-2.338c0.946,-0.02 2.307,0.253 3.213,0.445c0.835,0.172 1.513,0.734 2.236,0.79c1.127,0.086 1.782,-0.357 2.422,-0.922c0.968,-0.718 2.126,-1.134 3.329,-1.196c0.983,-0.246 1.855,-0.453 2.916,-0.336c1.068,0.116 1.837,1.259 2.666,1.32c0.699,0.071 1.321,-0.647 1.994,-0.546c0.658,0.101 1.786,1.533 1.892,2.337c0.041,0.298 -0.008,0.588 -0.088,0.876c-0.188,1.385 0.578,2.725 1.868,3.264c0.069,0.055 0.149,0.08 0.23,0.105c0.545,0.216 1.163,0.127 1.625,-0.233c0.462,-0.359 0.7,-0.937 0.624,-1.518c-0.122,-0.361 -0.219,-0.722 -0.257,-1.057c-0.02,-0.511 0.071,-0.966 0,-1.437c-0.091,-0.799 -0.44,-1.538 -0.445,-2.221c-0.02,-3.162 2.555,-4.645 4.675,-5.894c0.921,-0.547 1.644,-1.493 2.439,-1.893c1.123,-0.566 1.963,-0.698 2.899,-1.219c0.616,-0.346 1.201,-0.668 1.759,-0.989c1.828,-1.08 2.934,-3.059 2.896,-5.181c-0.037,-0.146 -0.05,-0.291 -0.061,-0.433c-0.004,-0.281 0.116,-0.55 0.328,-0.735c0.211,-0.186 0.494,-0.269 0.772,-0.227c0.194,0.08 0.398,0.134 0.614,0.125c0.035,0 0.07,-0.004 0.104,-0.013c0.954,-0.265 1.048,-1.652 1.607,-2.211c0.334,-0.328 1.25,-0.561 1.665,-0.89c1.012,-0.794 1.341,-1.994 2.221,-2.338c0.319,-0.126 1.052,-0.096 1.548,-0.227c0.658,-0.177 1.594,-0.957 2.667,-1.321c0.698,-0.243 2.302,-0.293 2.565,-0.556c0.329,-0.334 -0,-1.275 0.116,-1.781c0.542,-2.51 4.321,-3.041 6.557,-3.886c0.819,-0.309 1.648,-0.753 2.497,-1.06c0.309,-0.08 0.635,0.027 0.837,0.274c0.201,0.248 0.239,0.589 0.098,0.875c-0.216,0.146 -0.277,0.4 -0.204,0.786c0.375,2.009 3.061,-0.582 3.775,-0.875c1.356,-0.572 3.683,-0.916 5.464,-1.563c1.101,-0.404 2.821,-0.957 3.216,-1.877c0.039,-0.303 -0.085,-0.603 -0.326,-0.791c-0.24,-0.187 -0.562,-0.233 -0.846,-0.122c-0.754,0.257 -1.274,1.12 -2.035,1.45c-0.024,0.011 -0.05,0.019 -0.077,0.021c-0.663,0.053 -0.554,-0.631 -1.166,-0.69c-0.597,-0.071 -0.936,0.551 -1.549,0.445c-0.612,-0.101 -1.467,-1.062 -1.563,-1.781c-0.122,-0.929 0.271,-1.583 0.79,-2.178c0.303,-0.479 0.357,-1.075 0.144,-1.6c-0.213,-0.526 -0.666,-0.916 -1.217,-1.049c-0.266,0.017 -0.532,0.028 -0.787,0.012c-0.238,-0.064 -0.429,-0.242 -0.51,-0.474c-0.081,-0.233 -0.042,-0.49 0.104,-0.688c0.474,-0.457 1.171,-0.785 1.921,-0.909c0.956,-0.162 3.102,-0.076 3.673,0.43c0.329,0.278 0.026,0.982 0.557,1.447c0.185,0.167 0.383,0.274 0.592,0.339c0.278,0.096 0.585,0.011 0.773,-0.215c0.187,-0.226 0.216,-0.544 0.07,-0.799c-0.366,-0.147 -0.743,-0.252 -0.859,-0.491c-0.013,-0.144 0.058,-0.283 0.183,-0.355c1.492,-0.845 3.812,-0.109 5.581,-0.371c1.057,-0.157 2.175,-0.906 3.111,-1.437c0.583,-0.331 1.282,-0.824 1.961,-0.892c0.315,0.024 0.589,0.226 0.708,0.519c0.118,0.293 0.06,0.628 -0.15,0.865c-0.271,0.234 -0.623,0.41 -0.854,0.616c-0.776,0.69 -1.563,1.427 -2.316,2.191c-0.526,0.544 -0.699,1.34 -0.445,2.053c0.254,0.714 0.891,1.221 1.643,1.31c-0,0.006 -0,0.006 -0,0.006c0.536,0.071 1.209,0.233 1.781,0.329c0.662,0.117 1.376,0.081 1.892,0.218c0.936,0.228 1.184,1.234 2.11,1.234c1.243,-0.004 1.478,-1.104 1.054,-2.066c-0.18,-0.363 -0.211,-0.783 -0.086,-1.168c0.12,-0.726 0.327,-1.188 0.034,-1.774c-0.684,-1.372 -3.198,-0.071 -3.33,-1.781c-0.042,-0.574 0.21,-0.839 0.518,-1.076c0.466,-0.507 0.803,-1.119 0.981,-1.785c0.286,-1.287 1.555,-1.677 1.385,-3.251c-0.091,-0.805 -0.774,-0.81 -1.335,-1.564c-0.294,-0.384 -0.425,-1.148 -0.775,-1.447c-1.163,-0.981 -3.526,-0.794 -3.673,-2.666c0,-0 0,-0 0,-0c-0.033,-1.04 -0.859,-1.88 -1.898,-1.931c-0.361,-0.018 -0.723,-0.034 -1.088,-0.041c-0.049,-0.001 -0.099,-0.001 -0.148,-0.001c-0.312,-0 -2.063,-0 -2.397,-0Zm-43.379,21.816c0.521,0.071 1.148,0.628 1.78,0.673c0.592,0.021 1.083,-0.324 1.448,-0.227c0.495,0.129 0.838,0.588 0.917,1.093c0.04,0.282 -0.063,0.566 -0.274,0.757c-0.211,0.191 -0.503,0.265 -0.779,0.198c-0.385,0.156 -0.63,0.01 -0.983,0.072c-1.507,0.258 -2.084,3.212 -3.212,3.111c-0.853,-0.073 -1.393,-1.755 -1.014,-2.817c0.24,-0.417 0.253,-0.927 0.036,-1.357c0.049,-0.253 -0.05,-0.438 -0.034,-0.729c0.318,-0.409 1.234,-0.85 2.12,-0.774m-5.004,0.344c0.308,0.016 0.541,0.081 0.662,0.218c-0.146,1.184 -1.077,1.113 -1.993,1.665c-1.579,0.956 -2.494,2.408 -3,4.447c-0.147,0.592 -1.7,2.165 -2.454,2.009c-1.761,-0.37 0.486,-3.623 0.89,-4.119c0.446,-0.546 1.038,-1.032 1.564,-1.665c0.506,-0.612 0.845,-1.436 1.335,-1.78c0.537,-0.37 2.07,-0.81 3.001,-0.775m13.165,4.003c0.566,0.015 1.062,0.101 1.295,0.328c-0.321,1.294 -2.808,1.144 -4.187,0.727c-0.135,-0.049 -0.235,-0.165 -0.262,-0.306c-0.028,-0.141 0.021,-0.286 0.128,-0.382c0.363,-0.148 0.862,-0.223 1.311,-0.266c0.511,-0.021 1.153,-0.117 1.715,-0.101m-7.205,2.706c0.374,-0.015 0.759,0.071 1.159,0.177c-1.022,0.856 -2.131,1.336 -3.886,1.893c-0.845,0.268 -2.307,0.602 -2.454,-0.344c-0.177,-1.159 1.234,-0.886 2.009,-0.992c0.971,-0.132 2.039,-0.698 3.177,-0.739m111.715,1.65c0.086,0.835 0.096,1.629 -0.127,2.529c-0.303,1.205 -1.386,2.298 -1.335,3.34c0.071,0.536 0.657,1.052 0.789,1.781c0.071,0.384 -0.182,1.214 -0,1.563c0.567,1.093 2.105,0.167 3.112,0.329c0.981,0.157 2.12,1.569 2.109,2.666c-0.015,0.769 -0.733,2.044 -1.219,2.783c-0.971,1.473 -2.282,1.538 -3.673,2.328c-1.159,0.657 -1.66,1.755 -2.338,2.899c-0.451,0.754 -0.797,1.327 -0.928,2.067c-0.551,2.384 -2.157,4.387 -4.363,5.444c0.026,0.294 -0.068,0.338 -0.163,0.382c-0.607,0.273 -1.437,0.369 -1.993,0.774c-0.446,0.318 -0.704,1.184 -1.336,1.892c-0.779,0.87 -1.599,1.229 -2.009,1.892c-0.318,0.511 -0.425,1.538 -0.774,2.221c-0.475,0.936 -1.487,1.392 -2.11,2.338c-0.283,0.44 -0.475,1.32 -0.789,1.892c-0.703,1.28 -1.907,2.201 -1.781,3.329c0.132,1.088 1.366,1.275 1.447,2.222c0.02,0.536 -0.354,0.865 -0.329,1.447c0.021,0.855 0.592,1.452 0.663,2.109c0.167,1.65 -0.567,2.313 -0.875,3.446c-0.147,0.541 -0.086,1.143 -0.228,1.563c-0.273,0.825 -1.427,1.579 -1.447,2.555c-0.015,0.694 0.719,1.25 0.774,2.222c0.02,0.672 -0.334,1.391 -0.217,2.008c0.237,1.209 2.403,2.616 3.339,3.557c1.26,1.26 2.899,2.231 3.445,3.557c0.456,1.123 0.456,2.595 1.336,3.445c0.648,0.628 1.725,1.012 2.555,1.665c0.774,0.607 1.624,1.133 2.454,1.781c1.356,1.057 3.395,3.172 5.55,3.01c1.129,-0.08 2.282,-1.006 3.557,-1.234c1.316,-0.233 3.021,-0.354 4.347,-0.218c1.016,0.102 2.059,0.709 3.111,0.663c1.113,-0.071 2.393,-0.895 3.658,-1.447c0.777,-0.337 1.689,-0.706 2.686,-1.023c3.244,-1.002 5.544,-3.89 5.794,-7.276c0.221,-1.979 0.309,-3.981 0.309,-6.004c-0,-17.233 -4.822,-33.262 -13.074,-46.973c-0.385,-0.025 -0.734,-0.081 -1.159,-0.066c-1.128,0.071 -2.98,0.071 -3,-1.336c-0.003,-0.362 0.103,-0.635 0.29,-0.842c0.644,-0.897 0.651,-2.102 0.016,-3.006c-1.657,-3.035 -3.807,-5.71 -6.084,-8.274m-139.011,41.726c-1.847,0.101 -3.056,0.187 -4.104,0.663c-2.408,1.093 -1.943,4.351 -4.346,5.12c-0.83,0.268 -1.968,0.273 -2.884,0.445c-0.789,0.142 -1.75,0.577 -2.565,0.562c-0.961,-0.02 -2.641,-0.946 -3.213,-1.564c0,0 0,0 0,0c-0.309,-0.334 -0.783,-0.46 -1.217,-0.324c-0.435,0.136 -0.752,0.509 -0.816,0.96c-0.282,2.054 -0.498,4.13 -0.648,6.225c0.197,0.036 0.404,0.091 0.571,0.091c1.053,0.005 2.181,-1.088 3.34,-1.118c2.727,-0.076 3.911,3.471 6.112,4.564c0.551,0.273 1.28,0.288 1.993,0.445c0.577,0.126 1.007,0.369 1.563,0.557c1.174,0.399 2.616,0.354 3.557,0.774c1.206,0.534 2.137,2.542 3.14,3.568c0.323,0.247 0.519,0.624 0.536,1.03c0.007,0.101 0.003,0.204 -0.001,0.306c0.056,0.977 0.7,1.823 1.628,2.136c0.265,0.055 0.539,0.147 0.824,0.301c1.134,0.612 1.478,2.186 2.555,2.666c0.37,0.167 1.306,0.152 1.893,0.329c1.472,0.446 1.953,2.151 3.213,1.781c0.65,-0.19 0.753,-0.759 0.831,-1.376c0.076,-0.4 0.268,-0.768 0.553,-1.059c0.417,-0.503 0.898,-0.994 1.51,-1.005c1.381,-0.071 1.502,1.427 2.008,2.767c0.284,0.759 1.027,1.422 1.22,2.222c0.344,1.381 0.177,5.514 -0.117,6.339c-0.349,1.012 -1.72,1.442 -2.565,2.565c-0.4,0.527 -0.587,1.296 -0.89,1.665c-0.547,0.663 -1.361,0.835 -1.766,1.447c-0.233,0.344 -0.451,1.083 -0.673,1.548c-0.668,1.417 -1.564,2.419 -1.002,4.119c0.233,0.698 1.331,1.173 1.336,1.993c0.005,0.966 -2.064,1.837 -2.221,2.899c-0.117,0.79 0.637,2.201 0.89,3.228c0.182,0.774 1.65,1.26 2.11,1.781c0.779,0.876 1.407,2.115 2.12,3.213c1.412,2.166 2.515,4.802 3.886,6.901c0.723,1.098 1.74,2.085 2.221,3.228c0.248,0.577 0.217,1.26 0.445,1.781c0.794,1.796 4.301,3.673 6.112,4.564c0.85,0.415 1.791,0.562 2.565,0.992c1.179,0.657 3.506,2.423 4.103,3.455c0.532,0.931 0.861,3.188 1.119,4.665c0.344,1.953 0.02,3.451 0.116,5.566c0.071,1.143 0.43,2.297 0.445,3.445c0.005,0.4 -0.212,0.698 -0.227,1.103c-0.021,1.387 0.349,2.95 0.227,4.346c-0.01,0.299 -0.04,0.527 -0.091,0.79c10.914,4.604 22.92,7.154 35.569,7.154c1.32,-0 2.606,-0.147 3.911,-0.202c0.025,-0.208 0.061,-0.415 0.101,-0.587c0.405,-1.129 1.442,-1.503 2.11,-2.338c0.506,-0.627 0.739,-1.366 1.219,-1.993c0,-0.001 0.001,-0.001 0.001,-0.001c0.994,-1.304 1.438,-2.945 1.236,-4.572c-0.3,-0.83 -0.474,-1.639 -0.23,-2.541c0.531,-1.999 3.289,-3.218 5.222,-4.119c0.667,-0.308 1.35,-0.814 1.892,-1.001c1.341,-0.466 3.005,-0.213 4.23,-0.663c2.084,-0.764 2.302,-2.995 3.329,-4.893c0.486,-0.9 1.123,-1.801 1.219,-2.438c0.081,-0.577 -0.207,-1.114 -0.116,-1.792c0.101,-0.672 0.703,-1.254 0.89,-1.993c0.243,-0.961 0.344,-2.368 0.344,-3.446c0,-0.88 -0.409,-1.659 -0.445,-2.453c-0.142,-2.884 1.042,-3.208 2.11,-4.777c0.536,-0.779 0.734,-1.664 1.103,-2.221c1.791,-2.671 4.903,-3.961 4.675,-8.004c-0.076,-1.336 -0.911,-4.361 -1.892,-4.791c-0.562,-0.243 -1.852,-0.021 -2.667,-0.329c-2.626,-0.982 -4.174,-4.24 -6.901,-4.448c-0.582,-0.07 -1.113,0.238 -1.766,0.228c-1.077,-0.071 -2.707,-0.754 -3.901,-0.89c-0.759,-0.081 -1.765,0.222 -2.221,-0c-0.693,-0.339 -0.769,-1.614 -1.336,-1.994c-0.45,-0.309 -1.315,-0.41 -1.993,-0.673c-1.093,-0.42 -1.963,-0.916 -3.228,-1.002c-0.39,-0.02 -0.88,0.188 -1.336,0.117c-0.698,-0.117 -1.249,-0.941 -1.892,-1.336c-0.059,-0.036 -0.117,-0.07 -0.175,-0.103c-1.029,-0.6 -1.751,-1.611 -1.986,-2.778c0.079,-1.33 -1.145,-1.966 -1.512,-3.003c-0.233,-0.648 -0.127,-1.427 -0.329,-2.009c-0.288,-0.83 -1.108,-1.305 -2.009,-1.993c-1.609,-1.24 -3.035,-2.399 -5.338,-2.682c-1.011,-0.126 -2.003,0.304 -3.228,0.228c-1.295,-0.081 -2.919,-1.22 -3.885,-2.328c-0.941,-1.082 -1.402,-2.049 -2.221,-2.565c-0.78,-0.501 -1.807,-0.486 -2.338,-0.991c-0.238,-0.223 -0.192,-0.598 -0.445,-1.119c-0.356,-0.74 -0.936,-1.175 -0.663,-1.983c0.026,-0.079 0.014,-0.166 -0.032,-0.235c-0.046,-0.07 -0.121,-0.115 -0.204,-0.123c-0.132,0.02 -0.24,0.066 -0.339,0.137c-0.676,0.185 -1.4,0.02 -1.929,-0.439c-0.735,-0.405 -1.499,-0.596 -2.834,-0.352c-0.9,0.167 -1.406,1.305 -2.454,1.336c-0.86,0.071 -1.533,-0.956 -2.666,-1.118c-0.855,-0.117 -1.832,0.232 -2.439,0.116c-0.951,-0.187 -1.239,-0.982 -2.11,-1.548c-0.637,-0.415 -1.867,-1.128 -2.221,-1.118c-0.521,0.033 -0.973,0.552 -1.462,1.015c-0.349,0.13 -0.739,0.087 -1.052,-0.114c-0.313,-0.202 -0.512,-0.54 -0.537,-0.912c0.202,-0.237 0.209,-0.481 -0.076,-0.763c-0.672,-0.673 -1.239,0.303 -1.781,0.672c-0.617,0.425 -1.199,0.856 -1.882,1.103c-1.528,0.572 -2.479,0.274 -3.673,0.891c-1.103,0.572 -1.154,1.533 -1.781,2.666c-0.511,0.931 -1.685,2.282 -2.454,2.338c-0.931,0.071 -1.821,-1.301 -2.666,-1.665c-2.545,-1.103 -3.78,0.977 -5.895,1.002c-1.963,0.071 -4.761,-3.162 -4.664,-5.004c0.02,-1.123 0.642,-2.838 0.774,-4.23c0.116,-1.108 0.875,-1.771 0.89,-2.782c0.02,-1.351 -1.791,-2.394 -2.666,-2.556c-1.447,-0.267 -3.282,0.244 -5.066,0.258c-0.536,-0.06 -1.016,-0.362 -1.3,-0.821c-0.285,-0.458 -0.344,-1.022 -0.16,-1.529c-0.031,-0.019 -0.029,-0.026 -0.026,-0.033c0.141,-0.414 0.065,-0.976 0.217,-1.436c0.263,-0.709 1.002,-1.255 1.336,-2.009c0.248,-0.572 0.309,-1.397 0.556,-2.11c0.289,-0.809 0.825,-1.326 0.891,-1.892c0.081,-0.749 -0.202,-1.614 -0.789,-2.11m29.73,23.542c0.753,0.071 0.845,1.629 0.075,1.756c-0.829,0.131 -1.249,-1.306 -0.445,-1.675c0.137,-0.071 0.258,-0.081 0.37,-0.076" style="fill:#bde1fd;fill-rule:nonzero;"/></g><g><g><path d="M41.622,20.833c-9.205,0 -16.667,7.462 -16.667,16.667c-0,13.778 -0,33.246 -0,47.024c-0,4.42 1.756,8.659 4.882,11.785c3.125,3.126 7.364,4.881 11.785,4.881c10.422,0 22.901,0 28.53,0c1.95,0 3.837,0.684 5.335,1.932c5.145,4.287 17.621,14.684 24.7,20.583c0.931,0.776 2.228,0.943 3.326,0.429c1.098,-0.514 1.799,-1.617 1.799,-2.83c0,-3.566 0,-7.99 0,-11.78c0,-4.603 3.731,-8.333 8.333,-8.334c0.583,0 1.18,0 1.786,0c4.42,0 8.66,-1.755 11.785,-4.881c3.126,-3.126 4.882,-7.365 4.882,-11.785c-0,-13.778 -0,-33.246 -0,-47.024c-0,-9.205 -7.462,-16.667 -16.667,-16.667c-20.105,0 -53.704,0 -73.809,0Z" style="fill:#43be6e;fill-rule:nonzero;"/></g><path d="M86.918,45.875c-0,-5.476 -2.767,-8.21 -8.291,-8.21c-2.428,-0 -4.952,0.627 -7.573,1.883c-0.652,0.309 -1.407,0.317 -2.066,0.022c-0.659,-0.296 -1.155,-0.865 -1.358,-1.558c-0.026,-0.003 -0.029,-0.013 -0.032,-0.022c-0.324,-1.108 0.155,-2.294 1.158,-2.865c3.14,-1.7 6.675,-2.559 10.61,-2.559c3.973,0 7.278,0.997 9.924,3c2.855,2.179 4.278,5.549 4.278,10.116c0,3.836 -1.246,7.487 -3.739,10.937c-1.142,1.56 -2.308,3.112 -3.506,4.672c-2.842,3.672 -4.96,7.551 -6.353,11.633c-0.234,0.697 -0.887,1.167 -1.622,1.167c-0.001,0.003 -0.002,0.003 -0.003,0.003c-0.592,0 -1.157,-0.255 -1.548,-0.7c-0.391,-0.445 -0.572,-1.037 -0.495,-1.625c0.52,-3.312 1.778,-6.752 3.788,-10.325c1.038,-1.841 2.075,-3.635 3.112,-5.372c2.461,-4.125 3.7,-7.527 3.7,-10.197m-5.879,43.546c-0.756,0.829 -1.858,1.247 -3.305,1.247c-1.456,-0 -2.565,-0.418 -3.345,-1.247c-0.756,-0.852 -1.126,-1.882 -1.126,-3.072c-0,-1.19 0.378,-2.203 1.126,-3.031c0.78,-0.829 1.897,-1.247 3.345,-1.247c1.455,0 2.557,0.418 3.305,1.247c0.756,0.828 1.126,1.857 1.126,3.072c-0,1.19 -0.378,2.203 -1.126,3.031" style="fill:#88ffa1;fill-rule:nonzero;"/></g><g><g><path d="M233.288,245.833c9.205,0 16.667,-7.462 16.667,-16.666c-0,-13.778 -0,-33.246 -0,-47.024c0,-4.42 -1.756,-8.66 -4.882,-11.785c-3.125,-3.126 -7.364,-4.882 -11.785,-4.882c-10.422,0 -22.901,0 -28.53,0c-1.95,0 -3.838,-0.683 -5.335,-1.931c-5.145,-4.288 -17.621,-14.684 -24.7,-20.583c-0.931,-0.776 -2.228,-0.944 -3.326,-0.429c-1.098,0.514 -1.799,1.617 -1.799,2.829c-0,3.566 -0,7.991 -0,11.781c-0,4.602 -3.731,8.333 -8.333,8.333c-0.583,0 -1.18,0 -1.786,0c-4.421,0 -8.66,1.756 -11.785,4.882c-3.126,3.125 -4.882,7.365 -4.882,11.785c0,13.778 0,33.246 0,47.024c0,9.204 7.462,16.666 16.667,16.666c20.105,0 53.704,0 73.809,0Z" style="fill:#9a66b1;fill-rule:nonzero;"/></g><path d="M196.646,224.15c2.644,-0 4.79,2.146 4.79,4.79c0,2.644 -2.146,4.79 -4.79,4.79c-2.644,0 -4.79,-2.146 -4.79,-4.79c-0,-2.644 2.146,-4.79 4.79,-4.79Zm-3.413,-43.934c-0.041,-0.93 0.299,-1.837 0.943,-2.51c0.644,-0.673 1.535,-1.053 2.466,-1.053c0.003,-0 0.005,-0 0.008,-0c0.931,-0 1.822,0.38 2.466,1.053c0.644,0.673 0.984,1.58 0.943,2.51c-0.368,8.335 -1.276,28.865 -1.549,35.033c-0.044,0.995 -0.864,1.78 -1.86,1.78c-0.003,-0 -0.005,-0 -0.007,-0c-0.997,-0 -1.817,-0.785 -1.861,-1.78c-0.273,-6.168 -1.181,-26.698 -1.549,-35.033Z" style="fill:#e4b4ff;fill-rule:nonzero;"/></g></g></svg>