<?xml version="1.0" encoding="UTF-8" standalone="no"?>
<svg
   xmlns:dc="http://purl.org/dc/elements/1.1/"
   xmlns:cc="http://creativecommons.org/ns#"
   xmlns:rdf="http://www.w3.org/1999/02/22-rdf-syntax-ns#"
   xmlns:svg="http://www.w3.org/2000/svg"
   xmlns="http://www.w3.org/2000/svg"
   xmlns:xlink="http://www.w3.org/1999/xlink"
   xmlns:sodipodi="http://sodipodi.sourceforge.net/DTD/sodipodi-0.dtd"
   xmlns:inkscape="http://www.inkscape.org/namespaces/inkscape"
   version="1.1"
   preserveAspectRatio="xMidYMid meet"
   viewBox="0 0 640 640"
   width="64"
   height="64"
   id="svg49"
   sodipodi:docname="org.kde.kreversi.svg"
   inkscape:version="0.92.4 5da689c313, 2019-01-14">
  <metadata
     id="metadata53">
    <rdf:RDF>
      <cc:Work
         rdf:about="">
        <dc:format>image/svg+xml</dc:format>
        <dc:type
           rdf:resource="http://purl.org/dc/dcmitype/StillImage" />
      </cc:Work>
    </rdf:RDF>
  </metadata>
  <sodipodi:namedview
     pagecolor="#ffffff"
     bordercolor="#666666"
     borderopacity="1"
     objecttolerance="10"
     gridtolerance="10"
     guidetolerance="10"
     inkscape:pageopacity="0"
     inkscape:pageshadow="2"
     inkscape:window-width="1850"
     inkscape:window-height="1048"
     id="namedview51"
     showgrid="false"
     inkscape:zoom="3.6875"
     inkscape:cx="32"
     inkscape:cy="32"
     inkscape:window-x="70"
     inkscape:window-y="32"
     inkscape:window-maximized="1"
     inkscape:current-layer="svg49" />
  <defs
     id="defs7">
    <path
       d="M607.17 331.8C607.17 486.58 482.02 612.23 327.87 612.23C173.71 612.23 48.56 486.58 48.56 331.8C48.56 177.03 173.71 51.37 327.87 51.37C482.02 51.37 607.17 177.03 607.17 331.8Z"
       id="b599u1GZo" />
    <path
       d="M241.02 190.91C241.02 221.92 265.09 246.3 295.75 246.3C326.41 246.3 350.48 221.92 350.48 190.91C350.48 159.88 326.41 135.51 295.75 135.51C265.09 135.51 241.02 159.88 241.02 190.91Z"
       id="b3ipskThjX" />
    <path
       d="M330.71 317.33C401.85 299.02 444.73 226.94 426.54 156.24C408.36 85.56 335.66 42.05 264.59 60.34C113.73 99.15 21.48 253.76 60.13 404C86.8 507.64 170.03 583.9 268.06 607.45C240.95 586.11 220.21 554.84 210.91 518.69C194.61 455.35 217.55 391.12 264.65 351.38C283.26 335.67 305.6 323.79 330.71 317.33ZM285.44 141.38C312.16 134.5 339.24 150.39 346.07 176.94C352.9 203.5 336.85 230.48 310.13 237.35C283.41 244.22 256.33 228.34 249.5 201.79C242.67 175.23 258.72 148.25 285.44 141.38Z"
       id="gd91n9LA3" />
    <path
       d="M316.45 492.5C316.45 522.26 337.81 545.65 365 545.65C392.2 545.65 413.55 522.26 413.55 492.5C413.55 462.73 392.2 439.35 365 439.35C337.81 439.35 316.45 462.73 316.45 492.5Z"
       id="d4PmZvAw" />
    <path
       d="M459.97 145.92C478.32 168.33 489.92 197.91 491.51 229.58C494.29 285.08 465.31 334.58 420.88 359.57C403.32 369.44 383.38 375.5 362.1 376.56C301.8 379.58 255.47 432.2 258.57 494.15C261.58 554.32 311.87 604.82 373.37 601.74C501.25 595.34 600.83 482.53 594.23 350.89C589.69 260.07 535.1 182.34 459.97 145.92ZM365.61 446.64C388.26 445.5 407.48 463.37 408.64 486.63C409.81 509.9 392.47 529.6 369.82 530.73C347.17 531.86 327.95 514 326.78 490.73C325.62 467.47 342.96 447.77 365.61 446.64Z"
       id="blFkfhJVJ" />
  </defs>
  <g
     id="g47"
     transform="matrix(1.0922386,0,0,1.0922386,-39.733345,-40.134535)">
    <g
       id="g45">
      <g
         id="g11">
        <use
           xlink:href="#b599u1GZo"
           id="use9"
           style="opacity:1;fill:#e4bfde;fill-opacity:1"
           x="0"
           y="0"
           width="100%"
           height="100%" />
      </g>
      <g
         id="g19">
        <use
           xlink:href="#b3ipskThjX"
           id="use13"
           style="opacity:1;fill:#78547e;fill-opacity:1"
           x="0"
           y="0"
           width="100%"
           height="100%" />
        <g
           id="g17">
          <use
             xlink:href="#b3ipskThjX"
             id="use15"
             style="opacity:1;fill-opacity:0;stroke:#000000;stroke-width:1;stroke-opacity:0"
             x="0"
             y="0"
             width="100%"
             height="100%" />
        </g>
      </g>
      <g
         id="g27">
        <use
           xlink:href="#gd91n9LA3"
           id="use21"
           style="opacity:1;fill:#c396cb;fill-opacity:1"
           x="0"
           y="0"
           width="100%"
           height="100%" />
        <g
           id="g25">
          <use
             xlink:href="#gd91n9LA3"
             id="use23"
             style="opacity:1;fill-opacity:0;stroke:#000000;stroke-width:1;stroke-opacity:0"
             x="0"
             y="0"
             width="100%"
             height="100%" />
        </g>
      </g>
      <g
         id="g35">
        <use
           xlink:href="#d4PmZvAw"
           id="use29"
           style="opacity:1;fill:#923434;fill-opacity:1"
           x="0"
           y="0"
           width="100%"
           height="100%" />
        <g
           id="g33">
          <use
             xlink:href="#d4PmZvAw"
             id="use31"
             style="opacity:1;fill-opacity:0;stroke:#000000;stroke-width:1;stroke-opacity:0"
             x="0"
             y="0"
             width="100%"
             height="100%" />
        </g>
      </g>
      <g
         id="g43">
        <use
           xlink:href="#blFkfhJVJ"
           id="use37"
           style="opacity:1;fill:#d16767;fill-opacity:1"
           x="0"
           y="0"
           width="100%"
           height="100%" />
        <g
           id="g41">
          <use
             xlink:href="#blFkfhJVJ"
             id="use39"
             style="opacity:1;fill-opacity:0;stroke:#000000;stroke-width:1;stroke-opacity:0"
             x="0"
             y="0"
             width="100%"
             height="100%" />
        </g>
      </g>
    </g>
  </g>
</svg>
