<?xml version="1.0" encoding="UTF-8" standalone="no"?>
<svg
   xmlns:dc="http://purl.org/dc/elements/1.1/"
   xmlns:cc="http://creativecommons.org/ns#"
   xmlns:rdf="http://www.w3.org/1999/02/22-rdf-syntax-ns#"
   xmlns:svg="http://www.w3.org/2000/svg"
   xmlns="http://www.w3.org/2000/svg"
   xmlns:sodipodi="http://sodipodi.sourceforge.net/DTD/sodipodi-0.dtd"
   xmlns:inkscape="http://www.inkscape.org/namespaces/inkscape"
   width="297mm"
   height="297mm"
   viewBox="0 0 297 297"
   version="1.1"
   id="svg8"
   inkscape:version="1.0.1 (3bc2e813f5, 2020-09-07)"
   sodipodi:docname="padthv12.svg">
  <defs
     id="defs2" />
  <sodipodi:namedview
     id="base"
     pagecolor="#ffffff"
     bordercolor="#666666"
     borderopacity="1.0"
     inkscape:pageopacity="0.0"
     inkscape:pageshadow="2"
     inkscape:zoom="0.39110751"
     inkscape:cx="249.62171"
     inkscape:cy="567.02205"
     inkscape:document-units="mm"
     inkscape:current-layer="layer1"
     inkscape:document-rotation="0"
     showgrid="false"
     inkscape:window-width="1370"
     inkscape:window-height="637"
     inkscape:window-x="61"
     inkscape:window-y="85"
     inkscape:window-maximized="0" />
  <metadata
     id="metadata5">
    <rdf:RDF>
      <cc:Work
         rdf:about="">
        <dc:format>image/svg+xml</dc:format>
        <dc:type
           rdf:resource="http://purl.org/dc/dcmitype/StillImage" />
        <dc:title></dc:title>
      </cc:Work>
    </rdf:RDF>
  </metadata>
  <g
     inkscape:label="Layer 1"
     inkscape:groupmode="layer"
     id="layer1">
    <rect
       style="fill:#4a4b54;fill-opacity:1;stroke:#962a2a;stroke-width:0;stroke-linejoin:round;stroke-miterlimit:4;stroke-dasharray:none;stroke-opacity:1"
       id="rect1071"
       width="275.02496"
       height="105.15701"
       x="11.909128"
       y="16.798027"
       ry="6.3012509" />
    <rect
       style="fill:#97c2cf;fill-opacity:1;stroke:#4a4b54;stroke-width:14.2803;stroke-linejoin:round;stroke-miterlimit:4;stroke-dasharray:none;stroke-opacity:1"
       id="rect950"
       width="263.34039"
       height="265.57059"
       x="17.462099"
       y="17.633291"
       ry="6.7059073" />
    <rect
       style="fill:#c6d7dc;fill-opacity:1;stroke:#962a2a;stroke-width:0;stroke-linejoin:round;stroke-miterlimit:4;stroke-dasharray:none;stroke-opacity:1"
       id="rect952"
       width="204.82782"
       height="51.865776"
       x="48.856674"
       y="219.49536"
       ry="0" />
    <path
       style="fill:#92af2b;fill-opacity:1;stroke:#92af2b;stroke-width:0;stroke-linejoin:round;stroke-miterlimit:4;stroke-dasharray:none;stroke-opacity:1"
       id="path1073"
       sodipodi:type="arc"
       sodipodi:cx="74.375282"
       sodipodi:cy="168.49924"
       sodipodi:rx="28.028854"
       sodipodi:ry="26.356836"
       sodipodi:start="6.1474685"
       sodipodi:end="6.1356177"
       sodipodi:open="true"
       sodipodi:arc-type="arc"
       d="m 102.1464,164.93314 a 28.028854,26.356836 0 0 1 -23.896537,29.66989 28.028854,26.356836 0 0 1 -31.62274,-22.38302 28.028854,26.356836 0 0 1 23.70916,-29.80252 28.028854,26.356836 0 0 1 31.763227,22.20643" />
    <path
       style="fill:#92af2b;fill-opacity:1;stroke:#92af2b;stroke-width:0;stroke-linejoin:round;stroke-miterlimit:4;stroke-dasharray:none;stroke-opacity:1"
       id="path1075"
       sodipodi:type="arc"
       sodipodi:cx="231.33888"
       sodipodi:cy="168.515"
       sodipodi:rx="28.028854"
       sodipodi:ry="26.356836"
       sodipodi:start="6.1474685"
       sodipodi:end="6.1356177"
       sodipodi:open="true"
       sodipodi:arc-type="arc"
       d="m 259.11,164.9489 a 28.028854,26.356836 0 0 1 -23.89654,29.66989 28.028854,26.356836 0 0 1 -31.62274,-22.38302 28.028854,26.356836 0 0 1 23.70916,-29.80252 28.028854,26.356836 0 0 1 31.76323,22.20643" />
    <g
       id="g1069"
       transform="matrix(0.53302669,0,0,0.47944357,15.13326,75.388984)"
       style="fill:#4a4b54;fill-opacity:1;stroke-width:0;stroke-miterlimit:4;stroke-dasharray:none">
      <g
         id="g958"
         style="fill:#4a4b54;fill-opacity:1;stroke-width:0;stroke-miterlimit:4;stroke-dasharray:none">
	<g
   id="g956"
   style="fill:#4a4b54;fill-opacity:1;stroke-width:0;stroke-miterlimit:4;stroke-dasharray:none">
		<path
   d="M 394.765,78.51 H 117.232 C 52.591,78.51 0,131.101 0,195.744 v 223.981 c 0,7.6 6.161,13.761 13.761,13.761 h 48.899 64.402 0.264 64.138 0.264 64.138 0.264 64.138 0.264 64.138 0.264 64.402 48.9 c 7.599,0 13.761,-6.161 13.761,-13.761 V 195.744 C 512,131.101 459.409,78.51 394.765,78.51 Z M 113.301,405.963 H 76.42 V 301.091 h 36.88 v 104.872 z m 64.403,0 H 141.088 V 301.091 h 36.616 z m 64.402,0 H 205.49 V 301.091 h 36.616 z m 64.403,0 H 269.893 V 301.091 h 36.616 z m 64.402,0 H 334.295 V 301.091 h 36.616 z m 64.667,0 h -36.88 V 301.091 h 36.88 z m 27.522,0 V 287.33 c 0,-7.6 -6.162,-13.761 -13.761,-13.761 h -64.402 -0.264 -64.138 -0.264 -64.138 -0.264 -64.138 -0.264 -64.14 -0.264 -64.403 c -7.6,0 -13.761,6.161 -13.761,13.761 V 405.963 H 27.522 V 195.744 c 0,-49.467 40.245,-89.711 89.711,-89.711 h 277.533 c 49.467,0 89.712,40.245 89.712,89.711 v 210.219 z"
   id="path954"
   style="fill:#4a4b54;fill-opacity:1;stroke-width:0;stroke-miterlimit:4;stroke-dasharray:none" />

	</g>

</g>
      <g
         id="g964"
         style="fill:#4a4b54;fill-opacity:1;stroke-width:0;stroke-miterlimit:4;stroke-dasharray:none">
	<g
   id="g962"
   style="fill:#4a4b54;fill-opacity:1;stroke-width:0;stroke-miterlimit:4;stroke-dasharray:none">
		<path
   d="m 274.141,153.85 h -77.564 c -7.6,0 -13.761,6.161 -13.761,13.761 0,7.6 6.161,13.761 13.761,13.761 h 77.564 c 7.599,0 13.761,-6.161 13.761,-13.761 0,-7.6 -6.162,-13.761 -13.761,-13.761 z"
   id="path960"
   style="fill:#4a4b54;fill-opacity:1;stroke-width:0;stroke-miterlimit:4;stroke-dasharray:none" />

	</g>

</g>
      <g
         id="g970"
         style="fill:#4a4b54;fill-opacity:1;stroke-width:0;stroke-miterlimit:4;stroke-dasharray:none">
	<g
   id="g968"
   style="fill:#4a4b54;fill-opacity:1;stroke-width:0;stroke-miterlimit:4;stroke-dasharray:none">
		<path
   d="m 328.905,164.929 c -0.165,-0.881 -0.439,-1.748 -0.771,-2.573 -0.344,-0.839 -0.772,-1.638 -1.266,-2.381 -0.509,-0.757 -1.087,-1.459 -1.72,-2.092 -0.633,-0.633 -1.335,-1.211 -2.093,-1.706 -0.743,-0.495 -1.541,-0.922 -2.367,-1.266 -0.839,-0.344 -1.706,-0.619 -2.573,-0.784 -1.775,-0.358 -3.605,-0.358 -5.38,0 -0.881,0.165 -1.748,0.44 -2.573,0.784 -0.838,0.344 -1.636,0.771 -2.379,1.266 -0.757,0.495 -1.46,1.073 -2.093,1.706 -0.633,0.633 -1.211,1.335 -1.705,2.092 -0.495,0.743 -0.922,1.541 -1.266,2.381 -0.344,0.826 -0.605,1.693 -0.784,2.573 -0.179,0.881 -0.275,1.789 -0.275,2.683 0,0.894 0.096,1.803 0.275,2.683 0.177,0.881 0.44,1.748 0.784,2.573 0.344,0.839 0.771,1.638 1.266,2.381 0.494,0.757 1.072,1.459 1.705,2.092 0.633,0.633 1.336,1.211 2.093,1.706 0.743,0.495 1.541,0.922 2.379,1.266 0.827,0.344 1.693,0.605 2.573,0.784 0.882,0.179 1.79,0.275 2.683,0.275 0.894,0 1.804,-0.096 2.697,-0.275 0.867,-0.179 1.734,-0.44 2.573,-0.784 0.826,-0.344 1.624,-0.771 2.367,-1.266 0.758,-0.495 1.46,-1.073 2.093,-1.706 0.633,-0.633 1.211,-1.335 1.72,-2.092 0.494,-0.743 0.922,-1.541 1.266,-2.381 0.33,-0.826 0.604,-1.693 0.771,-2.573 0.179,-0.881 0.275,-1.789 0.275,-2.683 0,-0.894 -0.097,-1.802 -0.275,-2.683 z"
   id="path966"
   style="fill:#4a4b54;fill-opacity:1;stroke-width:0;stroke-miterlimit:4;stroke-dasharray:none" />

	</g>

</g>
      <g
         id="g976"
         style="fill:#4a4b54;fill-opacity:1;stroke-width:0;stroke-miterlimit:4;stroke-dasharray:none">
	<g
   id="g974"
   style="fill:#4a4b54;fill-opacity:1;stroke-width:0;stroke-miterlimit:4;stroke-dasharray:none">
		<path
   d="m 315.422,208.893 h -77.564 c -7.6,0 -13.761,6.161 -13.761,13.761 0,7.6 6.161,13.761 13.761,13.761 h 77.564 c 7.599,0 13.761,-6.161 13.761,-13.761 0,-7.6 -6.161,-13.761 -13.761,-13.761 z"
   id="path972"
   style="fill:#4a4b54;fill-opacity:1;stroke-width:0;stroke-miterlimit:4;stroke-dasharray:none" />

	</g>

</g>
      <g
         id="g982"
         style="fill:#4a4b54;fill-opacity:1;stroke-width:0;stroke-miterlimit:4;stroke-dasharray:none">
	<g
   id="g980"
   style="fill:#4a4b54;fill-opacity:1;stroke-width:0;stroke-miterlimit:4;stroke-dasharray:none">
		<path
   d="m 210.065,219.972 c -0.179,-0.881 -0.44,-1.748 -0.784,-2.587 -0.344,-0.826 -0.771,-1.624 -1.266,-2.367 -0.495,-0.757 -1.073,-1.459 -1.706,-2.092 -0.633,-0.633 -1.335,-1.211 -2.092,-1.706 -0.743,-0.495 -1.555,-0.922 -2.381,-1.266 -0.826,-0.344 -1.693,-0.619 -2.573,-0.784 -1.775,-0.358 -3.605,-0.358 -5.38,0 -0.881,0.165 -1.734,0.44 -2.573,0.784 -0.826,0.344 -1.624,0.771 -2.367,1.266 -0.757,0.495 -1.459,1.073 -2.092,1.706 -0.633,0.633 -1.211,1.335 -1.72,2.092 -0.495,0.743 -0.922,1.541 -1.266,2.367 -0.344,0.839 -0.605,1.706 -0.784,2.587 -0.179,0.881 -0.261,1.789 -0.261,2.683 0,0.894 0.083,1.803 0.261,2.683 0.178,0.88 0.44,1.748 0.784,2.573 0.344,0.839 0.771,1.638 1.266,2.381 0.509,0.757 1.087,1.459 1.72,2.092 0.633,0.633 1.335,1.211 2.092,1.706 0.743,0.495 1.541,0.922 2.367,1.266 0.839,0.344 1.706,0.605 2.573,0.784 0.894,0.179 1.803,0.275 2.697,0.275 0.894,0 1.803,-0.096 2.683,-0.275 0.88,-0.179 1.748,-0.44 2.573,-0.784 0.826,-0.344 1.638,-0.771 2.381,-1.266 0.757,-0.495 1.459,-1.073 2.092,-1.706 0.633,-0.633 1.211,-1.335 1.706,-2.092 0.495,-0.743 0.922,-1.541 1.266,-2.381 0.344,-0.826 0.605,-1.693 0.784,-2.573 0.179,-0.88 0.275,-1.789 0.275,-2.683 0,-0.894 -0.096,-1.802 -0.275,-2.683 z"
   id="path978"
   style="fill:#4a4b54;fill-opacity:1;stroke-width:0;stroke-miterlimit:4;stroke-dasharray:none" />

	</g>

</g>
      <g
         id="g988"
         style="fill:#4a4b54;fill-opacity:1;stroke-width:0;stroke-miterlimit:4;stroke-dasharray:none">
	<g
   id="g986"
   style="fill:#4a4b54;fill-opacity:1;stroke-width:0;stroke-miterlimit:4;stroke-dasharray:none">
		<path
   d="m 111.512,133.421 c -34.029,0 -61.713,27.684 -61.713,61.713 0,34.029 27.684,61.713 61.713,61.713 34.029,0 61.713,-27.684 61.713,-61.713 0,-34.029 -27.686,-61.713 -61.713,-61.713 z m 0,95.903 c -18.854,0 -34.191,-15.338 -34.191,-34.191 0,-18.853 15.338,-34.191 34.191,-34.191 18.853,0 34.191,15.338 34.191,34.191 0,18.853 -15.339,34.191 -34.191,34.191 z"
   id="path984"
   style="fill:#4a4b54;fill-opacity:1;stroke-width:0;stroke-miterlimit:4;stroke-dasharray:none" />

	</g>

</g>
      <g
         id="g994"
         style="fill:#4a4b54;fill-opacity:1;stroke-width:0;stroke-miterlimit:4;stroke-dasharray:none">
	<g
   id="g992"
   style="fill:#4a4b54;fill-opacity:1;stroke-width:0;stroke-miterlimit:4;stroke-dasharray:none">
		<path
   d="m 400.488,133.421 c -34.029,0 -61.713,27.684 -61.713,61.713 0,34.029 27.684,61.713 61.713,61.713 34.029,0 61.713,-27.684 61.713,-61.713 0,-34.029 -27.685,-61.713 -61.713,-61.713 z m 0,95.903 c -18.852,0 -34.191,-15.338 -34.191,-34.191 0,-18.853 15.338,-34.191 34.191,-34.191 18.854,0 34.191,15.338 34.191,34.191 0,18.853 -15.339,34.191 -34.191,34.191 z"
   id="path990"
   style="fill:#4a4b54;fill-opacity:1;stroke-width:0;stroke-miterlimit:4;stroke-dasharray:none" />

	</g>

</g>
      <g
         id="g996"
         style="fill:#4a4b54;fill-opacity:1;stroke-width:0;stroke-miterlimit:4;stroke-dasharray:none">
</g>
      <g
         id="g998"
         style="fill:#4a4b54;fill-opacity:1;stroke-width:0;stroke-miterlimit:4;stroke-dasharray:none">
</g>
      <g
         id="g1000"
         style="fill:#4a4b54;fill-opacity:1;stroke-width:0;stroke-miterlimit:4;stroke-dasharray:none">
</g>
      <g
         id="g1002"
         style="fill:#4a4b54;fill-opacity:1;stroke-width:0;stroke-miterlimit:4;stroke-dasharray:none">
</g>
      <g
         id="g1004"
         style="fill:#4a4b54;fill-opacity:1;stroke-width:0;stroke-miterlimit:4;stroke-dasharray:none">
</g>
      <g
         id="g1006"
         style="fill:#4a4b54;fill-opacity:1;stroke-width:0;stroke-miterlimit:4;stroke-dasharray:none">
</g>
      <g
         id="g1008"
         style="fill:#4a4b54;fill-opacity:1;stroke-width:0;stroke-miterlimit:4;stroke-dasharray:none">
</g>
      <g
         id="g1010"
         style="fill:#4a4b54;fill-opacity:1;stroke-width:0;stroke-miterlimit:4;stroke-dasharray:none">
</g>
      <g
         id="g1012"
         style="fill:#4a4b54;fill-opacity:1;stroke-width:0;stroke-miterlimit:4;stroke-dasharray:none">
</g>
      <g
         id="g1014"
         style="fill:#4a4b54;fill-opacity:1;stroke-width:0;stroke-miterlimit:4;stroke-dasharray:none">
</g>
      <g
         id="g1016"
         style="fill:#4a4b54;fill-opacity:1;stroke-width:0;stroke-miterlimit:4;stroke-dasharray:none">
</g>
      <g
         id="g1018"
         style="fill:#4a4b54;fill-opacity:1;stroke-width:0;stroke-miterlimit:4;stroke-dasharray:none">
</g>
      <g
         id="g1020"
         style="fill:#4a4b54;fill-opacity:1;stroke-width:0;stroke-miterlimit:4;stroke-dasharray:none">
</g>
      <g
         id="g1022"
         style="fill:#4a4b54;fill-opacity:1;stroke-width:0;stroke-miterlimit:4;stroke-dasharray:none">
</g>
      <g
         id="g1024"
         style="fill:#4a4b54;fill-opacity:1;stroke-width:0;stroke-miterlimit:4;stroke-dasharray:none">
</g>
    </g>
    <path
       style="fill:#4a4b54;fill-opacity:1;stroke:#92af2b;stroke-width:0;stroke-linejoin:round;stroke-miterlimit:4;stroke-dasharray:none;stroke-opacity:1"
       id="path1077"
       sodipodi:type="arc"
       sodipodi:cx="73.71727"
       sodipodi:cy="168.39343"
       sodipodi:rx="4.7592134"
       sodipodi:ry="4.8082542"
       sodipodi:start="6.1474685"
       sodipodi:end="6.1356177"
       sodipodi:open="true"
       sodipodi:arc-type="arc"
       d="m 78.43272,167.74287 a 4.7592134,4.8082542 0 0 1 -4.057558,5.41265 4.7592134,4.8082542 0 0 1 -5.369444,-4.08331 4.7592134,4.8082542 0 0 1 4.025742,-5.43685 4.7592134,4.8082542 0 0 1 5.393299,4.0511" />
    <path
       style="fill:#4a4b54;fill-opacity:1;stroke:#92af2b;stroke-width:0;stroke-linejoin:round;stroke-miterlimit:4;stroke-dasharray:none;stroke-opacity:1"
       id="path1079"
       sodipodi:type="arc"
       sodipodi:cx="227.58331"
       sodipodi:cy="168.89659"
       sodipodi:rx="4.7592134"
       sodipodi:ry="4.8082542"
       sodipodi:start="6.1474685"
       sodipodi:end="6.1356177"
       sodipodi:open="true"
       sodipodi:arc-type="arc"
       d="m 232.29876,168.24603 a 4.7592134,4.8082542 0 0 1 -4.05756,5.41265 4.7592134,4.8082542 0 0 1 -5.36944,-4.08331 4.7592134,4.8082542 0 0 1 4.02574,-5.43685 4.7592134,4.8082542 0 0 1 5.3933,4.0511" />
    <rect
       style="fill:#92af2b;fill-opacity:1;stroke:#92af2b;stroke-width:0;stroke-linejoin:round;stroke-miterlimit:4;stroke-dasharray:none;stroke-opacity:1"
       id="rect1102"
       width="77.305672"
       height="21.723162"
       x="-121.50301"
       y="-82.831848"
       ry="1.2369926"
       transform="matrix(-0.43450108,-0.90067131,-0.9995965,0.02840491,0,0)" />
    <rect
       style="fill:#92af2b;fill-opacity:1;stroke:#92af2b;stroke-width:0;stroke-linejoin:round;stroke-miterlimit:4;stroke-dasharray:none;stroke-opacity:1"
       id="rect1110"
       width="76.437538"
       height="21.417171"
       x="36.710747"
       y="-191.38461"
       ry="1.2195685"
       transform="matrix(-0.4332448,0.90127628,-0.99959361,-0.02850633,0,0)" />
    <g
       id="g1085"
       transform="matrix(0.2093718,0,0,0.1444137,74.359664,35.465979)"
       style="fill:#4a532a;fill-opacity:1;stroke-width:0;stroke-miterlimit:4;stroke-dasharray:none;stroke:#5b6e16;stroke-opacity:1">
      <path
         d="M 480.411,10.391 C 480.312,10.265 480.21,10.141 480.105,10.02 475.932,5.187 469.516,2.311 460.489,1.228 453.603,0.401 444.385,0 432.308,0 c -12.105,0 -21.747,0.269 -28.644,0.799 -7.694,0.581 -13.946,1.799 -18.583,3.62 -0.056,0.022 -0.112,0.044 -0.167,0.067 -5.784,2.394 -10.057,5.952 -12.699,10.577 -0.027,0.047 -0.053,0.094 -0.08,0.142 -1.851,3.364 -3.399,7.543 -4.605,12.424 L 260.478,371.592 215.429,228.523 c -1.659,-5.268 -7.276,-8.192 -12.542,-6.535 -5.268,1.659 -8.194,7.274 -6.535,12.542 l 54.449,172.922 c 1.312,4.164 5.173,6.997 9.539,6.997 h 0.386 c 4.378,0 8.247,-2.848 9.548,-7.028 L 386.718,33.279 c 0.063,-0.203 0.12,-0.409 0.17,-0.615 1.019,-4.203 2.122,-6.615 2.72,-7.724 0.496,-0.808 1.81,-1.492 2.868,-1.937 1.61,-0.62 5.347,-1.706 12.708,-2.261 C 411.586,20.25 420.712,20 432.308,20 c 11.116,0 19.795,0.365 25.799,1.085 4.464,0.536 6.194,1.515 6.693,1.871 0.302,0.674 0.423,2.152 0.064,4.255 -0.013,0.078 -0.026,0.155 -0.037,0.233 -0.745,5.086 -3.136,12.644 -5.367,19.336 L 313.84,479.273 c -0.033,0.097 -0.063,0.193 -0.093,0.291 -0.981,3.238 -2.032,5.572 -3.123,6.936 -0.049,0.061 -0.097,0.123 -0.144,0.185 -0.678,0.89 -2.388,1.8 -4.812,2.563 -3.667,1.152 -9.05,1.909 -16.01,2.251 -6.936,0.347 -16.176,0.502 -29.961,0.502 -9.952,0 -18.547,0 -25.654,-0.127 -6.327,-0.113 -12.186,-0.442 -17.41,-0.978 -5.151,-0.528 -8.431,-1.264 -10.304,-1.801 -2.046,-0.665 -3.724,-1.471 -5.125,-2.46 -0.035,-0.025 -0.07,-0.049 -0.105,-0.073 -0.671,-0.461 -1.314,-1.173 -1.777,-1.963 -0.759,-1.463 -1.564,-3.539 -2.459,-6.337 -0.014,-0.044 -0.029,-0.088 -0.043,-0.132 L 51.984,46.07 c -2.042,-6.309 -4.443,-14.188 -4.943,-19.305 -0.008,-0.08 -0.017,-0.16 -0.026,-0.239 -0.188,-1.543 -0.092,-2.813 0.203,-3.06 0.849,-0.708 3.993,-2.052 10.379,-2.603 C 64.556,20.274 74.375,20 88.499,20 c 11.207,0 20.068,0.249 26.337,0.74 7.039,0.552 10.804,1.49 12.495,2.035 1.111,0.428 1.693,0.849 1.881,1.027 0.002,0.004 0.005,0.009 0.007,0.013 1.088,1.979 2.146,4.525 3.235,7.781 l 36.861,117.067 c 1.659,5.268 7.274,8.193 12.542,6.535 5.268,-1.659 8.194,-7.274 6.535,-12.542 L 151.505,25.505 c -0.017,-0.053 -0.034,-0.106 -0.052,-0.159 -1.493,-4.479 -2.979,-8.01 -4.672,-11.101 C 144.345,9.682 139.973,6.128 134.128,3.963 134.025,3.925 133.921,3.889 133.817,3.854 129.425,2.39 123.565,1.363 116.399,0.801 109.516,0.262 100.39,0 88.499,0 73.799,0 63.443,0.297 55.894,0.937 46.226,1.771 39.2,4.115 34.384,8.127 c -4.024,3.381 -8.538,9.714 -7.236,20.702 0.557,5.55 2.303,12.578 5.825,23.454 0.011,0.033 0.021,0.065 0.032,0.097 l 144.83,432.046 c 1.295,4.041 2.528,7.112 3.877,9.659 0.04,0.075 0.08,0.148 0.122,0.222 1.958,3.48 4.682,6.487 7.881,8.699 3.107,2.187 6.588,3.88 10.64,5.177 0.082,0.026 0.165,0.051 0.247,0.075 3.852,1.124 8.558,1.976 13.991,2.533 5.782,0.593 12.206,0.956 19.093,1.079 7.286,0.13 15.964,0.13 26.012,0.13 14.13,0 23.679,-0.163 30.951,-0.526 8.775,-0.431 15.649,-1.46 21.018,-3.147 6.559,-2.063 11.352,-5.146 14.647,-9.422 2.704,-3.409 4.782,-7.67 6.528,-13.389 L 478.425,53.135 c 3.59,-10.77 5.384,-17.356 6.175,-22.679 1.676,-10.015 -1.349,-16.436 -4.189,-20.065 z"
         id="path1081"
         style="fill:#4a532a;fill-opacity:1;stroke-width:0;stroke-miterlimit:4;stroke-dasharray:none;stroke:#5b6e16;stroke-opacity:1" />
      <path
         d="m 182.37,188.594 c 0,5.523 4.48,10 10.003,10 5.523,0 10,-4.477 10,-10 0,-5.523 -4.477,-10 -10,-10 h -0.007 c -5.523,0 -9.996,4.477 -9.996,10 z"
         id="path1083"
         style="fill:#4a532a;fill-opacity:1;stroke-width:0;stroke-miterlimit:4;stroke-dasharray:none;stroke:#5b6e16;stroke-opacity:1" />
    </g>
    <g
       id="g1189"
       transform="matrix(0.61514667,0,0,0.70777759,84.138726,-33.022982)"
       style="fill:#92af2b;fill-opacity:1;stroke:#4a532a;stroke-width:6.1737;stroke-miterlimit:4;stroke-dasharray:none;stroke-opacity:1">
      <g
         id="g1132"
         style="fill:#92af2b;fill-opacity:1;stroke:#4a532a;stroke-width:6.1737;stroke-miterlimit:4;stroke-dasharray:none;stroke-opacity:1">
	
	<path
   style="fill:#92af2b;fill-opacity:1;stroke:#4a532a;stroke-width:6.1737;stroke-miterlimit:4;stroke-dasharray:none;stroke-opacity:1"
   d="m 150.026,80.39 h -22.84 c -6.91,0 -10.933,7.044 -10.933,13.158 0,5.936 3.209,13.158 10.933,13.158 h 7.259 v 85.36 c 0,8.734 6.257,13.605 13.176,13.605 6.919,0 13.185,-4.881 13.185,-13.605 V 92.771 C 160.798,85.789 156.945,80.39 150.026,80.39 Z"
   id="path1130" />

</g>
      <g
         id="g1134"
         style="fill:#92af2b;fill-opacity:1;stroke:#4a532a;stroke-width:6.1737;stroke-miterlimit:4;stroke-dasharray:none;stroke-opacity:1">
</g>
      <g
         id="g1136"
         style="fill:#92af2b;fill-opacity:1;stroke:#4a532a;stroke-width:6.1737;stroke-miterlimit:4;stroke-dasharray:none;stroke-opacity:1">
</g>
      <g
         id="g1138"
         style="fill:#92af2b;fill-opacity:1;stroke:#4a532a;stroke-width:6.1737;stroke-miterlimit:4;stroke-dasharray:none;stroke-opacity:1">
</g>
      <g
         id="g1140"
         style="fill:#92af2b;fill-opacity:1;stroke:#4a532a;stroke-width:6.1737;stroke-miterlimit:4;stroke-dasharray:none;stroke-opacity:1">
</g>
      <g
         id="g1142"
         style="fill:#92af2b;fill-opacity:1;stroke:#4a532a;stroke-width:6.1737;stroke-miterlimit:4;stroke-dasharray:none;stroke-opacity:1">
</g>
      <g
         id="g1144"
         style="fill:#92af2b;fill-opacity:1;stroke:#4a532a;stroke-width:6.1737;stroke-miterlimit:4;stroke-dasharray:none;stroke-opacity:1">
</g>
      <g
         id="g1146"
         style="fill:#92af2b;fill-opacity:1;stroke:#4a532a;stroke-width:6.1737;stroke-miterlimit:4;stroke-dasharray:none;stroke-opacity:1">
</g>
      <g
         id="g1148"
         style="fill:#92af2b;fill-opacity:1;stroke:#4a532a;stroke-width:6.1737;stroke-miterlimit:4;stroke-dasharray:none;stroke-opacity:1">
</g>
      <g
         id="g1150"
         style="fill:#92af2b;fill-opacity:1;stroke:#4a532a;stroke-width:6.1737;stroke-miterlimit:4;stroke-dasharray:none;stroke-opacity:1">
</g>
      <g
         id="g1152"
         style="fill:#92af2b;fill-opacity:1;stroke:#4a532a;stroke-width:6.1737;stroke-miterlimit:4;stroke-dasharray:none;stroke-opacity:1">
</g>
      <g
         id="g1154"
         style="fill:#92af2b;fill-opacity:1;stroke:#4a532a;stroke-width:6.1737;stroke-miterlimit:4;stroke-dasharray:none;stroke-opacity:1">
</g>
      <g
         id="g1156"
         style="fill:#92af2b;fill-opacity:1;stroke:#4a532a;stroke-width:6.1737;stroke-miterlimit:4;stroke-dasharray:none;stroke-opacity:1">
</g>
      <g
         id="g1158"
         style="fill:#92af2b;fill-opacity:1;stroke:#4a532a;stroke-width:6.1737;stroke-miterlimit:4;stroke-dasharray:none;stroke-opacity:1">
</g>
      <g
         id="g1160"
         style="fill:#92af2b;fill-opacity:1;stroke:#4a532a;stroke-width:6.1737;stroke-miterlimit:4;stroke-dasharray:none;stroke-opacity:1">
</g>
      <g
         id="g1162"
         style="fill:#92af2b;fill-opacity:1;stroke:#4a532a;stroke-width:6.1737;stroke-miterlimit:4;stroke-dasharray:none;stroke-opacity:1">
</g>
    </g>
  </g>
</svg>
