<?xml version="1.0" encoding="UTF-8" standalone="no"?>
<!DOCTYPE svg PUBLIC "-//W3C//DTD SVG 1.1//EN" "http://www.w3.org/Graphics/SVG/1.1/DTD/svg11.dtd">
<svg version="1.1" xmlns="http://www.w3.org/2000/svg" xmlns:xlink="http://www.w3.org/1999/xlink" preserveAspectRatio="xMidYMid meet" viewBox="0 0 640 640" width="64" height="64"><defs><path d="M585.84 202.98C585.84 277.5 585.84 358.51 585.84 438.23C585.84 514.08 521.88 575.57 442.99 575.57C363.48 575.57 264.53 575.57 184.21 575.57C107.56 575.57 45.43 515.83 45.43 442.13C45.43 361.63 45.43 283.46 45.43 210.44C45.43 116.11 124.96 39.64 223.07 39.64C295.62 39.64 341.84 39.64 415.94 39.64C509.78 39.64 585.84 112.77 585.84 202.98Z" id="aubRVKnBu"></path><path d="M585.84 202.98C585.84 277.5 585.84 358.51 585.84 438.23C585.84 514.08 521.88 575.57 442.99 575.57C363.48 575.57 264.53 575.57 184.21 575.57C107.56 575.57 45.43 515.83 45.43 442.13C45.43 361.63 45.43 283.46 45.43 210.44C45.43 116.11 124.96 39.64 223.07 39.64C295.62 39.64 341.84 39.64 415.94 39.64C509.78 39.64 585.84 112.77 585.84 202.98Z" id="a2yKLwvsOe"></path><path d="M476.9 129.22L476.9 501.34L155.81 501.34L155.81 129.22L476.9 129.22Z" id="a2W0GIAsmP"></path><path d="M476.9 129.22L476.9 501.34L155.81 501.34L155.81 129.22L476.9 129.22Z" id="h1haHz8Zd4"></path><path d="M443.93 160.93L443.93 403.49L188.78 403.49L188.78 160.93L443.93 160.93Z" id="ah9h5gthX"></path><path d="M443.93 160.93L443.93 403.49L188.78 403.49L188.78 160.93L443.93 160.93Z" id="a2umuB1kg5"></path><path d="M443.93 403.49L369.39 403.49L294.86 403.49L332.12 342.85L369.39 282.21L406.67 342.85L443.93 403.49Z" id="fHGM8uSz9"></path><path d="M188.78 403.49L269.05 403.49L349.32 403.49L309.2 324.93L269.05 246.38L228.91 324.93L188.78 403.49Z" id="c1YJtyAk2x"></path><path d="M312.34 329.58L292.05 323.69L264.56 327.2L256.06 308.9L236.94 308.9L268.97 245.24L290.66 287.41L312.34 329.58Z" id="aaw8GnK5kc"></path><path d="M312.34 329.58L292.05 323.69L264.56 327.2L256.06 308.9L236.94 308.9L268.97 245.24L290.66 287.41L312.34 329.58Z" id="ldfOkAQHN"></path><path d="M394.02 321.46L381.65 317.18L369.27 324.93L364.02 317.18L349.32 315.29L356.89 300.91L369.27 280.37L381.65 300.91L394.02 321.46Z" id="dLHOwL6QL"></path><path d="M316.35 215.94C307.21 215.94 299.78 209.63 299.78 201.84C299.78 194.05 307.21 187.73 316.35 187.73C325.5 187.73 332.93 194.05 332.93 201.84C332.93 209.63 325.5 215.94 316.35 215.94Z" id="a4ZaTgGDW0"></path><path d="M504.7 617.05C447.31 617.05 400.72 573.91 400.72 520.76C400.72 467.61 447.31 424.47 504.7 424.47C562.08 424.47 608.68 467.61 608.68 520.76C608.68 573.91 562.08 617.05 504.7 617.05Z" id="a6lbKaRq1"></path><path d="M491.89 460.13L492.25 460.2L492.43 460.25L492.59 460.3L492.75 460.36L493.05 460.51L493.18 460.59L493.32 460.69L493.45 460.78L493.56 460.89L493.68 460.99L493.79 461.1L493.89 461.22L493.98 461.33L494.09 461.45L494.17 461.58L494.25 461.71L494.33 461.83L494.4 461.97L494.48 462.09L494.67 462.5L494.72 462.62L494.83 462.89L494.88 463.01L494.99 463.38L495.07 463.6L495.09 463.71L495.13 463.81L495.21 464.05L495.23 464.19L495.27 464.32L495.32 464.45L495.36 464.59L495.44 464.86L495.48 465.01L495.51 465.15L495.55 465.29L495.6 465.44L495.64 465.6L495.68 465.75L495.73 465.91L495.77 466.05L495.81 466.21L495.86 466.37L495.9 466.53L495.95 466.7L495.99 466.86L496.04 467.03L496.08 467.21L496.18 467.55L496.22 467.72L496.27 467.89L496.31 468.08L496.46 468.63L496.5 468.81L496.55 469L496.6 469.19L496.65 469.38L496.69 469.57L496.84 470.16L496.89 470.37L497.21 471.33L497.54 472.33L497.9 473.36L498.28 474.44L498.69 475.55L499.11 476.68L499.56 477.85L500.03 479.04L500.52 480.27L501.04 481.51L501.57 482.78L502.14 484.07L502.72 485.37L503.32 486.7L503.96 488.05L504.61 489.4L505.3 490.76L506 492.13L506.73 493.52L507.49 494.9L508.27 496.3L509.08 497.69L509.92 499.09L510.77 500.48L511.67 501.87L512.57 503.26L513.52 504.63L514.49 506L515.48 507.35L516.5 508.7L517.55 510.04L518.63 511.35L519.74 512.65L520.88 513.93L522.04 515.18L523.24 516.42L524.46 517.62L525.71 518.8L527 519.95L528.31 521.07L528.6 521.31L528.75 521.42L529.03 521.67L529.18 521.78L529.46 522.02L529.62 522.13L529.76 522.26L529.9 522.37L530.04 522.49L530.19 522.6L530.33 522.72L530.61 522.94L530.75 523.07L530.89 523.18L531.04 523.3L531.47 523.63L531.61 523.75L533.71 525.41L533.84 525.52L533.98 525.62L536.71 525.45L538.09 525.38L539.48 525.34L540.87 525.3L543.65 525.27L545.04 525.29L546.43 525.31L547.81 525.35L550.56 525.47L551.92 525.56L553.27 525.67L554.61 525.78L555.92 525.91L557.24 526.06L558.51 526.22L559.79 526.4L561.04 526.6L562.25 526.82L563.45 527.04L564.62 527.29L565.77 527.56L566.88 527.83L567.97 528.12L569.01 528.44L570.02 528.77L571 529.11L571.93 529.48L572.84 529.86L573.69 530.25L574.51 530.67L575.28 531.1L575.99 531.55L576.67 532.02L577.28 532.51L577.85 533.01L578.36 533.54L578.82 534.08L579.08 534.42L579.21 534.61L579.32 534.78L579.44 534.96L579.64 535.33L579.91 535.88L580.06 536.25L580.12 536.45L580.19 536.63L580.25 536.83L580.3 537.01L580.42 537.6L580.44 537.8L580.47 537.98L580.49 538.18L580.51 538.37L580.51 538.98L580.47 539.56L580.44 539.76L580.41 539.97L580.33 540.36L580.28 540.56L580.23 540.77L580.04 541.36L579.96 541.55L579.87 541.75L579.59 542.39L579.44 542.69L579.1 543.28L578.94 543.56L578.75 543.85L578.57 544.12L578.38 544.39L577.97 544.9L577.76 545.15L577.55 545.39L577.32 545.62L577.1 545.86L576.86 546.08L576.63 546.3L576.37 546.51L576.13 546.7L575.88 546.9L575.61 547.1L575.34 547.27L575.07 547.45L574.51 547.77L574.22 547.93L573.92 548.08L573.63 548.21L573.32 548.35L572.71 548.59L572.39 548.7L572.07 548.8L571.74 548.9L571.41 548.99L571.08 549.06L570.39 549.21L570.05 549.25L569.69 549.3L569.03 549.38L568.34 549.43L567.63 549.45L566.92 549.44L566.19 549.41L565.45 549.35L564.7 549.28L563.93 549.17L563.14 549.03L562.34 548.87L561.52 548.7L560.69 548.49L559.85 548.26L559 548L558.13 547.71L557.24 547.4L556.34 547.07L555.43 546.72L554.49 546.32L553.55 545.92L552.59 545.48L551.62 545.02L550.64 544.53L549.63 544.03L548.63 543.49L547.59 542.93L546.56 542.35L545.5 541.74L544.43 541.1L543.34 540.44L542.25 539.75L541.14 539.04L540.01 538.3L538.88 537.54L537.73 536.76L536.57 535.95L535.38 535.11L534.2 534.24L532.98 533.36L531.77 532.45L531.3 532.5L530.83 532.54L530.37 532.59L529.9 532.65L528.98 532.74L526.22 533.11L525.78 533.19L525.32 533.25L523.08 533.62L522.65 533.7L522.2 533.77L520.03 534.2L519.61 534.29L519.18 534.39L518.76 534.47L517.92 534.67L517.51 534.77L517.09 534.87L516.27 535.06L515.86 535.17L515.47 535.27L515.06 535.38L514.27 535.6L514.13 535.64L513.97 535.68L513.82 535.73L513.67 535.76L513.5 535.81L513.35 535.85L513.17 535.9L513.01 535.95L512.84 535.98L512.12 536.18L511.93 536.23L511.75 536.28L511.56 536.31L511.38 536.36L510.81 536.51L510.63 536.56L510.25 536.66L510.07 536.71L509.88 536.74L509.69 536.79L509.51 536.84L509.33 536.88L508.97 536.98L508.62 537.05L508.45 537.1L507.79 537.25L507.63 537.28L507.49 537.32L507.34 537.36L505.86 537.7L505.48 537.8L505.11 537.88L504.37 538.08L503.99 538.18L503.25 538.37L502.86 538.49L502.49 538.58L502.11 538.69L501.74 538.8L501.36 538.91L500.99 539.02L500.6 539.14L500.23 539.25L499.85 539.36L499.48 539.48L499.1 539.6L498.73 539.72L498.35 539.85L497.98 539.97L497.21 540.21L496.84 540.35L496.46 540.47L496.08 540.61L495.71 540.74L495.32 540.88L494.95 541.01L494.19 541.28L493.82 541.43L493.43 541.56L493.05 541.71L492.68 541.86L492.3 542.01L491.62 543.56L490.95 545.08L490.26 546.57L489.58 548.02L488.89 549.43L488.22 550.8L487.53 552.14L486.85 553.43L486.16 554.69L485.47 555.92L484.78 557.11L484.1 558.26L483.41 559.37L482.72 560.45L482.02 561.5L481.33 562.5L480.64 563.47L479.94 564.4L479.25 565.3L478.55 566.16L477.86 566.98L477.16 567.76L476.47 568.5L475.76 569.21L475.06 569.89L474.36 570.52L473.66 571.11L472.97 571.68L472.27 572.19L471.57 572.68L470.87 573.13L470.16 573.54L469.46 573.91L468.76 574.24L468.05 574.54L467.34 574.81L466.64 575.03L465.94 575.21L465.24 575.36L464.54 575.46L464.28 575.49L463.77 575.54L463.52 575.55L463.27 575.57L462.52 575.57L462.27 575.55L462.02 575.54L461.54 575.49L461.28 575.47L460.8 575.39L460.31 575.3L460.09 575.25L459.84 575.19L459.6 575.11L459.37 575.05L459.13 574.98L458.9 574.89L458.66 574.82L458.43 574.72L458.2 574.63L457.97 574.54L457.28 574.2L456.59 573.84L456.37 573.7L456.14 573.57L455.93 573.42L455.7 573.27L455.48 573.13L455.05 572.81L454.85 572.66L454.68 572.51L454.51 572.36L454.33 572.21L454.01 571.9L453.86 571.74L453.71 571.57L453.57 571.41L453.44 571.24L453.3 571.06L453.17 570.89L453.06 570.72L452.83 570.35L452.62 569.98L452.53 569.8L452.35 569.41L452.28 569.22L452.2 569.03L452.14 568.82L452.07 568.62L452.02 568.41L451.97 568.22L451.92 568.01L451.88 567.8L451.86 567.59L451.83 567.37L451.81 567.16L451.79 566.94L451.78 566.73L451.78 566.07L451.79 565.85L451.82 565.62L451.84 565.4L451.87 565.16L451.98 564.54L452.15 563.89L452.37 563.23L452.63 562.56L452.94 561.88L453.3 561.19L453.71 560.5L454.15 559.79L454.64 559.08L455.17 558.36L455.75 557.63L456.36 556.91L457.02 556.17L457.71 555.42L458.45 554.69L459.23 553.94L460.03 553.19L460.88 552.44L461.76 551.7L462.68 550.95L463.62 550.2L464.6 549.45L465.62 548.7L466.66 547.97L467.73 547.23L468.84 546.49L469.97 545.76L471.13 545.04L472.31 544.32L473.52 543.61L474.76 542.9L476.02 542.2L477.31 541.51L478.61 540.84L479.94 540.18L481.29 539.52L484.04 538.24L485.46 537.61L486.88 537.01L486.94 536.87L487 536.71L487.07 536.56L487.13 536.4L487.2 536.25L487.26 536.09L487.32 535.95L487.39 535.79L487.44 535.64L487.57 535.32L487.63 535.17L487.82 534.69L487.88 534.55L487.95 534.39L488 534.23L488.45 533.11L488.5 532.95L488.82 532.16L488.88 531.98L488.93 531.82L489.06 531.51L489.12 531.33L489.25 531.01L489.3 530.84L489.36 530.68L489.94 529.09L490.46 527.49L490.95 525.89L491.39 524.27L491.79 522.64L492.16 521.01L492.48 519.36L492.77 517.72L493.03 516.07L493.24 514.43L493.43 512.79L493.59 511.14L493.72 509.5L493.82 507.87L493.88 506.25L493.93 504.63L493.94 503.01L493.94 501.42L493.91 499.83L493.86 498.26L493.79 496.71L493.69 495.16L493.59 493.64L493.46 492.14L493.32 490.66L493.15 489.2L492.99 487.76L492.81 486.37L492.61 484.98L492.4 483.63L492.2 482.31L491.98 481.02L491.75 479.75L491.52 478.53L491.28 477.34L491.05 476.2L490.81 475.08L490.58 474.01L490.33 472.98L490.09 471.99L490.04 471.81L489.98 471.62L489.91 471.43L489.86 471.24L489.8 471.06L489.73 470.89L489.68 470.7L489.62 470.52L489.57 470.35L489.52 470.16L489.47 469.99L489.4 469.82L489.2 469.13L489.15 468.97L489.1 468.8L489.05 468.64L489.01 468.48L488.85 468L488.82 467.84L488.77 467.7L488.73 467.54L488.69 467.39L488.64 467.24L488.52 466.8L488.47 466.67L488.43 466.53L488.4 466.38L488.32 466.11L488.29 465.99L488.25 465.86L488.18 465.61L488.1 465.28L488.06 465.18L488.04 465.07L488.01 464.97L487.99 464.86L487.96 464.76L487.94 464.65L487.91 464.56L487.9 464.46L487.87 464.35L487.85 464.15L487.82 464.05L487.81 463.94L487.81 463.84L487.78 463.65L487.78 463.26L487.85 462.77L487.9 462.57L487.94 462.47L487.96 462.37L488.04 462.18L488.19 461.88L488.38 461.59L488.42 461.53L488.47 461.47L488.51 461.42L488.56 461.35L488.61 461.31L488.66 461.24L488.92 461L488.98 460.95L489.03 460.9L489.1 460.85L489.15 460.82L489.21 460.77L489.28 460.73L489.33 460.69L489.71 460.47L489.79 460.45L489.85 460.41L489.98 460.36L490.05 460.34L490.12 460.31L490.19 460.29L490.26 460.26L490.33 460.24L490.4 460.23L490.47 460.21L490.54 460.19L490.77 460.15L490.83 460.14L491.06 460.12L491.28 460.1L491.5 460.1L491.7 460.12L491.89 460.13ZM474.88 550.6L471.45 552.82L468.39 555.03L465.71 557.18L463.43 559.25L461.58 561.21L460.17 563.02L459.23 564.65L458.8 566.06L458.77 566.27L458.76 566.46L458.77 566.64L458.8 566.8L458.85 566.96L458.92 567.1L459.01 567.24L459.13 567.37L459.27 567.49L459.42 567.63L459.84 567.92L460.25 568.18L460.67 568.4L461.08 568.59L461.5 568.73L461.91 568.84L462.33 568.92L462.75 568.94L463.19 568.94L463.62 568.91L465.3 568.46L467.06 567.58L468.9 566.27L470.79 564.54L472.73 562.42L474.71 559.89L476.71 557.01L478.72 553.76L480.74 550.16L482.74 546.25L478.66 548.4L474.88 550.6ZM549.14 536.06L552.18 537.79L555.08 539.27L557.81 540.51L560.36 541.48L562.74 542.2L564.9 542.67L566.88 542.86L568.64 542.78L569.32 542.67L569.96 542.51L570.53 542.29L571.07 542.03L571.56 541.71L572.01 541.34L572.42 540.91L572.78 540.44L573.1 539.9L573.39 539.31L573.49 539.01L573.52 538.89L573.53 538.77L573.52 538.64L573.49 538.53L573.45 538.41L573.39 538.29L573.3 538.17L573.2 538.03L572.15 537.06L570.57 536.13L568.48 535.23L565.91 534.41L562.91 533.68L559.52 533.05L555.74 532.54L551.65 532.16L547.25 531.93L542.58 531.89L545.92 534.09L549.14 536.06ZM500.94 502.07L500.92 504.51L500.86 506.9L500.74 509.27L500.57 511.6L500.35 513.89L500.07 516.15L499.74 518.37L499.35 520.55L498.92 522.7L498.44 524.81L497.89 526.88L497.3 528.92L496.65 530.92L495.95 532.87L495.91 532.98L495.85 533.15L495.83 533.2L495.79 533.31L495.77 533.36L495.73 533.47L495.71 533.53L495.69 533.58L495.67 533.64L495.65 533.69L495.63 533.74L496.27 533.53L496.9 533.33L497.54 533.12L498.18 532.94L498.81 532.74L500.08 532.38L500.71 532.19L501.34 532.02L501.97 531.85L502.61 531.69L503.86 531.37L504.5 531.22L505.12 531.08L505.73 530.93L506.09 530.86L506.47 530.76L506.87 530.67L507.28 530.56L507.71 530.46L508.14 530.35L509.48 530.02L509.92 529.9L510.79 529.68L511.19 529.57L511.59 529.46L511.96 529.36L512.32 529.26L513.02 529.06L514.45 528.7L515.17 528.51L517.39 528L518.92 527.68L519.69 527.53L520.47 527.37L521.26 527.24L522.05 527.09L522.84 526.95L523.65 526.83L524.46 526.71L524.32 526.57L524.22 526.5L524.17 526.45L524.12 526.42L524.03 526.33L523.87 526.22L523.84 526.17L523.73 526.1L523.68 526.05L522.06 524.67L520.48 523.23L518.91 521.73L517.36 520.17L515.84 518.56L514.34 516.9L512.88 515.17L511.44 513.38L510.01 511.54L508.62 509.65L507.25 507.68L505.91 505.69L504.6 503.61L503.3 501.5L502.05 499.33L500.81 497.1L500.9 499.6L500.94 502.07Z" id="b2blSzKfX"></path><path d="M491.89 460.13L492.25 460.2L492.43 460.25L492.59 460.3L492.75 460.36L493.05 460.51L493.18 460.59L493.32 460.69L493.45 460.78L493.56 460.89L493.68 460.99L493.79 461.1L493.89 461.22L493.98 461.33L494.09 461.45L494.17 461.58L494.25 461.71L494.33 461.83L494.4 461.97L494.48 462.09L494.67 462.5L494.72 462.62L494.83 462.89L494.88 463.01L494.99 463.38L495.07 463.6L495.09 463.71L495.13 463.81L495.21 464.05L495.23 464.19L495.27 464.32L495.32 464.45L495.36 464.59L495.44 464.86L495.48 465.01L495.51 465.15L495.55 465.29L495.6 465.44L495.64 465.6L495.68 465.75L495.73 465.91L495.77 466.05L495.81 466.21L495.86 466.37L495.9 466.53L495.95 466.7L495.99 466.86L496.04 467.03L496.08 467.21L496.18 467.55L496.22 467.72L496.27 467.89L496.31 468.08L496.46 468.63L496.5 468.81L496.55 469L496.6 469.19L496.65 469.38L496.69 469.57L496.84 470.16L496.89 470.37L497.21 471.33L497.54 472.33L497.9 473.36L498.28 474.44L498.69 475.55L499.11 476.68L499.56 477.85L500.03 479.04L500.52 480.27L501.04 481.51L501.57 482.78L502.14 484.07L502.72 485.37L503.32 486.7L503.96 488.05L504.61 489.4L505.3 490.76L506 492.13L506.73 493.52L507.49 494.9L508.27 496.3L509.08 497.69L509.92 499.09L510.77 500.48L511.67 501.87L512.57 503.26L513.52 504.63L514.49 506L515.48 507.35L516.5 508.7L517.55 510.04L518.63 511.35L519.74 512.65L520.88 513.93L522.04 515.18L523.24 516.42L524.46 517.62L525.71 518.8L527 519.95L528.31 521.07L528.6 521.31L528.75 521.42L529.03 521.67L529.18 521.78L529.46 522.02L529.62 522.13L529.76 522.26L529.9 522.37L530.04 522.49L530.19 522.6L530.33 522.72L530.61 522.94L530.75 523.07L530.89 523.18L531.04 523.3L531.47 523.63L531.61 523.75L533.71 525.41L533.84 525.52L533.98 525.62L536.71 525.45L538.09 525.38L539.48 525.34L540.87 525.3L543.65 525.27L545.04 525.29L546.43 525.31L547.81 525.35L550.56 525.47L551.92 525.56L553.27 525.67L554.61 525.78L555.92 525.91L557.24 526.06L558.51 526.22L559.79 526.4L561.04 526.6L562.25 526.82L563.45 527.04L564.62 527.29L565.77 527.56L566.88 527.83L567.97 528.12L569.01 528.44L570.02 528.77L571 529.11L571.93 529.48L572.84 529.86L573.69 530.25L574.51 530.67L575.28 531.1L575.99 531.55L576.67 532.02L577.28 532.51L577.85 533.01L578.36 533.54L578.82 534.08L579.08 534.42L579.21 534.61L579.32 534.78L579.44 534.96L579.64 535.33L579.91 535.88L580.06 536.25L580.12 536.45L580.19 536.63L580.25 536.83L580.3 537.01L580.42 537.6L580.44 537.8L580.47 537.98L580.49 538.18L580.51 538.37L580.51 538.98L580.47 539.56L580.44 539.76L580.41 539.97L580.33 540.36L580.28 540.56L580.23 540.77L580.04 541.36L579.96 541.55L579.87 541.75L579.59 542.39L579.44 542.69L579.1 543.28L578.94 543.56L578.75 543.85L578.57 544.12L578.38 544.39L577.97 544.9L577.76 545.15L577.55 545.39L577.32 545.62L577.1 545.86L576.86 546.08L576.63 546.3L576.37 546.51L576.13 546.7L575.88 546.9L575.61 547.1L575.34 547.27L575.07 547.45L574.51 547.77L574.22 547.93L573.92 548.08L573.63 548.21L573.32 548.35L572.71 548.59L572.39 548.7L572.07 548.8L571.74 548.9L571.41 548.99L571.08 549.06L570.39 549.21L570.05 549.25L569.69 549.3L569.03 549.38L568.34 549.43L567.63 549.45L566.92 549.44L566.19 549.41L565.45 549.35L564.7 549.28L563.93 549.17L563.14 549.03L562.34 548.87L561.52 548.7L560.69 548.49L559.85 548.26L559 548L558.13 547.71L557.24 547.4L556.34 547.07L555.43 546.72L554.49 546.32L553.55 545.92L552.59 545.48L551.62 545.02L550.64 544.53L549.63 544.03L548.63 543.49L547.59 542.93L546.56 542.35L545.5 541.74L544.43 541.1L543.34 540.44L542.25 539.75L541.14 539.04L540.01 538.3L538.88 537.54L537.73 536.76L536.57 535.95L535.38 535.11L534.2 534.24L532.98 533.36L531.77 532.45L531.3 532.5L530.83 532.54L530.37 532.59L529.9 532.65L528.98 532.74L526.22 533.11L525.78 533.19L525.32 533.25L523.08 533.62L522.65 533.7L522.2 533.77L520.03 534.2L519.61 534.29L519.18 534.39L518.76 534.47L517.92 534.67L517.51 534.77L517.09 534.87L516.27 535.06L515.86 535.17L515.47 535.27L515.06 535.38L514.27 535.6L514.13 535.64L513.97 535.68L513.82 535.73L513.67 535.76L513.5 535.81L513.35 535.85L513.17 535.9L513.01 535.95L512.84 535.98L512.12 536.18L511.93 536.23L511.75 536.28L511.56 536.31L511.38 536.36L510.81 536.51L510.63 536.56L510.25 536.66L510.07 536.71L509.88 536.74L509.69 536.79L509.51 536.84L509.33 536.88L508.97 536.98L508.62 537.05L508.45 537.1L507.79 537.25L507.63 537.28L507.49 537.32L507.34 537.36L505.86 537.7L505.48 537.8L505.11 537.88L504.37 538.08L503.99 538.18L503.25 538.37L502.86 538.49L502.49 538.58L502.11 538.69L501.74 538.8L501.36 538.91L500.99 539.02L500.6 539.14L500.23 539.25L499.85 539.36L499.48 539.48L499.1 539.6L498.73 539.72L498.35 539.85L497.98 539.97L497.21 540.21L496.84 540.35L496.46 540.47L496.08 540.61L495.71 540.74L495.32 540.88L494.95 541.01L494.19 541.28L493.82 541.43L493.43 541.56L493.05 541.71L492.68 541.86L492.3 542.01L491.62 543.56L490.95 545.08L490.26 546.57L489.58 548.02L488.89 549.43L488.22 550.8L487.53 552.14L486.85 553.43L486.16 554.69L485.47 555.92L484.78 557.11L484.1 558.26L483.41 559.37L482.72 560.45L482.02 561.5L481.33 562.5L480.64 563.47L479.94 564.4L479.25 565.3L478.55 566.16L477.86 566.98L477.16 567.76L476.47 568.5L475.76 569.21L475.06 569.89L474.36 570.52L473.66 571.11L472.97 571.68L472.27 572.19L471.57 572.68L470.87 573.13L470.16 573.54L469.46 573.91L468.76 574.24L468.05 574.54L467.34 574.81L466.64 575.03L465.94 575.21L465.24 575.36L464.54 575.46L464.28 575.49L463.77 575.54L463.52 575.55L463.27 575.57L462.52 575.57L462.27 575.55L462.02 575.54L461.54 575.49L461.28 575.47L460.8 575.39L460.31 575.3L460.09 575.25L459.84 575.19L459.6 575.11L459.37 575.05L459.13 574.98L458.9 574.89L458.66 574.82L458.43 574.72L458.2 574.63L457.97 574.54L457.28 574.2L456.59 573.84L456.37 573.7L456.14 573.57L455.93 573.42L455.7 573.27L455.48 573.13L455.05 572.81L454.85 572.66L454.68 572.51L454.51 572.36L454.33 572.21L454.01 571.9L453.86 571.74L453.71 571.57L453.57 571.41L453.44 571.24L453.3 571.06L453.17 570.89L453.06 570.72L452.83 570.35L452.62 569.98L452.53 569.8L452.35 569.41L452.28 569.22L452.2 569.03L452.14 568.82L452.07 568.62L452.02 568.41L451.97 568.22L451.92 568.01L451.88 567.8L451.86 567.59L451.83 567.37L451.81 567.16L451.79 566.94L451.78 566.73L451.78 566.07L451.79 565.85L451.82 565.62L451.84 565.4L451.87 565.16L451.98 564.54L452.15 563.89L452.37 563.23L452.63 562.56L452.94 561.88L453.3 561.19L453.71 560.5L454.15 559.79L454.64 559.08L455.17 558.36L455.75 557.63L456.36 556.91L457.02 556.17L457.71 555.42L458.45 554.69L459.23 553.94L460.03 553.19L460.88 552.44L461.76 551.7L462.68 550.95L463.62 550.2L464.6 549.45L465.62 548.7L466.66 547.97L467.73 547.23L468.84 546.49L469.97 545.76L471.13 545.04L472.31 544.32L473.52 543.61L474.76 542.9L476.02 542.2L477.31 541.51L478.61 540.84L479.94 540.18L481.29 539.52L484.04 538.24L485.46 537.61L486.88 537.01L486.94 536.87L487 536.71L487.07 536.56L487.13 536.4L487.2 536.25L487.26 536.09L487.32 535.95L487.39 535.79L487.44 535.64L487.57 535.32L487.63 535.17L487.82 534.69L487.88 534.55L487.95 534.39L488 534.23L488.45 533.11L488.5 532.95L488.82 532.16L488.88 531.98L488.93 531.82L489.06 531.51L489.12 531.33L489.25 531.01L489.3 530.84L489.36 530.68L489.94 529.09L490.46 527.49L490.95 525.89L491.39 524.27L491.79 522.64L492.16 521.01L492.48 519.36L492.77 517.72L493.03 516.07L493.24 514.43L493.43 512.79L493.59 511.14L493.72 509.5L493.82 507.87L493.88 506.25L493.93 504.63L493.94 503.01L493.94 501.42L493.91 499.83L493.86 498.26L493.79 496.71L493.69 495.16L493.59 493.64L493.46 492.14L493.32 490.66L493.15 489.2L492.99 487.76L492.81 486.37L492.61 484.98L492.4 483.63L492.2 482.31L491.98 481.02L491.75 479.75L491.52 478.53L491.28 477.34L491.05 476.2L490.81 475.08L490.58 474.01L490.33 472.98L490.09 471.99L490.04 471.81L489.98 471.62L489.91 471.43L489.86 471.24L489.8 471.06L489.73 470.89L489.68 470.7L489.62 470.52L489.57 470.35L489.52 470.16L489.47 469.99L489.4 469.82L489.2 469.13L489.15 468.97L489.1 468.8L489.05 468.64L489.01 468.48L488.85 468L488.82 467.84L488.77 467.7L488.73 467.54L488.69 467.39L488.64 467.24L488.52 466.8L488.47 466.67L488.43 466.53L488.4 466.38L488.32 466.11L488.29 465.99L488.25 465.86L488.18 465.61L488.1 465.28L488.06 465.18L488.04 465.07L488.01 464.97L487.99 464.86L487.96 464.76L487.94 464.65L487.91 464.56L487.9 464.46L487.87 464.35L487.85 464.15L487.82 464.05L487.81 463.94L487.81 463.84L487.78 463.65L487.78 463.26L487.85 462.77L487.9 462.57L487.94 462.47L487.96 462.37L488.04 462.18L488.19 461.88L488.38 461.59L488.42 461.53L488.47 461.47L488.51 461.42L488.56 461.35L488.61 461.31L488.66 461.24L488.92 461L488.98 460.95L489.03 460.9L489.1 460.85L489.15 460.82L489.21 460.77L489.28 460.73L489.33 460.69L489.71 460.47L489.79 460.45L489.85 460.41L489.98 460.36L490.05 460.34L490.12 460.31L490.19 460.29L490.26 460.26L490.33 460.24L490.4 460.23L490.47 460.21L490.54 460.19L490.77 460.15L490.83 460.14L491.06 460.12L491.28 460.1L491.5 460.1L491.7 460.12L491.89 460.13ZM474.88 550.6L471.45 552.82L468.39 555.03L465.71 557.18L463.43 559.25L461.58 561.21L460.17 563.02L459.23 564.65L458.8 566.06L458.77 566.27L458.76 566.46L458.77 566.64L458.8 566.8L458.85 566.96L458.92 567.1L459.01 567.24L459.13 567.37L459.27 567.49L459.42 567.63L459.84 567.92L460.25 568.18L460.67 568.4L461.08 568.59L461.5 568.73L461.91 568.84L462.33 568.92L462.75 568.94L463.19 568.94L463.62 568.91L465.3 568.46L467.06 567.58L468.9 566.27L470.79 564.54L472.73 562.42L474.71 559.89L476.71 557.01L478.72 553.76L480.74 550.16L482.74 546.25L478.66 548.4L474.88 550.6ZM549.14 536.06L552.18 537.79L555.08 539.27L557.81 540.51L560.36 541.48L562.74 542.2L564.9 542.67L566.88 542.86L568.64 542.78L569.32 542.67L569.96 542.51L570.53 542.29L571.07 542.03L571.56 541.71L572.01 541.34L572.42 540.91L572.78 540.44L573.1 539.9L573.39 539.31L573.49 539.01L573.52 538.89L573.53 538.77L573.52 538.64L573.49 538.53L573.45 538.41L573.39 538.29L573.3 538.17L573.2 538.03L572.15 537.06L570.57 536.13L568.48 535.23L565.91 534.41L562.91 533.68L559.52 533.05L555.74 532.54L551.65 532.16L547.25 531.93L542.58 531.89L545.92 534.09L549.14 536.06ZM500.94 502.07L500.92 504.51L500.86 506.9L500.74 509.27L500.57 511.6L500.35 513.89L500.07 516.15L499.74 518.37L499.35 520.55L498.92 522.7L498.44 524.81L497.89 526.88L497.3 528.92L496.65 530.92L495.95 532.87L495.91 532.98L495.85 533.15L495.83 533.2L495.79 533.31L495.77 533.36L495.73 533.47L495.71 533.53L495.69 533.58L495.67 533.64L495.65 533.69L495.63 533.74L496.27 533.53L496.9 533.33L497.54 533.12L498.18 532.94L498.81 532.74L500.08 532.38L500.71 532.19L501.34 532.02L501.97 531.85L502.61 531.69L503.86 531.37L504.5 531.22L505.12 531.08L505.73 530.93L506.09 530.86L506.47 530.76L506.87 530.67L507.28 530.56L507.71 530.46L508.14 530.35L509.48 530.02L509.92 529.9L510.79 529.68L511.19 529.57L511.59 529.46L511.96 529.36L512.32 529.26L513.02 529.06L514.45 528.7L515.17 528.51L517.39 528L518.92 527.68L519.69 527.53L520.47 527.37L521.26 527.24L522.05 527.09L522.84 526.95L523.65 526.83L524.46 526.71L524.32 526.57L524.22 526.5L524.17 526.45L524.12 526.42L524.03 526.33L523.87 526.22L523.84 526.17L523.73 526.1L523.68 526.05L522.06 524.67L520.48 523.23L518.91 521.73L517.36 520.17L515.84 518.56L514.34 516.9L512.88 515.17L511.44 513.38L510.01 511.54L508.62 509.65L507.25 507.68L505.91 505.69L504.6 503.61L503.3 501.5L502.05 499.33L500.81 497.1L500.9 499.6L500.94 502.07Z" id="e30FUxEf5f"></path></defs><g><g><g><use xlink:href="#aubRVKnBu" opacity="1" fill="#a4cfb3" fill-opacity="1"></use><g><use xlink:href="#aubRVKnBu" opacity="1" fill-opacity="0" stroke="#000000" stroke-width="1" stroke-opacity="0"></use></g></g><g><use xlink:href="#a2yKLwvsOe" opacity="1" fill="#000000" fill-opacity="0"></use><g><use xlink:href="#a2yKLwvsOe" opacity="1" fill-opacity="0" stroke="#2b2bf4" stroke-width="0" stroke-opacity="1"></use></g></g><g><use xlink:href="#a2W0GIAsmP" opacity="1" fill="#f2f5f6" fill-opacity="1"></use><g><use xlink:href="#a2W0GIAsmP" opacity="1" fill-opacity="0" stroke="#000000" stroke-width="1" stroke-opacity="0"></use></g></g><g><use xlink:href="#h1haHz8Zd4" opacity="1" fill="#000000" fill-opacity="0"></use><g><use xlink:href="#h1haHz8Zd4" opacity="1" fill-opacity="0" stroke="#2b2bf4" stroke-width="0" stroke-opacity="1"></use></g></g><g><use xlink:href="#ah9h5gthX" opacity="1" fill="#a0c8d4" fill-opacity="1"></use><g><use xlink:href="#ah9h5gthX" opacity="1" fill-opacity="0" stroke="#000000" stroke-width="1" stroke-opacity="0"></use></g></g><g><use xlink:href="#a2umuB1kg5" opacity="1" fill="#000000" fill-opacity="0"></use><g><use xlink:href="#a2umuB1kg5" opacity="1" fill-opacity="0" stroke="#2b2bf4" stroke-width="0" stroke-opacity="1"></use></g></g><g><use xlink:href="#fHGM8uSz9" opacity="1" fill="#678ab6" fill-opacity="1"></use><g><use xlink:href="#fHGM8uSz9" opacity="1" fill-opacity="0" stroke="#000000" stroke-width="1" stroke-opacity="0"></use></g></g><g><use xlink:href="#c1YJtyAk2x" opacity="1" fill="#678ab6" fill-opacity="1"></use><g><use xlink:href="#c1YJtyAk2x" opacity="1" fill-opacity="0" stroke="#000000" stroke-width="1" stroke-opacity="0"></use></g></g><g><use xlink:href="#aaw8GnK5kc" opacity="1" fill="#eff0f0" fill-opacity="1"></use><g><use xlink:href="#aaw8GnK5kc" opacity="1" fill-opacity="0" stroke="#000000" stroke-width="1" stroke-opacity="0"></use></g></g><g><use xlink:href="#ldfOkAQHN" opacity="1" fill="#000000" fill-opacity="0"></use><g><use xlink:href="#ldfOkAQHN" opacity="1" fill-opacity="0" stroke="#2b2bf4" stroke-width="0" stroke-opacity="1"></use></g></g><g><use xlink:href="#dLHOwL6QL" opacity="1" fill="#f9fbfc" fill-opacity="1"></use><g><use xlink:href="#dLHOwL6QL" opacity="1" fill-opacity="0" stroke="#000000" stroke-width="1" stroke-opacity="0"></use></g></g><g><use xlink:href="#a4ZaTgGDW0" opacity="1" fill="#ecc670" fill-opacity="1"></use><g><use xlink:href="#a4ZaTgGDW0" opacity="1" fill-opacity="0" stroke="#000000" stroke-width="1" stroke-opacity="0"></use></g></g><g><use xlink:href="#a6lbKaRq1" opacity="1" fill="#dd8482" fill-opacity="1"></use><g><use xlink:href="#a6lbKaRq1" opacity="1" fill-opacity="0" stroke="#000000" stroke-width="1" stroke-opacity="0"></use></g></g><g><use xlink:href="#b2blSzKfX" opacity="1" fill="#ffffff" fill-opacity="1"></use><g><use xlink:href="#b2blSzKfX" opacity="1" fill-opacity="0" stroke="#000000" stroke-width="1" stroke-opacity="0"></use></g></g><g><use xlink:href="#e30FUxEf5f" opacity="1" fill="#000000" fill-opacity="0"></use><g><use xlink:href="#e30FUxEf5f" opacity="1" fill-opacity="0" stroke="#000000" stroke-width="0" stroke-opacity="0"></use></g></g></g></g></svg>