<?xml version="1.0" encoding="UTF-8" standalone="no"?>
<svg
   xmlns:dc="http://purl.org/dc/elements/1.1/"
   xmlns:cc="http://creativecommons.org/ns#"
   xmlns:rdf="http://www.w3.org/1999/02/22-rdf-syntax-ns#"
   xmlns:svg="http://www.w3.org/2000/svg"
   xmlns="http://www.w3.org/2000/svg"
   xmlns:sodipodi="http://sodipodi.sourceforge.net/DTD/sodipodi-0.dtd"
   xmlns:inkscape="http://www.inkscape.org/namespaces/inkscape"
   width="100%"
   height="100%"
   viewBox="0 0 1024 1024"
   version="1.1"
   xml:space="preserve"
   style="fill-rule:evenodd;clip-rule:evenodd;stroke-linejoin:round;stroke-miterlimit:2;"
   id="svg13"
   sodipodi:docname="pdfarranger.svg"
   inkscape:version="0.92.4 5da689c313, 2019-01-14"><metadata
     id="metadata19"><rdf:RDF><cc:Work
         rdf:about=""><dc:format>image/svg+xml</dc:format><dc:type
           rdf:resource="http://purl.org/dc/dcmitype/StillImage" /></cc:Work></rdf:RDF></metadata><defs
     id="defs17" /><sodipodi:namedview
     pagecolor="#ffffff"
     bordercolor="#666666"
     borderopacity="1"
     objecttolerance="10"
     gridtolerance="10"
     guidetolerance="10"
     inkscape:pageopacity="0"
     inkscape:pageshadow="2"
     inkscape:window-width="1851"
     inkscape:window-height="1048"
     id="namedview15"
     showgrid="false"
     inkscape:zoom="0.23046875"
     inkscape:cx="512"
     inkscape:cy="512"
     inkscape:window-x="69"
     inkscape:window-y="32"
     inkscape:window-maximized="1"
     inkscape:current-layer="svg13" /><g
     id="Layer1"
     transform="matrix(1.3368085,0,0,1.3368085,-169.76796,-165.76796)"><path
       d="m 872.714,190.369 c 0,-21.585 -17.498,-39.083 -39.083,-39.083 H 190.369 c -21.585,0 -39.083,17.498 -39.083,39.083 v 643.262 c 0,21.585 17.498,39.083 39.083,39.083 h 643.262 c 21.585,0 39.083,-17.498 39.083,-39.083 z"
       style="fill:#3e6645"
       id="path2"
       inkscape:connector-curvature="0" /><path
       d="m 836.034,227.049 c 0,-21.585 -17.498,-39.083 -39.083,-39.083 H 227.049 c -21.585,0 -39.083,17.498 -39.083,39.083 v 569.902 c 0,21.585 17.498,39.083 39.083,39.083 h 569.902 c 21.585,0 39.083,-17.498 39.083,-39.083 z"
       style="fill:#53885d"
       id="path4"
       inkscape:connector-curvature="0" /><path
       d="m 550.181,306.167 -236.628,49.117 63.314,305.028 236.628,-49.116 z"
       style="fill:#ffffff"
       id="path6"
       inkscape:connector-curvature="0" /><path
       d="m 628.393,347.48 -241.316,13.108 16.898,311.071 241.316,-13.108 z"
       style="fill:#d9f5b1"
       id="path8"
       inkscape:connector-curvature="0" /><path
       d="m 691.692,395.615 -241.484,-9.51 -12.258,311.289 241.484,9.51 z"
       style="fill:#3e6645"
       id="path10"
       inkscape:connector-curvature="0" /></g></svg>