<?xml version="1.0" encoding="UTF-8" standalone="no"?>
<svg
   xmlns:serif="http://www.serif.com/"
   xmlns:dc="http://purl.org/dc/elements/1.1/"
   xmlns:cc="http://creativecommons.org/ns#"
   xmlns:rdf="http://www.w3.org/1999/02/22-rdf-syntax-ns#"
   xmlns:svg="http://www.w3.org/2000/svg"
   xmlns="http://www.w3.org/2000/svg"
   xmlns:sodipodi="http://sodipodi.sourceforge.net/DTD/sodipodi-0.dtd"
   xmlns:inkscape="http://www.inkscape.org/namespaces/inkscape"
   width="100%"
   height="100%"
   viewBox="0 0 1024 1024"
   version="1.1"
   xml:space="preserve"
   style="fill-rule:evenodd;clip-rule:evenodd;stroke-linecap:round;stroke-linejoin:round;stroke-miterlimit:1.5;"
   id="svg20"
   sodipodi:docname="pencil2d.svg"
   inkscape:version="0.92.4 5da689c313, 2019-01-14"><metadata
     id="metadata26"><rdf:RDF><cc:Work
         rdf:about=""><dc:format>image/svg+xml</dc:format><dc:type
           rdf:resource="http://purl.org/dc/dcmitype/StillImage" /></cc:Work></rdf:RDF></metadata><defs
     id="defs24" /><sodipodi:namedview
     pagecolor="#ffffff"
     bordercolor="#666666"
     borderopacity="1"
     objecttolerance="10"
     gridtolerance="10"
     guidetolerance="10"
     inkscape:pageopacity="0"
     inkscape:pageshadow="2"
     inkscape:window-width="1851"
     inkscape:window-height="1048"
     id="namedview22"
     showgrid="false"
     inkscape:zoom="0.23046875"
     inkscape:cx="512"
     inkscape:cy="512"
     inkscape:window-x="69"
     inkscape:window-y="32"
     inkscape:window-maximized="1"
     inkscape:current-layer="svg20" /><g
     id="Layer1"
     transform="matrix(1.2205979,0,0,1.2205979,-113.80959,-112.2762)"><circle
       cx="523.90601"
       cy="500.784"
       r="361.64999"
       style="fill:#a9c2df"
       id="circle2" /></g><g
     id="Layer2"
     transform="matrix(1.2205979,0,0,1.2205979,-113.80959,-112.2762)"><path
       d="m 729.358,178.94 c 0,0 -517.251,517.251 -541.956,541.956 -0.243,0.242 -0.379,0.571 -0.379,0.914 0,0.343 0.136,0.671 0.379,0.914 10.178,10.178 102.17,102.17 114.683,114.683 0.373,0.373 0.879,0.583 1.407,0.583 0.528,0 1.034,-0.21 1.407,-0.583 30.347,-30.347 541.463,-541.463 541.463,-541.463 z"
       style="fill:#cb976b"
       id="path5"
       inkscape:connector-curvature="0" /></g><g
     id="Layer3"
     transform="matrix(1.2205979,0,0,1.2205979,-113.80959,-112.2762)"><path
       d="M 187.287,721.103 304.858,837.419 123.119,902.097 Z"
       style="fill:#b48075;stroke:#000000;stroke-width:0.5px;stroke-opacity:0"
       id="path8"
       inkscape:connector-curvature="0" /></g><g
     id="Layer31"
     serif:id="Layer3"
     transform="matrix(1.2205979,0,0,1.2205979,-113.80959,-112.2762)"><path
       d="m 145.927,838.046 41.877,41.101 -64.733,22.854 z"
       style="fill:#a9c2df;stroke:#000000;stroke-width:0.5px;stroke-opacity:0"
       id="path11"
       inkscape:connector-curvature="0" /></g><g
     id="Layer4"
     transform="matrix(1.2205979,0,0,1.2205979,-113.80959,-112.2762)"><path
       d="m 730.6,177.732 116.902,117.162 c 0,0 27.16,-27.24 49.506,-49.651 15.989,-16.037 16.065,-41.964 0.169,-58.094 -17.944,-18.208 -40.951,-41.554 -58.8,-59.666 -7.474,-7.584 -17.659,-11.881 -28.307,-11.944 -10.648,-0.062 -20.883,4.116 -28.445,11.613 -22.824,22.625 -51.025,50.58 -51.025,50.58 z"
       style="fill:#b48075;stroke:#e56549;stroke-width:0.5px;stroke-opacity:0"
       id="path14"
       inkscape:connector-curvature="0" /></g><g
     id="Layer5"
     transform="matrix(1.2205979,0,0,1.2205979,-113.80959,-112.2762)"><path
       d="m 761.808,146.491 -32.939,32.939 117.003,117.003 32.94,-32.939 z"
       style="fill:#a9c2df;stroke:#000000;stroke-width:0.5px;stroke-opacity:0"
       id="path17"
       inkscape:connector-curvature="0" /></g></svg>