<?xml version="1.0" encoding="UTF-8" standalone="no"?>
<svg
   xmlns:dc="http://purl.org/dc/elements/1.1/"
   xmlns:cc="http://creativecommons.org/ns#"
   xmlns:rdf="http://www.w3.org/1999/02/22-rdf-syntax-ns#"
   xmlns:svg="http://www.w3.org/2000/svg"
   xmlns="http://www.w3.org/2000/svg"
   xmlns:sodipodi="http://sodipodi.sourceforge.net/DTD/sodipodi-0.dtd"
   xmlns:inkscape="http://www.inkscape.org/namespaces/inkscape"
   width="297mm"
   height="297mm"
   viewBox="0 0 297 297"
   version="1.1"
   id="svg8"
   inkscape:version="1.0.1 (3bc2e813f5, 2020-09-07)"
   sodipodi:docname="polyphone3.svg">
  <defs
     id="defs2" />
  <sodipodi:namedview
     id="base"
     pagecolor="#ffffff"
     bordercolor="#666666"
     borderopacity="1.0"
     inkscape:pageopacity="0.0"
     inkscape:pageshadow="2"
     inkscape:zoom="0.39332308"
     inkscape:cx="201.23974"
     inkscape:cy="574.4785"
     inkscape:document-units="mm"
     inkscape:current-layer="layer1"
     inkscape:document-rotation="0"
     showgrid="false"
     inkscape:window-width="1387"
     inkscape:window-height="656"
     inkscape:window-x="134"
     inkscape:window-y="39"
     inkscape:window-maximized="0" />
  <metadata
     id="metadata5">
    <rdf:RDF>
      <cc:Work
         rdf:about="">
        <dc:format>image/svg+xml</dc:format>
        <dc:type
           rdf:resource="http://purl.org/dc/dcmitype/StillImage" />
        <dc:title></dc:title>
      </cc:Work>
    </rdf:RDF>
  </metadata>
  <g
     inkscape:label="Layer 1"
     inkscape:groupmode="layer"
     id="layer1">
    <rect
       style="fill:#584b3e;stroke:#817469;stroke-width:5.61613;stroke-linejoin:round;fill-opacity:1;stroke-opacity:1"
       id="rect833"
       width="254.34177"
       height="257.50482"
       x="20.822901"
       y="19.092337"
       ry="27.666155" />
    <rect
       style="fill:#e5dbd3;fill-opacity:1;stroke:#442404;stroke-width:0;stroke-linejoin:round;stroke-miterlimit:4;stroke-dasharray:none;stroke-opacity:1"
       id="rect835"
       width="11.497437"
       height="146.86971"
       x="144.5273"
       y="114.37089"
       ry="8.1438284" />
    <path
       style="fill:#e5dbd3;fill-opacity:1;stroke:#522f0d;stroke-width:0;stroke-linejoin:round;stroke-miterlimit:4;stroke-dasharray:none;stroke-opacity:1"
       id="path855"
       sodipodi:type="arc"
       sodipodi:cx="155.1622"
       sodipodi:cy="74.605064"
       sodipodi:rx="26.979233"
       sodipodi:ry="18.113495"
       sodipodi:start="6.1474685"
       sodipodi:end="6.1356177"
       sodipodi:open="true"
       sodipodi:arc-type="arc"
       d="M 181.89335,72.154298 A 26.979233,18.113495 0 0 1 158.89169,92.544659 26.979233,18.113495 0 0 1 128.45315,77.16213 26.979233,18.113495 0 0 1 151.27445,56.680622 26.979233,18.113495 0 0 1 181.84821,71.94179"
       transform="rotate(17.045834)" />
    <path
       style="fill:#e5dbd3;fill-opacity:1;stroke:#522f0d;stroke-width:0;stroke-linejoin:round;stroke-miterlimit:4;stroke-dasharray:none;stroke-opacity:1"
       id="path857"
       sodipodi:type="arc"
       sodipodi:cx="-103.02969"
       sodipodi:cy="-171.36641"
       sodipodi:rx="26.979233"
       sodipodi:ry="18.113495"
       sodipodi:start="6.1474685"
       sodipodi:end="6.1356177"
       sodipodi:open="true"
       sodipodi:arc-type="arc"
       d="m -76.298546,-173.81718 a 26.979233,18.113495 0 0 1 -23.001662,20.39037 26.979233,18.113495 0 0 1 -30.438532,-15.38253 26.979233,18.113495 0 0 1 22.8213,-20.48151 26.979233,18.113495 0 0 1 30.573759,15.26117"
       transform="rotate(151.99352)" />
    <path
       style="fill:#584b3e;fill-opacity:1;stroke:#c5a06e;stroke-width:15.0023;stroke-linejoin:round;stroke-miterlimit:4;stroke-dasharray:none;stroke-opacity:1"
       id="path865"
       sodipodi:type="arc"
       sodipodi:cx="38.945084"
       sodipodi:cy="-166.26366"
       sodipodi:rx="66.132721"
       sodipodi:ry="74.338531"
       sodipodi:start="0.027452544"
       sodipodi:end="1.9731428"
       sodipodi:arc-type="arc"
       d="m 105.05289,-164.22313 a 66.132721,74.338531 0 0 1 -30.392711,60.52514 66.132721,74.338531 0 0 1 -61.611248,5.836539"
       transform="matrix(-0.55841921,0.82955891,-0.84314805,-0.53768147,0,0)"
       sodipodi:open="true" />
    <path
       style="fill:#584b3e;fill-opacity:1;stroke:#c5a06e;stroke-width:15.945;stroke-linejoin:round;stroke-miterlimit:4;stroke-dasharray:none;stroke-opacity:1"
       id="path871"
       sodipodi:type="arc"
       sodipodi:cx="100.39879"
       sodipodi:cy="116.59336"
       sodipodi:rx="27.480099"
       sodipodi:ry="35.537735"
       sodipodi:start="1.9187082"
       sodipodi:end="4.3114192"
       sodipodi:arc-type="arc"
       d="M 91.029846,150.00191 A 27.480099,35.537735 0 0 1 72.928359,117.53603 27.480099,35.537735 0 0 1 89.672993,83.874376"
       sodipodi:open="true" />
    <path
       style="fill:#584b3e;fill-opacity:1;stroke:#c5a06e;stroke-width:15.0023;stroke-linejoin:round;stroke-miterlimit:4;stroke-dasharray:none;stroke-opacity:1"
       id="path873"
       sodipodi:type="arc"
       sodipodi:cx="189.57896"
       sodipodi:cy="67.246239"
       sodipodi:rx="66.132721"
       sodipodi:ry="74.338531"
       sodipodi:start="0.027452544"
       sodipodi:end="1.9731428"
       sodipodi:arc-type="arc"
       d="m 255.68677,69.286764 a 66.132721,74.338531 0 0 1 -30.39271,60.525146 66.132721,74.338531 0 0 1 -61.61125,5.83653"
       transform="matrix(0.65798284,0.75303292,0.76911392,-0.63911171,0,0)"
       sodipodi:open="true" />
    <path
       style="fill:#584b3e;fill-opacity:1;stroke:#c5a06e;stroke-width:15.945;stroke-linejoin:round;stroke-miterlimit:4;stroke-dasharray:none;stroke-opacity:1"
       id="path875"
       sodipodi:type="arc"
       sodipodi:cx="-173.72949"
       sodipodi:cy="126.67918"
       sodipodi:rx="27.480099"
       sodipodi:ry="35.537735"
       sodipodi:start="1.9187082"
       sodipodi:end="4.3114192"
       sodipodi:arc-type="arc"
       d="m -183.09843,160.08773 a 27.480099,35.537735 0 0 1 -18.10149,-32.46589 27.480099,35.537735 0 0 1 16.74463,-33.661649"
       sodipodi:open="true"
       transform="matrix(-0.98343954,0.18123649,0.18123649,0.98343954,0,0)" />
  </g>
</svg>
