<?xml version="1.0" encoding="UTF-8" standalone="no"?>
<svg
   xmlns:dc="http://purl.org/dc/elements/1.1/"
   xmlns:cc="http://creativecommons.org/ns#"
   xmlns:rdf="http://www.w3.org/1999/02/22-rdf-syntax-ns#"
   xmlns:svg="http://www.w3.org/2000/svg"
   xmlns="http://www.w3.org/2000/svg"
   xmlns:sodipodi="http://sodipodi.sourceforge.net/DTD/sodipodi-0.dtd"
   xmlns:inkscape="http://www.inkscape.org/namespaces/inkscape"
   height="48"
   width="48"
   version="1.1"
   id="svg10"
   sodipodi:docname="pop_icon.svg"
   inkscape:version="1.0.2 (e86c870879, 2021-01-15)">
  <metadata
     id="metadata16">
    <rdf:RDF>
      <cc:Work
         rdf:about="">
        <dc:format>image/svg+xml</dc:format>
        <dc:type
           rdf:resource="http://purl.org/dc/dcmitype/StillImage" />
        <dc:title></dc:title>
      </cc:Work>
    </rdf:RDF>
  </metadata>
  <defs
     id="defs14" />
  <sodipodi:namedview
     pagecolor="#ffffff"
     bordercolor="#666666"
     borderopacity="1"
     objecttolerance="10"
     gridtolerance="10"
     guidetolerance="10"
     inkscape:pageopacity="0"
     inkscape:pageshadow="2"
     inkscape:window-width="1920"
     inkscape:window-height="1024"
     id="namedview12"
     showgrid="false"
     inkscape:zoom="6.6880516"
     inkscape:cx="8.7330149"
     inkscape:cy="4.8591855"
     inkscape:window-x="0"
     inkscape:window-y="24"
     inkscape:window-maximized="1"
     inkscape:current-layer="svg10" />
  <g
     fill="#be514c"
     opacity=".99"
     transform="matrix(1.1503549 0 0 1.1503549 -4.486125 -7.525565)"
     id="g6"
     style="fill:#7bb9b3;fill-opacity:1">
    <path
       d="m44.322082 27.405077a19.729762 19.729765 0 0 1 -19.729762 19.729765 19.729762 19.729765 0 0 1 -19.7297621-19.729765 19.729762 19.729765 0 0 1 19.7297621-19.7297632 19.729762 19.729765 0 0 1 19.729762 19.7297632z"
       id="path2"
       style="fill:#7bb9b3;fill-opacity:1" />
    <path
       d="m44.322082 27.405077a19.729762 19.729765 0 0 1 -19.729762 19.729765 19.729762 19.729765 0 0 1 -19.7297621-19.729765 19.729762 19.729765 0 0 1 19.7297621-19.7297632 19.729762 19.729765 0 0 1 19.729762 19.7297632z"
       id="path4"
       style="fill:#7bb9b3;fill-opacity:1" />
  </g>
  <path
     id="path839"
     style="fill:#ffffff;fill-opacity:1;stroke:none;stroke-width:0.136823px;stroke-linecap:butt;stroke-linejoin:miter;stroke-opacity:1"
     d="m 19.865315,7.2925196 c -2.276469,-0.036971 -4.786877,1.008039 -7.753992,3.3059224 -0.355541,0.276866 -0.78278,0.626388 -1.005325,0.896829 -1.1098566,1.391257 -0.265093,2.939013 -0.265093,2.939013 l 1.377044,2.780812 c 0.374244,0.755789 0.749952,1.510762 1.133596,2.261849 1.728885,3.407043 5.824869,11.337522 7.377196,13.11118 1.623747,1.855265 2.694263,0.817376 3.118057,0.0275 0.207933,-0.360147 0.170432,-1.017647 0.08952,-1.401897 -0.24363,-1.100286 -0.795282,-2.663231 -0.795282,-2.663231 l -1.883448,-4.878313 c 2.618373,-1.361288 5.545191,-3.507828 5.930938,-7.431442 0.209032,-2.080362 -0.05226,-5.415887 -3.430186,-7.7499834 -1.245474,-0.764538 -2.527149,-1.176083 -3.893029,-1.198266 z m -1.80996,4.1634684 a 4.1400959,2.0076834 67.009433 0 1 2.994597,2.971615 4.1400959,2.0076834 67.009433 0 1 -0.107694,4.700334 4.1400959,2.0076834 67.009433 0 1 -3.471338,-2.861513 4.1400959,2.0076834 67.009433 0 1 0.107694,-4.700337 4.1400959,2.0076834 67.009433 0 1 0.476741,-0.110099 z m 14.961763,3.65359 c -0.20853,-0.0024 -0.412991,0.01144 -0.610893,0.04142 -0.924817,0.155971 -1.917071,0.7777 -2.143998,2.655748 -0.448487,3.711665 -0.636814,6.052524 -0.636814,6.052524 0,0 -1.115648,9.324256 3.553646,1.044345 3.520242,-6.242341 3.763939,-7.962775 2.56569,-8.859261 -0.844929,-0.610912 -1.824005,-0.924399 -2.727631,-0.934777 z m -3.658935,15.273887 a 1.7732039,1.7732039 0 0 0 -1.762928,1.773082 1.7732039,1.7732039 0 0 0 1.773349,1.773352 1.7732039,1.7732039 0 0 0 1.773081,-1.773352 1.7732039,1.7732039 0 0 0 -1.773081,-1.773082 1.7732039,1.7732039 0 0 0 -0.01043,0 z M 13.949342,35.55012 c -0.956593,0 -1.726583,0.710001 -1.726583,1.59217 v 0.2071 c 0,0.882169 0.76999,1.592435 1.726583,1.592435 H 33.97728 c 0.956594,0 1.726583,-0.710266 1.726583,-1.592435 v -0.2071 c 0,-0.882169 -0.769989,-1.59217 -1.726583,-1.59217 z" />
</svg>
