<?xml version="1.0" encoding="UTF-8" standalone="no"?><!DOCTYPE svg PUBLIC "-//W3C//DTD SVG 1.1//EN" "http://www.w3.org/Graphics/SVG/1.1/DTD/svg11.dtd"><svg width="100%" height="100%" viewBox="0 0 800 800" version="1.1" xmlns="http://www.w3.org/2000/svg" xmlns:xlink="http://www.w3.org/1999/xlink" xml:space="preserve" xmlns:serif="http://www.serif.com/" style="fill-rule:evenodd;clip-rule:evenodd;stroke-linejoin:round;stroke-miterlimit:2;"><rect id="PrestoPalette" x="0.372" y="0" width="800" height="800" style="fill:none;"/><g><path d="M779.49,400c0,-209.241 -169.877,-379.118 -379.118,-379.118c-209.241,-0 -379.119,169.877 -379.119,379.118c0,209.241 169.878,379.118 379.119,379.118c209.241,0 379.118,-169.877 379.118,-379.118Zm-178.01,-283.125c-9.094,-9.095 -23.862,-9.095 -32.957,-0c-9.095,9.094 -9.095,23.862 0,32.957l82.017,82.017c9.095,9.094 23.863,9.094 32.957,-0c9.095,-9.095 9.095,-23.863 0,-32.958l-82.017,-82.016Z" style="fill:#b79f85;"/><g><path d="M762.106,400c-0.044,13.873 -0.783,27.727 -2.361,41.513c-2.982,26.051 -8.811,51.768 -17.376,76.552c-17.384,50.302 -46.036,96.51 -83.212,134.582c-38.686,39.619 -86.394,70.206 -138.629,88.62c-24.708,8.71 -50.366,14.696 -76.375,17.839c-13.758,1.663 -27.588,2.489 -41.443,2.621l-2.338,0.007c-0,-0 -0,-361.734 -0,-361.734l361.734,0Z" style="fill:#a978a9;"/><path d="M38.638,400c-0,-0 361.734,-0 361.734,-0l-0,361.734c-199.647,-0 -361.734,-162.088 -361.734,-361.734Z" style="fill:#73eeee;"/><path d="M400.372,38.266l-0,361.734l-361.734,0c-0,-199.646 162.087,-361.734 361.734,-361.734Z" style="fill:#ffff93;"/><path d="M413.216,38.266c30.743,0 60.228,12.213 81.967,33.952c21.739,21.739 33.951,51.223 33.951,81.967l0,0.009c0,31.042 12.332,60.812 34.282,82.762c21.95,21.95 51.72,34.281 82.762,34.281c0.003,0 0.006,0 0.009,0c30.744,0 60.228,12.213 81.967,33.952c21.739,21.739 33.952,51.224 33.952,81.967l-0,12.844l-361.734,0l-0,-361.734l12.844,0Z" style="fill:#e67777;"/></g><g><path d="M470.576,598.842l-19.218,103.575c-4.378,23.595 -27.088,39.196 -50.683,34.818c-23.595,-4.378 -39.197,-27.088 -34.819,-50.683l63.996,-344.905c3.307,-17.826 17.329,-31.729 35.183,-34.884c73.929,-13.066 126.711,3.576 160.245,30.541c38.595,31.034 54.684,77.131 48.79,122.718c-9.296,71.904 -76.595,149.414 -203.494,138.82Zm38.903,-209.669l-22.893,123.38c47.538,1.486 79.878,-16.049 94.327,-42.652c12.212,-22.484 9.445,-50.457 -11.895,-66.19c-14.066,-10.37 -33.951,-15.459 -59.539,-14.538Z" style="fill:#ffff93;"/><path d="M230.945,406.675l-19.217,103.575c-4.378,23.595 -27.089,39.196 -50.684,34.818c-23.594,-4.378 -39.196,-27.088 -34.818,-50.683l63.995,-344.905c3.308,-17.826 17.33,-31.729 35.184,-34.884c73.929,-13.066 126.71,3.576 160.245,30.541c38.595,31.034 54.683,77.131 48.79,122.718c-9.296,71.904 -76.595,149.414 -203.495,138.82Zm38.903,-209.669l-22.892,123.38c47.537,1.486 79.877,-16.049 94.327,-42.652c12.212,-22.484 9.444,-50.457 -11.895,-66.189c-14.067,-10.371 -33.952,-15.46 -59.54,-14.539Z" style="fill:#ff9191;"/></g></g></svg>