<?xml version="1.0" encoding="UTF-8" standalone="no"?>
<!DOCTYPE svg PUBLIC "-//W3C//DTD SVG 1.1//EN" "http://www.w3.org/Graphics/SVG/1.1/DTD/svg11.dtd">
<svg version="1.1" xmlns="http://www.w3.org/2000/svg" xmlns:xlink="http://www.w3.org/1999/xlink" preserveAspectRatio="xMidYMid meet" viewBox="0 0 640 640" width="64" height="64"><defs><path d="M610.02 321.71C610.02 486.17 480.32 619.7 320.57 619.7C160.82 619.7 31.12 486.17 31.12 321.71C31.12 157.24 160.82 23.72 320.57 23.72C480.32 23.72 610.02 157.24 610.02 321.71Z" id="a26yg4aiEq"></path><path d="M534.2 234.57C540.5 234.57 545.59 239.67 545.59 245.96C545.59 277.86 545.59 362.14 545.59 394.04C545.59 400.33 540.5 405.43 534.2 405.43C531.93 405.43 536.48 405.43 534.2 405.43C527.91 405.43 522.81 400.33 522.81 394.04C522.81 362.14 522.81 277.86 522.81 245.96C522.81 239.67 527.91 234.57 534.2 234.57C536.48 234.57 531.93 234.57 534.2 234.57Z" id="a2Kgw9OJeQ"></path><path d="M189.85 173.63C196.14 173.63 201.24 178.73 201.24 185.03C201.24 241.29 201.24 398.71 201.24 454.97C201.24 461.27 196.14 466.37 189.85 466.37C187.57 466.37 192.13 466.37 189.85 466.37C183.56 466.37 178.46 461.27 178.46 454.97C178.46 398.71 178.46 241.29 178.46 185.03C178.46 178.73 183.56 173.63 189.85 173.63C192.13 173.63 187.57 173.63 189.85 173.63Z" id="g2XgG0asoL"></path><path d="M455.64 167.2C461.93 167.2 467.03 172.3 467.03 178.59C467.03 234.86 467.03 392.27 467.03 448.54C467.03 454.83 461.93 459.93 455.64 459.93C453.36 459.93 457.92 459.93 455.64 459.93C449.35 459.93 444.25 454.83 444.25 448.54C444.25 392.27 444.25 234.86 444.25 178.59C444.25 172.3 449.35 167.2 455.64 167.2C457.92 167.2 453.36 167.2 455.64 167.2Z" id="b6gSRkmx4"></path><path d="M74.32 274.44C79.36 274.44 83.44 278.52 83.44 283.56C83.44 300.64 83.44 344.02 83.44 361.42C83.44 365.59 80.05 368.98 75.88 368.98C72.83 368.98 72.51 368.98 69.77 368.98C64.74 368.98 60.66 364.9 60.66 359.86C60.66 342.78 60.66 299.39 60.66 282C60.66 277.82 64.04 274.44 68.22 274.44C71.26 274.44 71.59 274.44 74.32 274.44Z" id="eq8SSxDa"></path><path d="M376.78 132.13C383.07 132.13 388.17 137.23 388.17 143.52C388.17 177.35 388.17 267.44 388.17 301.27C388.17 307.56 383.07 312.66 376.78 312.66C374.51 312.66 379.06 312.66 376.78 312.66C370.49 312.66 365.39 307.56 365.39 301.27C365.39 267.44 365.39 177.35 365.39 143.52C365.39 137.23 370.49 132.13 376.78 132.13C379.06 132.13 374.51 132.13 376.78 132.13Z" id="a1DcMgYFty"></path><path d="M320.57 262.48C326.86 262.48 331.96 267.58 331.96 273.87C331.96 328.77 331.96 482.08 331.96 536.98C331.96 543.28 326.86 548.38 320.57 548.38C318.29 548.38 322.85 548.38 320.57 548.38C314.28 548.38 309.18 543.28 309.18 536.98C309.18 482.08 309.18 328.77 309.18 273.87C309.18 267.58 314.28 262.48 320.57 262.48C322.85 262.48 318.29 262.48 320.57 262.48Z" id="a2jBTUmH2Z"></path><path d="M267.94 132.13C274.23 132.13 279.33 137.23 279.33 143.52C279.33 183.28 279.33 291.19 279.33 330.95C279.33 337.25 274.23 342.35 267.94 342.35C265.66 342.35 270.22 342.35 267.94 342.35C261.65 342.35 256.55 337.25 256.55 330.95C256.55 291.19 256.55 183.28 256.55 143.52C256.55 137.23 261.65 132.13 267.94 132.13C270.22 132.13 265.66 132.13 267.94 132.13Z" id="a1EylqRzGd"></path><path d="M97.88 321.72C97.91 317.18 101.62 313.53 106.16 313.56C129.18 313.75 190.01 314.23 213.03 314.41C217.57 314.45 221.22 318.16 221.19 322.7C221.17 325.61 221.16 326.13 221.14 329.04C221.1 333.58 217.39 337.23 212.85 337.19C189.83 337.01 129 336.53 105.98 336.34C101.44 336.31 97.79 332.6 97.83 328.06C97.85 325.15 97.85 324.63 97.88 321.72Z" id="b1dhs3l7CP"></path><path d="M201.31 321.78C201.35 317.86 204.55 314.71 208.47 314.75C228.32 314.92 280.79 315.37 300.65 315.54C304.56 315.57 307.71 318.78 307.68 322.69C307.65 325.83 307.63 328.15 307.6 331.29C307.57 335.21 304.37 338.35 300.45 338.32C280.6 338.15 228.12 337.7 208.27 337.53C204.35 337.49 201.21 334.29 201.24 330.38C201.27 327.24 201.29 324.92 201.31 321.78Z" id="bPVigD0gH"></path><path d="M338.74 322.11C338.75 318.55 341.66 315.67 345.22 315.68C357.28 315.73 387.41 315.85 435.62 316.05L435.53 338.83C387.32 338.63 357.18 338.51 345.13 338.46C341.56 338.45 338.69 335.55 338.7 331.98C338.71 328.72 338.73 325.38 338.74 322.11Z" id="a1wflSGJQj"></path><path d="M469.55 323.39C469.52 319.82 472.39 316.91 475.95 316.88C494.03 316.73 541.81 316.35 559.89 316.2C563.46 316.18 566.37 319.04 566.4 322.61C566.43 325.87 566.46 329.21 566.48 332.47C566.51 336.04 563.64 338.96 560.08 338.98C542 339.13 494.22 339.51 476.14 339.66C472.57 339.69 469.66 336.82 469.63 333.25C469.6 329.99 469.57 326.65 469.55 323.39Z" id="a1KzsAe5vM"></path><path d="M321.13 225.29L238.18 112.17L133.88 112.17L133.88 535.25L244.61 535.25L244.61 334.5L313.36 428.25L321.13 438.81L321.22 438.69L321.23 438.71L397.65 334.5L397.65 535.25L508.38 535.25L508.38 112.17L404.08 112.17L321.13 225.29ZM419.6 505.32L419.6 262.25L321.13 396.53L222.66 262.25L222.66 505.32L155.82 505.32L155.82 142.09L229.09 142.09L321.13 267.61L413.17 142.09L486.44 142.09L486.44 505.32L419.6 505.32Z" id="d3KI31Nkow"></path><path d="M267.94 208.94C274.23 208.94 279.33 214.04 279.33 220.34C279.33 278.31 279.33 440.85 279.33 498.83C279.33 505.12 274.23 510.22 267.94 510.22C265.66 510.22 270.22 510.22 267.94 510.22C261.65 510.22 256.55 505.12 256.55 498.83C256.55 440.85 256.55 278.31 256.55 220.34C256.55 214.04 261.65 208.94 267.94 208.94C270.22 208.94 265.66 208.94 267.94 208.94Z" id="a2vNfCVvKd"></path><path d="M320.57 86.5C326.86 86.5 331.96 91.6 331.96 97.89C331.96 152.79 331.96 306.1 331.96 361.01C331.96 367.3 326.86 372.4 320.57 372.4C318.29 372.4 322.85 372.4 320.57 372.4C314.28 372.4 309.18 367.3 309.18 361.01C309.18 306.1 309.18 152.79 309.18 97.89C309.18 91.6 314.28 86.5 320.57 86.5C322.85 86.5 318.29 86.5 320.57 86.5Z" id="b1vWiJ2PKE"></path><path d="M376.78 208.94C383.07 208.94 388.17 214.04 388.17 220.34C388.17 278.31 388.17 440.85 388.17 498.83C388.17 505.12 383.07 510.22 376.78 510.22C374.51 510.22 379.06 510.22 376.78 510.22C370.49 510.22 365.39 505.12 365.39 498.83C365.39 440.85 365.39 278.31 365.39 220.34C365.39 214.04 370.49 208.94 376.78 208.94C379.06 208.94 374.51 208.94 376.78 208.94Z" id="d3yHz8uAtx"></path><path d="M33.55 320.21C33.55 316.54 36.52 313.56 40.2 313.56C58.83 313.57 108.05 313.58 126.68 313.58C130.35 313.58 133.33 316.56 133.33 320.24C133.33 323.46 133.33 326.49 133.33 329.71C133.33 333.38 130.35 336.36 126.68 336.36C108.05 336.36 58.82 336.35 40.19 336.34C36.52 336.34 33.54 333.36 33.54 329.69C33.54 326.46 33.54 323.44 33.55 320.21Z" id="b1hZQQ8fCi"></path><path d="M109.22 230.26C115.51 230.26 120.61 235.36 120.61 241.65C120.61 273.54 120.61 357.83 120.61 389.72C120.61 396.01 115.51 401.11 109.22 401.11C106.94 401.11 111.49 401.11 109.22 401.11C102.93 401.11 97.83 396.01 97.83 389.72C97.83 357.83 97.83 273.54 97.83 241.65C97.83 235.36 102.93 230.26 109.22 230.26C111.49 230.26 106.94 230.26 109.22 230.26Z" id="ahhmB3WUI"></path><path d="M280.64 320.75C280.66 317.85 283.03 315.51 285.93 315.53C300.64 315.64 339.52 315.92 354.23 316.02C357.14 316.04 359.47 318.41 359.45 321.32C359.43 324.82 359.39 330.08 359.36 333.59C359.34 336.49 356.97 338.82 354.07 338.8C339.36 338.7 300.48 338.42 285.77 338.31C282.86 338.29 280.53 335.92 280.55 333.02C280.57 329.52 280.61 324.26 280.64 320.75Z" id="bmPMYBA4J"></path><path d="M424.62 338.98L424.84 316.2C455.63 316.49 474.87 316.68 482.57 316.75C484.85 316.77 486.67 318.63 486.65 320.91C486.62 324.64 486.55 331.71 486.52 335.44C486.49 337.72 484.63 339.55 482.35 339.53C474.66 339.45 455.41 339.27 424.62 338.98Z" id="a11GHybYo"></path><path d="M528.7 321.75C528.64 318.95 530.85 316.64 533.64 316.58C547.79 316.28 585.18 315.46 599.33 315.16C602.12 315.09 604.43 317.31 604.5 320.1C604.57 323.64 604.69 329.22 604.77 332.77C604.83 335.56 602.62 337.87 599.83 337.93C585.68 338.24 548.28 339.05 534.14 339.36C531.34 339.42 529.03 337.21 528.97 334.41C528.9 330.87 528.77 325.29 528.7 321.75Z" id="b2lzVDkPs0"></path><path d="M571.31 276.44C576.34 276.44 580.42 280.52 580.42 285.56C580.42 302.64 580.42 346.02 580.42 363.42C580.42 367.59 577.04 370.98 572.86 370.98C569.82 370.98 569.49 370.98 566.76 370.98C561.72 370.98 557.64 366.9 557.64 361.86C557.64 344.78 557.64 301.39 557.64 284C557.64 279.82 561.03 276.44 565.2 276.44C568.25 276.44 568.57 276.44 571.31 276.44Z" id="c5u8tz7kxi"></path></defs><g><g><g><use xlink:href="#a26yg4aiEq" opacity="1" fill="#c56ba8" fill-opacity="1"></use></g><g><use xlink:href="#a2Kgw9OJeQ" opacity="1" fill="#d0d3e1" fill-opacity="1"></use></g><g><use xlink:href="#g2XgG0asoL" opacity="1" fill="#d0d3e1" fill-opacity="1"></use></g><g><use xlink:href="#b6gSRkmx4" opacity="1" fill="#d0d3e1" fill-opacity="1"></use></g><g><use xlink:href="#eq8SSxDa" opacity="1" fill="#d0d3e1" fill-opacity="1"></use></g><g><use xlink:href="#a1DcMgYFty" opacity="1" fill="#d0d3e1" fill-opacity="1"></use></g><g><use xlink:href="#a2jBTUmH2Z" opacity="1" fill="#d0d3e1" fill-opacity="1"></use></g><g><use xlink:href="#a1EylqRzGd" opacity="1" fill="#d0d3e1" fill-opacity="1"></use></g><g><use xlink:href="#b1dhs3l7CP" opacity="1" fill="#c5a2d8" fill-opacity="1"></use></g><g><use xlink:href="#bPVigD0gH" opacity="1" fill="#c5a2d8" fill-opacity="1"></use></g><g><use xlink:href="#a1wflSGJQj" opacity="1" fill="#c5a2d8" fill-opacity="1"></use></g><g><use xlink:href="#a1KzsAe5vM" opacity="1" fill="#c5a2d8" fill-opacity="1"></use></g><g><use xlink:href="#d3KI31Nkow" opacity="1" fill="#863a86" fill-opacity="1"></use><g><use xlink:href="#d3KI31Nkow" opacity="1" fill-opacity="0" stroke="#000000" stroke-width="1" stroke-opacity="0"></use></g></g><g><use xlink:href="#a2vNfCVvKd" opacity="1" fill="#d0d3e1" fill-opacity="1"></use></g><g><use xlink:href="#b1vWiJ2PKE" opacity="1" fill="#d0d3e1" fill-opacity="1"></use></g><g><use xlink:href="#d3yHz8uAtx" opacity="1" fill="#d0d3e1" fill-opacity="1"></use></g><g><use xlink:href="#b1hZQQ8fCi" opacity="1" fill="#c5a2d8" fill-opacity="1"></use></g><g><use xlink:href="#ahhmB3WUI" opacity="1" fill="#d0d3e1" fill-opacity="1"></use></g><g><use xlink:href="#bmPMYBA4J" opacity="1" fill="#c5a2d8" fill-opacity="1"></use></g><g><use xlink:href="#a11GHybYo" opacity="1" fill="#c5a2d8" fill-opacity="1"></use></g><g><use xlink:href="#b2lzVDkPs0" opacity="1" fill="#c5a2d8" fill-opacity="1"></use></g><g><use xlink:href="#c5u8tz7kxi" opacity="1" fill="#d0d3e1" fill-opacity="1"></use></g></g></g></svg>