<?xml version="1.0" encoding="UTF-8" standalone="no"?>
<svg
   xmlns:dc="http://purl.org/dc/elements/1.1/"
   xmlns:cc="http://creativecommons.org/ns#"
   xmlns:rdf="http://www.w3.org/1999/02/22-rdf-syntax-ns#"
   xmlns:svg="http://www.w3.org/2000/svg"
   xmlns="http://www.w3.org/2000/svg"
   xmlns:xlink="http://www.w3.org/1999/xlink"
   xmlns:sodipodi="http://sodipodi.sourceforge.net/DTD/sodipodi-0.dtd"
   xmlns:inkscape="http://www.inkscape.org/namespaces/inkscape"
   version="1.1"
   preserveAspectRatio="xMidYMid meet"
   viewBox="0 0 640 640"
   width="64"
   height="64"
   id="svg93"
   sodipodi:docname="projectM9.svg"
   inkscape:version="0.92.5 (2060ec1f9f, 2020-04-08)">
  <metadata
     id="metadata97">
    <rdf:RDF>
      <cc:Work
         rdf:about="">
        <dc:format>image/svg+xml</dc:format>
        <dc:type
           rdf:resource="http://purl.org/dc/dcmitype/StillImage" />
        <dc:title />
      </cc:Work>
    </rdf:RDF>
  </metadata>
  <sodipodi:namedview
     pagecolor="#ffffff"
     bordercolor="#666666"
     borderopacity="1"
     objecttolerance="10"
     gridtolerance="10"
     guidetolerance="10"
     inkscape:pageopacity="0"
     inkscape:pageshadow="2"
     inkscape:window-width="1850"
     inkscape:window-height="1048"
     id="namedview95"
     showgrid="false"
     showguides="true"
     inkscape:guide-bbox="true"
     inkscape:zoom="3.6875"
     inkscape:cx="18.474946"
     inkscape:cy="15.15641"
     inkscape:window-x="70"
     inkscape:window-y="32"
     inkscape:window-maximized="1"
     inkscape:current-layer="g89" />
  <defs
     id="defs19">
    <path
       d="M614.57 327.97C614.57 492.75 482.58 626.53 320 626.53C157.42 626.53 25.43 492.75 25.43 327.97C25.43 163.19 157.42 29.41 320 29.41C482.58 29.41 614.57 163.19 614.57 327.97Z"
       id="a2JtDBwiou" />
    <path
       d="M78.53 320C80.1 320 81.37 321.27 81.37 322.85C81.37 325.47 81.37 330.48 81.37 333.1C81.37 334.67 80.1 335.95 78.53 335.95C70.89 335.95 50.85 335.95 43.22 335.95C41.64 335.95 40.37 334.67 40.37 333.1C40.37 330.48 40.37 325.47 40.37 322.85C40.37 321.27 41.64 320 43.22 320C50.85 320 70.89 320 78.53 320Z"
       id="a1hPDTS6V0" />
    <path
       d="M599.7 320C601.27 320 602.55 321.27 602.55 322.85C602.55 325.47 602.55 330.48 602.55 333.1C602.55 334.67 601.27 335.95 599.7 335.95C592.07 335.95 572.02 335.95 564.39 335.95C562.82 335.95 561.54 334.67 561.54 333.1C561.54 330.48 561.54 325.47 561.54 322.85C561.54 321.27 562.82 320 564.39 320C572.02 320 592.07 320 599.7 320Z"
       id="b1ETBbOJrI" />
    <path
       d="M89.43 255.55C90.33 252.46 93.56 250.68 96.65 251.58C98.6 252.14 98.83 252.21 100.77 252.78C103.86 253.67 105.64 256.91 104.74 260C100.38 275 88.93 314.4 84.57 329.4C83.67 332.49 80.44 334.27 77.35 333.37C75.41 332.8 75.17 332.73 73.23 332.17C70.14 331.27 68.36 328.04 69.26 324.95C73.62 309.95 85.07 270.55 89.43 255.55Z"
       id="brFAMQQAL" />
    <path
       d="M559.37 331.56C560.17 334.68 563.35 336.56 566.47 335.76C568.43 335.26 568.66 335.2 570.62 334.7C573.74 333.9 575.62 330.72 574.82 327.6C570.94 312.47 560.75 272.73 556.88 257.6C556.08 254.48 552.9 252.6 549.78 253.4C547.82 253.9 547.59 253.96 545.63 254.46C542.51 255.26 540.63 258.44 541.43 261.56C545.31 276.69 555.49 316.43 559.37 331.56Z"
       id="alTIPMwxf" />
    <path
       d="M109.63 446.18C110.09 450.56 114.01 453.75 118.39 453.29C119.97 453.13 116.8 453.46 118.39 453.29C122.77 452.84 125.95 448.92 125.49 444.54C121.47 405.75 110.22 297.29 106.19 258.5C105.74 254.12 101.82 250.94 97.44 251.39C95.85 251.56 99.02 251.23 97.44 251.39C93.06 251.85 89.87 255.77 90.33 260.15C94.35 298.94 105.61 407.39 109.63 446.18Z"
       id="dlO6stWTA" />
    <path
       d="M542.2 260.53C542.57 256.15 546.43 252.89 550.82 253.25C552.41 253.39 549.23 253.12 550.82 253.25C555.2 253.62 558.46 257.48 558.1 261.86C554.84 300.73 545.74 409.38 542.48 448.25C542.11 452.64 538.26 455.9 533.87 455.53C532.28 455.4 535.46 455.66 533.87 455.53C529.48 455.16 526.22 451.31 526.59 446.92C529.84 408.05 538.95 299.4 542.2 260.53Z"
       id="b3wuCTHVyK" />
    <path
       d="M111.37 443.47C110.64 447.82 113.57 451.93 117.91 452.66C119.48 452.92 116.34 452.39 117.91 452.66C122.25 453.39 126.37 450.46 127.1 446.12C137.36 385.13 166.81 210.03 177.06 149.04C177.79 144.7 174.86 140.58 170.52 139.85C168.95 139.59 172.1 140.12 170.52 139.85C166.18 139.12 162.07 142.05 161.34 146.39C151.08 207.38 121.63 382.48 111.37 443.47Z"
       id="bGakHQz" />
    <path
       d="M1141.69 397.15C1140.96 401.49 1143.89 405.61 1148.23 406.34C1149.8 406.6 1146.66 406.07 1148.23 406.34C1152.57 407.07 1156.69 404.14 1157.42 399.8C1167.67 338.81 1197.12 163.71 1207.38 102.72C1208.11 98.37 1205.18 94.26 1200.84 93.53C1199.27 93.27 1202.41 93.8 1200.84 93.53C1196.5 92.8 1192.39 95.73 1191.66 100.07C1181.4 161.06 1151.95 336.16 1141.69 397.15Z"
       id="dyxydDl0" />
    <path
       d="M161.23 533.26C161.23 537.66 164.8 541.23 169.2 541.23C170.8 541.22 167.61 541.23 169.2 541.23C173.61 541.22 177.18 537.65 177.17 533.25C177.15 455.23 177.07 229.15 177.04 151.13C177.04 146.73 173.46 143.16 169.06 143.16C167.47 143.16 170.66 143.16 169.06 143.16C164.66 143.16 161.09 146.73 161.09 151.13C161.12 229.15 161.2 455.24 161.23 533.26Z"
       id="b97EdcVIw2" />
    <path
       d="M490.73 151.13C490.73 146.73 494.3 143.16 498.71 143.16C500.3 143.16 497.11 143.16 498.71 143.16C503.11 143.16 506.68 146.73 506.68 151.13C506.65 229.15 506.57 455.24 506.54 533.26C506.54 537.66 502.97 541.23 498.56 541.23C496.97 541.22 500.16 541.23 498.56 541.23C494.16 541.22 490.59 537.65 490.59 533.25C490.62 455.23 490.7 229.15 490.73 151.13Z"
       id="a9QgwdQNt" />
    <path
       d="M490.65 152.05C490.14 147.68 493.27 143.72 497.65 143.21C499.23 143.03 496.06 143.4 497.65 143.21C502.02 142.71 505.98 145.84 506.49 150.21C513.61 211.65 534.07 388.03 541.19 449.46C541.7 453.83 538.56 457.79 534.19 458.3C532.6 458.48 535.77 458.11 534.19 458.3C529.81 458.81 525.86 455.67 525.35 451.3C518.23 389.86 497.77 213.48 490.65 152.05Z"
       id="c2L0yEKUd5" />
    <path
       d="M157.18 529.05C156.14 538.55 163 547.09 172.49 548.13C175.93 548.51 169.06 547.76 172.49 548.13C181.99 549.18 190.53 542.32 191.58 532.82C201.21 445.01 228.21 198.76 237.84 110.95C238.88 101.45 232.03 92.91 222.53 91.87C219.09 91.49 225.97 92.24 222.53 91.87C213.03 90.82 204.49 97.68 203.45 107.18C193.82 194.99 166.81 441.24 157.18 529.05Z"
       id="e1EidNRLEu" />
    <path
       d="M424.96 119.02C423.89 109.53 430.72 100.97 440.22 99.9C443.66 99.52 436.78 100.29 440.22 99.9C449.71 98.84 458.27 105.67 459.34 115.16C469.19 202.95 496.82 449.13 506.67 536.92C507.74 546.42 500.9 554.98 491.41 556.04C487.97 556.43 494.85 555.66 491.41 556.04C481.92 557.11 473.35 550.28 472.29 540.78C462.44 452.99 434.81 206.81 424.96 119.02Z"
       id="e3ITYWrv87" />
    <path
       d="M319.81 351.98L351.4 366.1C408.65 238.02 444.44 157.97 458.75 125.95C462.65 117.23 458.74 106.99 450.02 103.09C446.86 101.68 453.18 104.51 450.02 103.09C441.3 99.2 431.07 103.11 427.17 111.83C412.85 143.85 377.07 223.9 319.81 351.98Z"
       id="a2jQpEHila" />
    <path
       d="M315.92 366.1C258.67 238.02 222.88 157.97 208.57 125.95C204.67 117.23 208.58 106.99 217.3 103.09C220.46 101.68 214.14 104.51 217.3 103.09C226.02 99.2 236.25 103.11 240.14 111.83C254.46 143.9 290.25 224.07 347.51 352.34L315.92 366.1Z"
       id="a5Sn6Ln2gO" />
    <path
       d="M356.01 352.34C356.01 363.73 346 372.98 333.67 372.98C321.34 372.98 311.32 363.73 311.32 352.34C311.32 340.95 321.34 331.71 333.67 331.71C346 331.71 356.01 340.95 356.01 352.34Z"
       id="e2Z63t61Bj" />
    <mask
       maskUnits="userSpaceOnUse"
       id="mask1217">
      <g
         style="fill:#ffffff;fill-opacity:1"
         id="g1221"
         transform="matrix(0.87253546,0.01397487,-0.01219477,0.99990234,52.096429,-69.500734)">
        <use
           style="opacity:1;fill:#ffffff;fill-opacity:1"
           id="use1219"
           xlink:href="#a2JtDBwiou"
           x="0"
           y="0"
           width="100%"
           height="100%" />
      </g>
    </mask>
    <mask
       maskUnits="userSpaceOnUse"
       id="mask1223">
      <g
         style="fill:#ffffff;fill-opacity:1"
         id="g1227"
         transform="matrix(0.87253546,0.01397487,-0.00934554,0.76628137,46.734354,35.868088)">
        <use
           style="opacity:1;fill:#ffffff;fill-opacity:1"
           id="use1225"
           xlink:href="#a2JtDBwiou"
           x="0"
           y="0"
           width="100%"
           height="100%" />
      </g>
    </mask>
    <mask
       maskUnits="userSpaceOnUse"
       id="mask1229">
      <g
         style="fill:#ffffff;fill-opacity:1"
         id="g1233"
         transform="matrix(0.87253546,0.01397487,-0.00748951,0.61409772,50.179283,87.694499)">
        <use
           style="opacity:1;fill:#ffffff;fill-opacity:1"
           id="use1231"
           xlink:href="#a2JtDBwiou"
           x="0"
           y="0"
           width="100%"
           height="100%" />
      </g>
    </mask>
    <mask
       maskUnits="userSpaceOnUse"
       id="mask1235">
      <g
         style="fill:#ffffff;fill-opacity:1"
         id="g1239">
        <use
           style="opacity:1;fill:#ffffff;fill-opacity:1"
           id="use1237"
           xlink:href="#a2JtDBwiou"
           x="0"
           y="0"
           width="100%"
           height="100%" />
      </g>
    </mask>
  </defs>
  <g
     id="g91">
    <g
       id="g89">
      <g
         id="g23"
         style="fill:#5588b7;fill-opacity:1;stroke:none;stroke-opacity:1;stroke-width:43;stroke-miterlimit:4;stroke-dasharray:none"
         mask="url(#mask1235)">
        <use
           xlink:href="#a2JtDBwiou"
           id="use21"
           style="fill:#5588b7;fill-opacity:1;stroke:none;stroke-opacity:1;stroke-width:43;stroke-miterlimit:4;stroke-dasharray:none"
           fill-opacity="1"
           fill="#d773b4"
           opacity="1" />
      </g>
      <g
         id="g972"
         transform="matrix(1.1458614,-0.02607609,0.01397488,1.6280873,-58.724023,-141.46582)"
         style="fill:#7fa7cf;fill-opacity:1"
         mask="url(#mask1229)">
        <g
           transform="matrix(0.91131484,0,0,0.73986036,32.809169,82.191832)"
           style="fill:#7fa7cf;fill-opacity:1"
           id="g27">
          <use
             height="100%"
             width="100%"
             y="0"
             x="0"
             style="opacity:1;fill:#7fa7cf;fill-opacity:1"
             id="use25"
             xlink:href="#a1hPDTS6V0" />
        </g>
        <g
           transform="matrix(0.91131484,0,0,0.73986036,32.809169,82.191832)"
           style="fill:#7fa7cf;fill-opacity:1"
           id="g31">
          <use
             height="100%"
             width="100%"
             y="0"
             x="0"
             style="opacity:1;fill:#7fa7cf;fill-opacity:1"
             id="use29"
             xlink:href="#b1ETBbOJrI" />
        </g>
        <g
           transform="matrix(0.91131484,0,0,0.73986036,32.809169,82.191832)"
           style="fill:#7fa7cf;fill-opacity:1"
           id="g35">
          <use
             height="100%"
             width="100%"
             y="0"
             x="0"
             style="opacity:1;fill:#7fa7cf;fill-opacity:1"
             id="use33"
             xlink:href="#brFAMQQAL" />
        </g>
        <g
           transform="matrix(0.91131484,0,0,0.73986036,32.809169,82.191832)"
           style="fill:#7fa7cf;fill-opacity:1"
           id="g39">
          <use
             height="100%"
             width="100%"
             y="0"
             x="0"
             style="opacity:1;fill:#7fa7cf;fill-opacity:1"
             id="use37"
             xlink:href="#alTIPMwxf" />
        </g>
        <g
           transform="matrix(0.91131484,0,0,0.73986036,32.809169,82.191832)"
           style="fill:#7fa7cf;fill-opacity:1"
           id="g43">
          <use
             height="100%"
             width="100%"
             y="0"
             x="0"
             style="opacity:1;fill:#7fa7cf;fill-opacity:1"
             id="use41"
             xlink:href="#dlO6stWTA" />
        </g>
        <g
           transform="matrix(0.91131484,0,0,0.73986036,32.809169,82.191832)"
           style="fill:#7fa7cf;fill-opacity:1"
           id="g47">
          <use
             height="100%"
             width="100%"
             y="0"
             x="0"
             style="opacity:1;fill:#7fa7cf;fill-opacity:1"
             id="use45"
             xlink:href="#b3wuCTHVyK" />
        </g>
        <g
           transform="matrix(0.91131484,0,0,0.73986036,32.809169,82.191832)"
           style="fill:#7fa7cf;fill-opacity:1"
           id="g51">
          <use
             height="100%"
             width="100%"
             y="0"
             x="0"
             style="opacity:1;fill:#7fa7cf;fill-opacity:1"
             id="use49"
             xlink:href="#bGakHQz" />
        </g>
        <g
           transform="matrix(0.91131484,0,0,0.73986036,32.809169,82.191832)"
           style="fill:#7fa7cf;fill-opacity:1"
           id="g59">
          <use
             height="100%"
             width="100%"
             y="0"
             x="0"
             style="opacity:1;fill:#7fa7cf;fill-opacity:1"
             id="use57"
             xlink:href="#b97EdcVIw2" />
        </g>
        <g
           transform="matrix(0.91131484,0,0,0.73986036,32.809169,82.191832)"
           style="fill:#7fa7cf;fill-opacity:1"
           id="g63">
          <use
             height="100%"
             width="100%"
             y="0"
             x="0"
             style="opacity:1;fill:#7fa7cf;fill-opacity:1"
             id="use61"
             xlink:href="#a9QgwdQNt" />
        </g>
        <g
           transform="matrix(0.91131484,0,0,0.73986036,32.809169,82.191832)"
           style="fill:#7fa7cf;fill-opacity:1"
           id="g67">
          <use
             height="100%"
             width="100%"
             y="0"
             x="0"
             style="opacity:1;fill:#7fa7cf;fill-opacity:1"
             id="use65"
             xlink:href="#c2L0yEKUd5" />
        </g>
        <g
           transform="matrix(0.91131484,0,0,0.73986036,32.809169,82.191832)"
           style="fill:#7fa7cf;fill-opacity:1"
           id="g71">
          <use
             height="100%"
             width="100%"
             y="0"
             x="0"
             style="opacity:1;fill:#7fa7cf;fill-opacity:1"
             id="use69"
             xlink:href="#e1EidNRLEu" />
        </g>
        <g
           transform="matrix(0.91131484,0,0,0.73986036,32.809169,82.191832)"
           style="fill:#7fa7cf;fill-opacity:1"
           id="g75">
          <use
             height="100%"
             width="100%"
             y="0"
             x="0"
             style="opacity:1;fill:#7fa7cf;fill-opacity:1"
             id="use73"
             xlink:href="#e3ITYWrv87" />
        </g>
        <g
           transform="matrix(0.91131484,0,0,0.73986036,32.809169,82.191832)"
           style="fill:#7fa7cf;fill-opacity:1"
           id="g79">
          <use
             height="100%"
             width="100%"
             y="0"
             x="0"
             style="opacity:1;fill:#7fa7cf;fill-opacity:1"
             id="use77"
             xlink:href="#a2jQpEHila" />
        </g>
        <g
           transform="matrix(0.91131484,0,0,0.73986036,32.809169,82.191832)"
           style="fill:#7fa7cf;fill-opacity:1"
           id="g83">
          <use
             height="100%"
             width="100%"
             y="0"
             x="0"
             style="opacity:1;fill:#7fa7cf;fill-opacity:1"
             id="use81"
             xlink:href="#a5Sn6Ln2gO" />
        </g>
        <g
           transform="matrix(0.91131484,0,0,0.73986036,32.809169,82.191832)"
           style="fill:#7fa7cf;fill-opacity:1"
           id="g87">
          <use
             height="100%"
             width="100%"
             y="0"
             x="0"
             style="opacity:1;fill:#7fa7cf;fill-opacity:1"
             id="use85"
             xlink:href="#e2Z63t61Bj" />
        </g>
      </g>
      <g
         style="fill:#b1d3f4;fill-opacity:1"
         transform="matrix(1.1458614,-0.02089737,0.01397488,1.3047488,-54.052345,-45.82222)"
         id="g954"
         mask="url(#mask1223)">
        <g
           id="g896"
           style="fill:#b1d3f4;fill-opacity:1"
           transform="matrix(0.91131484,0,0,0.73986036,32.809169,82.191832)">
          <use
             xlink:href="#a1hPDTS6V0"
             id="use894"
             style="opacity:1;fill:#b1d3f4;fill-opacity:1"
             x="0"
             y="0"
             width="100%"
             height="100%" />
        </g>
        <g
           id="g900"
           style="fill:#b1d3f4;fill-opacity:1"
           transform="matrix(0.91131484,0,0,0.73986036,32.809169,82.191832)">
          <use
             xlink:href="#b1ETBbOJrI"
             id="use898"
             style="opacity:1;fill:#b1d3f4;fill-opacity:1"
             x="0"
             y="0"
             width="100%"
             height="100%" />
        </g>
        <g
           id="g904"
           style="fill:#b1d3f4;fill-opacity:1"
           transform="matrix(0.91131484,0,0,0.73986036,32.809169,82.191832)">
          <use
             xlink:href="#brFAMQQAL"
             id="use902"
             style="opacity:1;fill:#b1d3f4;fill-opacity:1"
             x="0"
             y="0"
             width="100%"
             height="100%" />
        </g>
        <g
           id="g908"
           style="fill:#b1d3f4;fill-opacity:1"
           transform="matrix(0.91131484,0,0,0.73986036,32.809169,82.191832)">
          <use
             xlink:href="#alTIPMwxf"
             id="use906"
             style="opacity:1;fill:#b1d3f4;fill-opacity:1"
             x="0"
             y="0"
             width="100%"
             height="100%" />
        </g>
        <g
           id="g912"
           style="fill:#b1d3f4;fill-opacity:1"
           transform="matrix(0.91131484,0,0,0.73986036,32.809169,82.191832)">
          <use
             xlink:href="#dlO6stWTA"
             id="use910"
             style="opacity:1;fill:#b1d3f4;fill-opacity:1"
             x="0"
             y="0"
             width="100%"
             height="100%" />
        </g>
        <g
           id="g916"
           style="fill:#b1d3f4;fill-opacity:1"
           transform="matrix(0.91131484,0,0,0.73986036,32.809169,82.191832)">
          <use
             xlink:href="#b3wuCTHVyK"
             id="use914"
             style="opacity:1;fill:#b1d3f4;fill-opacity:1"
             x="0"
             y="0"
             width="100%"
             height="100%" />
        </g>
        <g
           id="g920"
           style="fill:#b1d3f4;fill-opacity:1"
           transform="matrix(0.91131484,0,0,0.73986036,32.809169,82.191832)">
          <use
             xlink:href="#bGakHQz"
             id="use918"
             style="opacity:1;fill:#b1d3f4;fill-opacity:1"
             x="0"
             y="0"
             width="100%"
             height="100%" />
        </g>
        <g
           id="g924"
           style="fill:#b1d3f4;fill-opacity:1"
           transform="matrix(0.91131484,0,0,0.73986036,32.809169,82.191832)">
          <use
             xlink:href="#b97EdcVIw2"
             id="use922"
             style="opacity:1;fill:#b1d3f4;fill-opacity:1"
             x="0"
             y="0"
             width="100%"
             height="100%" />
        </g>
        <g
           id="g928"
           style="fill:#b1d3f4;fill-opacity:1"
           transform="matrix(0.91131484,0,0,0.73986036,32.809169,82.191832)">
          <use
             xlink:href="#a9QgwdQNt"
             id="use926"
             style="opacity:1;fill:#b1d3f4;fill-opacity:1"
             x="0"
             y="0"
             width="100%"
             height="100%" />
        </g>
        <g
           id="g932"
           style="fill:#b1d3f4;fill-opacity:1"
           transform="matrix(0.91131484,0,0,0.73986036,32.809169,82.191832)">
          <use
             xlink:href="#c2L0yEKUd5"
             id="use930"
             style="opacity:1;fill:#b1d3f4;fill-opacity:1"
             x="0"
             y="0"
             width="100%"
             height="100%" />
        </g>
        <g
           id="g936"
           style="fill:#b1d3f4;fill-opacity:1"
           transform="matrix(0.91131484,0,0,0.73986036,32.809169,82.191832)">
          <use
             xlink:href="#e1EidNRLEu"
             id="use934"
             style="opacity:1;fill:#b1d3f4;fill-opacity:1"
             x="0"
             y="0"
             width="100%"
             height="100%" />
        </g>
        <g
           id="g940"
           style="fill:#b1d3f4;fill-opacity:1"
           transform="matrix(0.91131484,0,0,0.73986036,32.809169,82.191832)">
          <use
             xlink:href="#e3ITYWrv87"
             id="use938"
             style="opacity:1;fill:#b1d3f4;fill-opacity:1"
             x="0"
             y="0"
             width="100%"
             height="100%" />
        </g>
        <g
           id="g944"
           style="fill:#b1d3f4;fill-opacity:1"
           transform="matrix(0.91131484,0,0,0.73986036,32.809169,82.191832)">
          <use
             xlink:href="#a2jQpEHila"
             id="use942"
             style="opacity:1;fill:#b1d3f4;fill-opacity:1"
             x="0"
             y="0"
             width="100%"
             height="100%" />
        </g>
        <g
           id="g948"
           style="fill:#b1d3f4;fill-opacity:1"
           transform="matrix(0.91131484,0,0,0.73986036,32.809169,82.191832)">
          <use
             xlink:href="#a5Sn6Ln2gO"
             id="use946"
             style="opacity:1;fill:#b1d3f4;fill-opacity:1"
             x="0"
             y="0"
             width="100%"
             height="100%" />
        </g>
        <g
           id="g952"
           style="fill:#b1d3f4;fill-opacity:1"
           transform="matrix(0.91131484,0,0,0.73986036,32.809169,82.191832)">
          <use
             xlink:href="#e2Z63t61Bj"
             id="use950"
             style="opacity:1;fill:#b1d3f4;fill-opacity:1"
             x="0"
             y="0"
             width="100%"
             height="100%" />
        </g>
      </g>
      <g
         transform="matrix(1.172057,-0.01655212,0.01429436,1.0334486,-66.402511,65.419707)"
         id="g1196"
         style="fill:#ffffff;fill-opacity:1"
         mask="url(#mask1217)">
        <g
           id="g1138"
           style="fill:#ffffff;fill-opacity:1"
           transform="matrix(0.91131484,0,0,0.73986036,32.809169,82.191832)">
          <use
             xlink:href="#a1hPDTS6V0"
             id="use1136"
             style="opacity:1;fill:#ffffff;fill-opacity:1"
             x="0"
             y="0"
             width="100%"
             height="100%" />
        </g>
        <g
           id="g1142"
           style="fill:#ffffff;fill-opacity:1"
           transform="matrix(0.91131484,0,0,0.73986036,32.809169,82.191832)">
          <use
             xlink:href="#b1ETBbOJrI"
             id="use1140"
             style="opacity:1;fill:#ffffff;fill-opacity:1"
             x="0"
             y="0"
             width="100%"
             height="100%" />
        </g>
        <g
           id="g1146"
           style="fill:#ffffff;fill-opacity:1"
           transform="matrix(0.91131484,0,0,0.73986036,32.809169,82.191832)">
          <use
             xlink:href="#brFAMQQAL"
             id="use1144"
             style="opacity:1;fill:#ffffff;fill-opacity:1"
             x="0"
             y="0"
             width="100%"
             height="100%" />
        </g>
        <g
           id="g1150"
           style="fill:#ffffff;fill-opacity:1"
           transform="matrix(0.91131484,0,0,0.73986036,32.809169,82.191832)">
          <use
             xlink:href="#alTIPMwxf"
             id="use1148"
             style="opacity:1;fill:#ffffff;fill-opacity:1"
             x="0"
             y="0"
             width="100%"
             height="100%" />
        </g>
        <g
           id="g1154"
           style="fill:#ffffff;fill-opacity:1"
           transform="matrix(0.91131484,0,0,0.73986036,32.809169,82.191832)">
          <use
             xlink:href="#dlO6stWTA"
             id="use1152"
             style="opacity:1;fill:#ffffff;fill-opacity:1"
             x="0"
             y="0"
             width="100%"
             height="100%" />
        </g>
        <g
           id="g1158"
           style="fill:#ffffff;fill-opacity:1"
           transform="matrix(0.91131484,0,0,0.73986036,32.809169,82.191832)">
          <use
             xlink:href="#b3wuCTHVyK"
             id="use1156"
             style="opacity:1;fill:#ffffff;fill-opacity:1"
             x="0"
             y="0"
             width="100%"
             height="100%" />
        </g>
        <g
           id="g1162"
           style="fill:#ffffff;fill-opacity:1"
           transform="matrix(0.91131484,0,0,0.73986036,32.809169,82.191832)">
          <use
             xlink:href="#bGakHQz"
             id="use1160"
             style="opacity:1;fill:#ffffff;fill-opacity:1"
             x="0"
             y="0"
             width="100%"
             height="100%" />
        </g>
        <g
           id="g1166"
           style="fill:#ffffff;fill-opacity:1"
           transform="matrix(0.91131484,0,0,0.73986036,32.809169,82.191832)">
          <use
             xlink:href="#b97EdcVIw2"
             id="use1164"
             style="opacity:1;fill:#ffffff;fill-opacity:1"
             x="0"
             y="0"
             width="100%"
             height="100%" />
        </g>
        <g
           id="g1170"
           style="fill:#ffffff;fill-opacity:1"
           transform="matrix(0.91131484,0,0,0.73986036,32.809169,82.191832)">
          <use
             xlink:href="#a9QgwdQNt"
             id="use1168"
             style="opacity:1;fill:#ffffff;fill-opacity:1"
             x="0"
             y="0"
             width="100%"
             height="100%" />
        </g>
        <g
           id="g1174"
           style="fill:#ffffff;fill-opacity:1"
           transform="matrix(0.91131484,0,0,0.73986036,32.809169,82.191832)">
          <use
             xlink:href="#c2L0yEKUd5"
             id="use1172"
             style="opacity:1;fill:#ffffff;fill-opacity:1"
             x="0"
             y="0"
             width="100%"
             height="100%" />
        </g>
        <g
           id="g1178"
           style="fill:#ffffff;fill-opacity:1"
           transform="matrix(0.91131484,0,0,0.73986036,32.809169,82.191832)">
          <use
             xlink:href="#e1EidNRLEu"
             id="use1176"
             style="opacity:1;fill:#ffffff;fill-opacity:1"
             x="0"
             y="0"
             width="100%"
             height="100%" />
        </g>
        <g
           id="g1182"
           style="fill:#ffffff;fill-opacity:1"
           transform="matrix(0.91131484,0,0,0.73986036,32.809169,82.191832)">
          <use
             xlink:href="#e3ITYWrv87"
             id="use1180"
             style="opacity:1;fill:#ffffff;fill-opacity:1"
             x="0"
             y="0"
             width="100%"
             height="100%" />
        </g>
        <g
           id="g1186"
           style="fill:#ffffff;fill-opacity:1"
           transform="matrix(0.91131484,0,0,0.73986036,32.809169,82.191832)">
          <use
             xlink:href="#a2jQpEHila"
             id="use1184"
             style="opacity:1;fill:#ffffff;fill-opacity:1"
             x="0"
             y="0"
             width="100%"
             height="100%" />
        </g>
        <g
           id="g1190"
           style="fill:#ffffff;fill-opacity:1"
           transform="matrix(0.91131484,0,0,0.73986036,32.809169,82.191832)">
          <use
             xlink:href="#a5Sn6Ln2gO"
             id="use1188"
             style="opacity:1;fill:#ffffff;fill-opacity:1"
             x="0"
             y="0"
             width="100%"
             height="100%" />
        </g>
        <g
           id="g1194"
           style="fill:#ffffff;fill-opacity:1"
           transform="matrix(0.91131484,0,0,0.73986036,32.809169,82.191832)">
          <use
             xlink:href="#e2Z63t61Bj"
             id="use1192"
             style="opacity:1;fill:#ffffff;fill-opacity:1"
             x="0"
             y="0"
             width="100%"
             height="100%" />
        </g>
      </g>
      <g
         mask="url(#mask1235)"
         style="fill:none;fill-opacity:1;stroke:#b1d3f4;stroke-opacity:1;stroke-width:43;stroke-miterlimit:4;stroke-dasharray:none"
         id="g1251">
        <use
           opacity="1"
           fill="#d773b4"
           fill-opacity="1"
           style="fill:none;fill-opacity:1;stroke:#b1d3f4;stroke-opacity:1;stroke-width:43;stroke-miterlimit:4;stroke-dasharray:none"
           id="use1249"
           xlink:href="#a2JtDBwiou" />
      </g>
    </g>
  </g>
</svg>
