<?xml version="1.0" encoding="UTF-8" standalone="no"?>
<!DOCTYPE svg PUBLIC "-//W3C//DTD SVG 1.1//EN" "http://www.w3.org/Graphics/SVG/1.1/DTD/svg11.dtd">
<svg version="1.1" xmlns="http://www.w3.org/2000/svg" xmlns:xlink="http://www.w3.org/1999/xlink" preserveAspectRatio="xMidYMid meet" viewBox="0 0 640 640" width="64" height="64"><defs><path d="M593.69 317.19C593.69 473.2 467.53 599.87 312.13 599.87C156.74 599.87 30.58 473.2 30.58 317.19C30.58 161.18 156.74 34.51 312.13 34.51C467.53 34.51 593.69 161.18 593.69 317.19Z" id="b7IiPo7Mi"></path><path d="M187.09 358.94L54.18 102.28L320.01 102.28L585.82 102.28L452.92 358.94L320.01 615.6L187.09 358.94Z" id="a1yeOdm8so"></path><path d="M237.75 154.55C332.01 154.55 384.37 154.55 394.84 154.55C394.84 154.55 462.78 163.72 460.14 227.66C460.14 227.66 464.6 266.84 413.15 296.24C404.8 301 396.1 303.18 384.59 307.23C382.4 307.39 371.43 308.22 351.68 309.72L313.93 309.97L305.94 265.83L346.47 266.19C352.55 266.25 355.93 266.29 356.6 266.3C356.6 266.3 361.91 265.24 368.83 262.59C381.42 257.78 399.13 247.6 399.31 228.58C399.31 228.58 398.41 195.47 361.1 195.47C323.79 195.47 291.16 194.53 291.16 194.53C290.18 208.6 285.24 278.98 276.35 405.65L220.2 405.65L237.75 154.55Z" id="cHa3CygSc"></path></defs><g><g><g><use xlink:href="#b7IiPo7Mi" opacity="1" fill="#c6cadb" fill-opacity="1"></use></g><g><use xlink:href="#a1yeOdm8so" opacity="1" fill="#97a3d1" fill-opacity="1"></use></g><g><use xlink:href="#cHa3CygSc" opacity="1" fill="#fefefe" fill-opacity="1"></use><g><use xlink:href="#cHa3CygSc" opacity="1" fill-opacity="0" stroke="#000000" stroke-width="1" stroke-opacity="0"></use></g></g></g></g></svg>