<?xml version="1.0" encoding="UTF-8" standalone="no"?>
<svg
   xmlns:dc="http://purl.org/dc/elements/1.1/"
   xmlns:cc="http://creativecommons.org/ns#"
   xmlns:rdf="http://www.w3.org/1999/02/22-rdf-syntax-ns#"
   xmlns:svg="http://www.w3.org/2000/svg"
   xmlns="http://www.w3.org/2000/svg"
   xmlns:sodipodi="http://sodipodi.sourceforge.net/DTD/sodipodi-0.dtd"
   xmlns:inkscape="http://www.inkscape.org/namespaces/inkscape"
   width="100%"
   height="100%"
   viewBox="0 0 2048 2048"
   version="1.1"
   xml:space="preserve"
   style="fill-rule:evenodd;clip-rule:evenodd;stroke-linejoin:round;stroke-miterlimit:2;"
   id="svg39"
   sodipodi:docname="Qalculate.svg"
   inkscape:version="0.92.4 5da689c313, 2019-01-14"><metadata
   id="metadata45"><rdf:RDF><cc:Work
       rdf:about=""><dc:format>image/svg+xml</dc:format><dc:type
         rdf:resource="http://purl.org/dc/dcmitype/StillImage" /></cc:Work></rdf:RDF></metadata><defs
   id="defs43" /><sodipodi:namedview
   pagecolor="#ffffff"
   bordercolor="#666666"
   borderopacity="1"
   objecttolerance="10"
   gridtolerance="10"
   guidetolerance="10"
   inkscape:pageopacity="0"
   inkscape:pageshadow="2"
   inkscape:window-width="1850"
   inkscape:window-height="1048"
   id="namedview41"
   showgrid="false"
   inkscape:zoom="0.11523438"
   inkscape:cx="1024"
   inkscape:cy="1024"
   inkscape:window-x="70"
   inkscape:window-y="32"
   inkscape:window-maximized="1"
   inkscape:current-layer="svg39" />
    <g
   transform="matrix(1.4069467,0,0,1.4069467,-210.58137,-1029.972)"
   id="g4">
        <circle
   cx="883.401"
   cy="1457.88"
   r="704.91101"
   style="fill:#ebebeb"
   id="circle2" />
    </g>
    <g
   transform="matrix(1.0522429,0,0,1.0522429,-201.57268,-270.60626)"
   id="g8">
        <text
   x="587.67499"
   y="1608.4399"
   style="font-size:1500px;font-family:AcademyEngravedLetPlain, 'Academy Engraved LET';fill:#d09cb8"
   id="text6">Q</text>

    </g>
    <g
   id="Layer1"
   transform="matrix(1.2519547,0,0,1.2519547,-292.69032,-224.69971)">
        <g
   transform="matrix(1,0,0,1.00306,0,-1.43049)"
   id="g12">
            <path
   d="m 977.924,476.722 c 20.745,-6.096 42.276,-9.305 64.346,-9.305 17.33,0 34.32,1.979 50.89,5.785 212.19,22.374 377.76,202.084 377.76,420.162 0,229.296 -183.04,416.176 -410.86,422.346 -5.91,0.47 -11.83,0.7 -17.79,0.7 -10.62,0 -21.11,-0.74 -31.48,-2.19 -215.6,-19.08 -384.882,-200.35 -384.882,-420.856 0,-209.17 152.328,-383.043 352.016,-416.642 z m 115.236,-3.52 c -14.71,-1.551 -29.63,-2.346 -44.74,-2.346 -24.02,0 -47.57,2.009 -70.496,5.866 -139.057,40.855 -243.482,211.34 -243.482,415.193 0,219.645 121.229,400.545 276.348,422.305 12.39,1.09 24.94,1.65 37.63,1.65 3.89,0 7.77,-0.05 11.64,-0.16 161.61,-12.7 290.03,-197.73 290.03,-423.795 0,-210.39 -111.23,-385.237 -256.93,-418.713 z"
   style="fill:#d09cb8"
   id="path10"
   inkscape:connector-curvature="0" />
        </g>
        <path
   d="m 772.713,1383.05 49.484,-53.55 83.647,-26.68 78.576,34.46 95.96,58.59 155.66,63.63 123.7,8.14 64.15,-43.96 36.42,-36.19 2.56,20.43 -50.55,90.34 -80.84,54.15 -113.41,7.83 -180.75,-105.63 -140.622,-99.17 -53.79,-6.03 z"
   style="fill:#d09cb8"
   id="path14"
   inkscape:connector-curvature="0" />
    </g>
    <g
   transform="matrix(1.2519547,0,0,1.2519547,-9.3817318,347.92934)"
   id="g19">
        <text
   x="858.13898"
   y="309.89499"
   style="font-size:220px;font-family:Thonburi;fill:#d09cb8"
   id="text17">€</text>

    </g>
    <g
   transform="matrix(1.2519547,0,0,1.2519547,-278.88727,442.47321)"
   id="g23">
        <text
   x="858.13898"
   y="309.89499"
   style="font-size:220px;font-family:Thonburi;fill:#d09cb8"
   id="text21">=</text>

    </g>
    <g
   transform="matrix(1.2519547,0,0,1.2519547,-290.84546,810.19984)"
   id="g29">
        <text
   x="858.13898"
   y="309.89499"
   style="font-size:160px;font-family:Thonburi;fill:#d09cb8"
   id="text25">f</text>

        <text
   x="920.57703"
   y="309.89499"
   style="font-size:140px;font-family:Thonburi;fill:#d09cb8"
   id="text27">x</text>

    </g>
    <g
   transform="matrix(1.2519547,0,0,1.2519547,-100.23859,668.06543)"
   id="g37">
        <text
   x="858.13898"
   y="309.89499"
   style="font-size:140px;font-family:Thonburi;fill:#d09cb8"
   id="text31">1</text>

        <text
   x="928.72998"
   y="309.89499"
   style="font-size:140px;font-family:Thonburi;fill:#d09cb8"
   id="text35">2<tspan
   x="1016.34"
   y="309.89499"
   id="tspan33">3</tspan></text>

    </g>
</svg>