<?xml version="1.0" encoding="UTF-8" standalone="no"?>
<svg
   xmlns:dc="http://purl.org/dc/elements/1.1/"
   xmlns:cc="http://creativecommons.org/ns#"
   xmlns:rdf="http://www.w3.org/1999/02/22-rdf-syntax-ns#"
   xmlns:svg="http://www.w3.org/2000/svg"
   xmlns="http://www.w3.org/2000/svg"
   xmlns:xlink="http://www.w3.org/1999/xlink"
   xmlns:sodipodi="http://sodipodi.sourceforge.net/DTD/sodipodi-0.dtd"
   xmlns:inkscape="http://www.inkscape.org/namespaces/inkscape"
   version="1.1"
   preserveAspectRatio="xMidYMid meet"
   viewBox="0 0 640 640"
   width="64"
   height="64"
   id="svg182"
   sodipodi:docname="qcad_icon.svg"
   inkscape:version="0.92.4 5da689c313, 2019-01-14">
  <metadata
     id="metadata186">
    <rdf:RDF>
      <cc:Work
         rdf:about="">
        <dc:format>image/svg+xml</dc:format>
        <dc:type
           rdf:resource="http://purl.org/dc/dcmitype/StillImage" />
      </cc:Work>
    </rdf:RDF>
  </metadata>
  <sodipodi:namedview
     pagecolor="#ffffff"
     bordercolor="#666666"
     borderopacity="1"
     objecttolerance="10"
     gridtolerance="10"
     guidetolerance="10"
     inkscape:pageopacity="0"
     inkscape:pageshadow="2"
     inkscape:window-width="1850"
     inkscape:window-height="1048"
     id="namedview184"
     showgrid="false"
     inkscape:zoom="3.6875"
     inkscape:cx="17.036807"
     inkscape:cy="9.7754685"
     inkscape:window-x="70"
     inkscape:window-y="32"
     inkscape:window-maximized="1"
     inkscape:current-layer="g178" />
  <defs
     id="defs32">
    <path
       d="M18.21 13.14L624.03 13.14L624.03 623.47L18.21 623.47L18.21 13.14Z"
       id="aqRUiNRPU" />
    <path
       d="M592.56 320.56C592.56 472.23 471.19 595.37 321.69 595.37C172.19 595.37 50.81 472.23 50.81 320.56C50.81 168.89 172.19 45.75 321.69 45.75C471.19 45.75 592.56 168.89 592.56 320.56Z"
       id="fLvwY7IxB" />
    <path
       d="M560.53 320C560.53 456.78 452.75 567.83 320 567.83C187.25 567.83 79.47 456.78 79.47 320C79.47 183.22 187.25 72.17 320 72.17C452.75 72.17 560.53 183.22 560.53 320Z"
       id="ftWRL4vFh" />
    <path
       d="M80.49 295.27L559.55 295.27L559.55 300.89L80.49 300.89L80.49 295.27Z"
       id="b2Eadil8A" />
    <path
       d="M91.25 396.2L549.04 396.2L547.38 401.82L93.25 401.82L91.25 396.2Z"
       id="a4ihTwkUxP" />
    <path
       d="M200.9 535.51L334.92 72.17L341.79 73.17L206.43 538.5L200.9 535.51Z"
       id="a1I8R9rpMt" />
    <path
       d="M274.92 563.53L411.57 91.12L418.44 93.1L281.79 565.51L274.92 563.53Z"
       id="lH7nhn5VG" />
    <path
       d="M228.88 300.89L418.44 300.89L418.44 396.2L228.88 396.2L228.88 300.89Z"
       id="b7Iih3YRB" />
    <path
       d="M114.04 345.05L137.04 345.05L137.04 352.05L114.04 352.05L114.04 345.05Z"
       id="ejYF6Htps" />
    <path
       d="M168.04 345.05L191.04 345.05L191.04 352.05L168.04 352.05L168.04 345.05Z"
       id="b5wO0y0UT" />
    <path
       d="M226.04 345.05L249.04 345.05L249.04 352.05L226.04 352.05L226.04 345.05Z"
       id="aM7gKWYaJ" />
    <path
       d="M266.04 365.05L269.04 365.05L269.04 365.96L266.04 365.96L266.04 365.05Z"
       id="cyfKwxeok" />
    <path
       d="M286.04 345.05L309.04 345.05L309.04 352.05L286.04 352.05L286.04 345.05Z"
       id="gv0iSzJtE" />
    <path
       d="M341.79 345.05L364.79 345.05L364.79 352.05L341.79 352.05L341.79 345.05Z"
       id="aabCsYDXkz" />
    <path
       d="M400.79 345.05L423.79 345.05L423.79 352.05L400.79 352.05L400.79 345.05Z"
       id="euL9Jw70p" />
    <path
       d="M465.79 345.05L488.79 345.05L488.79 352.05L465.79 352.05L465.79 345.05Z"
       id="a2xcOJB0t0" />
    <path
       d="M519.79 345.05L542.79 345.05L542.79 352.05L519.79 352.05L519.79 345.05Z"
       id="a1iBERYcGw" />
    <path
       d="M361.94 123.5L368.73 101.52L375.42 103.59L368.63 125.57L361.94 123.5Z"
       id="cWwPAaMah" />
    <path
       d="M346.55 178.5L353.34 156.52L360.03 158.59L353.23 180.57L346.55 178.5Z"
       id="g16bdibaOi" />
    <path
       d="M328.31 235.5L335.1 213.52L341.79 215.59L334.99 237.57L328.31 235.5Z"
       id="f5ejfEGUiP" />
    <path
       d="M313.28 287.5L320.07 265.52L326.76 267.59L319.96 289.57L313.28 287.5Z"
       id="fcCCl71wJ" />
    <path
       d="M269.04 443.5L275.84 421.52L282.53 423.59L275.73 445.57L269.04 443.5Z"
       id="aKA948lvS" />
    <path
       d="M255.56 492.5L262.36 470.52L269.04 472.59L262.25 494.57L255.56 492.5Z"
       id="cZ9kX5VQB" />
    <path
       d="M239.56 542.5L246.36 520.52L253.04 522.59L246.25 544.57L239.56 542.5Z"
       id="bMLF7I8s4" />
    <path
       d="M570.07 39.82C558.69 29.39 538.9 29.37 527.48 39.84C507.26 58.56 345.45 208.33 325.22 227.05C324.33 227.88 323.68 228.9 323.33 230.02C320.32 239.68 296.24 316.99 293.23 326.66C292.48 329.06 293.21 331.66 295.15 333.43C296.58 334.75 298.5 335.45 300.47 335.45C301.16 335.45 301.86 335.37 302.53 335.19C313.07 332.43 397.34 310.34 407.88 307.58C409.1 307.26 410.21 306.66 411.11 305.84C431.52 287.28 594.8 138.84 615.21 120.28C620.9 115.06 624.03 108.13 624.03 100.76C624.03 93.39 620.9 86.46 615.21 81.24C606.19 72.95 574.58 43.96 570.07 39.82Z"
       id="aCPxhMcHG" />
    <path
       d="M367.35 228.92C366.07 226.58 363.47 225.1 360.62 225.1C359.82 225.1 355.8 225.1 348.57 225.1L494.65 90.01L522.34 115.4L377.73 247.95C371.5 236.53 368.04 230.18 367.35 228.92Z"
       id="f1FdvvK0uM" />
    <path
       d="M388.37 257.7L532.99 125.15L560.68 150.54L413.29 284.43C413.29 277.8 413.29 274.12 413.29 273.38C413.29 270.77 411.68 268.38 409.14 267.21C406.37 265.94 399.45 262.77 388.37 257.7Z"
       id="d2PfIKPzbs" />
    <path
       d="M559.38 49.83C563.9 53.96 600.01 87.07 604.53 91.21C607.37 93.81 608.94 97.27 608.94 100.96C608.94 104.64 607.37 108.1 604.55 110.69C602.34 112.7 591.28 122.75 571.37 140.83L505.24 80.22L538.1 49.83C548.5 46.35 555.59 46.35 559.38 49.83Z"
       id="g2jjb25xYV" />
    <path
       d="M368.98 262.7C368.12 261.12 363.8 253.19 356.01 238.93L336.24 238.93L319.49 292.66L340.48 310.94L398.29 295.8L398.29 277.68L372.35 265.79C370.35 264.18 369.23 263.15 368.98 262.7Z"
       id="o20loru3wE" />
    <path
       d="M319.49 292.66L321.23 287.1L321.23 287.1L311.42 318.55L345.73 309.56L345.73 309.56L340.48 310.94L319.49 292.66Z"
       id="b1mbzT78Rj" />
  </defs>
  <g
     id="g180">
    <g
       id="g178">
      <g
         id="g40">
        <use
           xlink:href="#fLvwY7IxB"
           opacity="1"
           fill="#484142"
           fill-opacity="1"
           id="use38" />
      </g>
      <g
         id="g44">
        <use
           xlink:href="#ftWRL4vFh"
           opacity="1"
           fill="#cecfcf"
           fill-opacity="1"
           id="use42" />
      </g>
      <g
         id="g48">
        <use
           xlink:href="#b2Eadil8A"
           opacity="1"
           fill="#484142"
           fill-opacity="1"
           id="use46" />
      </g>
      <g
         id="g52">
        <use
           xlink:href="#a4ihTwkUxP"
           opacity="1"
           fill="#484142"
           fill-opacity="1"
           id="use50" />
      </g>
      <g
         id="g56">
        <use
           xlink:href="#a1I8R9rpMt"
           opacity="1"
           fill="#484142"
           fill-opacity="1"
           id="use54" />
      </g>
      <g
         id="g60">
        <use
           xlink:href="#lH7nhn5VG"
           opacity="1"
           fill="#484142"
           fill-opacity="1"
           id="use58" />
      </g>
      <g
         id="g64">
        <use
           xlink:href="#b7Iih3YRB"
           opacity="1"
           fill="#cecfcf"
           fill-opacity="1"
           id="use62" />
      </g>
      <g
         id="g68">
        <use
           xlink:href="#ejYF6Htps"
           opacity="1"
           fill="#e35063"
           fill-opacity="1"
           id="use66" />
      </g>
      <g
         id="g72">
        <use
           xlink:href="#b5wO0y0UT"
           opacity="1"
           fill="#e35063"
           fill-opacity="1"
           id="use70" />
      </g>
      <g
         id="g76">
        <use
           xlink:href="#aM7gKWYaJ"
           opacity="1"
           fill="#e35063"
           fill-opacity="1"
           id="use74" />
      </g>
      <g
         id="g80">
        <use
           xlink:href="#cyfKwxeok"
           opacity="1"
           fill="#e35063"
           fill-opacity="1"
           id="use78" />
      </g>
      <g
         id="g84">
        <use
           xlink:href="#gv0iSzJtE"
           opacity="1"
           fill="#e35063"
           fill-opacity="1"
           id="use82" />
      </g>
      <g
         id="g88">
        <use
           xlink:href="#aabCsYDXkz"
           opacity="1"
           fill="#e35063"
           fill-opacity="1"
           id="use86" />
      </g>
      <g
         id="g92">
        <use
           xlink:href="#euL9Jw70p"
           opacity="1"
           fill="#e35063"
           fill-opacity="1"
           id="use90" />
      </g>
      <g
         id="g96">
        <use
           xlink:href="#a2xcOJB0t0"
           opacity="1"
           fill="#e35063"
           fill-opacity="1"
           id="use94" />
      </g>
      <g
         id="g100">
        <use
           xlink:href="#a1iBERYcGw"
           opacity="1"
           fill="#e35063"
           fill-opacity="1"
           id="use98" />
      </g>
      <g
         id="g104">
        <use
           xlink:href="#cWwPAaMah"
           opacity="1"
           fill="#e35063"
           fill-opacity="1"
           id="use102" />
      </g>
      <g
         id="g108">
        <use
           xlink:href="#g16bdibaOi"
           opacity="1"
           fill="#e35063"
           fill-opacity="1"
           id="use106" />
      </g>
      <g
         id="g112">
        <use
           xlink:href="#f5ejfEGUiP"
           opacity="1"
           fill="#e35063"
           fill-opacity="1"
           id="use110" />
      </g>
      <g
         id="g116">
        <use
           xlink:href="#fcCCl71wJ"
           opacity="1"
           fill="#e35063"
           fill-opacity="1"
           id="use114" />
      </g>
      <g
         id="g120">
        <use
           xlink:href="#aKA948lvS"
           opacity="1"
           fill="#e35063"
           fill-opacity="1"
           id="use118" />
      </g>
      <g
         id="g124">
        <use
           xlink:href="#cZ9kX5VQB"
           opacity="1"
           fill="#e35063"
           fill-opacity="1"
           id="use122" />
      </g>
      <g
         id="g128">
        <use
           xlink:href="#bMLF7I8s4"
           opacity="1"
           fill="#e35063"
           fill-opacity="1"
           id="use126" />
      </g>
      <g
         id="g136">
        <use
           xlink:href="#aCPxhMcHG"
           opacity="1"
           fill="#303c42"
           fill-opacity="1"
           id="use130" />
        <g
           id="g134">
          <use
             xlink:href="#aCPxhMcHG"
             opacity="1"
             fill-opacity="0"
             stroke="#000000"
             stroke-width="1"
             stroke-opacity="0"
             id="use132" />
        </g>
      </g>
      <g
         id="g144"
         style="fill:#3e6274;fill-opacity:1">
        <use
           xlink:href="#f1FdvvK0uM"
           opacity="1"
           fill="#d5b03e"
           fill-opacity="1"
           id="use138"
           style="fill:#3e6274;fill-opacity:1" />
        <g
           id="g142"
           style="fill:#3e6274;fill-opacity:1">
          <use
             xlink:href="#f1FdvvK0uM"
             opacity="1"
             fill-opacity="0"
             stroke="#000000"
             stroke-width="1"
             stroke-opacity="0"
             id="use140"
             style="fill:#3e6274;fill-opacity:1" />
        </g>
      </g>
      <g
         id="g152"
         style="fill:#3e6274;fill-opacity:1">
        <use
           xlink:href="#d2PfIKPzbs"
           opacity="1"
           fill="#d5b03e"
           fill-opacity="1"
           id="use146"
           style="fill:#3e6274;fill-opacity:1" />
        <g
           id="g150"
           style="fill:#3e6274;fill-opacity:1">
          <use
             xlink:href="#d2PfIKPzbs"
             opacity="1"
             fill-opacity="0"
             stroke="#000000"
             stroke-width="1"
             stroke-opacity="0"
             id="use148"
             style="fill:#3e6274;fill-opacity:1" />
        </g>
      </g>
      <g
         id="g160"
         style="fill:#3e6274;fill-opacity:1">
        <use
           xlink:href="#g2jjb25xYV"
           opacity="1"
           fill="#e35063"
           fill-opacity="1"
           id="use154"
           style="fill:#3e6274;fill-opacity:1" />
        <g
           id="g158"
           style="fill:#3e6274;fill-opacity:1">
          <use
             xlink:href="#g2jjb25xYV"
             opacity="1"
             fill-opacity="0"
             stroke="#000000"
             stroke-width="1"
             stroke-opacity="0"
             id="use156"
             style="fill:#3e6274;fill-opacity:1" />
        </g>
      </g>
      <g
         id="g168">
        <use
           xlink:href="#o20loru3wE"
           opacity="1"
           fill="#e4dada"
           fill-opacity="1"
           id="use162" />
        <g
           id="g166">
          <use
             xlink:href="#o20loru3wE"
             opacity="1"
             fill-opacity="0"
             stroke="#000000"
             stroke-width="1"
             stroke-opacity="0"
             id="use164" />
        </g>
      </g>
      <g
         id="g176">
        <use
           xlink:href="#b1mbzT78Rj"
           opacity="1"
           fill="#666666"
           fill-opacity="1"
           id="use170" />
        <g
           id="g174">
          <use
             xlink:href="#b1mbzT78Rj"
             opacity="1"
             fill-opacity="0"
             stroke="#000000"
             stroke-width="1"
             stroke-opacity="0"
             id="use172" />
        </g>
      </g>
    </g>
  </g>
</svg>
