<?xml version="1.0" encoding="UTF-8" standalone="no"?>
<svg
   xmlns:dc="http://purl.org/dc/elements/1.1/"
   xmlns:cc="http://creativecommons.org/ns#"
   xmlns:rdf="http://www.w3.org/1999/02/22-rdf-syntax-ns#"
   xmlns:svg="http://www.w3.org/2000/svg"
   xmlns="http://www.w3.org/2000/svg"
   xmlns:xlink="http://www.w3.org/1999/xlink"
   xmlns:sodipodi="http://sodipodi.sourceforge.net/DTD/sodipodi-0.dtd"
   xmlns:inkscape="http://www.inkscape.org/namespaces/inkscape"
   version="1.1"
   preserveAspectRatio="xMidYMid meet"
   viewBox="0 0 640 640"
   width="64"
   height="64"
   id="svg28"
   sodipodi:docname="qnapi.svg"
   inkscape:version="0.92.4 5da689c313, 2019-01-14">
  <metadata
     id="metadata32">
    <rdf:RDF>
      <cc:Work
         rdf:about="">
        <dc:format>image/svg+xml</dc:format>
        <dc:type
           rdf:resource="http://purl.org/dc/dcmitype/StillImage" />
      </cc:Work>
    </rdf:RDF>
  </metadata>
  <sodipodi:namedview
     pagecolor="#ffffff"
     bordercolor="#666666"
     borderopacity="1"
     objecttolerance="10"
     gridtolerance="10"
     guidetolerance="10"
     inkscape:pageopacity="0"
     inkscape:pageshadow="2"
     inkscape:window-width="1850"
     inkscape:window-height="1048"
     id="namedview30"
     showgrid="false"
     inkscape:zoom="3.6875"
     inkscape:cx="32"
     inkscape:cy="32"
     inkscape:window-x="70"
     inkscape:window-y="32"
     inkscape:window-maximized="1"
     inkscape:current-layer="g24" />
  <defs
     id="defs6">
    <path
       d="M600.6 23.27C612.3 23.27 621.79 32.76 621.79 44.46C621.79 158.24 621.79 478.39 621.79 592.17C621.79 603.87 612.3 613.36 600.6 613.36C484.35 613.36 156.78 613.36 40.52 613.36C28.82 613.36 19.34 603.87 19.34 592.17C19.34 478.39 19.34 158.24 19.34 44.46C19.34 32.76 28.82 23.27 40.52 23.27C156.78 23.27 484.35 23.27 600.6 23.27Z"
       id="dkQCZ38h1" />
    <path
       d="M545.36 312.13C545.36 438.68 445.13 541.42 321.69 541.42C198.24 541.42 98.02 438.68 98.02 312.13C98.02 185.58 198.24 82.84 321.69 82.84C445.13 82.84 545.36 185.58 545.36 312.13Z"
       id="a1g1DDBZG" />
    <path
       d="M487.8 310.21C487.8 385.59 414.02 446.78 323.14 446.78C232.26 446.78 158.48 385.59 158.48 310.21C158.48 234.84 232.26 173.65 323.14 173.65C414.02 173.65 487.8 234.84 487.8 310.21Z"
       id="avofdm4JE" />
    <path
       d="M375.91 396.56C369.31 391.08 368.61 381.21 374.36 374.85C378.83 369.92 381.68 366.77 386.15 361.83C391.97 355.39 401.91 354.91 408.33 360.75C414.1 365.99 428.51 379.1 451.56 400.07C486.36 454.35 508.11 488.27 516.8 501.84C522.09 510.08 519.67 521.04 511.42 526.3C505.97 529.76 504.59 530.64 499.14 534.11C490.88 539.37 479.92 536.94 474.66 528.67C461.13 507.42 431.83 461.4 418.74 440.84C410.96 428.62 401.33 417.7 390.2 408.44C384.92 404.06 382.13 401.73 375.91 396.56Z"
       id="b1dbQ2b9XN" />
  </defs>
  <g
     id="g26">
    <g
       id="g24">
      <g
         id="g10">
        <use
           xlink:href="#dkQCZ38h1"
           opacity="1"
           fill="#d29254"
           fill-opacity="1"
           id="use8" />
      </g>
      <g
         id="g14"
         style="fill:#fbfbfb;fill-opacity:1"
         transform="matrix(0.84844501,0,0,0.78119634,44.685928,47.956203)">
        <use
           xlink:href="#a1g1DDBZG"
           id="use12"
           style="opacity:1;fill:#fbfbfb;fill-opacity:1"
           x="0"
           y="0"
           width="100%"
           height="100%" />
      </g>
      <g
         id="g18"
         transform="matrix(0.84844501,0,0,0.78119634,44.685928,47.956203)">
        <use
           xlink:href="#avofdm4JE"
           id="use16"
           style="opacity:1;fill:#d29254;fill-opacity:1"
           x="0"
           y="0"
           width="100%"
           height="100%" />
      </g>
      <g
         id="g22"
         style="fill:#fbfbfb;fill-opacity:1"
         transform="matrix(0.84844501,0,0,0.78119634,44.685928,47.956203)">
        <use
           xlink:href="#b1dbQ2b9XN"
           id="use20"
           style="opacity:1;fill:#fbfbfb;fill-opacity:1"
           x="0"
           y="0"
           width="100%"
           height="100%" />
      </g>
    </g>
  </g>
</svg>
