<?xml version="1.0" encoding="UTF-8" standalone="no"?>
<svg
   xmlns:dc="http://purl.org/dc/elements/1.1/"
   xmlns:cc="http://creativecommons.org/ns#"
   xmlns:rdf="http://www.w3.org/1999/02/22-rdf-syntax-ns#"
   xmlns:svg="http://www.w3.org/2000/svg"
   xmlns="http://www.w3.org/2000/svg"
   xmlns:xlink="http://www.w3.org/1999/xlink"
   xmlns:sodipodi="http://sodipodi.sourceforge.net/DTD/sodipodi-0.dtd"
   xmlns:inkscape="http://www.inkscape.org/namespaces/inkscape"
   version="1.1"
   preserveAspectRatio="xMidYMid meet"
   viewBox="0 0 640 640"
   width="64"
   height="64"
   id="svg58"
   sodipodi:docname="Qoob.svg"
   inkscape:version="0.92.4 5da689c313, 2019-01-14">
  <metadata
     id="metadata62">
    <rdf:RDF>
      <cc:Work
         rdf:about="">
        <dc:format>image/svg+xml</dc:format>
        <dc:type
           rdf:resource="http://purl.org/dc/dcmitype/StillImage" />
      </cc:Work>
    </rdf:RDF>
  </metadata>
  <sodipodi:namedview
     pagecolor="#ffffff"
     bordercolor="#666666"
     borderopacity="1"
     objecttolerance="10"
     gridtolerance="10"
     guidetolerance="10"
     inkscape:pageopacity="0"
     inkscape:pageshadow="2"
     inkscape:window-width="1851"
     inkscape:window-height="1048"
     id="namedview60"
     showgrid="false"
     inkscape:zoom="3.6875"
     inkscape:cx="32"
     inkscape:cy="32"
     inkscape:window-x="69"
     inkscape:window-y="32"
     inkscape:window-maximized="1"
     inkscape:current-layer="svg58" />
  <defs
     id="defs8">
    <path
       d="M265.09 227.69C265.09 227.69 265.09 227.69 265.09 227.69C265.09 227.69 265.09 227.69 265.09 227.69C265.09 227.69 265.09 227.69 265.09 227.69C265.09 227.69 265.09 227.69 265.09 227.69Z"
       id="b1vwrVCd93" />
    <path
       d="M571.71 330.68C571.71 478.63 455.26 598.74 311.82 598.74C168.39 598.74 51.93 478.63 51.93 330.68C51.93 182.73 168.39 62.61 311.82 62.61C455.26 62.61 571.71 182.73 571.71 330.68Z"
       id="d93jIORUO" />
    <path
       d="M200.96 143.82C171.75 180.31 179.84 213.18 178.67 224.77C177.5 236.37 90.14 371.36 101.77 390.63C108.27 401.39 137.18 384.19 137.77 399.48C138.35 414.77 109.51 567.74 310.32 567.74C310.84 567.74 311.33 567.74 311.82 567.74C312.34 567.74 312.83 567.74 313.33 567.74C514.14 567.74 485.3 414.77 485.88 399.48C486.47 384.19 515.38 401.39 521.88 390.63C533.51 371.36 446.15 236.37 444.98 224.77C443.81 213.18 451.89 180.31 422.69 143.82C395.94 110.4 356.23 102.58 317.2 101.49C315.17 101.49 313.64 101.48 311.82 101.48C310.12 101.48 308.1 101.49 306.45 101.5C267.42 102.58 227.71 110.4 200.96 143.82Z"
       id="cei1vwx32" />
    <path
       d="M314.38 336.16C316.1 336.52 314.38 336.16 314.38 336.16C314.62 337.27 312.76 336.5 314.38 336.16C331.05 331.79 369.38 277.92 387.48 280.09C407.5 282.48 390.91 306.21 399.43 323.65C420.9 367.56 449.74 435.58 418.95 475.17C409.38 487.48 387.14 508.61 316.8 509.3C315.14 509.31 313.52 509.33 311.82 509.33C310.13 509.33 308.51 509.31 306.84 509.3C236.5 508.61 214.27 487.48 204.7 475.17C173.91 435.58 202.75 367.56 224.22 323.65C232.74 306.21 216.15 282.48 236.16 280.09C236.79 280.02 237.44 279.97 238.11 279.95C256.82 279.48 298.28 331.94 314.38 336.16Z"
       id="b8QmP3zyIS" />
    <path
       d="M345.24 213.27C354.75 198.99 366.91 187.62 379.45 181.32C391.09 175.48 397.65 175.2 403.53 180.29C407.5 183.74 407.85 184.88 407.59 193.82C406.78 221.84 372.79 259.05 348 259.05C342.64 259.05 339.64 258.18 337.49 256.02C329.65 248.14 332.5 232.43 345.24 213.27Z"
       id="g1uFHrsjz6" />
    <path
       d="M229.82 222.46C239.32 236.75 251.49 248.11 264.03 254.41C275.67 260.26 282.23 260.54 288.1 255.45C292.08 252 292.43 250.85 292.17 241.91C291.36 213.9 257.37 176.69 232.58 176.69C227.22 176.69 224.22 177.55 222.07 179.72C214.23 187.6 217.07 203.31 229.82 222.46Z"
       id="jI6plkpS" />
  </defs>
  <g
     id="g56"
     transform="matrix(1.1617373,0,0,1.1617373,-39.92444,-63.272558)">
    <g
       id="g54">
      <g
         id="g16">
        <use
           xlink:href="#b1vwrVCd93"
           id="use10"
           style="opacity:1;fill:#ffffff;fill-opacity:1"
           x="0"
           y="0"
           width="100%"
           height="100%" />
        <g
           id="g14">
          <use
             xlink:href="#b1vwrVCd93"
             id="use12"
             style="opacity:1;fill-opacity:0;stroke:#000000;stroke-width:0.36000001;stroke-opacity:0"
             x="0"
             y="0"
             width="100%"
             height="100%" />
        </g>
      </g>
      <g
         id="g20">
        <use
           xlink:href="#d93jIORUO"
           id="use18"
           style="opacity:1;fill:#c4bfcb;fill-opacity:1"
           x="0"
           y="0"
           width="100%"
           height="100%" />
      </g>
      <g
         id="g28">
        <use
           xlink:href="#cei1vwx32"
           id="use22"
           style="opacity:1;fill:#574e4e;fill-opacity:1"
           x="0"
           y="0"
           width="100%"
           height="100%" />
        <g
           id="g26">
          <use
             xlink:href="#cei1vwx32"
             id="use24"
             style="opacity:1;fill-opacity:0;stroke:#000000;stroke-width:0.36000001;stroke-opacity:0"
             x="0"
             y="0"
             width="100%"
             height="100%" />
        </g>
      </g>
      <g
         id="g36">
        <use
           xlink:href="#b8QmP3zyIS"
           id="use30"
           style="opacity:1;fill:#c4bfcb;fill-opacity:1"
           x="0"
           y="0"
           width="100%"
           height="100%" />
        <g
           id="g34">
          <use
             xlink:href="#b8QmP3zyIS"
             id="use32"
             style="opacity:1;fill-opacity:0;stroke:#000000;stroke-width:0.34999999;stroke-opacity:0"
             x="0"
             y="0"
             width="100%"
             height="100%" />
        </g>
      </g>
      <g
         id="g44">
        <use
           xlink:href="#g1uFHrsjz6"
           id="use38"
           style="opacity:1;fill:#c4bfcb;fill-opacity:1"
           x="0"
           y="0"
           width="100%"
           height="100%" />
        <g
           id="g42">
          <use
             xlink:href="#g1uFHrsjz6"
             id="use40"
             style="opacity:1;fill-opacity:0;stroke:#000000;stroke-width:1.25999999;stroke-opacity:0"
             x="0"
             y="0"
             width="100%"
             height="100%" />
        </g>
      </g>
      <g
         id="g52">
        <use
           xlink:href="#jI6plkpS"
           id="use46"
           style="opacity:1;fill:#c4bfcb;fill-opacity:1"
           x="0"
           y="0"
           width="100%"
           height="100%" />
        <g
           id="g50">
          <use
             xlink:href="#jI6plkpS"
             id="use48"
             style="opacity:1;fill-opacity:0;stroke:#000000;stroke-width:1.25999999;stroke-opacity:0"
             x="0"
             y="0"
             width="100%"
             height="100%" />
        </g>
      </g>
    </g>
  </g>
</svg>
