<?xml version="1.0" encoding="UTF-8" standalone="no"?>
<svg
   xmlns:dc="http://purl.org/dc/elements/1.1/"
   xmlns:cc="http://creativecommons.org/ns#"
   xmlns:rdf="http://www.w3.org/1999/02/22-rdf-syntax-ns#"
   xmlns:svg="http://www.w3.org/2000/svg"
   xmlns="http://www.w3.org/2000/svg"
   xmlns:sodipodi="http://sodipodi.sourceforge.net/DTD/sodipodi-0.dtd"
   xmlns:inkscape="http://www.inkscape.org/namespaces/inkscape"
   inkscape:version="1.0 (4035a4fb49, 2020-05-01)"
   sodipodi:docname="qstopmotion second.svg"
   id="svg23"
   style="fill-rule:evenodd;clip-rule:evenodd;stroke-linejoin:round;stroke-miterlimit:2;"
   xml:space="preserve"
   version="1.1"
   viewBox="0 0 1067 1067"
   height="100%"
   width="100%"><metadata
     id="metadata29"><rdf:RDF><cc:Work
         rdf:about=""><dc:format>image/svg+xml</dc:format><dc:type
           rdf:resource="http://purl.org/dc/dcmitype/StillImage" /><dc:title></dc:title></cc:Work></rdf:RDF></metadata><defs
     id="defs27" /><sodipodi:namedview
     inkscape:current-layer="svg23"
     inkscape:window-maximized="1"
     inkscape:window-y="32"
     inkscape:window-x="70"
     inkscape:cy="471.6648"
     inkscape:cx="-889.96909"
     inkscape:zoom="0.19400187"
     showgrid="false"
     id="namedview25"
     inkscape:window-height="1048"
     inkscape:window-width="1850"
     inkscape:pageshadow="2"
     inkscape:pageopacity="0"
     guidetolerance="10"
     gridtolerance="10"
     objecttolerance="10"
     borderopacity="1"
     bordercolor="#666666"
     pagecolor="#ffffff" /><rect
     style="fill:none;"
     height="1066.64"
     width="1066.67"
     y="0"
     x="0.368"
     id="qstopmotion" /><g
     style="stroke-width:30;stroke-miterlimit:2;stroke-dasharray:none"
     id="Layer1"><path
       id="path3"
       style="fill:#3e5962;stroke:#72bfb9;stroke-opacity:1;stroke-width:30;stroke-miterlimit:2;stroke-dasharray:none;fill-opacity:1"
       d="M1024.88,195.379c-0,-84.573 -68.662,-153.235 -153.235,-153.235l-675.881,0c-84.572,0 -153.235,68.662 -153.235,153.235l0,675.881c0,84.572 68.663,153.234 153.235,153.234l675.881,0c84.573,0 153.235,-68.662 153.235,-153.234l-0,-675.881Z" /><g
       style="stroke-width:30;stroke-miterlimit:2;stroke-dasharray:none"
       transform="translate(71.59503,20.400096)"
       id="g20"><path
         id="path5"
         style="fill:#72a1b1;stroke-width:30;stroke-miterlimit:2;stroke-dasharray:none"
         d="m 484.865,338.761 c 10.844,-4.662 22.594,-10.594 35.83,-17.64 43.254,-23.029 98.838,-57.595 179.052,-103.651 20.857,-11.976 47.513,-4.765 59.489,16.092 11.975,20.857 4.765,47.513 -16.092,59.488 -96.55,55.436 -158.236,94.436 -205.465,117.199 v 506.566 c 0,24.051 -19.526,43.577 -43.577,43.577 -24.05,0 -43.576,-19.526 -43.576,-43.577 V 706.843 h -31.197 v 209.972 c 0,24.051 -19.526,43.577 -43.576,43.577 -24.051,0 -43.577,-19.526 -43.577,-43.577 V 409.59 C 285.385,386.739 224.405,347.936 129.375,292.984 c -20.82,-12.04 -27.949,-38.718 -15.91,-59.538 12.04,-20.82 38.718,-27.949 59.538,-15.91 79.639,46.052 134.792,80.615 177.759,103.641 13.87,7.433 26.101,13.624 37.378,18.39 2.605,0.772 5.108,1.781 7.486,3.003 14.13,5.343 26.91,8.214 39.836,8.214 11.859,0 23.621,-2.41 36.432,-6.923 3.964,-2.354 8.33,-4.097 12.971,-5.1 z m 37.97,-148.319 c 0,-46.469 -37.727,-84.195 -84.196,-84.195 h -8.037 c -46.469,0 -84.196,37.726 -84.196,84.195 v 39.163 c 0,46.469 37.727,84.196 84.196,84.196 h 8.037 c 46.469,0 84.196,-37.727 84.196,-84.196 z" /><clipPath
         id="_clip1"><path
           id="path7"
           d="m 484.865,338.761 c 10.844,-4.662 22.594,-10.594 35.83,-17.64 43.254,-23.029 98.838,-57.595 179.052,-103.651 20.857,-11.976 47.513,-4.765 59.489,16.092 11.975,20.857 4.765,47.513 -16.092,59.488 -96.55,55.436 -158.236,94.436 -205.465,117.199 v 506.566 c 0,24.051 -19.526,43.577 -43.577,43.577 -24.05,0 -43.576,-19.526 -43.576,-43.577 V 706.843 h -31.197 v 209.972 c 0,24.051 -19.526,43.577 -43.576,43.577 -24.051,0 -43.577,-19.526 -43.577,-43.577 V 409.59 C 285.385,386.739 224.405,347.936 129.375,292.984 c -20.82,-12.04 -27.949,-38.718 -15.91,-59.538 12.04,-20.82 38.718,-27.949 59.538,-15.91 79.639,46.052 134.792,80.615 177.759,103.641 13.87,7.433 26.101,13.624 37.378,18.39 2.605,0.772 5.108,1.781 7.486,3.003 14.13,5.343 26.91,8.214 39.836,8.214 11.859,0 23.621,-2.41 36.432,-6.923 3.964,-2.354 8.33,-4.097 12.971,-5.1 z m 37.97,-148.319 c 0,-46.469 -37.727,-84.195 -84.196,-84.195 h -8.037 c -46.469,0 -84.196,37.726 -84.196,84.195 v 39.163 c 0,46.469 37.727,84.196 84.196,84.196 h 8.037 c 46.469,0 84.196,-37.727 84.196,-84.196 z" /></clipPath><g
         style="stroke-width:30;stroke-miterlimit:2;stroke-dasharray:none"
         id="g12"
         clip-path="url(#_clip1)"><path
           id="path10"
           style="fill:#59818d;stroke-width:30;stroke-miterlimit:2;stroke-dasharray:none"
           d="M 746.302,189.564 47.301,596.076 279.501,995.346 978.502,588.833 Z" /></g><g
         style="stroke-width:30;stroke-miterlimit:2;stroke-dasharray:none"
         id="g18"><path
           id="path14"
           style="fill:#72bfb9;stroke-width:30;stroke-miterlimit:2;stroke-dasharray:none"
           d="m 702.202,749.83 c 141.612,81.391 127.47,82.578 251.971,13.271 3.468,-1.93 5.618,-5.587 5.618,-9.557 10e-4,-34.231 10e-4,-195.5 10e-4,-251.064 0,-3.901 -2.078,-7.506 -5.453,-9.463 -3.375,-1.956 -7.536,-1.967 -10.921,-0.028 -21.579,12.36 -58.712,33.629 -75.062,42.994 -5.017,2.874 -11.199,2.792 -16.138,-0.212 C 805.425,507.306 569.399,363.727 569.399,363.727 Z" /><path
           id="path16"
           style="fill:#85ded8;stroke-width:30;stroke-miterlimit:2;stroke-dasharray:none"
           d="m 447.405,362.825 v 0 c 51.568,-31.527 113.387,-19.267 149.003,25.848 3.137,3.665 5.957,7.687 8.399,12.053 l 129.329,231.201 c 0.134,0.239 0.266,0.478 0.395,0.716 v -10e-4 l 0.004,0.008 c 2.074,3.804 3.779,7.712 5.125,11.68 13.928,37.231 4.457,73.212 -25.582,97.267 -2.207,1.931 -4.607,3.696 -7.194,5.266 -3.851,2.578 -7.981,4.986 -12.382,7.204 L 480.463,878.402 c -24.555,14.263 -56.071,5.908 -70.335,-18.647 -14.264,-24.555 -5.908,-56.071 18.646,-70.334 0,0 127.963,-74.333 161.12,-93.594 4.312,-2.505 5.818,-8.005 3.384,-12.356 -0.002,-0.002 -0.003,-0.004 -0.004,-0.006 -1.133,-2.026 -3.031,-3.512 -5.27,-4.124 -2.238,-0.613 -4.629,-0.302 -6.635,0.864 -39.637,23.025 -220.652,128.175 -220.652,128.175 -24.555,14.264 -56.071,5.909 -70.335,-18.646 -14.264,-24.555 -5.909,-56.071 18.646,-70.335 0,0 182.859,-106.221 222.276,-129.119 4.123,-2.395 5.563,-7.654 3.236,-11.815 -10e-4,-10e-4 -10e-4,-0.002 -0.002,-0.002 -1.101,-1.969 -2.947,-3.413 -5.123,-4.009 -2.175,-0.596 -4.499,-0.293 -6.45,0.84 -41.784,24.272 -246.407,143.137 -246.407,143.137 -24.555,14.263 -56.071,5.908 -70.335,-18.647 -14.264,-24.555 -5.909,-56.07 18.646,-70.334 0,0 207.841,-120.734 248.425,-144.309 3.806,-2.211 5.175,-7.041 3.096,-10.92 -0.002,-0.003 -0.003,-0.006 -0.005,-0.008 -0.987,-1.843 -2.68,-3.205 -4.691,-3.775 -2.011,-0.57 -4.167,-0.299 -5.974,0.751 -38.325,22.263 -223.351,129.743 -223.351,129.743 -24.555,14.264 -56.071,5.909 -70.335,-18.646 -14.263,-24.555 -5.908,-56.071 18.647,-70.335 L 446.896,363.117 c 0.169,-0.098 0.339,-0.196 0.509,-0.292 z" /></g></g></g></svg>
