<?xml version="1.0" encoding="UTF-8" standalone="no"?><!DOCTYPE svg PUBLIC "-//W3C//DTD SVG 1.1//EN" "http://www.w3.org/Graphics/SVG/1.1/DTD/svg11.dtd"><svg width="100%" height="100%" viewBox="0 0 160 160" version="1.1" xmlns="http://www.w3.org/2000/svg" xmlns:xlink="http://www.w3.org/1999/xlink" xml:space="preserve" xmlns:serif="http://www.serif.com/" style="fill-rule:evenodd;clip-rule:evenodd;stroke-linejoin:round;stroke-miterlimit:2;"><rect id="quaternion" x="0.43" y="0" width="160" height="160" style="fill:none;"/><g><path d="M148.622,141.864c-0,3.495 -2.833,6.328 -6.328,6.328l-61.864,-0c-37.636,-0 -68.192,-30.556 -68.192,-68.192c0,-37.636 30.556,-68.192 68.192,-68.192c37.636,0 68.192,30.556 68.192,68.192l-0,61.864Z" style="fill:#4ea3e1;"/><g><path d="M115.509,110.451c-0.112,-0.123 -0.267,-0.197 -0.433,-0.206c-0.165,-0.008 -0.327,0.05 -0.45,0.161c-0.934,0.844 -3.033,2.74 -3.967,3.584c-0.123,0.111 -0.197,0.267 -0.205,0.432c-0.009,0.166 0.049,0.328 0.16,0.451c1.897,2.099 9.752,10.793 13.647,15.105c1.221,1.351 3.306,1.457 4.658,0.236c0,-0.001 0,-0.001 0.001,-0.001c0.649,-0.587 1.038,-1.407 1.082,-2.28c0.045,-0.873 -0.26,-1.729 -0.846,-2.378c-3.896,-4.311 -11.751,-13.005 -13.647,-15.104Z" style="fill:#fff;"/><path d="M109.346,39.41l0,0c2.979,2.127 5.719,4.57 8.173,7.286c18.678,20.674 17.213,52.49 -3.174,71.366c-0.123,0.112 -0.285,0.171 -0.451,0.164c-0.167,-0.008 -0.323,-0.082 -0.434,-0.205c-0.712,-0.787 -2.142,-2.369 -2.849,-3.152c-0.23,-0.255 -0.212,-0.646 0.04,-0.878c18.144,-16.839 19.436,-45.186 2.79,-63.61c-0.181,-0.2 -0.364,-0.399 -0.548,-0.596c-0.138,-0.147 -0.338,-0.219 -0.538,-0.193c-0.2,0.027 -0.375,0.148 -0.47,0.326c-2.651,5.069 -4.477,11.302 -5.972,18.001c-0.065,0.294 -0.33,0.5 -0.631,0.491c-0.301,-0.01 -0.552,-0.233 -0.597,-0.531c-1.474,-9.613 -0.413,-17.165 2.108,-23.529l-0,-0l-0,-0.001c0.677,-1.709 1.459,-3.333 2.326,-4.888c0.022,-0.039 0.059,-0.066 0.102,-0.076c0.043,-0.01 0.089,-0.001 0.125,0.025Z" style="fill:#fff;"/><path d="M30.228,74.875l-0,-0.001c0.353,-3.642 1.098,-7.237 2.224,-10.72c8.337,-25.809 35.362,-40.367 61.273,-33.541c0.711,0.194 1.312,0.671 1.662,1.319c0.351,0.648 0.421,1.412 0.195,2.113c0.009,0.003 0.009,0.004 0.009,0.004c-0.462,1.428 -1.962,2.242 -3.411,1.852c-23.062,-6.004 -47.079,6.973 -54.499,29.942c-0.082,0.257 -0.163,0.514 -0.241,0.772c-0.059,0.193 -0.021,0.403 0.102,0.563c0.122,0.16 0.315,0.251 0.517,0.244c5.715,-0.238 12.026,-1.773 18.575,-3.828c0.287,-0.092 0.599,0.034 0.741,0.299c0.143,0.266 0.075,0.595 -0.16,0.783c-7.589,6.083 -14.66,8.941 -21.433,9.94l0,0l0,0c-1.819,0.269 -3.616,0.403 -5.396,0.43c-0.045,0 -0.087,-0.018 -0.117,-0.05c-0.031,-0.033 -0.045,-0.077 -0.041,-0.121Z" style="fill:#fff;"/><path d="M100.5,125.661l-0.009,0.004c-3.329,1.514 -6.811,2.664 -10.387,3.43c-26.52,5.685 -52.64,-10.441 -59.684,-36.294c-0.187,-0.713 -0.075,-1.471 0.311,-2.099c0.386,-0.628 1.012,-1.07 1.732,-1.225c-0.001,-0.01 -0.001,-0.01 -0,-0.01c1.467,-0.314 2.923,0.579 3.309,2.029c6.331,22.974 29.578,37.285 53.18,32.226c0.264,-0.057 0.527,-0.116 0.789,-0.177c0.197,-0.046 0.36,-0.183 0.437,-0.37c0.077,-0.186 0.06,-0.398 -0.047,-0.57c-3.065,-4.83 -7.549,-9.528 -12.604,-14.172c-0.222,-0.203 -0.268,-0.536 -0.109,-0.791c0.159,-0.256 0.478,-0.362 0.758,-0.252c9.062,3.53 15.072,8.224 19.323,13.59l0,-0l0,-0c1.142,1.441 2.157,2.93 3.071,4.459c0.022,0.038 0.028,0.084 0.014,0.126c-0.013,0.043 -0.043,0.077 -0.084,0.096Z" style="fill:#fff;"/></g></g></svg>