<?xml version="1.0" encoding="UTF-8" standalone="no"?>
<svg
   xmlns:dc="http://purl.org/dc/elements/1.1/"
   xmlns:cc="http://creativecommons.org/ns#"
   xmlns:rdf="http://www.w3.org/1999/02/22-rdf-syntax-ns#"
   xmlns:svg="http://www.w3.org/2000/svg"
   xmlns="http://www.w3.org/2000/svg"
   xmlns:sodipodi="http://sodipodi.sourceforge.net/DTD/sodipodi-0.dtd"
   xmlns:inkscape="http://www.inkscape.org/namespaces/inkscape"
   width="100%"
   height="100%"
   viewBox="0 0 1024 1024"
   version="1.1"
   xml:space="preserve"
   style="fill-rule:evenodd;clip-rule:evenodd;stroke-linejoin:round;stroke-miterlimit:2;"
   id="svg8"
   sodipodi:docname="RealTimeSync.svg"
   inkscape:version="1.0.1 (3bc2e813f5, 2020-09-07)"><metadata
     id="metadata14"><rdf:RDF><cc:Work
         rdf:about=""><dc:format>image/svg+xml</dc:format><dc:type
           rdf:resource="http://purl.org/dc/dcmitype/StillImage" /><dc:title></dc:title></cc:Work></rdf:RDF></metadata><defs
     id="defs12" /><sodipodi:namedview
     pagecolor="#ffffff"
     bordercolor="#666666"
     borderopacity="1"
     objecttolerance="10"
     gridtolerance="10"
     guidetolerance="10"
     inkscape:pageopacity="0"
     inkscape:pageshadow="2"
     inkscape:window-width="1849"
     inkscape:window-height="1048"
     id="namedview10"
     showgrid="false"
     inkscape:zoom="0.70019531"
     inkscape:cx="512"
     inkscape:cy="512"
     inkscape:window-x="71"
     inkscape:window-y="32"
     inkscape:window-maximized="1"
     inkscape:current-layer="svg8" /><path
     d="m 986.43162,129.98325 c 0,-23.53419 -9.3495,-46.104594 -25.99052,-62.745594 -16.64099,-16.640994 -39.21032,-25.98948 -62.7445,-25.98948 H 143.92719 c -23.53419,0 -46.103511,9.348486 -62.744511,25.98948 -16.640995,16.641 -25.99056,39.211404 -25.99056,62.745594 v 753.76833 c 0,23.53418 9.349565,46.10459 25.99056,62.74558 16.641,16.64102 39.210321,25.98952 62.744511,25.98952 H 897.6966 c 23.53418,0 46.10351,-9.3485 62.7445,-25.98952 16.64102,-16.64099 25.99052,-39.2114 25.99052,-62.74558 z"
     style="fill:#fce4e5;stroke-width:1.07925;fill-opacity:1"
     id="path2" /><path
     d="m 793.7322,467.67597 c 5.311,-0.44357 9.42943,-4.82641 9.54275,-10.1536 1.58002,-41.78003 10.61013,-159.86861 -0.96701,-189.3635 -13.41727,-34.18209 -72.3995,59.22291 -72.3995,59.22291 0,0 -83.63452,-121.08027 -204.70291,-127.24064 -113.28483,-5.76537 -262.90916,97.22446 -291.41654,227.07689 -0.6864,3.17409 0.62165,6.44638 3.30575,8.27247 2.6841,1.82718 6.20894,1.84229 8.90923,0.0399 65.80311,-43.73455 153.40388,-90.54605 259.4739,-99.42614 73.75504,-6.17441 155.9671,57.71195 155.9671,57.71195 0,0 -82.42035,58.05083 -66.61686,66.646 25.73802,13.99898 135.8984,12.24196 198.90409,7.21372 z"
     style="fill:#db9c9f;stroke-width:1.07925;fill-opacity:1"
     id="path4" /><path
     d="m 247.89158,546.05885 c -5.311,0.44357 -9.42943,4.82534 -9.54275,10.15361 -1.58002,41.78002 -10.61013,159.8686 0.96701,189.36349 13.41727,34.18209 72.3995,-59.2229 72.3995,-59.2229 0,0 83.63452,121.08026 204.70291,127.24064 113.28483,5.76536 262.90916,-97.22447 291.41654,-227.0769 0.68641,-3.17408 -0.62165,-6.44638 -3.30575,-8.27247 -2.6841,-1.82718 -6.20894,-1.84229 -8.90923,-0.0399 -65.80311,43.73455 -153.40388,90.54605 -259.4739,99.42614 -73.75504,6.17332 -155.9671,-57.71195 -155.9671,-57.71195 0,0 82.42036,-58.05084 66.61686,-66.64601 -25.73801,-13.99898 -135.8984,-12.24196 -198.90409,-7.21372 z"
     style="fill:#db9c9f;stroke-width:1.07925;fill-opacity:1"
     id="path6" /></svg>
