<?xml version="1.0" encoding="UTF-8" standalone="no"?><!DOCTYPE svg PUBLIC "-//W3C//DTD SVG 1.1//EN" "http://www.w3.org/Graphics/SVG/1.1/DTD/svg11.dtd"><svg width="100%" height="100%" viewBox="0 0 534 534" version="1.1" xmlns="http://www.w3.org/2000/svg" xmlns:xlink="http://www.w3.org/1999/xlink" xml:space="preserve" xmlns:serif="http://www.serif.com/" style="fill-rule:evenodd;clip-rule:evenodd;stroke-linecap:round;stroke-linejoin:round;stroke-miterlimit:1.5;"><rect id="rednotebook" x="1.998" y="0" width="533.333" height="533.333" style="fill:none;"/><g><g><path d="M477.276,40.905c-0,-9.524 -7.732,-17.255 -17.255,-17.255l-367.41,-0c-9.523,-0 -17.255,7.731 -17.255,17.255l0,451.524c0,9.523 7.732,17.255 17.255,17.255l367.41,-0c9.523,-0 17.255,-7.732 17.255,-17.255l-0,-451.524Z" style="fill:#ca6154;"/><path d="M174.593,192.871c-7.903,13.127 -6.935,-16.029 7.981,-27.698c7.28,-5.695 17.292,-8.451 27.464,-12.207c10.172,-3.755 20.265,-6.729 30.28,-8.919c18.466,-3.756 37.714,-5.634 57.744,-5.634c24.725,0 43.895,2.739 57.51,8.216c13.614,5.477 20.421,15.257 20.421,29.341c0,6.886 -2.269,14.006 -6.807,21.361c-4.538,7.355 -10.876,14.162 -19.013,20.421c-8.138,6.26 -18.075,11.659 -29.811,16.197c-11.737,4.538 -24.647,7.59 -38.731,9.154c-2.817,0.313 -3.756,1.565 -2.817,3.756c5.947,10.954 14.162,24.647 24.647,41.078c10.485,16.432 22.3,33.88 35.445,52.345c6.885,9.39 14.631,18.466 23.238,27.229c8.607,8.764 17.918,16.51 27.933,23.239c10.015,6.729 20.735,12.128 32.158,16.196c11.424,4.069 -7.902,10.876 -21.36,7.277c-13.458,-3.599 -25.821,-9.155 -37.088,-16.666c-11.267,-7.511 -21.986,-17.214 -32.158,-29.107c-10.172,-11.893 -20.735,-26.29 -31.689,-43.19c-3.13,-5.008 -6.885,-11.189 -11.267,-18.544c-4.382,-7.355 -8.92,-14.945 -13.614,-22.769c-4.695,-7.825 -9.155,-15.414 -13.38,-22.769c-4.225,-7.355 -7.746,-13.38 -10.563,-18.075c-0,-1.251 0.469,-1.877 1.408,-1.877c14.084,-0 26.994,-1.252 38.731,-3.756c11.737,-2.504 21.908,-6.338 30.515,-11.502c8.607,-5.164 15.336,-11.737 20.187,-19.717c4.851,-7.981 7.277,-17.292 7.277,-27.934c-0,-3.755 -0.704,-7.746 -2.113,-11.971c-1.408,-4.225 -3.912,-7.981 -7.511,-11.267c-3.599,-3.286 -8.372,-6.025 -14.319,-8.216c-5.946,-2.19 -13.458,-3.286 -22.534,-3.286c-3.13,0 -6.181,0.391 -9.155,1.174c-2.973,0.782 -5.555,2.425 -7.746,4.929c-3.442,4.069 -8.294,10.876 -14.553,20.422c-6.26,9.546 -13.145,20.578 -20.657,33.097c-7.511,12.519 -15.335,25.821 -23.473,39.904c-8.137,14.084 -15.883,27.777 -23.238,41.079c-7.355,13.301 -13.849,25.351 -19.483,36.148c-5.633,10.798 -8.876,19.869 -12.675,25.586c-11.437,17.209 -49.944,26.838 -37.088,7.981c28.656,-42.033 53.049,-79.339 72.767,-112.202c19.717,-32.862 36.774,-62.908 51.171,-90.137c0.939,-2.504 1.174,-4.069 0.705,-4.695c-0.47,-0.626 -1.487,-0.938 -3.052,-0.938c-9.389,0.625 -18.779,2.503 -28.168,5.633c-9.389,3.13 -18.966,7.379 -26.29,11.267c-14.187,7.277 -21.994,21.352 -27.229,30.046Z" style="fill:#d0876e;fill-rule:nonzero;"/><path d="M92.611,41.654l367.41,-0l-0,450.025l-367.41,0" style="fill:none;stroke:#d5a180;stroke-width:2.78px;stroke-dasharray:8.35,8,0,0;"/></g><g><g><g><path d="M67.795,114.135l-25.261,25.26l307.389,307.389l25.26,-25.261l-307.388,-307.388Z" style="fill:#ffc27b;"/><path d="M60.135,121.794l-7.588,7.589l307.388,307.388l7.589,-7.588l-307.389,-307.389Z" style="fill:#ffcd93;"/></g><path d="M398.107,470.755c0.301,0.15 0.663,0.09 0.901,-0.147c0.237,-0.237 0.296,-0.6 0.147,-0.9c-4.724,-9.494 -23.972,-48.185 -23.972,-48.185l-25.26,25.261c-0,-0 38.69,19.248 48.184,23.971Z" style="fill:#ffdeb7;"/><clipPath id="_clip1"><path d="M398.107,470.755c0.301,0.15 0.663,0.09 0.901,-0.147c0.237,-0.237 0.296,-0.6 0.147,-0.9c-4.724,-9.494 -23.972,-48.185 -23.972,-48.185l-25.26,25.261c-0,-0 38.69,19.248 48.184,23.971Z"/></clipPath><g clip-path="url(#_clip1)"><path d="M400.121,472.787c0.306,0.173 0.689,0.12 0.938,-0.128c0.248,-0.248 0.3,-0.632 0.127,-0.937c-2.724,-4.813 -8.507,-15.031 -8.507,-15.031l-7.588,7.588c-0,0 10.217,5.783 15.03,8.508Z" style="fill:#626262;"/></g></g><g><g><path d="M63.799,110.139l-25.261,25.26l22.342,22.342l25.261,-25.261l-22.342,-22.341Z" style="fill:#dedede;"/><g><path d="M72.184,122.49l-21.294,21.295l1.605,1.604l21.294,-21.294l-1.605,-1.605Z" style="fill:#c3c3c3;"/><path d="M77.556,127.862l-21.295,21.294l1.605,1.605l21.295,-21.294l-1.605,-1.605Z" style="fill:#c3c3c3;"/><path d="M66.813,117.119l-21.295,21.294l1.605,1.605l21.294,-21.295l-1.604,-1.604Z" style="fill:#c3c3c3;"/></g></g><g><path d="M45.939,92.279c-1.424,-1.424 -3.732,-1.424 -5.156,-0c-4.846,4.845 -15.259,15.259 -20.105,20.105c-1.423,1.423 -1.423,3.732 0,5.156c5.495,5.494 17.86,17.859 17.86,17.859l25.261,-25.26c-0,-0 -12.366,-12.366 -17.86,-17.86Z" style="fill:#ffadde;"/><path d="M43.754,94.73c-0.411,-0.411 -0.968,-0.642 -1.549,-0.642c-0.582,-0 -1.139,0.231 -1.55,0.642c-3.828,3.828 -13.698,13.697 -17.526,17.525c-0.411,0.411 -0.642,0.969 -0.642,1.55c0,0.581 0.231,1.139 0.642,1.55c0.001,0.001 0.002,0.002 0.002,0.002l20.625,-20.625c0,-0 -0,-0.001 -0.002,-0.002Z" style="fill:#ffbbe4;"/></g></g></g></g></svg>