<?xml version="1.0" encoding="UTF-8" standalone="no"?><!DOCTYPE svg PUBLIC "-//W3C//DTD SVG 1.1//EN" "http://www.w3.org/Graphics/SVG/1.1/DTD/svg11.dtd"><svg width="100%" height="100%" viewBox="0 0 663 663" version="1.1" xmlns="http://www.w3.org/2000/svg" xmlns:xlink="http://www.w3.org/1999/xlink" xml:space="preserve" xmlns:serif="http://www.serif.com/" style="fill-rule:evenodd;clip-rule:evenodd;stroke-linecap:round;stroke-linejoin:round;stroke-miterlimit:1.5;"><rect id="remarkable" x="2.783" y="0" width="662.5" height="662.5" style="fill:none;"/><g><circle cx="334.033" cy="331.25" r="292.862" style="fill:#88beef;stroke:#739dc3;stroke-width:29.22px;"/><g><path d="M201.043,476.979c-2.542,-35.851 0.364,-90.646 6.625,-143.804c6.702,-56.903 16.962,-111.959 29.018,-139.205c4.108,-8.962 0.168,-19.574 -8.795,-23.683c-8.962,-4.109 -19.574,-0.168 -23.683,8.794c-13.762,28.997 -27.018,87.844 -35.863,148.933c-8.091,55.88 -12.499,113.593 -10.823,151.47c0.691,12.01 11.003,21.199 23.013,20.508c12.009,-0.692 21.199,-11.003 20.508,-23.013Z" style="fill:#fff;"/><path d="M286.525,394.417c18.876,17.455 45.122,37.191 72.996,54.488c38.487,23.882 80.089,43.528 109.677,43.1c12.145,0 22.005,9.86 22.005,22.005c-0,12.145 -9.86,22.005 -22.005,22.005c-29.682,-0.436 -69.467,-16.014 -108.193,-38.804c-54.746,-32.217 -107.777,-77.741 -126.764,-105.551c-3.733,-5.317 -4.386,-12.208 -1.718,-18.132c2.668,-5.923 8.262,-10 14.718,-10.728c121.701,-12.713 193.256,-41.748 226.31,-76.519c24.578,-25.855 24.217,-54.507 5.631,-76.338c-30.684,-36.043 -102.709,-54.079 -185.013,-29.719c-38.193,11.304 -78.047,32.763 -117.866,65.233c-13.231,9.819 -31.944,7.05 -41.763,-6.181c-9.82,-13.23 -7.05,-31.944 6.18,-41.763c63.444,-42.868 125.506,-63.074 180.585,-68.295c84.832,-8.042 152.764,19.671 184.106,59.163c20.029,25.235 26.509,54.846 15.085,84.678c-10.649,27.804 -37.91,56.528 -88.137,80.053c-35.781,16.759 -83.674,31.329 -145.834,41.305Z" style="fill:#fff;"/></g></g></svg>