<?xml version="1.0" encoding="UTF-8" standalone="no"?>
<svg
   xmlns:dc="http://purl.org/dc/elements/1.1/"
   xmlns:cc="http://creativecommons.org/ns#"
   xmlns:rdf="http://www.w3.org/1999/02/22-rdf-syntax-ns#"
   xmlns:svg="http://www.w3.org/2000/svg"
   xmlns="http://www.w3.org/2000/svg"
   xmlns:sodipodi="http://sodipodi.sourceforge.net/DTD/sodipodi-0.dtd"
   xmlns:inkscape="http://www.inkscape.org/namespaces/inkscape"
   width="100%"
   height="100%"
   viewBox="0 0 1024 1024"
   version="1.1"
   xml:space="preserve"
   style="fill-rule:evenodd;clip-rule:evenodd;stroke-linejoin:round;stroke-miterlimit:2;"
   id="svg17"
   sodipodi:docname="retroshare.svg"
   inkscape:version="0.92.4 5da689c313, 2019-01-14"><metadata
     id="metadata23"><rdf:RDF><cc:Work
         rdf:about=""><dc:format>image/svg+xml</dc:format><dc:type
           rdf:resource="http://purl.org/dc/dcmitype/StillImage" /></cc:Work></rdf:RDF></metadata><defs
     id="defs21" /><sodipodi:namedview
     pagecolor="#ffffff"
     bordercolor="#666666"
     borderopacity="1"
     objecttolerance="10"
     gridtolerance="10"
     guidetolerance="10"
     inkscape:pageopacity="0"
     inkscape:pageshadow="2"
     inkscape:window-width="1851"
     inkscape:window-height="1048"
     id="namedview19"
     showgrid="false"
     inkscape:zoom="0.23046875"
     inkscape:cx="-963.25424"
     inkscape:cy="512"
     inkscape:window-x="69"
     inkscape:window-y="32"
     inkscape:window-maximized="1"
     inkscape:current-layer="Layer1" /><g
     id="Layer1"><circle
       cx="518.50848"
       cy="518.50848"
       r="498.29202"
       id="circle2"
       style="fill:#4d4d4d;stroke-width:1.29997492" /><circle
       cx="292.83282"
       cy="318.16415"
       r="83.767784"
       style="fill:#b6d9f7;stroke-width:1.29997492"
       id="circle4" /><path
       d="m 375.22265,318.16415 -7.57885,37.39377 c 0,0 268.4396,54.40785 292.36434,59.25676 0.93987,0.1911 1.85506,-0.41599 2.04485,-1.35457 1.26228,-6.22948 5.6276,-27.76617 6.88987,-33.99565 0.1911,-0.93858 -0.41599,-1.85376 -1.35457,-2.04356 -23.92604,-4.85021 -292.36564,-59.25675 -292.36564,-59.25675 z"
       style="fill:#b6d9f7;stroke-width:1.29997492"
       id="path6"
       inkscape:connector-curvature="0" /><path
       d="m 871.12925,454.58351 c -23.12916,40.03143 -74.40667,53.75395 -114.43808,30.62611 -40.03143,-23.12915 -53.75397,-74.40666 -30.62481,-114.43809 23.12915,-40.03143 74.40665,-53.75395 114.43808,-30.6261 40.03143,23.12914 53.75396,74.40796 30.62481,114.43808 z"
       style="fill:#b6d9f7;stroke-width:1.29997492"
       id="path8"
       inkscape:connector-curvature="0" /><path
       d="m 757.38015,484.01754 -28.58774,-25.27021 c 0,0 -181.4011,205.21402 -197.57018,223.50467 -0.63439,0.71759 -0.56679,1.81347 0.15079,2.44915 4.76311,4.20932 21.22599,18.76254 25.9891,22.97186 0.71759,0.63439 1.81347,0.56679 2.44785,-0.1508 16.16779,-18.29065 197.57018,-223.50467 197.57018,-223.50467 z"
       style="fill:#b6d9f7;stroke-width:1.29997492"
       id="path10"
       inkscape:connector-curvature="0" /><path
       d="m 388.85288,844.28217 c -23.10965,-40.04313 -9.36242,-91.31413 30.67941,-114.42378 40.04312,-23.10966 91.31414,-9.36243 114.42379,30.6794 23.10965,40.04313 9.36241,91.31413 -30.67942,114.42378 -40.04311,23.10966 -91.31413,9.36242 -114.42378,-30.6794 z"
       style="fill:#b6d9f7;stroke-width:1.29997492"
       id="path12"
       inkscape:connector-curvature="0" /><path
       d="m 420.22128,731.05046 36.1757,-12.12746 c 0,0 -87.05802,-259.69338 -94.81757,-282.83943 -0.30419,-0.90739 -1.28827,-1.39747 -2.19566,-1.09328 -6.02668,2.02016 -26.86137,9.00492 -32.88807,11.02509 -0.90737,0.30419 -1.39747,1.28827 -1.09197,2.19565 7.75825,23.14605 94.81757,282.83943 94.81757,282.83943 z"
       style="fill:#b6d9f7;stroke-width:1.29997492"
       id="path14"
       inkscape:connector-curvature="0" /></g></svg>