<?xml version="1.0" encoding="UTF-8" standalone="no"?>
<!DOCTYPE svg PUBLIC "-//W3C//DTD SVG 1.1//EN" "http://www.w3.org/Graphics/SVG/1.1/DTD/svg11.dtd">
<svg version="1.1" xmlns="http://www.w3.org/2000/svg" xmlns:xlink="http://www.w3.org/1999/xlink" preserveAspectRatio="xMidYMid meet" viewBox="0 0 640 640" width="64" height="64"><defs><path d="M602.13 33.39C612.98 33.39 621.79 42.19 621.79 53.05C621.79 165.78 621.79 484.33 621.79 597.07C621.79 607.93 612.98 616.73 602.13 616.73C485.79 616.73 156.45 616.73 40.12 616.73C29.26 616.73 20.46 607.93 20.46 597.07C20.46 484.33 20.46 165.78 20.46 53.05C20.46 42.19 29.26 33.39 40.12 33.39C156.45 33.39 485.79 33.39 602.13 33.39Z" id="a1tYawXxim"></path><path d="M39.57 133.42L602.68 133.42L602.68 598.74L39.57 598.74L39.57 133.42Z" id="a3YwGLTucE"></path><path d="M86.98 85.65C86.98 98.11 76.35 108.23 63.27 108.23C50.19 108.23 39.57 98.11 39.57 85.65C39.57 73.19 50.19 63.07 63.27 63.07C76.35 63.07 86.98 73.19 86.98 85.65Z" id="deVfhfWzY"></path><path d="M153.06 88.79C153.06 101.25 142.44 111.37 129.36 111.37C116.27 111.37 105.65 101.25 105.65 88.79C105.65 76.33 116.27 66.21 129.36 66.21C142.44 66.21 153.06 76.33 153.06 88.79Z" id="c2sDNe2G1m"></path><path d="M228.57 245.03L227.94 290.82L127.77 390.93L84.75 390.35L228.57 245.03Z" id="aOf0J2P3"></path><path d="M225.84 537.7L226.07 491.91L127.78 389.96L84.75 389.74L225.84 537.7Z" id="j1JKVKzMt3"></path><path d="M555.69 390.37L509.9 389.74L407.09 487.14L406.5 530.17L555.69 390.37Z" id="a4CTH07A4"></path><path d="M555.69 390.93L509.9 390.4L409.59 290.43L410.09 247.41L555.69 390.93Z" id="dsMwf0Tor"></path><path d="M363.13 223.25L403.64 216.75L274.48 548.63L234.29 555.18L363.13 223.25Z" id="fhDa7bcgK"></path><path d="M93.39 384.69L125.34 384.69L125.34 393.68L93.39 393.68L93.39 384.69Z" id="a1eFRkU4xG"></path><path d="M512.4 381.94L544.34 381.94L544.34 390.93L512.4 390.93L512.4 381.94Z" id="fkaB6gNYo"></path></defs><g><g><g><use xlink:href="#a1tYawXxim" opacity="1" fill="#6b6b6e" fill-opacity="1"></use></g><g><use xlink:href="#a3YwGLTucE" opacity="1" fill="#dfdfe1" fill-opacity="1"></use></g><g><use xlink:href="#deVfhfWzY" opacity="1" fill="#dfdfe1" fill-opacity="1"></use></g><g><use xlink:href="#c2sDNe2G1m" opacity="1" fill="#dfdfe1" fill-opacity="1"></use></g><g><use xlink:href="#aOf0J2P3" opacity="1" fill="#6b6b6e" fill-opacity="1"></use></g><g><use xlink:href="#j1JKVKzMt3" opacity="1" fill="#6b6b6e" fill-opacity="1"></use></g><g><use xlink:href="#a4CTH07A4" opacity="1" fill="#6b6b6e" fill-opacity="1"></use></g><g><use xlink:href="#dsMwf0Tor" opacity="1" fill="#6b6b6e" fill-opacity="1"></use></g><g><use xlink:href="#fhDa7bcgK" opacity="1" fill="#6b6b6e" fill-opacity="1"></use></g><g><use xlink:href="#a1eFRkU4xG" opacity="1" fill="#6b6b6e" fill-opacity="1"></use></g><g><use xlink:href="#fkaB6gNYo" opacity="1" fill="#6b6b6e" fill-opacity="1"></use></g></g></g></svg>