<?xml version="1.0" encoding="UTF-8" standalone="no"?><!DOCTYPE svg PUBLIC "-//W3C//DTD SVG 1.1//EN" "http://www.w3.org/Graphics/SVG/1.1/DTD/svg11.dtd"><svg width="100%" height="100%" viewBox="0 0 1067 1067" version="1.1" xmlns="http://www.w3.org/2000/svg" xmlns:xlink="http://www.w3.org/1999/xlink" xml:space="preserve" xmlns:serif="http://www.serif.com/" style="fill-rule:evenodd;clip-rule:evenodd;stroke-linejoin:round;stroke-miterlimit:2;"><rect id="ricochet" x="0.42" y="0" width="1066.67" height="1066.67" style="fill:none;"/><path d="M1040.49,533.333c-0,-279.672 -227.059,-506.731 -506.731,-506.731c-279.673,0 -506.732,227.059 -506.732,506.731c0,279.673 227.059,506.731 506.732,506.731c279.672,0 506.731,-227.058 506.731,-506.731Z" style="fill:#4c6b83;"/><path d="M972.447,358.395c2.095,-0.861 3.757,-2.527 4.615,-4.623c0.858,-2.097 0.84,-4.449 -0.05,-6.533c-60.527,-139.896 -183.587,-243.041 -331.911,-278.178c-2.202,-0.511 -4.518,-0.119 -6.429,1.09c-1.911,1.208 -3.258,3.132 -3.74,5.341c-0.014,-0.001 -0.014,0.001 -0.015,0.003c-0.985,4.521 1.845,8.994 6.351,10.04c143.083,33.906 261.793,133.406 320.188,268.359c1.815,4.248 6.707,6.249 10.979,4.49c0.008,0.013 0.01,0.012 0.012,0.011Z" style="fill:#ffc34a;"/><g><path d="M431.352,749.061c-0,-4.489 -1.784,-8.795 -4.958,-11.969c-3.175,-3.175 -7.48,-4.958 -11.97,-4.958c-34.654,-0 -113.329,-0 -147.983,-0c-4.489,-0 -8.795,1.783 -11.969,4.958c-3.175,3.174 -4.958,7.48 -4.958,11.969c0,34.654 0,113.329 0,147.983c0,4.49 1.783,8.795 4.958,11.97c3.174,3.174 7.48,4.957 11.969,4.957c34.654,0 113.329,0 147.983,0c4.49,0 8.795,-1.783 11.97,-4.957c3.174,-3.175 4.958,-7.48 4.958,-11.97l-0,-147.983Z" style="fill:#58c6e9;"/><path d="M431.352,555.915c-0,-4.49 -1.784,-8.795 -4.958,-11.969c-3.175,-3.175 -7.48,-4.958 -11.97,-4.958c-34.654,-0 -113.329,-0 -147.983,-0c-4.489,-0 -8.795,1.783 -11.969,4.958c-3.175,3.174 -4.958,7.479 -4.958,11.969c0,34.654 0,113.329 0,147.983c0,4.489 1.783,8.795 4.958,11.969c3.174,3.175 7.48,4.958 11.969,4.958c34.654,0 113.329,0 147.983,0c4.49,0 8.795,-1.783 11.97,-4.958c3.174,-3.174 4.958,-7.48 4.958,-11.969l-0,-147.983Z" style="fill:#58c6e9;"/><path d="M431.352,362.769c-0,-4.49 -1.784,-8.795 -4.958,-11.97c-3.175,-3.174 -7.48,-4.958 -11.97,-4.958c-34.654,0 -113.329,0 -147.983,0c-4.489,0 -8.795,1.784 -11.969,4.958c-3.175,3.175 -4.958,7.48 -4.958,11.97c0,34.654 0,113.329 0,147.983c0,4.489 1.783,8.795 4.958,11.969c3.174,3.175 7.48,4.958 11.969,4.958c34.654,-0 113.329,-0 147.983,-0c4.49,0 8.795,-1.783 11.97,-4.958c3.174,-3.174 4.958,-7.48 4.958,-11.969l-0,-147.983Z" style="fill:#58c6e9;"/><path d="M431.352,169.622c-0,-4.489 -1.784,-8.794 -4.958,-11.969c-3.175,-3.174 -7.48,-4.958 -11.97,-4.958c-34.654,0 -113.329,0 -147.983,0c-4.489,0 -8.795,1.784 -11.969,4.958c-3.175,3.175 -4.958,7.48 -4.958,11.969c0,34.655 0,113.329 0,147.984c0,4.489 1.783,8.794 4.958,11.969c3.174,3.174 7.48,4.958 11.969,4.958c34.654,-0 113.329,-0 147.983,-0c4.49,-0 8.795,-1.784 11.97,-4.958c3.174,-3.175 4.958,-7.48 4.958,-11.969l-0,-147.984Z" style="fill:#58c6e9;"/><path d="M624.672,169.622c0,-4.489 -1.783,-8.794 -4.958,-11.969c-3.174,-3.174 -7.48,-4.958 -11.969,-4.958c-34.654,0 -113.329,0 -147.983,0c-4.489,0 -8.795,1.784 -11.969,4.958c-3.175,3.175 -4.958,7.48 -4.958,11.969c-0,34.655 -0,113.329 -0,147.984c-0,4.489 1.783,8.794 4.958,11.969c3.174,3.174 7.48,4.958 11.969,4.958c34.654,-0 113.329,-0 147.983,-0c4.489,-0 8.795,-1.784 11.969,-4.958c3.175,-3.175 4.958,-7.48 4.958,-11.969l0,-147.984Z" style="fill:#58c6e9;"/><path d="M772.534,362.769c-0,-4.49 -1.784,-8.795 -4.958,-11.97c-3.175,-3.174 -7.48,-4.958 -11.97,-4.958c-34.654,0 -113.328,0 -147.983,0c-4.489,0 -8.795,1.784 -11.969,4.958c-3.174,3.175 -4.958,7.48 -4.958,11.97c0,34.654 0,113.329 0,147.983c0,4.489 1.784,8.795 4.958,11.969c3.174,3.175 7.48,4.958 11.969,4.958c34.655,-0 113.329,-0 147.983,-0c4.49,0 8.795,-1.783 11.97,-4.958c3.174,-3.174 4.958,-7.48 4.958,-11.969l-0,-147.983Z" style="fill:#58c6e9;"/><path d="M817.993,749.061c0,-4.489 -1.783,-8.795 -4.958,-11.969c-3.174,-3.175 -7.48,-4.958 -11.969,-4.958c-34.654,-0 -113.329,-0 -147.983,-0c-4.49,-0 -8.795,1.783 -11.97,4.958c-3.174,3.174 -4.958,7.48 -4.957,11.969c-0,34.654 -0,113.329 -0,147.983c-0.001,4.49 1.783,8.795 4.957,11.97c3.175,3.174 7.48,4.957 11.97,4.957c34.654,0 113.329,0 147.983,0c4.489,0 8.795,-1.783 11.969,-4.957c3.175,-3.175 4.958,-7.48 4.958,-11.97l0,-147.983Z" style="fill:#58c6e9;"/><path d="M624.672,555.915c0,-4.49 -1.783,-8.795 -4.958,-11.969c-3.174,-3.175 -7.48,-4.958 -11.969,-4.958c-34.654,-0 -113.329,-0 -147.983,-0c-4.489,-0 -8.795,1.783 -11.969,4.958c-3.175,3.174 -4.958,7.479 -4.958,11.969c-0,34.654 -0,113.329 -0,147.983c-0,4.489 1.783,8.795 4.958,11.969c3.174,3.175 7.48,4.958 11.969,4.958c34.654,0 113.329,0 147.983,0c4.489,0 8.795,-1.783 11.969,-4.958c3.175,-3.174 4.958,-7.48 4.958,-11.969l0,-147.983Z" style="fill:#ffc34a;"/><path d="M727.074,260.541c0,-4.489 -1.783,-8.795 -4.958,-11.969c-3.174,-3.175 -7.479,-4.958 -11.969,-4.958l-57.064,0c-4.49,0 -8.795,1.783 -11.97,4.958c-3.174,3.174 -4.957,7.48 -4.957,11.969l-0,57.065c-0,4.489 1.783,8.795 4.957,11.969c3.175,3.174 7.48,4.958 11.97,4.958l57.064,-0c4.49,-0 8.795,-1.784 11.969,-4.958c3.175,-3.174 4.958,-7.48 4.958,-11.969l0,-57.065Z" style="fill:#58c6e9;"/><path d="M727.074,646.834c0,-4.49 -1.783,-8.795 -4.958,-11.97c-3.174,-3.174 -7.479,-4.958 -11.969,-4.958l-57.064,0c-4.49,0 -8.795,1.784 -11.97,4.958c-3.174,3.175 -4.957,7.48 -4.957,11.97l-0,57.064c-0,4.489 1.783,8.795 4.957,11.969c3.175,3.175 7.48,4.958 11.97,4.958l57.064,0c4.49,0 8.795,-1.783 11.969,-4.958c3.175,-3.174 4.958,-7.48 4.958,-11.969l0,-57.064Z" style="fill:#58c6e9;"/></g></svg>