<?xml version="1.0" encoding="UTF-8" standalone="no"?>
<svg
   xmlns:dc="http://purl.org/dc/elements/1.1/"
   xmlns:cc="http://creativecommons.org/ns#"
   xmlns:rdf="http://www.w3.org/1999/02/22-rdf-syntax-ns#"
   xmlns:svg="http://www.w3.org/2000/svg"
   xmlns="http://www.w3.org/2000/svg"
   xmlns:xlink="http://www.w3.org/1999/xlink"
   xmlns:sodipodi="http://sodipodi.sourceforge.net/DTD/sodipodi-0.dtd"
   xmlns:inkscape="http://www.inkscape.org/namespaces/inkscape"
   version="1.1"
   preserveAspectRatio="xMidYMid meet"
   viewBox="0 0 640 640"
   width="64"
   height="64"
   id="svg68"
   sodipodi:docname="rocketchat-desktop.svg"
   inkscape:version="0.92.4 5da689c313, 2019-01-14">
  <metadata
     id="metadata72">
    <rdf:RDF>
      <cc:Work
         rdf:about="">
        <dc:format>image/svg+xml</dc:format>
        <dc:type
           rdf:resource="http://purl.org/dc/dcmitype/StillImage" />
      </cc:Work>
    </rdf:RDF>
  </metadata>
  <sodipodi:namedview
     pagecolor="#ffffff"
     bordercolor="#666666"
     borderopacity="1"
     objecttolerance="10"
     gridtolerance="10"
     guidetolerance="10"
     inkscape:pageopacity="0"
     inkscape:pageshadow="2"
     inkscape:window-width="1850"
     inkscape:window-height="1048"
     id="namedview70"
     showgrid="false"
     inkscape:zoom="3.6875"
     inkscape:cx="17.084746"
     inkscape:cy="24.135593"
     inkscape:window-x="70"
     inkscape:window-y="32"
     inkscape:window-maximized="1"
     inkscape:current-layer="g64" />
  <defs
     id="defs14">
    <path
       d="M621.79 318.31C621.79 484.87 486.56 620.1 320 620.1C153.44 620.1 18.21 484.87 18.21 318.31C18.21 151.75 153.44 16.53 320 16.53C486.56 16.53 621.79 151.75 621.79 318.31Z"
       id="a5zC0dZvz" />
    <path
       d="M106.35 312.38C106.35 239.25 203.51 179.97 323.37 179.97C443.23 179.97 540.4 239.24 540.4 312.38C540.4 385.52 443.24 444.8 323.38 444.8C294.26 444.8 266.49 441.3 241.12 434.97C237.34 436.62 228.54 446.31 203.48 457.29C192.99 461.88 173.52 470.67 145.07 483.64C157.59 459.66 165.08 443.99 167.54 436.63C169.99 429.28 171.91 419.74 173.29 408.02C128.66 369.33 106.35 337.45 106.35 312.38Z"
       id="c7EnrKDDbx" />
    <path
       d="M106.35 307.16C106.35 380.29 203.51 439.57 323.37 439.57C443.23 439.57 540.4 380.29 540.4 307.16C540.4 234.02 443.24 174.74 323.38 174.74C294.26 174.74 266.49 178.24 241.12 184.57C237.34 182.92 228.54 173.23 203.48 162.25C192.99 157.65 173.52 148.87 145.07 135.9C157.59 159.88 165.08 175.55 167.54 182.9C169.99 190.26 171.91 199.8 173.29 211.52C128.66 250.21 106.35 282.09 106.35 307.16Z"
       id="g2vHKRZwqL" />
    <path
       d="M154.45 308.33C154.45 254.69 233.5 211.21 331.01 211.21C428.52 211.21 507.57 254.69 507.57 308.33C507.57 361.98 428.53 405.46 331.02 405.46C307.33 405.46 284.73 402.9 264.09 398.25C261.02 399.46 253.86 406.57 233.47 414.62C224.94 417.99 209.1 424.44 185.95 433.95C196.14 416.36 202.23 404.87 204.23 399.47C206.23 394.08 207.79 387.08 208.91 378.49C172.6 350.1 154.45 326.72 154.45 308.33Z"
       id="a1kkjekKx" />
    <path
       d="M297.62 303.37C297.62 313.97 289.01 322.58 278.41 322.58C267.81 322.58 259.21 313.97 259.21 303.37C259.21 292.77 267.81 284.17 278.41 284.17C289.01 284.17 297.62 292.77 297.62 303.37Z"
       id="b5NL5l6C7t" />
    <path
       d="M369.42 303.37C369.42 313.97 360.82 322.58 350.21 322.58C339.61 322.58 331.01 313.97 331.01 303.37C331.01 292.77 339.61 284.17 350.21 284.17C360.82 284.17 369.42 292.77 369.42 303.37Z"
       id="g1MtNaeqwU" />
    <path
       d="M436.76 303.37C436.76 313.97 428.15 322.58 417.55 322.58C406.95 322.58 398.35 313.97 398.35 303.37C398.35 292.77 406.95 284.17 417.55 284.17C428.15 284.17 436.76 292.77 436.76 303.37Z"
       id="ahgB8ewtN" />
    <path
       d="M154.45 308.33C154.45 254.69 233.5 211.21 331.01 211.21C428.52 211.21 507.57 254.69 507.57 308.33C507.57 361.98 428.53 405.46 331.02 405.46C307.33 405.46 284.73 402.9 264.09 398.25C261.02 399.46 253.86 406.57 233.47 414.62C224.94 417.99 209.1 424.44 185.95 433.95C196.14 416.36 202.23 404.87 204.23 399.47C206.23 394.08 207.79 387.08 208.91 378.49C172.6 350.1 154.45 326.72 154.45 308.33Z"
       id="aaigkZwrG" />
    <path
       d="M154.45 308.33C154.45 254.69 233.5 211.21 331.01 211.21C428.52 211.21 507.57 254.69 507.57 308.33C507.57 361.98 428.53 405.46 331.02 405.46C307.33 405.46 284.73 402.9 264.09 398.25C261.02 399.46 253.86 406.57 233.47 414.62C224.94 417.99 209.1 424.44 185.95 433.95C196.14 416.36 202.23 404.87 204.23 399.47C206.23 394.08 207.79 387.08 208.91 378.49C172.6 350.1 154.45 326.72 154.45 308.33Z"
       id="eQjcNCJgM" />
    <path
       d="M279.64 303.37C279.64 313.97 271.03 322.58 260.43 322.58C249.83 322.58 241.22 313.97 241.22 303.37C241.22 292.77 249.83 284.17 260.43 284.17C271.03 284.17 279.64 292.77 279.64 303.37Z"
       id="atjqjjRHI" />
    <path
       d="M350.21 303.37C350.21 313.97 341.61 322.58 331.01 322.58C320.41 322.58 311.8 313.97 311.8 303.37C311.8 292.77 320.41 284.17 331.01 284.17C341.61 284.17 350.21 292.77 350.21 303.37Z"
       id="bkDMS77vd" />
    <path
       d="M419.9 300.79C419.9 311.39 411.29 320 400.69 320C390.09 320 381.49 311.39 381.49 300.79C381.49 290.19 390.09 281.59 400.69 281.59C411.29 281.59 419.9 290.19 419.9 300.79Z"
       id="aoDojETN" />
  </defs>
  <g
     id="g66">
    <g
       id="g64">
      <g
         id="g18"
         style="fill:#c9c9c9;fill-opacity:1;stroke:#aeaeae;stroke-opacity:1;stroke-width:26;stroke-miterlimit:4;stroke-dasharray:none">
        <use
           xlink:href="#a5zC0dZvz"
           opacity="1"
           fill="#898e92"
           fill-opacity="1"
           id="use16"
           style="fill:#c9c9c9;fill-opacity:1;stroke:#aeaeae;stroke-opacity:1;stroke-width:26;stroke-miterlimit:4;stroke-dasharray:none" />
      </g>
      <g
         id="g22"
         style="fill:#954242;fill-opacity:1">
        <use
           xlink:href="#c7EnrKDDbx"
           opacity="1"
           fill="#b03838"
           fill-opacity="1"
           id="use20"
           style="fill:#954242;fill-opacity:1" />
      </g>
      <g
         id="g26"
         style="fill:#954242;fill-opacity:1">
        <use
           xlink:href="#g2vHKRZwqL"
           id="use24"
           fill-opacity="1"
           fill="#b03838"
           opacity="1"
           style="fill:#954242;fill-opacity:1" />
      </g>
      <g
         id="g30">
        <use
           xlink:href="#a1kkjekKx"
           opacity="1"
           fill="#5f6366"
           fill-opacity="1"
           id="use28" />
      </g>
      <g
         id="g34">
        <use
           xlink:href="#b5NL5l6C7t"
           opacity="1"
           fill="#9f3636"
           fill-opacity="1"
           id="use32" />
      </g>
      <g
         id="g38">
        <use
           xlink:href="#g1MtNaeqwU"
           opacity="1"
           fill="#9f3636"
           fill-opacity="1"
           id="use36" />
      </g>
      <g
         id="g42">
        <use
           xlink:href="#ahgB8ewtN"
           opacity="1"
           fill="#9f3636"
           fill-opacity="1"
           id="use40" />
      </g>
      <g
         id="g46"
         style="fill:#a2a2a2;fill-opacity:1">
        <use
           xlink:href="#aaigkZwrG"
           id="use44"
           fill-opacity="1"
           fill="#5f6366"
           opacity="1"
           style="fill:#a2a2a2;fill-opacity:1" />
      </g>
      <g
         id="g54"
         style="fill:#954242;fill-opacity:1">
        <use
           xlink:href="#atjqjjRHI"
           opacity="1"
           fill="#b03838"
           fill-opacity="1"
           id="use52"
           style="fill:#954242;fill-opacity:1" />
      </g>
      <g
         id="g58"
         style="fill:#954242;fill-opacity:1">
        <use
           xlink:href="#bkDMS77vd"
           opacity="1"
           fill="#b03838"
           fill-opacity="1"
           id="use56"
           style="fill:#954242;fill-opacity:1" />
      </g>
      <g
         id="g62"
         style="fill:#954242;fill-opacity:1">
        <use
           xlink:href="#aoDojETN"
           opacity="1"
           fill="#b03838"
           fill-opacity="1"
           id="use60"
           style="fill:#954242;fill-opacity:1" />
      </g>
    </g>
  </g>
</svg>
