<?xml version="1.0" encoding="UTF-8" standalone="no"?>
<!DOCTYPE svg PUBLIC "-//W3C//DTD SVG 1.1//EN" "http://www.w3.org/Graphics/SVG/1.1/DTD/svg11.dtd">
<svg version="1.1" xmlns="http://www.w3.org/2000/svg" xmlns:xlink="http://www.w3.org/1999/xlink" preserveAspectRatio="xMidYMid meet" viewBox="0 0 640 640" width="64" height="64"><defs><path d="M598.49 321.71C598.49 477.93 474.98 604.76 322.85 604.76C170.72 604.76 47.2 477.93 47.2 321.71C47.2 165.49 170.72 38.66 322.85 38.66C474.98 38.66 598.49 165.49 598.49 321.71Z" id="a6y9m2MFP"></path><path d="M222.28 373.55C222.54 374.66 222.87 375.76 223.27 376.82C223.49 377.44 223.61 378.08 223.87 378.68C224.7 380.49 225.73 382.2 226.95 383.77C236.59 396.16 259.33 403.59 287.77 403.59C290.54 403.59 293.22 403.44 295.85 403.21C296.78 403.13 297.63 403.01 298.52 402.89C300.19 402.7 301.84 402.46 303.45 402.17C304.48 401.98 305.49 401.78 306.49 401.56C307.95 401.22 309.38 400.83 310.8 400.42C311.72 400.15 312.7 399.91 313.57 399.61C315.56 398.94 317.5 398.17 319.4 397.32C320.32 396.91 321.24 396.39 322.17 395.98C323.35 395.38 324.51 394.76 325.65 394.12C326.46 393.65 327.29 393.19 328.07 392.67C329.82 391.54 331.55 390.33 333.2 389.02C333.59 388.71 333.96 388.38 334.33 388.1C336.08 386.66 337.75 385.13 339.34 383.52C339.35 383.5 339.46 383.39 339.48 383.38C341.36 381.44 343.12 379.4 344.76 377.26C344.76 377.26 344.86 377.18 344.9 377.13C348.79 372.07 352.08 366.58 354.71 360.75C331.8 375.25 305.57 383.6 278.53 385.02C259.16 385.55 239.92 381.63 222.28 373.55Z" id="aoAJfb7nd"></path><path d="M408.94 249.43C404.08 233.77 381.23 228.07 362.1 226.14C358.9 225.81 355.69 225.57 352.51 225.41C352.41 225.41 351.89 225.39 350.94 225.34C349.21 225.28 348.25 225.24 348.06 225.23C344.78 225.14 341.53 225.11 338.35 225.15C358.13 237.5 373.38 255.99 381.77 277.83C382 278.49 382.14 279.12 382.35 279.77C382.42 279.95 382.45 280.12 382.52 280.3C385.16 288.52 386.56 297.09 386.67 305.73C394.52 295.81 401.03 284.88 406.01 273.23C406.69 271.53 407.3 269.86 407.79 268.26C407.85 268.05 407.9 267.86 407.96 267.65C409.5 262.99 410.09 258.07 409.7 253.18C409.7 253.12 409.7 253.07 409.7 253.01C409.7 252.86 409.7 252.69 409.7 252.55C409.56 251.65 409.36 250.77 409.11 249.9C409.06 249.74 408.99 249.59 408.94 249.43Z" id="bu3mjOt3D"></path><path d="M352.24 437.84C353.33 438.07 354.44 438.25 355.54 438.45C356.65 438.66 357.7 438.84 358.8 439.02C359.9 439.2 361.12 439.35 362.29 439.49C363.47 439.64 364.42 439.76 365.48 439.87C366.54 439.99 367.87 440.09 369.06 440.17C370.25 440.26 371.2 440.31 372.27 440.36C373.34 440.4 374.65 440.43 375.83 440.44C377.01 440.45 378.04 440.44 379.13 440.44C380.23 440.44 381.46 440.37 382.63 440.3C383.79 440.23 384.9 440.12 386.04 440.01C387.17 439.89 388.29 439.79 389.41 439.63C390.52 439.47 391.8 439.23 392.99 439.01C394.18 438.79 395.11 438.66 396.15 438.42C397.7 438.07 399.23 437.62 400.77 437.17C402.06 436.8 403.35 436.38 404.62 435.92C406.12 435.39 407.62 434.85 409.1 434.21C410.02 433.82 410.95 433.34 411.81 432.9C413.03 432.32 414.25 431.72 415.5 431.04C416.42 430.53 417.35 429.93 418.27 429.35C419.41 428.65 420.55 427.93 421.68 427.13C422.61 426.49 423.47 425.8 424.36 425.1C425.47 424.24 426.57 423.34 427.64 422.39C428.49 421.65 429.33 420.87 430.16 420.07C431.26 419 432.34 417.88 433.41 416.72C434.16 415.9 434.91 415.09 435.64 414.21C436.8 412.85 437.92 411.42 439.03 409.89C439.63 409.07 440.25 408.29 440.88 407.43C442.72 404.78 444.47 401.99 446.07 399.08C447.88 395.79 449.51 392.41 450.95 388.95C451.34 388.02 451.68 387.09 452.04 386.22C453.01 383.7 453.86 381.22 454.58 378.79C454.81 377.98 455.08 377.17 455.29 376.37C456.08 373.38 456.7 370.36 457.13 367.3C457.19 366.85 457.2 366.41 457.25 365.97C457.54 363.5 457.69 361.02 457.71 358.54C457.71 357.71 457.71 356.88 457.71 356.05C457.66 353.91 457.5 351.77 457.22 349.64C457.15 349.03 457.11 348.42 457.02 347.78C456.63 345.22 456.09 342.69 455.41 340.2C455.25 339.61 455.05 339.05 454.87 338.48C454.29 336.56 453.63 334.69 452.9 332.9C452.63 332.2 452.34 331.5 452.04 330.82C451.2 328.89 450.3 327.01 449.27 325.19C449.1 324.86 448.93 324.49 448.75 324.16C447.56 322.03 446.28 320 444.94 318.02C444.57 317.47 444.19 316.95 443.81 316.41C442.75 314.94 441.68 313.51 440.57 312.13C440.44 311.97 439.41 310.69 439.28 310.53C437.82 308.78 436.33 307.08 434.81 305.49C434.8 305.48 434.69 305.37 434.68 305.36C433.44 304.06 432.18 302.86 430.91 301.65C440.44 327.52 438.32 356.27 425.13 380.46C401.32 420.2 374.69 433.08 351.83 437.75C351.83 437.75 352.2 437.83 352.24 437.84Z" id="aimApdaw"></path><path d="M196.8 401.57C196.52 402.36 196.26 403.13 195.99 403.94C195.41 405.72 194.87 407.53 194.38 409.36C194.22 409.91 194.05 410.46 193.91 411.03C193.29 413.4 192.79 415.78 192.4 418.16C192.3 418.74 192.25 419.34 192.16 419.92C191.89 421.78 191.68 423.55 191.55 425.35C191.5 426.14 191.46 426.93 191.43 427.71C191.38 429.39 191.43 431.05 191.48 432.71C191.48 433.42 191.48 434.15 191.59 434.85C191.78 437.13 192.13 439.39 192.65 441.61C193.26 444.04 194.16 446.4 195.31 448.62C195.64 449.26 196.05 449.83 196.42 450.48C197.3 451.97 198.32 453.39 199.45 454.7C199.98 455.3 200.55 455.87 201.13 456.44C202.36 457.63 203.69 458.71 205.1 459.69C205.79 460.17 206.46 460.68 207.21 461.13C208.89 462.1 210.64 462.95 212.44 463.68C213.21 464.01 213.88 464.39 214.68 464.68C217.38 465.63 220.14 466.38 222.94 466.93C224.42 467.23 226.07 467.39 227.65 467.6C229.23 467.81 231.03 468.08 232.83 468.22C234.64 468.36 236.53 468.41 238.43 468.46C240.6 468.51 242.8 468.55 245.11 468.46C246.34 468.46 247.55 468.4 248.74 468.34C252.81 468.13 257.05 467.79 261.48 467.22C279.46 465.5 296.6 458.78 310.98 447.8C311.06 447.74 311.7 447.21 311.78 447.15C313.63 445.58 315.43 443.95 317.18 442.23C317.34 442.06 317.51 441.91 317.67 441.75C319.56 439.83 321.34 437.8 323.01 435.69C323.06 435.64 323.1 435.6 323.15 435.56C325.54 432.46 327.7 429.21 329.62 425.81C329.71 425.65 329.88 425.58 329.98 425.43C333.01 420.12 335.51 414.52 337.44 408.72C337.41 408.73 337.2 408.83 337.18 408.85C326.39 415.58 314.24 419.83 301.63 421.28C297.03 421.87 292.4 422.17 287.77 422.16C253.17 422.16 225.7 412.33 212.38 395.24C211.04 393.47 209.82 391.61 208.75 389.66C208.47 389.16 208.21 388.66 207.95 388.15C207.11 386.5 206.37 384.79 205.76 383.04C205.67 382.79 205.53 382.57 205.44 382.31C205.34 382.49 205.24 382.66 205.14 382.86C204.16 384.66 203.18 386.57 202.22 388.53C202.09 388.8 201.96 389.1 201.83 389.38C201 391.14 200.19 392.96 199.41 394.83C199.09 395.47 198.83 396.21 198.54 396.93C197.93 398.47 197.35 400.02 196.8 401.57Z" id="a7b1Ohwjf"></path><path d="M282.04 125.98C282.97 126.11 283.89 126.31 284.81 126.46C288.16 127 291.48 127.73 294.74 128.64C295.48 128.86 296.22 129.07 296.96 129.3C305.08 131.81 312.79 135.47 319.87 140.18C324.8 139.25 329.67 138.17 334.35 136.95C335.54 136.64 336.72 136.32 337.89 136.02C339.45 135.6 340.92 135.09 342.51 134.66C341.86 134.45 341.27 134.18 340.66 133.97C336.21 132.47 331.86 130.88 327.61 129.21C327.08 129 326.54 128.81 326.02 128.6C321 126.55 316.14 124.41 311.38 122.2C311.26 122.14 310.28 121.67 310.16 121.61C300.52 117.08 291.35 112.33 282.62 107.76C274.21 103.37 266.27 99.23 258.64 95.69C258.55 95.69 258.49 95.57 258.39 95.53C246.99 89.52 234.44 86.02 221.58 85.27C216.85 85.25 212.15 86 207.66 87.49C150.04 106.7 126.42 164.66 130.82 216.84C130.93 216.77 131.74 216.23 131.84 216.17C132.91 215.45 133.96 214.71 135.03 214C137.1 212.59 139.07 211.21 141.08 209.75C141.01 209.43 140.99 209.1 140.93 208.82C140.77 207.95 140.62 207.08 140.51 206.19C140.17 203.92 139.98 201.63 139.97 199.32C139.97 163.32 185.3 125.05 269.3 125.05C273.56 125.08 277.82 125.39 282.04 125.98Z" id="c7vtBUoti"></path><path d="M160.34 210.06C160.43 210.35 160.54 210.63 160.65 210.9C164.48 219.83 169.79 228.03 176.35 235.17C177.85 231.34 179.62 227.62 181.63 224.03C182.08 223.23 182.56 222.44 183.03 221.63C184.56 219.05 186.22 216.52 188.02 214.05C188.67 213.12 189.3 212.27 189.98 211.39C192.51 208.11 195.24 204.99 198.15 202.04C200.25 199.94 202.51 198 204.91 196.23C205.18 196.03 205.44 195.81 205.71 195.61C207.87 194.06 210.15 192.67 212.51 191.45C212.89 191.26 213.26 191.05 213.64 190.88C215.91 189.76 218.24 188.79 220.64 187.99C221 187.87 221.36 187.76 221.72 187.65C224.14 186.88 226.61 186.26 229.11 185.8C229.17 185.79 229.69 185.72 229.75 185.71C232.28 185.29 234.84 185.01 237.41 184.88C237.43 184.88 237.63 184.88 237.66 184.88C240.21 184.78 242.76 184.81 245.31 184.96C245.41 184.97 246.19 185 246.29 185.01C248.73 185.17 251.15 185.46 253.56 185.83C253.68 185.84 254.63 185.99 254.74 186.01C257.13 186.4 259.48 186.88 261.8 187.43C261.91 187.46 262.74 187.67 262.85 187.69C265.22 188.28 267.57 188.93 269.86 189.64C269.9 189.66 270.25 189.78 270.29 189.79C272.57 190.51 274.8 191.29 276.97 192.1C277.03 192.13 277.5 192.3 277.56 192.33C279.7 193.14 281.77 193.99 283.77 194.86C283.86 194.9 284.64 195.24 284.74 195.28C286.65 196.13 288.5 196.99 290.28 197.84C290.38 197.89 291.16 198.28 291.26 198.32C292.99 199.18 294.65 200.03 296.21 200.87C296.28 200.91 296.83 201.21 296.9 201.25C298.49 202.1 300.01 202.95 301.37 203.75C301.39 203.76 301.5 203.82 301.51 203.83C302.88 204.62 304.1 205.35 305.21 206.05C305.26 206.08 305.62 206.3 305.67 206.33C306.72 206.98 307.63 207.57 308.44 208.09C308.46 208.1 308.64 208.22 308.66 208.23C322.08 206.7 335.59 206.14 349.1 206.54C341.36 187.31 328.77 170.43 312.58 157.57C306.43 153.08 299.61 149.59 292.39 147.23C292.34 147.21 291.92 147.06 291.87 147.04C288.65 146.04 285.37 145.26 282.04 144.73C281.27 144.6 280.48 144.49 279.69 144.39C276.24 143.9 272.77 143.64 269.3 143.62C192.84 143.62 158.45 176.2 158.45 199.32C158.45 201.09 158.61 202.84 158.92 204.57C158.98 204.9 159.08 205.27 159.16 205.62C159.46 207.12 159.85 208.61 160.34 210.06Z" id="a3UCfmMqL"></path><path d="M361.67 292.17C311.65 292.17 279.8 308.55 271.3 338.31C281 349.45 297.33 355.28 321.26 356.76C336.2 350.43 350.33 342.35 363.39 332.68C368.29 319.81 369.42 305.79 366.65 292.28C364.98 292.28 363.39 292.17 361.67 292.17Z" id="dAD68HwQb"></path><path d="M296.58 77.11C292.41 80.24 287.95 83.61 282.73 86.89C283.56 87.32 290.21 90.78 291.04 91.22C303.37 97.71 316.52 104.55 330.71 110.44C331.51 110.78 332.33 111.07 333.13 111.37C335.83 112.47 338.55 113.54 341.34 114.56C342.71 115.05 344.11 115.48 345.53 115.97C347.81 116.74 350.09 117.53 352.42 118.23C354.1 118.73 355.83 119.16 357.53 119.63C359.67 120.2 361.8 120.8 363.99 121.32C365.84 121.73 367.69 122.07 369.54 122.43C371.39 122.79 373.17 123.16 375.01 123.47C378.77 122.03 382.42 120.61 386 119.2C386.8 118.88 387.53 118.62 388.32 118.32C393.93 116.13 399.4 114 404.76 112.07C404.84 112.04 405.52 111.78 405.6 111.74C401.19 106.52 397.12 101.25 393.14 96.1C377.64 75.97 365.36 60.06 343.19 60.06C326.03 59.35 309.27 65.48 296.58 77.11Z" id="a1OZt3aJLD"></path><path d="M108.96 402.67C110.06 400.2 111.2 397.73 112.4 395.24C112.97 394.07 113.56 392.88 114.14 391.71C115.31 389.35 116.5 386.98 117.73 384.62C117.88 384.32 119.11 381.96 119.27 381.66C120.88 378.56 122.54 375.47 124.23 372.37C124.26 372.33 124.47 371.93 124.5 371.88C126.51 368.17 128.54 364.46 130.6 360.74C147.86 329.37 165.7 296.94 170.4 263.53C170.4 261.83 170.61 259.7 170.9 257.38C170.68 257.12 168.93 255.08 168.71 254.83C160.98 246.45 154.07 237.35 148.06 227.64C147.22 228.23 146.35 228.76 145.49 229.33C140.41 232.78 135.34 236.13 130.24 239.4C130.17 239.44 129.67 239.77 129.61 239.81C96.94 260.84 66.07 280.74 66.07 320.03C66.07 357.57 83.03 376.66 104.52 400.9C105.66 402.2 106.82 403.49 107.97 404.81C108.28 404.1 108.65 403.38 108.96 402.67Z" id="a6ixW67ay"></path><path d="M337.22 453.27C335.91 452.91 334.59 452.56 333.34 452.19C320.12 466.6 303.02 476.84 284.11 481.67C284.37 481.87 286.49 483.55 286.75 483.76C301.71 496.03 317.55 507.18 334.16 517.1C343.5 522.56 353.64 526.51 364.21 528.78C367.65 529.44 371.15 529.73 374.65 529.67C374.7 529.67 375.09 529.67 375.14 529.67C376.47 529.67 377.76 529.48 379.03 529.32C380.1 529.15 381.17 528.95 382.22 528.7C382.87 528.56 383.54 528.45 384.18 528.26C386.08 527.71 387.93 527 389.72 526.15C389.96 526.04 390.19 525.89 390.43 525.77C392.05 524.95 393.61 524.02 395.11 522.98C395.49 522.72 395.88 522.45 396.27 522.16C398.06 520.83 399.75 519.37 401.33 517.79C404.67 514.43 407.8 511.1 410.72 507.78C410.82 507.66 411.66 506.71 411.77 506.59C414.68 503.27 417.38 499.97 419.89 496.68C419.93 496.63 420.26 496.19 420.3 496.14C422.88 492.74 425.23 489.37 427.36 486.02C429.53 482.6 431.46 479.23 433.15 475.9C433.17 475.87 433.26 475.67 433.27 475.64C434.6 472.99 435.71 470.43 436.73 467.9C436.95 467.35 437.2 466.77 437.41 466.23C438.25 464.03 438.91 461.89 439.52 459.79C439.8 458.79 440.07 457.79 440.31 456.8C440.72 455.17 441.05 453.56 441.33 451.98C441.58 450.56 441.77 449.2 441.94 447.8C442.01 447.13 442.07 446.5 442.13 445.85C442.33 443.56 442.43 441.32 442.42 439.13C442.42 438.77 442.42 438.4 442.42 438.04C442.42 436.78 442.35 435.54 442.26 434.32C424.55 450.89 401.06 459.79 376.88 459.1C376.17 459.1 375.49 459 374.78 458.99C371.15 458.94 367.55 458.76 364.04 458.42C363.18 458.33 362.36 458.22 361.51 458.12C357.81 457.7 354.2 457.19 350.71 456.51C350.54 456.48 349.15 456.19 348.97 456.16C345.34 455.44 341.83 454.63 338.51 453.75C338.25 453.65 337.47 453.37 337.22 453.27Z" id="b7H3N6OfDz"></path><path d="M161.23 342.76C159.45 346.22 157.65 349.64 155.83 353.02C155.27 354.08 154.72 355.13 154.15 356.18C151.67 360.76 149.21 365.28 146.76 369.71C144.75 373.37 142.8 376.95 140.85 380.55C139.57 382.9 138.32 385.24 137.15 387.51C136.65 388.44 136.23 389.36 135.72 390.29C133.38 394.75 131.21 399.06 129.2 403.22C128.48 404.71 127.78 406.2 127.1 407.68C126.03 409.99 125.02 412.26 124.07 414.47C122.71 417.68 121.46 420.86 120.38 423.96C112.18 447 112.59 465.08 128.05 480.6C151.38 504.03 170.11 509.58 195.35 508.5C195.43 508.48 195.51 508.46 195.6 508.45C201.14 508.22 206.92 507.66 213.08 506.93C213.2 506.92 214.11 506.8 214.22 506.79C217.06 506.45 219.97 506.07 222.97 505.66C223.04 505.65 223.64 505.56 223.72 505.55C227 505.1 230.39 504.63 233.88 504.11C234.13 504.07 235.38 503.9 237.63 503.58L245.64 502.45C248.31 502.09 249.8 501.89 250.1 501.85C254.64 501.24 259.28 500.64 264.16 500.08C264.18 500.08 264.38 500.08 264.41 500.08C268.1 499.65 271.94 499.25 275.91 498.87C275.29 498.38 270.34 494.44 269.72 493.95C266.33 491.25 263.17 488.75 260.02 486.28C258.37 486.45 256.55 486.47 254.85 486.58C250.31 486.96 245.92 487.2 241.59 487.2C194.29 487.2 179.04 464.56 174.59 445.57C174.1 443.42 173.73 441.25 173.48 439.07C173.39 438.33 173.35 437.59 173.29 436.85C173.17 435.33 173.06 433.82 173.03 432.27C173.03 431.41 173.03 430.53 173.03 429.66C173.03 428.2 173.1 426.73 173.2 425.25C173.26 424.32 173.32 423.48 173.41 422.58C173.55 421.04 173.75 419.51 173.97 417.93C174.08 417.11 174.19 416.29 174.32 415.47C174.65 413.61 175.03 411.69 175.44 409.82C175.54 409.36 175.62 408.89 175.73 408.42C176.27 406.09 176.89 403.78 177.58 401.47C177.78 400.78 178.02 400.1 178.23 399.4C178.74 397.79 179.26 396.17 179.82 394.59C180.12 393.74 180.43 392.92 180.75 392.09C181.28 390.67 181.83 389.25 182.4 387.87C182.75 387.02 183.09 386.2 183.45 385.37C184.05 383.99 184.66 382.65 185.3 381.31C185.65 380.56 185.99 379.81 186.35 379.08C187.09 377.58 187.85 376.14 188.61 374.72C188.88 374.2 189.15 373.68 189.43 373.18C190.47 371.29 191.53 369.48 192.61 367.75C192.87 367.35 193.11 366.99 193.37 366.6C194.21 365.29 195.04 364.02 195.89 362.83C196.28 362.27 196.67 361.77 197.06 361.25C197.77 360.32 198.48 359.4 199.2 358.47C199.62 357.96 200.02 357.47 200.44 356.99C200.73 356.65 201.02 356.27 201.31 355.95C190.98 341.51 182.89 325.59 177.29 308.72C177.27 308.68 177.16 308.36 177.14 308.32C176.22 310.67 175.16 312.96 174.17 315.29C173.24 317.45 172.39 319.6 171.4 321.73C170.3 324.17 169.17 326.58 168.01 329.01C166.76 331.64 165.48 334.3 164.17 336.93C163.19 338.89 162.22 340.83 161.23 342.76Z" id="aRK5iVVL6"></path><path d="M505.31 249C503.89 244.36 502.63 239.85 501.47 235.34C501.12 233.95 500.78 232.55 500.44 231.21C499.42 227.02 498.46 222.85 497.58 218.76C497.33 217.54 497.09 216.37 496.83 215.16C496.38 212.95 495.9 210.74 495.47 208.56C495.46 208.52 495.46 208.48 495.47 208.44C495.09 206.59 494.68 204.61 494.32 202.76C488.64 174.17 483.75 149.47 465.98 131.61C449.72 115.27 429.82 122.01 393.14 136.4C380.55 141.33 366.94 146.62 351.98 151.26C351.18 151.51 350.3 151.72 349.49 151.96C345.63 153.11 341.76 154.26 337.71 155.29C337.78 155.36 337.82 155.44 337.9 155.51C341.44 159.27 344.75 163.23 347.81 167.39C348.17 167.88 348.53 168.32 348.88 168.85C351.72 172.81 354.31 176.83 356.66 180.87C357.05 181.52 357.4 182.16 357.77 182.81C360.04 186.82 362.11 190.8 363.95 194.72C364.23 195.3 364.46 195.85 364.73 196.43C366.58 200.47 368.24 204.39 369.68 208.12C369.68 208.13 369.73 208.25 369.74 208.27C372.02 208.58 374.28 209.01 376.54 209.43C376.58 209.43 376.85 209.48 376.89 209.48C378.74 209.83 380.51 210.21 382.3 210.63C383.66 210.93 384.94 211.26 386.22 211.61C387.88 212.05 389.51 212.54 391.12 213.03C392.96 213.65 394.72 214.27 396.39 214.89C397.26 215.22 398.12 215.56 398.96 215.92C401.11 216.85 403.09 217.77 404.94 218.84C405.7 219.25 406.44 219.67 407.17 220.11C408.92 221.17 410.61 222.32 412.22 223.57C412.9 224.09 413.57 224.61 414.22 225.16C415.68 226.43 417.06 227.79 418.35 229.23C419.03 229.98 419.68 230.75 420.3 231.56C421.5 233.1 422.57 234.72 423.52 236.43C423.72 236.79 424.01 237.09 424.2 237.45C425.34 239.71 426.24 242.08 426.92 244.52C428.88 245.03 430.83 245.55 432.85 246.05C433.3 246.16 436.93 247.07 437.39 247.19C441.86 248.28 446.41 249.37 451.06 250.48C471.51 254.98 491.73 260.53 511.62 267.11C511.48 266.71 511.37 266.33 511.22 265.94C509.41 261.33 507.8 256.73 506.33 252.17C505.99 251.11 505.63 250.05 505.31 249Z" id="d11qDVTL4S"></path><path d="M509.46 442.7C492.5 456.32 474.85 469.07 456.61 480.9C456.28 481.13 454.62 482.24 451.64 484.24C449.75 485.51 448.71 486.21 448.5 486.35C448.04 487.23 447.45 488.1 446.96 488.97C445.75 491.12 444.5 493.29 443.1 495.47C442.18 496.96 441.17 498.44 440.16 499.93C438.94 501.79 437.63 503.64 436.26 505.45C435.09 507.02 433.93 508.61 432.68 510.19C431.14 512.16 429.45 514.16 427.75 516.17C426.55 517.57 425.42 518.95 424.17 520.38C421.12 523.81 417.88 527.28 414.35 530.83C412.71 532.47 411.04 533.98 409.36 535.37C409.14 535.54 408.91 535.69 408.69 535.87C407.14 537.11 405.58 538.25 404 539.3C403.96 539.32 403.65 539.5 403.61 539.53C401.91 540.63 400.14 541.64 398.32 542.55C398.31 542.55 398.25 542.55 398.25 542.55C390.66 546.33 382.3 548.27 373.83 548.22C371.47 548.21 369.12 548.08 366.78 547.82C366.75 547.82 366.54 547.82 366.52 547.82C366.19 548.25 365.86 548.65 365.54 549.08C364.28 550.78 363 552.57 361.71 554.37C361.2 555.09 360.71 555.76 360.19 556.49C360.03 556.71 358.78 558.47 358.62 558.69C413.12 557.11 463.67 538.53 493.66 508.39C508.64 493.43 511.31 466.73 509.89 442.39C509.8 442.45 509.5 442.67 509.46 442.7Z" id="capuFTAjY"></path><path d="M518.03 225.15C518.16 225.7 518.29 226.24 518.42 226.8C518.94 228.93 519.51 231.06 520.09 233.2C521 236.63 522 240.1 523.08 243.61C523.67 245.52 524.23 247.42 524.92 249.33C525.62 251.25 526.37 253.36 527.12 255.39C527.87 257.41 528.67 259.56 529.53 261.66C530.26 263.44 531.02 265.26 531.82 267.07C532.98 269.7 534.24 272.34 535.51 275C536 275.98 536.44 276.96 536.98 277.95C550.16 284.11 561.17 294.13 568.58 306.7C576.63 297.36 581.77 285.85 583.36 273.6C583.36 260.6 552.77 244.01 528.2 230.72C524.81 228.86 521.4 227.01 518.03 225.15Z" id="b1sKPV4241"></path><path d="M525.94 293.3C500.42 282.18 473.78 273.87 446.49 268.51C440.78 267.14 435.21 265.78 429.77 264.44C429.59 264.4 428.11 264.05 427.93 264C427.38 267.28 426.6 270.52 425.59 273.69C426.16 274.1 426.75 274.51 427.35 274.95C427.42 275 428.04 275.44 428.12 275.5C428.68 275.92 429.27 276.34 429.85 276.79C430.17 277.02 430.48 277.26 430.77 277.51C430.89 277.6 431.46 278.04 432.49 278.84L433.57 279.69L435.27 281.08L436.48 282.09L438.17 283.53C438.93 284.2 439.35 284.57 439.44 284.64C440 285.14 440.56 285.65 441.13 286.17C441.69 286.69 442.05 286.99 442.46 287.41C442.86 287.83 443.57 288.44 444.12 288.98C444.67 289.52 445.04 289.91 445.52 290.38C445.98 290.86 446.58 291.43 447.12 291.98C447.81 292.69 448.5 293.44 449.18 294.18C449.86 294.92 450.48 295.6 451.12 296.33C451.76 297.07 452.35 297.72 452.97 298.43C453.38 298.93 453.8 299.45 454.21 299.96C454.77 300.63 455.31 301.3 455.86 301.99C456.27 302.53 456.68 303.07 457.1 303.62C457.62 304.32 458.14 305.01 458.66 305.73C459.06 306.29 459.46 306.88 459.86 307.46C460.36 308.18 460.86 308.9 461.34 309.64C461.82 310.37 462.11 310.84 462.49 311.5C462.96 312.25 463.42 313.01 463.89 313.78C463.99 313.97 464.86 315.45 464.97 315.64C465.41 316.43 465.84 317.23 466.27 318.05C466.6 318.68 466.93 319.32 467.26 319.97C467.68 320.82 468.07 321.67 468.47 322.54C468.76 323.17 469.06 323.82 469.34 324.47C469.74 325.4 470.1 326.33 470.46 327.26C470.71 327.9 470.98 328.53 471.21 329.18C471.58 330.2 471.91 331.21 472.25 332.25C472.44 332.84 472.65 333.42 472.83 334.03C473.22 335.33 473.57 336.66 473.9 337.99C473.98 338.35 474.08 338.68 474.17 339.03C474.57 340.74 474.92 342.48 475.2 344.24C475.28 344.65 475.31 345.08 475.38 345.5C475.58 346.84 475.77 348.2 475.91 349.59C475.98 350.23 476.01 350.89 476.05 351.54C476.14 352.72 476.23 353.9 476.26 355.1C476.26 355.25 476.26 356 476.26 357.35C476.26 359.41 476.26 360.56 476.26 360.79C476.26 361.58 476.18 362.39 476.13 363.19C476.05 364.33 475.97 365.48 475.85 366.65C475.77 367.48 475.66 368.33 475.54 369.16C475.39 370.33 475.21 371.5 475.01 372.68C474.85 373.55 474.69 374.42 474.52 375.29C474.28 376.48 474 377.69 473.71 378.89C473.49 379.77 473.28 380.66 473.04 381.55C472.7 382.79 472.31 384.05 471.92 385.32C471.65 386.2 471.38 387.07 471.07 387.96C470.63 389.29 470.15 390.63 469.59 391.97C469.27 392.83 468.97 393.67 468.61 394.54C468 396.01 467.31 397.51 466.63 399.01C466.29 399.77 465.97 400.51 465.62 401.27C464.51 403.53 463.35 405.82 462.07 408.13C460.69 410.61 459.27 412.98 457.82 415.26C457.82 415.42 457.88 415.61 457.92 415.76C458.49 418.11 458.99 420.54 459.43 423.03C459.59 423.96 459.72 424.89 459.86 425.82C460.17 427.95 460.42 430.14 460.6 432.38C460.69 433.5 460.76 434.61 460.8 435.74C460.9 438.13 460.9 440.57 460.8 443.06C460.76 444.14 460.72 445.19 460.63 446.29C460.4 449.4 460 452.51 459.43 455.58C459.36 455.98 459.36 456.35 459.28 456.75C477.51 444.78 494.79 431.41 510.97 416.76C511.17 416.58 511.41 416.47 511.63 416.3C536.78 392.57 555.65 364.45 555.65 329.31C555.65 328.58 555.48 327.91 555.43 327.2C554.5 313.95 544.85 302.87 525.94 293.3Z" id="b1sQjGukFu"></path><path d="M361.05 385.95C359.89 396.99 357.37 407.83 353.56 418.24C371.58 413.33 390.95 401.53 409.19 370.95C423.13 347.59 418.24 320.96 411.57 302.52C402.06 316.87 391.34 330.38 379.52 342.88C376.36 358.35 370.07 373.01 361.05 385.95Z" id="fYoAP8FzU"></path><path d="M263.01 207.1C261.52 206.65 260.02 206.24 258.49 205.85C257.47 205.6 256.43 205.37 255.4 205.16C253.88 204.83 252.36 204.56 250.84 204.33C249.77 204.17 248.7 204.03 247.64 203.92C246.12 203.76 244.6 203.68 243.09 203.62C242.02 203.62 240.95 203.57 239.9 203.62C238.32 203.62 236.76 203.81 235.2 203.99C234.17 204.1 233.15 204.2 232.14 204.38C230.58 204.69 229.04 205.08 227.52 205.56C226.6 205.85 225.61 206.08 224.68 206.44C223.04 207.1 221.46 207.88 219.94 208.76C219.18 209.18 218.39 209.49 217.64 209.98C215.3 211.47 213.14 213.22 211.17 215.18C208.6 217.79 206.21 220.56 204 223.49C203.51 224.13 203.04 224.78 202.57 225.43C198.36 231.23 195.03 237.61 192.68 244.38C192.6 244.65 192.5 244.92 192.41 245.19C191.25 248.7 190.36 252.31 189.76 255.97C189.26 259.03 188.93 262.12 188.79 265.21C188.65 283.2 192.67 300.96 200.55 317.11C199.93 280.83 208.86 252.96 227.29 234.01C239.51 221.76 255.11 213.49 272.07 210.25C271.91 210.19 270.68 209.72 270.52 209.66C269.02 209.1 267.48 208.55 265.92 208.03C265 207.71 263.99 207.42 263.01 207.1Z" id="a1h2H6rao8"></path><path d="M240.37 247.11C220.37 267.76 214.43 303.19 222.49 352.24C239.27 362.65 258.84 367.61 278.53 366.45C278.6 366.45 279.17 366.45 279.24 366.45C253.98 355.18 241.58 333.68 241.58 301.46C241.58 296.33 245.72 292.17 250.82 292.17C255.92 292.17 260.06 296.33 260.06 301.46C260.04 306.19 260.42 310.91 261.21 315.57C273.7 295.01 300.87 274.16 359.63 273.67C349.59 255.27 330.82 239.58 303.61 226.93C296.9 226.24 262.78 223.95 240.37 247.11Z" id="bnlqvuNF3"></path><path d="M253.87 520.08C253.52 520.12 250.77 520.47 250.43 520.51C247.86 520.87 245.46 521.21 243.04 521.56C242.39 521.65 237.15 522.4 236.49 522.49C232.62 523.04 228.92 523.57 225.31 524.06C224.96 524.11 222.23 524.47 221.89 524.52C220.12 524.75 218.32 525 216.6 525.21C242.93 551.52 272.31 580 297 580C311.4 579.85 324.88 572.91 333.41 561.25C335.4 558.92 337.33 556.49 339.2 553.99C339.21 553.98 339.29 553.88 339.3 553.86C341.31 551.18 343.25 548.44 345.17 545.75C345.6 545.13 346.09 544.51 346.51 543.89C346.55 543.83 346.89 543.36 346.93 543.3C345.84 542.92 344.8 542.37 343.71 541.94C341.43 541.06 339.15 540.09 336.87 539.07C333.91 537.73 331.02 536.29 328.14 534.78C326.99 534.17 325.83 533.56 324.68 532.93C320.43 530.57 316.36 528.13 312.47 525.62C312.46 525.62 312.4 525.62 312.4 525.62C307.28 522.31 302.38 518.99 298.09 515.87C294.72 516.07 291.46 516.3 288.24 516.54C286.17 516.7 284.01 516.82 282 516.99C278.07 517.34 274.35 517.74 270.63 518.14C268.98 518.25 267.24 518.41 265.6 518.59C261.54 519.07 257.69 519.52 253.87 520.08Z" id="b6vDswhKFk"></path></defs><g><g><g><use xlink:href="#a6y9m2MFP" opacity="1" fill="#c5bfbf" fill-opacity="1"></use><g><use xlink:href="#a6y9m2MFP" opacity="1" fill-opacity="0" stroke="#000000" stroke-width="0" stroke-opacity="0"></use></g></g><g><use xlink:href="#aoAJfb7nd" opacity="1" fill="#984141" fill-opacity="1"></use><g><use xlink:href="#aoAJfb7nd" opacity="1" fill-opacity="0" stroke="#000000" stroke-width="0" stroke-opacity="0"></use></g></g><g><use xlink:href="#bu3mjOt3D" opacity="1" fill="#984141" fill-opacity="1"></use><g><use xlink:href="#bu3mjOt3D" opacity="1" fill-opacity="0" stroke="#000000" stroke-width="0" stroke-opacity="0"></use></g></g><g><use xlink:href="#aimApdaw" opacity="1" fill="#984141" fill-opacity="1"></use><g><use xlink:href="#aimApdaw" opacity="1" fill-opacity="0" stroke="#000000" stroke-width="0" stroke-opacity="0"></use></g></g><g><use xlink:href="#a7b1Ohwjf" opacity="1" fill="#984141" fill-opacity="1"></use><g><use xlink:href="#a7b1Ohwjf" opacity="1" fill-opacity="0" stroke="#000000" stroke-width="0" stroke-opacity="0"></use></g></g><g><use xlink:href="#c7vtBUoti" opacity="1" fill="#984141" fill-opacity="1"></use><g><use xlink:href="#c7vtBUoti" opacity="1" fill-opacity="0" stroke="#000000" stroke-width="0" stroke-opacity="0"></use></g></g><g><use xlink:href="#a3UCfmMqL" opacity="1" fill="#984141" fill-opacity="1"></use><g><use xlink:href="#a3UCfmMqL" opacity="1" fill-opacity="0" stroke="#000000" stroke-width="0" stroke-opacity="0"></use></g></g><g><use xlink:href="#dAD68HwQb" opacity="1" fill="#984141" fill-opacity="1"></use><g><use xlink:href="#dAD68HwQb" opacity="1" fill-opacity="0" stroke="#000000" stroke-width="0" stroke-opacity="0"></use></g></g><g><use xlink:href="#a1OZt3aJLD" opacity="1" fill="#984141" fill-opacity="1"></use><g><use xlink:href="#a1OZt3aJLD" opacity="1" fill-opacity="0" stroke="#000000" stroke-width="0" stroke-opacity="0"></use></g></g><g><use xlink:href="#a6ixW67ay" opacity="1" fill="#984141" fill-opacity="1"></use><g><use xlink:href="#a6ixW67ay" opacity="1" fill-opacity="0" stroke="#000000" stroke-width="0" stroke-opacity="0"></use></g></g><g><use xlink:href="#b7H3N6OfDz" opacity="1" fill="#984141" fill-opacity="1"></use><g><use xlink:href="#b7H3N6OfDz" opacity="1" fill-opacity="0" stroke="#000000" stroke-width="0" stroke-opacity="0"></use></g></g><g><use xlink:href="#aRK5iVVL6" opacity="1" fill="#984141" fill-opacity="1"></use><g><use xlink:href="#aRK5iVVL6" opacity="1" fill-opacity="0" stroke="#000000" stroke-width="0" stroke-opacity="0"></use></g></g><g><use xlink:href="#d11qDVTL4S" opacity="1" fill="#984141" fill-opacity="1"></use><g><use xlink:href="#d11qDVTL4S" opacity="1" fill-opacity="0" stroke="#000000" stroke-width="0" stroke-opacity="0"></use></g></g><g><use xlink:href="#capuFTAjY" opacity="1" fill="#984141" fill-opacity="1"></use><g><use xlink:href="#capuFTAjY" opacity="1" fill-opacity="0" stroke="#000000" stroke-width="0" stroke-opacity="0"></use></g></g><g><use xlink:href="#b1sKPV4241" opacity="1" fill="#984141" fill-opacity="1"></use><g><use xlink:href="#b1sKPV4241" opacity="1" fill-opacity="0" stroke="#000000" stroke-width="0" stroke-opacity="0"></use></g></g><g><use xlink:href="#b1sQjGukFu" opacity="1" fill="#984141" fill-opacity="1"></use><g><use xlink:href="#b1sQjGukFu" opacity="1" fill-opacity="0" stroke="#000000" stroke-width="0" stroke-opacity="0"></use></g></g><g><use xlink:href="#fYoAP8FzU" opacity="1" fill="#984141" fill-opacity="1"></use><g><use xlink:href="#fYoAP8FzU" opacity="1" fill-opacity="0" stroke="#000000" stroke-width="0" stroke-opacity="0"></use></g></g><g><use xlink:href="#a1h2H6rao8" opacity="1" fill="#984141" fill-opacity="1"></use><g><use xlink:href="#a1h2H6rao8" opacity="1" fill-opacity="0" stroke="#000000" stroke-width="0" stroke-opacity="0"></use></g></g><g><use xlink:href="#bnlqvuNF3" opacity="1" fill="#984141" fill-opacity="1"></use><g><use xlink:href="#bnlqvuNF3" opacity="1" fill-opacity="0" stroke="#000000" stroke-width="0" stroke-opacity="0"></use></g></g><g><use xlink:href="#b6vDswhKFk" opacity="1" fill="#984141" fill-opacity="1"></use><g><use xlink:href="#b6vDswhKFk" opacity="1" fill-opacity="0" stroke="#000000" stroke-width="0" stroke-opacity="0"></use></g></g></g></g></svg>