<?xml version="1.0" encoding="UTF-8" standalone="no"?>
<svg
   xmlns:osb="http://www.openswatchbook.org/uri/2009/osb"
   xmlns:dc="http://purl.org/dc/elements/1.1/"
   xmlns:cc="http://creativecommons.org/ns#"
   xmlns:rdf="http://www.w3.org/1999/02/22-rdf-syntax-ns#"
   xmlns:svg="http://www.w3.org/2000/svg"
   xmlns="http://www.w3.org/2000/svg"
   xmlns:xlink="http://www.w3.org/1999/xlink"
   xmlns:sodipodi="http://sodipodi.sourceforge.net/DTD/sodipodi-0.dtd"
   xmlns:inkscape="http://www.inkscape.org/namespaces/inkscape"
   inkscape:export-ydpi="23.177401"
   inkscape:export-xdpi="23.177401"
   inkscape:export-filename="/home/tio/Downloads/gauth.png"
   sodipodi:docname="rss bridge.svg"
   inkscape:version="1.0 (4035a4fb49, 2020-05-01)"
   version="1.1"
   id="svg2"
   height="330.93661"
   width="330.93661">
  <defs
     id="defs4">
    <linearGradient
       osb:paint="solid"
       id="linearGradient1739">
      <stop
         id="stop1737"
         offset="0"
         style="stop-color:#b4b4b4;stop-opacity:1;" />
    </linearGradient>
    <linearGradient
       id="linearGradient3790">
      <stop
         id="stop3792"
         offset="0"
         style="stop-color:#a9a9a9;stop-opacity:1;" />
      <stop
         id="stop3794"
         offset="1"
         style="stop-color:#000000;stop-opacity:1;" />
    </linearGradient>
    <linearGradient
       gradientTransform="matrix(1.2227304,0,0,0.89945099,-289.31433,113.40259)"
       gradientUnits="userSpaceOnUse"
       y2="254.35953"
       x2="255.84358"
       y1="354.42426"
       x1="186.74416"
       id="linearGradient3912"
       xlink:href="#linearGradient3790"
       inkscape:collect="always" />
    <linearGradient
       inkscape:collect="always"
       id="linearGradient7636">
      <stop
         style="stop-color:#ffab00;stop-opacity:1"
         offset="0"
         id="stop7664" />
      <stop
         id="stop4188"
         offset="0.20623536"
         style="stop-color:#ffa500;stop-opacity:1" />
      <stop
         style="stop-color:#ffab00;stop-opacity:1"
         offset="0.2469174"
         id="stop4190" />
      <stop
         style="stop-color:#ff8800;stop-opacity:1"
         offset="1"
         id="stop7666" />
    </linearGradient>
    <linearGradient
       id="linearGradient7620"
       osb:paint="solid">
      <stop
         style="stop-color:#fcff00;stop-opacity:1;"
         offset="0"
         id="stop7622" />
    </linearGradient>
    <radialGradient
       xlink:href="#linearGradient7636"
       id="radialGradient7642"
       cx="250"
       cy="250.00003"
       fx="250"
       fy="250.00003"
       r="229.85291"
       gradientTransform="matrix(1.3983125,1.4831815e-7,-1.507182e-7,1.4209396,-99.578086,-105.23497)"
       gradientUnits="userSpaceOnUse"
       spreadMethod="pad" />
    <filter
       style="color-interpolation-filters:sRGB"
       id="filter9316">
      <feGaussianBlur
         result="result1"
         stdDeviation="3"
         id="feGaussianBlur9318" />
      <feBlend
         in2="result1"
         result="result5"
         mode="multiply"
         in="result1"
         id="feBlend9320" />
      <feGaussianBlur
         in="result5"
         result="result6"
         stdDeviation="1"
         id="feGaussianBlur9322" />
      <feComposite
         result="result8"
         in2="result5"
         in="result6"
         operator="xor"
         id="feComposite9324" />
      <feComposite
         in="result6"
         result="fbSourceGraphic"
         operator="xor"
         in2="result8"
         id="feComposite9326" />
      <feSpecularLighting
         in="fbSourceGraphic"
         result="result1"
         lighting-color="#ffffff"
         surfaceScale="2"
         specularConstant="2.20000005"
         specularExponent="55"
         id="feSpecularLighting9328">
        <fePointLight
           x="-5000"
           y="-10000"
           z="20000"
           id="fePointLight9330" />
      </feSpecularLighting>
      <feComposite
         in2="fbSourceGraphic"
         in="result1"
         result="result2"
         operator="in"
         id="feComposite9332" />
      <feComposite
         in="fbSourceGraphic"
         result="result4"
         operator="arithmetic"
         k2="2"
         k3="1"
         in2="result2"
         id="feComposite9334"
         k1="0"
         k4="0" />
      <feComposite
         in2="result4"
         in="result4"
         operator="in"
         result="result91"
         id="feComposite9336" />
      <feBlend
         mode="darken"
         in2="result91"
         id="feBlend9338" />
    </filter>
    <pattern
       patternUnits="userSpaceOnUse"
       width="150.00683"
       height="75.64963"
       patternTransform="translate(-105.5802,590.28444)"
       id="pattern9832">
      <rect
         y="2.7309999"
         x="2.7309999"
         height="70.18763"
         width="144.54483"
         id="rect9830"
         style="opacity:1;fill:#ebee00;fill-opacity:0.69724767;fill-rule:nonzero;stroke:#000000;stroke-width:5.46199989;stroke-linecap:round;stroke-linejoin:round;stroke-miterlimit:4;stroke-dasharray:none;stroke-dashoffset:0;stroke-opacity:1" />
    </pattern>
    <filter
       id="filter9316-8"
       style="color-interpolation-filters:sRGB">
      <feGaussianBlur
         id="feGaussianBlur9318-0"
         stdDeviation="3"
         result="result1" />
      <feBlend
         id="feBlend9320-6"
         in="result1"
         mode="multiply"
         result="result5"
         in2="result1" />
      <feGaussianBlur
         id="feGaussianBlur9322-8"
         stdDeviation="1"
         result="result6"
         in="result5" />
      <feComposite
         id="feComposite9324-0"
         operator="xor"
         in="result6"
         in2="result5"
         result="result8" />
      <feComposite
         id="feComposite9326-9"
         in2="result8"
         operator="xor"
         result="fbSourceGraphic"
         in="result6" />
      <feSpecularLighting
         id="feSpecularLighting9328-2"
         specularExponent="55"
         specularConstant="2.20000005"
         surfaceScale="2"
         lighting-color="#ffffff"
         result="result1"
         in="fbSourceGraphic">
        <fePointLight
           id="fePointLight9330-6"
           z="20000"
           y="-10000"
           x="-5000" />
      </feSpecularLighting>
      <feComposite
         id="feComposite9332-7"
         operator="in"
         result="result2"
         in="result1"
         in2="fbSourceGraphic" />
      <feComposite
         id="feComposite9334-8"
         in2="result2"
         k3="1"
         k2="2"
         operator="arithmetic"
         result="result4"
         in="fbSourceGraphic"
         k1="0"
         k4="0" />
      <feComposite
         id="feComposite9336-2"
         result="result91"
         operator="in"
         in="result4"
         in2="result4" />
      <feBlend
         id="feBlend9338-7"
         in2="result91"
         mode="darken" />
    </filter>
    <pattern
       id="pattern9832-3"
       patternTransform="translate(-105.5802,590.28444)"
       height="75.64963"
       width="150.00683"
       patternUnits="userSpaceOnUse">
      <rect
         style="opacity:1;fill:#ebee00;fill-opacity:0.69724767;fill-rule:nonzero;stroke:#000000;stroke-width:5.46199989;stroke-linecap:round;stroke-linejoin:round;stroke-miterlimit:4;stroke-dasharray:none;stroke-dashoffset:0;stroke-opacity:1"
         id="rect9830-3"
         width="144.54483"
         height="70.18763"
         x="2.7309999"
         y="2.7309999" />
    </pattern>
    <filter
       id="filter2866"
       inkscape:label="Invert"
       style="color-interpolation-filters:sRGB">
      <feColorMatrix
         id="feColorMatrix2864"
         result="color2"
         values="-1 0 0 0 1 0 -1 0 0 1 0 0 -1 0 1 0.21 0.72 0.07 1 0 " />
    </filter>
    <linearGradient
       id="SVGID_5_"
       gradientUnits="userSpaceOnUse"
       x1="364.61819"
       y1="323.15329"
       x2="364.61819"
       y2="305.8201">
      <stop
         offset="0"
         style="stop-color:#1B75BC"
         id="stop702" />
      <stop
         offset="1"
         style="stop-color:#00AEEF"
         id="stop704" />
      <stop
         offset="1"
         style="stop-color:#000000"
         id="stop706" />
    </linearGradient>
    <linearGradient
       id="SVGID_5_-5"
       gradientUnits="userSpaceOnUse"
       x1="364.61819"
       y1="323.15329"
       x2="364.61819"
       y2="305.8201">
      <stop
         offset="0"
         style="stop-color:#1B75BC"
         id="stop702-6" />
      <stop
         offset="1"
         style="stop-color:#00AEEF"
         id="stop704-2" />
      <stop
         offset="1"
         style="stop-color:#000000"
         id="stop706-9" />
    </linearGradient>
  </defs>
  <sodipodi:namedview
     inkscape:document-rotation="0"
     fit-margin-bottom="-6"
     fit-margin-right="-24"
     fit-margin-left="0"
     fit-margin-top="0"
     inkscape:guide-bbox="true"
     showguides="true"
     inkscape:window-maximized="1"
     inkscape:window-y="32"
     inkscape:window-x="70"
     inkscape:window-height="1048"
     inkscape:window-width="1850"
     showgrid="false"
     inkscape:current-layer="g2968"
     inkscape:document-units="px"
     inkscape:cy="247.90762"
     inkscape:cx="366.04225"
     inkscape:zoom="0.7"
     inkscape:pageshadow="2"
     inkscape:pageopacity="0.0"
     borderopacity="1.0"
     bordercolor="#666666"
     pagecolor="#ffffff"
     id="base" />
  <metadata
     id="metadata7">
    <rdf:RDF>
      <cc:Work
         rdf:about="">
        <dc:format>image/svg+xml</dc:format>
        <dc:type
           rdf:resource="http://purl.org/dc/dcmitype/StillImage" />
        <dc:title />
      </cc:Work>
    </rdf:RDF>
  </metadata>
  <g
     style="display:inline"
     transform="translate(-61.719803,-34.870671)"
     id="layer1"
     inkscape:groupmode="layer"
     inkscape:label="Layer 1">
    <path
       r="107.58125"
       cy="391.12405"
       cx="-407.99075"
       id="path2987"
       style="fill:#f9f9f9;fill-opacity:1;fill-rule:nonzero;stroke:none"
       d="" />
    <path
       r="78.034286"
       cy="390.87152"
       cx="-408.24332"
       id="path3757"
       style="fill:#ececec;fill-opacity:1;fill-rule:nonzero;stroke:none;stroke-width:0.768657"
       d="" />
    <g
       transform="matrix(1.0845447,0,0,1.0845447,-33.193935,-30.742564)"
       id="g2918">
      <g
         transform="matrix(1.8589097,0,0,1.8589097,-188.9887,-249.97041)"
         id="g2968">
        <g
           id="XMLID_7_"
           transform="matrix(0.53794975,0,0,0.53794975,20.317936,68.476163)">
          <g
             id="g729" />
          <g
             transform="matrix(0.91425715,0,0,0.91425715,155.82657,-293.5609)"
             id="g4673">
            <circle
               r="154.16086"
               cy="690.92896"
               cx="258.70734"
               style="fill:#cf5050;fill-opacity:1;stroke:#a11616;stroke-width:10.9378;stroke-miterlimit:4;stroke-dasharray:none;stroke-dashoffset:0;stroke-opacity:1"
               id="path3759" />
            <path
               inkscape:connector-curvature="0"
               id="path4473-2"
               d="M 142.46798,822.50729 H 353.94285"
               style="fill:none;fill-rule:evenodd;stroke:none;stroke-width:5.17596;stroke-linecap:butt;stroke-linejoin:miter;stroke-miterlimit:4;stroke-dasharray:none;stroke-opacity:1" />
          </g>
        </g>
      </g>
    </g>
    <g
       style="opacity:0.70060663"
       transform="matrix(0.62173796,0,0,0.62173796,75.039735,102.32022)"
       id="g895">
      <path
         id="path897"
         d="m 96.990272,231.83925 c -8.329979,-2.53386 -14.866725,-8.15747 -17.887332,-15.38858 -1.533455,-3.67096 -1.799162,-11.78653 -1.799162,-54.9512 0,-49.00179 0.07854,-50.80632 2.420959,-55.64517 1.331534,-2.75058 4.329076,-6.582259 6.661201,-8.514854 8.770615,-7.268034 2.172548,-6.986178 155.505882,-6.642807 l 139.5104,0.312416 4.79902,2.566602 c 6.06979,3.246231 12.3888,10.573463 14.12973,16.384163 1.79524,5.99195 1.86815,97.28063 0.0828,103.71047 -0.70193,2.52802 -3.55975,6.96796 -6.5265,10.13966 -9.11233,9.74181 1.52894,9.12499 -155.47682,9.01214 -76.18409,-0.0548 -139.823187,-0.49705 -141.420208,-0.98284 z M 382.69803,221.77336 c 2.17962,-1.03428 5.12562,-3.51051 6.54666,-5.50273 2.57907,-3.61563 2.58376,-3.71497 2.58376,-54.82017 v -51.19795 l -4.02178,-4.14941 c -2.21196,-2.28217 -5.86114,-4.6811 -8.10929,-5.33096 -2.70708,-0.782508 -51.10554,-1.065661 -143.30884,-0.838428 -138.539019,0.341428 -139.236985,0.354818 -142.420253,2.731628 -1.759415,1.31368 -4.273782,3.82814 -5.587464,5.58769 -2.326463,3.11603 -2.388522,4.5042 -2.388522,53.42271 0,49.14474 0.05201,50.2938 2.423462,53.4943 1.332901,1.7989 4.146883,4.44369 6.253283,5.8773 l 3.829833,2.60656 H 238.61699 c 126.87928,0 140.49256,-0.17768 144.08104,-1.88054 z M 109.31794,198.08347 c -2.4764,-1.94793 -3.0524,-3.3689 -3.0524,-7.53006 0,-8.20937 6.58031,-12.79551 13.9684,-9.73526 4.25007,1.76044 5.72559,4.28488 5.72559,9.79584 0,8.56165 -9.71157,12.92063 -16.64159,7.46948 z m 33.53891,-2.45092 c -1.05399,-6.59129 -5.73586,-15.64319 -10.89349,-21.06144 -4.4922,-4.71919 -16.42166,-11.1552 -20.67958,-11.15675 -5.24846,-0.002 -6.1776,-1.11302 -6.15898,-7.3653 0.0262,-8.81031 0.57532,-9.26214 9.36902,-7.70954 15.96895,2.81947 29.87439,12.37702 36.70114,25.2256 3.6587,6.88602 7.20173,18.64448 7.20173,23.9008 0,2.93664 -0.20035,3.01857 -7.38199,3.01857 h -7.38199 z m 28.8749,0.50768 c -3.51343,-22.72775 -13.64753,-39.70214 -30.04204,-50.31975 -7.34278,-4.75543 -20.60207,-9.43653 -30.50068,-10.76808 l -6.08197,-0.81812 v -7.59305 -7.59306 l 8.97815,0.69562 c 27.36584,2.12026 51.58622,17.67599 62.68749,40.26152 4.96867,10.10877 8.53969,22.25357 9.94372,33.81798 l 0.80874,6.6612 h -7.56091 -7.56092 z m 89.18956,3.54413 c -6.0457,-0.66952 -6.76686,-1.54113 -5.83564,-7.05296 l 0.77715,-4.5999 17.01012,0.11377 c 19.15873,0.12812 22.22324,-0.71238 22.22324,-6.09521 0,-1.81104 -0.72168,-3.89175 -1.60374,-4.62379 -0.88207,-0.73205 -8.05011,-3.15594 -15.92897,-5.38644 -7.87887,-2.23049 -15.6285,-4.99063 -17.2214,-6.13365 -6.59823,-4.73468 -8.94949,-16.44092 -4.9217,-24.50367 3.36859,-6.74315 8.8914,-8.68072 24.61569,-8.63591 7.32733,0.0209 16.71249,0.43627 20.85592,0.92308 l 7.53351,0.88513 -0.40972,5.15156 -0.40973,5.15155 h -17.33656 c -9.73514,0 -18.31905,0.52582 -19.57734,1.19924 -2.67342,1.43077 -3.0365,7.12444 -0.5841,9.15974 0.91117,0.75622 7.5579,2.96351 14.7705,4.90511 22.07721,5.94308 25.27775,8.71092 25.27775,21.86031 0,14.68121 -4.89816,17.79292 -28.38252,18.03088 -8.92022,0.0904 -18.30383,-0.0666 -20.85246,-0.34884 z m 61.97815,-0.18189 -5.21312,-0.75568 -0.35935,-5.65629 -0.35937,-5.6563 12.5233,0.74241 c 13.95587,0.82734 25.51882,-0.39309 27.12535,-2.86297 1.90126,-2.92298 0.62775,-7.32126 -2.56008,-8.8417 -1.65997,-0.79173 -8.17637,-2.80966 -14.48088,-4.48427 -20.2122,-5.36884 -23.62667,-8.44958 -23.62667,-21.3174 0,-14.43484 5.41587,-17.99682 27.19251,-17.88429 7.66325,0.0396 16.93072,0.46811 20.59438,0.95222 7.10107,0.93834 7.72559,1.83684 5.93104,8.53316 -0.68571,2.55872 -1.02303,2.60656 -18.37786,2.60656 -19.20889,0 -20.56958,0.43043 -20.56958,6.50691 0,3.64295 1.27696,4.56307 9.55738,6.88666 29.14003,8.17704 31.1958,9.55935 32.05668,21.55522 0.63878,8.90117 -1.67841,14.21131 -7.7288,17.71147 -3.49072,2.01937 -6.31039,2.37164 -20.27323,2.53278 -8.92022,0.10299 -18.56449,-0.15287 -21.4317,-0.56849 z M 208.21091,166.88886 v -32.43717 h 6.26976 6.26975 l 0.79409,4.70015 c 0.7729,4.57469 0.86064,4.65096 3.28762,2.85774 5.123,-3.78517 16.63706,-8.71444 22.10698,-9.46418 l 5.65862,-0.7756 -0.76172,5.55728 c -0.41893,3.05651 -0.7617,6.52715 -0.7617,7.71253 0,1.79455 -0.92093,2.1604 -5.50273,2.18598 -3.02651,0.0169 -8.89126,1.21262 -13.03279,2.65719 l -7.53006,2.62648 -0.31361,23.40838 -0.3136,23.40838 h -8.08531 -8.0853 z"
         style="fill:#f2f2f2;fill-opacity:1;stroke-width:1.15847" />
    </g>
  </g>
</svg>
