<?xml version="1.0" encoding="UTF-8" standalone="no"?>
<!DOCTYPE svg PUBLIC "-//W3C//DTD SVG 1.1//EN" "http://www.w3.org/Graphics/SVG/1.1/DTD/svg11.dtd">
<svg version="1.1" xmlns="http://www.w3.org/2000/svg" xmlns:xlink="http://www.w3.org/1999/xlink" preserveAspectRatio="xMidYMid meet" viewBox="0 0 640 640" width="64" height="64"><defs><path d="M496.63 47.27C549.39 47.27 592.16 90.04 592.16 142.8C592.16 233.02 592.16 404.26 592.16 493.51C592.16 548.93 547.23 593.86 491.81 593.86C403.92 593.86 237.41 593.86 148.72 593.86C95.52 593.86 52.39 550.73 52.39 497.53C52.39 407.48 52.39 227.23 52.39 135.57C52.39 86.81 91.92 47.27 140.69 47.27C230.98 47.27 407.78 47.27 496.63 47.27Z" id="f34PUIr0B4"></path><path d="M175.34 196.14C175.34 218.21 157.42 236.14 135.34 236.14C113.26 236.14 95.34 218.21 95.34 196.14C95.34 174.06 113.26 156.14 135.34 156.14C157.42 156.14 175.34 174.06 175.34 196.14Z" id="m5WCXwArRF"></path><path d="M175.34 320C175.34 342.08 157.42 360 135.34 360C113.26 360 95.34 342.08 95.34 320C95.34 297.92 113.26 280 135.34 280C157.42 280 175.34 297.92 175.34 320Z" id="b3iXgpzR1R"></path><path d="M175.34 442.27C175.34 464.35 157.42 482.27 135.34 482.27C113.26 482.27 95.34 464.35 95.34 442.27C95.34 420.2 113.26 402.27 135.34 402.27C157.42 402.27 175.34 420.2 175.34 442.27Z" id="erfptier9"></path><path d="M508.21 162.5C520.06 162.5 529.66 172.1 529.66 183.95C529.66 193.11 529.66 199.16 529.66 208.32C529.66 220.17 520.06 229.77 508.21 229.77C457.27 229.77 325.91 229.77 274.97 229.77C263.13 229.77 253.52 220.17 253.52 208.32C253.52 199.16 253.52 193.11 253.52 183.95C253.52 172.1 263.13 162.5 274.97 162.5C325.91 162.5 457.27 162.5 508.21 162.5Z" id="dranGaf7Q"></path><path d="M513.44 286.36C525.28 286.36 534.89 295.97 534.89 307.81C534.89 316.98 534.89 323.02 534.89 332.19C534.89 344.03 525.28 353.64 513.44 353.64C462.5 353.64 331.14 353.64 280.2 353.64C268.35 353.64 258.75 344.03 258.75 332.19C258.75 323.02 258.75 316.98 258.75 307.81C258.75 295.97 268.35 286.36 280.2 286.36C331.14 286.36 462.5 286.36 513.44 286.36Z" id="d353xtURjl"></path><path d="M513.44 408.64C525.28 408.64 534.89 418.24 534.89 430.09C534.89 439.25 534.89 445.3 534.89 454.46C534.89 466.31 525.28 475.91 513.44 475.91C462.5 475.91 331.14 475.91 280.2 475.91C268.35 475.91 258.75 466.31 258.75 454.46C258.75 445.3 258.75 439.25 258.75 430.09C258.75 418.24 268.35 408.64 280.2 408.64C331.14 408.64 462.5 408.64 513.44 408.64Z" id="fbisZuwxV"></path></defs><g><g><g><use xlink:href="#f34PUIr0B4" opacity="1" fill="#696969" fill-opacity="1"></use></g><g><use xlink:href="#m5WCXwArRF" opacity="1" fill="#dedede" fill-opacity="1"></use></g><g><use xlink:href="#b3iXgpzR1R" opacity="1" fill="#dedede" fill-opacity="1"></use></g><g><use xlink:href="#erfptier9" opacity="1" fill="#ba7636" fill-opacity="1"></use><g><use xlink:href="#erfptier9" opacity="1" fill-opacity="0" stroke="#000000" stroke-width="0" stroke-opacity="0"></use></g></g><g><use xlink:href="#dranGaf7Q" opacity="1" fill="#dedede" fill-opacity="1"></use></g><g><use xlink:href="#d353xtURjl" opacity="1" fill="#dedede" fill-opacity="1"></use></g><g><use xlink:href="#fbisZuwxV" opacity="1" fill="#ba7636" fill-opacity="1"></use><g><use xlink:href="#fbisZuwxV" opacity="1" fill-opacity="0" stroke="#000000" stroke-width="0" stroke-opacity="0"></use></g></g></g></g></svg>