<?xml version="1.0" encoding="UTF-8" standalone="no"?>
<svg
   xmlns:dc="http://purl.org/dc/elements/1.1/"
   xmlns:cc="http://creativecommons.org/ns#"
   xmlns:rdf="http://www.w3.org/1999/02/22-rdf-syntax-ns#"
   xmlns:svg="http://www.w3.org/2000/svg"
   xmlns="http://www.w3.org/2000/svg"
   xmlns:xlink="http://www.w3.org/1999/xlink"
   xmlns:sodipodi="http://sodipodi.sourceforge.net/DTD/sodipodi-0.dtd"
   xmlns:inkscape="http://www.inkscape.org/namespaces/inkscape"
   version="1.1"
   preserveAspectRatio="xMidYMid meet"
   viewBox="0 0 640 640"
   width="64"
   height="64"
   id="svg22"
   sodipodi:docname="sengi.svg"
   inkscape:version="0.92.4 5da689c313, 2019-01-14">
  <metadata
     id="metadata26">
    <rdf:RDF>
      <cc:Work
         rdf:about="">
        <dc:format>image/svg+xml</dc:format>
        <dc:type
           rdf:resource="http://purl.org/dc/dcmitype/StillImage" />
      </cc:Work>
    </rdf:RDF>
  </metadata>
  <sodipodi:namedview
     pagecolor="#ffffff"
     bordercolor="#666666"
     borderopacity="1"
     objecttolerance="10"
     gridtolerance="10"
     guidetolerance="10"
     inkscape:pageopacity="0"
     inkscape:pageshadow="2"
     inkscape:window-width="1850"
     inkscape:window-height="1048"
     id="namedview24"
     showgrid="false"
     inkscape:zoom="5.2149125"
     inkscape:cx="28.809495"
     inkscape:cy="16.500002"
     inkscape:window-x="70"
     inkscape:window-y="32"
     inkscape:window-maximized="1"
     inkscape:current-layer="svg22" />
  <defs
     id="defs4">
    <path
       d="M598.18 297.52C598.18 451.67 473.53 576.83 320 576.83C166.47 576.83 41.82 451.67 41.82 297.52C41.82 143.37 166.47 18.21 320 18.21C473.53 18.21 598.18 143.37 598.18 297.52Z"
       id="l1jd9MfKhd" />
    <path
       d="M469.83 342.94C468.56 336.23 467.33 329.46 465.48 322.97C460.8 306.5 453.38 292.03 443.34 279.57C441.37 277.12 440.34 274.12 441.49 270.55C441.92 269.22 442.28 267.85 442.61 266.48C444.69 257.65 443.83 249.3 439 242.18C434.38 235.37 428.12 226.33 421.1 228.38C414.29 230.38 410.35 242.86 408.83 251.09C408.4 253.49 408.32 255.98 408.08 258.44C405.09 258.46 400.33 256.61 397.07 253.8C394.5 251.58 392.11 249.07 389.64 246.68C387.73 244.83 385.95 242.73 383.9 241.16C377.43 236.21 370.4 232.9 362.96 230.81C354.46 228.41 345.86 227.86 337.21 228.38C329.19 228.87 321.24 230.28 313.4 232.39C287.84 239.24 264.01 250.67 244.21 272.34C240.22 276.71 236.68 281.8 233.39 286.99C227.54 296.18 223.26 306.51 219.73 317.32C216.92 325.93 215.13 334.72 215.82 344.08C215.88 344.92 215.75 345.82 215.57 346.64C215.61 346.73 215.92 347.42 215.96 347.51C214.29 353.79 211.6 359.19 206.82 362.83C202.73 365.94 198.31 367.9 193.63 369.23C186.8 371.16 179.9 372 172.98 370.84C157.97 368.34 145.59 360.02 136.11 345.34C131.32 337.91 127.99 329.63 125.74 320.67C123.87 313.18 123.21 305.49 123.31 297.64C123.52 281.2 126.86 265.63 131.51 250.34C134.58 240.26 138.47 230.73 143.32 221.78C150.15 209.16 157.15 196.71 165.71 185.69C172.87 176.47 180.95 168.55 189.11 160.73C196.08 154.04 203.1 147.43 209.98 140.6C216.77 133.87 223.44 126.96 230.07 120C231.32 118.68 232.48 116.95 233.14 115.12C234.17 112.29 232.8 110.3 230.3 110.74C229.1 110.95 227.84 111.37 226.79 112.11C223.56 114.38 220.3 116.63 217.29 119.28C204.51 130.54 191.74 141.83 179.11 153.33C172.26 159.57 165.48 165.97 159.06 172.85C154.46 177.79 150.26 183.39 146.33 189.14C141.43 196.31 136.71 203.71 132.42 211.44C123.83 226.91 116.88 243.42 112.43 261.43C108.7 276.54 107.21 291.94 108.31 307.64C109.05 318.04 110.46 328.39 113.56 338.19C115.65 344.81 118.54 350.91 122.43 356.34C131.34 368.8 142.07 377.98 154.57 384.13C156.34 385 158.14 385.77 159.93 386.59C163.06 387.46 166.19 388.34 169.33 389.21C172.62 389.5 175.91 389.95 179.21 390.05C188.19 390.33 196.81 388.23 205.01 383.66C208.5 381.72 211.96 379.68 215.49 377.86C219.59 375.75 223.78 374.26 228.17 374.63C228.23 374.76 228.73 375.87 228.79 376.01C229.16 376.1 229.52 376.41 229.84 376.7C238.16 384.43 247.57 388.46 257.96 389.27C258.49 389.31 259.1 389.43 259.52 389.78C263.44 393.06 267.85 394.94 272.26 396.89C278.57 399.67 285.1 399.99 291.69 399.77C298.54 399.53 304.62 401.75 309.7 407.71C310.88 409.09 312.65 409.79 314.22 410.55C315.57 411.21 316.96 411.63 317.5 413.54C317.67 414.14 317.81 414.76 317.98 415.45C319.8 413.48 320.11 411.37 318.56 409.3C315.96 405.84 313.55 402.09 310.14 399.7C309.81 399.47 309.51 399.19 309.2 398.94C309.23 398.71 309.25 398.48 309.29 398.25C312.15 398.37 315.02 398.45 317.89 398.64C321.11 398.84 323.7 400.57 325.84 403.53C326.94 405.07 328.19 406.47 329.49 407.76C331.41 409.65 333.55 410.2 335.93 408.94C336.41 408.68 337.11 408.79 337.65 408.97C339.38 409.57 339.95 411.37 340.29 413.36C341.88 411.82 342.36 410.26 341.45 408.44C340.76 407.08 339.62 406.05 338.64 404.91C338.25 404.46 337.67 404.23 337.33 403.73C335.91 401.72 334.56 399.64 333.19 397.58C334.49 398.69 335.64 400.03 336.71 401.45C337.75 402.84 338.76 404.24 340.42 404.45C343.14 404.8 345.62 405.52 345.96 409.73C347.65 407.97 347.89 406.46 347.07 404.31C346.34 402.42 345.08 401.37 343.54 400.7C343.18 400.55 342.73 400.42 342.51 400.08C340.74 397.38 339.02 394.62 337.36 392C337.56 392.01 338.06 392.03 338.56 392.02C344.6 391.83 350.66 391.97 356.66 391.37C363.44 390.69 370.17 389.34 376.93 388.34C377.3 388.28 377.91 388.61 378.1 388.99C379.91 392.8 382.5 395.19 386.03 396.26C391.31 397.86 396.26 400.09 399.03 406.62C400.01 408.95 401.87 409 403.15 407.2C402.67 406.88 402.21 406.57 401.81 406.29C403.59 402.3 401.07 399.47 400.04 396.27C402.45 396.01 405.05 397.81 406.08 400.25C406.69 401.68 407.39 403.06 408.08 404.43C408.57 405.41 409.23 405.8 410.1 405.05C410.78 404.45 411.46 403.86 412.14 403.26C412.04 402.24 412.17 401.04 411.78 400.22C410.85 398.27 409.67 396.49 408.59 394.64C408.69 394.51 408.8 394.38 408.9 394.25C410.1 395.63 411.27 397.04 412.51 398.36C413.21 399.12 414.01 399.76 414.8 400.39C415.23 400.74 415.93 400.8 416.16 401.25C416.67 402.24 416.95 403.4 417.38 404.63C418.45 404.24 418.99 403.13 418.73 401.64C418.47 400.2 418.06 398.77 417.55 397.44C416.31 394.22 414 392.26 411.59 390.35C413.71 389.21 414.19 389.52 415.28 392.55C416.93 390.82 416.06 387.59 413.77 386.45C411.74 385.43 409.8 384.14 407.82 382.97C407.82 382.76 407.83 382.56 407.84 382.35C413.35 381.94 418.86 381.36 424.38 381.18C428.5 381.06 432.46 382.51 436.13 384.7C441.43 387.86 446.53 391.57 452.24 393.58C455.17 394.61 497.19 421.37 502.85 418.14C507.3 415.61 505.16 416.21 505.21 415.45C505.37 413.03 475.88 377.41 475.47 375C473.66 364.3 471.83 353.59 469.83 342.94Z"
       id="fauV6GIWr" />
  </defs>
  <g
     id="g20"
     transform="matrix(1.1216997,0,0,1.1216997,-35.026331,-13.498956)">
    <g
       id="g18">
      <g
         id="g8">
        <use
           xlink:href="#l1jd9MfKhd"
           id="use6"
           style="opacity:1;fill:#c5e2e7;fill-opacity:1"
           x="0"
           y="0"
           width="100%"
           height="100%" />
      </g>
      <g
         id="g16">
        <use
           xlink:href="#fauV6GIWr"
           id="use10"
           style="opacity:1;fill:#6d7275;fill-opacity:1"
           x="0"
           y="0"
           width="100%"
           height="100%" />
        <g
           id="g14">
          <use
             xlink:href="#fauV6GIWr"
             id="use12"
             style="opacity:1;fill-opacity:0;stroke:#000000;stroke-width:0;stroke-opacity:0"
             x="0"
             y="0"
             width="100%"
             height="100%" />
        </g>
      </g>
    </g>
  </g>
</svg>
