<?xml version="1.0" encoding="UTF-8" standalone="no"?><!DOCTYPE svg PUBLIC "-//W3C//DTD SVG 1.1//EN" "http://www.w3.org/Graphics/SVG/1.1/DTD/svg11.dtd"><svg width="100%" height="100%" viewBox="0 0 534 534" version="1.1" xmlns="http://www.w3.org/2000/svg" xmlns:xlink="http://www.w3.org/1999/xlink" xml:space="preserve" xmlns:serif="http://www.serif.com/" style="fill-rule:evenodd;clip-rule:evenodd;stroke-linecap:round;stroke-linejoin:round;stroke-miterlimit:1.5;"><rect id="shredder" x="2.775" y="0" width="533.333" height="533.333" style="fill:none;"/><circle cx="269.442" cy="267.768" r="239.048" style="fill:#82a2c2;stroke:#7d98b4;stroke-width:16.51px;"/><g><path d="M323.571,430.134c4.802,1.286 7.656,6.23 6.369,11.032c-1.287,4.802 -6.23,7.656 -11.032,6.369c-4.802,-1.287 -7.656,-6.23 -6.369,-11.032c1.286,-4.802 6.23,-7.656 11.032,-6.369Z" style="fill:#ddd;"/><path d="M334.197,425.278c4.879,1.308 7.779,6.33 6.472,11.209c-1.308,4.88 -6.33,7.779 -11.209,6.472c-4.88,-1.307 -7.779,-6.33 -6.472,-11.209c1.307,-4.879 6.33,-7.779 11.209,-6.472Z" style="fill:#ddd;"/><path d="M335.872,433.126c4.879,1.308 7.779,6.33 6.472,11.21c-1.308,4.879 -6.33,7.778 -11.21,6.471c-4.879,-1.307 -7.778,-6.33 -6.471,-11.209c1.307,-4.879 6.33,-7.779 11.209,-6.472Z" style="fill:#ddd;"/><path d="M342.608,433.186c1.517,1.243 4.355,6.432 3.317,10.307c-1.002,3.74 -4.409,6.184 -6.588,6.866c2.296,-1.121 4.102,-3.165 4.806,-5.789c0.773,-2.885 0.041,-5.83 -1.72,-8.031c0.281,-1.127 0.333,-2.261 0.185,-3.353Z" style="fill:#ddd;"/><path d="M301.815,445.789c2.441,1.162 8.724,0.948 10.051,-1.842c0.417,-0.876 1.811,-2.402 2.61,-2.689c0.036,-0.013 0.57,0.792 0.618,0.855c0.419,0.547 0.901,1.029 1.455,1.44c1.631,1.208 3.819,1.921 5.856,1.801c1.607,-0.094 3.183,-0.694 4.552,-1.521c0.2,-0.121 1.511,-1.186 1.636,-1.139c0.011,0.004 -1.341,2.116 -1.453,2.274c-1.624,2.301 -3.527,3.924 -6.254,4.804c-6.297,2.032 -16.389,-1.613 -19.071,-3.983Z" style="fill:#ddd;"/><path d="M322.418,428.368c1.522,-4.548 6.35,-7.187 11.046,-5.929c2.976,0.798 5.216,2.978 6.213,5.664c-1.163,-2.083 -3.135,-3.713 -5.62,-4.379c-4.314,-1.156 -8.741,0.977 -10.611,4.859l-0.016,-0.004c-0.315,-0.084 -0.634,-0.151 -0.957,-0.202l-0.055,-0.009Z" style="fill:#ddd;"/></g><g><g><path d="M433.975,356.68l-150.247,86.745l-19.167,-67.246l120.103,-69.342l49.311,49.843Z" style="fill:#eee0c0;"/><clipPath id="_clip1"><path d="M433.975,356.68l-150.247,86.745l-19.167,-67.246l120.103,-69.342l49.311,49.843Z"/></clipPath><g clip-path="url(#_clip1)"><g><path d="M414.805,289.435l-150.199,86.718l19.122,67.272l150.2,-86.717l-19.123,-67.273Z" style="fill:#eee0c0;"/><g><path d="M405.97,294.536l19.122,67.273" style="fill:none;stroke:#948578;stroke-width:0.69px;"/><path d="M273.441,371.051l19.122,67.273" style="fill:none;stroke:#948578;stroke-width:0.69px;"/><path d="M282.277,365.95l19.122,67.273" style="fill:none;stroke:#948578;stroke-width:0.69px;"/><path d="M291.112,360.849l19.122,67.273" style="fill:none;stroke:#948578;stroke-width:0.69px;"/><path d="M299.947,355.748l19.122,67.273" style="fill:none;stroke:#948578;stroke-width:0.69px;"/><path d="M308.782,350.647l19.123,67.273" style="fill:none;stroke:#948578;stroke-width:0.69px;"/><path d="M317.618,345.546l19.122,67.273" style="fill:none;stroke:#948578;stroke-width:0.69px;"/><path d="M326.453,340.445l19.122,67.273" style="fill:none;stroke:#948578;stroke-width:0.69px;"/><path d="M335.288,335.344l19.122,67.273" style="fill:none;stroke:#948578;stroke-width:0.69px;"/><path d="M344.123,330.243l19.123,67.273" style="fill:none;stroke:#948578;stroke-width:0.69px;"/><path d="M352.959,325.142l19.122,67.273" style="fill:none;stroke:#948578;stroke-width:0.69px;"/><path d="M361.794,320.041l19.122,67.273" style="fill:none;stroke:#948578;stroke-width:0.69px;"/><path d="M370.629,314.94l19.122,67.273" style="fill:none;stroke:#948578;stroke-width:0.69px;"/><path d="M379.464,309.839l19.123,67.273" style="fill:none;stroke:#948578;stroke-width:0.69px;"/><path d="M388.3,304.738l19.122,67.273" style="fill:none;stroke:#948578;stroke-width:0.69px;"/><path d="M397.135,299.637l19.122,67.273" style="fill:none;stroke:#948578;stroke-width:0.69px;"/><path d="M264.606,376.153l19.122,67.272" style="fill:none;stroke:#948578;stroke-width:0.69px;"/><path d="M414.805,289.435l19.123,67.273" style="fill:none;stroke:#948578;stroke-width:0.69px;"/></g></g></g></g><g><path d="M268.261,384.09c-4.019,2.287 -9.145,0.901 -11.461,-3.11c-2.325,-4.027 -0.943,-9.184 3.084,-11.509l121.966,-70.418c4.027,-2.325 9.184,-0.943 11.509,3.084c2.316,4.011 0.954,9.144 -3.036,11.481l-0.048,0.028l-121.966,70.417l-0.048,0.027Z" style="fill:#8c735e;"/><path d="M176.921,101.79c-2.287,-4.02 -0.9,-9.146 3.111,-11.462c4.027,-2.325 9.184,-0.943 11.509,3.084l140.835,243.934c2.325,4.027 0.943,9.184 -3.084,11.509c-4.027,2.324 -9.184,0.943 -11.509,-3.084l-140.835,-243.934l-0.027,-0.047Z" style="fill:#8c735e;"/></g></g><g><path d="M249.054,423.785c-7.654,2.051 -12.203,9.929 -10.152,17.583c2.051,7.654 9.93,12.203 17.583,10.152c7.654,-2.051 12.203,-9.93 10.152,-17.584c-2.051,-7.653 -9.93,-12.202 -17.583,-10.151Z" style="fill:#ddd;"/><path d="M232.117,416.046c-7.776,2.084 -12.398,10.089 -10.314,17.866c2.083,7.776 10.088,12.398 17.865,10.314c7.776,-2.083 12.398,-10.089 10.314,-17.865c-2.083,-7.777 -10.088,-12.398 -17.865,-10.315Z" style="fill:#ddd;"/><path d="M229.448,428.555c-7.777,2.084 -12.399,10.089 -10.315,17.865c2.084,7.777 10.089,12.399 17.865,10.315c7.777,-2.084 12.399,-10.089 10.315,-17.866c-2.084,-7.776 -10.089,-12.398 -17.865,-10.314Z" style="fill:#ddd;"/><path d="M218.711,428.649c-2.418,1.981 -6.941,10.252 -5.286,16.429c1.597,5.961 7.027,9.856 10.5,10.942c-3.66,-1.785 -6.539,-5.044 -7.659,-9.227c-1.232,-4.598 -0.066,-9.29 2.74,-12.8c-0.447,-1.796 -0.53,-3.603 -0.295,-5.344Z" style="fill:#ddd;"/><path d="M283.728,448.737c-3.89,1.851 -13.904,1.51 -16.019,-2.936c-0.664,-1.396 -2.887,-3.828 -4.16,-4.286c-0.058,-0.021 -0.908,1.262 -0.985,1.363c-0.668,0.871 -1.436,1.641 -2.319,2.294c-2.6,1.927 -6.087,3.062 -9.334,2.871c-2.56,-0.15 -5.073,-1.106 -7.254,-2.424c-0.319,-0.193 -2.408,-1.89 -2.608,-1.815c-0.018,0.007 2.137,3.372 2.316,3.625c2.588,3.667 5.621,6.254 9.968,7.656c10.037,3.238 26.122,-2.57 30.395,-6.348Z" style="fill:#ddd;"/><path d="M250.891,420.971c-2.425,-7.25 -10.121,-11.455 -17.605,-9.45c-4.744,1.271 -8.314,4.746 -9.904,9.028c1.855,-3.321 4.997,-5.919 8.959,-6.981c6.876,-1.842 13.93,1.558 16.912,7.745l0.024,-0.006c0.504,-0.133 1.012,-0.241 1.526,-0.323l0.088,-0.013Z" style="fill:#ddd;"/></g></svg>