<?xml version="1.0" encoding="UTF-8" standalone="no"?>
<svg
   xmlns:dc="http://purl.org/dc/elements/1.1/"
   xmlns:cc="http://creativecommons.org/ns#"
   xmlns:rdf="http://www.w3.org/1999/02/22-rdf-syntax-ns#"
   xmlns:svg="http://www.w3.org/2000/svg"
   xmlns="http://www.w3.org/2000/svg"
   xmlns:sodipodi="http://sodipodi.sourceforge.net/DTD/sodipodi-0.dtd"
   xmlns:inkscape="http://www.inkscape.org/namespaces/inkscape"
   width="100%"
   height="100%"
   viewBox="0 0 2048 2048"
   version="1.1"
   xml:space="preserve"
   style="fill-rule:evenodd;clip-rule:evenodd;stroke-linecap:round;stroke-linejoin:round;stroke-miterlimit:1.5;"
   id="svg68"
   sodipodi:docname="siril.svg"
   inkscape:version="0.92.4 5da689c313, 2019-01-14"><metadata
   id="metadata74"><rdf:RDF><cc:Work
       rdf:about=""><dc:format>image/svg+xml</dc:format><dc:type
         rdf:resource="http://purl.org/dc/dcmitype/StillImage" /></cc:Work></rdf:RDF></metadata><defs
   id="defs72" /><sodipodi:namedview
   pagecolor="#ffffff"
   bordercolor="#666666"
   borderopacity="1"
   objecttolerance="10"
   gridtolerance="10"
   guidetolerance="10"
   inkscape:pageopacity="0"
   inkscape:pageshadow="2"
   inkscape:window-width="1850"
   inkscape:window-height="1048"
   id="namedview70"
   showgrid="false"
   inkscape:zoom="0.11523438"
   inkscape:cx="1024"
   inkscape:cy="1024"
   inkscape:window-x="70"
   inkscape:window-y="32"
   inkscape:window-maximized="1"
   inkscape:current-layer="svg68" />
    <g
   transform="matrix(1.1499756,0,0,1.1499756,-358.11787,-314.90425)"
   id="g4">
        <circle
   cx="1189.5601"
   cy="1157.5699"
   r="858.43799"
   style="fill:#707a9f;stroke:#707a9f;stroke-width:19px"
   id="circle2" />
    </g>
    <path
   d="m 99.5172,1426.038 c 41.38648,-46.1945 101.49915,-75.2889 168.35413,-75.2889 68.0889,0 129.1848,30.1754 170.62302,77.8649 39.51661,-54.0949 103.4288,-89.2611 175.48972,-89.2611 64.11229,0 121.77437,27.8409 161.55087,72.0805 41.35887,-45.5736 101.05295,-74.2195 167.38354,-74.2195 44.7996,0 86.57822,13.0753 121.72142,35.5918 49.0465,-81.4183 138.3306,-135.9501 240.253,-135.9501 114.1005,0 212.3545,68.3315 256.065,166.2404 38.8577,-68.4695 112.4216,-114.6985 196.6918,-114.6985 71.2525,0 134.8347,33.0388 176.2683,84.6152 -138.1236,378.6639 -501.5733,649.3107 -927.7543,649.3107 -406.01613,0 -755.11077,-245.6463 -906.6465,-596.2854 z"
   style="fill:#9687bb;stroke-width:1.14997554"
   id="path6"
   inkscape:connector-curvature="0" />
    <g
   transform="matrix(1.1499756,0,0,1.1499756,-165.593,-160.45712)"
   id="g10">
        <path
   d="m 955.504,395.315 -179.882,45.553 -50.543,68.839 44.191,34.194 60.737,-49.408 -17.695,-21.178 -43.889,28.796 32.456,-50.269 c 0,0 66.963,-13.831 76.193,-10.68 9.231,3.152 56.411,27.731 56.411,27.731 l -7.682,83.08 -121.262,57.003 -181.908,19.659 144.522,-45.077 100.119,-46.687 -4.204,-49.498 -20.297,37.164 -68.207,40.451 -121.746,7.505 -33.544,-53.058 73.228,-78.273 L 848.73,395.7 Z"
   style="fill:#acb5d5"
   id="path8"
   inkscape:connector-curvature="0" />
    </g>
    <g
   id="g52"
   transform="matrix(1.1499756,0,0,1.1499756,-171.41129,-142.43666)">
        <g
   transform="matrix(0.853837,0,0,0.853837,97.3586,72.6549)"
   id="g18">
            <path
   d="m 1074.2,789.651 15.76,79.544 -15.76,79.544 -15.75,-79.544 z"
   style="fill:#acb5d5"
   id="path12"
   inkscape:connector-curvature="0" />
            <g
   transform="rotate(90,1074.2035,869.1965)"
   id="g16">
                <path
   d="m 1074.2,789.651 15.76,79.544 -15.76,79.544 -15.75,-79.544 z"
   style="fill:#acb5d5"
   id="path14"
   inkscape:connector-curvature="0" />
            </g>
        </g>
        <g
   transform="matrix(0.853837,0,0,0.853837,-476.433,109.229)"
   id="g26">
            <path
   d="m 1074.2,789.651 15.76,79.544 -15.76,79.544 -15.75,-79.544 z"
   style="fill:#acb5d5"
   id="path20"
   inkscape:connector-curvature="0" />
            <g
   transform="rotate(90,1074.2035,869.1965)"
   id="g24">
                <path
   d="m 1074.2,789.651 15.76,79.544 -15.76,79.544 -15.75,-79.544 z"
   style="fill:#acb5d5"
   id="path22"
   inkscape:connector-curvature="0" />
            </g>
        </g>
        <g
   transform="matrix(0.853837,0,0,0.853837,750.811,355.813)"
   id="g34">
            <path
   d="m 1074.2,789.651 15.76,79.544 -15.76,79.544 -15.75,-79.544 z"
   style="fill:#acb5d5"
   id="path28"
   inkscape:connector-curvature="0" />
            <g
   transform="rotate(90,1074.2035,869.1965)"
   id="g32">
                <path
   d="m 1074.2,789.651 15.76,79.544 -15.76,79.544 -15.75,-79.544 z"
   style="fill:#acb5d5"
   id="path30"
   inkscape:connector-curvature="0" />
            </g>
        </g>
        <g
   transform="matrix(1.22355,0,0,1.22355,-2.74177,-559.939)"
   id="g42">
            <path
   d="m 1074.2,789.651 15.76,79.544 -15.76,79.544 -15.75,-79.544 z"
   style="fill:#acb5d5"
   id="path36"
   inkscape:connector-curvature="0" />
            <g
   transform="rotate(90,1074.2035,869.1965)"
   id="g40">
                <path
   d="m 1074.2,789.651 15.76,79.544 -15.76,79.544 -15.75,-79.544 z"
   style="fill:#acb5d5"
   id="path38"
   inkscape:connector-curvature="0" />
            </g>
        </g>
        <g
   transform="matrix(1.22355,0,0,1.22355,-632.136,-37.7711)"
   id="g50">
            <path
   d="m 1074.2,789.651 15.76,79.544 -15.76,79.544 -15.75,-79.544 z"
   style="fill:#acb5d5"
   id="path44"
   inkscape:connector-curvature="0" />
            <g
   transform="rotate(90,1074.2035,869.1965)"
   id="g48">
                <path
   d="m 1074.2,789.651 15.76,79.544 -15.76,79.544 -15.75,-79.544 z"
   style="fill:#acb5d5"
   id="path46"
   inkscape:connector-curvature="0" />
            </g>
        </g>
    </g>
    <g
   transform="matrix(1.1499756,0,0,1.1499756,-149.93872,-158.39717)"
   id="g66">
        <g
   transform="matrix(1.15677,0.374628,-0.374628,1.15677,96.02,-680.087)"
   id="g56">
            <path
   d="m 1371.85,869.953 24.25,-113.859 81.3,-32.766 91.6,47.944 4.35,85.771 -125.21,71.774 4.88,-15.912 104.95,-65.298 -2.59,-69.169 -78.44,-39.036 -71.86,31.515 -20.05,87.358 67.99,54.63 -4.88,15.912 z"
   style="fill:#acb5d5"
   id="path54"
   inkscape:connector-curvature="0" />
        </g>
        <g
   transform="matrix(1.15677,0.374628,-0.374628,1.15677,96.02,-680.087)"
   id="g60">
            <path
   d="m 1450.07,799.406 -106.58,26.754 -50.27,76.46 44.44,90.784 123.46,-6.464 51.39,-66.777 3.03,-81.406 -9.47,11 -9.43,69.547 -44.76,54.525 -101.33,7.469 -42.43,-75.688 43.96,-64.313 90.67,-30.099 63.32,38.559 9.47,-11 z"
   style="fill:#acb5d5"
   id="path58"
   inkscape:connector-curvature="0" />
        </g>
        <g
   transform="rotate(5.3023537,1546.3572,840.89575)"
   id="g64">
            <circle
   cx="1448.29"
   cy="863.76398"
   r="35.673"
   style="fill:#acb5d5"
   id="circle62" />
        </g>
    </g>
</svg>