<?xml version="1.0" encoding="UTF-8" standalone="no"?><!DOCTYPE svg PUBLIC "-//W3C//DTD SVG 1.1//EN" "http://www.w3.org/Graphics/SVG/1.1/DTD/svg11.dtd"><svg width="100%" height="100%" viewBox="0 0 534 534" version="1.1" xmlns="http://www.w3.org/2000/svg" xmlns:xlink="http://www.w3.org/1999/xlink" xml:space="preserve" xmlns:serif="http://www.serif.com/" style="fill-rule:evenodd;clip-rule:evenodd;stroke-linejoin:round;stroke-miterlimit:2;"><rect id="sk1" x="0.773" y="0" width="533.333" height="533.333" style="fill:none;"/><path d="M511.249,94.87c0,-39.745 -32.268,-72.013 -72.013,-72.013l-343.593,0c-39.745,0 -72.013,32.268 -72.013,72.013l0,343.593c0,39.745 32.268,72.013 72.013,72.013l343.593,0c39.745,0 72.013,-32.268 72.013,-72.013l0,-343.593Z" style="fill:#434343;"/><g><path d="M206.689,228.269c0,-9.458 -7.667,-17.125 -17.126,-17.125c-20.87,-0 -55.924,-0 -76.794,-0c-9.458,-0 -17.126,7.667 -17.126,17.125c0,42.209 0,150.86 0,193.069c0,9.458 7.668,17.125 17.126,17.125c20.87,0 55.924,0 76.794,0c9.459,0 17.126,-7.667 17.126,-17.125c0,-42.209 0,-150.86 0,-193.069Z" style="fill:#c8c8c8;"/><path d="M439.236,344.543c0,-9.458 -7.667,-17.126 -17.125,-17.126c-42.209,0 -150.86,0 -193.069,0c-9.458,0 -17.125,7.668 -17.125,17.126c-0,20.87 -0,55.924 -0,76.795c-0,9.458 7.667,17.125 17.125,17.125c42.209,0 150.86,0 193.069,0c9.458,0 17.125,-7.667 17.125,-17.125c0,-20.871 0,-55.925 0,-76.795Z" style="fill:#ffe58d;"/><path d="M439.236,111.996c0,-9.459 -7.667,-17.126 -17.125,-17.126c-20.87,0 -55.925,0 -76.795,0c-9.458,0 -17.126,7.667 -17.126,17.126c0,42.208 0,150.859 0,193.068c0,9.458 7.668,17.126 17.126,17.126c20.87,-0 55.925,-0 76.795,-0c9.458,-0 17.125,-7.668 17.125,-17.126c0,-42.209 0,-150.86 0,-193.068Z" style="fill:#e5a6e5;"/><path d="M322.963,111.996c-0,-9.459 -7.668,-17.126 -17.126,-17.126c-42.208,0 -150.86,0 -193.068,0c-9.458,0 -17.126,7.667 -17.126,17.126c0,20.87 0,55.924 0,76.794c0,9.459 7.668,17.126 17.126,17.126c42.208,-0 150.86,-0 193.068,-0c9.458,-0 17.126,-7.667 17.126,-17.126c-0,-20.87 -0,-55.924 -0,-76.794Z" style="fill:#89bbea;"/></g></svg>