<?xml version="1.0" encoding="UTF-8" standalone="no"?>
<svg
   xmlns:dc="http://purl.org/dc/elements/1.1/"
   xmlns:cc="http://creativecommons.org/ns#"
   xmlns:rdf="http://www.w3.org/1999/02/22-rdf-syntax-ns#"
   xmlns:svg="http://www.w3.org/2000/svg"
   xmlns="http://www.w3.org/2000/svg"
   xmlns:xlink="http://www.w3.org/1999/xlink"
   xmlns:sodipodi="http://sodipodi.sourceforge.net/DTD/sodipodi-0.dtd"
   xmlns:inkscape="http://www.inkscape.org/namespaces/inkscape"
   version="1.1"
   preserveAspectRatio="xMidYMid meet"
   viewBox="0 0 640 640"
   width="64"
   height="64"
   id="svg68"
   sodipodi:docname="soundkonverter.svg"
   inkscape:version="0.92.4 5da689c313, 2019-01-14">
  <metadata
     id="metadata72">
    <rdf:RDF>
      <cc:Work
         rdf:about="">
        <dc:format>image/svg+xml</dc:format>
        <dc:type
           rdf:resource="http://purl.org/dc/dcmitype/StillImage" />
      </cc:Work>
    </rdf:RDF>
  </metadata>
  <sodipodi:namedview
     pagecolor="#ffffff"
     bordercolor="#666666"
     borderopacity="1"
     objecttolerance="10"
     gridtolerance="10"
     guidetolerance="10"
     inkscape:pageopacity="0"
     inkscape:pageshadow="2"
     inkscape:window-width="1850"
     inkscape:window-height="1048"
     id="namedview70"
     showgrid="false"
     inkscape:zoom="3.6875"
     inkscape:cx="9.3904053"
     inkscape:cy="-3.4881508"
     inkscape:window-x="70"
     inkscape:window-y="32"
     inkscape:window-maximized="1"
     inkscape:current-layer="g64" />
  <defs
     id="defs14">
    <path
       d="M586.38 320C586.38 471.98 467.02 595.37 320 595.37C172.98 595.37 53.62 471.98 53.62 320C53.62 168.02 172.98 44.63 320 44.63C467.02 44.63 586.38 168.02 586.38 320Z"
       id="c1NWmpNBgx" />
    <path
       d="M421.27 270.93C486.47 268.33 541.72 324.48 544.57 396.22C547.43 467.97 496.82 528.33 431.62 530.93C366.42 533.52 311.17 477.38 308.31 405.63C305.46 333.88 356.07 273.52 421.27 270.93Z"
       id="d4ixUK5x4k" />
    <path
       d="M211.19 101.77C276.39 99.17 331.64 155.32 334.5 227.07C337.35 298.82 286.74 359.17 221.54 361.77C156.34 364.36 101.09 308.22 98.24 236.47C95.38 164.72 145.99 104.36 211.19 101.77Z"
       id="bmgiDhm0" />
    <path
       d="M184.78 140.84C249.98 138.25 305.23 194.39 308.08 266.14C310.94 337.89 260.32 398.24 195.13 400.84C129.93 403.43 74.68 347.29 71.82 275.54C68.97 203.79 119.58 143.43 184.78 140.84Z"
       id="i2EFKEAMkn" />
    <path
       d="M440.83 318.88C440.83 422.78 377.87 507.14 300.33 507.14C222.79 507.14 159.83 422.78 159.83 318.88C159.83 214.97 222.79 130.61 300.33 130.61C377.87 130.61 440.83 214.97 440.83 318.88Z"
       id="bzAr7mAd" />
    <path
       d="M392.26 313.82C392.26 417.72 329.31 502.08 251.77 502.08C174.23 502.08 111.27 417.72 111.27 313.82C111.27 209.91 174.23 125.55 251.77 125.55C329.31 125.55 392.26 209.91 392.26 313.82Z"
       id="b1PKlnaOxf" />
    <path
       d="M439.82 224.61C505.01 222.02 560.26 278.16 563.12 349.91C565.98 421.66 515.36 482.02 450.16 484.61C384.97 487.21 329.71 431.06 326.86 359.31C324 287.56 374.62 227.21 439.82 224.61Z"
       id="a2P9QC8u5Z" />
    <path
       d="M412.73 324.76C412.73 438.6 352.04 531.01 277.29 531.01C202.54 531.01 141.85 438.6 141.85 324.76C141.85 210.93 202.54 118.52 277.29 118.52C352.04 118.52 412.73 210.93 412.73 324.76Z"
       id="e2OSOCqYDQ" />
    <path
       d="M518.94 331.42C517.15 435.31 452.76 518.58 375.23 517.24C297.7 515.91 236.2 430.48 237.99 326.59C239.77 222.7 304.17 139.44 381.7 140.77C459.23 142.1 520.72 227.53 518.94 331.42Z"
       id="e8A9Jhn9A" />
    <path
       d="M489.49 318.88C489.49 432.71 428.8 525.12 354.05 525.12C279.3 525.12 218.61 432.71 218.61 318.88C218.61 205.04 279.3 112.63 354.05 112.63C428.8 112.63 489.49 205.04 489.49 318.88Z"
       id="h8YaMYpB8" />
    <path
       d="M310.45 451.5C310.45 479.42 277.96 502.08 237.95 502.08C197.94 502.08 165.45 479.42 165.45 451.5C165.45 423.59 197.94 400.93 237.95 400.93C277.96 400.93 310.45 423.59 310.45 451.5Z"
       id="a3TKd709Xv" />
    <path
       d="M464.99 181.19C464.99 209.11 432.51 231.77 392.5 231.77C352.48 231.77 320 209.11 320 181.19C320 153.28 352.48 130.61 392.5 130.61C432.51 130.61 464.99 153.28 464.99 181.19Z"
       id="a1cT4XVpFX" />
  </defs>
  <g
     id="g66">
    <g
       id="g64">
      <g
         id="g18"
         style="stroke:#c8bdca;stroke-width:27;stroke-miterlimit:4;stroke-dasharray:none;stroke-opacity:1"
         transform="matrix(1.1274393,0,0,1.0906317,-42.969494,-28.317769)">
        <use
           xlink:href="#c1NWmpNBgx"
           id="use16"
           style="opacity:1;fill:#ebe2ec;fill-opacity:1;stroke:#c8bdca;stroke-width:27;stroke-miterlimit:4;stroke-dasharray:none;stroke-opacity:1"
           x="0"
           y="0"
           width="100%"
           height="100%" />
      </g>
      <g
         id="g22">
        <use
           xlink:href="#d4ixUK5x4k"
           id="use20"
           fill-opacity="1"
           fill="#8d6f8c"
           opacity="1" />
      </g>
      <g
         id="g26">
        <use
           xlink:href="#bmgiDhm0"
           id="use24"
           fill-opacity="1"
           fill="#e6a9dc"
           opacity="1" />
      </g>
      <g
         id="g30">
        <use
           xlink:href="#i2EFKEAMkn"
           id="use28"
           fill-opacity="1"
           fill="#ebe2ec"
           opacity="1" />
      </g>
      <g
         id="g34">
        <use
           xlink:href="#bzAr7mAd"
           id="use32"
           fill-opacity="1"
           fill="#196262"
           opacity="1" />
      </g>
      <g
         id="g38">
        <use
           xlink:href="#b1PKlnaOxf"
           id="use36"
           fill-opacity="1"
           fill="#e6a9dc"
           opacity="1" />
      </g>
      <g
         id="g42">
        <use
           xlink:href="#a2P9QC8u5Z"
           id="use40"
           fill-opacity="1"
           fill="#ebe2ec"
           opacity="1" />
      </g>
      <g
         id="g46">
        <use
           xlink:href="#e2OSOCqYDQ"
           id="use44"
           fill-opacity="1"
           fill="#ebe2ec"
           opacity="1" />
      </g>
      <g
         id="g50">
        <use
           xlink:href="#e8A9Jhn9A"
           id="use48"
           fill-opacity="1"
           fill="#8d6f8c"
           opacity="1" />
      </g>
      <g
         id="g54">
        <use
           xlink:href="#h8YaMYpB8"
           id="use52"
           fill-opacity="1"
           fill="#ebe2ec"
           opacity="1" />
      </g>
      <g
         id="g58">
        <use
           xlink:href="#a3TKd709Xv"
           id="use56"
           fill-opacity="1"
           fill="#e6a9dc"
           opacity="1" />
      </g>
      <g
         id="g62">
        <use
           xlink:href="#a1cT4XVpFX"
           id="use60"
           fill-opacity="1"
           fill="#8d6f8c"
           opacity="1" />
      </g>
    </g>
  </g>
</svg>
