<?xml version="1.0" encoding="UTF-8" standalone="no"?>
<svg
   xmlns:dc="http://purl.org/dc/elements/1.1/"
   xmlns:cc="http://creativecommons.org/ns#"
   xmlns:rdf="http://www.w3.org/1999/02/22-rdf-syntax-ns#"
   xmlns:svg="http://www.w3.org/2000/svg"
   xmlns="http://www.w3.org/2000/svg"
   xmlns:sodipodi="http://sodipodi.sourceforge.net/DTD/sodipodi-0.dtd"
   xmlns:inkscape="http://www.inkscape.org/namespaces/inkscape"
   version="1.1"
   id="Capa_1"
   x="0px"
   y="0px"
   viewBox="0 0 512 512"
   style="enable-background:new 0 0 512 512;"
   xml:space="preserve"
   sodipodi:docname="secureid.svg"
   inkscape:version="1.0.1 (3bc2e813f5, 2020-09-07)"><metadata
   id="metadata61"><rdf:RDF><cc:Work
       rdf:about=""><dc:format>image/svg+xml</dc:format><dc:type
         rdf:resource="http://purl.org/dc/dcmitype/StillImage" /><dc:title></dc:title></cc:Work></rdf:RDF></metadata><defs
   id="defs59" /><sodipodi:namedview
   pagecolor="#ffffff"
   bordercolor="#666666"
   borderopacity="1"
   objecttolerance="10"
   gridtolerance="10"
   guidetolerance="10"
   inkscape:pageopacity="0"
   inkscape:pageshadow="2"
   inkscape:window-width="1849"
   inkscape:window-height="1048"
   id="namedview57"
   showgrid="false"
   inkscape:zoom="0.70019531"
   inkscape:cx="167.46533"
   inkscape:cy="423.55915"
   inkscape:window-x="71"
   inkscape:window-y="32"
   inkscape:window-maximized="1"
   inkscape:current-layer="Capa_1" />
<path
   style="fill:#97c4e0;fill-opacity:1"
   d="M283.912,491.627l-22.229,11.683c-3.557,1.87-7.806,1.87-11.364,0l-22.229-11.683  C106.032,427.473,30.871,309.089,30.871,180.994V102.75c0-6.187,4.619-11.478,10.772-12.127  c42.072-4.439,75.521-34.558,80.852-72.65c0.853-6.095,5.961-10.686,12.115-10.686h242.784c6.154,0,11.262,4.591,12.115,10.686  c5.331,38.092,38.78,68.212,80.852,72.65c6.153,0.649,10.772,5.94,10.772,12.127v78.244  C481.132,309.089,405.97,427.473,283.912,491.627z"
   id="path2" />

<path
   style="fill:#73a8bf;fill-opacity:1"
   d="M247.763,460.253c-55.349-29.091-101.387-70.902-133.138-120.912  C83.249,289.922,66.664,233.76,66.664,176.928v-44.412c0-6.427,3.903-12.228,9.879-14.592c32.917-13.025,59.48-37.475,74.007-68.019  c2.589-5.443,8.121-8.869,14.148-8.869h182.604c6.027,0,11.559,3.427,14.148,8.869c14.528,30.544,41.09,54.994,74.008,68.019  c5.976,2.365,9.879,8.166,9.879,14.592v44.412c0,56.832-16.584,112.994-47.96,162.413c-31.751,50.01-77.79,91.821-133.137,120.912  l-0.921,0.484c-4.581,2.408-10.054,2.408-14.635,0L247.763,460.253z"
   id="path6" />


<path
   style="fill:#eaeaea;fill-opacity:1"
   d="M339.46,325.255H173.101c-8.774,0-15.887-7.113-15.887-15.887V205.039  c0-8.774,7.113-15.887,15.887-15.887H339.46c8.774,0,15.887,7.113,15.887,15.887v104.329  C355.347,318.142,348.234,325.255,339.46,325.255z"
   id="path12" />

<path
   d="M248.993,264.738v20.747c0,4.024,3.262,7.287,7.287,7.287s7.287-3.262,7.287-7.287v-20.747  c5.776-2.736,9.781-8.601,9.781-15.416c0-9.426-7.641-17.067-17.067-17.067s-17.067,7.641-17.067,17.067  C239.213,256.137,243.218,262.002,248.993,264.738z"
   id="path16" />
<path
   d="M244.373,466.703L244.373,466.703l0.92,0.484c3.353,1.762,7.03,2.643,10.708,2.643c3.676,0,7.354-0.881,10.705-2.642  l0.923-0.485c56.474-29.683,103.467-72.373,135.899-123.456c32.118-50.589,49.095-108.1,49.095-166.318v-44.412  c0-9.5-5.686-17.887-14.485-21.368c-31.369-12.413-56.267-35.275-70.108-64.373c-3.764-7.913-11.9-13.027-20.729-13.027H164.699  c-8.828,0-16.964,5.113-20.728,13.027c-13.84,29.098-38.739,51.96-70.108,64.373c-8.799,3.481-14.484,11.869-14.484,21.368v44.412  c0,58.219,16.977,115.73,49.096,166.318C140.906,394.33,187.9,437.021,244.373,466.703z M73.951,176.929v-44.412  c0-3.481,2.07-6.55,5.273-7.817c34.81-13.774,62.477-39.225,77.906-71.664c1.361-2.863,4.332-4.713,7.568-4.713h182.604  c3.236,0,6.206,1.85,7.568,4.713c15.43,32.439,43.098,57.89,77.907,71.665c3.203,1.267,5.273,4.336,5.273,7.817v44.412  c0,55.447-16.192,110.257-46.825,158.507c-31.069,48.936-76.153,89.867-130.374,118.367l-0.923,0.484  c-2.459,1.294-5.395,1.293-7.855,0l-0.92-0.483c-54.223-28.5-99.307-69.431-130.377-118.368  C90.143,287.188,73.951,232.377,73.951,176.929z"
   id="path18" />
<path
   d="M474.672,246.08c-3.925-0.888-7.827,1.575-8.713,5.501c-22.192,98.177-89.78,183.32-185.436,233.597l-22.229,11.684  c-1.435,0.754-3.149,0.754-4.584,0l-22.229-11.684c-95.806-50.356-163.428-135.646-185.527-234  c-0.881-3.926-4.781-6.395-8.706-5.512c-3.926,0.882-6.394,4.78-5.512,8.706c23.036,102.531,93.369,191.358,192.965,243.705  l22.229,11.684c2.841,1.492,5.956,2.239,9.072,2.239c3.115,0,6.232-0.747,9.072-2.24l22.229-11.684  c99.439-52.265,169.737-140.938,192.871-243.283C481.06,250.868,478.597,246.967,474.672,246.08z"
   id="path20" />
<path
   d="M471.125,83.377c-38.909-4.105-69.503-31.416-74.4-66.414C395.372,7.292,387.061,0,377.393,0H134.609  c-9.667,0-17.978,7.292-19.331,16.963c-4.898,34.999-35.492,62.309-74.4,66.414c-9.859,1.04-17.294,9.369-17.294,19.373v78.244  c0,11.37,0.589,22.865,1.751,34.167c0.386,3.75,3.55,6.542,7.24,6.542c0.249,0,0.501-0.013,0.754-0.039  c4.003-0.411,6.915-3.99,6.503-7.993c-1.111-10.809-1.675-21.803-1.675-32.677V102.75c0-2.485,1.867-4.63,4.25-4.881  c45.576-4.808,81.476-37.248,87.304-78.887c0.358-2.555,2.417-4.409,4.898-4.409h242.783c2.481,0,4.542,1.854,4.899,4.409  c5.826,41.639,41.727,74.078,87.303,78.887c2.383,0.251,4.25,2.396,4.25,4.881v78.244c0,10.759-0.552,21.639-1.64,32.34  c-0.407,4.003,2.509,7.579,6.512,7.986c4.001,0.41,7.579-2.509,7.987-6.512c1.138-11.188,1.714-22.564,1.714-33.814V102.75  C488.418,92.746,480.984,84.417,471.125,83.377z"
   id="path22" />
<path
   d="M339.46,332.542c12.778,0,23.174-10.396,23.174-23.174V205.039c0-12.778-10.396-23.174-23.174-23.174h-11.981v-34.782  c0-39.259-31.939-71.198-71.199-71.198c-39.259,0-71.199,31.939-71.199,71.198v34.782h-11.98c-12.778,0-23.174,10.396-23.174,23.174  v104.329c0,12.778,10.396,23.174,23.174,23.174L339.46,332.542L339.46,332.542z M199.655,147.084  c0-31.223,25.402-56.625,56.626-56.625s56.626,25.402,56.626,56.625v34.782H199.655V147.084z M164.5,309.368V205.039  c0-4.742,3.859-8.601,8.601-8.601H339.46c4.742,0,8.601,3.858,8.601,8.601v104.329c0,4.742-3.859,8.601-8.601,8.601H173.101  C168.358,317.969,164.5,314.11,164.5,309.368z"
   id="path24" />
<g
   id="g26">
</g>
<g
   id="g28">
</g>
<g
   id="g30">
</g>
<g
   id="g32">
</g>
<g
   id="g34">
</g>
<g
   id="g36">
</g>
<g
   id="g38">
</g>
<g
   id="g40">
</g>
<g
   id="g42">
</g>
<g
   id="g44">
</g>
<g
   id="g46">
</g>
<g
   id="g48">
</g>
<g
   id="g50">
</g>
<g
   id="g52">
</g>
<g
   id="g54">
</g>
</svg>
