<?xml version="1.0" encoding="UTF-8" standalone="no"?>
<svg
   xmlns:dc="http://purl.org/dc/elements/1.1/"
   xmlns:cc="http://creativecommons.org/ns#"
   xmlns:rdf="http://www.w3.org/1999/02/22-rdf-syntax-ns#"
   xmlns:svg="http://www.w3.org/2000/svg"
   xmlns="http://www.w3.org/2000/svg"
   xmlns:xlink="http://www.w3.org/1999/xlink"
   xmlns:sodipodi="http://sodipodi.sourceforge.net/DTD/sodipodi-0.dtd"
   xmlns:inkscape="http://www.inkscape.org/namespaces/inkscape"
   version="1.1"
   preserveAspectRatio="xMidYMid meet"
   viewBox="0 0 640 640"
   width="64"
   height="64"
   id="svg43"
   sodipodi:docname="storyboarder2.svg"
   inkscape:version="0.92.4 5da689c313, 2019-01-14">
  <metadata
     id="metadata47">
    <rdf:RDF>
      <cc:Work
         rdf:about="">
        <dc:format>image/svg+xml</dc:format>
        <dc:type
           rdf:resource="http://purl.org/dc/dcmitype/StillImage" />
      </cc:Work>
    </rdf:RDF>
  </metadata>
  <sodipodi:namedview
     pagecolor="#ffffff"
     bordercolor="#666666"
     borderopacity="1"
     objecttolerance="10"
     gridtolerance="10"
     guidetolerance="10"
     inkscape:pageopacity="0"
     inkscape:pageshadow="2"
     inkscape:window-width="1850"
     inkscape:window-height="1048"
     id="namedview45"
     showgrid="false"
     inkscape:zoom="3.6875"
     inkscape:cx="32"
     inkscape:cy="32"
     inkscape:window-x="70"
     inkscape:window-y="32"
     inkscape:window-maximized="1"
     inkscape:current-layer="svg43" />
  <defs
     id="defs9">
    <path
       d="M570.29 45.75C601.21 45.75 626.28 70.82 626.28 101.74C626.28 198.67 626.28 433.46 626.28 530.39C626.28 561.31 601.21 586.38 570.29 586.38C459.87 586.38 184 586.38 73.43 586.38C42.94 586.38 18.21 561.66 18.21 531.16C18.21 434.08 18.21 196.82 18.21 99.43C18.21 69.78 42.25 45.75 71.89 45.75C182.77 45.75 459.87 45.75 570.29 45.75Z"
       id="grSco2ZPw" />
    <path
       d="M101.78 182.94C110.75 177.86 122.15 181.05 127.19 190.05C138.03 209.41 165.15 257.81 208.52 335.25L136.85 376.19C93.41 299.44 66.25 251.47 55.39 232.28C49.93 222.62 53.32 210.37 62.98 204.91C73.99 198.67 90.52 189.31 101.78 182.94Z"
       id="bymOIcby" />
    <path
       d="M174.67 401.19L136.4 376.23L172.56 355.55L208.71 334.87L210.82 380.51L212.94 426.15L174.67 401.19Z"
       id="b1SvmXLOEv" />
    <path
       d="M560.44 140.17C571.35 140.17 580.2 149.01 580.2 159.92C580.2 192.61 580.2 270.92 580.2 303.61C580.2 314.53 571.35 323.37 560.44 323.37C498.75 323.37 333.45 323.37 271.76 323.37C260.85 323.37 252 314.53 252 303.61C252 270.92 252 192.61 252 159.92C252 149.01 260.85 140.17 271.76 140.17C333.45 140.17 498.75 140.17 560.44 140.17Z"
       id="cagX7fLLe" />
    <path
       d="M328.66 364.96C339.71 364.96 348.66 373.91 348.66 384.96C348.66 398.94 348.66 420.89 348.66 434.88C348.66 445.92 339.71 454.88 328.66 454.88C311.98 454.88 281.94 454.88 265.26 454.88C254.21 454.88 245.26 445.92 245.26 434.88C245.26 420.89 245.26 398.94 245.26 384.96C245.26 373.91 254.21 364.96 265.26 364.96C281.94 364.96 311.98 364.96 328.66 364.96Z"
       id="d2SWaPKElV" />
    <path
       d="M451.17 364.96C462.22 364.96 471.17 373.91 471.17 384.96C471.17 398.94 471.17 420.89 471.17 434.88C471.17 445.92 462.22 454.88 451.17 454.88C434.49 454.88 404.45 454.88 387.77 454.88C376.72 454.88 367.77 445.92 367.77 434.88C367.77 420.89 367.77 398.94 367.77 384.96C367.77 373.91 376.72 364.96 387.77 364.96C404.45 364.96 434.49 364.96 451.17 364.96Z"
       id="c7CqnjhUg3" />
    <path
       d="M570.98 364.96C582.02 364.96 590.98 373.91 590.98 384.96C590.98 398.94 590.98 420.89 590.98 434.88C590.98 445.92 582.02 454.88 570.98 454.88C554.29 454.88 524.25 454.88 507.57 454.88C496.52 454.88 487.57 445.92 487.57 434.88C487.57 420.89 487.57 398.94 487.57 384.96C487.57 373.91 496.52 364.96 507.57 364.96C524.25 364.96 554.29 364.96 570.98 364.96Z"
       id="f1AqOh96Cr" />
  </defs>
  <g
     id="g41"
     transform="translate(8.1355932)">
    <g
       id="g39"
       transform="matrix(0.97324126,0,0,1.0601934,0.48727661,-16.313171)">
      <g
         id="g13"
         style="fill:#5f8dd3">
        <use
           xlink:href="#grSco2ZPw"
           id="use11"
           style="opacity:1;fill:#5f8dd3;fill-opacity:1"
           x="0"
           y="0"
           width="100%"
           height="100%" />
      </g>
      <g
         id="g17"
         style="fill:#afc2de;fill-opacity:1"
         transform="matrix(0.86182762,0,0,0.86182762,32.370879,52.62027)">
        <use
           xlink:href="#bymOIcby"
           id="use15"
           style="opacity:1;fill:#afc2de;fill-opacity:1"
           x="0"
           y="0"
           width="100%"
           height="100%" />
      </g>
      <g
         id="g21"
         style="fill:#afc2de;fill-opacity:1"
         transform="matrix(0.86182762,0,0,0.86182762,32.370879,52.62027)">
        <use
           xlink:href="#b1SvmXLOEv"
           id="use19"
           style="opacity:1;fill:#afc2de;fill-opacity:1"
           x="0"
           y="0"
           width="100%"
           height="100%" />
      </g>
      <g
         id="g25"
         style="fill:#afc2de;fill-opacity:1"
         transform="matrix(0.86182762,0,0,0.86182762,32.370879,52.62027)">
        <use
           xlink:href="#cagX7fLLe"
           id="use23"
           style="opacity:1;fill:#afc2de;fill-opacity:1"
           x="0"
           y="0"
           width="100%"
           height="100%" />
      </g>
      <g
         id="g29"
         style="fill:#afc2de;fill-opacity:1"
         transform="matrix(0.86182762,0,0,0.86182762,32.370879,52.62027)">
        <use
           xlink:href="#d2SWaPKElV"
           id="use27"
           style="opacity:1;fill:#afc2de;fill-opacity:1"
           x="0"
           y="0"
           width="100%"
           height="100%" />
      </g>
      <g
         id="g33"
         style="fill:#afc2de;fill-opacity:1"
         transform="matrix(0.86182762,0,0,0.86182762,32.370879,52.62027)">
        <use
           xlink:href="#c7CqnjhUg3"
           id="use31"
           style="opacity:1;fill:#afc2de;fill-opacity:1"
           x="0"
           y="0"
           width="100%"
           height="100%" />
      </g>
      <g
         id="g37"
         style="fill:#afc2de;fill-opacity:1"
         transform="matrix(0.86182762,0,0,0.86182762,32.370879,52.62027)">
        <use
           xlink:href="#f1AqOh96Cr"
           id="use35"
           style="opacity:1;fill:#afc2de;fill-opacity:1"
           x="0"
           y="0"
           width="100%"
           height="100%" />
      </g>
    </g>
  </g>
</svg>
