<?xml version="1.0" encoding="UTF-8" standalone="no"?>
<svg
   xmlns:dc="http://purl.org/dc/elements/1.1/"
   xmlns:cc="http://creativecommons.org/ns#"
   xmlns:rdf="http://www.w3.org/1999/02/22-rdf-syntax-ns#"
   xmlns:svg="http://www.w3.org/2000/svg"
   xmlns="http://www.w3.org/2000/svg"
   xmlns:sodipodi="http://sodipodi.sourceforge.net/DTD/sodipodi-0.dtd"
   xmlns:inkscape="http://www.inkscape.org/namespaces/inkscape"
   height="48"
   width="48"
   version="1.1"
   id="svg6"
   sodipodi:docname="strawberry.svg"
   inkscape:version="1.0.2 (e86c870879, 2021-01-15)">
  <metadata
     id="metadata12">
    <rdf:RDF>
      <cc:Work
         rdf:about="">
        <dc:format>image/svg+xml</dc:format>
        <dc:type
           rdf:resource="http://purl.org/dc/dcmitype/StillImage" />
        <dc:title></dc:title>
      </cc:Work>
    </rdf:RDF>
  </metadata>
  <defs
     id="defs10" />
  <sodipodi:namedview
     pagecolor="#ffffff"
     bordercolor="#666666"
     borderopacity="1"
     objecttolerance="10"
     gridtolerance="10"
     guidetolerance="10"
     inkscape:pageopacity="0"
     inkscape:pageshadow="2"
     inkscape:window-width="1507"
     inkscape:window-height="1056"
     id="namedview8"
     showgrid="false"
     inkscape:zoom="7.9999999"
     inkscape:cx="41.556668"
     inkscape:cy="34.15534"
     inkscape:window-x="411"
     inkscape:window-y="24"
     inkscape:window-maximized="0"
     inkscape:current-layer="svg6"
     inkscape:document-rotation="0" />
  <circle
     cx="23.940615"
     cy="31.534513"
     fill="#74a2f3"
     opacity=".99"
     id="circle2"
     style="fill:#a9b7c0;fill-opacity:1"
     transform="matrix(1.75830584759 0 0 1.75830608345 -18.15909274367 -30.97874795549)"
     r="13.232998" />
  <ellipse
     cx="23.935829"
     cy="24.468578"
     fill="#74a2f3"
     opacity="0.99"
     id="circle856"
     style="fill:#ffffff;fill-opacity:1;stroke-width:1.54048"
     rx="20.385096"
     ry="20.385099" />
  <path
     id="path833"
     style="color:#000000;font-style:normal;font-variant:normal;font-weight:normal;font-stretch:normal;font-size:medium;line-height:normal;font-family:sans-serif;font-variant-ligatures:normal;font-variant-position:normal;font-variant-caps:normal;font-variant-numeric:normal;font-variant-alternates:normal;font-variant-east-asian:normal;font-feature-settings:normal;font-variation-settings:normal;text-indent:0;text-align:start;text-decoration:none;text-decoration-line:none;text-decoration-style:solid;text-decoration-color:#000000;letter-spacing:normal;word-spacing:normal;text-transform:none;writing-mode:lr-tb;direction:ltr;text-orientation:mixed;dominant-baseline:auto;baseline-shift:baseline;text-anchor:start;white-space:normal;shape-padding:0;shape-margin:0;inline-size:0;clip-rule:nonzero;display:inline;overflow:visible;visibility:visible;isolation:auto;mix-blend-mode:normal;color-interpolation:sRGB;color-interpolation-filters:linearRGB;solid-color:#000000;solid-opacity:1;vector-effect:none;fill:#e97b90;fill-opacity:0.998039;fill-rule:nonzero;stroke:none;stroke-width:0.194025;stroke-linecap:square;stroke-linejoin:miter;stroke-miterlimit:4;stroke-dasharray:none;stroke-dashoffset:0;stroke-opacity:1;color-rendering:auto;image-rendering:auto;shape-rendering:auto;text-rendering:auto;enable-background:accumulate;stop-color:#000000"
     d="m 20.045231,14.692998 c -0.891955,0.01 -1.750188,0.225922 -2.534098,0.618134 -1.791796,0.896485 -3.226,2.574866 -4.387194,4.564563 -2.32239,3.979393 -3.5824129,9.259931 -3.3658961,13.000358 0.119541,2.065113 0.8992171,3.222331 1.6435441,4.002178 6.39e-4,6.77e-4 0.0013,0.0016 0.0019,0.0022 0.344949,0.365375 0.664821,0.676314 0.990617,0.99553 0.796094,0.779516 1.953226,1.675659 4.168116,1.803868 3.740431,0.216517 9.020565,-1.043506 12.999957,-3.365896 1.989698,-1.161196 3.668079,-2.594997 4.564563,-4.386794 0.896487,-1.791794 0.872715,-3.972975 -0.42783,-6.054901 l -0.514259,-0.822675 -1.645448,1.028017 0.513858,0.822775 c 1.01274,1.621205 0.976795,2.882626 0.338394,4.158589 -0.6384,1.275965 -2.017649,2.535011 -3.806961,3.579261 -3.578603,2.08851 -8.740649,3.2883 -11.910454,3.104815 -1.823976,-0.105583 -2.176757,-0.522939 -2.922123,-1.252812 l -4.1e-4,-4.13e-4 c -0.329989,-0.32334 -0.628446,-0.613846 -0.940988,-0.945118 l -0.0019,-0.0023 -0.0018,-0.0023 c -0.635667,-0.665455 -1.012997,-1.073788 -1.111542,-2.776193 -0.183486,-3.169803 1.015905,-8.33145 3.104405,-11.910076 1.04425,-1.789313 2.303597,-3.168963 3.57956,-3.807362 1.275963,-0.6384 2.537084,-0.674347 4.158289,0.338394 l 0.822772,0.513847 1.028017,-1.645448 -0.822674,-0.513858 c -1.040964,-0.650273 -2.106756,-0.981425 -3.136189,-1.037944 -0.128679,-0.0071 -0.256794,-0.0098 -0.384215,-0.0085 z m 0.528495,4.170223 a 1.5846468,1.5846468 0 0 0 -1.584587,1.584687 1.5846468,1.5846468 0 0 0 1.584587,1.584688 1.5846468,1.5846468 0 0 0 1.584689,-1.584688 1.5846468,1.5846468 0 0 0 -1.584689,-1.584687 z m 5.506353,4.834476 a 1.5846468,1.5846468 0 0 0 -1.584687,1.584587 1.5846468,1.5846468 0 0 0 1.584687,1.584688 1.5846468,1.5846468 0 0 0 1.584589,-1.584688 1.5846468,1.5846468 0 0 0 -1.584589,-1.584587 z m -5.609024,2.370062 a 1.5846468,1.5846468 0 0 0 -1.584587,1.584589 1.5846468,1.5846468 0 0 0 1.584587,1.584688 1.5846468,1.5846468 0 0 0 1.584689,-1.584688 1.5846468,1.5846468 0 0 0 -1.584689,-1.584589 z m -5.628374,1.448128 a 1.5846468,1.5846468 0 0 0 -1.584587,1.584588 1.5846468,1.5846468 0 0 0 1.584587,1.584688 1.5846468,1.5846468 0 0 0 1.584688,-1.584688 1.5846468,1.5846468 0 0 0 -1.584688,-1.584588 z m 12.394055,2.071275 a 1.5846468,1.5846468 0 0 0 -1.584688,1.584587 1.5846468,1.5846468 0 0 0 1.584688,1.584688 1.5846468,1.5846468 0 0 0 1.584588,-1.584688 1.5846468,1.5846468 0 0 0 -1.584588,-1.584587 z m -8.255518,3.430065 a 1.5846468,1.5846468 0 0 0 -1.584688,1.584687 1.5846468,1.5846468 0 0 0 1.584688,1.584589 1.5846468,1.5846468 0 0 0 1.584587,-1.584589 1.5846468,1.5846468 0 0 0 -1.584587,-1.584687 z" />
  <path
     id="path864"
     style="color:#000000;font-style:normal;font-variant:normal;font-weight:normal;font-stretch:normal;font-size:medium;line-height:normal;font-family:sans-serif;font-variant-ligatures:normal;font-variant-position:normal;font-variant-caps:normal;font-variant-numeric:normal;font-variant-alternates:normal;font-variant-east-asian:normal;font-feature-settings:normal;font-variation-settings:normal;text-indent:0;text-align:start;text-decoration:none;text-decoration-line:none;text-decoration-style:solid;text-decoration-color:#000000;letter-spacing:normal;word-spacing:normal;text-transform:none;writing-mode:lr-tb;direction:ltr;text-orientation:mixed;dominant-baseline:auto;baseline-shift:baseline;text-anchor:start;white-space:normal;shape-padding:0;shape-margin:0;inline-size:0;clip-rule:nonzero;display:inline;overflow:visible;visibility:visible;isolation:auto;mix-blend-mode:normal;color-interpolation:sRGB;color-interpolation-filters:linearRGB;solid-color:#000000;solid-opacity:1;vector-effect:none;fill:#e97b90;fill-opacity:0.998039;fill-rule:nonzero;stroke:none;stroke-width:0.582076;stroke-linecap:butt;stroke-linejoin:miter;stroke-miterlimit:4;stroke-dasharray:none;stroke-dashoffset:0;stroke-opacity:1;color-rendering:auto;image-rendering:auto;shape-rendering:auto;text-rendering:auto;enable-background:accumulate;stop-color:#000000"
     d="m 28.7743,9.0082741 -0.56409,0.595675 c -1.946779,2.0567089 -2.810891,4.1109539 -2.702443,6.0958109 0.100393,1.837442 1.007738,3.521592 2.367255,5.073608 l 0.0061,0.0072 0.722711,0.722108 0.0072,0.0067 c 1.552006,1.359511 3.235856,2.266561 5.073308,2.366955 1.98485,0.108449 4.039398,-0.755358 6.09611,-2.702141 l 2.06e-4,-2.05e-4 0.595374,-0.56379 -0.595875,-0.56329 C 38.486082,18.822063 37.19799,18.04502 35.921457,17.649771 36.544663,16.46764 36.906349,15.007324 36.95529,13.22628 l 2.05e-4,-3.07e-4 0.02266,-0.819467 -0.307413,0.0083 -0.512354,0.01394 c -1.781159,0.04891 -3.24146,0.410905 -4.423691,1.034133 -0.395303,-1.276681 -1.172591,-2.564851 -2.397558,-3.8589909 z m 0.0034,2.3663549 c 0.893639,1.092756 1.409112,2.105372 1.608348,3.050962 -1.174096,1.147041 -1.812191,2.760751 -2.126834,4.268381 -0.712392,-1.030967 -1.145588,-2.053629 -1.201576,-3.078335 -0.07039,-1.288375 0.44383,-2.680742 1.720046,-4.241008 z m 6.524043,2.705048 c -0.201213,2.004025 -0.822095,3.351506 -1.782424,4.212332 -0.933313,0.836609 -2.256631,1.28052 -3.874742,1.448028 0.167465,-1.618226 0.611195,-2.9416 1.447828,-3.874941 0.12712,-0.141812 0.264232,-0.276409 0.411788,-0.403265 0.852465,-0.732881 2.088167,-1.210458 3.797536,-1.382154 z m -0.314345,4.925418 c 0.937332,0.203359 1.940596,0.716817 3.022388,1.601533 -1.560267,1.276216 -2.952633,1.790441 -4.241009,1.720045 -1.005314,-0.05493 -2.008583,-0.472265 -3.01968,-1.159966 1.460542,-0.267297 2.771054,-0.790914 3.806359,-1.718942 0.153134,-0.137275 0.292751,-0.289678 0.431942,-0.44267 z" />
</svg>
