<?xml version="1.0" encoding="UTF-8" standalone="no"?><!DOCTYPE svg PUBLIC "-//W3C//DTD SVG 1.1//EN" "http://www.w3.org/Graphics/SVG/1.1/DTD/svg11.dtd"><svg width="100%" height="100%" viewBox="0 0 1024 1024" version="1.1" xmlns="http://www.w3.org/2000/svg" xmlns:xlink="http://www.w3.org/1999/xlink" xml:space="preserve" xmlns:serif="http://www.serif.com/" style="fill-rule:evenodd;clip-rule:evenodd;stroke-linecap:round;stroke-linejoin:round;stroke-miterlimit:1.5;"><path d="M482.264,86.544c6.177,-6.994 15.059,-11 24.39,-11c9.331,0 18.213,4.006 24.39,11c71.749,81.248 281.091,318.303 345.409,391.135c10.865,12.304 10.865,30.774 0,43.077c-64.318,72.833 -273.66,309.888 -345.409,391.135c-6.177,6.995 -15.059,11.001 -24.39,11.001c-9.331,0 -18.213,-4.006 -24.39,-11.001c-71.749,-81.247 -281.091,-318.302 -345.409,-391.135c-10.865,-12.303 -10.865,-30.773 0,-43.077c64.318,-72.832 273.66,-309.887 345.409,-391.135Z" style="fill:#f3a944;"/><path d="M778.669,200.746c0,-8.63 -3.428,-16.907 -9.53,-23.009c-6.103,-6.102 -14.379,-9.53 -23.009,-9.53l-478.952,0c-8.63,0 -16.906,3.428 -23.009,9.53c-6.102,6.102 -9.53,14.379 -9.53,23.009l0,596.944c0,8.63 3.428,16.906 9.53,23.009c6.103,6.102 14.379,9.53 23.009,9.53l478.952,0c8.63,0 16.906,-3.428 23.009,-9.53c6.102,-6.103 9.53,-14.379 9.53,-23.009l0,-596.944Z" style="fill:#f5b661;"/><g><path d="M509.503,344.715c68.028,-4.576 168.889,-10.464 157.565,-52.124c-7.114,-26.171 22.631,-38.397 25.085,-63.874l64.055,-0.754c-2.622,39.579 -23.268,20.462 -19.446,63.779c6.443,73.014 -170.654,76.853 -227.259,52.973Z" style="fill:#cb8320;"/><clipPath id="_clip1"><rect x="522.835" y="223.786" width="230.659" height="26.103"/></clipPath><g clip-path="url(#_clip1)"><path d="M753.494,224.088l-57.042,0.289c1.042,-1.043 -3.632,14.37 -7.119,20.771c-3.392,6.225 -12.289,17.949 -15.927,24.429c-8.016,14.277 -3.208,16.626 -3.222,28.925c-0.022,20.099 -22.346,31.098 -56.217,37.116c-46.75,8.305 -60.533,7.39 -91.132,9.916l20.498,7.206c0,0 60.892,8.768 115.632,-2.771c26.13,-5.509 46.305,-13.231 61.721,-26.984c9.778,-8.723 13.99,-20.868 12.627,-31.025c-1.568,-11.684 -0.387,-20.268 1.901,-26.899c2.233,-6.47 10.607,-13.042 13.808,-19.676c3.667,-7.6 4.472,-21.297 4.472,-21.297Z" style="fill:#f5b661;"/></g><clipPath id="_clip2"><rect x="522.835" y="253.742" width="230.659" height="42.394"/></clipPath><g clip-path="url(#_clip2)"><path d="M753.494,224.088l-57.042,0.289c1.042,-1.043 -3.632,14.37 -7.119,20.771c-3.392,6.225 -12.289,17.949 -15.927,24.429c-8.016,14.277 -3.208,16.626 -3.222,28.925c-0.022,20.099 -22.346,31.098 -56.217,37.116c-46.75,8.305 -60.533,7.39 -91.132,9.916l20.498,7.206c0,0 60.892,8.768 115.632,-2.771c26.13,-5.509 46.305,-13.231 61.721,-26.984c9.778,-8.723 13.99,-20.868 12.627,-31.025c-1.568,-11.684 -0.387,-20.268 1.901,-26.899c2.233,-6.47 10.607,-13.042 13.808,-19.676c3.667,-7.6 4.472,-21.297 4.472,-21.297Z" style="fill:#f5b661;"/></g><clipPath id="_clip3"><rect x="522.778" y="300.884" width="230.659" height="23.191"/></clipPath><g clip-path="url(#_clip3)"><path d="M753.494,224.088l-57.042,0.289c1.042,-1.043 -3.632,14.37 -7.119,20.771c-3.392,6.225 -12.289,17.949 -15.927,24.429c-8.016,14.277 -3.487,16.634 -3.222,28.925c0.093,4.286 -0.919,7.644 -2.962,11.622l54.371,13.36c3.208,-1.134 16.795,-20.213 11.72,-31.524c-4.791,-10.678 -0.387,-20.268 1.901,-26.899c2.233,-6.47 10.607,-13.042 13.808,-19.676c3.667,-7.6 4.472,-21.297 4.472,-21.297Z" style="fill:#f5b661;"/></g><path d="M716.472,327.617l-51.015,-14.684c0,0 -0.185,0.25 -0.28,0.375c-3.134,4.128 -7.667,7.679 -13.388,10.736c-0.08,0.043 -0.241,0.128 -0.241,0.128l26.226,21.187c0,0 0.515,-0.148 0.771,-0.223c14.62,-4.255 27.302,-9.714 37.728,-17.372c0.066,-0.049 0.199,-0.147 0.199,-0.147Z" style="fill:#f5b661;"/><path d="M671.55,347.087l-22.962,-21.441c0,0 -0.341,0.159 -0.513,0.237c-7.177,3.302 -15.886,5.962 -25.803,8.106c-0.488,0.105 -1.473,0.313 -1.473,0.313l-1.373,0.282l7.974,19.976c0,0 0.865,-0.077 1.299,-0.117c10.02,-0.93 20.246,-2.362 30.266,-4.474c4.045,-0.853 7.969,-1.739 11.771,-2.68c0.272,-0.067 0.814,-0.202 0.814,-0.202Z" style="fill:#f5b661;"/><path d="M622.415,354.964l-6.549,-19.691c0,0 -1.262,0.231 -1.899,0.345c-10.278,1.826 -18.962,3.206 -26.582,4.275c-0.509,0.071 -1.512,0.21 -1.512,0.21l8.439,15.826c0,0 0.912,0.001 1.371,0c8.054,-0.012 16.648,-0.261 25.489,-0.877c0.414,-0.028 1.243,-0.088 1.243,-0.088Z" style="fill:#f5b661;"/><path d="M589.753,355.896l-6.851,-15.393c0,0 -0.596,0.078 -0.892,0.116c-11.489,1.492 -20.552,2.261 -29.397,2.869c-0.267,0.019 -0.801,0.055 -0.801,0.055l25.92,12.031c0,0 1.087,0.043 1.638,0.064c3.016,0.111 6.166,0.196 9.428,0.245c0.318,0.004 0.955,0.013 0.955,0.013Z" style="fill:#f5b661;"/><path d="M570.067,355.196l-21.26,-11.472c0,0 -0.49,0.035 -0.733,0.052c-10.193,0.713 -18.392,1.102 -25.239,1.758c-3.613,0.345 -10.835,1.061 -10.835,1.061l31.333,6.145c0,0 10.075,1.451 25.714,2.396c0.337,0.02 1.02,0.06 1.02,0.06Z" style="fill:#f5b661;"/></g><circle cx="506.654" cy="500.269" r="155.47" style="fill:#cb8320;"/><circle cx="506.654" cy="500.269" r="146.564" style="fill:#cb8320;stroke:#f5b661;stroke-width:4.46px;"/><g><g><circle cx="506.654" cy="406.292" r="35.333" style="fill:#f5b661;"/><circle cx="506.654" cy="592.143" r="35.333" style="fill:#f5b661;"/><circle cx="426.44" cy="454.114" r="35.333" style="fill:#f5b661;"/><circle cx="426.44" cy="543.876" r="35.333" style="fill:#f5b661;"/><circle cx="587.207" cy="455.389" r="35.333" style="fill:#f5b661;"/><circle cx="587.207" cy="545.15" r="35.333" style="fill:#f5b661;"/></g><circle cx="506.654" cy="500.269" r="17.666" style="fill:#f5b661;"/><g><circle cx="530.175" cy="485.912" r="8.157" style="fill:#f5b661;"/><circle cx="506.772" cy="472.364" r="8.157" style="fill:#f5b661;"/><circle cx="530.175" cy="515.557" r="8.157" style="fill:#f5b661;"/><circle cx="483.133" cy="515.557" r="8.157" style="fill:#f5b661;"/><circle cx="483.133" cy="485.912" r="8.157" style="fill:#f5b661;"/><circle cx="506.942" cy="528.175" r="8.157" style="fill:#f5b661;"/></g></g><rect x="676.447" y="213.42" width="88.561" height="20.732" style="fill:#f5b661;"/></svg>