<?xml version="1.0" encoding="UTF-8" standalone="no"?>
<svg
   xmlns:dc="http://purl.org/dc/elements/1.1/"
   xmlns:cc="http://creativecommons.org/ns#"
   xmlns:rdf="http://www.w3.org/1999/02/22-rdf-syntax-ns#"
   xmlns:svg="http://www.w3.org/2000/svg"
   xmlns="http://www.w3.org/2000/svg"
   xmlns:sodipodi="http://sodipodi.sourceforge.net/DTD/sodipodi-0.dtd"
   xmlns:inkscape="http://www.inkscape.org/namespaces/inkscape"
   inkscape:version="1.0 (4035a4fb49, 2020-05-01)"
   sodipodi:docname="tixati (2).svg"
   id="svg21"
   style="fill-rule:evenodd;clip-rule:evenodd;stroke-linejoin:round;stroke-miterlimit:2;"
   xml:space="preserve"
   version="1.1"
   viewBox="0 0 404 400"
   height="100%"
   width="100%"><metadata
     id="metadata27"><rdf:RDF><cc:Work
         rdf:about=""><dc:format>image/svg+xml</dc:format><dc:type
           rdf:resource="http://purl.org/dc/dcmitype/StillImage" /><dc:title></dc:title></cc:Work></rdf:RDF></metadata><defs
     id="defs25" /><sodipodi:namedview
     inkscape:current-layer="svg21"
     inkscape:window-maximized="1"
     inkscape:window-y="32"
     inkscape:window-x="70"
     inkscape:cy="219.25615"
     inkscape:cx="116.56013"
     inkscape:zoom="1.035"
     showgrid="false"
     id="namedview23"
     inkscape:window-height="1048"
     inkscape:window-width="1850"
     inkscape:pageshadow="2"
     inkscape:pageopacity="0"
     guidetolerance="10"
     gridtolerance="10"
     objecttolerance="10"
     borderopacity="1"
     bordercolor="#666666"
     pagecolor="#ffffff" /><rect
     style="fill:none;"
     height="400"
     width="400"
     y="0"
     x="1.716"
     id="tixati" /><circle
     id="circle3"
     style="fill:#8391b9;fill-opacity:1;stroke:#a2b9eb;stroke-opacity:1;stroke-width:13;stroke-miterlimit:2;stroke-dasharray:none"
     r="186.115"
     cy="200"
     cx="201.716" /><g
     id="g19"><path
       id="path5"
       style="fill:#edab9d;"
       d="M203.209,101.661c1.584,-3.214 0.263,-7.103 -2.95,-8.687c-0.002,-0.001 -0.003,-0.001 -0.004,-0.002c-3.214,-1.584 -7.103,-0.263 -8.687,2.95c-15.843,32.138 -92.503,187.644 -108.346,219.782c-1.584,3.213 -0.263,7.103 2.951,8.687c0.001,0.001 0.002,0.001 0.003,0.002c3.214,1.584 7.103,0.263 8.687,-2.951c15.843,-32.137 92.503,-187.643 108.346,-219.781Z" /><path
       id="path7"
       style="fill:#edab9d;"
       d="M200.182,101.661c-1.584,-3.214 -0.263,-7.103 2.95,-8.687c0.002,-0.001 0.003,-0.001 0.004,-0.002c3.214,-1.584 7.103,-0.263 8.687,2.95c15.843,32.138 92.503,187.644 108.346,219.782c1.584,3.213 0.263,7.103 -2.951,8.687c-0.001,0.001 -0.002,0.001 -0.003,0.002c-3.214,1.584 -7.103,0.263 -8.687,-2.951c-15.843,-32.137 -92.503,-187.643 -108.346,-219.781Z" /><path
       id="path9"
       style="fill:#91d498;"
       d="M318.942,97.853c1.217,-1.216 1.9,-2.867 1.9,-4.587c0,-1.721 -0.683,-3.371 -1.9,-4.588c-0.001,-0 -0.002,-0.001 -0.003,-0.002c-1.216,-1.217 -2.867,-1.9 -4.587,-1.9c-1.721,-0 -3.371,0.683 -4.587,1.9c-29.789,29.788 -195.487,195.486 -225.275,225.274c-1.216,1.217 -1.9,2.867 -1.9,4.587c0,1.721 0.684,3.371 1.9,4.588c0.001,0.001 0.002,0.002 0.003,0.003c1.217,1.216 2.867,1.9 4.587,1.9c1.721,-0 3.371,-0.684 4.588,-1.901c29.788,-29.788 195.486,-195.486 225.274,-225.274Z" /><path
       id="path11"
       style="fill:#91d498;"
       d="M93.668,88.676c-1.217,-1.217 -2.867,-1.9 -4.588,-1.9c-1.72,-0 -3.37,0.683 -4.587,1.9c-0.001,0.001 -0.002,0.002 -0.003,0.002c-1.216,1.217 -1.9,2.867 -1.9,4.588c0,1.72 0.684,3.371 1.9,4.587c29.788,29.788 195.486,195.486 225.275,225.274c1.216,1.217 2.866,1.901 4.587,1.901c1.72,-0 3.371,-0.684 4.587,-1.9c0.001,-0.001 0.002,-0.002 0.003,-0.003c1.217,-1.217 1.9,-2.867 1.9,-4.588c0,-1.72 -0.683,-3.37 -1.9,-4.587c-29.788,-29.788 -195.486,-195.486 -225.274,-225.274Z" /><g
       id="g17"><path
         id="path13"
         style="fill:#a2b9eb;"
         d="M215.818,98.188c0,-3.739 -1.485,-7.326 -4.129,-9.97c-2.645,-2.644 -6.231,-4.13 -9.971,-4.13c-0.001,0 -0.003,0 -0.004,0c-3.74,0 -7.326,1.486 -9.97,4.13c-2.645,2.644 -4.13,6.231 -4.13,9.97c-0,44.132 -0,179.296 -0,223.428c-0,3.74 1.485,7.326 4.13,9.971c2.644,2.644 6.23,4.129 9.97,4.129c0.001,0 0.003,0 0.004,0c3.74,0 7.326,-1.485 9.971,-4.129c2.644,-2.645 4.129,-6.231 4.129,-9.971c0,-44.132 0,-179.296 0,-223.428Z" /><path
         id="path15"
         style="fill:#a2b9eb;"
         d="M313.43,112.293c3.74,-0 7.326,-1.486 9.97,-4.13c2.645,-2.644 4.13,-6.231 4.13,-9.97c0,-0.002 0,-0.003 0,-0.005c0,-3.739 -1.485,-7.326 -4.13,-9.97c-2.644,-2.644 -6.23,-4.13 -9.97,-4.13c-44.132,0 -179.296,0 -223.428,0c-3.74,0 -7.326,1.486 -9.97,4.13c-2.644,2.644 -4.13,6.231 -4.13,9.97c0,0.002 0,0.003 0,0.005c0,3.739 1.486,7.326 4.13,9.97c2.644,2.644 6.23,4.13 9.97,4.13c44.132,-0 179.296,-0 223.428,-0Z" /></g></g></svg>
