<?xml version="1.0" encoding="UTF-8" standalone="no"?>
<!-- Generator: Adobe Illustrator 16.0.0, SVG Export Plug-In . SVG Version: 6.00 Build 0)  -->

<svg
   version="1.1"
   id="Capa_1"
   x="0px"
   y="0px"
   width="92.833px"
   height="92.833px"
   viewBox="0 0 92.833 92.833"
   style="enable-background:new 0 0 92.833 92.833;"
   xml:space="preserve"
   sodipodi:docname="top-workspaces-icon.svg"
   inkscape:version="1.1.1 (3bf5ae0d25, 2021-09-20, custom)"
   xmlns:inkscape="http://www.inkscape.org/namespaces/inkscape"
   xmlns:sodipodi="http://sodipodi.sourceforge.net/DTD/sodipodi-0.dtd"
   xmlns="http://www.w3.org/2000/svg"
   xmlns:svg="http://www.w3.org/2000/svg"><defs
   id="defs45" /><sodipodi:namedview
   id="namedview43"
   pagecolor="#ffffff"
   bordercolor="#666666"
   borderopacity="1.0"
   inkscape:pageshadow="2"
   inkscape:pageopacity="0.0"
   inkscape:pagecheckerboard="0"
   showgrid="false"
   inkscape:zoom="7.874355"
   inkscape:cx="46.4165"
   inkscape:cy="46.4165"
   inkscape:window-width="1861"
   inkscape:window-height="1047"
   inkscape:window-x="59"
   inkscape:window-y="33"
   inkscape:window-maximized="1"
   inkscape:current-layer="Capa_1" />
<g
   id="g10"
   transform="matrix(0.841581,0,0,0.841581,7.7972036,8.1849854)"
   style="fill:#ececec">
	<g
   id="g8"
   style="fill:#ececec">
		<path
   d="M 89.834,1.75 H 3 c -1.654,0 -3,1.346 -3,3 v 13.334 c 0,1.654 1.346,3 3,3 h 86.833 c 1.653,0 3,-1.346 3,-3 V 4.75 c 0.001,-1.654 -1.345,-3 -2.999,-3 z"
   id="path2"
   style="fill:#ececec" />
		<path
   d="M 89.834,36.75 H 3 c -1.654,0 -3,1.346 -3,3 v 13.334 c 0,1.654 1.346,3 3,3 h 86.833 c 1.653,0 3,-1.346 3,-3 V 39.75 c 0.001,-1.654 -1.345,-3 -2.999,-3 z"
   id="path4"
   style="fill:#ececec" />
		<path
   d="M 89.834,71.75 H 3 c -1.654,0 -3,1.346 -3,3 v 13.334 c 0,1.654 1.346,3 3,3 h 86.833 c 1.653,0 3,-1.346 3,-3 V 74.75 c 0.001,-1.655 -1.345,-3 -2.999,-3 z"
   id="path6"
   style="fill:#ececec" />
	</g>
</g>
<g
   id="g12"
   transform="matrix(0.841581,0,0,0.841581,7.7972036,8.1849854)"
   style="fill:#ececec">
</g>
<g
   id="g14"
   transform="matrix(0.841581,0,0,0.841581,7.7972036,8.1849854)"
   style="fill:#ececec">
</g>
<g
   id="g16"
   transform="matrix(0.841581,0,0,0.841581,7.7972036,8.1849854)"
   style="fill:#ececec">
</g>
<g
   id="g18"
   transform="matrix(0.841581,0,0,0.841581,7.7972036,8.1849854)"
   style="fill:#ececec">
</g>
<g
   id="g20"
   transform="matrix(0.841581,0,0,0.841581,7.7972036,8.1849854)"
   style="fill:#ececec">
</g>
<g
   id="g22"
   transform="matrix(0.841581,0,0,0.841581,7.7972036,8.1849854)"
   style="fill:#ececec">
</g>
<g
   id="g24"
   transform="matrix(0.841581,0,0,0.841581,7.7972036,8.1849854)"
   style="fill:#ececec">
</g>
<g
   id="g26"
   transform="matrix(0.841581,0,0,0.841581,7.7972036,8.1849854)"
   style="fill:#ececec">
</g>
<g
   id="g28"
   transform="matrix(0.841581,0,0,0.841581,7.7972036,8.1849854)"
   style="fill:#ececec">
</g>
<g
   id="g30"
   transform="matrix(0.841581,0,0,0.841581,7.7972036,8.1849854)"
   style="fill:#ececec">
</g>
<g
   id="g32"
   transform="matrix(0.841581,0,0,0.841581,7.7972036,8.1849854)"
   style="fill:#ececec">
</g>
<g
   id="g34"
   transform="matrix(0.841581,0,0,0.841581,7.7972036,8.1849854)"
   style="fill:#ececec">
</g>
<g
   id="g36"
   transform="matrix(0.841581,0,0,0.841581,7.7972036,8.1849854)"
   style="fill:#ececec">
</g>
<g
   id="g38"
   transform="matrix(0.841581,0,0,0.841581,7.7972036,8.1849854)"
   style="fill:#ececec">
</g>
<g
   id="g40"
   transform="matrix(0.841581,0,0,0.841581,7.7972036,8.1849854)"
   style="fill:#ececec">
</g>
</svg>
