<?xml version="1.0" encoding="UTF-8" standalone="no"?>
<!-- Created with Inkscape (http://www.inkscape.org/) -->

<svg
   version="1.1"
   id="svg2"
   width="512"
   height="512"
   viewBox="0 0 512 512"
   sodipodi:docname="to-user-icon.svg"
   inkscape:version="1.1.1 (3bf5ae0d25, 2021-09-20, custom)"
   xmlns:inkscape="http://www.inkscape.org/namespaces/inkscape"
   xmlns:sodipodi="http://sodipodi.sourceforge.net/DTD/sodipodi-0.dtd"
   xmlns="http://www.w3.org/2000/svg"
   xmlns:svg="http://www.w3.org/2000/svg">
  <defs
     id="defs6" />
  <sodipodi:namedview
     id="namedview4"
     pagecolor="#ffffff"
     bordercolor="#666666"
     borderopacity="1.0"
     inkscape:pageshadow="2"
     inkscape:pageopacity="0.0"
     inkscape:pagecheckerboard="0"
     showgrid="false"
     inkscape:zoom="1.4277344"
     inkscape:cx="256"
     inkscape:cy="256"
     inkscape:window-width="1861"
     inkscape:window-height="1047"
     inkscape:window-x="59"
     inkscape:window-y="33"
     inkscape:window-maximized="1"
     inkscape:current-layer="g8" />
  <g
     inkscape:groupmode="layer"
     inkscape:label="Image"
     id="g8">
    <path
       style="fill:#ececec;fill-rule:evenodd;stroke-width:28.4558;stroke-linecap:square;paint-order:stroke markers fill"
       d="m 248.73061,272.62458 c -3.50384,-0.23456 -7.41309,-0.70504 -8.68722,-1.0455 -1.27413,-0.34046 -3.81858,-0.79725 -5.65435,-1.01509 -1.83576,-0.21783 -3.46598,-0.60354 -3.62271,-0.85712 -0.15673,-0.25359 -1.39121,-0.64352 -2.7433,-0.86652 -1.35209,-0.22299 -2.71896,-0.6065 -3.03749,-0.85224 -0.31853,-0.24574 -1.45333,-0.63387 -2.52178,-0.86252 -1.06844,-0.22865 -3.15337,-0.93165 -4.63318,-1.56222 -1.47981,-0.63057 -3.60272,-1.52867 -4.71758,-1.99579 -1.11486,-0.46712 -2.41794,-1.05758 -2.89574,-1.31214 -9.78384,-5.21253 -16.26438,-9.26218 -20.41403,-12.75662 -8.72797,-7.34987 -14.30947,-12.8482 -17.96527,-17.6976 -0.2448,-0.32472 -0.94074,-1.19275 -1.54653,-1.92893 -0.6058,-0.73619 -2.09951,-2.81936 -3.31937,-4.62926 -1.21986,-1.80989 -2.54369,-3.63689 -2.94186,-4.05996 -0.39817,-0.42308 -0.72394,-0.99966 -0.72394,-1.28129 0,-0.28164 -0.6519,-1.4727 -1.44866,-2.6468 -1.74789,-2.57565 -5.87148,-11.07234 -6.40473,-13.19698 -0.21064,-0.83929 -0.61474,-1.66919 -0.89799,-1.84425 -0.28324,-0.17505 -0.51499,-0.71959 -0.51499,-1.21008 0,-0.4905 -0.37381,-1.71304 -0.8307,-2.71678 -0.98669,-2.16766 -2.41294,-7.32545 -3.46739,-12.53921 -0.41874,-2.07045 -0.92056,-4.15539 -1.11514,-4.63319 -0.34922,-0.85744 -1.70022,-16.30369 -1.67163,-19.11188 0.036,-3.54256 1.3451,-18.32823 1.69204,-19.11189 0.21153,-0.4778 0.69259,-2.43243 1.06901,-4.34361 1.0152,-5.15435 2.81466,-11.55573 3.31031,-11.77601 0.23889,-0.10618 0.43435,-0.57656 0.43435,-1.04529 0,-0.46873 0.48348,-1.94555 1.07439,-3.28183 0.59091,-1.33629 1.69853,-3.99331 2.46138,-5.9045 0.76285,-1.91119 1.58246,-3.56176 1.82136,-3.66794 0.2389,-0.10618 0.43436,-0.45778 0.43436,-0.78134 0,-1.01252 6.19518,-11.16861 9.39493,-15.401616 7.65668,-10.129131 14.70114,-17.257728 22.71722,-22.988556 1.76874,-1.264495 3.21588,-2.502425 3.21588,-2.750954 0,-0.248528 0.23998,-0.45187 0.53328,-0.45187 0.2933,0 2.57369,-1.257449 5.06755,-2.794331 6.70381,-4.131358 13.65949,-7.630335 15.16847,-7.630335 0.30946,0 0.64953,-0.195463 0.75571,-0.434361 0.10618,-0.238899 2.5386,-1.17061 5.40539,-2.070469 2.86678,-0.89986 5.6301,-1.85546 6.14072,-2.123556 0.51061,-0.268096 2.20461,-0.672343 3.76446,-0.898328 1.55983,-0.225985 3.09669,-0.607005 3.41521,-0.846713 0.57467,-0.432457 7.09245,-1.268184 17.66403,-2.264926 3.14449,-0.29648 7.73524,-0.305592 10.71423,-0.02127 12.04303,1.149423 17.98831,1.891112 18.53275,2.312005 0.31853,0.246253 1.82028,0.632502 3.33722,0.858333 1.51694,0.225831 2.88654,0.618469 3.04357,0.87253 0.15701,0.25406 1.34788,0.64142 2.64637,0.860798 1.29849,0.219379 3.05629,0.76188 3.90621,1.205559 0.84994,0.443679 2.39234,0.96741 3.42756,1.163847 1.03523,0.196438 1.88223,0.576962 1.88223,0.845611 0,0.268648 0.91216,0.659573 2.02702,0.868721 1.11486,0.20915 2.02702,0.583631 2.02702,0.832182 0,0.24855 0.68136,0.622921 1.51413,0.831933 0.83278,0.209013 4.52708,2.191891 8.20957,4.406396 3.68249,2.214504 6.91037,4.026371 7.17309,4.026371 0.26271,0 0.47765,0.203342 0.47765,0.45187 0,0.248529 1.44715,1.486459 3.21588,2.750954 8.01609,5.730828 15.06054,12.859425 22.71722,22.988556 3.19975,4.233006 9.39494,14.389096 9.39494,15.401616 0,0.32356 0.19546,0.67516 0.43436,0.78134 0.2389,0.10618 1.05851,1.75675 1.82135,3.66794 0.76286,1.91119 1.87047,4.56821 2.46139,5.9045 0.5909,1.33628 1.07438,2.8131 1.07438,3.28183 0,0.46873 0.19547,0.93911 0.43436,1.04529 1.11333,0.49481 4.11706,14.25215 4.84722,22.20068 0.2926,3.18531 0.77528,7.48548 1.07261,9.55594 0.3333,2.32093 0.33435,4.65279 0.003,6.08106 -0.29581,1.27412 -0.56604,4.1409 -0.60052,6.37062 -0.0868,5.61144 -2.1296,18.08858 -3.33817,20.38873 -0.30047,0.57187 -0.72956,2.14601 -0.95353,3.4981 -0.22397,1.35209 -0.64516,2.6054 -0.93597,2.78514 -0.29083,0.17972 -0.53761,0.76748 -0.54842,1.30611 -0.0108,0.53863 -0.52319,2.0218 -1.13864,3.29592 -0.61545,1.27413 -1.12784,2.52543 -1.13865,2.78069 -0.041,0.96491 -6.61468,13.72504 -7.07092,13.72504 -0.26278,0 -0.47778,0.37231 -0.47778,0.82735 0,0.45505 -0.33124,1.17174 -0.73608,1.59265 -0.40483,0.42093 -1.56992,2.06839 -2.58907,3.66105 -1.01916,1.59266 -2.50712,3.67759 -3.30659,4.63318 -0.79947,0.9556 -1.65417,2.00314 -1.89932,2.32786 -2.41185,3.19469 -8.12998,9.21624 -11.72326,12.34533 -6.53907,5.69433 -13.48752,11.09891 -14.26944,11.09891 -0.23293,0 -0.83495,0.36446 -1.33782,0.80991 -0.81415,0.72117 -3.32779,2.13952 -9.89113,5.58117 -1.11486,0.5846 -2.93917,1.44933 -4.05403,1.92162 -1.11486,0.4723 -3.23777,1.37464 -4.71758,2.00521 -1.47981,0.63057 -3.56474,1.33357 -4.63318,1.56222 -1.06845,0.22865 -2.20325,0.61227 -2.52178,0.85248 -0.31853,0.24022 -1.62162,0.62437 -2.89574,0.85368 -1.27412,0.22931 -2.57721,0.62133 -2.89574,0.87118 -0.31854,0.24985 -1.88224,0.63305 -3.47489,0.85155 -1.59266,0.21851 -4.85037,0.75721 -7.23935,1.19709 -5.51988,1.01641 -17.54503,1.42374 -25.7721,0.87301 z"
       id="path864" />
    <path
       style="fill:#ececec;fill-rule:evenodd;stroke-width:28.4558;stroke-linecap:square;paint-order:stroke markers fill"
       d="m 73.854875,468.04472 c -3.562788,-1.22514 -3.957145,-1.55329 -6.533811,-5.43699 -1.528174,-2.30336 -1.536129,-2.37239 -1.392031,-12.07976 0.07971,-5.36974 0.369047,-10.19114 0.642973,-10.71424 0.273926,-0.52309 0.755487,-3.29663 1.070135,-6.16341 0.754066,-6.87036 3.354412,-19.26992 4.736738,-22.58678 0.265501,-0.63706 1.146546,-3.24323 1.95788,-5.79148 2.259191,-7.09572 3.498608,-10.40557 3.975941,-10.61772 0.238898,-0.10618 0.434361,-0.44625 0.434361,-0.75571 0,-0.30946 0.529979,-1.78629 1.177731,-3.28183 1.064114,-2.45687 1.944518,-4.21348 6.442438,-12.85428 0.746145,-1.43339 1.500007,-2.73648 1.675251,-2.89574 0.175243,-0.15926 1.188689,-1.72296 2.252101,-3.47489 5.244306,-8.63975 11.157118,-16.24021 21.175888,-27.21996 3.68243,-4.03564 11.10665,-10.68542 17.78717,-15.93173 2.25322,-1.76948 9.20757,-6.72387 11.45827,-8.16305 1.4334,-0.91656 2.73648,-1.79922 2.89574,-1.96146 0.80493,-0.81999 17.56534,-9.27063 18.38795,-9.27125 0.39817,-3e-4 0.72394,-0.24935 0.72394,-0.55345 0,-0.3041 0.91216,-0.72403 2.02702,-0.93317 1.11486,-0.20915 2.02702,-0.5859 2.02702,-0.83721 0,-0.25131 1.30388,-0.76973 2.89752,-1.15204 1.59365,-0.3823 3.04241,-0.92953 3.2195,-1.21606 0.17708,-0.28652 0.89297,-0.52255 1.59087,-0.52451 0.6979,-0.002 1.96805,-0.36833 2.82255,-0.81415 0.8545,-0.4458 2.41821,-0.98062 3.47489,-1.18845 1.05668,-0.20784 2.44247,-0.60986 3.07953,-0.89338 1.34771,-0.59979 7.96813,-2.06413 14.18914,-3.13844 2.38898,-0.41255 4.73453,-0.91655 5.21233,-1.11998 5.26256,-2.24071 90.29688,-2.24071 95.55944,0 0.4778,0.20343 2.82335,0.71211 5.21233,1.13037 7.57789,1.32675 13.5907,2.65001 14.18914,3.12263 0.31852,0.25158 1.6854,0.63986 3.03748,0.86286 1.35209,0.22299 2.59139,0.6207 2.75399,0.8838 0.16261,0.26311 1.33538,0.65403 2.60617,0.86873 1.27079,0.2147 2.44139,0.60211 2.60135,0.86092 0.15995,0.25881 1.5947,0.78336 3.18834,1.16566 1.59365,0.38231 2.89753,0.90073 2.89753,1.15204 0,0.25131 0.91216,0.62806 2.02702,0.83721 1.11486,0.20914 2.02702,0.62907 2.02702,0.93317 0,0.3041 0.34916,0.5529 0.77591,0.5529 0.84485,0 17.54432,8.45153 18.33598,9.27975 0.15926,0.16662 1.07142,0.78885 2.02701,1.38272 2.71597,1.6879 13.25463,9.15827 13.89956,9.85278 0.31853,0.34301 1.75193,1.57016 3.18531,2.72699 5.54585,4.47582 11.29765,10.02055 16.50573,15.91152 6.5321,7.38859 7.11834,8.1057 10.60281,12.96958 1.71146,2.38898 3.34884,4.43048 3.6386,4.53666 0.28978,0.10618 0.52686,0.4169 0.52686,0.69048 0,0.47154 4.54503,8.05865 5.19517,8.67241 0.54691,0.51631 6.61207,12.30123 8.10581,15.75002 0.64775,1.49554 1.17772,2.99408 1.17772,3.3301 0,0.336 0.26063,0.61091 0.57915,0.61091 0.31854,0 0.58075,0.45609 0.58272,1.01351 0.002,0.55744 0.34248,1.66506 0.75671,2.46139 0.41424,0.79632 1.47453,3.79341 2.35622,6.6602 0.8817,2.86678 1.82201,5.73357 2.0896,6.37063 1.33599,3.18072 3.95284,15.55239 4.71627,22.2972 0.30645,2.70752 0.79635,5.70461 1.08864,6.66021 0.2923,0.95559 0.58527,5.90731 0.65105,11.00381 0.11785,9.13084 0.0973,9.30025 -1.40585,11.58297 -2.55942,3.88678 -2.95803,4.21392 -6.64969,5.45755 l -3.56998,1.20264 -173.61791,-0.0193 c -173.359448,-0.0195 -173.623057,-0.0213 -177.062245,-1.2039 z"
       id="path903" />
  </g>
</svg>
