<?xml version="1.0" encoding="UTF-8" standalone="no"?>
<!-- Generator: Adobe Illustrator 19.0.0, SVG Export Plug-In . SVG Version: 6.00 Build 0)  -->

<svg
   version="1.1"
   id="Capa_1"
   x="0px"
   y="0px"
   viewBox="0 0 492.883 492.883"
   style="enable-background:new 0 0 492.883 492.883;"
   xml:space="preserve"
   sodipodi:docname="top-refresh-button.svg"
   inkscape:version="1.1.1 (3bf5ae0d25, 2021-09-20, custom)"
   xmlns:inkscape="http://www.inkscape.org/namespaces/inkscape"
   xmlns:sodipodi="http://sodipodi.sourceforge.net/DTD/sodipodi-0.dtd"
   xmlns="http://www.w3.org/2000/svg"
   xmlns:svg="http://www.w3.org/2000/svg"><defs
   id="defs43" /><sodipodi:namedview
   id="namedview41"
   pagecolor="#ffffff"
   bordercolor="#666666"
   borderopacity="1.0"
   inkscape:pageshadow="2"
   inkscape:pageopacity="0.0"
   inkscape:pagecheckerboard="0"
   showgrid="false"
   inkscape:zoom="1.4831106"
   inkscape:cx="246.4415"
   inkscape:cy="246.4415"
   inkscape:window-width="1861"
   inkscape:window-height="1047"
   inkscape:window-x="59"
   inkscape:window-y="33"
   inkscape:window-maximized="1"
   inkscape:current-layer="g6" />
<g
   id="g8">
	<g
   id="g6">
		<path
   d="M 135.74076,345.84471 C 118.64384,330.44897 106.31024,311.9911 98.229607,292.17229 76.794667,239.60564 86.831657,177.08705 128.68084,133.96198 l 38.61693,38.61692 c 2.12648,2.12649 5.95415,0.59542 6.4645,-2.55178 L 194.85698,31.975867 c 0.34024,-2.296601 -1.61613,-4.252965 -3.91273,-3.912728 L 52.807938,49.157846 c -3.147194,0.510356 -4.678262,4.338025 -2.551779,6.464509 l 38.701988,38.70198 C 25.078605,159.64989 14.191014,257.63821 56.125251,334.19158 c 12.588776,23.05107 30.025936,44.14578 52.226419,61.83812 37.76633,30.02593 84.20871,44.40095 130.31085,43.4653 l 8.67605,-56.73455 c -39.72269,3.40237 -80.55116,-8.84617 -111.59781,-36.91574 z"
   id="path2"
   style="fill:#e6e6e6;stroke-width:0.850593" />
		<path
   d="M 392.61986,379.95349 C 456.4994,314.62794 467.38699,216.63962 425.45276,140.08625 412.86398,117.03518 395.42682,95.940465 373.22634,78.248125 335.46001,48.222194 289.01763,33.847171 242.91549,34.782824 l -8.67605,56.734561 c 39.63763,-3.40238 80.55116,8.846165 111.59781,36.915735 17.09692,15.39574 29.43052,33.85361 37.51115,53.67243 21.43495,52.56665 11.39795,115.08523 -30.45123,158.2103 l -38.61693,-38.61692 c -2.12648,-2.12648 -5.95415,-0.59542 -6.4645,2.55178 l -21.09471,138.05125 c -0.34024,2.2966 1.61613,4.25296 3.91273,3.91273 l 138.13631,-21.09471 c 3.14719,-0.51036 4.5932,-4.33803 2.55178,-6.46451 z"
   id="path4"
   style="fill:#e6e6e6;stroke-width:0.850593" />
	</g>
</g>
<g
   id="g10">
</g>
<g
   id="g12">
</g>
<g
   id="g14">
</g>
<g
   id="g16">
</g>
<g
   id="g18">
</g>
<g
   id="g20">
</g>
<g
   id="g22">
</g>
<g
   id="g24">
</g>
<g
   id="g26">
</g>
<g
   id="g28">
</g>
<g
   id="g30">
</g>
<g
   id="g32">
</g>
<g
   id="g34">
</g>
<g
   id="g36">
</g>
<g
   id="g38">
</g>
</svg>
