<?xml version="1.0" encoding="UTF-8" standalone="no"?>
<svg
   xmlns:dc="http://purl.org/dc/elements/1.1/"
   xmlns:cc="http://creativecommons.org/ns#"
   xmlns:rdf="http://www.w3.org/1999/02/22-rdf-syntax-ns#"
   xmlns:svg="http://www.w3.org/2000/svg"
   xmlns="http://www.w3.org/2000/svg"
   xmlns:xlink="http://www.w3.org/1999/xlink"
   xmlns:sodipodi="http://sodipodi.sourceforge.net/DTD/sodipodi-0.dtd"
   xmlns:inkscape="http://www.inkscape.org/namespaces/inkscape"
   version="1.1"
   preserveAspectRatio="xMidYMid meet"
   viewBox="0 0 640 640"
   width="64"
   height="64"
   id="svg33"
   sodipodi:docname="topsi.svg"
   inkscape:version="0.92.4 5da689c313, 2019-01-14">
  <metadata
     id="metadata37">
    <rdf:RDF>
      <cc:Work
         rdf:about="">
        <dc:format>image/svg+xml</dc:format>
        <dc:type
           rdf:resource="http://purl.org/dc/dcmitype/StillImage" />
      </cc:Work>
    </rdf:RDF>
  </metadata>
  <sodipodi:namedview
     pagecolor="#ffffff"
     bordercolor="#666666"
     borderopacity="1"
     objecttolerance="10"
     gridtolerance="10"
     guidetolerance="10"
     inkscape:pageopacity="0"
     inkscape:pageshadow="2"
     inkscape:window-width="1850"
     inkscape:window-height="1048"
     id="namedview35"
     showgrid="false"
     inkscape:zoom="7.375"
     inkscape:cx="21.560291"
     inkscape:cy="40.543909"
     inkscape:window-x="70"
     inkscape:window-y="32"
     inkscape:window-maximized="1"
     inkscape:current-layer="g29" />
  <defs
     id="defs7">
    <path
       d="M592.47 322.81C592.47 477.53 470.63 603.15 320.56 603.15C170.49 603.15 48.65 477.53 48.65 322.81C48.65 168.09 170.49 42.47 320.56 42.47C470.63 42.47 592.47 168.09 592.47 322.81Z"
       id="bfwaCaSpz" />
    <path
       d="M164.38 149.21L295.84 149.21L295.84 325.62L164.38 325.62L164.38 149.21Z"
       id="azeT3ANSh" />
    <path
       d="M341.69 325.62L473.15 325.62L473.15 502.02L341.69 502.02L341.69 325.62Z"
       id="bqVVDTy1W" />
    <path
       d="M341.69 149.21L473.15 149.21L473.15 266.07L341.69 266.07L341.69 149.21Z"
       id="c2CoHV93eu" />
    <path
       d="M164.38 385.17L295.84 385.17L295.84 502.02L164.38 502.02L164.38 385.17Z"
       id="bDQx3tGPu" />
  </defs>
  <g
     id="g31"
     transform="matrix(1.1112451,0,0,1.1112451,-34.345559,-34.555086)">
    <g
       id="g29">
      <g
         id="g11"
         transform="matrix(1.0309981,0,0,0.99999534,-12.489784,-4.8779574)">
        <use
           xlink:href="#bfwaCaSpz"
           id="use9"
           style="opacity:1;fill:#a69fb1;fill-opacity:1"
           x="0"
           y="0"
           width="100%"
           height="100%" />
      </g>
      <g
         id="g15">
        <use
           xlink:href="#azeT3ANSh"
           id="use13"
           style="opacity:1;fill:#e7c462;fill-opacity:1"
           x="0"
           y="0"
           width="100%"
           height="100%" />
      </g>
      <g
         id="g19">
        <use
           xlink:href="#bqVVDTy1W"
           id="use17"
           style="opacity:1;fill:#e7c462;fill-opacity:1"
           x="0"
           y="0"
           width="100%"
           height="100%" />
      </g>
      <g
         id="g23">
        <use
           xlink:href="#c2CoHV93eu"
           id="use21"
           style="opacity:1;fill:#e7c462;fill-opacity:1"
           x="0"
           y="0"
           width="100%"
           height="100%" />
      </g>
      <g
         id="g27">
        <use
           xlink:href="#bDQx3tGPu"
           id="use25"
           style="opacity:1;fill:#e7c462;fill-opacity:1"
           x="0"
           y="0"
           width="100%"
           height="100%" />
      </g>
    </g>
  </g>
</svg>
