<?xml version="1.0" encoding="UTF-8" standalone="no"?>
<!DOCTYPE svg PUBLIC "-//W3C//DTD SVG 1.1//EN" "http://www.w3.org/Graphics/SVG/1.1/DTD/svg11.dtd">
<svg version="1.1" xmlns="http://www.w3.org/2000/svg" xmlns:xlink="http://www.w3.org/1999/xlink" preserveAspectRatio="xMidYMid meet" viewBox="0 0 640 640" width="64" height="64"><defs><path d="M20.24 365.38C6.37 322.18 51.44 253.6 155.43 159.62C263.55 58.44 340.15 17.49 385.23 36.79C467.63 72.07 535.16 251.44 587.82 574.89C590.14 589.13 577.46 601.26 563.34 598.32C228.76 528.68 47.73 451.03 20.24 365.38Z" id="agmKH912U"></path><path d="M107.66 406.3C97.39 371.31 136.36 313.94 224.55 234.21C316.34 148.47 380.54 112.89 417.15 127.48C483.89 154.07 534.65 298.74 569.44 561.48C571.09 573.94 560.15 584.42 547.78 582.24C274.65 534.14 127.95 475.49 107.66 406.3Z" id="jN2QeoSHa"></path><path d="M194.17 438.98C185.41 409.85 217.29 362.51 289.82 296.94C365.27 226.42 418.23 197.35 448.69 209.73C504.24 232.3 547.37 352.86 578.09 571.4C579.52 581.57 570.56 590.14 560.47 588.28C333.6 546.38 211.5 496.62 194.17 438.98Z" id="crbSm65zC"></path></defs><g><g><g><use xlink:href="#agmKH912U" opacity="1" fill="#9fd4e9" fill-opacity="1"></use><g><use xlink:href="#agmKH912U" opacity="1" fill-opacity="0" stroke="#22a980" stroke-width="0" stroke-opacity="1"></use></g></g><g><use xlink:href="#jN2QeoSHa" opacity="1" fill="#c8e7f5" fill-opacity="1"></use><g><use xlink:href="#jN2QeoSHa" opacity="1" fill-opacity="0" stroke="#22a980" stroke-width="0" stroke-opacity="1"></use></g></g><g><use xlink:href="#crbSm65zC" opacity="1" fill="#e9eef0" fill-opacity="1"></use><g><use xlink:href="#crbSm65zC" opacity="1" fill-opacity="0" stroke="#22a980" stroke-width="0" stroke-opacity="1"></use></g></g></g></g></svg>