<?xml version="1.0" encoding="UTF-8" standalone="no"?>
<svg
   width="210mm"
   height="210mm"
   viewBox="0 0 210 210"
   version="1.1"
   id="svg4600"
   inkscape:version="1.1.1 (3bf5ae0d25, 2021-09-20, custom)"
   sodipodi:docname="trommaps.svg"
   inkscape:export-filename="/home/tio/Downloads/person-80.jpg.png"
   inkscape:export-xdpi="9.6761904"
   inkscape:export-ydpi="9.6761904"
   xmlns:inkscape="http://www.inkscape.org/namespaces/inkscape"
   xmlns:sodipodi="http://sodipodi.sourceforge.net/DTD/sodipodi-0.dtd"
   xmlns="http://www.w3.org/2000/svg"
   xmlns:svg="http://www.w3.org/2000/svg"
   xmlns:rdf="http://www.w3.org/1999/02/22-rdf-syntax-ns#"
   xmlns:cc="http://creativecommons.org/ns#"
   xmlns:dc="http://purl.org/dc/elements/1.1/">
  <defs
     id="defs4594">
    <filter
       style="color-interpolation-filters:sRGB"
       inkscape:label="Drop Shadow"
       id="filter4423">
      <feFlood
         flood-opacity="0.45098"
         flood-color="rgb(0,0,0)"
         result="flood"
         id="feFlood4425" />
      <feComposite
         in="flood"
         in2="SourceGraphic"
         operator="in"
         result="composite1"
         id="feComposite4427" />
      <feGaussianBlur
         in="composite1"
         stdDeviation="5.46448"
         result="blur"
         id="feGaussianBlur4429" />
      <feOffset
         dx="-2.2"
         dy="4.9"
         result="offset"
         id="feOffset4431" />
      <feComposite
         in="SourceGraphic"
         in2="offset"
         operator="over"
         result="composite2"
         id="feComposite4433" />
    </filter>
  </defs>
  <sodipodi:namedview
     id="base"
     pagecolor="#ffffff"
     bordercolor="#666666"
     borderopacity="1.0"
     inkscape:pageopacity="0.0"
     inkscape:pageshadow="2"
     inkscape:zoom="0.49497475"
     inkscape:cx="818.22356"
     inkscape:cy="479.82246"
     inkscape:document-units="mm"
     inkscape:current-layer="layer1"
     showgrid="false"
     inkscape:window-width="1861"
     inkscape:window-height="1047"
     inkscape:window-x="59"
     inkscape:window-y="33"
     inkscape:window-maximized="1"
     inkscape:document-rotation="0"
     inkscape:pagecheckerboard="0" />
  <metadata
     id="metadata4597">
    <rdf:RDF>
      <cc:Work
         rdf:about="">
        <dc:format>image/svg+xml</dc:format>
        <dc:type
           rdf:resource="http://purl.org/dc/dcmitype/StillImage" />
      </cc:Work>
    </rdf:RDF>
  </metadata>
  <g
     inkscape:label="Layer 1"
     inkscape:groupmode="layer"
     id="layer1"
     transform="translate(0,-87)">
    <rect
       style="fill:#393939;fill-opacity:1;fill-rule:evenodd;stroke:none;stroke-width:14.0665;stroke-linecap:square;stroke-miterlimit:4;stroke-dasharray:none;stroke-opacity:1;paint-order:stroke markers fill"
       id="rect903"
       width="194.99178"
       height="196.24919"
       x="9.7085037"
       y="95.904175"
       ry="34.075214" />
    <path
       style="fill:#bc5151;fill-rule:evenodd;stroke:none;stroke-width:9.05058;stroke-linecap:square;paint-order:stroke markers fill"
       d="m 103.52157,192.98349 c -6.347462,-7.02593 -15.164877,-20.24875 -19.010837,-28.50931 -9.32166,-20.02138 2.911538,-39.60047 24.742727,-39.60047 17.01426,0 30.99974,17.16265 26.77389,32.85629 -2.35674,8.7523 -21.64006,37.88538 -26.24647,39.65304 -0.93304,0.35803 -3.7497,-1.62176 -6.25931,-4.39955 z"
       id="path1385" />
    <path
       style="fill:#bc5151;fill-rule:evenodd;stroke:none;stroke-width:9.05058;stroke-linecap:square;paint-order:stroke markers fill"
       d="m 44.81847,238.61657 c -1.257984,-1.25797 -1.069603,-60.74315 0.19869,-62.73997 0.956052,-1.50521 25.914512,-12.34809 28.423236,-12.34809 0.593042,0 1.993393,1.76966 3.111876,3.93258 1.627949,3.14809 2.033617,9.35816 2.033617,31.13102 v 27.19845 l -15.661857,6.87821 c -16.591071,7.28626 -16.723571,7.3298 -18.105559,5.9478 z"
       id="path1424" />
    <path
       style="fill:#bc5151;fill-rule:evenodd;stroke:none;stroke-width:9.05058;stroke-linecap:square;paint-order:stroke markers fill"
       d="m 108.24343,232.42687 -20.327063,-6.8529 0.04222,-19.35963 0.04222,-19.35966 2.892536,3.99878 c 1.59089,2.19933 5.391791,6.54798 8.446363,9.66371 8.604904,8.77691 13.681864,7.57427 23.952214,-5.67391 3.4061,-4.39371 6.43712,-8.23851 6.73546,-8.54395 0.29841,-0.30547 0.54259,11.54088 0.54259,26.32524 0,14.78435 -0.44989,26.82992 -0.99974,26.76793 -0.54985,-0.0621 -10.1469,-3.19652 -21.32681,-6.96561 z"
       id="path1463" />
    <path
       style="fill:#bc5151;fill-rule:evenodd;stroke:none;stroke-width:9.05058;stroke-linecap:square;paint-order:stroke markers fill"
       d="m 138.60036,207.16233 0.033,-32.30397 15.62902,-7.02538 c 8.59593,-3.86395 16.37877,-7.01299 17.29512,-6.99785 2.41209,0.0399 2.41209,63.10536 0,64.96837 -0.91635,0.70779 -5.86485,2.94327 -10.99662,4.96774 -5.13178,2.02451 -12.17957,4.80908 -15.66187,6.18799 l -6.33136,2.50706 z"
       id="path1502" />
  </g>
</svg>
