<?xml version="1.0" encoding="UTF-8" standalone="no"?>
<svg
   width="210mm"
   height="210mm"
   viewBox="0 0 210 210"
   version="1.1"
   id="svg4600"
   inkscape:version="1.1.1 (3bf5ae0d25, 2021-09-20, custom)"
   sodipodi:docname="trompoll.svg"
   inkscape:export-filename="/home/tio/Downloads/person-80.jpg.png"
   inkscape:export-xdpi="9.6761904"
   inkscape:export-ydpi="9.6761904"
   xmlns:inkscape="http://www.inkscape.org/namespaces/inkscape"
   xmlns:sodipodi="http://sodipodi.sourceforge.net/DTD/sodipodi-0.dtd"
   xmlns="http://www.w3.org/2000/svg"
   xmlns:svg="http://www.w3.org/2000/svg"
   xmlns:rdf="http://www.w3.org/1999/02/22-rdf-syntax-ns#"
   xmlns:cc="http://creativecommons.org/ns#"
   xmlns:dc="http://purl.org/dc/elements/1.1/">
  <defs
     id="defs4594">
    <filter
       style="color-interpolation-filters:sRGB"
       inkscape:label="Drop Shadow"
       id="filter4423">
      <feFlood
         flood-opacity="0.45098"
         flood-color="rgb(0,0,0)"
         result="flood"
         id="feFlood4425" />
      <feComposite
         in="flood"
         in2="SourceGraphic"
         operator="in"
         result="composite1"
         id="feComposite4427" />
      <feGaussianBlur
         in="composite1"
         stdDeviation="5.46448"
         result="blur"
         id="feGaussianBlur4429" />
      <feOffset
         dx="-2.2"
         dy="4.9"
         result="offset"
         id="feOffset4431" />
      <feComposite
         in="SourceGraphic"
         in2="offset"
         operator="over"
         result="composite2"
         id="feComposite4433" />
    </filter>
  </defs>
  <sodipodi:namedview
     id="base"
     pagecolor="#ffffff"
     bordercolor="#666666"
     borderopacity="1.0"
     inkscape:pageopacity="0.0"
     inkscape:pageshadow="2"
     inkscape:zoom="0.49497475"
     inkscape:cx="818.22356"
     inkscape:cy="479.82246"
     inkscape:document-units="mm"
     inkscape:current-layer="layer1"
     showgrid="false"
     inkscape:window-width="1861"
     inkscape:window-height="1047"
     inkscape:window-x="59"
     inkscape:window-y="33"
     inkscape:window-maximized="1"
     inkscape:document-rotation="0"
     inkscape:pagecheckerboard="0" />
  <metadata
     id="metadata4597">
    <rdf:RDF>
      <cc:Work
         rdf:about="">
        <dc:format>image/svg+xml</dc:format>
        <dc:type
           rdf:resource="http://purl.org/dc/dcmitype/StillImage" />
      </cc:Work>
    </rdf:RDF>
  </metadata>
  <g
     inkscape:label="Layer 1"
     inkscape:groupmode="layer"
     id="layer1"
     transform="translate(0,-87)">
    <rect
       style="fill:#393939;fill-opacity:1;fill-rule:evenodd;stroke:none;stroke-width:14.0665;stroke-linecap:square;stroke-miterlimit:4;stroke-dasharray:none;stroke-opacity:1;paint-order:stroke markers fill"
       id="rect903"
       width="194.99178"
       height="196.24919"
       x="9.7085037"
       y="95.904175"
       ry="34.075214" />
    <path
       style="fill:#bc5151;fill-rule:evenodd;stroke:none;stroke-width:11.4785;stroke-linecap:square;paint-order:stroke markers fill"
       d="m 51.077346,255.36555 -5.007335,-5.00732 v -54.3562 -54.35619 l 4.941472,-4.94148 4.941466,-4.94144 H 109.2543 c 56.40374,0 60.03518,0.45085 63.41702,7.87322 1.25003,2.74347 1.87693,22.09878 1.87693,57.94865 0,50.47051 -0.20149,54.07831 -3.22988,57.8202 l -3.22997,3.99091 -56.00185,0.48851 -56.001878,0.48846 z M 101.54886,224.8019 c 0.66958,-9.40006 -2.193469,-11.89483 -13.650506,-11.89483 -12.011112,0 -14.780292,2.01707 -14.780292,10.76599 0,3.99632 0.536345,7.80238 1.191877,8.45791 0.655532,0.65553 6.931522,0.97251 13.946646,0.70439 l 12.754745,-0.4875 z m 45.10611,-28.79987 v -9.29775 L 112.21583,186.246 c -23.975403,-0.31907 -35.146862,0.12903 -36.768453,1.47485 -2.942321,2.44189 -3.113136,16.12923 -0.216192,17.32198 1.162219,0.47853 17.708033,0.7321 36.768425,0.5635 l 34.65535,-0.30645 z M 119.6069,168.10874 v -8.45253 H 96.785125 73.963312 l -0.535274,6.51715 c -0.944253,11.49677 -1.189983,11.3844 23.745593,10.85983 l 22.433269,-0.47195 z"
       id="path4127" />
  </g>
</svg>
