<?xml version="1.0" encoding="UTF-8" standalone="no"?>
<svg
   width="210mm"
   height="210mm"
   viewBox="0 0 210 210"
   version="1.1"
   id="svg4600"
   inkscape:version="1.1.1 (3bf5ae0d25, 2021-09-20, custom)"
   sodipodi:docname="trom1r.svg"
   inkscape:export-filename="/home/tio/Downloads/person-80.jpg.png"
   inkscape:export-xdpi="9.6761904"
   inkscape:export-ydpi="9.6761904"
   xmlns:inkscape="http://www.inkscape.org/namespaces/inkscape"
   xmlns:sodipodi="http://sodipodi.sourceforge.net/DTD/sodipodi-0.dtd"
   xmlns="http://www.w3.org/2000/svg"
   xmlns:svg="http://www.w3.org/2000/svg"
   xmlns:rdf="http://www.w3.org/1999/02/22-rdf-syntax-ns#"
   xmlns:cc="http://creativecommons.org/ns#"
   xmlns:dc="http://purl.org/dc/elements/1.1/">
  <defs
     id="defs4594">
    <filter
       style="color-interpolation-filters:sRGB"
       inkscape:label="Drop Shadow"
       id="filter4423">
      <feFlood
         flood-opacity="0.45098"
         flood-color="rgb(0,0,0)"
         result="flood"
         id="feFlood4425" />
      <feComposite
         in="flood"
         in2="SourceGraphic"
         operator="in"
         result="composite1"
         id="feComposite4427" />
      <feGaussianBlur
         in="composite1"
         stdDeviation="5.46448"
         result="blur"
         id="feGaussianBlur4429" />
      <feOffset
         dx="-2.2"
         dy="4.9"
         result="offset"
         id="feOffset4431" />
      <feComposite
         in="SourceGraphic"
         in2="offset"
         operator="over"
         result="composite2"
         id="feComposite4433" />
    </filter>
  </defs>
  <sodipodi:namedview
     id="base"
     pagecolor="#ffffff"
     bordercolor="#666666"
     borderopacity="1.0"
     inkscape:pageopacity="0.0"
     inkscape:pageshadow="2"
     inkscape:zoom="0.35"
     inkscape:cx="1360"
     inkscape:cy="707.14286"
     inkscape:document-units="mm"
     inkscape:current-layer="layer1"
     showgrid="false"
     inkscape:window-width="1861"
     inkscape:window-height="1047"
     inkscape:window-x="59"
     inkscape:window-y="33"
     inkscape:window-maximized="1"
     inkscape:document-rotation="0"
     inkscape:pagecheckerboard="0" />
  <metadata
     id="metadata4597">
    <rdf:RDF>
      <cc:Work
         rdf:about="">
        <dc:format>image/svg+xml</dc:format>
        <dc:type
           rdf:resource="http://purl.org/dc/dcmitype/StillImage" />
      </cc:Work>
    </rdf:RDF>
  </metadata>
  <g
     inkscape:label="Layer 1"
     inkscape:groupmode="layer"
     id="layer1"
     transform="translate(0,-87)">
    <rect
       style="fill:#393939;fill-opacity:1;fill-rule:evenodd;stroke:none;stroke-width:14.0665;stroke-linecap:square;stroke-miterlimit:4;stroke-dasharray:none;stroke-opacity:1;paint-order:stroke markers fill"
       id="rect903"
       width="194.99178"
       height="196.24919"
       x="9.7085037"
       y="95.904175"
       ry="34.075214" />
    <path
       style="fill:#bc5151;fill-rule:evenodd;stroke:none;stroke-width:11.6092;stroke-linecap:square;paint-order:stroke markers fill"
       d="m 44.987829,153.64836 v -27.35595 h 27.355963 27.35598 v 27.35595 27.35598 H 72.343792 44.987829 Z m 37.614423,-0.0854 v -10.34381 l -9.831003,0.51276 -9.831087,0.51276 -0.535274,7.46201 c -0.809133,11.27961 0,12.20009 10.740079,12.20009 h 9.457285 z"
       id="path5635" />
    <path
       style="fill:#bc5151;fill-rule:evenodd;stroke:none;stroke-width:11.6092;stroke-linecap:square;paint-order:stroke markers fill"
       d="m 120.21669,153.64836 v -27.35595 h 27.35598 27.35599 v 27.35595 27.35598 h -27.35599 -27.35598 z m 37.61453,0 v -10.25847 h -10.25855 -10.25846 v 10.25847 10.25851 h 10.25846 10.25855 z"
       id="path5674" />
    <path
       style="fill:#bc5151;fill-rule:evenodd;stroke:none;stroke-width:11.6092;stroke-linecap:square;paint-order:stroke markers fill"
       d="m 120.21669,228.87727 v -27.35595 h 12.70422 c 11.873,0 12.73993,0.25173 13.25057,3.84692 0.48399,3.40783 1.66845,3.90546 10.37737,4.35969 9.53201,0.49718 9.83109,0.38014 9.83109,-3.84693 0,-3.5105 0.83257,-4.35968 4.27431,-4.35968 h 4.27441 v 17.95232 17.95238 h -13.67795 -13.67804 v -5.12925 c 0,-4.55933 -0.56988,-5.12925 -5.12923,-5.12925 h -5.12923 v 14.53285 14.53285 h -8.54872 -8.5488 z"
       id="path5713" />
    <path
       style="fill:#bc5151;fill-rule:evenodd;stroke:none;stroke-width:11.6092;stroke-linecap:square;paint-order:stroke markers fill"
       d="m 44.987829,228.87727 v -27.35595 h 27.355963 27.35598 v 27.35595 27.35595 H 72.343792 44.987829 Z m 37.272358,-0.42745 0.512762,-9.83102 H 72.429097 62.085331 v 9.11864 c 0,5.01525 0.54746,9.66613 1.216615,10.3353 0.669155,0.66913 5.093093,0.98972 9.83109,0.71238 l 8.614389,-0.50422 z"
       id="path5752" />
    <path
       style="fill:#bc5151;fill-rule:evenodd;stroke:none;stroke-width:1.45115;stroke-linecap:square;paint-order:stroke markers fill"
       d="m 148.03576,255.55647 c -0.0787,-0.0784 -0.14253,-1.85573 -0.14253,-3.94972 0,-3.77067 0.008,-3.80838 0.48086,-3.92571 0.26455,-0.0652 2.11588,-0.0908 4.11412,-0.0576 l 3.63325,0.0611 0.0584,4.0072 0.0584,4.00724 h -4.02974 c -2.21642,0 -4.09389,-0.0643 -4.17226,-0.14234 z"
       id="path5791" />
    <path
       style="fill:#bc5151;fill-rule:evenodd;stroke:none;stroke-width:1.45115;stroke-linecap:square;paint-order:stroke markers fill"
       d="m 166.96294,251.69647 0.0584,-4.01197 h 3.95383 3.95374 v 3.95378 3.95379 l -4.01197,0.0582 -4.01196,0.0582 z"
       id="path5830" />
  </g>
</svg>
