<?xml version="1.0" encoding="UTF-8" standalone="no"?>
<svg
   width="210mm"
   height="210mm"
   viewBox="0 0 210 210"
   version="1.1"
   id="svg4600"
   inkscape:version="1.1.1 (3bf5ae0d25, 2021-09-20, custom)"
   sodipodi:docname="tromlink.svg"
   inkscape:export-filename="/home/tio/Downloads/person-80.jpg.png"
   inkscape:export-xdpi="9.6761904"
   inkscape:export-ydpi="9.6761904"
   xmlns:inkscape="http://www.inkscape.org/namespaces/inkscape"
   xmlns:sodipodi="http://sodipodi.sourceforge.net/DTD/sodipodi-0.dtd"
   xmlns="http://www.w3.org/2000/svg"
   xmlns:svg="http://www.w3.org/2000/svg"
   xmlns:rdf="http://www.w3.org/1999/02/22-rdf-syntax-ns#"
   xmlns:cc="http://creativecommons.org/ns#"
   xmlns:dc="http://purl.org/dc/elements/1.1/">
  <defs
     id="defs4594">
    <filter
       style="color-interpolation-filters:sRGB"
       inkscape:label="Drop Shadow"
       id="filter4423">
      <feFlood
         flood-opacity="0.45098"
         flood-color="rgb(0,0,0)"
         result="flood"
         id="feFlood4425" />
      <feComposite
         in="flood"
         in2="SourceGraphic"
         operator="in"
         result="composite1"
         id="feComposite4427" />
      <feGaussianBlur
         in="composite1"
         stdDeviation="5.46448"
         result="blur"
         id="feGaussianBlur4429" />
      <feOffset
         dx="-2.2"
         dy="4.9"
         result="offset"
         id="feOffset4431" />
      <feComposite
         in="SourceGraphic"
         in2="offset"
         operator="over"
         result="composite2"
         id="feComposite4433" />
    </filter>
  </defs>
  <sodipodi:namedview
     id="base"
     pagecolor="#ffffff"
     bordercolor="#666666"
     borderopacity="1.0"
     inkscape:pageopacity="0.0"
     inkscape:pageshadow="2"
     inkscape:zoom="0.35"
     inkscape:cx="1360"
     inkscape:cy="707.14286"
     inkscape:document-units="mm"
     inkscape:current-layer="layer1"
     showgrid="false"
     inkscape:window-width="1861"
     inkscape:window-height="1047"
     inkscape:window-x="59"
     inkscape:window-y="33"
     inkscape:window-maximized="1"
     inkscape:document-rotation="0"
     inkscape:pagecheckerboard="0" />
  <metadata
     id="metadata4597">
    <rdf:RDF>
      <cc:Work
         rdf:about="">
        <dc:format>image/svg+xml</dc:format>
        <dc:type
           rdf:resource="http://purl.org/dc/dcmitype/StillImage" />
      </cc:Work>
    </rdf:RDF>
  </metadata>
  <g
     inkscape:label="Layer 1"
     inkscape:groupmode="layer"
     id="layer1"
     transform="translate(0,-87)">
    <rect
       style="fill:#393939;fill-opacity:1;fill-rule:evenodd;stroke:none;stroke-width:14.0665;stroke-linecap:square;stroke-miterlimit:4;stroke-dasharray:none;stroke-opacity:1;paint-order:stroke markers fill"
       id="rect903"
       width="194.99178"
       height="196.24919"
       x="9.7085037"
       y="95.904175"
       ry="34.075214" />
    <path
       style="fill:#bc5151;fill-rule:evenodd;stroke:none;stroke-width:13.0783;stroke-linecap:square;paint-order:stroke markers fill"
       d="m 61.577032,246.92791 c -13.816437,-7.82522 -20.31714,-27.34088 -14.370309,-43.14104 2.338987,-6.21465 14.952967,-19.86796 18.355472,-19.86796 1.253759,0 2.877956,3.9903 3.609329,8.86732 1.117313,7.4506 0.690654,9.54764 -2.670459,13.12535 -2.710974,2.8857 -4.000196,6.81123 -4.000196,12.18005 0,9.69516 6.559288,15.90602 16.798349,15.90602 5.517071,0 8.731761,-2.00062 18.892354,-11.75732 7.157238,-6.87273 12.740108,-14.0161 13.438178,-17.19435 1.2454,-5.67022 -3.32532,-17.27487 -6.804,-17.27487 -3.62605,0 -1.82549,-7.08103 2.93857,-11.55663 l 4.81529,-4.5237 4.99825,4.66947 c 2.74907,2.56823 6.33986,7.24944 7.97963,10.40272 3.64101,7.00194 3.89267,23.56887 0.45558,29.99373 -4.18747,7.82756 -23.5439,27.03098 -31.173174,30.9268 -9.832018,5.02057 -23.617109,4.70746 -33.262864,-0.75559 z"
       id="path7617" />
    <path
       style="fill:#bc5151;fill-rule:evenodd;stroke:none;stroke-width:13.0783;stroke-linecap:square;paint-order:stroke markers fill"
       d="m 87.107949,209.43981 c -9.024267,-10.29234 -11.825238,-27.17218 -6.56225,-39.54704 4.212748,-9.9055 27.960101,-31.47361 37.474401,-34.03555 25.44564,-6.85181 48.81965,16.26131 42.36654,41.89356 -2.28134,9.06155 -16.84399,26.93676 -20.23671,24.83992 -1.11374,-0.68832 -2.60291,-4.86579 -3.30927,-9.28327 -1.02773,-6.42679 -0.54511,-8.84095 2.41475,-12.08086 5.51377,-6.0353 6.55403,-11.67698 3.50066,-18.9847 -3.05593,-7.31393 -11.99182,-12.18705 -19.06399,-10.3964 -2.4041,0.60872 -9.93273,6.72653 -16.73026,13.59511 -13.908589,14.05397 -15.546068,20.05761 -8.185974,30.01268 5.094314,6.89042 5.237974,10.0183 0.650879,14.16954 -4.534851,4.10396 -8.613043,4.04337 -12.318776,-0.18294 z"
       id="path7656" />
  </g>
</svg>
