<?xml version="1.0" encoding="UTF-8" standalone="no"?>
<svg
   width="210mm"
   height="210mm"
   viewBox="0 0 210 210"
   version="1.1"
   id="svg4600"
   inkscape:version="1.1.1 (3bf5ae0d25, 2021-09-20, custom)"
   sodipodi:docname="tromtext.svg"
   inkscape:export-filename="/home/tio/Downloads/person-80.jpg.png"
   inkscape:export-xdpi="9.6761904"
   inkscape:export-ydpi="9.6761904"
   xmlns:inkscape="http://www.inkscape.org/namespaces/inkscape"
   xmlns:sodipodi="http://sodipodi.sourceforge.net/DTD/sodipodi-0.dtd"
   xmlns="http://www.w3.org/2000/svg"
   xmlns:svg="http://www.w3.org/2000/svg"
   xmlns:rdf="http://www.w3.org/1999/02/22-rdf-syntax-ns#"
   xmlns:cc="http://creativecommons.org/ns#"
   xmlns:dc="http://purl.org/dc/elements/1.1/">
  <defs
     id="defs4594">
    <filter
       style="color-interpolation-filters:sRGB"
       inkscape:label="Drop Shadow"
       id="filter4423">
      <feFlood
         flood-opacity="0.45098"
         flood-color="rgb(0,0,0)"
         result="flood"
         id="feFlood4425" />
      <feComposite
         in="flood"
         in2="SourceGraphic"
         operator="in"
         result="composite1"
         id="feComposite4427" />
      <feGaussianBlur
         in="composite1"
         stdDeviation="5.46448"
         result="blur"
         id="feGaussianBlur4429" />
      <feOffset
         dx="-2.2"
         dy="4.9"
         result="offset"
         id="feOffset4431" />
      <feComposite
         in="SourceGraphic"
         in2="offset"
         operator="over"
         result="composite2"
         id="feComposite4433" />
    </filter>
  </defs>
  <sodipodi:namedview
     id="base"
     pagecolor="#ffffff"
     bordercolor="#666666"
     borderopacity="1.0"
     inkscape:pageopacity="0.0"
     inkscape:pageshadow="2"
     inkscape:zoom="0.49497475"
     inkscape:cx="818.22356"
     inkscape:cy="479.82246"
     inkscape:document-units="mm"
     inkscape:current-layer="layer1"
     showgrid="false"
     inkscape:window-width="1861"
     inkscape:window-height="1047"
     inkscape:window-x="59"
     inkscape:window-y="33"
     inkscape:window-maximized="1"
     inkscape:document-rotation="0"
     inkscape:pagecheckerboard="0" />
  <metadata
     id="metadata4597">
    <rdf:RDF>
      <cc:Work
         rdf:about="">
        <dc:format>image/svg+xml</dc:format>
        <dc:type
           rdf:resource="http://purl.org/dc/dcmitype/StillImage" />
      </cc:Work>
    </rdf:RDF>
  </metadata>
  <g
     inkscape:label="Layer 1"
     inkscape:groupmode="layer"
     id="layer1"
     transform="translate(0,-87)">
    <rect
       style="fill:#393939;fill-opacity:1;fill-rule:evenodd;stroke:none;stroke-width:14.0665;stroke-linecap:square;stroke-miterlimit:4;stroke-dasharray:none;stroke-opacity:1;paint-order:stroke markers fill"
       id="rect903"
       width="194.99178"
       height="196.24919"
       x="9.7085037"
       y="95.904175"
       ry="34.075214" />
    <path
       style="fill:#bc5151;fill-rule:evenodd;stroke:none;stroke-width:11.1575;stroke-linecap:square;paint-order:stroke markers fill"
       d="m 56.618069,261.03882 c -2.460463,-2.46043 -2.809226,-133.83021 -0.365683,-137.7013 1.287939,-2.04026 6.590653,-2.46482 30.785109,-2.46482 h 29.229175 l 0.46385,20.43572 c 0.26385,11.62428 1.23629,21.36639 2.25526,22.59418 1.30274,1.56978 7.33876,2.15849 22.13034,2.15849 h 20.33893 v 46.50293 c 0,33.97801 -0.53103,47.03404 -1.9718,48.4748 -2.81769,2.81764 -100.047576,2.81764 -102.865181,0 z m 78.243961,-37.87606 0.51989,-4.51883 h -26.45207 c -21.997196,0 -26.611489,0.41512 -27.397997,2.46483 -0.52022,1.35563 -0.51298,3.59282 0.01629,4.97155 0.816358,2.12747 4.8827,2.43823 26.878017,2.054 l 25.91609,-0.45272 z m -0.51998,-17.66453 v -4.10804 l -25.91607,-0.45272 c -21.995326,-0.38423 -26.061664,-0.0735 -26.878105,2.054 -0.529002,1.37873 -0.529002,3.63476 0,5.01348 0.816441,2.12748 4.882779,2.43824 26.878105,2.05401 l 25.91607,-0.45272 z m 0.51998,-17.66456 -0.51998,-4.51883 -25.91607,-0.45272 c -21.995326,-0.38423 -26.061664,-0.0735 -26.878105,2.054 -0.529002,1.37873 -0.536242,3.61591 -0.01629,4.97155 0.786592,2.0497 5.400884,2.46483 27.397995,2.46483 h 26.45215 l -0.51997,-4.51883 z"
       id="path4484" />
    <path
       style="fill:#bc5151;fill-rule:evenodd;stroke:none;stroke-width:11.1575;stroke-linecap:square;paint-order:stroke markers fill"
       d="m 126.94757,138.12644 c 0,-9.94144 0.47329,-18.07535 1.05182,-18.07535 2.07648,0 33.45566,31.88364 33.45566,33.99347 0,1.64386 -4.10587,2.15723 -17.25374,2.15723 h -17.25374 z"
       id="path4523" />
  </g>
</svg>
