<?xml version="1.0" encoding="UTF-8" standalone="no"?>
<svg
   width="210mm"
   height="210mm"
   viewBox="0 0 210 210"
   version="1.1"
   id="svg4600"
   inkscape:version="1.1.1 (3bf5ae0d25, 2021-09-20, custom)"
   sodipodi:docname="tromspeed.svg"
   inkscape:export-filename="/home/tio/Downloads/person-80.jpg.png"
   inkscape:export-xdpi="9.6761904"
   inkscape:export-ydpi="9.6761904"
   xmlns:inkscape="http://www.inkscape.org/namespaces/inkscape"
   xmlns:sodipodi="http://sodipodi.sourceforge.net/DTD/sodipodi-0.dtd"
   xmlns="http://www.w3.org/2000/svg"
   xmlns:svg="http://www.w3.org/2000/svg"
   xmlns:rdf="http://www.w3.org/1999/02/22-rdf-syntax-ns#"
   xmlns:cc="http://creativecommons.org/ns#"
   xmlns:dc="http://purl.org/dc/elements/1.1/">
  <defs
     id="defs4594">
    <filter
       style="color-interpolation-filters:sRGB"
       inkscape:label="Drop Shadow"
       id="filter4423">
      <feFlood
         flood-opacity="0.45098"
         flood-color="rgb(0,0,0)"
         result="flood"
         id="feFlood4425" />
      <feComposite
         in="flood"
         in2="SourceGraphic"
         operator="in"
         result="composite1"
         id="feComposite4427" />
      <feGaussianBlur
         in="composite1"
         stdDeviation="5.46448"
         result="blur"
         id="feGaussianBlur4429" />
      <feOffset
         dx="-2.2"
         dy="4.9"
         result="offset"
         id="feOffset4431" />
      <feComposite
         in="SourceGraphic"
         in2="offset"
         operator="over"
         result="composite2"
         id="feComposite4433" />
    </filter>
  </defs>
  <sodipodi:namedview
     id="base"
     pagecolor="#ffffff"
     bordercolor="#666666"
     borderopacity="1.0"
     inkscape:pageopacity="0.0"
     inkscape:pageshadow="2"
     inkscape:zoom="0.35"
     inkscape:cx="1360"
     inkscape:cy="707.14286"
     inkscape:document-units="mm"
     inkscape:current-layer="layer1"
     showgrid="false"
     inkscape:window-width="1861"
     inkscape:window-height="1047"
     inkscape:window-x="59"
     inkscape:window-y="33"
     inkscape:window-maximized="1"
     inkscape:document-rotation="0"
     inkscape:pagecheckerboard="0" />
  <metadata
     id="metadata4597">
    <rdf:RDF>
      <cc:Work
         rdf:about="">
        <dc:format>image/svg+xml</dc:format>
        <dc:type
           rdf:resource="http://purl.org/dc/dcmitype/StillImage" />
      </cc:Work>
    </rdf:RDF>
  </metadata>
  <g
     inkscape:label="Layer 1"
     inkscape:groupmode="layer"
     id="layer1"
     transform="translate(0,-87)">
    <rect
       style="fill:#393939;fill-opacity:1;fill-rule:evenodd;stroke:none;stroke-width:14.0665;stroke-linecap:square;stroke-miterlimit:4;stroke-dasharray:none;stroke-opacity:1;paint-order:stroke markers fill"
       id="rect903"
       width="194.99178"
       height="196.24919"
       x="9.7085037"
       y="95.904175"
       ry="34.075214" />
    <path
       style="fill:#bc5151;fill-rule:evenodd;stroke:none;stroke-width:12.974;stroke-linecap:square;paint-order:stroke markers fill"
       d="m 38.747083,173.99544 c -2.417985,-2.57382 -3.94892,-5.84559 -3.402071,-7.2706 1.740926,-4.53679 21.463918,-16.83575 35.068922,-21.86848 17.69082,-6.54411 44.350106,-8.04511 61.868786,-3.48338 15.21492,3.96186 35.82817,14.5387 43.0739,22.10155 l 5.38528,5.62106 -4.49971,4.78975 c -5.5474,5.90495 -6.75465,5.92914 -14.16242,0.28397 -30.88386,-23.53548 -77.616571,-24.45991 -106.881758,-2.11424 -4.768491,3.64102 -9.431514,6.62004 -10.3623,6.62004 -0.930785,0 -3.670647,-2.10585 -6.088629,-4.67967 z"
       id="path7100" />
    <path
       style="fill:#bc5151;fill-rule:evenodd;stroke:none;stroke-width:12.974;stroke-linecap:square;paint-order:stroke markers fill"
       d="m 64.339818,199.57741 -5.60304,-5.84827 4.767821,-3.69147 c 21.2984,-16.49028 51.240251,-19.25129 74.931551,-6.90964 15.50256,8.07585 17.31263,11.16459 10.52227,17.95502 -4.42307,4.42302 -5.77719,4.88201 -8.57563,2.90678 -20.15401,-14.22553 -43.398922,-15.43565 -62.037915,-3.22965 -3.918421,2.56603 -7.411845,4.66549 -7.763213,4.66549 -0.351369,0 -3.160247,-2.63173 -6.241844,-5.84826 z"
       id="path7139" />
    <path
       style="fill:#bc5151;fill-rule:evenodd;stroke:none;stroke-width:12.974;stroke-linecap:square;paint-order:stroke markers fill"
       d="m 97.782373,236.2955 c -5.668244,-4.58984 -5.824266,-14.32352 -0.317865,-19.82993 5.506402,-5.50637 15.240072,-5.35037 19.829932,0.31785 10.71775,13.2359 -6.27622,30.22984 -19.512067,19.51208 z"
       id="path7178" />
  </g>
</svg>
