<?xml version="1.0" encoding="UTF-8" standalone="no"?>
<svg
   xmlns:dc="http://purl.org/dc/elements/1.1/"
   xmlns:cc="http://creativecommons.org/ns#"
   xmlns:rdf="http://www.w3.org/1999/02/22-rdf-syntax-ns#"
   xmlns:svg="http://www.w3.org/2000/svg"
   xmlns="http://www.w3.org/2000/svg"
   xmlns:sodipodi="http://sodipodi.sourceforge.net/DTD/sodipodi-0.dtd"
   xmlns:inkscape="http://www.inkscape.org/namespaces/inkscape"
   width="210mm"
   height="210mm"
   viewBox="0 0 210 210"
   version="1.1"
   id="svg1279"
   sodipodi:docname="tromjarosupport.svg"
   inkscape:version="1.0 (4035a4fb49, 2020-05-01)">
  <defs
     id="defs1273" />
  <sodipodi:namedview
     id="base"
     pagecolor="#ffffff"
     bordercolor="#666666"
     borderopacity="1.0"
     inkscape:pageopacity="0.0"
     inkscape:pageshadow="2"
     inkscape:zoom="0.12374369"
     inkscape:cx="-347.79553"
     inkscape:cy="1310.6247"
     inkscape:document-units="mm"
     inkscape:current-layer="layer1"
     inkscape:document-rotation="0"
     showgrid="false"
     inkscape:window-width="1850"
     inkscape:window-height="1048"
     inkscape:window-x="70"
     inkscape:window-y="32"
     inkscape:window-maximized="1"
     showguides="true"
     inkscape:guide-bbox="true" />
  <metadata
     id="metadata1276">
    <rdf:RDF>
      <cc:Work
         rdf:about="">
        <dc:format>image/svg+xml</dc:format>
        <dc:type
           rdf:resource="http://purl.org/dc/dcmitype/StillImage" />
        <dc:title />
      </cc:Work>
    </rdf:RDF>
  </metadata>
  <g
     inkscape:label="Layer 1"
     inkscape:groupmode="layer"
     id="layer1">
    <rect
       style="fill:#13715b;fill-opacity:1;stroke:#1ca081;stroke-width:10;stroke-linecap:square;stroke-miterlimit:4;stroke-dasharray:none;stroke-opacity:1;paint-order:stroke markers fill"
       id="rect1294"
       width="177.62122"
       height="176.81369"
       x="16.383307"
       y="15.395386"
       inkscape:export-filename="/home/tio/Downloads/trom hand.png"
       inkscape:export-xdpi="172.32001"
       inkscape:export-ydpi="172.32001"
       ry="88.406845" />
    <g
       transform="matrix(0.55793703,0,0,0.55793703,-295.37152,-327.23508)"
       id="g2025-7-3"
       style="fill:#ececec;fill-opacity:1"
       inkscape:export-filename="/home/tio/Downloads/trade-free logo.png"
       inkscape:export-xdpi="172.22476"
       inkscape:export-ydpi="172.22476">
      <g
         id="g2067-8-6"
         style="fill:#ececec;fill-opacity:1"
         transform="translate(4.7458326,-44.974996)">
        <g
           style="fill:#ececec;fill-opacity:1;stroke:none;stroke-opacity:1"
           transform="matrix(4.9587581,0,0,4.9587581,-819.61382,-454.33106)"
           id="g1454-2-3-1-6-5-5-9-7"
           inkscape:export-xdpi="127.19023"
           inkscape:export-ydpi="127.19023">
          <g
             inkscape:export-ydpi="245.92178"
             inkscape:export-xdpi="245.92178"
             inkscape:export-filename="/home/tio/Downloads/tromsite top white.png"
             id="g1438-6-6-95-7-1-5-7-5"
             style="clip-rule:evenodd;fill:#ececec;fill-opacity:1;fill-rule:evenodd;image-rendering:optimizeQuality;shape-rendering:geometricPrecision;text-rendering:geometricPrecision"
             transform="matrix(0.37515463,0,0,0.37515463,156.01691,199.11474)">
            <metadata
               id="metadata1434-9-6-5-1-6-6-3-3" />
            <path
               sodipodi:nodetypes="ccccccsssscssssscssscccssssssccccccccssscccccccssscsssscccsssscccssscccsscscsccssccccscscsssssssccsssccccccccccccsccsccsssscccsccssssssssssssssssccsssssccsss"
               style="fill:#ececec;fill-opacity:1"
               id="path1436-4-5-5-4-4-6-42-5"
               d="m 111.94813,109.67449 c 0,0.4303 -3.1946,9.975 -3.4314,10.3682 l -0.1116,1.2936 c -1.3677,0.9156 -2.2942,3.6142 -2.8174,5.4765 -2.97318,13.3502 3.64305,3.69807 -2.5177,10.8726 -0.3062,0.3604 -0.4774,0.9423 -0.7138,1.1006 0,0.5084 -0.4751,1.7834 -0.5185,2.5915 -0.0606,1.1315 -0.2502,1.5669 -0.0354,2.7997 0.1996,1.1452 0.2179,1.5919 0.6254,2.4846 0.1317,0.2885 0.3655,0.7922 0.5534,1.0017 0.2338,0.2606 0.8368,0.4521 0.9305,0.7111 h 0.9506 c 0.8337,0 2.1724,-0.9308 2.7486,-1.3124 0.4313,-0.2856 0.7159,-0.6314 1.0765,-0.9971 1.2891,-1.3071 3.0879,-4.9012 3.0879,-6.4153 0,-0.2036 -0.8585,-1.1032 -1.058,-1.2747 -0.3588,-0.3086 -1.1762,-0.5836 -1.1887,-1.1441 0.1013,-0.0268 0.2355,-0.0863 0.2592,-0.0863 0.9367,0 1.5729,0.9502 1.9011,0.9502 1.1965,0 2.1642,-1.7678 2.6963,-2.5741 0.426,-0.6457 1.6244,-2.8068 1.7058,-3.7094 0.3714,-1.3542 0.7429,-2.7083 1.1144,-4.0624 -0.85649,-10.81648 1.62113,-2.95116 5.6132,-15.2415 0.4798,-1.5812 1.6594,-4.3533 1.6594,-6.202 0,-2.1547 -2.0688,-4.1465 -4.1478,-4.1465 h -0.8641 c -0.9124,0 -2.261,0.5181 -2.8524,0.8631 -1.5239,0.889 -0.9369,0.6581 -1.9656,1.836 -0.2811,0.3218 -1.2462,1.8488 -1.4502,2.2648 -0.1958,0.3992 -1.0264,2.4614 -1.2497,2.5516 z m -23.158695,-8.4657 c -0.5362,0.8004 -0.8642,6.933 -0.8337,8.5923 5.014526,2.31157 -1.721622,2.58179 -1.7587,7.5616 8e-4,2.4835 -0.3704,4.4936 -0.3362,6.997 1.781144,6.41126 -1.098192,5.36861 -1.2193,10.6254 -0.0213,0.8664 -0.0426,1.7329 -0.0639,2.5994 0.1365,1.0915 0.273,2.1831 0.4096,3.2747 0.3844,0.5739 0.554,1.0143 1.1694,1.4225 0.4102,0.2722 1.3007,0.6507 1.9415,0.6507 h 0.6049 c 2.6764,0 5.0983,-4.8781 5.0983,-7.6882 0.0524,-5e-4 0.1049,-9e-4 0.1574,-0.001 0.0339,-0.4891 0.0679,-0.9782 0.1019,-1.4672 -4.032754,-14.23501 -1.960662,3.83301 1.7813,-10.2267 0.2089,-1.0868 0.8111,-2.607 0.7985,-3.6916 l 0.1854,-0.2487 c -10.49706,-15.7311 -1.806048,1.14186 1.2629,-11.868 0.385,-1.6981 0.811,-3.8388 0.811,-5.8408 v -0.3456 c 0,-1.1587 -0.221,-2.807503 -0.4353,-3.797603 -0.2417,-1.1169 -1.7265,-2.1039 -1.8114,-2.422 -0.5633,-0.0126 -1.1445,-0.6911 -1.8147,-0.6911 h -2.0739 c -0.3094,0 -1.5084,0.6613 -1.7454,0.8468 -0.3425,0.2681 -0.9265,1.1026 -1.1523,1.5259 -0.4121,0.7724 -1.0773,3.074203 -1.0773,4.192503 z m 51.588495,13.9943 h -0.432 c -1.4117,0 -3.2006,1.1947 -3.9698,1.9057 -0.4022,0.3718 -2.1399,2.8043 -2.4818,3.3932 -0.2149,0.3702 -0.9319,1.4595 -1.2039,1.7334 -0.1754,0.1766 -0.8896,1.5271 -1.0894,1.848 -1.00248,10.54509 -4.03318,8.56678 -8.2518,13.8654 0.45388,4.41483 -4.33342,6.5268 -4.3473,7.1432 -1.4072,0.117 -3.2549,3.6284 -3.8901,4.6633 -0.5156,0.8402 -1.4676,2.1509 -1.4676,3.4568 v 0.3456 c 0,1.3728 1.4006,2.8507 2.7653,2.8507 0.203,0.009 0.406,0.018 0.6091,0.0271 0.4882,-0.0667 0.9765,-0.1333 1.4648,-0.1999 0.1228,-0.3041 0.4277,-0.1955 0.7798,-0.4298 0.2882,-0.1917 0.4659,-0.3157 0.7437,-0.5523 0.2716,-0.2314 1.2955,-0.9658 1.3281,-1.2639 0.5126,-0.0426 1.4452,-0.9943 1.8167,-1.2937 0.0392,-0.0317 0.6333,-0.6913 0.7422,-0.813 0.1821,-0.2032 0.3791,-0.8221 0.3791,-1.1759 v -0.3455 c -1.01421,-7.52115 -4.71697,-3.25385 2.506,-2.4188 0.5086,0 1.7029,-1.1682 2.0753,-1.4671 0.677,-0.5434 1.0623,-1.3038 1.6084,-2.0204 0.4879,-0.6402 2.4516,-3.874 2.4516,-4.719 -1.25242,-3.65969 -1.23166,-1.17487 0.5185,-0.9502 0.1669,0 0.3457,-0.1541 0.3457,-0.2592 -2.05094,0.0954 -1.85161,-5.82252 0.5185,-1.5549 h 0.2592 c 0.1921,0 0.3569,0.2591 1.0369,0.2591 0.0538,-0.1483 0.4349,-0.4667 0.6173,-0.7651 0.2387,-0.3904 0.4197,-0.507 0.4197,-1.0489 0.4084,-0.6097 0.4889,-1.5396 0.7916,-2.0593 0.1391,-0.2387 0.3629,-0.7418 0.4799,-0.9025 0.2545,-0.3493 0.2221,-0.6727 0.4432,-1.0254 0.5652,-0.9018 1.2006,-3.0971 1.961,-3.741 0.5294,-0.4483 0.949,-0.0592 1.7324,-1.1189 0.3602,-0.4873 0.7914,-1.2126 1.1001,-1.751 0.3698,-0.6451 0.6829,-1.1761 0.9958,-1.8552 0.2316,-0.5028 0.5773,-1.8257 0.7716,-2.1489 0.0643,-0.4597 0.1286,-0.9193 0.1929,-1.3789 v -0.0864 c 0,-1.0253 -0.3787,-2.2232 -0.884,-2.7445 -0.4952,-0.5108 -1.3027,-1.4019 -2.2269,-1.4019 h -0.2592 v -0.1728 h -0.9506 z m 2.76887,69.95021 c -6.84397,2.46308 -8.117,6.67397 -15.2818,5.6117 -0.004,0.0299 -0.009,0.0598 -0.0133,0.0897 -0.0607,-0.0284 -0.1214,-0.0568 -0.182,-0.0852 -1.466,0.1723 -2.9319,0.3447 -4.3978,0.5171 -2.73974,2.32815 -3.96461,6.09859 -2.318,8.4505 0.2225,0.0984 0.7542,0.3812 0.9378,0.3828 0.3448,-0.0362 0.6896,-0.0724 1.0345,-0.1085 1.1053,-0.7399 2.4361,-1.2112 4.0269,-1.503 0.7562,-0.1387 1.7099,-0.2718 2.386,-0.3791 9.83424,-3.88932 0.80063,0.47343 13.2893,1.0183 1.0491,0 1.8214,0.1728 3.0244,0.1728 1.1341,0 2.652,-0.6911 3.7262,-0.6786 0.0829,-0.0618 0.1658,-0.1236 0.2488,-0.1853 1.175,0 3.7016,-1.4693 4.4226,-2.0577 1.1157,-0.9103 2.2312,-2.3455 2.2312,-4.3347 0,-2.623 -1.2734,-4.3948 -2.9225,-5.3714 -1.0369,-0.614 -1.3957,-1.0189 -2.7764,-1.3709 -1.0575,-0.2696 -2.0188,-0.7731 -3.4609,-0.7731 -0.4044,-0.007 -0.8088,-0.0149 -1.2131,-0.0223 -0.9207,0.2089 -1.8413,0.4179 -2.7619,0.6269 z M 63.297535,110.79749 v 1.6413 c 4.190903,6.08654 2.524547,-0.63538 1.1234,9.2431 v 1.123 c 0,1.5354 0.5088,3.7263 1.1052,4.6829 0.6506,1.0432 1.3711,2.9189 2.9562,2.9189 0.8609,0 1.5445,-0.4319 1.9011,-0.4319 1.7937,0 0.0732,1.123 -0.6049,1.123 -0.5515,0 -1.5554,0.5849 -1.5554,1.2093 0,0.7243 0.9227,6.5731 1.1096,7.0109 0.1033,0.2419 0.3897,1.2609 0.4503,1.5367 0.1486,0.6761 0.2941,0.9708 0.5333,1.5402 0.2058,0.4899 0.3683,0.8299 0.9011,1.0859 0.4972,0.2389 0.8879,0.4882 1.5856,0.4882 h 0.3456 c 0.5773,0 2.058,-1.1164 2.2644,-1.5372 0.3955,-0.8063 0.7614,-1.9582 0.7622,-3.1254 9e-4,-1.3507 0.1398,-2.5202 0.0041,-3.7229 -0.0745,-0.66 -0.0672,-1.0873 -0.1962,-1.7043 -0.2688,-1.2852 -0.5783,-2.3366 -0.847,-3.6453 h -0.1728 c 0,-0.8924 -0.4844,-1.3266 -0.7657,-1.8261 -0.4459,-0.7919 0.0744,-1.4489 0.0744,-2.1476 0,-0.7471 -0.2403,-2.5983 -0.3834,-3.3313 -0.2189,-1.122 -0.4893,-1.9121 -0.7933,-2.9214 -0.28,-0.9295 -0.6867,-1.7791 -1.0349,-2.68 -0.1862,-0.4819 -0.3581,-0.8947 -0.5297,-1.2845 -0.441001,-1.69055 -0.252016,-3.46852 -0.3703,-5.2449 -0.095,-1.2692 -0.1684,-2.3992 -0.2562,-3.4583 -0.1601,-1.9299 -1.7398,-3.7122 -3.8045,-3.7122 -3.0103,0 -3.8022,4.0857 -3.8022,7.1699 z"
               class="fil0"
               inkscape:connector-curvature="0" />
          </g>
        </g>
        <g
           id="g2005-2-6"
           transform="matrix(1.0381709,0.06711374,-0.06083487,0.94104405,45.704903,40.199462)"
           style="fill:#ececec;fill-opacity:1">
          <g
             id="g1452-6-1-6-7-0-0-0-2"
             transform="matrix(2.5436299,0,0,2.5436299,-477.45809,781.88152)"
             style="fill:#ececec;fill-opacity:1;stroke:none;stroke-opacity:1">
            <path
               id="path1440-0-1-5-8-6-3-3-9"
               d="m 221.52266,36.155036 c -0.50642,-0.357595 -1.01286,-0.682445 -1.12543,-0.721887 -0.11256,-0.03944 -0.39588,-0.853477 -0.6296,-1.808964 -0.23371,-0.95549 -0.55634,-2.002105 -0.71696,-2.325814 -0.21534,-0.433996 -0.20409,-0.902669 0.0428,-1.784607 0.28652,-1.023358 0.27276,-1.320546 -0.0953,-2.058376 -0.56326,-1.129096 -0.54306,-1.835677 0.12837,-4.490847 0.63177,-2.498305 0.52793,-3.387392 -0.44751,-3.831834 -0.56639,-0.258066 -0.66271,-0.461295 -0.59398,-1.253262 0.0704,-0.810985 -0.0252,-0.997138 -0.67267,-1.310542 -0.9787,-0.473721 -1.94697,-0.21713 -2.393,0.634145 -0.3428,0.654246 -0.37011,0.660503 -0.80169,0.183613 -0.41922,-0.46324 -0.41126,-0.54374 0.12904,-1.304277 0.31672,-0.445809 0.96498,-1.065649 1.44059,-1.377418 0.71352,-0.467722 0.91697,-0.503923 1.16339,-0.207004 0.16426,0.197916 0.65855,0.50892 1.09842,0.69112 0.68915,0.285457 0.87276,0.265221 1.32748,-0.146301 0.4918,-0.445066 0.561,-0.447466 1.01649,-0.03525 0.55869,0.505603 1.40774,0.577067 1.83071,0.154091 0.20614,-0.206131 0.67561,-0.09194 1.64819,0.400905 1.98014,1.003411 2.92351,0.873077 4.17005,-0.576115 0.50034,-0.581675 0.71709,-0.646718 1.63716,-0.491273 1.46249,0.247087 1.69093,0.439799 1.5285,1.289487 -0.12546,0.65628 -0.25777,0.736044 -1.24511,0.750639 -0.60761,0.009 -1.76623,0.223049 -2.57472,0.475707 -1.98264,0.619588 -2.0728,1.288534 -0.41098,3.049286 1.6588,1.757561 2.38431,1.658189 2.40555,-0.329488 0.0139,-1.296617 0.65671,-1.333098 2.00627,-0.113848 1.04835,0.947119 1.09004,1.044364 0.92361,2.15419 -0.13308,0.887439 -0.0881,1.163442 0.19014,1.167157 0.5237,0.007 2.55365,1.43234 2.47873,1.740468 -0.0347,0.142555 -0.14028,0.607127 -0.23471,1.032381 l -0.1717,0.773192 -0.92076,-0.892437 c -0.50642,-0.490842 -0.92076,-1.02253 -0.92076,-1.181526 0,-0.172228 -0.5132,-0.273159 -1.26953,-0.249685 -1.72997,0.05369 -1.67043,0.02556 -1.67043,0.789694 0,0.48705 -0.23761,0.810085 -0.8355,1.135896 -0.45952,0.25041 -1.15108,0.709446 -1.5368,1.020077 -0.38572,0.310632 -0.9829,0.652968 -1.32706,0.760746 -0.35337,0.110659 -0.78674,0.581258 -0.9956,1.081111 -0.34776,0.832327 -0.43246,0.87675 -1.41923,0.744395 -0.90467,-0.121341 -1.09669,-0.05345 -1.39227,0.49226 -0.18858,0.34816 -0.43049,1.114099 -0.53757,1.702094 -0.10708,0.587991 -0.27803,1.501436 -0.37988,2.029872 -0.16123,0.836441 -0.0742,1.087237 0.67253,1.937705 0.98754,1.124747 0.80091,1.232755 -0.51929,0.300525 z"
               style="fill:#ececec;fill-opacity:1;stroke:none;stroke-width:4.46286;stroke-linecap:square;paint-order:stroke markers fill" />
            <path
               id="path1442-5-8-0-2-6-4-1-1"
               d="m 239.22443,27.173004 c -0.52215,-0.654232 -0.58628,-0.666745 -1.70281,-0.332227 -1.05533,0.316188 -1.19312,0.30261 -1.52422,-0.150188 -0.26712,-0.365318 -0.28613,-0.591621 -0.0714,-0.850341 0.4455,-0.536795 0.0532,-1.695834 -0.57401,-1.695834 -0.44869,0 -0.52944,-0.182007 -0.52944,-1.19331 0,-0.909942 -0.12388,-1.259605 -0.52165,-1.472489 -0.44266,-0.236897 -0.49877,-0.472403 -0.37054,-1.555091 0.17923,-1.513282 -0.2574,-2.053616 -1.51079,-1.869659 -0.93353,0.137014 -1.0235,-0.193763 -0.38731,-1.424017 0.65385,-1.264412 0.413,-2.136902 -0.77297,-2.800072 l -1.0242,-0.572712 0.75693,-0.151225 c 0.54469,-0.108823 1.05449,0.04316 1.8182,0.54203 0.65076,0.425096 1.47935,0.707377 2.14209,0.729756 0.86548,0.02922 1.39538,0.292708 2.65971,1.322519 1.38099,1.124839 1.699,1.269918 2.53713,1.157502 0.52703,-0.07069 1.10191,0.0065 1.27752,0.171434 0.1756,0.164979 0.50545,0.455041 0.73299,0.644584 0.62655,0.52193 0.50572,1.021961 -0.52174,2.159243 -1.08161,1.197208 -1.19277,2.114217 -0.3882,3.202445 0.45099,0.61001 0.498,0.869686 0.26726,1.47656 -0.45604,1.199486 -0.34645,1.743787 0.38821,1.928175 0.97192,0.243935 0.82827,0.481314 -0.60136,0.99372 -1.54208,0.552709 -1.41765,0.568314 -2.07939,-0.260803 z"
               style="fill:#ececec;fill-opacity:1;stroke:none;stroke-width:4.46286;stroke-linecap:square;paint-order:stroke markers fill" />
            <path
               id="path1444-3-8-0-2-6-7-8-2"
               d="m 247.54413,40.91855 c -0.007,-0.118655 0.1211,-0.747612 0.28479,-1.397686 0.40317,-1.601149 0.17908,-2.27149 -1.10407,-3.302656 -0.88218,-0.70894 -1.16291,-0.813948 -1.47767,-0.552722 -0.21372,0.177371 -0.38858,0.611423 -0.38858,0.964557 0,0.629298 -0.22299,0.78664 -1.82054,1.284557 -0.58051,0.18093 -0.60764,0.138258 -0.44916,-0.706485 0.13085,-0.697516 0.0336,-1.070702 -0.43369,-1.664808 -0.59147,-0.751938 -0.59422,-0.788647 -0.15219,-2.033212 0.24759,-0.697095 0.45016,-1.936046 0.45016,-2.75322 0,-1.199832 -0.10654,-1.560396 -0.55359,-1.87352 -0.53098,-0.371917 -0.49279,-0.415581 0.93544,-1.069448 1.73714,-0.795285 1.97331,-1.516195 0.71063,-2.16915 -0.73929,-0.382307 -0.76382,-0.450043 -0.4881,-1.34839 0.25254,-0.822857 0.21474,-1.048057 -0.29068,-1.731672 -0.31954,-0.432194 -0.58097,-0.934434 -0.58097,-1.116092 0,-0.488545 1.36876,-1.829514 1.86743,-1.829514 0.51926,0 1.07253,-0.51013 1.07253,-0.988899 0,-0.191098 0.24055,-0.587991 0.53454,-0.881988 l 0.53454,-0.534541 v 0.626751 c 0,0.741743 0.76791,1.515274 1.49103,1.501936 0.28242,-0.0052 0.81417,-0.181353 1.18166,-0.391435 0.86917,-0.496859 2.93071,-0.49198 3.59241,0.0085 0.28534,0.215823 0.90721,0.392403 1.38193,0.392403 0.74572,0 0.88759,0.111393 1.04299,0.818928 0.11483,0.522822 0.43337,0.933538 0.88096,1.135896 1.25449,0.567158 4.03383,3.65365 4.57734,5.083191 0.19663,0.517184 0.14459,0.756335 -0.24041,1.104752 -0.32308,0.292386 -0.55162,0.347181 -0.66731,0.160001 -0.33063,-0.534971 -0.93581,-0.285647 -1.09304,0.450311 -0.53725,2.514687 -0.7532,2.957626 -1.55393,3.187273 -1.06274,0.30479 -1.43163,1.385428 -1.01047,2.960103 0.43411,1.623058 0.18049,2.383764 -0.91529,2.745407 -0.71287,0.235267 -0.95931,0.504013 -1.17531,1.281702 -0.15031,0.541208 -0.27397,1.314763 -0.27479,1.719009 -8e-4,0.404243 -0.10312,0.734991 -0.22734,0.734991 -0.451,0 -1.1105,-0.994198 -1.1105,-1.674082 0,-1.595493 -0.96593,-2.707831 -1.77113,-2.039578 -0.20186,0.167534 -0.36703,0.702842 -0.36703,1.189572 0,0.766445 -0.0983,0.896292 -0.73408,0.969534 -0.53282,0.06138 -0.85906,0.341048 -1.18988,1.020014 -0.25068,0.514495 -0.46156,0.838364 -0.46863,0.71971 z"
               style="fill:#ececec;fill-opacity:1;stroke:none;stroke-width:4.46286;stroke-linecap:square;paint-order:stroke markers fill" />
            <path
               transform="matrix(0.26458333,0,0,0.26458333,0,187)"
               id="path1446-3-6-7-1-3-3-0-7"
               d="m 878.33224,-503.66021 c -2.06215,-0.74161 -1.43979,-5.33945 1.13731,-8.40217 3.39429,-4.03389 4.3862,-15.24254 2.1253,-24.01602 -1.09567,-4.25178 -1.31141,-6.7739 -0.64805,-7.57614 1.77418,-2.14562 0.0239,-6.64936 -3.99534,-10.28048 -2.16059,-1.95196 -4.53843,-3.54902 -5.28409,-3.54902 -0.74567,0 -2.17852,-0.90913 -3.18411,-2.0203 -1.97723,-2.18481 -6.02507,-2.70261 -7.13157,-0.91227 -0.41304,0.66832 -2.54128,-0.99626 -5.36291,-4.19454 -6.50739,-7.37603 -6.60938,-7.63354 -4.65492,-11.75226 1.12925,-2.37973 1.50927,-4.85098 1.12014,-7.28441 -0.3239,-2.02556 -0.20063,-6.13903 0.27392,-9.14104 0.98149,-6.20887 3.81053,-9.22819 12.8964,-13.76382 4.01923,-2.00638 5.66686,-2.369 7.15218,-1.57409 1.38178,0.73951 2.66651,0.6507 4.52348,-0.31271 2.4864,-1.28996 2.87232,-1.07092 9.33792,5.30007 6.53748,6.44181 6.83884,6.60997 9.82565,5.48258 2.92653,-1.10464 3.38324,-0.90045 9.09239,4.06522 5.18486,4.50965 5.92129,5.58018 5.3578,7.78848 -1.83468,7.19001 -1.7648,9.23974 0.39332,11.53696 1.63589,1.74133 1.99839,3.03544 1.52012,5.4268 -0.66845,3.34223 0.83712,5.4638 7.047,9.93028 l 2.90361,2.08842 -3.40868,5.22482 c -2.97338,4.55757 -3.75845,5.16445 -6.14752,4.75214 -4.77631,-0.82428 -5.58871,0.59444 -8.87143,15.49248 -2.44945,11.11641 -3.43348,13.26314 -6.07966,13.26314 -2.3836,0 -4.49427,3.10437 -6.00263,8.82868 -0.82634,3.13597 -1.72757,4.40344 -3.36522,4.73278 -4.54702,0.91443 -9.34365,1.3076 -10.57041,0.86642 z"
               style="fill:#ececec;fill-opacity:1;stroke:none;stroke-width:16.8675;stroke-linecap:square;paint-order:stroke markers fill" />
            <path
               id="path1448-5-9-73-5-4-7-8-0"
               d="m 244.9914,50.335206 c 0.0822,-0.436938 -0.18393,-0.890431 -0.97329,-1.658625 -1.06633,-1.037741 -1.10694,-1.051782 -2.19887,-0.76033 -1.64095,0.437996 -1.91648,0.241027 -1.71915,-1.228966 0.0908,-0.676362 0.31512,-1.831105 0.49851,-2.566096 0.33113,-1.327139 0.34022,-1.335754 1.31885,-1.250365 0.91289,0.07966 1.02559,0.0072 1.53134,-0.984126 0.64113,-1.256718 1.06018,-1.58374 1.37597,-1.073803 0.13632,0.220128 0.68887,0.368329 1.37328,0.368329 1.18885,0 1.3201,0.193283 0.8729,1.285475 -0.14785,0.361096 -0.0538,0.521391 0.37121,0.632526 0.67526,0.176586 0.65843,0.07383 0.19488,1.189776 -0.2059,0.495697 -0.45858,1.695574 -0.5615,2.666392 -0.15745,1.485145 -0.11927,1.79117 0.24073,1.929317 0.50835,0.195072 0.57309,0.715505 0.089,0.715505 -0.18637,0 -0.78135,0.300678 -1.32217,0.668174 -1.20011,0.815498 -1.23289,0.817507 -1.0917,0.06682 z"
               style="fill:#ececec;fill-opacity:1;stroke:none;stroke-width:4.46286;stroke-linecap:square;paint-order:stroke markers fill" />
            <path
               id="path1450-5-6-2-1-8-0-1-9"
               d="m 228.45555,58.915199 c -0.0299,-0.220499 -0.0367,-0.501418 -0.0151,-0.624269 0.0216,-0.122851 -0.20469,-0.618133 -0.50289,-1.100624 -0.29819,-0.482494 -0.54217,-1.130903 -0.54217,-1.44091 0,-0.310007 -0.30068,-0.760659 -0.66818,-1.001451 -0.51755,-0.339119 -0.66817,-0.665416 -0.66817,-1.447551 0,-0.619959 -0.14475,-1.065289 -0.37497,-1.153634 -0.23251,-0.08922 -0.36473,-0.505126 -0.34802,-1.094666 0.0324,-1.14368 -0.8257,-2.161587 -3.01878,-3.580905 -1.6078,-1.040529 -4.81086,-4.21771 -4.81086,-4.771985 0,-0.190873 0.1446,-0.88768 0.32133,-1.548458 0.29025,-1.085181 0.268,-1.273551 -0.22997,-1.947087 -0.70156,-0.94891 -0.58149,-2.480067 0.17889,-2.281222 0.31561,0.08253 0.64149,-0.109913 0.9289,-0.548553 l 0.44272,-0.675687 1.57996,0.568478 c 1.52156,0.547465 1.61567,0.55145 2.54595,0.107831 l 0.96598,-0.460645 1.10989,1.256715 c 0.61043,0.691193 1.31859,1.596864 1.57368,2.012601 0.52772,0.860073 0.90193,0.932802 1.74852,0.339826 0.32671,-0.228833 0.59401,-0.302213 0.59401,-0.163068 0,0.139144 0.52541,0.499964 1.16758,0.801819 0.73082,0.343525 1.22935,0.779444 1.3327,1.165329 0.29866,1.115094 0.17972,3.848332 -0.22559,5.184423 -0.21891,0.721603 -0.39932,1.585391 -0.40091,1.919525 -0.003,0.581917 -0.0303,0.589577 -0.65266,0.181772 -0.61509,-0.403019 -0.6711,-0.392647 -1.04931,0.194291 -0.63249,0.98157 -0.77664,2.409103 -0.41582,4.117867 0.18354,0.869158 0.32804,2.001239 0.32111,2.515735 -0.0139,1.032981 -0.80112,4.113717 -0.88783,3.474503 z"
               style="fill:#ececec;fill-opacity:1;stroke:none;stroke-width:4.46286;stroke-linecap:square;paint-order:stroke markers fill" />
          </g>
          <g
             style="fill:#ececec;fill-opacity:1"
             id="g1589-6-3"
             transform="matrix(0.42101415,-0.00290252,-0.00238482,0.38048621,347.4567,776.5512)">
            <g
               style="fill:#ececec;fill-opacity:1"
               id="g1791-1-6"
               transform="matrix(0.73500002,0,0,0.73500002,127.46544,-645.9888)">
              <g
                 style="fill:#ececec;fill-opacity:1"
                 id="g1637-86-0" />
            </g>
            <g
               id="g1957-8-6"
               style="opacity:1;fill:#ececec;fill-opacity:1"
               transform="matrix(0.36427395,-0.62272564,0.62272564,0.36427395,-586.36419,-81.991079)">
              <path
                 id="path1961-8-2"
                 style="color:#000000;font-style:normal;font-variant:normal;font-weight:normal;font-stretch:normal;font-size:medium;line-height:normal;font-family:sans-serif;font-variant-ligatures:normal;font-variant-position:normal;font-variant-caps:normal;font-variant-numeric:normal;font-variant-alternates:normal;font-variant-east-asian:normal;font-feature-settings:normal;font-variation-settings:normal;text-indent:0;text-align:start;text-decoration:none;text-decoration-line:none;text-decoration-style:solid;text-decoration-color:#000000;letter-spacing:normal;word-spacing:normal;text-transform:none;writing-mode:lr-tb;direction:ltr;text-orientation:mixed;dominant-baseline:auto;baseline-shift:baseline;text-anchor:start;white-space:normal;shape-padding:0;shape-margin:0;inline-size:0;clip-rule:nonzero;display:inline;overflow:visible;visibility:visible;isolation:auto;mix-blend-mode:normal;color-interpolation:sRGB;color-interpolation-filters:linearRGB;solid-color:#000000;solid-opacity:1;vector-effect:none;fill:#ececec;fill-opacity:1;fill-rule:nonzero;stroke:none;stroke-width:7.26373;stroke-linecap:square;stroke-linejoin:miter;stroke-miterlimit:4;stroke-dasharray:none;stroke-dashoffset:0;stroke-opacity:1;paint-order:stroke markers fill;color-rendering:auto;image-rendering:auto;shape-rendering:auto;text-rendering:auto;enable-background:accumulate;stop-color:#000000;stop-opacity:1"
                 d="m -493.28929,383.44401 c -14.55927,2.3805 -19.29644,8.22067 -32.95226,17.13602 -6.42456,-0.30643 -9.3493,-8.20193 -12.01165,-16.95474 -7.78461,-29.77405 -9.07264,-30.79775 -12.02873,-15.17291 -3.03298,11.44914 -1.82656,33.92482 2.32982,43.92571 3.98033,10.11405 13.53071,22.3156 14.79752,31.89691 0.63363,4.26224 2.90077,7.27171 6.47189,9.17887 9.33203,3.02087 13.27127,4.96022 22.98604,3.15308 11.24117,13.88808 18.33822,16.41492 34.43774,12.5918 2.87463,-0.42194 5.82443,-1.75944 7.97632,-3.80899 3.73548,-5.72773 12.9378,-18.99341 12.28684,-23.04569 -0.0169,-0.58379 -0.49328,-1.18925 0.003,-1.69297 -4.32077,-6.47916 -0.20556,-5.4971 5.51058,-11.37027 1.53442,-3.68584 1.09677,-2.89707 3.09484,-9.9216 1.41186,-8.82295 0.78693,-6.17225 2.36108,-11.2588 0.99479,-7.57919 -2.63281,-10.6742 -9.58461,-14.4718 -6.2234,-5.09128 -18.00234,-6.90311 -22.91568,-11.22888 -5.6505,-3.24097 -16.6399,1.14009 -22.76299,1.04426 z"
                 sodipodi:nodetypes="ccccccccccccccccccc" />
            </g>
          </g>
        </g>
      </g>
    </g>
    <path
       style="fill:#cef7ec;fill-opacity:1;fill-rule:evenodd;stroke:none;stroke-width:27.5583;stroke-linecap:square;stroke-miterlimit:4;stroke-dasharray:none;stroke-opacity:1;paint-order:stroke markers fill"
       d="m 375.06677,159.2233 c -10.10514,-5.08088 -13.95389,-7.19503 -14.82145,-8.14173 -1.84613,-2.01445 -2.03079,-3.71171 -1.90199,-17.48122 0.12439,-13.29765 0.10364,-13.16566 2.4146,-15.36222 0.70118,-0.66646 5.55811,-2.96977 13.61284,-6.45559 l 12.52272,-5.41946 0.18228,-12.319844 c 0.20348,-13.751713 0.18179,-13.634131 2.91658,-15.809494 1.36284,-1.084061 24.92065,-11.450637 27.76195,-12.216585 1.01765,-0.274326 2.18467,-0.346512 2.92021,-0.180643 2.39751,0.540755 27.27429,11.458031 28.60121,12.551803 2.43684,2.008635 2.48954,2.319054 2.69324,15.859883 l 0.18291,12.16017 12.39545,5.35721 c 13.69349,5.91823 15.02372,6.74225 15.84508,9.81545 0.29233,1.09382 0.38439,5.39811 0.30022,14.03604 -0.13423,13.7787 -0.1887,14.12539 -2.52667,16.09267 -0.64526,0.54295 -7.21268,4.00776 -14.59429,7.69964 -11.99615,5.99977 -13.61302,6.71245 -15.2287,6.71245 -1.61516,0 -3.25024,-0.72002 -15.35684,-6.76233 l -13.54922,-6.7623 -13.4265,6.7623 c -12.48462,6.28795 -13.56215,6.76106 -15.36027,6.74453 -1.76801,-0.0162 -3.10385,-0.60607 -15.58336,-6.88073 z m 30.05372,-6.86119 10.75648,-5.37456 v -9.02606 c 0,-4.96428 -0.12331,-9.02601 -0.27408,-9.02601 -0.22742,0 -8.24074,3.2869 -19.32167,7.92534 l -2.27857,0.95378 v 9.96102 c 0,5.47859 0.0813,9.96106 0.18067,9.96106 0.0993,0 5.02108,-2.41855 10.93717,-5.37457 z m 60.88512,-1.48939 7.65601,-3.91076 0.0975,-9.01325 c 0.0665,-6.1573 -0.0247,-9.01323 -0.28826,-9.01323 -0.42549,0 -5.17593,1.92255 -15.03013,6.08288 l -6.47115,2.73208 v 9.97192 9.97194 l 3.19001,-1.45539 c 1.7545,-0.80049 6.6352,-3.21525 10.84602,-5.36619 z m -63.53848,-23.78116 c 5.9588,-2.49485 10.83952,-4.71476 10.84602,-4.9331 0.01,-0.33297 -20.4408,-9.42053 -22.28586,-9.90302 -0.76679,-0.20053 -23.31424,9.44964 -23.16001,9.91233 0.0627,0.188 4.28717,2.09421 9.38779,4.23598 5.10062,2.14181 10.01211,4.23889 10.91442,4.66021 0.90233,0.4213 2.05072,0.72049 2.55201,0.66488 0.50129,-0.0557 5.78682,-2.14239 11.74563,-4.63728 z m 54.05226,1.50971 c 4.21484,-1.78797 9.21046,-3.88636 11.10136,-4.66318 1.89091,-0.77678 3.49037,-1.56968 3.55435,-1.76205 0.16596,-0.49885 -22.44911,-10.10571 -23.27874,-9.88877 -1.74314,0.45582 -22.51341,9.57575 -22.42948,9.84841 0.0523,0.17018 4.76546,2.27394 10.47352,4.67506 5.70808,2.40112 10.70644,4.50726 11.10747,4.68037 0.40102,0.17312 0.97191,0.32513 1.26865,0.33783 0.29673,0.0122 3.98801,-1.43972 8.20287,-3.22767 z m -22.14344,-17.77175 10.66678,-4.6168 v -7.596348 c 0,-4.690322 -0.136,-7.596386 -0.3554,-7.596386 -0.39512,0 -19.29673,7.799427 -20.88092,8.616159 l -1.00258,0.516855 v 7.64667 c 0,5.84699 0.1065,7.64666 0.45268,7.64666 0.24899,0 5.25272,-2.07757 11.11944,-4.61681 z M 424.2378,92.157094 c 2.31929,-0.978673 7.66209,-3.214286 11.87291,-4.968006 4.21081,-1.753718 7.86812,-3.385708 8.12737,-3.626656 0.3733,-0.346935 -2.14745,-1.564714 -12.11518,-5.852803 l -12.58655,-5.414736 -12.6117,5.403264 c -10.33654,4.428478 -12.52459,5.48774 -12.12885,5.8716 0.26557,0.257617 4.09211,1.965476 8.50343,3.7952 4.41132,1.829765 9.66116,4.042599 11.6663,4.91744 2.00516,0.87484 3.9629,1.604927 4.35055,1.622387 0.38767,0.01732 2.60244,-0.768976 4.92172,-1.74769 z"
       id="path1960" />
    <g
       id="g2026"
       transform="translate(362.52623,326.30299)">
      <rect
         ry="9.4576588"
         y="60.94751"
         x="59.126686"
         height="18.915318"
         width="95.296394"
         id="rect1980"
         style="fill:#cef7ec;fill-opacity:1;fill-rule:evenodd;stroke:none;stroke-width:16.8918;stroke-linecap:square;stroke-miterlimit:4;stroke-dasharray:none;stroke-opacity:1;paint-order:stroke markers fill" />
      <rect
         style="fill:#cef7ec;fill-opacity:1;fill-rule:evenodd;stroke:none;stroke-width:16.8918;stroke-linecap:square;stroke-miterlimit:4;stroke-dasharray:none;stroke-opacity:1;paint-order:stroke markers fill"
         id="rect1980-3"
         width="95.296394"
         height="18.915318"
         x="71.332558"
         y="93.85849"
         ry="9.4576588" />
      <rect
         inkscape:transform-center-y="-57.143082"
         inkscape:transform-center-x="-9.6679031"
         style="fill:#cef7ec;fill-opacity:1;fill-rule:evenodd;stroke:none;stroke-width:16.8918;stroke-linecap:square;stroke-miterlimit:4;stroke-dasharray:none;stroke-opacity:1;paint-order:stroke markers fill"
         id="rect1980-6"
         width="95.296394"
         height="18.915318"
         x="58.264759"
         y="125.84644"
         ry="9.4576588" />
    </g>
    <path
       style="fill:#cef7ec;fill-opacity:1;fill-rule:evenodd;stroke:none;stroke-width:122.059;stroke-linecap:square;stroke-miterlimit:4;stroke-dasharray:none;stroke-opacity:1;paint-order:stroke markers fill"
       d="m 59.487719,141.17559 c 7.84193,-10.28129 8.188739,-14.04446 2.184476,-23.70333 -4.643753,-7.47024 -5.318199,-9.92767 -5.270753,-19.204779 0.06248,-12.21656 2.442074,-17.691721 11.544462,-26.562647 24.957624,-24.322918 72.862466,-18.536523 87.855746,10.612015 4.16846,8.103892 4.1534,23.524291 -0.031,31.726291 -4.03083,7.90111 -14.70629,17.48172 -24.14042,21.66474 -9.27789,4.11369 -27.76622,5.46895 -38.729142,2.83897 -7.37609,-1.76952 -8.63473,-1.65377 -12.682956,1.16628 -5.724552,3.9877 -14.154371,6.85408 -20.15742,6.85408 h -4.685451 z m 25.223489,-36.6485 c 4.27598,-2.28845 4.20776,-10.552399 -0.10616,-12.861129 -3.725784,-1.994 -8.723163,-4e-4 -10.300078,4.10894 -1.517942,3.95572 1.841902,9.063309 6.773055,10.296259 0.28041,0.0701 1.915343,-0.62473 3.633173,-1.54407 z m 27.621032,-1.00085 c 3.92121,-3.548639 3.7358,-7.899359 -0.46192,-10.839549 -3.46219,-2.42499 -7.72144,-1.87175 -9.88205,1.2836 -2.147432,3.13613 -1.28719,8.808469 1.59002,10.484289 3.93428,2.29149 5.36358,2.13992 8.75395,-0.92834 z m 25.66551,1.00085 c 3.12171,-1.67068 4.12603,-7.287749 1.88755,-10.556799 -2.1606,-3.15535 -6.41986,-3.70859 -9.88204,-1.2836 -4.10252,2.8735 -4.36173,6.55976 -0.74249,10.559009 3.076,3.39893 4.4137,3.59515 8.73698,1.28139 z"
       id="path2042" />
  </g>
</svg>
