<?xml version="1.0" encoding="UTF-8" standalone="no"?>
<svg
   width="210mm"
   height="210mm"
   viewBox="0 0 210 210"
   version="1.1"
   id="svg4600"
   inkscape:version="1.1 (c4e8f9ed74, 2021-05-24)"
   sodipodi:docname="tromsocial.svg"
   inkscape:export-filename="/home/tio/Downloads/person-80.jpg.png"
   inkscape:export-xdpi="9.6761904"
   inkscape:export-ydpi="9.6761904"
   xmlns:inkscape="http://www.inkscape.org/namespaces/inkscape"
   xmlns:sodipodi="http://sodipodi.sourceforge.net/DTD/sodipodi-0.dtd"
   xmlns="http://www.w3.org/2000/svg"
   xmlns:svg="http://www.w3.org/2000/svg"
   xmlns:rdf="http://www.w3.org/1999/02/22-rdf-syntax-ns#"
   xmlns:cc="http://creativecommons.org/ns#"
   xmlns:dc="http://purl.org/dc/elements/1.1/">
  <defs
     id="defs4594">
    <filter
       style="color-interpolation-filters:sRGB"
       inkscape:label="Drop Shadow"
       id="filter4423">
      <feFlood
         flood-opacity="0.45098"
         flood-color="rgb(0,0,0)"
         result="flood"
         id="feFlood4425" />
      <feComposite
         in="flood"
         in2="SourceGraphic"
         operator="in"
         result="composite1"
         id="feComposite4427" />
      <feGaussianBlur
         in="composite1"
         stdDeviation="5.46448"
         result="blur"
         id="feGaussianBlur4429" />
      <feOffset
         dx="-2.2"
         dy="4.9"
         result="offset"
         id="feOffset4431" />
      <feComposite
         in="SourceGraphic"
         in2="offset"
         operator="over"
         result="composite2"
         id="feComposite4433" />
    </filter>
  </defs>
  <sodipodi:namedview
     id="base"
     pagecolor="#ffffff"
     bordercolor="#666666"
     borderopacity="1.0"
     inkscape:pageopacity="0.0"
     inkscape:pageshadow="2"
     inkscape:zoom="0.24748738"
     inkscape:cx="474.77169"
     inkscape:cy="96.974644"
     inkscape:document-units="mm"
     inkscape:current-layer="layer1"
     showgrid="false"
     inkscape:window-width="1867"
     inkscape:window-height="1048"
     inkscape:window-x="53"
     inkscape:window-y="32"
     inkscape:window-maximized="1"
     inkscape:document-rotation="0"
     inkscape:pagecheckerboard="0" />
  <metadata
     id="metadata4597">
    <rdf:RDF>
      <cc:Work
         rdf:about="">
        <dc:format>image/svg+xml</dc:format>
        <dc:type
           rdf:resource="http://purl.org/dc/dcmitype/StillImage" />
      </cc:Work>
    </rdf:RDF>
  </metadata>
  <g
     inkscape:label="Layer 1"
     inkscape:groupmode="layer"
     id="layer1"
     transform="translate(0,-87)">
    <rect
       style="fill:#393939;fill-opacity:1;fill-rule:evenodd;stroke:none;stroke-width:14.0665;stroke-linecap:square;stroke-miterlimit:4;stroke-dasharray:none;stroke-opacity:1;paint-order:stroke markers fill"
       id="rect903"
       width="194.99178"
       height="196.24919"
       x="9.7085037"
       y="95.904175"
       ry="34.075214" />
    <g
       id="g6"
       transform="matrix(0.22582886,0,0,0.22582886,412.85488,150.11614)"
       style="fill:#bc5151;fill-opacity:1">
      <g
         id="g4"
         style="fill:#bc5151;fill-opacity:1">
        <path
           d="M 426.667,0.002 H 51.2 C 22.923,0.002 0,22.925 0,51.202 v 273.067 c 0,28.277 22.923,51.2 51.2,51.2 h 60.587 l -9.284,83.456 c -1.035,9.369 5.721,17.802 15.09,18.837 4.838,0.534 9.674,-1.023 13.292,-4.279 l 108.919,-98.014 h 186.863 c 28.277,0 51.2,-22.923 51.2,-51.2 V 51.202 c 0,-28.277 -22.923,-51.2 -51.2,-51.2 z"
           id="path2"
           style="fill:#bc5151;fill-opacity:1" />
      </g>
    </g>
    <g
       id="g5092"
       transform="matrix(2.7044627,0,0,2.7044627,-763.88342,-458.36858)">
      <path
         style="fill:#bc5151;fill-opacity:1;fill-rule:evenodd;stroke:none;stroke-width:24.8163;stroke-linecap:square;stroke-miterlimit:4;stroke-dasharray:none;stroke-opacity:1;paint-order:stroke markers fill"
         d="m 1205.8696,599.43801 c -0.9723,-0.26921 -2.6769,-0.72648 -3.7881,-1.01616 -1.1111,-0.28968 -2.5885,-0.75847 -3.283,-1.04177 -0.6945,-0.2833 -1.8309,-0.73848 -2.5254,-1.01151 -4.6848,-1.84186 -10.1877,-5.50233 -14.5673,-9.69012 -3.1093,-2.97314 -7.4899,-8.34409 -8.0593,-9.88135 -0.1544,-0.41669 -0.4139,-0.87126 -0.5768,-1.01015 -0.1629,-0.1389 -0.8403,-1.33214 -1.5052,-2.65165 l -1.2091,-2.39912 h -2.9122 c -2.5785,0 -3.0902,-0.17806 -4.4662,-1.55407 l -1.5541,-1.55409 v -15.8779 c 0,-19.27119 0.025,-19.35323 5.8552,-19.38367 l 3.0773,-0.0161 1.2159,-2.39911 c 0.6687,-1.31952 1.3863,-2.47488 1.5946,-2.56748 0.2083,-0.0926 0.3788,-0.39257 0.3788,-0.66661 0,-0.59097 2.7181,-4.61209 4.5294,-6.70073 4.2718,-4.92579 9.8604,-9.30594 15.1686,-11.88855 1.8056,-0.87851 3.6776,-1.81087 4.16,-2.07192 0.4824,-0.26106 1.2892,-0.47464 1.793,-0.47464 0.5038,0 1.1319,-0.1907 1.3958,-0.42376 0.8585,-0.75819 11.3517,-2.6067 14.7971,-2.6067 4.614,0 12.4815,1.5834 17.5026,3.52252 8.0812,3.12093 17.1281,10.07807 21.5428,16.56643 0.8932,1.31282 1.7692,2.50058 1.9467,2.63948 0.1775,0.1389 0.4714,0.59346 0.6532,1.01015 0.1818,0.41669 0.9944,1.89404 1.8058,3.283 l 1.4753,2.52538 3.0359,0.14918 c 2.4778,0.12175 3.2765,0.38976 4.3446,1.45783 l 1.3086,1.30866 -0.016,16.47237 c -0.012,12.15201 -0.1775,16.68256 -0.6314,17.27376 -1.0622,1.38353 -2.7284,1.97653 -5.5534,1.97653 h -2.7317 l -1.198,2.39912 c -1.5295,3.06295 -4.7872,7.96495 -6.767,10.18251 -3.5148,3.93701 -7.5524,7.62143 -8.3519,7.62143 -0.2802,0 -0.5095,0.18511 -0.5095,0.41137 0,0.39258 -1.7929,1.47508 -5.9346,3.5831 -4.429,2.25425 -7.1622,3.2173 -12.8867,4.54062 -2.9104,0.6728 -16.0864,0.64701 -18.5543,-0.0363 z m 23.486,-18.6003 c 0.1717,-0.27779 0.8701,-0.50508 1.5519,-0.50508 0.6819,0 1.6344,-0.20076 2.1168,-0.44615 0.4824,-0.24538 1.5589,-0.74982 2.3923,-1.12097 4.5917,-2.04499 10.4936,-7.34393 13.0495,-11.71622 0.7794,-1.33331 1.9691,-3.94609 2.6438,-5.80619 1.121,-3.09044 1.2267,-4.13383 1.2267,-12.10359 0,-6.05185 -0.1933,-9.05951 -0.6313,-9.82546 -2.5529,-4.46342 -6.122,-6.86153 -11.7735,-7.91067 -4.2392,-0.78698 -44.6549,-0.77189 -49.1563,0.0184 -1.8376,0.32261 -3.5571,0.77718 -3.821,1.01015 -0.2639,0.23297 -0.8464,0.42358 -1.2944,0.42358 -1.1573,0 -5.3059,3.93808 -6.5341,6.20255 -0.9186,1.69372 -1.0356,2.80217 -1.0356,9.81313 0,4.52761 0.2461,8.67415 0.5761,9.70735 2.2976,7.19375 4.0849,10.3318 8.1448,14.30052 4.0843,3.99254 6.4034,5.31378 13.755,7.83638 2.0188,0.69273 28.3676,0.80468 28.7893,0.12232 z"
         id="path4732"
         transform="matrix(0.26458333,0,0,0.26458333,0,87)" />
      <path
         style="fill:#bc5151;fill-opacity:1;fill-rule:evenodd;stroke:none;stroke-width:24.8163;stroke-linecap:square;stroke-miterlimit:4;stroke-dasharray:none;stroke-opacity:1;paint-order:stroke markers fill"
         d="m 1199.0876,560.12958 c -0.7866,-2.36123 -1.7285,-4.63737 -2.093,-5.0581 -0.3645,-0.42072 -1.7556,-1.06082 -3.0912,-1.42245 -1.3357,-0.36162 -2.8231,-0.86971 -3.3055,-1.12908 -0.4824,-0.25937 -1.3781,-0.47159 -1.9906,-0.47159 -1.0875,0 -1.0906,-0.0173 -0.1331,-0.74155 0.5392,-0.40785 1.4784,-0.74878 2.087,-0.75761 0.6087,-0.009 1.2471,-0.24335 1.4188,-0.52114 0.1717,-0.27779 0.7184,-0.50508 1.2149,-0.50508 1.6318,0 3.9627,-1.50588 4.5077,-2.91228 0.2943,-0.75948 0.8992,-2.49952 1.3441,-3.86677 1.3639,-4.19132 1.4796,-4.17115 3.066,0.53423 1.5492,4.59477 2.9285,6.11808 5.6211,6.20791 0.6087,0.0203 1.2471,0.2642 1.4188,0.54199 0.1717,0.27779 0.8391,0.50507 1.4832,0.50507 0.6441,0 1.4081,0.28563 1.6978,0.63472 0.4049,0.48789 -0.3694,0.91542 -3.3474,1.84816 -4.2951,1.34527 -6.1471,2.66902 -6.1471,4.39389 0,0.62966 -0.2272,1.28531 -0.505,1.45699 -0.2778,0.17169 -0.5051,0.8215 -0.5051,1.44402 0,0.62253 -0.2052,1.34779 -0.4561,1.61169 -0.2508,0.26391 -0.5458,0.93439 -0.6555,1.48998 -0.1226,0.62075 -0.7509,-0.6448 -1.6298,-3.283 z"
         id="path4771"
         transform="matrix(0.26458333,0,0,0.26458333,0,87)" />
      <path
         style="fill:#bc5151;fill-opacity:1;fill-rule:evenodd;stroke:none;stroke-width:24.8163;stroke-linecap:square;stroke-miterlimit:4;stroke-dasharray:none;stroke-opacity:1;paint-order:stroke markers fill"
         d="m 1158.416,659.07799 c -1.2372,-0.24251 -2.9418,-0.77201 -3.7881,-1.17665 -2.187,-1.04564 -5.6387,-4.74098 -6.6117,-7.07831 -1.7606,-4.22943 -1.4022,-14.16277 0.7546,-20.91426 3.9794,-12.45644 13.6488,-22.02308 26.5417,-26.25968 4.8511,-1.59408 7.7819,-1.77531 9.8543,-0.60935 5.9967,3.37372 11.8607,5.65048 18.43,7.15566 4.0368,0.92493 19.6772,0.93047 23.486,0.008 3.103,-0.75126 5.8062,-1.5319 7.3236,-2.1149 0.5556,-0.21347 2.0329,-0.76635 3.283,-1.22863 1.2501,-0.46229 3.9545,-1.74234 6.0099,-2.84456 3.3156,-1.77806 3.9991,-1.96814 6.0609,-1.68563 4.3354,0.59405 9.0096,2.26365 13.933,4.9768 2.1405,1.17953 6.679,4.86542 8.8636,7.19836 3.3364,3.56298 5.1097,6.06887 6.9132,9.76911 3.3022,6.77534 4.4179,12.3063 4.0622,20.13728 -0.2001,4.4048 -0.4607,5.76912 -1.4513,7.59654 -1.4004,2.58335 -5.2276,5.80662 -7.9233,6.67293 -1.1653,0.37449 -6.8524,0.68279 -15.0848,0.81775 l -13.2143,0.21663 -0.1842,-10.77577 c -0.1435,-8.3946 -0.3593,-11.16639 -0.9766,-12.54353 -1.0046,-2.2412 -4.2941,-5.55584 -5.5138,-5.55584 -0.5114,0 -1.0703,-0.22728 -1.242,-0.50508 -0.2004,-0.32431 -8.2497,-0.50507 -22.4903,-0.50507 -21.5783,0 -22.2298,0.0287 -24.0876,1.0594 -5.68,3.15149 -6.1776,4.59853 -6.1914,18.00723 l -0.011,10.73287 -12.2481,-0.0553 c -6.7365,-0.0305 -13.2603,-0.25376 -14.4974,-0.49628 z"
         id="path4810"
         transform="matrix(0.26458333,0,0,0.26458333,0,87)" />
      <path
         style="fill:#bc5151;fill-opacity:1;fill-rule:evenodd;stroke:none;stroke-width:24.8163;stroke-linecap:square;stroke-miterlimit:4;stroke-dasharray:none;stroke-opacity:1;paint-order:stroke markers fill"
         d="m 1196.2731,651.60434 c 0,-7.14908 0.1055,-8.15545 0.9656,-9.21764 1.4068,-1.7374 5.066,-1.69804 6.5368,0.0703 0.964,1.15889 1.0517,1.91668 1.0671,9.21765 l 0.017,7.95495 h -4.2931 -4.2932 z"
         id="path4849"
         transform="matrix(0.26458333,0,0,0.26458333,0,87)" />
      <path
         style="fill:#bc5151;fill-opacity:1;fill-rule:evenodd;stroke:none;stroke-width:24.8163;stroke-linecap:square;stroke-miterlimit:4;stroke-dasharray:none;stroke-opacity:1;paint-order:stroke markers fill"
         d="m 1228.5441,649.27711 c -1.5289,-0.83101 -2.9776,-2.85293 -2.974,-4.15067 0,-0.49591 0.5439,-1.57835 1.2056,-2.40541 0.9927,-1.24062 1.5761,-1.50375 3.3344,-1.50375 2.8072,0 4.1593,1.53186 3.9423,4.46657 -0.1241,1.67924 -0.457,2.249 -1.8673,3.1964 -1.992,1.33819 -1.9229,1.33066 -3.641,0.39686 z"
         id="path4888"
         transform="matrix(0.26458333,0,0,0.26458333,0,87)" />
    </g>
  </g>
</svg>
