<?xml version="1.0" encoding="UTF-8" standalone="no"?>
<svg
   width="210mm"
   height="210mm"
   viewBox="0 0 210 210"
   version="1.1"
   id="svg4600"
   inkscape:version="1.1.1 (3bf5ae0d25, 2021-09-20, custom)"
   sodipodi:docname="tromrss.svg"
   inkscape:export-filename="/home/tio/Downloads/person-80.jpg.png"
   inkscape:export-xdpi="9.6761904"
   inkscape:export-ydpi="9.6761904"
   xmlns:inkscape="http://www.inkscape.org/namespaces/inkscape"
   xmlns:sodipodi="http://sodipodi.sourceforge.net/DTD/sodipodi-0.dtd"
   xmlns="http://www.w3.org/2000/svg"
   xmlns:svg="http://www.w3.org/2000/svg"
   xmlns:rdf="http://www.w3.org/1999/02/22-rdf-syntax-ns#"
   xmlns:cc="http://creativecommons.org/ns#"
   xmlns:dc="http://purl.org/dc/elements/1.1/">
  <defs
     id="defs4594">
    <filter
       style="color-interpolation-filters:sRGB"
       inkscape:label="Drop Shadow"
       id="filter4423">
      <feFlood
         flood-opacity="0.45098"
         flood-color="rgb(0,0,0)"
         result="flood"
         id="feFlood4425" />
      <feComposite
         in="flood"
         in2="SourceGraphic"
         operator="in"
         result="composite1"
         id="feComposite4427" />
      <feGaussianBlur
         in="composite1"
         stdDeviation="5.46448"
         result="blur"
         id="feGaussianBlur4429" />
      <feOffset
         dx="-2.2"
         dy="4.9"
         result="offset"
         id="feOffset4431" />
      <feComposite
         in="SourceGraphic"
         in2="offset"
         operator="over"
         result="composite2"
         id="feComposite4433" />
    </filter>
  </defs>
  <sodipodi:namedview
     id="base"
     pagecolor="#ffffff"
     bordercolor="#666666"
     borderopacity="1.0"
     inkscape:pageopacity="0.0"
     inkscape:pageshadow="2"
     inkscape:zoom="0.49497475"
     inkscape:cx="818.22356"
     inkscape:cy="479.82246"
     inkscape:document-units="mm"
     inkscape:current-layer="layer1"
     showgrid="false"
     inkscape:window-width="1861"
     inkscape:window-height="1047"
     inkscape:window-x="59"
     inkscape:window-y="33"
     inkscape:window-maximized="1"
     inkscape:document-rotation="0"
     inkscape:pagecheckerboard="0" />
  <metadata
     id="metadata4597">
    <rdf:RDF>
      <cc:Work
         rdf:about="">
        <dc:format>image/svg+xml</dc:format>
        <dc:type
           rdf:resource="http://purl.org/dc/dcmitype/StillImage" />
      </cc:Work>
    </rdf:RDF>
  </metadata>
  <g
     inkscape:label="Layer 1"
     inkscape:groupmode="layer"
     id="layer1"
     transform="translate(0,-87)">
    <rect
       style="fill:#393939;fill-opacity:1;fill-rule:evenodd;stroke:none;stroke-width:14.0665;stroke-linecap:square;stroke-miterlimit:4;stroke-dasharray:none;stroke-opacity:1;paint-order:stroke markers fill"
       id="rect903"
       width="194.99178"
       height="196.24919"
       x="9.7085037"
       y="95.904175"
       ry="34.075214" />
    <path
       style="fill:#bc5151;fill-rule:evenodd;stroke:none;stroke-width:11.0682;stroke-linecap:square;paint-order:stroke markers fill"
       d="m 56.673116,244.91384 c -6.194957,-5.21268 -7.690121,-11.70258 -4.471213,-19.40661 6.979695,-16.70466 31.93751,-10.78874 31.93751,7.57034 0,14.05121 -16.423088,21.12853 -27.466297,11.83627 z"
       id="path2696" />
    <path
       style="fill:#bc5151;fill-rule:evenodd;stroke:none;stroke-width:11.0682;stroke-linecap:square;paint-order:stroke markers fill"
       d="m 112.9696,247.81052 c -0.38696,-0.67238 -1.18194,-4.52846 -1.76666,-8.56904 -2.36148,-16.3175 -14.851767,-34.51011 -29.645594,-43.17985 -3.954589,-2.31758 -12.510213,-5.51818 -19.012334,-7.11245 l -11.822055,-2.89864 -0.483626,-8.1828 c -0.636679,-10.77315 1.055354,-12.04351 13.524177,-10.15383 30.224497,4.58061 58.908652,30.78244 66.779342,61.00026 1.37438,5.27636 2.4988,12.00662 2.4988,14.95615 v 5.36278 h -9.68424 c -5.3263,0 -10.00084,-0.55016 -10.38781,-1.22258 z"
       id="path2735" />
    <path
       style="fill:#bc5151;fill-rule:evenodd;stroke:none;stroke-width:11.0682;stroke-linecap:square;paint-order:stroke markers fill"
       d="m 153.59659,246.99549 c -0.29345,-1.12066 -1.7097,-8.27261 -3.1471,-15.8932 -8.15155,-43.21699 -46.0055,-78.84093 -87.895844,-82.71793 -5.148158,-0.47648 -10.142045,-1.80826 -11.097509,-2.95953 -0.955467,-1.15125 -1.511301,-5.63446 -1.2352,-9.9627 l 0.50202,-7.86949 11.410484,0.3022 c 40.572039,1.07483 84.556319,33.32087 101.734209,74.5839 5.02681,12.07493 10.89064,40.05866 9.27589,44.26669 -1.15532,3.0107 -18.76487,3.23591 -19.54695,0.25006 z"
       id="path2774" />
  </g>
</svg>
