<?xml version="1.0" encoding="UTF-8" standalone="no"?>
<svg
   width="210mm"
   height="210mm"
   viewBox="0 0 210 210"
   version="1.1"
   id="svg4600"
   inkscape:version="1.1.1 (3bf5ae0d25, 2021-09-20, custom)"
   sodipodi:docname="trommeme.svg"
   inkscape:export-filename="/home/tio/Downloads/person-80.jpg.png"
   inkscape:export-xdpi="9.6761904"
   inkscape:export-ydpi="9.6761904"
   xmlns:inkscape="http://www.inkscape.org/namespaces/inkscape"
   xmlns:sodipodi="http://sodipodi.sourceforge.net/DTD/sodipodi-0.dtd"
   xmlns="http://www.w3.org/2000/svg"
   xmlns:svg="http://www.w3.org/2000/svg"
   xmlns:rdf="http://www.w3.org/1999/02/22-rdf-syntax-ns#"
   xmlns:cc="http://creativecommons.org/ns#"
   xmlns:dc="http://purl.org/dc/elements/1.1/">
  <defs
     id="defs4594">
    <filter
       style="color-interpolation-filters:sRGB"
       inkscape:label="Drop Shadow"
       id="filter4423">
      <feFlood
         flood-opacity="0.45098"
         flood-color="rgb(0,0,0)"
         result="flood"
         id="feFlood4425" />
      <feComposite
         in="flood"
         in2="SourceGraphic"
         operator="in"
         result="composite1"
         id="feComposite4427" />
      <feGaussianBlur
         in="composite1"
         stdDeviation="5.46448"
         result="blur"
         id="feGaussianBlur4429" />
      <feOffset
         dx="-2.2"
         dy="4.9"
         result="offset"
         id="feOffset4431" />
      <feComposite
         in="SourceGraphic"
         in2="offset"
         operator="over"
         result="composite2"
         id="feComposite4433" />
    </filter>
  </defs>
  <sodipodi:namedview
     id="base"
     pagecolor="#ffffff"
     bordercolor="#666666"
     borderopacity="1.0"
     inkscape:pageopacity="0.0"
     inkscape:pageshadow="2"
     inkscape:zoom="0.49497475"
     inkscape:cx="818.22356"
     inkscape:cy="479.82246"
     inkscape:document-units="mm"
     inkscape:current-layer="layer1"
     showgrid="false"
     inkscape:window-width="1861"
     inkscape:window-height="1047"
     inkscape:window-x="59"
     inkscape:window-y="33"
     inkscape:window-maximized="1"
     inkscape:document-rotation="0"
     inkscape:pagecheckerboard="0" />
  <metadata
     id="metadata4597">
    <rdf:RDF>
      <cc:Work
         rdf:about="">
        <dc:format>image/svg+xml</dc:format>
        <dc:type
           rdf:resource="http://purl.org/dc/dcmitype/StillImage" />
      </cc:Work>
    </rdf:RDF>
  </metadata>
  <g
     inkscape:label="Layer 1"
     inkscape:groupmode="layer"
     id="layer1"
     transform="translate(0,-87)">
    <rect
       style="fill:#393939;fill-opacity:1;fill-rule:evenodd;stroke:none;stroke-width:14.0665;stroke-linecap:square;stroke-miterlimit:4;stroke-dasharray:none;stroke-opacity:1;paint-order:stroke markers fill"
       id="rect903"
       width="194.99178"
       height="196.24919"
       x="9.7085037"
       y="95.904175"
       ry="34.075214" />
    <path
       style="fill:#bc5151;fill-rule:evenodd;stroke:none;stroke-width:11.7572;stroke-linecap:square;paint-order:stroke markers fill"
       d="m 63.951074,210.23542 c 0,-6.54646 0.857155,-8.36521 6.120611,-12.9866 3.366408,-2.95573 6.645137,-5.37402 7.286058,-5.37402 0.641005,0 4.132117,2.89687 7.758047,6.43752 l 6.592689,6.43752 19.055711,-18.99125 19.05573,-18.99124 13.81737,14.43817 13.8173,14.43821 V 206.74585 217.848 H 110.70283 63.951074 Z"
       id="path4881" />
    <path
       style="fill:#bc5151;fill-rule:evenodd;stroke:none;stroke-width:11.7572;stroke-linecap:square;paint-order:stroke markers fill"
       d="m 70.444338,159.56016 c 1.190476,-0.48036 3.13843,-0.48036 4.328903,0 1.190388,0.48033 0.216419,0.87336 -2.164452,0.87336 -2.380861,0 -3.354924,-0.39303 -2.164451,-0.87336 z"
       id="path4920" />
    <path
       style="fill:#bc5151;fill-rule:evenodd;stroke:none;stroke-width:11.7572;stroke-linecap:square;paint-order:stroke markers fill"
       d="m 40.115631,242.09652 c -5.406243,-5.0367 -5.88809,-10.28552 -5.282908,-57.55423 0.53584,-41.86298 0.633376,-42.87819 4.49003,-46.73347 3.935247,-3.93394 4.052666,-3.94181 66.664547,-4.47611 67.56825,-0.57653 73.73737,0.0259 77.15529,7.52694 1.3726,3.01241 2.01678,19.08285 2.01678,50.30953 v 45.88325 l -4.25014,4.25016 -4.25013,4.25016 h -66.41686 c -63.979516,0 -66.552875,-0.12698 -70.126609,-3.45623 z M 172.17275,190.14325 v -42.42293 l -61.90283,-0.45477 -61.902824,-0.45474 v 42.15618 c 0,23.18592 0.529326,42.68548 1.176161,43.33237 0.646917,0.6469 28.503229,0.97157 61.902823,0.7215 l 60.72667,-0.45471 z"
       id="path4959" />
    <path
       style="fill:#bc5151;fill-rule:evenodd;stroke:none;stroke-width:11.7572;stroke-linecap:square;paint-order:stroke markers fill"
       d="m 64.848769,178.67279 c -1.81785,-1.81788 -2.627099,-5.02867 -2.288038,-9.07832 1.183615,-14.13828 20.326757,-12.57553 20.410837,1.66625 0.05228,8.79497 -11.865656,13.66916 -18.122799,7.41207 z"
       id="path5195" />
  </g>
</svg>
