<?xml version="1.0" encoding="UTF-8" standalone="no"?>
<svg
   xmlns:dc="http://purl.org/dc/elements/1.1/"
   xmlns:cc="http://creativecommons.org/ns#"
   xmlns:rdf="http://www.w3.org/1999/02/22-rdf-syntax-ns#"
   xmlns:svg="http://www.w3.org/2000/svg"
   xmlns="http://www.w3.org/2000/svg"
   xmlns:xlink="http://www.w3.org/1999/xlink"
   xmlns:sodipodi="http://sodipodi.sourceforge.net/DTD/sodipodi-0.dtd"
   xmlns:inkscape="http://www.inkscape.org/namespaces/inkscape"
   version="1.1"
   preserveAspectRatio="xMidYMid meet"
   viewBox="0 0 640 640"
   width="64"
   height="64"
   id="svg33"
   sodipodi:docname="virt-viewer.svg"
   inkscape:version="0.92.4 5da689c313, 2019-01-14">
  <metadata
     id="metadata37">
    <rdf:RDF>
      <cc:Work
         rdf:about="">
        <dc:format>image/svg+xml</dc:format>
        <dc:type
           rdf:resource="http://purl.org/dc/dcmitype/StillImage" />
      </cc:Work>
    </rdf:RDF>
  </metadata>
  <sodipodi:namedview
     pagecolor="#ffffff"
     bordercolor="#666666"
     borderopacity="1"
     objecttolerance="10"
     gridtolerance="10"
     guidetolerance="10"
     inkscape:pageopacity="0"
     inkscape:pageshadow="2"
     inkscape:window-width="1850"
     inkscape:window-height="1048"
     id="namedview35"
     showgrid="false"
     inkscape:zoom="7.375"
     inkscape:cx="46.435749"
     inkscape:cy="31.825263"
     inkscape:window-x="70"
     inkscape:window-y="32"
     inkscape:window-maximized="1"
     inkscape:current-layer="g11" />
  <defs
     id="defs7">
    <path
       d="M48 51.37L592 51.37L592 595.37L48 595.37L48 51.37Z"
       id="dQlBIXFZv" />
    <path
       d="M275.5 445.4L355.5 445.4L355.5 482.71L275.5 482.71L275.5 445.4Z"
       id="arw4Y82nf" />
    <path
       d="M431.04 173.2C469.09 173.2 499.93 204.05 499.93 242.1C499.93 283.43 499.93 338.55 499.93 379.88C499.93 417.93 469.09 448.77 431.04 448.77C371.05 448.77 259.96 448.77 199.97 448.77C161.92 448.77 131.07 417.93 131.07 379.88C131.07 338.55 131.07 283.43 131.07 242.1C131.07 204.05 161.92 173.2 199.97 173.2C259.96 173.2 371.05 173.2 431.04 173.2Z"
       id="d6hGTvpsL" />
    <path
       d="M420.64 185.01C455.12 185.01 483.07 212.96 483.07 247.44C483.07 284.89 483.07 334.84 483.07 372.3C483.07 406.77 455.12 434.72 420.64 434.72C366.1 434.72 264.91 434.72 210.36 434.72C175.88 434.72 147.93 406.77 147.93 372.3C147.93 334.84 147.93 284.89 147.93 247.44C147.93 212.96 175.88 185.01 210.36 185.01C264.91 185.01 366.1 185.01 420.64 185.01Z"
       id="c4a5rAh3hE" />
    <path
       d="M395.9 481.58C398.1 481.58 399.89 483.37 399.89 485.57C399.89 487.97 399.89 491.16 399.89 493.55C399.89 495.75 398.1 497.54 395.9 497.54C362.94 497.54 268.07 497.54 235.11 497.54C232.91 497.54 231.12 495.75 231.12 493.55C231.12 491.16 231.12 487.97 231.12 485.57C231.12 483.37 232.91 481.58 235.11 481.58C268.07 481.58 362.94 481.58 395.9 481.58Z"
       id="b1lNfIjTzF" />
  </defs>
  <g
     id="g31"
     transform="matrix(1.1221336,0,0,1.1221336,-38.404786,-46.951969)">
    <g
       id="g29">
      <g
         id="g11" />
      <g
         id="g15"
         transform="matrix(1.3308668,0,0,1.3308668,-95.325843,-133.4323)">
        <use
           xlink:href="#arw4Y82nf"
           id="use13"
           style="opacity:1;fill:#514444;fill-opacity:1"
           x="0"
           y="0"
           width="100%"
           height="100%" />
      </g>
      <g
         id="g19"
         transform="matrix(1.3308668,0,0,1.3308668,-95.325843,-133.4323)">
        <use
           xlink:href="#d6hGTvpsL"
           id="use17"
           style="opacity:1;fill:#8f8181;fill-opacity:1"
           x="0"
           y="0"
           width="100%"
           height="100%" />
      </g>
      <g
         id="g23"
         transform="matrix(1.3308668,0,0,1.3308668,-95.325843,-133.4323)">
        <use
           xlink:href="#c4a5rAh3hE"
           id="use21"
           style="opacity:1;fill:#514444;fill-opacity:1"
           x="0"
           y="0"
           width="100%"
           height="100%" />
      </g>
      <g
         id="g27"
         transform="matrix(1.3308668,0,0,1.3308668,-95.325843,-133.4323)">
        <use
           xlink:href="#b1lNfIjTzF"
           id="use25"
           style="opacity:1;fill:#8f8181;fill-opacity:1"
           x="0"
           y="0"
           width="100%"
           height="100%" />
      </g>
    </g>
  </g>
</svg>
