<?xml version="1.0" encoding="UTF-8" standalone="no"?>
<!DOCTYPE svg PUBLIC "-//W3C//DTD SVG 1.1//EN" "http://www.w3.org/Graphics/SVG/1.1/DTD/svg11.dtd">
<svg version="1.1" xmlns="http://www.w3.org/2000/svg" xmlns:xlink="http://www.w3.org/1999/xlink" preserveAspectRatio="xMidYMid meet" viewBox="0 0 640 640" width="64" height="64"><defs><path d="M601.63 21.02C612.76 21.02 621.79 30.05 621.79 41.18C621.79 156.74 621.79 483.26 621.79 598.82C621.79 609.95 612.76 618.98 601.63 618.98C485.4 618.98 156.85 618.98 40.61 618.98C29.48 618.98 20.46 609.95 20.46 598.82C20.46 483.26 20.46 156.74 20.46 41.18C20.46 30.05 29.48 21.02 40.61 21.02C156.85 21.02 485.4 21.02 601.63 21.02Z" id="b6bogwKouF"></path><path d="M37.32 139.04L606.05 139.04L606.05 599.87L37.32 599.87L37.32 139.04Z" id="dII2LdE4c"></path><path d="M247.9 177.62C264.03 251.55 293.69 312.28 316.64 379.53C346.98 317.26 366.1 244.05 392.24 177.62C440.37 177.62 488.51 177.62 536.61 177.62C482.46 304.09 431.19 433.38 378.47 561.28C337.25 561.28 296.05 561.28 254.82 561.28C203 432.56 149.48 305.45 96.66 177.62C147.07 177.62 197.47 177.62 247.9 177.62Z" id="c4UnvF28F"></path><path d="M376.09 336.82C390.23 309.05 421.8 296.76 446.61 309.39C447.55 309.86 448.47 310.37 449.35 310.91C463.33 292.76 483.48 284.44 498.49 292.08C498.49 292.08 498.49 292.08 498.49 292.08C516.47 301.24 520.27 329.84 506.97 355.97C500.93 367.84 452.61 462.77 446.57 474.64C433.27 500.77 407.9 514.53 389.92 505.37C389.92 505.37 389.92 505.37 389.92 505.37C374.24 497.39 369.34 474.63 377.16 451.62C361.13 441.04 356.04 418.22 365.99 398.68C368.18 394.38 370.92 390.59 374.05 387.34C367.32 372.41 367.5 353.7 376.09 336.82Z" id="c16WQ0yIEZ"></path></defs><g><g><g><use xlink:href="#b6bogwKouF" opacity="1" fill="#664545" fill-opacity="1"></use></g><g><use xlink:href="#dII2LdE4c" opacity="1" fill="#c8c6c6" fill-opacity="1"></use></g><g><use xlink:href="#c4UnvF28F" opacity="1" fill="#924a4a" fill-opacity="1"></use><g><use xlink:href="#c4UnvF28F" opacity="1" fill-opacity="0" stroke="#000000" stroke-width="1" stroke-opacity="0"></use></g></g><g><use xlink:href="#c16WQ0yIEZ" opacity="1" fill="#c8c6c6" fill-opacity="1"></use></g></g></g></svg>