<?xml version="1.0" encoding="UTF-8" standalone="no"?>
<svg
   xmlns:dc="http://purl.org/dc/elements/1.1/"
   xmlns:cc="http://creativecommons.org/ns#"
   xmlns:rdf="http://www.w3.org/1999/02/22-rdf-syntax-ns#"
   xmlns:svg="http://www.w3.org/2000/svg"
   xmlns="http://www.w3.org/2000/svg"
   xmlns:xlink="http://www.w3.org/1999/xlink"
   xmlns:sodipodi="http://sodipodi.sourceforge.net/DTD/sodipodi-0.dtd"
   xmlns:inkscape="http://www.inkscape.org/namespaces/inkscape"
   version="1.1"
   preserveAspectRatio="xMidYMid meet"
   viewBox="0 0 640 640"
   width="64"
   height="64"
   id="svg37"
   sodipodi:docname="vpaint.svg"
   inkscape:version="0.92.4 5da689c313, 2019-01-14">
  <metadata
     id="metadata41">
    <rdf:RDF>
      <cc:Work
         rdf:about="">
        <dc:format>image/svg+xml</dc:format>
        <dc:type
           rdf:resource="http://purl.org/dc/dcmitype/StillImage" />
      </cc:Work>
    </rdf:RDF>
  </metadata>
  <sodipodi:namedview
     pagecolor="#ffffff"
     bordercolor="#666666"
     borderopacity="1"
     objecttolerance="10"
     gridtolerance="10"
     guidetolerance="10"
     inkscape:pageopacity="0"
     inkscape:pageshadow="2"
     inkscape:window-width="1850"
     inkscape:window-height="1048"
     id="namedview39"
     showgrid="false"
     inkscape:zoom="3.6875"
     inkscape:cx="32"
     inkscape:cy="32"
     inkscape:window-x="70"
     inkscape:window-y="32"
     inkscape:window-maximized="1"
     inkscape:current-layer="svg37" />
  <defs
     id="defs7">
    <path
       d="M591.35 328.43C591.35 478.19 469.76 599.78 320 599.78C170.24 599.78 48.65 478.19 48.65 328.43C48.65 178.67 170.24 57.08 320 57.08C469.76 57.08 591.35 178.67 591.35 328.43Z"
       id="b1rFYhcbwD" />
    <path
       d="M336.87 540.21L404.37 484.65L518.2 272.5L464.29 241.16L349.17 452.41L336.87 540.21Z"
       id="d1e1pY6BSY" />
    <path
       d="M109.77 182.19L180.4 194.06L333.5 544.17L262.87 533.12L109.77 182.19Z"
       id="b2P7oiNXE2" />
    <path
       d="M349.7 435.42L421.3 474.4L415.08 485.83L343.47 446.85L349.7 435.42Z"
       id="b45hR3xju" />
    <path
       d="M490.25 199.33L542.2 229.98L523.16 262.26L471.21 231.61L490.25 199.33Z"
       id="d2F6hJEGvC" />
  </defs>
  <g
     id="g35"
     transform="matrix(1.1499096,0,0,1.1499096,-50.682932,-51.94667)">
    <g
       id="g33">
      <g
         id="g11">
        <use
           xlink:href="#b1rFYhcbwD"
           id="use9"
           style="opacity:1;fill:#9abace;fill-opacity:1"
           x="0"
           y="0"
           width="100%"
           height="100%" />
      </g>
      <g
         id="g19">
        <use
           xlink:href="#d1e1pY6BSY"
           id="use13"
           style="opacity:1;fill:#e1eded;fill-opacity:1"
           x="0"
           y="0"
           width="100%"
           height="100%" />
        <g
           id="g17">
          <use
             xlink:href="#d1e1pY6BSY"
             id="use15"
             style="opacity:1;fill-opacity:0;stroke:#000000;stroke-width:1;stroke-opacity:0"
             x="0"
             y="0"
             width="100%"
             height="100%" />
        </g>
      </g>
      <g
         id="g23">
        <use
           xlink:href="#b2P7oiNXE2"
           id="use21"
           style="opacity:1;fill:#e1eded;fill-opacity:1"
           x="0"
           y="0"
           width="100%"
           height="100%" />
      </g>
      <g
         id="g27">
        <use
           xlink:href="#b45hR3xju"
           id="use25"
           style="opacity:1;fill:#9abace;fill-opacity:1"
           x="0"
           y="0"
           width="100%"
           height="100%" />
      </g>
      <g
         id="g31">
        <use
           xlink:href="#d2F6hJEGvC"
           id="use29"
           style="opacity:1;fill:#e1eded;fill-opacity:1"
           x="0"
           y="0"
           width="100%"
           height="100%" />
      </g>
    </g>
  </g>
</svg>
