<?xml version="1.0" encoding="UTF-8" standalone="no"?>
<!DOCTYPE svg PUBLIC "-//W3C//DTD SVG 1.1//EN" "http://www.w3.org/Graphics/SVG/1.1/DTD/svg11.dtd">
<svg version="1.1" xmlns="http://www.w3.org/2000/svg" xmlns:xlink="http://www.w3.org/1999/xlink" preserveAspectRatio="xMidYMid meet" viewBox="0 0 640 640" width="64" height="64"><defs><path d="M603.77 17.65C614.96 17.65 624.03 26.73 624.03 37.92C624.03 154.58 624.03 484.3 624.03 600.96C624.03 612.15 614.96 621.22 603.77 621.22C486.43 621.22 154.69 621.22 37.36 621.22C26.16 621.22 17.09 612.15 17.09 600.96C17.09 484.3 17.09 154.58 17.09 37.92C17.09 26.73 26.16 17.65 37.36 17.65C154.69 17.65 486.43 17.65 603.77 17.65Z" id="e104ySpbur"></path><path d="M93.52 91.83L172.2 91.83L172.2 552.66L93.52 552.66L93.52 91.83Z" id="c5suIE9HG"></path><path d="M466.45 91.83L545.12 91.83L545.12 552.66L466.45 552.66L466.45 91.83Z" id="c3ZbC6M8f"></path><path d="M48.56 91.83L126.12 91.83L126.12 228.96L48.56 228.96L48.56 91.83Z" id="c4s8jiaRF"></path><path d="M512.53 91.83L590.08 91.83L590.08 228.96L512.53 228.96L512.53 91.83Z" id="cZqo0vz63"></path><path d="M254.25 91.83L377.88 91.83L377.88 458.25L254.25 458.25L254.25 91.83Z" id="bnnsKScAk"></path><path d="M198.19 449.65L433.94 449.25L317.99 567.31L198.19 449.65Z" id="a4Sdm2xAaT"></path></defs><g><g><g><use xlink:href="#e104ySpbur" opacity="1" fill="#6d7da5" fill-opacity="1"></use></g><g><use xlink:href="#c5suIE9HG" opacity="1" fill="#bec2cb" fill-opacity="1"></use></g><g><use xlink:href="#c3ZbC6M8f" opacity="1" fill="#bec2cb" fill-opacity="1"></use></g><g><use xlink:href="#c4s8jiaRF" opacity="1" fill="#bec2cb" fill-opacity="1"></use></g><g><use xlink:href="#cZqo0vz63" opacity="1" fill="#bec2cb" fill-opacity="1"></use></g><g><use xlink:href="#bnnsKScAk" opacity="1" fill="#bec2cb" fill-opacity="1"></use></g><g><use xlink:href="#a4Sdm2xAaT" opacity="1" fill="#bec2cb" fill-opacity="1"></use></g></g></g></svg>