<?xml version="1.0" encoding="UTF-8" standalone="no"?>
<svg
   xmlns:dc="http://purl.org/dc/elements/1.1/"
   xmlns:cc="http://creativecommons.org/ns#"
   xmlns:rdf="http://www.w3.org/1999/02/22-rdf-syntax-ns#"
   xmlns:svg="http://www.w3.org/2000/svg"
   xmlns="http://www.w3.org/2000/svg"
   xmlns:sodipodi="http://sodipodi.sourceforge.net/DTD/sodipodi-0.dtd"
   xmlns:inkscape="http://www.inkscape.org/namespaces/inkscape"
   height="48"
   width="48"
   version="1.1"
   id="svg6"
   sodipodi:docname="webapp-manager.svg"
   inkscape:version="1.0.2 (e86c870879, 2021-01-15)">
  <metadata
     id="metadata12">
    <rdf:RDF>
      <cc:Work
         rdf:about="">
        <dc:format>image/svg+xml</dc:format>
        <dc:type
           rdf:resource="http://purl.org/dc/dcmitype/StillImage" />
        <dc:title></dc:title>
      </cc:Work>
    </rdf:RDF>
  </metadata>
  <defs
     id="defs10" />
  <sodipodi:namedview
     pagecolor="#ffffff"
     bordercolor="#666666"
     borderopacity="1"
     objecttolerance="10"
     gridtolerance="10"
     guidetolerance="10"
     inkscape:pageopacity="0"
     inkscape:pageshadow="2"
     inkscape:window-width="1920"
     inkscape:window-height="1024"
     id="namedview8"
     showgrid="false"
     inkscape:zoom="3.3440257"
     inkscape:cx="-37.788729"
     inkscape:cy="21.028286"
     inkscape:window-x="0"
     inkscape:window-y="24"
     inkscape:window-maximized="1"
     inkscape:current-layer="svg6"
     inkscape:document-rotation="0" />
  <circle
     cx="23.940615"
     cy="31.534513"
     fill="#74a2f3"
     opacity=".99"
     id="circle2"
     style="fill:#85a8c7;fill-opacity:0.99607831"
     transform="matrix(1.75830584759 0 0 1.75830608345 -18.15909274367 -30.97874795549)"
     r="13.232998" />
  <path
     id="circle937"
     style="opacity:0.99;fill:#eee0a2;fill-opacity:0.9921568"
     transform="matrix(1.7583058,0,0,1.7583061,-18.159093,-30.978748)"
     d="m 37.173613,31.534513 c 0,1.827096 -0.370288,3.567706 -1.039915,5.15088 -0.669626,1.583174 -1.63859,3.008912 -2.83594,4.206263 -2.394702,2.394701 -5.702952,3.875855 -9.357143,3.875855 -1.827096,0 -3.567706,-0.370288 -5.15088,-1.039915 -1.583174,-0.669626 -3.008913,-1.638589 -4.206263,-2.83594 -1.19735,-1.197351 -2.166314,-2.623089 -2.83594,-4.206263 z"
     sodipodi:nodetypes="cssssscc" />
  <circle
     style="fill:#b560c8;fill-opacity:1;stroke-width:0.196535;stroke-linecap:round;stroke-linejoin:round;stroke:none"
     id="path843"
     cx="12.637055"
     cy="37.27837"
     r="5.4436469" />
  <path
     id="path855"
     style="fill:#d49281;stroke:none;stroke-width:1px;stroke-linecap:butt;stroke-linejoin:miter;stroke-opacity:1;fill-opacity:0.9921568"
     d="M 37.867188 26.359375 L 2.4960938 33.525391 C 3.673501 36.309095 5.3771144 38.816565 7.4824219 40.921875 C 9.5877293 43.027185 12.095202 44.730796 14.878906 45.908203 C 17.66261 47.085612 20.722953 47.736328 23.935547 47.736328 C 26.993718 47.736328 29.910981 47.140731 32.585938 46.068359 L 37.867188 26.359375 z " />
  <path
     id="path853"
     style="fill:#98d0af;stroke:none;stroke-width:1px;stroke-linecap:butt;stroke-linejoin:miter;stroke-opacity:1;fill-opacity:0.9921568"
     d="M 27.914062 28.376953 L 2.4960938 33.525391 C 3.673501 36.309095 5.3771144 38.816565 7.4824219 40.921875 C 9.5877293 43.027185 12.095202 44.730796 14.878906 45.908203 C 17.313504 46.937952 19.95975 47.563969 22.734375 47.705078 L 27.914062 28.376953 z " />
  <path
     id="path851"
     style="fill:#b571c8;stroke:none;stroke-width:1px;stroke-linecap:butt;stroke-linejoin:miter;stroke-opacity:1;fill-opacity:1"
     d="M 17.123047 30.5625 L 2.4960938 33.525391 C 3.673501 36.309095 5.3771144 38.816565 7.4824219 40.921875 C 9.1600145 42.599469 11.096267 44.016582 13.220703 45.121094 L 17.123047 30.5625 z " />
  <path
     id="circle866"
     style="fill:#91a7bb;fill-opacity:1;stroke-width:1.75831"
     d="M 23.892578 1.2011719 A 23.267658 23.267661 0 0 0 0.66796875 24.46875 A 23.267658 23.267661 0 0 0 6.234375 39.568359 L 46.117188 31.490234 A 23.267658 23.267661 0 0 0 47.203125 24.46875 A 23.267658 23.267661 0 0 0 23.935547 1.2011719 A 23.267658 23.267661 0 0 0 23.892578 1.2011719 z " />
  <path
     sodipodi:nodetypes="csscscccsscccccsssscccsscsscsscsscscccccccs"
     inkscape:connector-curvature="0"
     id="path3852"
     d="m 25.191888,9.1694015 c -1.152389,-0.0026 -2.107432,0.196306 -3.033986,0.661667 -0.858525,0.4311965 -1.901672,1.2882425 -2.420734,1.9688615 -0.877707,1.150882 -0.843676,1.118222 -1.258782,0.952157 -1.308839,-0.523593 -2.815099,-0.613746 -4.018417,-0.242074 -2.227322,0.687945 -3.826282,2.829937 -3.921589,5.26106 -0.01534,0.391447 -0.05392,0.753864 -0.09683,0.823048 -0.04292,0.06917 -0.324299,0.185451 -0.6132517,0.258212 -1.3691585,0.344753 -2.4483168,1.221734 -3.0178477,2.436872 -0.2701684,0.57641 -0.3066269,0.775709 -0.3066269,1.936588 0,1.220498 0.015624,1.311247 0.3550415,2.00114 0.590229,1.19986 2.2270731,2.549837 3.7763438,2.549837 h 3.001709 c -0.0085,-0.09034 -0.0711,-0.258724 -0.161374,-0.435733 -0.319403,-0.626077 -0.548363,-1.721024 -0.548699,-2.614391 -10e-4,-2.454509 1.469565,-4.365904 4.002279,-5.196506 0.818051,-0.268277 1.016707,-0.392824 1.016707,-0.62939 0,-0.333452 0.607391,-1.68466 1.081262,-2.404596 0.664693,-1.009835 1.535445,-1.784155 2.630531,-2.323905 2.741097,-1.35104 5.964269,-0.910618 7.940004,1.065123 l 0.710082,0.693945 0.758498,-0.193658 c 0.422369,-0.110088 0.912446,-0.20626 1.081259,-0.209798 0.386828,-0.0081 0.408647,-0.29256 0.0807,-1.274919 C 31.201727,11.178319 28.412719,9.1773035 25.1919,9.1694035 Z m -0.209799,5.5192715 c -1.365494,-0.0073 -1.937463,0.128402 -3.066262,0.693944 -1.078555,0.540349 -2.085373,1.852919 -2.630529,3.437442 -0.120001,0.34879 -0.225935,0.739339 -0.225935,0.871461 0,0.421071 -0.256311,0.605201 -1.081263,0.774634 -1.657872,0.340511 -2.91315,1.275241 -3.389024,2.501426 -0.194123,0.500228 -0.259374,0.868369 -0.258212,1.646099 0.0037,2.432594 1.408342,4.712362 3.534268,4.712362 0.516426,0 2.604247,0.01496 10.409153,0 h 9.73135 c 1.549269,0 2.464224,-2.047706 2.565979,-3.146955 0.154623,-2.007001 -0.702875,-3.368232 -2.517564,-4.018415 l -0.629389,-0.225936 -0.0807,-0.871466 c -0.259294,-3.176775 -3.470562,-5.086703 -6.69736,-3.97 l -0.661665,0.242072 -0.758498,-0.790772 c -1.353204,-1.421141 -2.30506,-1.84548 -4.244347,-1.855896 z"
     style="display:inline;fill:#ffffff;fill-opacity:1;stroke:none;stroke-width:0.213033;enable-background:new" />
</svg>
