<?xml version="1.0" encoding="UTF-8" standalone="no"?>
<svg
   xmlns:dc="http://purl.org/dc/elements/1.1/"
   xmlns:cc="http://creativecommons.org/ns#"
   xmlns:rdf="http://www.w3.org/1999/02/22-rdf-syntax-ns#"
   xmlns:svg="http://www.w3.org/2000/svg"
   xmlns="http://www.w3.org/2000/svg"
   xmlns:xlink="http://www.w3.org/1999/xlink"
   xmlns:sodipodi="http://sodipodi.sourceforge.net/DTD/sodipodi-0.dtd"
   xmlns:inkscape="http://www.inkscape.org/namespaces/inkscape"
   version="1.1"
   preserveAspectRatio="xMidYMid meet"
   viewBox="0 0 640 640"
   width="64"
   height="64"
   id="svg68"
   sodipodi:docname="wings3d.svg"
   inkscape:version="0.92.4 5da689c313, 2019-01-14">
  <metadata
     id="metadata72">
    <rdf:RDF>
      <cc:Work
         rdf:about="">
        <dc:format>image/svg+xml</dc:format>
        <dc:type
           rdf:resource="http://purl.org/dc/dcmitype/StillImage" />
      </cc:Work>
    </rdf:RDF>
  </metadata>
  <sodipodi:namedview
     pagecolor="#ffffff"
     bordercolor="#666666"
     borderopacity="1"
     objecttolerance="10"
     gridtolerance="10"
     guidetolerance="10"
     inkscape:pageopacity="0"
     inkscape:pageshadow="2"
     inkscape:window-width="1850"
     inkscape:window-height="1048"
     id="namedview70"
     showgrid="false"
     inkscape:zoom="5.2149125"
     inkscape:cx="-8.2374983"
     inkscape:cy="47.15987"
     inkscape:window-x="70"
     inkscape:window-y="32"
     inkscape:window-maximized="1"
     inkscape:current-layer="g64" />
  <defs
     id="defs14">
    <path
       d="M561.48 61.05C574.74 60.96 585.53 71.69 585.53 84.94C585.53 183.75 585.53 460.53 585.53 560.44C585.53 570.67 577.24 578.95 567.01 578.95C466.91 578.95 185.11 578.95 85.01 578.95C74.78 578.95 66.49 570.67 66.49 560.44C66.49 461.17 66.49 183.72 66.49 84.92C66.49 73.4 75.79 64.05 87.3 63.98C186.95 63.36 462.48 61.66 561.48 61.05Z"
       id="f3sz1TtYvV" />
    <path
       d="M66.49 216.2L130.54 293.99L130.54 440.92L66.49 440.92L66.49 216.2Z"
       id="d1ErJhOIX7" />
    <path
       d="M429.69 578.95L351.99 514.8L205.06 514.6L204.97 578.64L429.69 578.95Z"
       id="b8rS2Tecw" />
    <path
       d="M264.24 379.8L264.43 440.48L128.48 440.92L128.28 380.25L264.24 379.8Z"
       id="ab4E3E1Yp" />
    <path
       d="M206.04 379.8L266.71 380.28L265.64 516.23L204.97 515.76L206.04 379.8Z"
       id="a1sG31OZzB" />
    <path
       d="M219.53 373.68L276.14 315.05L333.69 370.61L277.08 429.25L219.53 373.68Z"
       id="b1m8MkWWB" />
    <path
       d="M212.56 128.89L276.61 206.67L276.61 353.6L212.56 353.6L212.56 128.89Z"
       id="bdv6Rm5VX" />
    <path
       d="M348.56 292.93L348.12 353.6L212.17 352.61L212.61 291.94L348.56 292.93Z"
       id="ePzZXa7dg" />
    <path
       d="M287.89 296.87L348.56 296.94L348.4 432.89L287.72 432.82L287.89 296.87Z"
       id="bhmJVDImL" />
    <path
       d="M512.44 436.5L434.75 372.35L287.81 372.15L287.72 436.19L512.44 436.5Z"
       id="cqnjQFiH5" />
    <path
       d="M371.71 214.69L385.34 214.69L385.34 232.88L371.71 232.88L371.71 214.69Z"
       id="cjX2MdtdJ" />
    <path
       d="M313.78 287.42L347.31 253.69L390.34 296.46L356.81 330.19L313.78 287.42Z"
       id="a15Qhzb6L1" />
  </defs>
  <g
     id="g66"
     transform="matrix(1.1410688,0,0,1.114784,-50.057629,-36.838008)">
    <g
       id="g64">
      <g
         id="g18"
         style="stroke:#e3e2e2;stroke-opacity:1;stroke-width:17.84812078;stroke-miterlimit:4;stroke-dasharray:none">
        <use
           xlink:href="#f3sz1TtYvV"
           id="use16"
           style="opacity:1;fill:#aaaaaa;fill-opacity:1;stroke:#e3e2e2;stroke-opacity:1;stroke-width:17.84812078;stroke-miterlimit:4;stroke-dasharray:none"
           x="0"
           y="0"
           width="100%"
           height="100%" />
      </g>
      <g
         id="g22"
         transform="translate(12.65,-11.23)">
        <use
           xlink:href="#d1ErJhOIX7"
           id="use20"
           style="opacity:1;fill:#ff8d81;fill-opacity:1"
           x="0"
           y="0"
           width="100%"
           height="100%" />
      </g>
      <g
         id="g26"
         transform="translate(12.65,-11.23)">
        <use
           xlink:href="#b8rS2Tecw"
           id="use24"
           style="opacity:1;fill:#ff8d81;fill-opacity:1"
           x="0"
           y="0"
           width="100%"
           height="100%" />
      </g>
      <g
         id="g30"
         transform="translate(12.65,-11.23)">
        <use
           xlink:href="#ab4E3E1Yp"
           id="use28"
           style="opacity:1;fill:#ff8d81;fill-opacity:1"
           x="0"
           y="0"
           width="100%"
           height="100%" />
      </g>
      <g
         id="g34"
         transform="translate(12.65,-11.23)">
        <use
           xlink:href="#a1sG31OZzB"
           id="use32"
           style="opacity:1;fill:#ff8d81;fill-opacity:1"
           x="0"
           y="0"
           width="100%"
           height="100%" />
      </g>
      <g
         id="g38">
        <use
           xlink:href="#b1m8MkWWB"
           id="use36"
           style="opacity:1;fill:#aaaaaa;fill-opacity:1"
           x="0"
           y="0"
           width="100%"
           height="100%" />
      </g>
      <g
         id="g42">
        <use
           xlink:href="#bdv6Rm5VX"
           id="use40"
           style="opacity:1;fill:#e3e2e2;fill-opacity:1"
           x="0"
           y="0"
           width="100%"
           height="100%" />
      </g>
      <g
         id="g46">
        <use
           xlink:href="#ePzZXa7dg"
           id="use44"
           style="opacity:1;fill:#e3e2e2;fill-opacity:1"
           x="0"
           y="0"
           width="100%"
           height="100%" />
      </g>
      <g
         id="g50">
        <use
           xlink:href="#bhmJVDImL"
           id="use48"
           style="opacity:1;fill:#e3e2e2;fill-opacity:1"
           x="0"
           y="0"
           width="100%"
           height="100%" />
      </g>
      <g
         id="g54">
        <use
           xlink:href="#cqnjQFiH5"
           id="use52"
           style="opacity:1;fill:#e3e2e2;fill-opacity:1"
           x="0"
           y="0"
           width="100%"
           height="100%" />
      </g>
      <g
         id="g58">
        <use
           xlink:href="#cjX2MdtdJ"
           id="use56"
           style="opacity:1;fill:#aaaaaa;fill-opacity:1"
           x="0"
           y="0"
           width="100%"
           height="100%" />
      </g>
      <g
         id="g62">
        <use
           xlink:href="#a15Qhzb6L1"
           id="use60"
           style="opacity:1;fill:#aaaaaa;fill-opacity:1"
           x="0"
           y="0"
           width="100%"
           height="100%" />
      </g>
    </g>
  </g>
</svg>
