<?xml version="1.0" encoding="UTF-8" standalone="no"?>
<svg
   xmlns:dc="http://purl.org/dc/elements/1.1/"
   xmlns:cc="http://creativecommons.org/ns#"
   xmlns:rdf="http://www.w3.org/1999/02/22-rdf-syntax-ns#"
   xmlns:svg="http://www.w3.org/2000/svg"
   xmlns="http://www.w3.org/2000/svg"
   xmlns:xlink="http://www.w3.org/1999/xlink"
   xmlns:sodipodi="http://sodipodi.sourceforge.net/DTD/sodipodi-0.dtd"
   xmlns:inkscape="http://www.inkscape.org/namespaces/inkscape"
   version="1.1"
   preserveAspectRatio="xMidYMid meet"
   viewBox="0 0 640 640"
   width="64"
   height="64"
   id="svg49"
   sodipodi:docname="write_stylus.svg"
   inkscape:version="1.0.1 (3bc2e813f5, 2020-09-07)">
  <metadata
     id="metadata53">
    <rdf:RDF>
      <cc:Work
         rdf:about="">
        <dc:format>image/svg+xml</dc:format>
        <dc:type
           rdf:resource="http://purl.org/dc/dcmitype/StillImage" />
      </cc:Work>
    </rdf:RDF>
  </metadata>
  <sodipodi:namedview
     pagecolor="#ffffff"
     bordercolor="#666666"
     borderopacity="1"
     objecttolerance="10"
     gridtolerance="10"
     guidetolerance="10"
     inkscape:pageopacity="0"
     inkscape:pageshadow="2"
     inkscape:window-width="1850"
     inkscape:window-height="1048"
     id="namedview51"
     showgrid="false"
     inkscape:zoom="6.46875"
     inkscape:cx="28.248402"
     inkscape:cy="29.829274"
     inkscape:window-x="70"
     inkscape:window-y="32"
     inkscape:window-maximized="1"
     inkscape:current-layer="g45" />
  <defs
     id="defs7">
    <path
       d="M46.88 48.75L596.88 48.75L596.88 596.25L46.88 596.25L46.88 48.75Z"
       id="a4NzOLdY2d" />
    <path
       d="M459.26 181.88C478.05 161 474.18 130.55 450.59 113.9C450.5 113.84 449.81 113.33 449.72 113.27C426.18 96.62 391.84 100.07 373.05 120.99C372.14 122.01 367.58 127.09 359.39 136.22L445.55 197.15C453.78 187.99 458.35 182.89 459.26 181.88Z"
       id="clHIKt7xl" />
    <path
       d="M372.27 330.91C379.34 335.91 389.67 334.92 395.32 328.65C404.76 318.18 480.28 234.44 489.72 223.97C495.47 217.61 494.19 208.27 486.81 203.31C479.69 198.53 469.46 199.88 463.86 206.06C463.25 206.74 460.18 210.14 454.65 216.26L438.88 205.07L438.93 205.02L352.93 143.89L132.89 387.76L218.94 448.85L418.47 227.76L434.25 238.95C395.53 281.86 374.02 305.7 369.72 310.47C366.87 313.58 365.75 317.46 366.21 321.16C366.67 324.86 368.75 328.38 372.27 330.91Z"
       id="dajkDiRP" />
    <path
       d="M128.71 397.55C127.42 401.55 126.78 405.05 126.78 405.05C124.96 412.9 110.47 475.67 108.66 483.52C107.37 489.17 113.72 493.8 119.53 491.37C127.6 488.05 192.17 461.48 200.24 458.15C200.19 458.15 203.76 456.81 207.79 454.83C191.97 443.38 136.62 403.28 128.71 397.55Z"
       id="a8dWHCkra" />
    <path
       d="M499.79 538.41C487.21 538.81 386.58 542.06 374 542.46C367.55 542.66 363.6 536.08 367.45 531.51C369.53 529.1 371.57 526.64 373.61 524.19C379 517.66 373.32 507.91 364.39 507.18C363.78 507.13 363.17 507.12 362.5 507.16C351.5 507.71 296.47 510.49 197.41 515.49L177.67 516.5C145.36 518.13 127.42 519.04 123.83 519.22C117.73 519.54 113.3 523.74 113.36 529.23C113.36 531.67 114.29 534.06 115.92 535.91C117.84 538.11 120.63 539.47 123.78 539.73C124.39 539.78 125 539.78 125.67 539.75C145.34 538.75 302.77 530.8 322.45 529.8C329.17 529.45 333.19 536.48 328.88 541.02C327.49 542.44 326.09 543.91 324.7 545.34C320.85 549.27 321.08 556.4 324.84 560.38C326.76 562.44 329.32 563.64 332.11 563.87C332.41 563.9 332.77 563.93 333.07 563.91C333.08 563.91 333.09 563.91 333.13 563.91L333.18 563.91L502.76 558.75L502.81 558.76C502.84 558.76 502.86 558.76 502.86 558.76C505.79 558.59 508.44 557.32 510.31 555.16C512.34 552.8 513.25 549.75 512.67 546.89C511.73 542.24 507.51 538.91 501.88 538.44C501.17 538.39 500.51 538.38 499.79 538.41Z"
       id="avQG7xW2K" />
  </defs>
  <g
     id="g47">
    <g
       id="g45">
      <rect
         style="fill:#d7d7f4;fill-rule:evenodd;stroke-width:65.6789;stroke-linecap:square;paint-order:stroke markers fill"
         id="rect878"
         width="580.40375"
         height="585.87988"
         x="32.754948"
         y="23.679045"
         ry="67.634644" />
      <g
         id="g19"
         style="fill:#8787de">
        <use
           xlink:href="#clHIKt7xl"
           opacity="1"
           fill="#353535"
           fill-opacity="1"
           id="use13"
           style="fill:#8787de" />
        <g
           id="g17"
           style="fill:#8787de">
          <use
             xlink:href="#clHIKt7xl"
             opacity="1"
             fill-opacity="0"
             stroke="#000000"
             stroke-width="1"
             stroke-opacity="0"
             id="use15"
             style="fill:#8787de" />
        </g>
      </g>
      <g
         id="g27"
         style="fill:#8787de">
        <use
           xlink:href="#dajkDiRP"
           opacity="1"
           fill="#353535"
           fill-opacity="1"
           id="use21"
           style="fill:#8787de" />
        <g
           id="g25"
           style="fill:#8787de">
          <use
             xlink:href="#dajkDiRP"
             opacity="1"
             fill-opacity="0"
             stroke="#000000"
             stroke-width="1"
             stroke-opacity="0"
             id="use23"
             style="fill:#8787de" />
        </g>
      </g>
      <g
         id="g35"
         style="fill:#5f5fd3">
        <use
           xlink:href="#a8dWHCkra"
           opacity="1"
           fill="#353535"
           fill-opacity="1"
           id="use29"
           style="fill:#5f5fd3" />
        <g
           id="g33"
           style="fill:#5f5fd3">
          <use
             xlink:href="#a8dWHCkra"
             opacity="1"
             fill-opacity="0"
             stroke="#000000"
             stroke-width="1"
             stroke-opacity="0"
             id="use31"
             style="fill:#5f5fd3" />
        </g>
      </g>
      <g
         id="g43"
         style="fill:#5f5fd3">
        <use
           xlink:href="#avQG7xW2K"
           opacity="1"
           fill="#353535"
           fill-opacity="1"
           id="use37"
           style="fill:#5f5fd3" />
        <g
           id="g41"
           style="fill:#5f5fd3">
          <use
             xlink:href="#avQG7xW2K"
             opacity="1"
             fill-opacity="0"
             stroke="#000000"
             stroke-width="1"
             stroke-opacity="0"
             id="use39"
             style="fill:#5f5fd3" />
        </g>
      </g>
    </g>
  </g>
</svg>
