<?xml version="1.0" encoding="UTF-8" standalone="no"?>
<svg
   xmlns:dc="http://purl.org/dc/elements/1.1/"
   xmlns:cc="http://creativecommons.org/ns#"
   xmlns:rdf="http://www.w3.org/1999/02/22-rdf-syntax-ns#"
   xmlns:svg="http://www.w3.org/2000/svg"
   xmlns="http://www.w3.org/2000/svg"
   xmlns:sodipodi="http://sodipodi.sourceforge.net/DTD/sodipodi-0.dtd"
   xmlns:inkscape="http://www.inkscape.org/namespaces/inkscape"
   height="48"
   width="48"
   version="1.1"
   id="svg18"
   sodipodi:docname="x-tile.svg"
   inkscape:version="1.0.2 (e86c870879, 2021-01-15)">
  <metadata
     id="metadata24">
    <rdf:RDF>
      <cc:Work
         rdf:about="">
        <dc:format>image/svg+xml</dc:format>
        <dc:type
           rdf:resource="http://purl.org/dc/dcmitype/StillImage" />
        <dc:title></dc:title>
      </cc:Work>
    </rdf:RDF>
  </metadata>
  <defs
     id="defs22" />
  <sodipodi:namedview
     pagecolor="#ffffff"
     bordercolor="#666666"
     borderopacity="1"
     objecttolerance="10"
     gridtolerance="10"
     guidetolerance="10"
     inkscape:pageopacity="0"
     inkscape:pageshadow="2"
     inkscape:window-width="1920"
     inkscape:window-height="1028"
     id="namedview20"
     showgrid="false"
     inkscape:zoom="6.6880516"
     inkscape:cx="-15.631962"
     inkscape:cy="17.432134"
     inkscape:window-x="0"
     inkscape:window-y="24"
     inkscape:window-maximized="1"
     inkscape:current-layer="svg18" />
  <rect
     fill="#9c6a9b"
     height="43"
     ry="1.452703"
     width="43"
     x="2"
     y="3"
     id="rect2"
     style="fill:#a297a2;fill-opacity:1" />
  <rect
     style="fill:#d0e2e8;fill-opacity:1;stroke-width:1.13386;stroke-linecap:round;stroke-linejoin:round"
     id="rect849"
     width="14.061545"
     height="14.061545"
     x="6.0369372"
     y="8.1635132"
     rx="1.4948367"
     ry="1.4948367" />
  <path
     id="rect851"
     style="fill:#a5bcc4;fill-opacity:1;stroke-width:1.13386;stroke-linecap:round;stroke-linejoin:round"
     d="m 7.5319866,8.1640625 c -0.8281395,0 -1.4941406,0.6660011 -1.4941406,1.4941406 v 0.7734379 0.208984 1.494141 h 1.4941406 11.0722654 1.49414 V 10.640625 10.431641 9.6582031 c 0,-0.8281395 -0.666001,-1.4941406 -1.49414,-1.4941406 z" />
  <rect
     style="fill:#bbd6c5;fill-opacity:1;stroke-width:1.13386;stroke-linecap:round;stroke-linejoin:round"
     id="rect856"
     width="14.061545"
     height="14.061545"
     x="26.791145"
     y="8.4099197"
     rx="1.4948367"
     ry="1.4948367" />
  <path
     id="path858"
     style="fill:#a3c1ae;fill-opacity:1;stroke-width:1.13386;stroke-linecap:round;stroke-linejoin:round"
     d="m 28.286195,8.4104696 c -0.828139,0 -1.494141,0.666001 -1.494141,1.49414 v 0.7734384 0.208984 1.494141 h 1.494141 11.072266 1.49414 V 10.887032 10.678048 9.9046096 c 0,-0.828139 -0.666001,-1.49414 -1.49414,-1.49414 z" />
  <rect
     style="fill:#cbafcb;fill-opacity:1;stroke-width:1.13386;stroke-linecap:round;stroke-linejoin:round"
     id="rect860"
     width="14.061545"
     height="14.061545"
     x="6.8759413"
     y="28.946898"
     rx="1.4948367"
     ry="1.4948367" />
  <path
     id="path862"
     style="fill:#b090b0;fill-opacity:1;stroke-width:1.13386;stroke-linecap:round;stroke-linejoin:round"
     d="m 8.3709904,28.947447 c -0.828139,0 -1.494141,0.666001 -1.494141,1.49414 v 0.773438 0.208984 1.494141 h 1.494141 11.0722656 1.49414 v -1.494141 -0.208984 -0.773438 c 0,-0.828139 -0.666001,-1.49414 -1.49414,-1.49414 z" />
  <rect
     style="fill:#f0e5ae;fill-opacity:1;stroke-width:1.13386;stroke-linecap:round;stroke-linejoin:round"
     id="rect860-3"
     width="14.061545"
     height="14.061545"
     x="25.664604"
     y="28.167219"
     rx="1.4948367"
     ry="1.4948367" />
  <path
     id="path862-6"
     style="fill:#e5d197;fill-opacity:1;stroke-width:1.13386;stroke-linecap:round;stroke-linejoin:round"
     d="m 27.159653,28.167769 c -0.828139,0 -1.494141,0.666001 -1.494141,1.49414 v 0.773438 0.208984 1.494141 h 1.494141 11.072266 1.49414 v -1.494141 -0.208984 -0.773438 c 0,-0.828139 -0.666001,-1.49414 -1.49414,-1.49414 z" />
  <path
     style="fill:#ffffff;fill-opacity:1;stroke-width:0.67811"
     d="m 10.411909,14.402245 v 1.669194 l 3.724045,0.496246 7.448092,8.797099 -8.003918,8.706874 -3.168218,0.360905 v 1.669194 h 10.849756 v -1.669194 l -3.512833,-0.315792 -0.277912,-0.541361 5.669444,-6.541431 5.169195,6.721884 -0.277914,0.360908 -2.701322,0.315792 v 1.669194 h 12.205975 v -1.669194 l -3.334964,-0.360905 -8.170669,-9.654254 7.336927,-7.894832 2.812487,-0.451133 v -1.669194 h -9.493536 v 1.669194 l 2.456759,0.27068 0.444662,0.586473 -5.058033,5.774506 -4.668951,-5.909847 0.277911,-0.451132 2.478993,-0.27068 v -1.669194 z"
     id="path24" />
</svg>
