<?xml version="1.0" encoding="UTF-8" standalone="no"?>
<svg
   xmlns:dc="http://purl.org/dc/elements/1.1/"
   xmlns:cc="http://creativecommons.org/ns#"
   xmlns:rdf="http://www.w3.org/1999/02/22-rdf-syntax-ns#"
   xmlns:svg="http://www.w3.org/2000/svg"
   xmlns="http://www.w3.org/2000/svg"
   xmlns:xlink="http://www.w3.org/1999/xlink"
   xmlns:sodipodi="http://sodipodi.sourceforge.net/DTD/sodipodi-0.dtd"
   xmlns:inkscape="http://www.inkscape.org/namespaces/inkscape"
   version="1.1"
   preserveAspectRatio="xMidYMid meet"
   viewBox="0 0 640 640"
   width="64"
   height="64"
   id="svg48"
   sodipodi:docname="xaos4.svg"
   inkscape:version="0.92.4 5da689c313, 2019-01-14">
  <metadata
     id="metadata52">
    <rdf:RDF>
      <cc:Work
         rdf:about="">
        <dc:format>image/svg+xml</dc:format>
        <dc:type
           rdf:resource="http://purl.org/dc/dcmitype/StillImage" />
      </cc:Work>
    </rdf:RDF>
  </metadata>
  <sodipodi:namedview
     pagecolor="#ffffff"
     bordercolor="#666666"
     borderopacity="1"
     objecttolerance="10"
     gridtolerance="10"
     guidetolerance="10"
     inkscape:pageopacity="0"
     inkscape:pageshadow="2"
     inkscape:window-width="1850"
     inkscape:window-height="1048"
     id="namedview50"
     showgrid="false"
     inkscape:zoom="3.6875"
     inkscape:cx="32"
     inkscape:cy="32"
     inkscape:window-x="70"
     inkscape:window-y="32"
     inkscape:window-maximized="1"
     inkscape:current-layer="svg48" />
  <defs
     id="defs10">
    <path
       d="M605.57 21.69C616.06 21.69 624.57 30.19 624.57 40.68C624.57 157.78 624.57 492.22 624.57 609.86C624.57 618.87 617.26 626.18 608.25 626.18C489.71 626.18 151.09 626.18 32.72 626.18C23.26 626.18 15.58 618.5 15.58 609.03C15.58 491.56 15.58 157.78 15.58 40.68C15.58 30.19 24.08 21.69 34.57 21.69C152.57 21.69 487.57 21.69 605.57 21.69Z"
       id="bDw4k5eQO" />
    <path
       d="M28.99 40.22L611.01 40.22L611.01 611.01L28.99 611.01L28.99 40.22Z"
       id="fj3CDLjoC" />
    <path
       d="M616.63 617.75L22.25 614.38L318.51 40.22L616.63 617.75Z"
       id="g1upcann6v" />
    <path
       d="M595.08 608.45L39.94 608.45L319.44 70.34L595.08 608.45Z"
       id="c1h4K7HjrL" />
    <path
       d="M286.93 262.77L256.4 201.61L320.61 203.28L384.81 204.95L351.14 264.44L317.46 323.93L286.93 262.77Z"
       id="c3DmBycLQJ" />
    <path
       d="M251.9 468.13L189.12 335.03L319.44 337.38L449.76 339.74L382.22 470.49L314.68 601.23L251.9 468.13Z"
       id="c1rDZvmp0" />
    <path
       d="M146.26 540.07L115.73 478.91L179.93 480.58L244.13 482.26L210.46 541.75L176.79 601.23L146.26 540.07Z"
       id="b6WM4wE8eJ" />
    <path
       d="M423.56 540.07L393.03 478.91L457.24 480.58L521.43 482.26L487.77 541.75L454.09 601.23L423.56 540.07Z"
       id="aa3tEjq77" />
  </defs>
  <g
     id="g46"
     transform="matrix(0.95962418,0,0,0.95962418,14.188377,9.0113448)">
    <g
       id="g44">
      <g
         id="g14">
        <use
           xlink:href="#bDw4k5eQO"
           id="use12"
           style="opacity:1;fill:#626466;fill-opacity:1"
           x="0"
           y="0"
           width="100%"
           height="100%" />
      </g>
      <g
         id="g18">
        <use
           xlink:href="#fj3CDLjoC"
           id="use16"
           style="opacity:1;fill:#a8a8aa;fill-opacity:1"
           x="0"
           y="0"
           width="100%"
           height="100%" />
      </g>
      <g
         id="g22">
        <use
           xlink:href="#g1upcann6v"
           id="use20"
           style="opacity:1;fill:#626466;fill-opacity:1"
           x="0"
           y="0"
           width="100%"
           height="100%" />
      </g>
      <g
         id="g26">
        <use
           xlink:href="#c1h4K7HjrL"
           id="use24"
           style="opacity:1;fill:#cacacb;fill-opacity:1"
           x="0"
           y="0"
           width="100%"
           height="100%" />
      </g>
      <g
         id="g30">
        <use
           xlink:href="#c3DmBycLQJ"
           id="use28"
           style="opacity:1;fill:#626466;fill-opacity:1"
           x="0"
           y="0"
           width="100%"
           height="100%" />
      </g>
      <g
         id="g34">
        <use
           xlink:href="#c1rDZvmp0"
           id="use32"
           style="opacity:1;fill:#626466;fill-opacity:1"
           x="0"
           y="0"
           width="100%"
           height="100%" />
      </g>
      <g
         id="g38">
        <use
           xlink:href="#b6WM4wE8eJ"
           id="use36"
           style="opacity:1;fill:#626466;fill-opacity:1"
           x="0"
           y="0"
           width="100%"
           height="100%" />
      </g>
      <g
         id="g42">
        <use
           xlink:href="#aa3tEjq77"
           id="use40"
           style="opacity:1;fill:#626466;fill-opacity:1"
           x="0"
           y="0"
           width="100%"
           height="100%" />
      </g>
    </g>
  </g>
</svg>
