<?xml version="1.0" encoding="UTF-8" standalone="no"?><!DOCTYPE svg PUBLIC "-//W3C//DTD SVG 1.1//EN" "http://www.w3.org/Graphics/SVG/1.1/DTD/svg11.dtd"><svg width="100%" height="100%" viewBox="0 0 1024 1024" version="1.1" xmlns="http://www.w3.org/2000/svg" xmlns:xlink="http://www.w3.org/1999/xlink" xml:space="preserve" xmlns:serif="http://www.serif.com/" style="fill-rule:evenodd;clip-rule:evenodd;stroke-linejoin:round;stroke-miterlimit:2;"><circle cx="512" cy="512" r="492.319" style="fill:#ebebeb;"/><path d="M804.248,313.308c0.107,-4.555 -3.478,-8.345 -8.031,-8.491c-63.108,-2.028 -469.728,-15.094 -531.727,-17.086c-4.433,-0.143 -8.195,3.225 -8.541,7.647c-4.396,56.086 -30.837,393.475 -35.498,452.938c-0.18,2.307 0.61,4.584 2.181,6.283c1.571,1.699 3.78,2.665 6.094,2.665l556.988,0c4.509,0 8.192,-3.598 8.298,-8.105c1.305,-55.582 8.921,-379.881 10.236,-435.851Z" style="fill:#8f979e;"/><g><circle cx="594.923" cy="371.041" r="104.305" style="fill:#b3b5b6;"/><g><path d="M623.974,270.842c38.997,11.302 68.612,44.776 74.273,85.851l-8.022,-12.569l-2.13,31.395l-7.698,-23.16l-2.761,2.435l-8.393,-6.735l-13.647,-0.964l-5.98,-3.842l-5.567,1.314l9.228,10.086l4.419,-4.032l7.082,4.996l-9.421,16.898l-13.547,6.798l-1.565,-7.159l-8.095,-7.606l-6.481,-11.444l-4.703,-2.323l13.945,24.567l8.22,11.239l13.13,-4.84l-22.924,34.433l2.016,14.132l-10.081,9.076l-0.362,6.623l-6.039,3.477l-9.769,9.505l-16.185,1.738l-3.218,-4.445l-3.928,-3.92l-1.137,-5.011l-5.016,-6.53l-0.586,-6.399l2.339,-4.46l-1.863,-10.782l-7.434,-6.515l0.616,-12.549l-5.423,0.171l-6.516,-6.385l-8.979,2.104l-11.169,0.424l-9.56,-9.106l-6.898,-14.102l4.499,-6.623l-1.261,-7.476l8.597,-11.779l7.35,-5.044l7.653,-8.283l6.391,0.063l9.386,-2.859l11.989,1.057l-1.5,5.722l8.537,2.893l6.103,5.833l2.319,-3.886l5.463,-1.992l11.105,3.857l3.282,-1.992l5.299,0.585l1.719,-4.081l-0.805,-6.589l-4.698,1.5l-7.986,-1.5l-3.406,-6.924l-4.654,1.008l2.29,3.842l-2.747,2.42l-3.456,-3.492l-1.704,-7.337l-9.371,-6.385l0.472,4.203l6.863,6.686l-4.857,5.867l-3.595,-1.928l3.943,-3.842l-7.936,-8.585l-9.058,1.407l-5.597,5.201l-8.617,6.307l-7.826,-4.125l3.759,-8.552l10.916,0.19l-0.412,-8.536l6.436,-1.679l8.283,-5.391l5.615,-6.524l1.467,6.397l11.596,-2.069l3.298,-8.045l-5.726,-0.983l-3.501,7.795l-10.494,-4.553l6.61,-6.198l5.304,-5.625l7.226,-2.055l13.915,3.901l8.11,-3.983l-1.108,-6.608l4.349,-3.595Z" style="fill:#738a9b;"/><path d="M650.044,426.235l-10.097,8.503l-0.238,5.678l-3.015,2.971l1.848,4.806l11.502,-21.958Z" style="fill:#738a9b;"/><path d="M570.688,294.071l-5.949,3.652l2.101,4.933l-3.253,3.793l8.189,-2.669l-1.088,-9.709Z" style="fill:#738a9b;"/><path d="M561.615,300.303l-3.153,3.935l5.507,-1.296l-2.354,-2.639Z" style="fill:#738a9b;"/><path d="M490.74,365.956l5.659,23.87l9.873,12.52l-1.182,11.448l4.164,16.733c-11.747,-16.878 -18.636,-37.384 -18.636,-59.486c0,-1.705 0.04,-3.4 0.122,-5.085Z" style="fill:#738a9b;"/><path d="M542.879,287.476l7.618,-7.728l16.314,-6.75l14.387,-1.489l-13.538,9.091l-24.781,6.876Z" style="fill:#738a9b;"/><path d="M563.165,289.44l6.009,-2.878l-4.073,-0.882l-1.936,3.76Z" style="fill:#738a9b;"/><path d="M597.004,275.274l-6.55,-0.677l2.24,4.095l4.31,-3.418Z" style="fill:#738a9b;"/><path d="M614.103,274.976l-3.72,2.923l4.212,3.116l-0.492,-6.039Z" style="fill:#738a9b;"/><path d="M690.781,370.767l-0.521,5.194l2.208,0.036l-1.687,-5.23Z" style="fill:#738a9b;"/></g></g><path d="M793.822,378.258c0,-2.204 -0.876,-4.317 -2.434,-5.875c-1.558,-1.559 -3.672,-2.434 -5.875,-2.434c-49.046,0 -301.027,0 -372.912,0c-11.892,0 -22.913,-6.235 -29.039,-16.428c-5.891,-9.803 -13.347,-22.209 -19.238,-32.012c-6.126,-10.193 -17.147,-16.428 -29.039,-16.428l-107.226,0c-4.589,0 -8.309,3.72 -8.309,8.309c0,56.139 0,379.427 0,435.565c0,4.589 3.72,8.309 8.309,8.309l557.454,0c4.589,0 8.309,-3.72 8.309,-8.309c0,-50.877 0,-319.82 0,-370.697Z" style="fill:#5d8bad;"/><g><rect x="468.944" y="461.881" width="75.683" height="156.755" style="fill:#ebebeb;"/><path d="M506.786,694.864l-77.485,-88.297l154.97,0l-77.485,88.297Z" style="fill:#ebebeb;"/></g></svg>