<?xml version="1.0" encoding="UTF-8" standalone="no"?><!DOCTYPE svg PUBLIC "-//W3C//DTD SVG 1.1//EN" "http://www.w3.org/Graphics/SVG/1.1/DTD/svg11.dtd"><svg width="100%" height="100%" viewBox="0 0 2138 2134" version="1.1" xmlns="http://www.w3.org/2000/svg" xmlns:xlink="http://www.w3.org/1999/xlink" xml:space="preserve" xmlns:serif="http://www.serif.com/" style="fill-rule:evenodd;clip-rule:evenodd;stroke-linecap:round;stroke-linejoin:round;stroke-miterlimit:1.5;"><rect id="xfce4-notes-plugin" x="0.278" y="0" width="2133.33" height="2133.33" style="fill:none;"/><circle cx="1066.94" cy="1066.67" r="976.222" style="fill:#ddcfbd;stroke:#ebdfd1;stroke-width:57.16px;"/><g><g><path d="M1701.45,435.106c-1.806,-27.553 -25.642,-48.457 -53.196,-46.651l-1177.15,77.157c-27.554,1.806 -48.457,25.642 -46.651,53.196l77.157,1177.15c1.806,27.553 25.642,48.457 53.196,46.651l1177.15,-77.157c27.553,-1.806 48.457,-25.642 46.651,-53.196l-77.157,-1177.15Z" style="fill:#c7c4b5;"/><path d="M1701.14,430.398c-0.786,-11.992 -6.303,-23.18 -15.339,-31.104c-9.035,-7.924 -20.848,-11.934 -32.84,-11.148c-198.113,12.986 -988.458,64.789 -1186.57,77.774c-11.992,0.786 -23.181,6.304 -31.104,15.339c-7.924,9.036 -11.934,20.849 -11.148,32.841c12.985,198.113 64.789,988.458 77.774,1186.57c0.786,11.992 6.304,23.18 15.339,31.104c9.035,7.924 20.848,11.934 32.84,11.148c131.899,-8.646 526.309,-34.497 833.683,-54.644c219.867,-14.411 386.422,-204.331 372.01,-424.198c-20.146,-307.374 -45.998,-701.784 -54.644,-833.683Z" style="fill:#fff6c3;"/></g><g><rect x="1055.03" y="467.006" width="23.827" height="70.896" style="fill:#b6b6b6;"/><path d="M1132.45,492.694c1.16,2.015 1.159,4.495 -0.005,6.508c-1.163,2.013 -3.311,3.252 -5.636,3.252c-26.611,0 -93.123,0 -119.733,0c-2.325,0 -4.473,-1.239 -5.636,-3.252c-1.164,-2.013 -1.166,-4.493 -0.005,-6.508c3.335,-5.789 7.764,-13.478 12.191,-21.162c10.983,-19.065 31.31,-30.814 53.312,-30.814c0.003,0 0.006,0 0.009,0c22.002,0 42.329,11.749 53.312,30.814c4.427,7.684 8.856,15.373 12.191,21.162Z" style="fill:#e39589;"/><path d="M1007.17,372.409c-2.045,-2.395 -2.509,-5.761 -1.19,-8.621c1.319,-2.86 4.181,-4.692 7.331,-4.692c27.348,0 79.911,0 107.259,0c3.15,0 6.012,1.832 7.331,4.692c1.319,2.86 0.855,6.226 -1.19,8.621c-5.265,6.171 -11.399,13.36 -16.174,18.956c-5.096,5.973 -12.553,9.413 -20.405,9.413c-13.013,0 -33.37,0 -46.383,0c-7.852,0 -15.309,-3.44 -20.405,-9.413c-4.775,-5.596 -10.909,-12.785 -16.174,-18.956Z" style="fill:#e39589;"/><rect x="1039.09" y="388.395" width="55.708" height="87.772" style="fill:#e39589;"/></g></g></svg>