<?xml version="1.0" encoding="UTF-8" standalone="no"?>
<svg
   xmlns:dc="http://purl.org/dc/elements/1.1/"
   xmlns:cc="http://creativecommons.org/ns#"
   xmlns:rdf="http://www.w3.org/1999/02/22-rdf-syntax-ns#"
   xmlns:svg="http://www.w3.org/2000/svg"
   xmlns="http://www.w3.org/2000/svg"
   xmlns:sodipodi="http://sodipodi.sourceforge.net/DTD/sodipodi-0.dtd"
   xmlns:inkscape="http://www.inkscape.org/namespaces/inkscape"
   height="48"
   width="48"
   version="1.1"
   id="svg10"
   sodipodi:docname="yed.svg"
   inkscape:version="1.0.2 (e86c870879, 2021-01-15)">
  <metadata
     id="metadata16">
    <rdf:RDF>
      <cc:Work
         rdf:about="">
        <dc:format>image/svg+xml</dc:format>
        <dc:type
           rdf:resource="http://purl.org/dc/dcmitype/StillImage" />
        <dc:title></dc:title>
      </cc:Work>
    </rdf:RDF>
  </metadata>
  <defs
     id="defs14" />
  <sodipodi:namedview
     pagecolor="#ffffff"
     bordercolor="#666666"
     borderopacity="1"
     objecttolerance="10"
     gridtolerance="10"
     guidetolerance="10"
     inkscape:pageopacity="0"
     inkscape:pageshadow="2"
     inkscape:window-width="1920"
     inkscape:window-height="1028"
     id="namedview12"
     showgrid="false"
     inkscape:zoom="6.6880515"
     inkscape:cx="-31.315848"
     inkscape:cy="55.742486"
     inkscape:window-x="0"
     inkscape:window-y="24"
     inkscape:window-maximized="1"
     inkscape:current-layer="svg10"
     inkscape:document-rotation="0" />
  <g
     fill="#be514c"
     opacity=".99"
     transform="matrix(1.1503549 0 0 1.1503549 -4.486125 -7.525565)"
     id="g6"
     style="fill:#85bfb3;fill-opacity:1">
    <path
       d="m44.322082 27.405077a19.729762 19.729765 0 0 1 -19.729762 19.729765 19.729762 19.729765 0 0 1 -19.7297621-19.729765 19.729762 19.729765 0 0 1 19.7297621-19.7297632 19.729762 19.729765 0 0 1 19.729762 19.7297632z"
       id="path2"
       style="fill:#85bfb3;fill-opacity:1" />
    <path
       d="m44.322082 27.405077a19.729762 19.729765 0 0 1 -19.729762 19.729765 19.729762 19.729765 0 0 1 -19.7297621-19.729765 19.729762 19.729765 0 0 1 19.7297621-19.7297632 19.729762 19.729765 0 0 1 19.729762 19.7297632z"
       id="path4"
       style="fill:#85bfb3;fill-opacity:1" />
    <path
       d="m 44.322082,27.405077 c 0,10.896448 -8.833315,19.729765 -19.729762,19.729765 V 7.6753138 c 10.896446,0 19.729761,8.8333152 19.729762,19.7297632 z"
       id="path835"
       style="fill:#daca95;fill-opacity:1"
       sodipodi:nodetypes="sccs" />
    <path
       d="m 44.322082,27.405077 c 0,10.896448 -8.833315,19.729765 -19.729762,19.729765 -10.896447,0 -19.7297621,-8.833317 -19.7297621,-19.729765 z"
       id="path833"
       style="fill:#84b8de;fill-opacity:1"
       sodipodi:nodetypes="cscc" />
  </g>
  <path
     d="M 46.499999,24 A 22.696228,22.696232 0 0 1 23.803771,46.696231 22.696228,22.696232 0 0 1 1.1075422,24 22.696228,22.696232 0 0 1 23.803771,1.3037698 22.696228,22.696232 0 0 1 46.499999,24 Z"
     id="path837"
     style="opacity:0.99;fill:#9bceca;fill-opacity:1;stroke-width:1.15035" />
  <g
     id="g850"
     transform="translate(0.49597469,-1.3722059)">
    <path
       style="fill:#ffffff;stroke-width:0.558499;fill-opacity:0.34818345"
       d="m 23.413521,9.1757266 c -0.286457,-2.32e-4 -0.580773,0.01233 -0.891389,0.03547 -2.129193,0.158591 -3.175922,0.603405 -7.911612,3.3621854 -3.950146,2.301159 -5.3838773,3.634873 -6.277162,5.839018 -0.5014117,1.237214 -0.5599759,1.829175 -0.6369098,6.440143 -0.069895,4.189234 -0.014704,5.3181 0.3160845,6.451809 0.5024332,1.722005 1.5683362,3.388705 2.9059023,4.543896 1.335761,1.153632 8.344706,5.070529 9.800541,5.476852 1.58128,0.441334 4.753946,0.259028 6.160587,-0.353767 2.084771,-0.908221 8.215199,-4.619329 9.147995,-5.53799 2.33679,-2.301385 2.918221,-4.286938 2.918221,-9.961942 0,-4.665834 -0.22264,-6.063314 -1.281402,-8.041427 -1.037774,-1.9389 -2.439717,-3.072915 -6.749156,-5.460049 -3.891072,-2.1553844 -5.496478,-2.7925804 -7.5017,-2.7941984 z"
       id="path4-3" />
    <path
       style="fill:#ffffff;stroke-width:0.558499;fill-opacity:1"
       d="m 23.345123,14.764176 c -0.305828,0.01829 -0.624178,0.10925 -0.936762,0.288822 -0.277266,0.159283 -0.871381,0.833155 -1.319339,1.497193 -1.198823,1.777087 -2.352488,2.417537 -4.716872,2.616575 -1.546889,0.130217 -2.057486,0.271678 -2.534768,0.70098 -0.795209,0.715265 -0.776843,1.763364 0.05826,3.301942 0.516609,0.951801 0.656521,1.529005 0.656521,2.71493 0,1.18593 -0.139912,1.763131 -0.656521,2.714931 -0.138068,0.254375 -0.243994,0.486878 -0.33692,0.710347 -0.107424,0.156658 -0.192066,0.327669 -0.24403,0.508953 -0.05795,0.202156 -0.06999,0.414848 -0.04723,0.629164 -0.02098,0.535991 0.165929,0.97133 0.566781,1.355123 0.798597,0.632789 1.548467,0.499578 2.405668,0.601063 2.18348,0.130507 3.274128,0.762179 4.675938,2.705564 1.922502,2.665245 3.033584,2.656291 4.86329,-0.03746 1.207173,-1.777247 2.312751,-2.763641 4.468478,-2.911702 2.017657,-0.138578 2.774544,-0.535957 3.04172,-1.592427 0.253055,-1.000603 -0.16956,-1.74107 -1.21228,-2.121673 -1.030483,-0.376131 -1.916469,0.122816 -2.88743,1.626772 -0.918471,1.422655 -1.911596,2.573884 -3.086164,2.874235 -1.174668,0.300371 -4.925777,0.244871 -5.78903,-0.08587 -1.202855,-0.460855 -2.362325,-1.443594 -3.014958,-2.554126 -0.437104,-0.55968 -0.723871,-1.205216 -0.995014,-1.775092 -1.238624,-2.300655 -1.092126,-3.630347 0.7132,-6.477429 1.661419,-2.620133 3.215832,-3.58452 5.77801,-3.58452 1.012022,0 2.176308,-0.511406 2.393073,-1.05225 0.57692,-1.439456 -0.51836,-2.733305 -1.843611,-2.654043 z"
       id="path8" />
  </g>
</svg>
