<?xml version="1.0" encoding="UTF-8" standalone="no"?>
<!DOCTYPE svg PUBLIC "-//W3C//DTD SVG 1.1//EN" "http://www.w3.org/Graphics/SVG/1.1/DTD/svg11.dtd">
<svg version="1.1" xmlns="http://www.w3.org/2000/svg" xmlns:xlink="http://www.w3.org/1999/xlink" preserveAspectRatio="xMidYMid meet" viewBox="0 0 640 640" width="64" height="64"><defs><path d="M109.73 104.05L77.67 58.02L120.41 34.01L165.29 100.05" id="a12xKaZqnX"></path><path d="M538.52 104.45L570.58 58.42L527.84 34.4L482.96 100.45" id="a2Jo74RStE"></path><path d="M51.04 106.15L588.96 106.67L588.96 598.48L62.62 598.48L61.84 104.05L61.84 93.98" id="bzQ3JQqtV"></path><path d="M212.95 332.05C168.1 332.05 131.74 298.89 131.74 258C131.74 217.1 168.1 183.95 212.95 183.95C257.8 183.95 294.16 217.1 294.16 258C294.16 298.89 257.8 332.05 212.95 332.05Z" id="dlstNcvFX"></path><path d="M212.63 278.91C200.2 278.91 190.13 269.48 190.13 257.84C190.13 246.2 200.2 236.76 212.63 236.76C225.06 236.76 235.13 246.2 235.13 257.84C235.13 269.48 225.06 278.91 212.63 278.91Z" id="g1yvgux38n"></path><path d="M435.05 332.05C390.2 332.05 353.85 298.89 353.85 258C353.85 217.1 390.2 183.95 435.05 183.95C479.9 183.95 516.26 217.1 516.26 258C516.26 298.89 479.9 332.05 435.05 332.05Z" id="b1eOUtAztX"></path><path d="M435.05 278.15C422.62 278.15 412.55 268.71 412.55 257.07C412.55 245.43 422.62 236 435.05 236C447.48 236 457.55 245.43 457.55 257.07C457.55 268.71 447.48 278.15 435.05 278.15Z" id="a3nIEn1mXy"></path><path d="M135.17 404.98L510.77 404.98L510.77 535.9L135.17 535.9L135.17 404.98Z" id="b2kihJPyWH"></path><path d="M135.17 470.44L510.77 470.44" id="aqna4nxZN"></path><path d="M198.45 404.98L198.45 535.9" id="cPcbxkLxa"></path><path d="M274.89 404.98L274.89 535.9" id="f3x5LvKBa"></path><path d="M351.33 404.98L351.33 535.9" id="adt0UcijJ"></path><path d="M430.38 404.98L430.38 535.9" id="a5HHsQTyxW"></path></defs><g><g><g><use xlink:href="#a12xKaZqnX" opacity="1" fill="#434343" fill-opacity="1"></use><g><use xlink:href="#a12xKaZqnX" opacity="1" fill-opacity="0" stroke="#242424" stroke-width="0" stroke-opacity="1"></use></g></g><g><use xlink:href="#a2Jo74RStE" opacity="1" fill="#434343" fill-opacity="1"></use><g><use xlink:href="#a2Jo74RStE" opacity="1" fill-opacity="0" stroke="#242424" stroke-width="0" stroke-opacity="1"></use></g></g><g><use xlink:href="#bzQ3JQqtV" opacity="1" fill="#ba5c87" fill-opacity="1"></use><g><use xlink:href="#bzQ3JQqtV" opacity="1" fill-opacity="0" stroke="#3e3e3e" stroke-width="14" stroke-opacity="1"></use></g></g><g><use xlink:href="#dlstNcvFX" opacity="1" fill="#e97254" fill-opacity="1"></use><g><use xlink:href="#dlstNcvFX" opacity="1" fill-opacity="0" stroke="#3e3e3e" stroke-width="8" stroke-opacity="1"></use></g></g><g><use xlink:href="#g1yvgux38n" opacity="1" fill="#303030" fill-opacity="1"></use><g><use xlink:href="#g1yvgux38n" opacity="1" fill-opacity="0" stroke="#000000" stroke-width="0" stroke-opacity="1"></use></g></g><g><use xlink:href="#b1eOUtAztX" opacity="1" fill="#e97254" fill-opacity="1"></use><g><use xlink:href="#b1eOUtAztX" opacity="1" fill-opacity="0" stroke="#3e3e3e" stroke-width="8" stroke-opacity="1"></use></g></g><g><use xlink:href="#a3nIEn1mXy" opacity="1" fill="#303030" fill-opacity="1"></use><g><use xlink:href="#a3nIEn1mXy" opacity="1" fill-opacity="0" stroke="#000000" stroke-width="0" stroke-opacity="1"></use></g></g><g><use xlink:href="#b2kihJPyWH" opacity="1" fill="#dedede" fill-opacity="1"></use><g><use xlink:href="#b2kihJPyWH" opacity="1" fill-opacity="0" stroke="#3e3e3e" stroke-width="10" stroke-opacity="1"></use></g></g><g><use xlink:href="#aqna4nxZN" opacity="1" fill="#000000" fill-opacity="0"></use><g><use xlink:href="#aqna4nxZN" opacity="1" fill-opacity="0" stroke="#3e3e3e" stroke-width="7" stroke-opacity="1"></use></g></g><g><use xlink:href="#cPcbxkLxa" opacity="1" fill="#000000" fill-opacity="0"></use><g><use xlink:href="#cPcbxkLxa" opacity="1" fill-opacity="0" stroke="#3e3e3e" stroke-width="7" stroke-opacity="1"></use></g></g><g><use xlink:href="#f3x5LvKBa" opacity="1" fill="#000000" fill-opacity="0"></use><g><use xlink:href="#f3x5LvKBa" opacity="1" fill-opacity="0" stroke="#3e3e3e" stroke-width="7" stroke-opacity="1"></use></g></g><g><use xlink:href="#adt0UcijJ" opacity="1" fill="#000000" fill-opacity="0"></use><g><use xlink:href="#adt0UcijJ" opacity="1" fill-opacity="0" stroke="#3e3e3e" stroke-width="7" stroke-opacity="1"></use></g></g><g><use xlink:href="#a5HHsQTyxW" opacity="1" fill="#000000" fill-opacity="0"></use><g><use xlink:href="#a5HHsQTyxW" opacity="1" fill-opacity="0" stroke="#3e3e3e" stroke-width="7" stroke-opacity="1"></use></g></g></g></g></svg>