<?xml version="1.0" encoding="UTF-8" standalone="no"?>
<svg
   xmlns:dc="http://purl.org/dc/elements/1.1/"
   xmlns:cc="http://creativecommons.org/ns#"
   xmlns:rdf="http://www.w3.org/1999/02/22-rdf-syntax-ns#"
   xmlns:svg="http://www.w3.org/2000/svg"
   xmlns="http://www.w3.org/2000/svg"
   xmlns:sodipodi="http://sodipodi.sourceforge.net/DTD/sodipodi-0.dtd"
   xmlns:inkscape="http://www.inkscape.org/namespaces/inkscape"
   height="48"
   width="48"
   version="1.1"
   id="svg6"
   sodipodi:docname="youdao-dict.svg"
   inkscape:version="1.0.2 (e86c870879, 2021-01-15)">
  <metadata
     id="metadata12">
    <rdf:RDF>
      <cc:Work
         rdf:about="">
        <dc:format>image/svg+xml</dc:format>
        <dc:type
           rdf:resource="http://purl.org/dc/dcmitype/StillImage" />
        <dc:title></dc:title>
      </cc:Work>
    </rdf:RDF>
  </metadata>
  <defs
     id="defs10" />
  <sodipodi:namedview
     pagecolor="#ffffff"
     bordercolor="#666666"
     borderopacity="1"
     objecttolerance="10"
     gridtolerance="10"
     guidetolerance="10"
     inkscape:pageopacity="0"
     inkscape:pageshadow="2"
     inkscape:window-width="1920"
     inkscape:window-height="1028"
     id="namedview8"
     showgrid="false"
     inkscape:zoom="15.999999"
     inkscape:cx="26.880731"
     inkscape:cy="24.81558"
     inkscape:window-x="0"
     inkscape:window-y="24"
     inkscape:window-maximized="1"
     inkscape:current-layer="svg6"
     inkscape:document-rotation="0" />
  <circle
     cx="23.940615"
     cy="31.534513"
     fill="#74a2f3"
     opacity=".99"
     id="circle2"
     style="fill:#a9b7c0;fill-opacity:1"
     transform="matrix(1.75830584759 0 0 1.75830608345 -18.15909274367 -30.97874795549)"
     r="13.232998" />
  <ellipse
     cx="23.935829"
     cy="24.468578"
     fill="#74a2f3"
     opacity="0.99"
     id="circle856"
     style="fill:#ffffff;fill-opacity:1;stroke-width:1.54048"
     rx="20.385096"
     ry="20.385099" />
  <g
     id="g887"
     transform="translate(-0.75089057,-0.95334858)">
    <path
       d="m 31.05888,10.553556 -3.540088,3.540088 1.416035,2.124053 1.416035,-2.124053 5.664142,4.248106 c 0,0 -2.124053,4.248107 -2.124053,14.160354 l -2.124053,2.124053 c -9.912248,0 -14.160354,2.124054 -14.160354,2.124054 l -4.248106,-5.664142 2.124053,-1.416035 -2.124053,-1.416036 -3.5400887,3.540089 5.6641417,8.496212 c 0,0 6.372159,-2.124053 18.40846,-2.124053 l 3.540088,-3.540089 c 0,-12.0363 2.124053,-18.40846 2.124053,-18.40846 z"
       style="fill:#949bdd;fill-opacity:1;stroke-width:0.708018"
       id="path8" />
    <path
       d="m 18.66857,10.553556 a 8.8502212,8.8502212 0 0 0 -8.8502207,8.850221 8.8502212,8.8502212 0 0 0 8.8502207,8.850221 8.8502212,8.8502212 0 0 0 4.225981,-1.084152 l 4.624241,4.624241 3.540088,-3.540089 -4.617326,-4.617326 a 8.8502212,8.8502212 0 0 0 1.077238,-4.232895 8.8502212,8.8502212 0 0 0 -8.850222,-8.850221 z m 0,4.248106 a 4.602115,4.602115 0 0 1 4.602115,4.602115 4.602115,4.602115 0 0 1 -4.602115,4.602115 4.602115,4.602115 0 0 1 -4.602114,-4.602115 4.602115,4.602115 0 0 1 4.602114,-4.602115 z"
       style="fill:#949bdd;fill-opacity:1;stroke-width:0.708018"
       id="path10" />
  </g>
</svg>
