<?xml version="1.0" encoding="UTF-8" standalone="no"?>
<svg
   xmlns:dc="http://purl.org/dc/elements/1.1/"
   xmlns:cc="http://creativecommons.org/ns#"
   xmlns:rdf="http://www.w3.org/1999/02/22-rdf-syntax-ns#"
   xmlns:svg="http://www.w3.org/2000/svg"
   xmlns="http://www.w3.org/2000/svg"
   xmlns:sodipodi="http://sodipodi.sourceforge.net/DTD/sodipodi-0.dtd"
   xmlns:inkscape="http://www.inkscape.org/namespaces/inkscape"
   height="48"
   width="48"
   version="1.1"
   id="svg6"
   sodipodi:docname="yuzu.svg"
   inkscape:version="1.0.2 (e86c870879, 2021-01-15)">
  <metadata
     id="metadata12">
    <rdf:RDF>
      <cc:Work
         rdf:about="">
        <dc:format>image/svg+xml</dc:format>
        <dc:type
           rdf:resource="http://purl.org/dc/dcmitype/StillImage" />
        <dc:title></dc:title>
      </cc:Work>
    </rdf:RDF>
  </metadata>
  <defs
     id="defs10" />
  <sodipodi:namedview
     pagecolor="#ffffff"
     bordercolor="#666666"
     borderopacity="1"
     objecttolerance="10"
     gridtolerance="10"
     guidetolerance="10"
     inkscape:pageopacity="0"
     inkscape:pageshadow="2"
     inkscape:window-width="1920"
     inkscape:window-height="1028"
     id="namedview8"
     showgrid="false"
     inkscape:zoom="15.999999"
     inkscape:cx="26.880731"
     inkscape:cy="24.81558"
     inkscape:window-x="0"
     inkscape:window-y="24"
     inkscape:window-maximized="1"
     inkscape:current-layer="svg6"
     inkscape:document-rotation="0" />
  <circle
     cx="23.940615"
     cy="31.534513"
     fill="#74a2f3"
     opacity=".99"
     id="circle2"
     style="fill:#a9b7c0;fill-opacity:1"
     transform="matrix(1.75830584759 0 0 1.75830608345 -18.15909274367 -30.97874795549)"
     r="13.232998" />
  <ellipse
     cx="23.935829"
     cy="24.468578"
     fill="#74a2f3"
     opacity="0.99"
     id="circle856"
     style="fill:#ffffff;fill-opacity:1;stroke-width:1.54048"
     rx="20.385096"
     ry="20.385099" />
  <g
     id="g853"
     transform="matrix(0.09276258,0,0,0.09276258,21.541684,22.56638)">
    <path
       d="m 74.0194,-75.9219 a 128.57,128.57 0 0 1 128.57,128.57 128.57,128.57 0 0 1 -128.57,128.57 h -32.143 v -257.14 z m 0,32.143 v 192.86 a 96.429,96.429 0 0 0 96.429,-96.429 96.429,96.429 0 0 0 -96.429,-96.429 z"
       fill="#d41919"
       id="path8"
       style="fill:#d08880;fill-opacity:1" />
    <path
       d="m -22.4006,-140.2059 a 128.57,128.57 0 0 0 -128.57,128.57 128.57,128.57 0 0 0 128.57,128.57 h 32.143 v -257.14 z m 0,32.143 v 192.86 a 96.429,96.429 0 0 1 -96.429,-96.429 96.429,96.429 0 0 1 96.429,-96.429 z"
       fill="#4aaee6"
       id="path12"
       style="fill:#6fa4c1;fill-opacity:1" />
  </g>
</svg>
