<?xml version="1.0" encoding="UTF-8" standalone="no"?>
<svg
   xmlns:dc="http://purl.org/dc/elements/1.1/"
   xmlns:cc="http://creativecommons.org/ns#"
   xmlns:rdf="http://www.w3.org/1999/02/22-rdf-syntax-ns#"
   xmlns:svg="http://www.w3.org/2000/svg"
   xmlns="http://www.w3.org/2000/svg"
   xmlns:sodipodi="http://sodipodi.sourceforge.net/DTD/sodipodi-0.dtd"
   xmlns:inkscape="http://www.inkscape.org/namespaces/inkscape"
   height="48"
   width="48"
   version="1.1"
   id="svg10"
   sodipodi:docname="zart.svg"
   inkscape:version="1.0.2 (e86c870879, 2021-01-15)">
  <metadata
     id="metadata16">
    <rdf:RDF>
      <cc:Work
         rdf:about="">
        <dc:format>image/svg+xml</dc:format>
        <dc:type
           rdf:resource="http://purl.org/dc/dcmitype/StillImage" />
        <dc:title></dc:title>
      </cc:Work>
    </rdf:RDF>
  </metadata>
  <defs
     id="defs14" />
  <sodipodi:namedview
     pagecolor="#ffffff"
     bordercolor="#666666"
     borderopacity="1"
     objecttolerance="10"
     gridtolerance="10"
     guidetolerance="10"
     inkscape:pageopacity="0"
     inkscape:pageshadow="2"
     inkscape:window-width="1920"
     inkscape:window-height="1028"
     id="namedview12"
     showgrid="false"
     inkscape:zoom="6.5554691"
     inkscape:cx="-25.377753"
     inkscape:cy="26.143959"
     inkscape:window-x="0"
     inkscape:window-y="24"
     inkscape:window-maximized="1"
     inkscape:current-layer="svg10"
     inkscape:document-rotation="0" />
  <circle
     cx="23.940615"
     cy="31.534513"
     fill="#77859e"
     opacity=".99"
     id="circle2"
     style="fill:#cc9279;fill-opacity:1"
     transform="matrix(1.75830584759 0 0 1.75830608345 -18.15909274367 -30.97874795549)"
     r="13.232998" />
  <g
     id="g873"
     transform="matrix(0.83151011,0,0,0.83151011,13.53477,6.8375132)">
    <path
       style="fill:#ffffff;fill-opacity:1"
       d="m 7.638776,40.833597 c -4.29214,-0.860584 -7.575662,-2.356746 -7.0807,-4.575502 1.395526,-3.634848 2.592154,-8.481226 2.256976,-14.038756 8.402466,-0.372064 14.288968,-2.845746 19.986934,-3.429442 -1.719828,8.208196 1.616464,16.484924 1.706654,18.005454 -0.4092,2.429614 -9.70221,5.475362 -16.869864,4.038246 z"
       id="path8" />
    <path
       style="fill:#ffffff;fill-opacity:1"
       d="M 17.50864,9.840763 13.492698,10.215917 10.789684,13.203669 9.191184,9.507915 5.50864,7.865645 8.536654,5.206398 8.96373,1.203669 12.433646,3.255915 16.380134,2.424363 15.496656,6.351968 Z"
       id="path10" />
    <path
       style="fill:#ffffff;fill-opacity:1"
       d="M 26.50864,5.770105 25.066362,7.178521 24.945342,9.203669 23.17674,8.250025 21.237138,8.759293 21.586358,6.761489 20.50864,5.051091 22.493074,4.770024 23.76661,3.203669 24.643834,5.027766 Z"
       id="path12" />
    <path
       style="fill:#ffffff;fill-opacity:1"
       d="m 2.30107,11.203995 c -1.716044,-0.008 -3.647291,0.13634 -4.869719,0.390812 -9.156918,1.90614 -3.647905,8.796854 1.336054,9.318 6.039561,1.406124 20.345717,-2.689842 26.139177,-3.684464 0.766436,-0.13156 1.486886,-0.219954 1.911738,-0.243592 2.3952,-0.1332 4.620936,0.496662 5.075694,0.639386 0.09214,0.02344 0.938766,0.40532 0.478426,-0.53271 -0.362164,-0.73799 -4.08985,-3.081752 -6.546062,-3.572042 -1.918598,-0.63945 -3.918844,-1.445224 -6.042498,-1.291282 -2.625722,0.19036 -6.167934,3.377788 -4.656014,3.355 1.490492,-0.0225 3.364952,-1.37733 5.026272,-1.355402 1.216702,0.0158 4.13922,0.332662 3.546194,1.206972 C 23.114306,16.153477 14.31707,16.968879 7.583398,16.703939 3.521544,16.544099 -0.911961,14.692403 0.748236,13.416271 2.722574,11.898677 6.244202,12.089929 5.879598,11.730061 5.518022,11.373177 4.017116,11.212175 2.30107,11.203995 Z"
       id="path14" />
  </g>
  <circle
     style="fill:#cc9279;fill-opacity:0.99215686;stroke-width:1.25546"
     id="path1654"
     cx="32.218105"
     cy="32.35598"
     r="11.8201" />
  <circle
     style="fill:#ffffff;fill-opacity:0.56821758;stroke-width:1.03121"
     id="circle1656"
     cx="32.218105"
     cy="32.35598"
     r="9.7088289" />
  <path
     style="fill:#ffffff;stroke-width:0.550111"
     d="m 28.969302,25.665992 c -0.329823,0 -0.597387,0.26131 -0.597387,0.583419 v 8.764179 c 0,0.32211 0.267595,0.549912 0.597387,0.554409 h 1.603059 v 1.650335 h -1.603059 c -0.329823,0 -0.597387,0.209737 -0.597387,0.531846 v 0.535069 c 0,0.32211 0.267564,0.583419 0.597387,0.583419 H 36.0262 c 0.329823,0 0.597387,-0.261309 0.597387,-0.583419 V 37.75018 c 0,-0.322109 -0.267659,-0.52396 -0.597387,-0.531846 H 34.423141 V 35.567999 H 36.0262 c 0.329823,0 0.597387,-0.232299 0.597387,-0.554409 v -8.764179 c 0,-0.322109 -0.267563,-0.583419 -0.597387,-0.583419 z m 3.528449,1.650335 c 1.367098,0 2.475502,1.108312 2.475502,2.475501 0,1.367189 -1.108312,2.475502 -2.475502,2.475502 -1.367189,0 -2.475502,-1.108313 -2.475502,-2.475502 0,-1.367189 1.108405,-2.475501 2.475502,-2.475501 z m 0,1.100223 c -0.759583,0 -1.375279,0.615693 -1.375279,1.375278 0,0.759584 0.615696,1.375279 1.375279,1.375279 0.759585,0 1.375279,-0.615695 1.375279,-1.375279 0,-0.759585 -0.615694,-1.375278 -1.375279,-1.375278 z m 0,0.550111 c 0.455762,0 0.825167,0.369405 0.825167,0.825167 9.6e-5,0.455669 -0.369405,0.825168 -0.825167,0.825168 -0.455762,0 -0.825167,-0.369499 -0.825167,-0.825168 0,-0.455762 0.369405,-0.825167 0.825167,-0.825167 z m 2.200446,3.850781 c 0.455687,0 0.825167,0.36948 0.825167,0.825167 0,0.455686 -0.36948,0.825167 -0.825167,0.825167 -0.455687,0 -0.825167,-0.369481 -0.825167,-0.825167 0,-0.455687 0.36948,-0.825167 0.825167,-0.825167 z"
     id="path22" />
</svg>
