<?xml version="1.0" encoding="UTF-8" standalone="no"?>
<!DOCTYPE svg PUBLIC "-//W3C//DTD SVG 1.1//EN" "http://www.w3.org/Graphics/SVG/1.1/DTD/svg11.dtd">
<svg version="1.1" xmlns="http://www.w3.org/2000/svg" xmlns:xlink="http://www.w3.org/1999/xlink" preserveAspectRatio="xMidYMid meet" viewBox="0 0 640 640" width="64" height="64"><defs><path d="M550.2 20.44C588.26 20.44 619.17 51.17 619.38 89.23C619.99 196.44 621.45 454.42 622.06 562.92C622.25 597.21 594.37 625.05 560.07 624.79C451.57 623.97 192.93 622.02 85.56 621.22C47.94 620.93 17.59 590.35 17.59 552.73C17.59 446.27 17.59 195.53 17.59 89.23C17.59 51.24 48.39 20.44 86.38 20.44C192.91 20.44 443.68 20.44 550.2 20.44Z" id="gu56AZts"></path><path d="M68.34 372.37L68.34 147.59L319.53 26.75L570.58 146.62L509.89 239.57L319.57 142.34L190.28 205.41L190.28 314.21L68.34 372.37Z" id="c59m1iywZ2"></path><path d="M570.37 267.23L570.37 492.01L319.29 612.82L68.51 493.1L144.45 413.53L319.29 497.26L448.47 434.13L448.47 325.39L570.37 267.23Z" id="e2WLO7krQ4"></path><path d="M68.51 493.1L570.58 251.19L570.58 146.62L68.34 388.47L68.51 493.1Z" id="b3ePrNtvuc"></path></defs><g><g><g><use xlink:href="#gu56AZts" opacity="1" fill="#bdadc6" fill-opacity="1"></use></g><g><use xlink:href="#c59m1iywZ2" opacity="1" fill="#7f6386" fill-opacity="1"></use><g><use xlink:href="#c59m1iywZ2" opacity="1" fill-opacity="0" stroke="#000000" stroke-width="0.25" stroke-opacity="0"></use></g></g><g><use xlink:href="#e2WLO7krQ4" opacity="1" fill="#7f6386" fill-opacity="1"></use><g><use xlink:href="#e2WLO7krQ4" opacity="1" fill-opacity="0" stroke="#000000" stroke-width="0.25" stroke-opacity="0"></use></g></g><g><use xlink:href="#b3ePrNtvuc" opacity="1" fill="#7f6386" fill-opacity="1"></use><g><use xlink:href="#b3ePrNtvuc" opacity="1" fill-opacity="0" stroke="#000000" stroke-width="0.25" stroke-opacity="0"></use></g></g></g></g></svg>