<?xml version="1.0" encoding="UTF-8" standalone="no"?>
<!DOCTYPE svg PUBLIC "-//W3C//DTD SVG 1.1//EN" "http://www.w3.org/Graphics/SVG/1.1/DTD/svg11.dtd">
<svg version="1.1" xmlns="http://www.w3.org/2000/svg" xmlns:xlink="http://www.w3.org/1999/xlink" preserveAspectRatio="xMidYMid meet" viewBox="0 0 640 640" width="64" height="64"><defs><path d="M594.28 23.97C605.32 23.97 614.28 32.92 614.28 43.97C614.28 158.38 614.28 481.62 614.28 596.03C614.28 607.08 605.32 616.03 594.28 616.03C480.8 616.03 160.37 616.03 46.9 616.03C35.85 616.03 26.9 607.08 26.9 596.03C26.9 481.62 26.9 158.38 26.9 43.97C26.9 32.92 35.85 23.97 46.9 23.97C160.37 23.97 480.8 23.97 594.28 23.97Z" id="b1Gnd225Km"></path><path d="M214.48 114.39L426.69 114.39L426.69 154.25L214.48 154.25L214.48 114.39Z" id="gfbmfoCrF"></path><path d="M379.19 181.56C405.27 162.2 425.92 155.45 425.74 154.25C424.63 146.89 405.74 136.69 379.19 144.7C369.86 147.52 349.61 150.43 344.46 154.25C333.45 162.41 323.43 172.53 306.78 186.28C306.18 186.78 305.67 187.2 305.23 187.54C305.23 187.54 251.13 231.71 251.13 231.71C244.27 237.47 237.41 243.62 230.56 250.16C225.71 254.8 220.84 259.71 215.96 264.91C195.47 286.74 180.57 313.21 172.55 342.06C169.31 353.72 167.69 363.64 167.69 371.8C167.69 392.37 173.38 408.95 184.76 421.55C195.02 430.69 206.48 436.4 219.14 438.67C223.67 439.48 227.8 439.97 231.53 440.14C246.36 440.82 261.22 439.5 275.7 436.22C276.45 436.05 277.18 435.9 277.87 435.76C283.01 434.79 290.42 432.82 300.1 429.86C312.4 426.53 322.02 424.57 328.97 423.98C333.41 423.61 338.27 423.7 343.55 424.25C348.65 424.79 353.59 426.34 358.09 428.81C359.91 429.81 357.23 428.34 358.72 429.16C363.93 432.03 367.17 437.5 367.17 443.45C367.17 447.12 367.17 443.12 367.17 445.44C367.17 456.13 364.09 466.59 358.3 475.58C355.57 479.81 348.74 490.41 337.81 507.37L389.94 507.37C395.57 502.03 399.09 498.69 400.5 497.35C400.5 497.35 410.29 486.97 410.29 486.97C412.41 484.44 409.52 487.88 410.48 486.74C417.39 478.51 423.29 469.48 428.06 459.84C430.33 455.26 426.88 462.23 428.38 459.2C435.57 444.68 438.32 428.36 436.28 412.28C435.91 409.31 436.77 416.16 436.12 410.97C435 402.16 431.1 393.94 424.99 387.5C417.47 379.57 408.52 374.34 398.14 371.8C383.15 368.14 365.26 369.35 344.46 375.44C303.91 383.16 277.97 375.41 266.67 352.19C255.37 328.96 264.95 298.86 295.41 261.88C303.98 252.37 311.39 244.31 317.62 237.7C317.95 237.34 318.24 237.05 318.48 236.83C318.48 236.83 349.73 207.21 349.73 207.21C360.71 196.53 370.53 187.98 379.19 181.56Z" id="b18wz3P8St"></path></defs><g><g><g><use xlink:href="#b1Gnd225Km" opacity="1" fill="#419c82" fill-opacity="1"></use></g><g><use xlink:href="#gfbmfoCrF" opacity="1" fill="#bad1ca" fill-opacity="1"></use></g><g><use xlink:href="#b18wz3P8St" opacity="1" fill="#bad1ca" fill-opacity="1"></use><g><use xlink:href="#b18wz3P8St" opacity="1" fill-opacity="0" stroke="#000000" stroke-width="0" stroke-opacity="1"></use></g></g></g></g></svg>