<?xml version="1.0" encoding="UTF-8" standalone="no"?>
<svg
   xmlns:dc="http://purl.org/dc/elements/1.1/"
   xmlns:cc="http://creativecommons.org/ns#"
   xmlns:rdf="http://www.w3.org/1999/02/22-rdf-syntax-ns#"
   xmlns:svg="http://www.w3.org/2000/svg"
   xmlns="http://www.w3.org/2000/svg"
   xmlns:sodipodi="http://sodipodi.sourceforge.net/DTD/sodipodi-0.dtd"
   xmlns:inkscape="http://www.inkscape.org/namespaces/inkscape"
   height="48"
   width="48"
   version="1.1"
   id="svg10"
   sodipodi:docname="zettlr.svg"
   inkscape:version="1.0.2 (e86c870879, 2021-01-15)">
  <metadata
     id="metadata16">
    <rdf:RDF>
      <cc:Work
         rdf:about="">
        <dc:format>image/svg+xml</dc:format>
        <dc:type
           rdf:resource="http://purl.org/dc/dcmitype/StillImage" />
        <dc:title></dc:title>
      </cc:Work>
    </rdf:RDF>
  </metadata>
  <defs
     id="defs14" />
  <sodipodi:namedview
     pagecolor="#ffffff"
     bordercolor="#666666"
     borderopacity="1"
     objecttolerance="10"
     gridtolerance="10"
     guidetolerance="10"
     inkscape:pageopacity="0"
     inkscape:pageshadow="2"
     inkscape:window-width="1920"
     inkscape:window-height="1028"
     id="namedview12"
     showgrid="false"
     inkscape:zoom="6.6880515"
     inkscape:cx="-31.315848"
     inkscape:cy="55.742486"
     inkscape:window-x="0"
     inkscape:window-y="24"
     inkscape:window-maximized="1"
     inkscape:current-layer="svg10"
     inkscape:document-rotation="0" />
  <g
     fill="#be514c"
     opacity=".99"
     transform="matrix(1.1503549 0 0 1.1503549 -4.486125 -7.525565)"
     id="g6"
     style="fill:#85bfb3;fill-opacity:1">
    <path
       d="m44.322082 27.405077a19.729762 19.729765 0 0 1 -19.729762 19.729765 19.729762 19.729765 0 0 1 -19.7297621-19.729765 19.729762 19.729765 0 0 1 19.7297621-19.7297632 19.729762 19.729765 0 0 1 19.729762 19.7297632z"
       id="path2"
       style="fill:#85bfb3;fill-opacity:1" />
    <path
       d="m44.322082 27.405077a19.729762 19.729765 0 0 1 -19.729762 19.729765 19.729762 19.729765 0 0 1 -19.7297621-19.729765 19.729762 19.729765 0 0 1 19.7297621-19.7297632 19.729762 19.729765 0 0 1 19.729762 19.7297632z"
       id="path4"
       style="fill:#85bfb3;fill-opacity:1" />
    <path
       d="m 44.322082,27.405077 c 0,10.896448 -8.833315,19.729765 -19.729762,19.729765 V 7.6753138 c 10.896446,0 19.729761,8.8333152 19.729762,19.7297632 z"
       id="path835"
       style="fill:#daca95;fill-opacity:1"
       sodipodi:nodetypes="sccs" />
    <path
       d="m 44.322082,27.405077 c 0,10.896448 -8.833315,19.729765 -19.729762,19.729765 -10.896447,0 -19.7297621,-8.833317 -19.7297621,-19.729765 z"
       id="path833"
       style="fill:#84b8de;fill-opacity:1"
       sodipodi:nodetypes="cscc" />
  </g>
  <path
     d="M 46.499999,24 A 22.696228,22.696232 0 0 1 23.803771,46.696231 22.696228,22.696232 0 0 1 1.1075422,24 22.696228,22.696232 0 0 1 23.803771,1.3037698 22.696228,22.696232 0 0 1 46.499999,24 Z"
     id="path837"
     style="opacity:0.99;fill:#96d3ba;fill-opacity:1;stroke-width:1.15035" />
  <path
     style="fill:#ffffff;stroke-width:0.741445"
     d="m 24.610091,39.384522 c 0.46109,-0.98462 1.520719,-1.819419 1.836161,-2.917397 0.387642,-1.019383 0.263033,-2.247957 -0.770109,-2.844083 -0.367174,-0.311866 -0.925969,-0.106048 -1.37809,-0.188422 -2.287008,-0.07963 -4.819652,0.04364 -6.671786,-1.535271 -1.876768,-1.653886 -2.047532,-4.539137 -1.672704,-6.846318 0.79474,-3.966101 3.603187,-7.150421 6.61227,-9.707649 0.424042,-0.380116 1.78125,-1.995085 0.471939,-1.87961 -1.987802,-0.08852 -6.50423,-0.06363 -6.50423,-0.06363 v -2.933965 h 14.087451 v 2.933962 c -3.398061,2.149368 -6.795102,5.090138 -8.651613,8.732533 -0.885411,1.724588 -1.275635,3.577596 -0.477512,5.401038 0.527532,1.070891 2.057844,1.521968 3.196846,1.483423 1.366629,0.152665 2.823642,-0.108955 4.119217,0.425107 1.792046,0.771976 2.724882,2.813089 2.528778,4.689206 -0.07732,1.744755 -0.980854,3.938178 -2.092789,5.251077 z"
     id="path8" />
</svg>
