<?xml version="1.0" encoding="UTF-8" standalone="no"?>
<!DOCTYPE svg PUBLIC "-//W3C//DTD SVG 1.1//EN" "http://www.w3.org/Graphics/SVG/1.1/DTD/svg11.dtd">
<svg version="1.1" xmlns="http://www.w3.org/2000/svg" xmlns:xlink="http://www.w3.org/1999/xlink" preserveAspectRatio="xMidYMid meet" viewBox="0 0 640 640" width="64" height="64"><defs><path d="M520.95 45.49C566.29 45.49 603.05 82.25 603.05 127.59C603.05 221.89 603.05 433.7 603.05 530.75C603.05 568.48 572.46 599.06 534.74 599.06C436.32 599.06 206.92 599.06 107.89 599.06C71.86 599.06 42.65 569.85 42.65 533.82C42.65 436.15 42.65 210.86 42.65 113.8C42.65 76.08 73.23 45.49 110.96 45.49C209.38 45.49 425.29 45.49 520.95 45.49Z" id="alvWwz1vy"></path><path d="M123.95 150.15L519.46 150.15L519.46 508.07L123.95 508.07L123.95 150.15Z" id="gah2JJIwj"></path><path d="M184.89 213.94L455.11 213.94L455.11 452.26L184.89 452.26L184.89 213.94Z" id="c5RtmbrGoN"></path><path d="M278.19 260.28L307.26 298.12L172.86 401.36L143.8 363.53L278.19 260.28Z" id="c2NxFAPEd4"></path><path d="M467.69 258.77L496.75 296.61L367.04 396.26L337.97 358.42L467.69 258.77Z" id="h3qo18tqAg"></path></defs><g><g><g><use xlink:href="#alvWwz1vy" opacity="1" fill="#d27943" fill-opacity="1"></use><g><use xlink:href="#alvWwz1vy" opacity="1" fill-opacity="0" stroke="#39c974" stroke-width="0" stroke-opacity="1"></use></g></g><g><use xlink:href="#gah2JJIwj" opacity="1" fill="#fbc29a" fill-opacity="1"></use></g><g><use xlink:href="#c5RtmbrGoN" opacity="1" fill="#d27943" fill-opacity="1"></use></g><g><use xlink:href="#c2NxFAPEd4" opacity="1" fill="#fbc29a" fill-opacity="1"></use></g><g><use xlink:href="#h3qo18tqAg" opacity="1" fill="#fbc29a" fill-opacity="1"></use></g></g></g></svg>