<svg width="500" height="500" viewBox="0 0 500 500" fill="none" xmlns="http://www.w3.org/2000/svg">
<path fill-rule="evenodd" clip-rule="evenodd" d="M41.6663 125H41.6661V417.083C41.6661 428.359 50.807 437.5 62.0828 437.5H437.916C449.192 437.5 458.333 428.359 458.333 417.083V145.417C458.333 134.141 449.192 125 437.916 125H230.03L205.733 82.9167C198.439 70.2828 184.959 62.5 170.37 62.5H62.083C50.8072 62.5 41.6663 71.6409 41.6663 82.9167L41.6663 125Z" fill="#1ED760"/>
<path d="M41.6663 125V145.417H62.083V125H41.6663ZM41.6661 125V104.583H21.2495V125H41.6661ZM230.03 125L212.349 135.208L218.242 145.417H230.03V125ZM205.733 82.9167L223.414 72.7083V72.7083L205.733 82.9167ZM41.6663 82.9167H21.2496H41.6663ZM41.6663 104.583H41.6661V145.417H41.6663V104.583ZM21.2495 125V417.083H62.0828V125H21.2495ZM21.2495 417.083C21.2495 439.635 39.5312 457.917 62.0828 457.917V417.083C62.0681 417.083 62.0602 417.083 62.0581 417.082C62.0559 417.082 62.0572 417.082 62.0612 417.083C62.065 417.084 62.0699 417.085 62.0752 417.087C62.0805 417.088 62.0852 417.09 62.0891 417.092C62.0969 417.095 62.0993 417.097 62.097 417.095C62.0944 417.094 62.0891 417.09 62.0828 417.083C62.0765 417.077 62.0725 417.072 62.0707 417.069C62.0692 417.067 62.0711 417.069 62.0744 417.077C62.0761 417.081 62.0778 417.086 62.0795 417.091C62.0811 417.096 62.0823 417.101 62.0831 417.105C62.0839 417.109 62.084 417.11 62.0837 417.108C62.0835 417.106 62.0828 417.098 62.0828 417.083H21.2495ZM62.0828 457.917H437.916V417.083H62.0828V457.917ZM437.916 457.917C460.468 457.917 478.749 439.635 478.749 417.083H437.916C437.916 417.098 437.915 417.106 437.915 417.108C437.915 417.11 437.915 417.109 437.916 417.105C437.917 417.101 437.918 417.096 437.919 417.091C437.921 417.086 437.923 417.081 437.924 417.077C437.928 417.069 437.93 417.067 437.928 417.069C437.926 417.072 437.922 417.077 437.916 417.083C437.91 417.09 437.905 417.094 437.902 417.095C437.9 417.097 437.902 417.095 437.91 417.092C437.914 417.09 437.918 417.088 437.924 417.087C437.929 417.085 437.934 417.084 437.938 417.083C437.942 417.082 437.943 417.082 437.941 417.082C437.939 417.083 437.931 417.083 437.916 417.083V457.917ZM478.749 417.083V145.417H437.916V417.083H478.749ZM478.749 145.417C478.749 122.865 460.468 104.583 437.916 104.583V145.417C437.931 145.417 437.939 145.417 437.941 145.418C437.943 145.418 437.942 145.418 437.938 145.417C437.934 145.416 437.929 145.415 437.924 145.413C437.918 145.412 437.914 145.41 437.91 145.408C437.902 145.405 437.9 145.403 437.902 145.405C437.905 145.406 437.91 145.41 437.916 145.417C437.922 145.423 437.926 145.428 437.928 145.431C437.93 145.433 437.928 145.431 437.924 145.423C437.923 145.419 437.921 145.414 437.919 145.409C437.918 145.404 437.917 145.399 437.916 145.395C437.915 145.391 437.915 145.39 437.915 145.392C437.915 145.394 437.916 145.402 437.916 145.417H478.749ZM437.916 104.583H230.03V145.417H437.916V104.583ZM247.711 114.792L223.414 72.7083L188.052 93.125L212.349 135.208L247.711 114.792ZM223.414 72.7083C212.473 53.7575 192.253 42.0833 170.37 42.0833V82.9167C177.665 82.9167 184.405 86.8081 188.052 93.125L223.414 72.7083ZM170.37 42.0833H62.083V82.9167H170.37V42.0833ZM62.083 42.0833C39.5313 42.0833 21.2496 60.3651 21.2496 82.9167H62.083C62.083 82.902 62.0837 82.8941 62.0839 82.892C62.0841 82.8898 62.0841 82.8911 62.0833 82.895C62.0825 82.8989 62.0813 82.9038 62.0796 82.9091C62.078 82.9143 62.0762 82.919 62.0746 82.9229C62.0713 82.9308 62.0694 82.9331 62.0709 82.9309C62.0727 82.9283 62.0767 82.9229 62.083 82.9167C62.0892 82.9104 62.0946 82.9063 62.0972 82.9046C62.0995 82.903 62.0971 82.905 62.0892 82.9083C62.0853 82.9099 62.0806 82.9117 62.0754 82.9133C62.0701 82.915 62.0652 82.9162 62.0613 82.917C62.0574 82.9178 62.0561 82.9178 62.0583 82.9176C62.0604 82.9174 62.0683 82.9167 62.083 82.9167V42.0833ZM21.2496 82.9167V125H62.083V82.9167H21.2496Z" fill="#1ED760"/>
</svg>
