<?xml version="1.0" encoding="UTF-8" standalone="no"?>
<svg
   width="64"
   height="64"
   version="1.1"
   viewBox="0 0 16.933 16.933"
   id="svg79"
   sodipodi:docname="discord.svg"
   xml:space="preserve"
   inkscape:version="1.2.1 (9c6d41e410, 2022-07-14)"
   xmlns:inkscape="http://www.inkscape.org/namespaces/inkscape"
   xmlns:sodipodi="http://sodipodi.sourceforge.net/DTD/sodipodi-0.dtd"
   xmlns:xlink="http://www.w3.org/1999/xlink"
   xmlns="http://www.w3.org/2000/svg"
   xmlns:svg="http://www.w3.org/2000/svg"
   xmlns:rdf="http://www.w3.org/1999/02/22-rdf-syntax-ns#"
   xmlns:cc="http://creativecommons.org/ns#"
   xmlns:dc="http://purl.org/dc/elements/1.1/"><sodipodi:namedview
     id="namedview81"
     pagecolor="#ffffff"
     bordercolor="#999999"
     borderopacity="1"
     inkscape:showpageshadow="0"
     inkscape:pageopacity="0"
     inkscape:pagecheckerboard="0"
     inkscape:deskcolor="#d1d1d1"
     showgrid="false"
     inkscape:zoom="6.84375"
     inkscape:cx="20.52968"
     inkscape:cy="42.009132"
     inkscape:window-width="1920"
     inkscape:window-height="1005"
     inkscape:window-x="0"
     inkscape:window-y="0"
     inkscape:window-maximized="1"
     inkscape:current-layer="svg79" /><defs
     id="defs33"><linearGradient
       id="linearGradient4524"
       x1="3.1161"
       x2="13.676"
       y1="4.5948"
       y2="12.128"
       gradientTransform="translate(21.86302,2.9967e-4)"
       gradientUnits="userSpaceOnUse"><stop
         stop-color="#fff"
         offset="0"
         id="stop4520" /><stop
         stop-color="#c6efff"
         offset="1"
         id="stop4522"
         style="stop-color:#ccd4ff;stop-opacity:1;" /></linearGradient><linearGradient
       id="linearGradient845"
       x1="3.1161"
       x2="13.676"
       y1="4.5948"
       y2="12.128"
       gradientTransform="translate(21.86302,2.9967e-4)"
       gradientUnits="userSpaceOnUse"><stop
         stop-color="#fff"
         offset="0"
         id="stop2" /><stop
         stop-color="#c6efff"
         offset="1"
         id="stop4" /></linearGradient><style
       type="text/css"
       id="style7" /><style
       type="text/css"
       id="style9" /><filter
       id="filter1057"
       x="-0.026999999"
       y="-0.026999999"
       width="1.054"
       height="1.054"
       color-interpolation-filters="sRGB"><feGaussianBlur
         stdDeviation="0.61875"
         id="feGaussianBlur11" /></filter><linearGradient
       id="linearGradient1053"
       x1="-127"
       x2="-72"
       y1="60"
       y2="5"
       gradientTransform="matrix(0.26458,0,0,0.26458,56.655458,-0.13493)"
       gradientUnits="userSpaceOnUse"><stop
         stop-color="#32d7ff"
         offset="0"
         id="stop14" /><stop
         stop-color="#329bff"
         offset="1"
         id="stop16" /></linearGradient><style
       type="text/css"
       id="style19" /><style
       type="text/css"
       id="style21" /><style
       type="text/css"
       id="style23" /><style
       type="text/css"
       id="style25" /><style
       type="text/css"
       id="style27" /><style
       type="text/css"
       id="style29" /><style
       type="text/css"
       id="style31" /><filter
       inkscape:collect="always"
       style="color-interpolation-filters:sRGB"
       id="filter1057-0"
       x="-0.026999999"
       width="1.054"
       y="-0.026999999"
       height="1.054"><feGaussianBlur
         inkscape:collect="always"
         stdDeviation="0.61875"
         id="feGaussianBlur1059" /></filter><linearGradient
       inkscape:collect="always"
       xlink:href="#linearGradient1051"
       id="linearGradient1053-9"
       x1="-127"
       y1="60"
       x2="-72"
       y2="5"
       gradientUnits="userSpaceOnUse"
       gradientTransform="matrix(0.26457812,0,0,0.26457812,34.792023,-0.1349335)" /><linearGradient
       inkscape:collect="always"
       id="linearGradient1051"><stop
         style="stop-color:#6060da;stop-opacity:1;"
         offset="0"
         id="stop1047" /><stop
         style="stop-color:#6079da;stop-opacity:1;"
         offset="1"
         id="stop1049" /></linearGradient><filter
       id="filter1022"
       x="-0.108"
       y="-0.108"
       width="1.216"
       height="1.216"
       color-interpolation-filters="sRGB"><feGaussianBlur
         stdDeviation="1.44"
         id="feGaussianBlur867" /></filter><linearGradient
       inkscape:collect="always"
       xlink:href="#linearGradient4524"
       id="linearGradient692"
       gradientUnits="userSpaceOnUse"
       gradientTransform="translate(-0.0017252,2.9967e-4)"
       x1="3.1161"
       y1="4.5948"
       x2="13.676"
       y2="12.128" /></defs><metadata
     id="metadata35"><rdf:RDF><cc:Work
         rdf:about=""><dc:format>image/svg+xml</dc:format><dc:type
           rdf:resource="http://purl.org/dc/dcmitype/StillImage" /><dc:title /></cc:Work></rdf:RDF></metadata><g
     fill="#5e4aa6"
     id="g77"><g
       transform="matrix(.26458 0 0 .26458 19.707 2.4476e-8)"
       id="g63"><circle
         cx="-1248.7"
         cy="-1241.6"
         r="0"
         id="circle43" /><circle
         cx="-149.15"
         cy="23.855"
         r="0"
         fill-rule="evenodd"
         id="circle45" /><circle
         cx="-1248.7"
         cy="-1241.6"
         r="0"
         id="circle47" /><circle
         cx="-149.15"
         cy="23.855"
         r="0"
         fill-rule="evenodd"
         id="circle49" /><circle
         cx="-1124.8"
         cy="-1279.3"
         r="0"
         id="circle51" /><g
         transform="matrix(3.7796,0,0,3.7796,123.83,-38.184)"
         stroke-width=".26458"
         id="g61"><circle
           cx="-299.02"
           cy="-338.77"
           r="0"
           id="circle53" /><circle
           cx="-8.1062"
           cy="-3.9487"
           r="0"
           fill-rule="evenodd"
           id="circle55" /><circle
           cx="-278.25"
           cy="-357.69"
           r="0"
           id="circle57" /><circle
           cx="12.663"
           cy="-22.859"
           r="0"
           fill-rule="evenodd"
           id="circle59" /></g></g><circle
       cx="-254.16"
       cy="-338.47"
       r="0"
       stroke-width=".26458"
       id="circle65" /><g
       transform="translate(76.203 -10.103)"
       stroke-width=".26458"
       id="g75"><circle
         cx="-299.02"
         cy="-338.77"
         r="0"
         id="circle67" /><circle
         cx="-8.1062"
         cy="-3.9487"
         r="0"
         fill-rule="evenodd"
         id="circle69" /><circle
         cx="-278.25"
         cy="-357.69"
         r="0"
         id="circle71" /><circle
         cx="12.663"
         cy="-22.859"
         r="0"
         fill-rule="evenodd"
         id="circle73" /></g></g><rect
     ry="15"
     y="4.4999995"
     x="4.4999995"
     height="55"
     width="55"
     id="rect1055"
     style="opacity:0.3;fill:#141414;fill-opacity:1;stroke-width:2.74436;stroke-linecap:round;filter:url(#filter1057-0)"
     transform="scale(0.26457812)" /><rect
     style="fill:url(#linearGradient1053-9);fill-opacity:1;stroke-width:0.726098;stroke-linecap:round"
     id="rect1045"
     width="14.551796"
     height="14.551796"
     x="1.1906021"
     y="1.1906022"
     ry="3.9686716" /><path
     d="m 10.347713,11.32 c 0.62511,-0.19624 1.1645,-0.50057 1.5837,-1.0425 -2.2945002,1.326 -4.5644002,1.2854 -6.8546002,0.0092 0.18686,0.26661 0.41187,0.46916 0.6745,0.6212 0.26185,0.1516 0.53978,0.27545 0.82004,0.41624 -0.12085,0.15091 -0.26427,0.3087 -0.3824,0.48353 -0.11244,0.16658 -0.23994,0.22493 -0.44545,0.20104 -0.77436,-0.08999 -1.4705,-0.3477 -2.0477,-0.8867 -0.01673,-0.01567 -0.03246,-0.0324 -0.04944,-0.0477 -0.23566,-0.21224 -0.33404,-0.44913 -0.31376,-0.7918 0.09588,-1.622 0.50059,-3.1568 1.2091,-4.6146 0.03473,-0.071457 0.09405,-0.14024 0.15895,-0.18629 0.566,-0.40175 1.1867,-0.67927 1.8734,-0.79923 0.13107,-0.022912 0.26405,-0.040069 0.39677,-0.045958 0.05395,-0.00238 0.10958,0.032329 0.16324,0.07116 -0.81592,0.27275 -1.5913,0.60135 -2.2732,1.1504 2.3432,-1.1162 4.6728,-1.1714 7.0088002,-0.028293 -0.62447,-0.50465 -1.3464,-0.81737 -2.1016002,-1.0645 0.05638,-0.116 0.13508,-0.13831 0.2556902,-0.12708 0.81731,0.075948 1.5471,0.37637 2.2134,0.8437 0.06252,0.043851 0.1209,0.1083 0.15455,0.17635 0.51692,1.0465 0.86535,2.1476 1.0629,3.2979 0.09173,0.53459 0.13898,1.0729 0.14835,1.6143 0.0012,0.07611 -0.03103,0.16682 -0.0779,0.22763 -0.43529,0.56479 -1.0155,0.91363 -1.6988,1.0881 -0.2639,0.06738 -0.53912,0.09137 -0.8101,0.12864 -0.04197,0.0058 -0.10548,-0.0092 -0.13064,-0.03879 -0.18048,-0.21153 -0.35356,-0.42927 -0.53783,-0.6559 z M 6.7284128,9.8736 c 0.29954,-7.4e-4 0.47713,-0.06417 0.633,-0.19365 0.25477,-0.21178 0.34982,-0.49078 0.36944,-0.81467 0.0219,-0.3622 -0.11872,-0.63159 -0.41964,-0.81539 -0.31046,-0.18959 -0.63486,-0.20526 -0.94909,-0.0081 -0.50436,0.3165 -0.59909,1.0694 -0.19778,1.5231 0.1756,0.1985 0.39373,0.30659 0.56408,0.3087 z m 3.3061002,0.01398 c 0.10297,-0.02362 0.21076,-0.03485 0.30813,-0.0729 0.60094,-0.23446 0.79229,-1.0414 0.37677,-1.5732 -0.3238,-0.4144 -0.9271202,-0.45174 -1.2960002,-0.07641 -0.24402,0.24824 -0.32014,0.55193 -0.27855,0.8918 0.0551,0.45044 0.44937,0.81476 0.8897002,0.83071 z"
     fill="url(#linearGradient845)"
     stroke-width="0.045727"
     id="path690"
     style="fill:url(#linearGradient692)" /></svg>
