<?xml version="1.0" encoding="UTF-8" standalone="no"?>
<svg
   width="64"
   height="64"
   version="1.1"
   viewBox="0 0 64 64"
   id="svg20"
   sodipodi:docname="gnome-arcade.svg"
   inkscape:version="1.2.2 (b0a8486541, 2022-12-01)"
   xmlns:inkscape="http://www.inkscape.org/namespaces/inkscape"
   xmlns:sodipodi="http://sodipodi.sourceforge.net/DTD/sodipodi-0.dtd"
   xmlns:xlink="http://www.w3.org/1999/xlink"
   xmlns="http://www.w3.org/2000/svg"
   xmlns:svg="http://www.w3.org/2000/svg">
  <sodipodi:namedview
     id="namedview22"
     pagecolor="#ffffff"
     bordercolor="#999999"
     borderopacity="1"
     inkscape:showpageshadow="0"
     inkscape:pageopacity="0"
     inkscape:pagecheckerboard="0"
     inkscape:deskcolor="#d1d1d1"
     showgrid="false"
     inkscape:zoom="6.640625"
     inkscape:cx="51.350588"
     inkscape:cy="35.538824"
     inkscape:window-width="1920"
     inkscape:window-height="1002"
     inkscape:window-x="0"
     inkscape:window-y="0"
     inkscape:window-maximized="1"
     inkscape:current-layer="svg20" />
  <defs
     id="defs10">
    <linearGradient
       id="linearGradient927"
       x1="7.9373"
       x2="7.9373"
       y1="15.081"
       y2="1.852"
       gradientTransform="matrix(3.7796,0,0,3.7796,94.382416,0)"
       gradientUnits="userSpaceOnUse">
      <stop
         stop-color="#8f3cec"
         offset="0"
         id="stop2" />
      <stop
         stop-color="#f170ff"
         offset="1"
         id="stop4" />
    </linearGradient>
    <filter
       id="filter7739"
       x="-0.12250029"
       y="-0.18374936"
       width="1.2450006"
       height="1.3674987"
       color-interpolation-filters="sRGB">
      <feGaussianBlur
         stdDeviation="2.1437428"
         id="feGaussianBlur7" />
    </filter>
    <linearGradient
       id="linearGradient4295-9"
       x1="504.57001"
       x2="504.57001"
       y1="549.79999"
       y2="537.79999"
       gradientTransform="matrix(0.75898188,0,0,0.81106479,-351.34046,-408.81888)"
       gradientUnits="userSpaceOnUse">
      <stop
         stop-color="#08f"
         offset="0"
         id="stop256" />
      <stop
         stop-color="#02c3ff"
         offset="1"
         id="stop258" />
    </linearGradient>
    <linearGradient
       id="linearGradient4295-0"
       x1="504.57001"
       x2="504.57001"
       y1="549.79999"
       y2="537.79999"
       gradientTransform="matrix(1.3282655,0,0,1.4193917,-638.69227,-708.21438)"
       gradientUnits="userSpaceOnUse">
      <stop
         stop-color="#bfc1c1"
         offset="0"
         id="stop261" />
      <stop
         stop-color="#f1f2f3"
         offset="1"
         id="stop263" />
    </linearGradient>
    <linearGradient
       id="linearGradient873"
       x1="10.772"
       x2="11.103"
       y1="16.74"
       y2="12.346"
       gradientTransform="matrix(1.9611599,0,0,1.9611599,1.9704671,-20.074802)"
       gradientUnits="userSpaceOnUse">
      <stop
         stop-color="#de6f0e"
         offset="0"
         id="stop266" />
      <stop
         stop-color="#e4bd29"
         offset="1"
         id="stop268" />
    </linearGradient>
    <radialGradient
       id="radialGradient883"
       cx="16.299999"
       cy="17.188"
       r="2.1733999"
       gradientTransform="matrix(1.9611599,0,0,1.9611599,18.429113,-7.7547314)"
       gradientUnits="userSpaceOnUse">
      <stop
         stop-color="#29c5e4"
         offset="0"
         id="stop271" />
      <stop
         stop-color="#2979e4"
         offset="1"
         id="stop273" />
    </radialGradient>
    <radialGradient
       id="radialGradient887"
       cx="16.299999"
       cy="17.188"
       r="2.1733999"
       gradientTransform="matrix(1.9611599,0,0,1.9611599,-0.09751388,9.1066449)"
       gradientUnits="userSpaceOnUse">
      <stop
         stop-color="#29e46d"
         offset="0"
         id="stop276" />
      <stop
         stop-color="#499777"
         offset="1"
         id="stop278" />
    </radialGradient>
    <radialGradient
       id="radialGradient903"
       cx="21.296"
       cy="14.297"
       r="0.95692998"
       gradientTransform="matrix(1.9611599,0,0,2.1976874,-1.2094728,-3.7279386)"
       gradientUnits="userSpaceOnUse"
       xlink:href="#linearGradient901" />
    <linearGradient
       id="linearGradient901">
      <stop
         stop-color="#fff"
         offset="0"
         id="stop282" />
      <stop
         stop-color="#bcbcbc"
         offset="1"
         id="stop284" />
    </linearGradient>
    <radialGradient
       id="radialGradient907"
       cx="21.296"
       cy="14.297"
       r="0.95692998"
       gradientTransform="matrix(1.9611599,0,0,2.1976874,1.9313765,-7.0052315)"
       gradientUnits="userSpaceOnUse"
       xlink:href="#linearGradient901" />
    <radialGradient
       id="radialGradient911"
       cx="21.296"
       cy="14.297"
       r="0.95692998"
       gradientTransform="matrix(1.9611599,0,0,2.1976874,5.2763242,-3.6239995)"
       gradientUnits="userSpaceOnUse"
       xlink:href="#linearGradient901" />
    <radialGradient
       id="radialGradient915"
       cx="21.296"
       cy="14.297"
       r="0.95692998"
       gradientTransform="matrix(1.9611599,0,0,2.1976874,1.9313765,-0.06928385)"
       gradientUnits="userSpaceOnUse"
       xlink:href="#linearGradient901" />
    <linearGradient
       id="linearGradient4278"
       x1="468.23999"
       x2="468.23999"
       y1="553.72998"
       y2="502.64999"
       gradientTransform="matrix(0.75898188,0,0,0.81106479,-322.78934,-395.55247)"
       gradientUnits="userSpaceOnUse">
      <stop
         stop-color="#181818"
         offset="0"
         id="stop290" />
      <stop
         stop-color="#3f3f40"
         offset=".49669"
         id="stop292" />
      <stop
         stop-color="#4b4b4e"
         offset="1"
         id="stop294" />
    </linearGradient>
    <filter
       id="filter1057"
       x="-0.026999999"
       y="-0.026999999"
       width="1.054"
       height="1.054"
       color-interpolation-filters="sRGB">
      <feGaussianBlur
         stdDeviation="0.61875"
         id="feGaussianBlur263" />
    </filter>
    <linearGradient
       id="linearGradient1053"
       x1="-127"
       x2="-72"
       y1="60"
       y2="5"
       gradientTransform="translate(131.5,-0.5100008)"
       gradientUnits="userSpaceOnUse">
      <stop
         stop-color="#a53cff"
         offset="0"
         id="stop266-3" />
      <stop
         stop-color="#b496ff"
         offset="1"
         id="stop268-6" />
    </linearGradient>
  </defs>
  <rect
     x="4.4999995"
     y="4.4999995"
     width="55"
     height="55"
     ry="15"
     fill="#141414"
     filter="url(#filter1057)"
     opacity="0.3"
     stroke-linecap="round"
     stroke-width="2.7444"
     id="rect275" />
  <rect
     x="4.4999995"
     y="4.499999"
     width="55"
     height="55"
     ry="15"
     fill="url(#linearGradient1053)"
     stroke-linecap="round"
     stroke-width="2.7444"
     id="rect277"
     style="fill:url(#linearGradient1053)" />
  <path
     id="path18"
     d="m 25.350981,41.417916 c 0,0 1.602249,-3.316866 3.133517,-3.316866 1.531268,0 14.692825,0.285701 15.724278,-0.183046 1.031264,-0.468746 5.437335,-2.312511 5.218874,-5.374972 -0.218763,-3.062498 0.2617,-8.84389 0.2617,-8.84389 0,0 1.707019,17.687403 1.457037,18.843583 -0.128469,1.078926 -0.427662,3.82458 -4.316684,4.664407 -3.88921,0.839677 -5.855737,-2.651655 -5.855737,-2.651655 0,0 -1.723574,-3.137788 -3.77862,-3.137788 H 25.351208 Z"
     style="fill:#ffffff;fill-opacity:0.65490198" />
  <path
     id="path20"
     style="stroke-width:3.7796;fill:#ffffff;fill-opacity:0.96862745"
     d="M 22.679688 16.634766 C 22.679688 16.634766 14.804545 16.603624 13.960938 24.728516 C 13.960938 24.728516 13.479088 32.997538 12.839844 42.587891 C 12.839844 42.587891 12.362571 46.613591 17.585938 47.322266 C 23.125317 48.074028 25.64857 38.697266 28.648438 38.697266 L 44.742188 38.697266 C 47.134106 38.697266 49.697266 36.312928 49.697266 32.910156 C 49.697266 29.507195 49.698312 24.379153 49.695312 23.605469 C 49.698312 22.82366 49.260806 16.845667 41.679688 16.634766 L 22.679688 16.634766 z M 23.935547 22.412109 C 24.861488 22.412109 25.607422 23.15609 25.607422 24.082031 L 25.607422 25.576172 L 27.099609 25.576172 C 28.025551 25.576172 28.771484 26.322106 28.771484 27.248047 C 28.771484 28.173988 28.025551 28.917969 27.099609 28.917969 L 25.607422 28.917969 L 25.607422 30.412109 C 25.607422 31.338051 24.861488 32.083984 23.935547 32.083984 C 23.009606 32.083984 22.263672 31.338051 22.263672 30.412109 L 22.263672 28.917969 L 20.771484 28.917969 C 19.845543 28.917969 19.099609 28.173988 19.099609 27.248047 C 19.099609 26.322106 19.845543 25.576172 20.771484 25.576172 L 22.263672 25.576172 L 22.263672 24.082031 C 22.263672 23.15609 23.009606 22.412109 23.935547 22.412109 z M 40.681641 22.734375 A 1.6020222 1.6020222 0 0 1 42.283203 24.335938 A 1.6020222 1.6020222 0 0 1 40.681641 25.9375 A 1.6020222 1.6020222 0 0 1 39.080078 24.335938 A 1.6020222 1.6020222 0 0 1 40.681641 22.734375 z M 37.769531 25.644531 A 1.6020222 1.6020222 0 0 1 39.373047 27.248047 A 1.6020222 1.6020222 0 0 1 37.769531 28.849609 A 1.6020222 1.6020222 0 0 1 36.167969 27.248047 A 1.6020222 1.6020222 0 0 1 37.769531 25.644531 z M 43.591797 25.644531 A 1.6020222 1.6020222 0 0 1 45.193359 27.248047 A 1.6020222 1.6020222 0 0 1 43.591797 28.849609 A 1.6020222 1.6020222 0 0 1 41.990234 27.248047 A 1.6020222 1.6020222 0 0 1 43.591797 25.644531 z M 40.681641 28.556641 A 1.6020222 1.6020222 0 0 1 42.283203 30.158203 A 1.6020222 1.6020222 0 0 1 40.681641 31.761719 A 1.6020222 1.6020222 0 0 1 39.080078 30.158203 A 1.6020222 1.6020222 0 0 1 40.681641 28.556641 z " />
</svg>
