<?xml version="1.0" encoding="UTF-8" standalone="no"?>
<svg
   height="64"
   width="64"
   version="1.1"
   id="svg13"
   xml:space="preserve"
   xmlns:xlink="http://www.w3.org/1999/xlink"
   xmlns="http://www.w3.org/2000/svg"
   xmlns:svg="http://www.w3.org/2000/svg"
   xmlns:rdf="http://www.w3.org/1999/02/22-rdf-syntax-ns#"
   xmlns:cc="http://creativecommons.org/ns#"
   xmlns:dc="http://purl.org/dc/elements/1.1/"><metadata
     id="metadata19"><rdf:RDF><cc:Work
         rdf:about=""><dc:format>image/svg+xml</dc:format><dc:type
           rdf:resource="http://purl.org/dc/dcmitype/StillImage" /></cc:Work></rdf:RDF></metadata><defs
     id="defs17"><style
       id="style4"
       type="text/css" /><style
       id="style6"
       type="text/css" /><style
       id="style8"
       type="text/css" /><filter
       color-interpolation-filters="sRGB"
       height="1.048"
       width="1.048"
       y="-0.024"
       x="-0.024"
       id="filter2761-3"><feGaussianBlur
         id="feGaussianBlur10"
         stdDeviation="0.14552168" /></filter><linearGradient
       gradientUnits="userSpaceOnUse"
       gradientTransform="matrix(3.7796,0,0,3.7796,-0.003213,0.53084)"
       y2="1.17"
       y1="15.576"
       x2="15.65"
       x1="1.3315001"
       id="linearGradient1024"><stop
         id="stop13"
         offset="0"
         stop-color="#96aab4" /><stop
         id="stop15"
         offset="1"
         stop-color="#a0b4c3" /></linearGradient><filter
       color-interpolation-filters="sRGB"
       height="1.048"
       width="1.048"
       y="-0.024"
       x="-0.024"
       id="filter2761"><feGaussianBlur
         id="feGaussianBlur4"
         stdDeviation="0.14552168" /></filter><linearGradient
       gradientUnits="userSpaceOnUse"
       gradientTransform="translate(16.851507,0.14045)"
       y2="1.1082"
       y1="15.429"
       x2="15.644"
       x1="1.2573"
       id="linearGradient4673"><stop
         id="stop7-3"
         offset="0"
         stop-color="#a0b9cd" /><stop
         id="stop9-6"
         offset=".47728"
         stop-color="#96b4c8" /><stop
         id="stop11"
         offset="1"
         stop-color="#a0b9cd" /></linearGradient><filter
       color-interpolation-filters="sRGB"
       height="1.168"
       width="1.168"
       y="-0.084005997"
       x="-0.083994001"
       id="filter917"><feGaussianBlur
         id="feGaussianBlur14"
         stdDeviation="0.22223482" /></filter><linearGradient
       gradientUnits="userSpaceOnUse"
       gradientTransform="matrix(0.32664815,0,0,0.32664815,0.63054332,0.95372475)"
       y2="4"
       y1="44"
       x2="0"
       id="linearGradient890"><stop
         id="stop4-7"
         offset="0"
         stop-color="#FFB900" /><stop
         id="stop6"
         offset="1"
         stop-color="#ff0" /></linearGradient><filter
       color-interpolation-filters="sRGB"
       height="1.048"
       width="1.048"
       y="-0.024"
       x="-0.024"
       id="filter2761-67"><feGaussianBlur
         id="feGaussianBlur9"
         stdDeviation="0.14552168" /></filter><linearGradient
       gradientUnits="userSpaceOnUse"
       gradientTransform="matrix(3.7796,0,0,3.7796,66.443573,0.53068)"
       y2="1.1082"
       y1="15.601"
       x2="15.644"
       x1="1.4377"
       id="linearGradient4673-5"><stop
         id="stop12-5"
         offset="0"
         stop-color="#dc2828" /><stop
         id="stop14-3"
         offset="1"
         stop-color="#fa4141" /></linearGradient><linearGradient
       gradientTransform="scale(0.26457812)"
       gradientUnits="userSpaceOnUse"
       y2="9.6700001"
       y1="54.591999"
       x2="34.133999"
       x1="34.133999"
       id="linearGradient915"><stop
         id="stop17"
         offset="0"
         stop-color="#ffb900" /><stop
         id="stop19"
         offset="1"
         stop-color="#ff0" /></linearGradient><linearGradient
       id="linearGradient890-3"
       x2="0"
       y1="44"
       y2="4"
       gradientTransform="matrix(1.2346,0,0,1.2346,3.1419,3.6047)"
       gradientUnits="userSpaceOnUse"><stop
         stop-color="#FFB900"
         offset="0"
         id="stop861" /><stop
         stop-color="#ff0"
         offset="1"
         id="stop863" /></linearGradient><filter
       id="filter2761-6"
       x="-0.024"
       y="-0.024"
       width="1.048"
       height="1.048"
       color-interpolation-filters="sRGB"><feGaussianBlur
         stdDeviation="0.14552168"
         id="feGaussianBlur866" /></filter><linearGradient
       id="linearGradient1057"><stop
         id="stop4-3"
         offset="0"
         stop-color="#fff" /><stop
         id="stop6-3"
         offset="1"
         stop-opacity="0"
         stop-color="#fff" /></linearGradient><linearGradient
       gradientUnits="userSpaceOnUse"
       gradientTransform="matrix(1.5625,0,0,1.5625,0.40633,-5.1891)"
       y2="52.847"
       y1="27.545"
       x2="34.999"
       x1="34.999"
       id="linearGradient982"><stop
         id="stop9"
         offset="0"
         stop-color="#32b4ff" /><stop
         id="stop11-5"
         offset="1"
         stop-color="#3287ff" /></linearGradient><style
       id="style14"
       type="text/css" /><style
       id="style16"
       type="text/css" /><linearGradient
       gradientUnits="userSpaceOnUse"
       gradientTransform="matrix(1.5625,0,0,1.5625,-9.2253,1.3231)"
       y2="43.681"
       y1="18.052"
       x2="21.314"
       x1="21.314"
       id="linearGradient1047"><stop
         id="stop18"
         offset="0"
         stop-color="#14dc78" /><stop
         id="stop20"
         offset="1"
         stop-color="#14a03c" /></linearGradient><linearGradient
       gradientUnits="userSpaceOnUse"
       gradientTransform="matrix(1.5625,0,0,1.5625,-8.1072,-10.908)"
       y2="37.368"
       y1="12.316"
       x2="41.729"
       x1="41.729"
       id="linearGradient1049"><stop
         id="stop23"
         offset="0"
         stop-color="#ff3c64" /><stop
         id="stop25"
         offset="1"
         stop-color="#ff4628" /></linearGradient><linearGradient
       xlink:href="#linearGradient1057"
       gradientUnits="userSpaceOnUse"
       gradientTransform="matrix(1,0,0,1.2271,0.20646,-10.975)"
       y2="39.768"
       y1="32.234"
       x2="34.427"
       x1="34.427"
       id="linearGradient1059" /><linearGradient
       xlink:href="#linearGradient1057"
       gradientUnits="userSpaceOnUse"
       gradientTransform="matrix(1,0,0,1.2271,-12.55,-19.793)"
       y2="39.768"
       y1="32.234"
       x2="34.427"
       x1="34.427"
       id="linearGradient1063" /><linearGradient
       xlink:href="#linearGradient1057"
       gradientUnits="userSpaceOnUse"
       gradientTransform="matrix(1,0,0,1.2271,5.7554,-25.761)"
       y2="39.768"
       y1="32.234"
       x2="34.427"
       x1="34.427"
       id="linearGradient1067" /><filter
       color-interpolation-filters="sRGB"
       height="1.048"
       width="1.048"
       y="-.024"
       x="-.024"
       id="filter2761-62"><feGaussianBlur
         id="feGaussianBlur31"
         stdDeviation="0.14552168" /></filter><linearGradient
       gradientUnits="userSpaceOnUse"
       gradientTransform="matrix(3.7796,0,0,3.7796,72.4059,0.53085)"
       y2="1.17"
       y1="15.576"
       x2="15.65"
       x1="1.3315"
       id="linearGradient1024-9"><stop
         id="stop34"
         offset="0"
         stop-color="#dddfe1" /><stop
         id="stop36"
         offset="1"
         stop-opacity=".99608"
         stop-color="#f3f4f6" /></linearGradient><filter
       color-interpolation-filters="sRGB"
       height="1.048"
       width="1.048"
       y="-.024"
       x="-.024"
       id="filter2761-3-1"><feGaussianBlur
         id="feGaussianBlur2"
         stdDeviation="0.14552168" /></filter><linearGradient
       gradientUnits="userSpaceOnUse"
       gradientTransform="translate(0 -.07421)"
       y2="1.17"
       y1="15.576"
       x2="15.65"
       x1="1.3315"
       id="linearGradient1024-6"><stop
         id="stop5"
         offset="0"
         stop-color="#dddfe1" /><stop
         id="stop7"
         offset="1"
         stop-opacity=".99608"
         stop-color="#f3f4f6" /></linearGradient><filter
       style="color-interpolation-filters:sRGB"
       id="filter1057-2"
       x="-0.026999999"
       width="1.054"
       y="-0.026999999"
       height="1.054"><feGaussianBlur
         stdDeviation="0.61875"
         id="feGaussianBlur1059-7" /></filter><linearGradient
       id="linearGradient1051-9"><stop
         style="stop-color:#1d1f22;stop-opacity:1;"
         offset="0"
         id="stop1047-3" /><stop
         style="stop-color:#2e3f4d;stop-opacity:0.99607843;"
         offset="1"
         id="stop1049-6" /></linearGradient><filter
       id="filter2761-6-0"
       x="-.024"
       y="-.024"
       width="1.048"
       height="1.048"
       color-interpolation-filters="sRGB"><feGaussianBlur
         stdDeviation="0.14552168"
         id="feGaussianBlur954" /></filter><linearGradient
       id="linearGradient1024-6-7"
       x1="1.3315"
       x2="15.65"
       y1="15.576"
       y2="1.17"
       gradientUnits="userSpaceOnUse"
       gradientTransform="matrix(3.779602,0,0,3.779602,2.0067227,-71.427714)"><stop
         stop-color="#dddfe1"
         offset="0"
         id="stop957" /><stop
         stop-color="#f3f4f6"
         stop-opacity=".99608"
         offset="1"
         id="stop959" /></linearGradient><linearGradient
       xlink:href="#linearGradient1051-9"
       id="linearGradient1182"
       gradientUnits="userSpaceOnUse"
       gradientTransform="translate(131.5,-0.50999931)"
       x1="-127"
       y1="60"
       x2="-72"
       y2="5" /></defs><linearGradient
     id="a"
     gradientTransform="matrix(1.1964631,-0.09976047,0.09976047,1.1964631,79.762327,4.097122)"
     gradientUnits="userSpaceOnUse"
     x1="27.3748"
     x2="23.996687"
     y1="43.918037"
     y2="4.0814948"><stop
       offset="0"
       stop-color="#95a9bb"
       id="stop2" /><stop
       offset="1"
       stop-color="#cad3dc"
       id="stop4" /></linearGradient><rect
     style="opacity:0.3;fill:#141414;fill-opacity:1;stroke-width:2.74436;stroke-linecap:round;filter:url(#filter1057-2)"
     id="rect1055-1"
     width="55"
     height="55"
     x="4.4999995"
     y="4.4999995"
     ry="15" /><rect
     ry="14.999999"
     y="4.5000019"
     x="4.5000019"
     height="54.999996"
     width="54.999996"
     id="rect1045-8"
     style="fill:url(#linearGradient1182);fill-opacity:1;stroke-width:2.74436;stroke-linecap:round" /><g
     id="g13605"
     style="fill:#fafafa;fill-opacity:1;stroke:#ffffff"
     transform="matrix(1.0198743,0,0,1.0198743,0.92470795,-0.65490196)"><path
       style="color:#000000;fill:#fafafa;fill-opacity:1;stroke:none;-inkscape-stroke:none"
       d="m 30.46875,12.732422 c -10.641515,0 -19.285156,8.645594 -19.285156,19.287109 0,10.641515 8.643641,19.285156 19.285156,19.285156 10.641515,0 19.287109,-8.643641 19.287109,-19.285156 0,-10.641515 -8.645594,-19.287109 -19.287109,-19.287109 z m 0,1.638672 c 9.756313,0 17.648438,7.892125 17.648437,17.648437 0,9.756313 -7.892124,17.646485 -17.648437,17.646485 -9.756313,0 -17.646484,-7.890172 -17.646484,-17.646485 0,-9.756312 7.890171,-17.648437 17.646484,-17.648437 z"
       id="path569" /><g
       id="path510"
       style="fill:#fafafa;fill-opacity:1"><path
         style="color:#000000;fill:#fafafa;fill-opacity:1;stroke:none;stroke-width:0.124935;-inkscape-stroke:none"
         d="m 34.72454,17.727808 v 6.122206 h -4.238528 c -1.889128,-1.88778 -3.778098,-3.775875 -5.667216,-5.663665 -4.31013,1.741567 -7.952352,6.393513 -8.965387,10.182599 l 12.30389,0.196738 c 1.895513,1.894175 3.742133,3.695169 5.637645,5.589343 v 12.683134 c 4.382342,-1.165185 8.769238,-4.725738 10.368054,-8.408825 l -5.251891,-5.576734 v -4.134516 h 6.256419 C 44.239051,23.774266 39.119395,18.216422 34.72454,17.727798 Z m -1.489305,8.237506 c 1.821239,-3.25e-4 4.036172,2.474985 3.186928,4.061809 -0.373792,0.698436 -1.471795,0.901294 -2.456914,0.453967 -1.953002,-0.886823 -2.913979,-3.611777 -1.526619,-4.32921 0.248041,-0.12826 0.517684,-0.186517 0.796605,-0.186566 z"
         id="path13615" /><path
         style="color:#000000;fill:#fafafa;fill-opacity:1;stroke:none;-inkscape-stroke:none"
         d="m 34.662109,17.658203 v 0.07031 6.058593 h -4.152343 c -1.882609,-1.881268 -3.763878,-3.763248 -5.646485,-5.644531 l -0.0293,-0.0293 -0.03906,0.01563 c -4.334617,1.751462 -7.982565,6.411759 -9.001953,10.22461 l -0.02149,0.07617 12.361328,0.199219 c 1.882984,1.881349 3.717274,3.672003 5.59961,5.552735 V 46.91992 l 0.07813,-0.02148 c 4.402873,-1.170643 8.800577,-4.735479 10.410156,-8.443359 l 0.01563,-0.03906 -5.263672,-5.587891 v -4.04688 h 6.269531 l -0.01367,-0.07422 c -0.467298,-2.488205 -1.985167,-5.121302 -3.9375,-7.197265 -1.952333,-2.075963 -4.339918,-3.596859 -6.560547,-3.84375 z m 0.125,0.15625 c 2.155327,0.265398 4.496166,1.741907 6.414063,3.78125 1.919021,2.040539 3.399823,4.62626 3.876953,7.060547 h -6.228516 v 4.220703 l 5.234375,5.560547 c -1.590711,3.624065 -5.904697,7.130864 -10.226562,8.308594 V 34.128906 l -0.01758,-0.01758 C 31.943987,32.21681 30.096336,30.415311 28.20117,28.521482 L 28.18359,28.503902 15.945309,28.30859 c 1.031136,-3.741787 4.620614,-8.313538 8.863281,-10.044922 1.878038,1.876724 3.754755,3.754142 5.632812,5.630859 l 0.01953,0.01758 h 4.326172 z m -1.552734,8.087891 c -0.287612,5e-5 -0.566626,0.06016 -0.824219,0.193359 -0.363785,0.188121 -0.576848,0.513524 -0.654297,0.898438 -0.07745,0.384914 -0.02357,0.830289 0.134766,1.279296 0.316678,0.898015 1.053909,1.811897 2.048828,2.263672 0.503751,0.228746 1.035755,0.293678 1.494141,0.208985 0.458385,-0.08469 0.845253,-0.320019 1.042968,-0.689453 0.441659,-0.825246 0.08718,-1.866554 -0.597656,-2.695313 -0.684834,-0.828759 -1.705607,-1.459152 -2.644531,-1.458984 z m 0,0.125 c 0.882314,-1.58e-4 1.881245,0.608543 2.546875,1.414062 0.66563,0.805519 0.993522,1.795064 0.585937,2.556641 -0.176075,0.329 -0.524735,0.545488 -0.955078,0.625 -0.430342,0.07951 -0.940508,0.01936 -1.421875,-0.199219 -0.95808,-0.435047 -1.677201,-1.325881 -1.982422,-2.191406 -0.15261,-0.432762 -0.200437,-0.857385 -0.128906,-1.212891 0.07153,-0.355505 0.257996,-0.641904 0.587891,-0.8125 0.238489,-0.12332 0.497348,-0.17964 0.767578,-0.179687 z"
         id="path13617" /></g></g></svg>
