<?xml version="1.0" encoding="UTF-8" standalone="no"?>
<svg
   sodipodi:docname="tor.svg"
   inkscape:version="1.2.1 (9c6d41e410, 2022-07-14)"
   id="svg6"
   version="1.1"
   viewBox="0 0 16.933333 16.933333"
   height="64"
   width="64"
   inkscape:export-filename="1.png"
   inkscape:export-xdpi="96"
   inkscape:export-ydpi="96"
   xml:space="preserve"
   xmlns:inkscape="http://www.inkscape.org/namespaces/inkscape"
   xmlns:sodipodi="http://sodipodi.sourceforge.net/DTD/sodipodi-0.dtd"
   xmlns="http://www.w3.org/2000/svg"
   xmlns:svg="http://www.w3.org/2000/svg"
   xmlns:rdf="http://www.w3.org/1999/02/22-rdf-syntax-ns#"
   xmlns:cc="http://creativecommons.org/ns#"
   xmlns:dc="http://purl.org/dc/elements/1.1/"><metadata
     id="metadata43"><rdf:RDF><cc:Work
         rdf:about=""><dc:format>image/svg+xml</dc:format><dc:type
           rdf:resource="http://purl.org/dc/dcmitype/StillImage" /></cc:Work></rdf:RDF></metadata><defs
     id="defs2"><linearGradient
       id="lgrad"
       x1="32"
       y1="32"
       x2="32"
       y2="992"
       gradientUnits="userSpaceOnUse"
       gradientTransform="translate(0,-896)"><stop
         offset="0%"
         stop-color="#f8f8f8"
         id="stop2" /><stop
         offset="100%"
         stop-color="#ccc"
         id="stop4" /></linearGradient><radialGradient
       id="rgrad"
       x1="0%"
       y1="0%"
       x2="0%"
       y2="100%"
       fx="512"
       fy="494.39999"
       cx="512"
       cy="512"
       r="440"
       gradientUnits="userSpaceOnUse"
       gradientTransform="translate(0,-896)"><stop
         offset="0%"
         stop-color="#00f0ff"
         id="stop7" /><stop
         offset="100%"
         stop-color="#0070e0"
         id="stop9" /></radialGradient><radialGradient
       gradientTransform="matrix(0.03024122,0,0,0.02958968,1.132043,2.8247994)"
       gradientUnits="userSpaceOnUse"
       r="440"
       cy="306.1813"
       cx="523.57568"
       fy="306.1813"
       fx="523.57568"
       y2="100%"
       x2="0%"
       y1="0%"
       x1="0%"
       id="rgrad-3"><stop
         style="stop-color:#03d7e4;stop-opacity:1"
         id="stop7-6"
         stop-color="#00f0ff"
         offset="0%" /><stop
         id="stop9-7"
         stop-color="#0070e0"
         offset="100%" /></radialGradient><clipPath
       clipPathUnits="userSpaceOnUse"
       id="clipPath971"><path
         style="opacity:1;fill:#917c6f;fill-opacity:1;stroke:none;stroke-width:0.3;stroke-linecap:round;stroke-linejoin:round;stroke-miterlimit:4;stroke-dasharray:none;stroke-opacity:1"
         d="m -0.55397135,-0.27595216 c -0.027071,2e-8 -0.0485759,0.0220216 -0.0485759,0.0490926 V 33.951415 c 2e-8,0.02707 0.0215048,0.04909 0.0485759,0.04909 H 33.76073 c 0.02707,0 0.04909,-0.02201 0.04909,-0.04909 V -0.22685954 c 0,-0.027071 -0.02201,-0.0490926 -0.04909,-0.0490926 z M 8.8459717,2.5187093 H 25.034131 c 3.572997,0 6.449735,2.8762216 6.449735,6.4492187 v 16.188676 c 0,3.572997 -2.876738,6.449219 -6.449735,6.449219 H 8.8459717 c -3.5729971,0 -6.4497356,-2.876222 -6.4497356,-6.449219 V 8.967928 c 0,-3.5729971 2.8767385,-6.4492187 6.4497356,-6.4492187 z"
         id="path973"
         inkscape:connector-curvature="0" /></clipPath><linearGradient
       id="linearGradient862-3-7"
       x1="7.9373002"
       x2="7.9373002"
       y1="15.081"
       y2="1.852"
       gradientTransform="translate(28.083948,0.0767027)"
       gradientUnits="userSpaceOnUse"><stop
         stop-color="#873df0"
         offset="0"
         id="stop449"
         style="stop-color:#8117ba;stop-opacity:1" /><stop
         stop-color="#f25ef3"
         offset="1"
         id="stop451"
         style="stop-color:#bf10ff;stop-opacity:1" /></linearGradient><filter
       id="filter1057-7"
       x="-0.026999999"
       y="-0.026999999"
       width="1.054"
       height="1.054"
       color-interpolation-filters="sRGB"><feGaussianBlur
         stdDeviation="0.61875"
         id="feGaussianBlur288" /></filter><linearGradient
       id="linearGradient1053-0"
       x1="-127"
       x2="-72"
       y1="60"
       y2="5"
       gradientTransform="matrix(0.26458333,0,0,0.26458333,34.792708,-0.1349376)"
       gradientUnits="userSpaceOnUse"><stop
         stop-color="#8c28c8"
         offset="0"
         id="stop291" /><stop
         stop-color="#c864ff"
         stop-opacity=".99608"
         offset="1"
         id="stop293" /></linearGradient></defs><sodipodi:namedview
     inkscape:window-maximized="1"
     inkscape:window-y="0"
     inkscape:window-x="0"
     inkscape:window-height="1004"
     inkscape:window-width="1920"
     units="px"
     showgrid="false"
     inkscape:current-layer="layer1"
     inkscape:document-units="mm"
     inkscape:cy="30.557114"
     inkscape:cx="38.764604"
     inkscape:zoom="3.959798"
     inkscape:pageshadow="2"
     inkscape:pageopacity="0.0"
     borderopacity="1.0"
     bordercolor="#666666"
     pagecolor="#ffffff"
     id="base"
     inkscape:showpageshadow="0"
     inkscape:pagecheckerboard="0"
     inkscape:deskcolor="#d1d1d1" /><g
     id="layer1"
     inkscape:groupmode="layer"
     inkscape:label="Layer 1"><rect
       x="4.5"
       y="4.5"
       width="55"
       height="55"
       ry="15"
       fill="#141414"
       filter="url(#filter1057-7)"
       opacity="0.3"
       stroke-linecap="round"
       stroke-width="2.7444"
       id="rect298"
       transform="scale(0.26458333)" /><rect
       x="1.1906247"
       y="1.1906251"
       width="14.552083"
       height="14.552083"
       ry="3.96875"
       fill="url(#linearGradient1053-0)"
       stroke-linecap="round"
       stroke-width="0.726122"
       id="rect300"
       style="fill:url(#linearGradient1053-0)" /><circle
       style="opacity:1;fill:#470075;fill-opacity:1;fill-rule:evenodd;stroke-width:0.510029;stroke-linecap:round;stroke-linejoin:round;paint-order:stroke fill markers"
       id="circle596"
       cx="8.4666662"
       cy="8.4666662"
       r="5.953125"
       inkscape:export-filename="1.png"
       inkscape:export-xdpi="96"
       inkscape:export-ydpi="96" /><g
       transform="matrix(0.2425356,0,0,0.2425356,0.705564,0.7055643)"
       fill="#ffffff"
       stroke-linecap="round"
       stroke-linejoin="round"
       id="g308"><path
         d="m 32,24 v 16 a 8,8 0 0 0 8,-8 8,8 0 0 0 -8,-8 z"
         color="#000000"
         id="path302" /><path
         d="m 32,16 v 4.3633 c 6.4523,0 11.637,5.1844 11.637,11.637 0,6.4526 -5.1844,11.637 -11.637,11.637 v 4.3633 c 8.8106,0 16,-7.1894 16,-16 0,-8.8106 -7.1894,-16 -16,-16 z"
         color="#000000"
         id="path304" /><path
         d="m 32,8 v 4.2363 c 10.941,0 19.764,8.8231 19.764,19.764 0,10.9409 -8.8231,19.764 -19.764,19.764 v 4.2363 c 13.23,0 24,-10.77 24,-24 0,-13.23 -10.77,-24 -24,-24 z"
         color="#000000"
         id="path306" /></g></g></svg>
