<?xml version="1.0" encoding="UTF-8" standalone="no"?>
<svg
   sodipodi:docname="torguard.svg"
   inkscape:version="1.2.1 (9c6d41e410, 2022-07-14)"
   id="svg6"
   version="1.1"
   viewBox="0 0 16.933333 16.933333"
   height="64"
   width="64"
   inkscape:export-filename="/home/eleme/.icons/Mkos-Big-Sur/128x128/apps/sombra.png"
   inkscape:export-xdpi="96"
   inkscape:export-ydpi="96"
   xml:space="preserve"
   xmlns:inkscape="http://www.inkscape.org/namespaces/inkscape"
   xmlns:sodipodi="http://sodipodi.sourceforge.net/DTD/sodipodi-0.dtd"
   xmlns="http://www.w3.org/2000/svg"
   xmlns:svg="http://www.w3.org/2000/svg"
   xmlns:rdf="http://www.w3.org/1999/02/22-rdf-syntax-ns#"
   xmlns:cc="http://creativecommons.org/ns#"
   xmlns:dc="http://purl.org/dc/elements/1.1/"><metadata
     id="metadata43"><rdf:RDF><cc:Work
         rdf:about=""><dc:format>image/svg+xml</dc:format><dc:type
           rdf:resource="http://purl.org/dc/dcmitype/StillImage" /></cc:Work></rdf:RDF></metadata><defs
     id="defs2"><linearGradient
       id="lgrad"
       x1="32"
       y1="32"
       x2="32"
       y2="992"
       gradientUnits="userSpaceOnUse"
       gradientTransform="translate(0,-896)"><stop
         offset="0%"
         stop-color="#f8f8f8"
         id="stop2" /><stop
         offset="100%"
         stop-color="#ccc"
         id="stop4" /></linearGradient><radialGradient
       id="rgrad"
       x1="0%"
       y1="0%"
       x2="0%"
       y2="100%"
       fx="512"
       fy="494.39999"
       cx="512"
       cy="512"
       r="440"
       gradientUnits="userSpaceOnUse"
       gradientTransform="translate(0,-896)"><stop
         offset="0%"
         stop-color="#00f0ff"
         id="stop7" /><stop
         offset="100%"
         stop-color="#0070e0"
         id="stop9" /></radialGradient><radialGradient
       gradientTransform="matrix(0.03024122,0,0,0.02958968,1.132043,2.8247994)"
       gradientUnits="userSpaceOnUse"
       r="440"
       cy="306.1813"
       cx="523.57568"
       fy="306.1813"
       fx="523.57568"
       y2="100%"
       x2="0%"
       y1="0%"
       x1="0%"
       id="rgrad-3"><stop
         style="stop-color:#03d7e4;stop-opacity:1"
         id="stop7-6"
         stop-color="#00f0ff"
         offset="0%" /><stop
         id="stop9-7"
         stop-color="#0070e0"
         offset="100%" /></radialGradient><clipPath
       clipPathUnits="userSpaceOnUse"
       id="clipPath971"><path
         style="opacity:1;fill:#917c6f;fill-opacity:1;stroke:none;stroke-width:0.3;stroke-linecap:round;stroke-linejoin:round;stroke-miterlimit:4;stroke-dasharray:none;stroke-opacity:1"
         d="m -0.55397135,-0.27595216 c -0.027071,2e-8 -0.0485759,0.0220216 -0.0485759,0.0490926 V 33.951415 c 2e-8,0.02707 0.0215048,0.04909 0.0485759,0.04909 H 33.76073 c 0.02707,0 0.04909,-0.02201 0.04909,-0.04909 V -0.22685954 c 0,-0.027071 -0.02201,-0.0490926 -0.04909,-0.0490926 z M 8.8459717,2.5187093 H 25.034131 c 3.572997,0 6.449735,2.8762216 6.449735,6.4492187 v 16.188676 c 0,3.572997 -2.876738,6.449219 -6.449735,6.449219 H 8.8459717 c -3.5729971,0 -6.4497356,-2.876222 -6.4497356,-6.449219 V 8.967928 c 0,-3.5729971 2.8767385,-6.4492187 6.4497356,-6.4492187 z"
         id="path973"
         inkscape:connector-curvature="0" /></clipPath><linearGradient
       id="linearGradient862"
       x1="7.9373002"
       x2="7.9373002"
       y1="15.081"
       y2="1.852"
       gradientTransform="matrix(1.0000192,0,0,1.0000192,-7.9e-5,-2.641e-4)"
       gradientUnits="userSpaceOnUse"><stop
         stop-color="#0e71de"
         offset="0"
         id="stop313"
         style="stop-color:#06061e;stop-opacity:1" /><stop
         stop-color="#25c9ff"
         offset="1"
         id="stop315"
         style="stop-color:#1b1c44;stop-opacity:1" /></linearGradient><filter
       id="filter1057-2"
       x="-0.026999999"
       y="-0.026999999"
       width="1.054"
       height="1.054"
       color-interpolation-filters="sRGB"><feGaussianBlur
         stdDeviation="0.61875"
         id="feGaussianBlur2417" /></filter><linearGradient
       id="linearGradient1053-0-2"
       x1="-127"
       x2="-72"
       y1="60"
       y2="5"
       gradientTransform="matrix(0.26458333,0,0,0.26458333,34.792708,-0.13493761)"
       gradientUnits="userSpaceOnUse"><stop
         stop-color="#1d2123"
         offset="0"
         id="stop2420" /><stop
         stop-color="#33393e"
         stop-opacity=".99608"
         offset="1"
         id="stop2422" /></linearGradient></defs><sodipodi:namedview
     inkscape:window-maximized="1"
     inkscape:window-y="0"
     inkscape:window-x="0"
     inkscape:window-height="1004"
     inkscape:window-width="1920"
     units="px"
     showgrid="true"
     inkscape:current-layer="layer1"
     inkscape:document-units="mm"
     inkscape:cy="34.194946"
     inkscape:cx="41.40361"
     inkscape:zoom="5.4101563"
     inkscape:pageshadow="2"
     inkscape:pageopacity="0.0"
     borderopacity="1.0"
     bordercolor="#666666"
     pagecolor="#ffffff"
     id="base"
     inkscape:showpageshadow="0"
     inkscape:pagecheckerboard="0"
     inkscape:deskcolor="#d1d1d1"><inkscape:grid
       type="xygrid"
       id="grid2242" /></sodipodi:namedview><g
     id="layer1"
     inkscape:groupmode="layer"
     inkscape:label="Layer 1"><rect
       x="4.5"
       y="4.5"
       width="55"
       height="55"
       ry="15"
       fill="#141414"
       filter="url(#filter1057-2)"
       opacity="0.3"
       stroke-linecap="round"
       stroke-width="2.7444"
       id="rect2427"
       transform="scale(0.26458333)" /><rect
       x="1.1906255"
       y="1.1906248"
       width="14.552083"
       height="14.552083"
       ry="3.96875"
       fill="url(#linearGradient1053-0-2)"
       stroke-width="0.726122"
       id="rect2429"
       style="fill:url(#linearGradient1053-0-2);stroke-linecap:round" /><g
       id="g2667"><path
         id="path2663"
         style="fill:#ffffff;fill-opacity:1;stroke-width:0.0119325"
         d="m 8.4666667,6.999056 c -1.4097586,0 -2.5531455,0.9910801 -2.8199829,2.2866821 -0.9528635,0.076218 -1.7528765,0.9148129 -1.7528646,1.9053099 0,1.067325 0.838526,1.905827 1.9058268,1.905827 H 5.861658 C 7.5052912,9.7425731 9.8929834,9.0657104 10.08724,8.992216 10.1669,8.962081 10.229118,8.946329 10.277409,8.94364 c 0.08048,-0.00448 0.122007,0.027219 0.137976,0.087333 0.02554,0.096179 -0.06873,0.1477946 -0.06873,0.1477946 C 8.0755499,10.191402 7.1300912,12.097066 6.7763305,13.096875 h 0.7074503 c 0.8445333,-1.914787 2.5392522,-2.79722 2.6649532,-2.861841 0.07637,-0.03927 0.13165,-0.0566 0.171566,-0.05529 0.03992,0.0013 0.06433,0.02128 0.07803,0.05633 0.02742,0.07008 -0.03876,0.116789 -0.03876,0.116789 -1.1560582,0.824521 -1.7872218,1.942817 -2.1151162,2.744019 h 0.6707601 c 0.5574288,-0.992312 1.2339791,-1.569845 1.3063801,-1.630909 0.07385,-0.06227 0.128453,-0.09143 0.169499,-0.09405 0.03192,-0.002 0.05586,0.01207 0.07441,0.03927 0.04241,0.06217 -0.01189,0.122473 -0.01189,0.122473 -0.445604,0.502494 -0.7613209,1.042761 -0.9859865,1.563213 h 1.2857095 c 1.257358,0 2.286165,-1.029313 2.286165,-2.286683 0,-1.181702 -0.87631,-2.1343269 -2.057755,-2.2861653 C 10.524558,7.6093711 9.5721987,6.999056 8.4666667,6.999056 Z" /><path
         id="path2665"
         style="fill:#ffffff;fill-opacity:1;fill-rule:evenodd;stroke-width:0.889877;stroke-linecap:round;stroke-linejoin:round;paint-order:stroke fill markers"
         d="m 7.7478475,3.8364583 c -1.4657887,0 -2.6458333,1.1800446 -2.6458333,2.6458334 v 3.1305582 c 0,0.1683673 0.015692,0.3330047 0.045475,0.4924761 L 6.1686157,9.7745972 c -0.00533,-0.053166 -0.00827,-0.1071305 -0.00827,-0.1617473 V 6.4822917 c 0,-0.8794734 0.7080267,-1.5875 1.5875,-1.5875 0.8794732,0 1.5875,0.7080266 1.5875,1.5875 V 8.7493368 L 10.393681,8.4072388 V 6.4822917 c 0,-1.4657888 -1.1800449,-2.6458334 -2.6458335,-2.6458334 z" /></g></g></svg>
