<?xml version="1.0" encoding="UTF-8" standalone="no"?>
<svg
   sodipodi:docname="ubittorrent.svg"
   inkscape:version="1.2.1 (9c6d41e410, 2022-07-14)"
   id="svg6"
   version="1.1"
   viewBox="0 0 16.933333 16.933333"
   height="64"
   width="64"
   inkscape:export-filename="/home/eleme/.icons/Mkos-Big-Sur/128x128/apps/sombra.png"
   inkscape:export-xdpi="96"
   inkscape:export-ydpi="96"
   xmlns:inkscape="http://www.inkscape.org/namespaces/inkscape"
   xmlns:sodipodi="http://sodipodi.sourceforge.net/DTD/sodipodi-0.dtd"
   xmlns="http://www.w3.org/2000/svg"
   xmlns:svg="http://www.w3.org/2000/svg"
   xmlns:rdf="http://www.w3.org/1999/02/22-rdf-syntax-ns#"
   xmlns:cc="http://creativecommons.org/ns#"
   xmlns:dc="http://purl.org/dc/elements/1.1/">
  <metadata
     id="metadata43">
    <rdf:RDF>
      <cc:Work
         rdf:about="">
        <dc:format>image/svg+xml</dc:format>
        <dc:type
           rdf:resource="http://purl.org/dc/dcmitype/StillImage" />
      </cc:Work>
    </rdf:RDF>
  </metadata>
  <defs
     id="defs2">
    <linearGradient
       id="lgrad"
       x1="32"
       y1="32"
       x2="32"
       y2="992"
       gradientUnits="userSpaceOnUse"
       gradientTransform="translate(0,-896)">
      <stop
         offset="0%"
         stop-color="#f8f8f8"
         id="stop2" />
      <stop
         offset="100%"
         stop-color="#ccc"
         id="stop4" />
    </linearGradient>
    <radialGradient
       id="rgrad"
       x1="0%"
       y1="0%"
       x2="0%"
       y2="100%"
       fx="512"
       fy="494.39999"
       cx="512"
       cy="512"
       r="440"
       gradientUnits="userSpaceOnUse"
       gradientTransform="translate(0,-896)">
      <stop
         offset="0%"
         stop-color="#00f0ff"
         id="stop7" />
      <stop
         offset="100%"
         stop-color="#0070e0"
         id="stop9" />
    </radialGradient>
    <radialGradient
       gradientTransform="matrix(0.03024122,0,0,0.02958968,1.132043,2.8247994)"
       gradientUnits="userSpaceOnUse"
       r="440"
       cy="306.1813"
       cx="523.57568"
       fy="306.1813"
       fx="523.57568"
       y2="100%"
       x2="0%"
       y1="0%"
       x1="0%"
       id="rgrad-3">
      <stop
         style="stop-color:#03d7e4;stop-opacity:1"
         id="stop7-6"
         stop-color="#00f0ff"
         offset="0%" />
      <stop
         id="stop9-7"
         stop-color="#0070e0"
         offset="100%" />
    </radialGradient>
    <clipPath
       clipPathUnits="userSpaceOnUse"
       id="clipPath971">
      <path
         style="opacity:1;fill:#917c6f;fill-opacity:1;stroke:none;stroke-width:0.3;stroke-linecap:round;stroke-linejoin:round;stroke-miterlimit:4;stroke-dasharray:none;stroke-opacity:1"
         d="m -0.55397135,-0.27595216 c -0.027071,2e-8 -0.0485759,0.0220216 -0.0485759,0.0490926 V 33.951415 c 2e-8,0.02707 0.0215048,0.04909 0.0485759,0.04909 H 33.76073 c 0.02707,0 0.04909,-0.02201 0.04909,-0.04909 V -0.22685954 c 0,-0.027071 -0.02201,-0.0490926 -0.04909,-0.0490926 z M 8.8459717,2.5187093 H 25.034131 c 3.572997,0 6.449735,2.8762216 6.449735,6.4492187 v 16.188676 c 0,3.572997 -2.876738,6.449219 -6.449735,6.449219 H 8.8459717 c -3.5729971,0 -6.4497356,-2.876222 -6.4497356,-6.449219 V 8.967928 c 0,-3.5729971 2.8767385,-6.4492187 6.4497356,-6.4492187 z"
         id="path973"
         inkscape:connector-curvature="0" />
    </clipPath>
    <linearGradient
       id="linearGradient949"
       x1="7.9373002"
       x2="7.9373002"
       y1="15.081"
       y2="1.852"
       gradientTransform="matrix(1.0000192,0,0,1.0000192,21.21648,0)"
       gradientUnits="userSpaceOnUse">
      <stop
         stop-color="#1fe0aa"
         offset="0"
         id="stop355" />
      <stop
         stop-color="#b2ff85"
         offset="1"
         id="stop357" />
    </linearGradient>
    <filter
       id="filter915"
       x="-0.15516667"
       y="-0.13965001"
       width="1.3103333"
       height="1.2793"
       color-interpolation-filters="sRGB">
      <feGaussianBlur
         stdDeviation="2.3275"
         id="feGaussianBlur365" />
    </filter>
    <filter
       id="filter1057"
       x="-0.026999999"
       y="-0.026999999"
       width="1.054"
       height="1.054"
       color-interpolation-filters="sRGB">
      <feGaussianBlur
         stdDeviation="0.61875"
         id="feGaussianBlur305" />
    </filter>
    <linearGradient
       id="linearGradient1053"
       x1="-127"
       x2="-72"
       y1="60"
       y2="5"
       gradientTransform="matrix(0.26458521,0,0,0.26458521,34.792925,-0.13506272)"
       gradientUnits="userSpaceOnUse">
      <stop
         stop-color="#02db96"
         offset="0"
         id="stop308" />
      <stop
         stop-color="#13d39b"
         offset="1"
         id="stop310" />
    </linearGradient>
    <filter
       id="filter1311"
       x="-0.081084947"
       y="-0.2229836"
       width="1.1621699"
       height="1.4459672"
       color-interpolation-filters="sRGB">
      <feGaussianBlur
         stdDeviation="0.37163933"
         id="feGaussianBlur313" />
    </filter>
    <filter
       id="filter482"
       x="-0.081084944"
       y="-0.2229836"
       width="1.1621699"
       height="1.4459672"
       color-interpolation-filters="sRGB">
      <feGaussianBlur
         stdDeviation="0.37163933"
         id="feGaussianBlur480" />
    </filter>
    <filter
       id="filter486"
       x="-0.081084944"
       y="-0.2229836"
       width="1.1621699"
       height="1.4459672"
       color-interpolation-filters="sRGB">
      <feGaussianBlur
         stdDeviation="0.37163933"
         id="feGaussianBlur484" />
    </filter>
    <filter
       id="filter490"
       x="-0.081084944"
       y="-0.2229836"
       width="1.1621699"
       height="1.4459672"
       color-interpolation-filters="sRGB">
      <feGaussianBlur
         stdDeviation="0.37163933"
         id="feGaussianBlur488" />
    </filter>
  </defs>
  <sodipodi:namedview
     inkscape:window-maximized="1"
     inkscape:window-y="0"
     inkscape:window-x="0"
     inkscape:window-height="1002"
     inkscape:window-width="1920"
     units="px"
     showgrid="false"
     inkscape:current-layer="layer1"
     inkscape:document-units="mm"
     inkscape:cy="54.821429"
     inkscape:cx="37.991071"
     inkscape:zoom="11.2"
     inkscape:pageshadow="2"
     inkscape:pageopacity="0.0"
     borderopacity="1.0"
     bordercolor="#666666"
     pagecolor="#ffffff"
     id="base"
     inkscape:showpageshadow="0"
     inkscape:pagecheckerboard="0"
     inkscape:deskcolor="#d1d1d1" />
  <g
     id="layer1"
     inkscape:groupmode="layer"
     inkscape:label="Layer 1">
    <rect
       transform="matrix(0.26458521,0,0,0.26458521,-6.027771e-5,-6.00583e-5)"
       x="4.5"
       y="4.5"
       width="55"
       height="55"
       ry="15"
       fill="#141414"
       filter="url(#filter1057)"
       opacity="0.3"
       stroke-linecap="round"
       stroke-width="2.7444"
       id="rect320" />
    <rect
       x="1.1905632"
       y="1.190963"
       width="14.552287"
       height="14.552287"
       ry="3.9687781"
       fill="url(#linearGradient1053)"
       stroke-linecap="round"
       stroke-width="0.726124"
       id="rect322"
       style="fill:url(#linearGradient1053)" />
    <path
       inkscape:connector-curvature="0"
       style="fill:#ffffff;fill-opacity:1;stroke-width:0.433999"
       d="m 8.4666367,3.8854266 a 4.6738211,4.6738211 0 0 0 -4.673831,4.673832 4.6738211,4.6738211 0 0 0 2.523287,4.1451384 c -0.844503,-0.508063 -1.385376,-1.390889 -1.387163,-2.666688 -0.0021,-1.0824149 0.414361,-2.0960845 1.172257,-2.8560946 0.762135,-0.7631961 1.781211,-1.1840573 2.872079,-1.1840558 l 10e-7,0.7017575 c -0.902714,-2e-6 -1.746385,0.3478969 -2.375328,0.9778927 -0.625773,0.6268388 -0.968289,1.4639619 -0.967249,2.3582192 0.0028,1.639582 0.990466,2.857218 2.498945,3.110183 -0.266766,-0.0698 -0.520448,-0.19099 -0.741707,-0.385282 C 5.9270937,11.75508 5.4790217,9.9551293 6.3225447,8.480551 6.7242437,7.7786896 7.3901267,7.2723379 8.1977077,7.0545918 9.0200867,6.8326114 9.8743167,6.9415159 10.601566,7.3611574 L 10.250493,7.9701056 C 9.6860357,7.644536 9.0222817,7.5597903 8.3806557,7.7331471 c -0.62577,0.168065 -1.139362,0.5581483 -1.448016,1.096179 -0.658517,1.1500835 -0.29934,2.5600809 0.853895,3.3528629 1.421506,0.976286 2.4265083,0.698589 2.8618083,0.489898 -0.496541,0.08535 -0.8893863,0.09993 -1.9729103,-0.295537 -0.929143,-0.338256 -1.353301,-0.975832 -1.463235,-1.165035 -0.001,-7.5e-4 -0.01138,-0.02007 -0.01559,-0.02857 -0.0033,-0.0048 -0.0075,-0.01196 -0.0075,-0.01196 l 0.0011,6.7e-5 c -0.0022,-0.0042 -0.0083,-0.01463 -0.0084,-0.01563 l 0.0017,-0.0019 c -0.176527,-0.327681 -0.264349,-0.681732 -0.26435,-1.032663 -1e-6,-0.7568436 0.392328,-1.4935217 1.09318,-1.8983416 0.506325,-0.2917491 1.096179,-0.3702517 1.66064,-0.2190893 0.5644603,0.1522132 1.0360853,0.5137895 1.3278283,1.0201137 l 0.01139,0.021294 -0.619218,0.3297628 C 10.194315,9.0310765 9.8738607,8.7849034 9.4912137,8.6823614 c -0.383704,-0.102535 -0.784221,-0.04968 -1.127757,0.1479529 -0.475668,0.2758859 -0.742078,0.7756995 -0.742038,1.2894457 -1e-6,0.251574 0.0643,0.506575 0.198547,0.740171 7.1e-5,6e-4 -0.05374,-0.09623 0.0024,0.0042 0.05602,0.100424 0.361295,0.58638 1.09277,0.852761 1.2051943,0.439466 2.0548483,0.393128 2.6564143,0.328626 A 4.6738211,4.6738211 0 0 0 13.140528,8.559598 4.6738211,4.6738211 0 0 0 8.4666977,3.885767 Z m 2.5936513,8.5580514 c -0.06167,0.04098 -0.137473,0.08573 -0.209578,0.129697 a 4.6738211,4.6738211 0 0 0 0.209578,-0.129697 z M 7.9866247,13.20761 a 4.6738211,4.6738211 0 0 0 0.308088,0.01671 c -0.104099,-0.0022 -0.20665,-0.0084 -0.308088,-0.01671 z m 0.87634,0.0059 c -0.05461,0.0022 -0.109257,0.0066 -0.163931,0.0059 -0.129388,0.0066 -0.257332,0.0088 -0.3834,0.0066 a 4.6738211,4.6738211 0 0 0 0.151015,0.0076 4.6738211,4.6738211 0 0 0 0.396335,-0.01981 z"
       id="path1287" />
    <circle
       style="font-variation-settings:'wght' 700;fill:#f5f5f5;fill-opacity:1;fill-rule:evenodd;stroke-width:0.703774;stroke-linecap:round;stroke-linejoin:round;paint-order:stroke fill markers"
       id="path2700"
       cx="13.626041"
       cy="13.626041"
       r="3.3072917" />
    <path
       id="path36"
       style="fill:#323232;fill-opacity:1"
       d="M 12.798702 11.76569 L 12.798702 14.039453 L 11.765173 14.039453 L 13.625525 15.899805 L 15.485876 14.039453 L 14.452348 14.039453 L 14.452348 11.76569 L 12.798702 11.76569 z " />
  </g>
</svg>
