<?xml version="1.0" encoding="UTF-8"?>
<!-- Created with Inkscape (http://www.inkscape.org/) -->
<svg width="64" height="64" version="1.1" viewBox="0 0 16.933 16.933" xmlns="http://www.w3.org/2000/svg" xmlns:cc="http://creativecommons.org/ns#" xmlns:dc="http://purl.org/dc/elements/1.1/" xmlns:rdf="http://www.w3.org/1999/02/22-rdf-syntax-ns#">
 <defs>
  <filter id="filter2076-6" x="-.048" y="-.048" width="1.096" height="1.096" color-interpolation-filters="sRGB">
   <feGaussianBlur stdDeviation="1.1"/>
  </filter>
 </defs>
 <metadata>
  <rdf:RDF>
   <cc:Work rdf:about="">
    <dc:format>image/svg+xml</dc:format>
    <dc:type rdf:resource="http://purl.org/dc/dcmitype/StillImage"/>
   </cc:Work>
  </rdf:RDF>
 </metadata>
 <g transform="translate(19.069 1.2815)">
  <rect transform="matrix(.26458 0 0 .26458 -19.069 -1.2815)" x="4.5" y="4.5" width="55" height="55" rx="13.002" ry="13.002" filter="url(#filter2076-6)" opacity=".3"/>
  <path d="m-14.438-0.090874c-1.9058 0-3.44 1.5342-3.44 3.44v7.6717c0 1.9058 1.5342 3.44 3.44 3.44h7.6717c1.9058 0 3.44-1.5342 3.44-3.44v-7.6717c0-1.9058-1.5342-3.44-3.44-3.44z" fill="#1964ff" stroke-linecap="round" stroke-width=".079373" style="paint-order:stroke fill markers"/>
  <path d="m-14.217 1.4966c-1.1488 0-2.0737 0.92498-2.0737 2.0737v7.2294c0 1.1488 0.92498 2.0737 2.0737 2.0737h7.2294c1.1488 0 2.0737-0.92498 2.0737-2.0737v-7.2294c0-1.1488-0.92498-2.0737-2.0737-2.0737z" fill="#fafafa" stroke-linecap="round" stroke-width=".079373" style="paint-order:stroke fill markers"/>
  <path d="m-14.805 2.9462c5e-3 0.04062 0.0099 0.08118 0.01548 0.12163h8.376c0.0052-0.0437 0.0097-0.07849 0.01437-0.12163z" fill="#1964ff" opacity=".6" stroke-width=".67718" style="paint-order:normal"/>
  <path d="m-17.316 2.3084c-0.31183 0-0.56274 0.25092-0.56274 0.56274v1.8278c0 0.02268 0.0041 0.04418 0.0067 0.06615-0.0055 0.54053-0.0052 1.1567-0.0052 1.9652v0.22427h-5.16e-4v4.0663c0 0.03645 0.0041 0.07184 0.0052 0.108 2e-3 0.05118 0.0031 0.10258 0.0078 0.15296 0.12639 1.6956 1.4693 3.0388 3.1646 3.1662 0.08518 0.0081 0.17144 0.0128 0.25941 0.01292 0.0012 3e-6 0.0024 0 0.0036 0h7.6712 5.17e-4c0.08936 0 0.17707-0.0047 0.26354-0.01292 1.691-0.12755 3.0311-1.4649 3.1625-3.1548 0.0087-0.08956 0.01395-0.18019 0.01395-0.27233v-4.1439c1.6e-5 -0.0018 5.17e-4 -0.0034 5.17e-4 -0.0052v-1.8278c0-0.31183-0.25092-0.56274-0.56274-0.56274h-6.0068c-0.27152 0-0.48409-0.01833-0.66041-0.06511-0.17632-0.04678-0.31607-0.12227-0.44079-0.23564s-0.23465-0.2648-0.35139-0.46456c-0.11674-0.19977-0.24036-0.44746-0.39273-0.75343-0.07349-0.18081-0.17612-0.31227-0.28835-0.4072-0.11223-0.09493-0.23385-0.15348-0.34674-0.18965-0.22578-0.07234-0.41495-0.05426-0.41495-0.05426h-2.5533c-0.01048-5.75e-4 -0.02036-0.0031-0.03101-0.0031h-0.91517z" fill="#198cff" stroke-width=".26458"/>
 </g>
 <path d="m10.292 7.8746c-0.06141-6.802e-4 -0.14307 0.00903-0.25169 0.02535l-1.9616 0.29067c-0.43638 0.092922-0.43638 0.12171-0.43638 0.49038v3.457c-0.03217-0.02252-0.0639-0.04515-0.09714-0.06743v1.1e-4c-0.13864-0.09291-0.28637-0.15902-0.48484-0.15902-0.24861 0-0.39691 0.09521-0.48666 0.22059-0.08974 0.12538-0.11951 0.28343-0.11951 0.4056 0 0.14732 0.05033 0.30453 0.15945 0.42434 0.10911 0.11982 0.27687 0.20376 0.51808 0.20376 0.27237 0 0.46398-0.07609 0.57229-0.22464 0.08528-0.11695 0.1324-0.27316 0.14922-0.46589v-5.55e-4c0.0024-0.02339 4e-3 -0.04737 0.0055-0.07211 0.0023-0.03809 0.0018-0.10938 0.0018-0.10938v-2.7267c0-0.32721-3.2e-5 -0.34674 0.43649-0.42136l1.5257-0.21601c0.43046-0.056347 0.43713-0.017251 0.43723 0.21803v2.5544c-0.03217-0.02252-0.06389-0.04515-0.09714-0.06743v1.09e-4c-0.13864-0.09291-0.28637-0.15903-0.48484-0.15903-0.24861 0-0.39691 0.09521-0.48666 0.22059-0.08974 0.12538-0.11951 0.28343-0.11951 0.4056 0 0.14732 0.05033 0.30453 0.15945 0.42435 0.10911 0.11982 0.27687 0.20376 0.51808 0.20376 0.27237 0 0.46398-0.07609 0.57229-0.22464 0.08528-0.11695 0.1324-0.27316 0.14922-0.46589v-5.55e-4c0.0024-0.02339 4e-3 -0.04737 0.0055-0.07211 0.0023-0.03808 0.0018-0.10938 0.0018-0.10938v-3.5984c0-0.28698-0.0019-0.38203-0.18608-0.38408z" enable-background="new" fill="#fff"/>
</svg>
