<?xml version="1.0" encoding="UTF-8" standalone="no"?>
<svg
   width="64"
   height="64"
   version="1.1"
   viewBox="0 0 16.933 16.933"
   id="svg39"
   sodipodi:docname="3D-Coat.svg"
   inkscape:version="1.2.1 (9c6d41e410, 2022-07-14, custom)"
   xmlns:inkscape="http://www.inkscape.org/namespaces/inkscape"
   xmlns:sodipodi="http://sodipodi.sourceforge.net/DTD/sodipodi-0.dtd"
   xmlns:xlink="http://www.w3.org/1999/xlink"
   xmlns="http://www.w3.org/2000/svg"
   xmlns:svg="http://www.w3.org/2000/svg"
   xmlns:rdf="http://www.w3.org/1999/02/22-rdf-syntax-ns#"
   xmlns:cc="http://creativecommons.org/ns#"
   xmlns:dc="http://purl.org/dc/elements/1.1/">
  <sodipodi:namedview
     id="namedview41"
     pagecolor="#ffffff"
     bordercolor="#999999"
     borderopacity="1"
     inkscape:showpageshadow="0"
     inkscape:pageopacity="0"
     inkscape:pagecheckerboard="0"
     inkscape:deskcolor="#d1d1d1"
     showgrid="false"
     inkscape:zoom="6.640625"
     inkscape:cx="-21.835294"
     inkscape:cy="37.722353"
     inkscape:window-width="1920"
     inkscape:window-height="1005"
     inkscape:window-x="0"
     inkscape:window-y="0"
     inkscape:window-maximized="1"
     inkscape:current-layer="svg39" />
  <defs
     id="defs21">
    <linearGradient
       id="linearGradient994"
       x1="28.542"
       x2="28.542"
       y1="58.41"
       y2="6.4782"
       gradientTransform="matrix(0.015564,0,0,0.015564,65.036816,-6.2056)"
       gradientUnits="userSpaceOnUse">
      <stop
         stop-color="#262626"
         offset="0"
         id="stop2" />
      <stop
         stop-color="#333"
         offset=".50769"
         id="stop4" />
      <stop
         stop-color="#4a4a4a"
         offset="1"
         id="stop6" />
    </linearGradient>
    <linearGradient
       id="linearGradient888"
       x1="3.3786"
       x2="3.3786"
       y1="53.094"
       y2="112.97"
       gradientTransform="matrix(0.26458,0,0,0.26458,27.509,-19.525)"
       gradientUnits="userSpaceOnUse">
      <stop
         stop-color="#72b144"
         offset="0"
         id="stop9"
         style="stop-color:#8cd750;stop-opacity:1;" />
      <stop
         stop-color="#68d623"
         offset="1"
         id="stop11" />
    </linearGradient>
    <radialGradient
       id="radialGradient1108"
       cx="16.704"
       cy="8.3174"
       r="10.264"
       gradientTransform="matrix(0.60619,3.3498e-8,-4.0009e-8,0.72401,24.359316,0.5123)"
       gradientUnits="userSpaceOnUse">
      <stop
         stop-color="#fff"
         offset="0"
         id="stop14" />
      <stop
         stop-color="#f8f8f8"
         offset=".8"
         id="stop16" />
      <stop
         stop-color="#c4c4c4"
         offset="1"
         id="stop18" />
    </radialGradient>
    <filter
       inkscape:collect="always"
       style="color-interpolation-filters:sRGB"
       id="filter1057"
       x="-0.026999999"
       width="1.054"
       y="-0.026999999"
       height="1.054">
      <feGaussianBlur
         inkscape:collect="always"
         stdDeviation="0.61875"
         id="feGaussianBlur1059" />
    </filter>
    <radialGradient
       inkscape:collect="always"
       xlink:href="#linearGradient37376"
       id="radialGradient37378"
       cx="8.4665003"
       cy="8.4665003"
       fx="8.4665003"
       fy="8.4665003"
       r="7.276"
       gradientUnits="userSpaceOnUse" />
    <linearGradient
       inkscape:collect="always"
       id="linearGradient37376">
      <stop
         style="stop-color:#5e6a76;stop-opacity:1;"
         offset="0"
         id="stop37372" />
      <stop
         style="stop-color:#1d2123;stop-opacity:1;"
         offset="1"
         id="stop37374" />
    </linearGradient>
    <linearGradient
       id="a-9"
       x1="23.487"
       x2="23.487"
       y1="15.18"
       y2="32.912998"
       gradientTransform="matrix(0.12676,0,0,0.12676,-27.515,6.7925)"
       gradientUnits="userSpaceOnUse">
      <stop
         stop-color="#141414"
         offset="0"
         id="stop5-3" />
      <stop
         stop-color="#30277f"
         offset="1"
         id="stop7-6" />
    </linearGradient>
    <radialGradient
       inkscape:collect="always"
       xlink:href="#radialGradient1108"
       id="radialGradient773"
       gradientUnits="userSpaceOnUse"
       gradientTransform="matrix(0.60619,3.3498e-8,-4.0009e-8,0.72401,-1.7284202,0.5123)"
       cx="16.704"
       cy="8.3174"
       r="10.264" />
  </defs>
  <metadata
     id="metadata23">
    <rdf:RDF>
      <cc:Work
         rdf:about="">
        <dc:format>image/svg+xml</dc:format>
        <dc:type
           rdf:resource="http://purl.org/dc/dcmitype/StillImage" />
        <dc:title />
      </cc:Work>
    </rdf:RDF>
  </metadata>
  <rect
     ry="15"
     y="4.4999995"
     x="4.4999995"
     height="55"
     width="55"
     id="rect1055"
     style="opacity:0.3;fill:#141414;fill-opacity:1;stroke-width:2.74436;stroke-linecap:round;filter:url(#filter1057)"
     transform="scale(0.26457812)" />
  <rect
     x="1.1904993"
     y="1.1905003"
     width="14.552"
     height="14.552"
     ry="3.9686999"
     stroke-linecap="round"
     stroke-width="0.72611"
     id="rect36685"
     style="fill:url(#radialGradient37378);fill-opacity:1" />
  <g
     transform="matrix(0.66667,0,0,0.66667,-10.510618,7.0747)"
     id="g769">
    <path
       d="m 28.427,-5.4525 a 7.9375,7.9375 0 0 0 -7.8987,7.892 7.9375,7.9375 0 0 1 0.0021,-0.12196 7.9375,7.9375 0 0 1 0.0041,-0.12196 7.9375,7.9375 0 0 1 0.0062,-0.12144 7.9375,7.9375 0 0 1 0.0078,-0.12196 7.9375,7.9375 0 0 1 0.0098,-0.12144 7.9375,7.9375 0 0 1 0.01189,-0.12092 7.9375,7.9375 0 0 1 0.01344,-0.12144 7.9375,7.9375 0 0 1 0.0155,-0.12092 7.9375,7.9375 0 0 1 0.01705,-0.12041 7.9375,7.9375 0 0 1 0.01912,-0.12041 7.9375,7.9375 0 0 1 0.02067,-0.11989 c 0.04429,0.15493 0.10422,0.31819 0.18604,0.47646 0.08181,0.15827 0.18577,0.31137 0.31729,0.44493 0.13152,0.13356 0.2908,0.24786 0.48421,0.32866 0.19341,0.080806 0.42085,0.12816 0.68833,0.12816 0.2255,0 0.42267,-0.033825 0.59531,-0.093018 0.17265,-0.059193 0.32068,-0.14399 0.44752,-0.24546 0.25368,-0.20295 0.42262,-0.47354 0.53537,-0.74414 0.11275,-0.2706 0.16922,-0.54119 0.1974,-0.74414 0.02819,-0.20295 0.02842,-0.33796 0.02842,-0.33796 v -0.7214 c 0,0 -2.91e-4,-0.18082 0.08992,-0.36122 0.0451,-0.090199 0.11298,-0.1804 0.21446,-0.24805 0.10147,-0.067649 0.23663,-0.11265 0.41703,-0.11265 0.1804,0 0.31556,0.045006 0.41703,0.11265 0.10147,0.067649 0.16936,0.15785 0.21446,0.24805 0.0902,0.1804 0.09043,0.36122 0.09043,0.36122 v 6.8549 c 0,0 -2.91e-4,0.1803 0.08992,0.3607 0.0451,0.090199 0.11298,0.1804 0.21446,0.24805 0.10147,0.067649 0.23663,0.11265 0.41703,0.11265 0.1804,0 0.31556,-0.045005 0.41703,-0.11265 0.10147,-0.067649 0.16936,-0.15785 0.21446,-0.24805 0.0902,-0.1804 0.08992,-0.3607 0.08992,-0.3607 v -6.1335 c 0,0 -4.7e-5,-0.36061 0.18035,-0.7214 0.0902,-0.1804 0.22545,-0.3608 0.4284,-0.49609 0.10147,-0.067649 0.22,-0.12435 0.35812,-0.16381 0.13812,-0.03946 0.29606,-0.062012 0.47646,-0.062012 0.1804,0 0.33834,0.022551 0.47646,0.062012 0.13812,0.039462 0.25664,0.096165 0.35812,0.16381 0.20295,0.1353 0.3382,0.3157 0.4284,0.49609 0.1804,0.3608 0.18035,0.7214 0.18035,0.7214 v 3.9687 c 0,0 -4.7e-5,0.36061 0.18035,0.7214 0.0902,0.1804 0.22545,0.3608 0.4284,0.49609 0.10147,0.067649 0.22,0.12435 0.35812,0.16381 0.13812,0.039462 0.29554,0.062012 0.47594,0.062012 0.3608,0 0.63163,-0.068025 0.83458,-0.1695 0.20295,-0.10147 0.3382,-0.23677 0.4284,-0.37207 0.1804,-0.2706 0.18035,-0.54105 0.18035,-0.54105 v -2.8861 c 0,0 2.35e-4,-0.18082 0.09043,-0.36122 0.0451,-0.090199 0.11247,-0.1804 0.21394,-0.24805 0.10147,-0.067649 0.23715,-0.11265 0.41755,-0.11265 0.1804,0 0.31556,0.045005 0.41703,0.11265 0.10147,0.067649 0.16884,0.15785 0.21394,0.24805 0.0902,0.1804 0.09043,0.36122 0.09043,0.36122 v 2.1647 c 0,0 -2.91e-4,0.1803 0.08992,0.3607 0.0451,0.090199 0.11298,0.1804 0.21446,0.24805 0.10148,0.06765 0.23663,0.11265 0.41703,0.11265 0.1804,0 0.31607,-0.045006 0.41754,-0.11265 0.10147,-0.067649 0.16884,-0.15785 0.21394,-0.24805 0.0902,-0.1804 0.09043,-0.3607 0.09043,-0.3607 v -2.5259 c 0,0 4.23e-4,-0.1415 0.06459,-0.29921 0.03208,-0.078854 0.08033,-0.16206 0.15193,-0.23306 0.0716,-0.071005 0.16675,-0.13011 0.29352,-0.16175 a 7.9375,7.9375 0 0 1 0.01964,0.08475 7.9375,7.9375 0 0 1 0.02532,0.11886 7.9375,7.9375 0 0 1 0.02429,0.11989 7.9375,7.9375 0 0 1 0.0217,0.11989 7.9375,7.9375 0 0 1 0.02015,0.11989 7.9375,7.9375 0 0 1 0.0186,0.12041 7.9375,7.9375 0 0 1 0.01654,0.12092 7.9375,7.9375 0 0 1 0.01447,0.12092 7.9375,7.9375 0 0 1 0.01292,0.12092 7.9375,7.9375 0 0 1 0.01085,0.12144 7.9375,7.9375 0 0 1 0.0093,0.12196 7.9375,7.9375 0 0 1 0.0072,0.12144 7.9375,7.9375 0 0 1 0.0052,0.12144 7.9375,7.9375 0 0 1 0.0036,0.12196 7.9375,7.9375 0 0 1 0.0015,0.12196 7.9375,7.9375 0 0 0 -7.9375,-7.9375 7.9375,7.9375 0 0 0 -0.03824,0 z"
       stroke-linecap="round"
       stroke-width="0.51879"
       id="path767"
       style="fill:#86d748;fill-opacity:1" />
  </g>
  <path
     d="m 6.0610798,6.3027 c -0.48108,0 -0.48108,0.48108 -0.48108,0.48108 v 0.48108 c 0,0 0,1.4432 -1.2027,1.4432 -0.7133199,0 -0.99909,-0.50578 -1.1172,-0.91894 a 5.2919,5.2919 0 0 0 -0.0855,0.91894 5.2919,5.2919 0 0 0 5.2919003,5.2919 5.2919,5.2919 0 0 0 5.2918999,-5.2919 5.2919,5.2919 0 0 0 -0.14094,-1.1844 c -0.33807,0.08438 -0.34014,0.46276 -0.34014,0.46276 v 1.6838 c 0,0 0,0.48108 -0.48108,0.48108 -0.48108,0 -0.48108,-0.48108 -0.48108,-0.48108 v -1.4432 c 0,0 0,-0.48108 -0.48108,-0.48108 -0.48108,0 -0.48108,0.48108 -0.48108,0.48108 v 1.9243 c 0,0 0,0.72162 -0.96216,0.72162 -0.9621599,0 -0.9621599,-0.96216 -0.9621599,-0.96216 v -2.6459 c 0,0 0,-0.96216 -0.96216,-0.96216 -0.9621603,0 -0.9621603,0.96216 -0.9621603,0.96216 v 4.0892 c 0,0 0,0.48108 -0.48108,0.48108 -0.48108,0 -0.48108,-0.48108 -0.48108,-0.48108 v -4.5703 c 0,0 0,-0.48108 -0.48108,-0.48108 z"
     stroke-width="0.24054"
     id="path771"
     style="fill:url(#radialGradient773)" />
</svg>
