<?xml version="1.0" encoding="UTF-8"?>
<svg width="64" height="64" version="1.1" viewBox="0 0 16.933 16.933" xmlns="http://www.w3.org/2000/svg" xmlns:cc="http://creativecommons.org/ns#" xmlns:dc="http://purl.org/dc/elements/1.1/" xmlns:rdf="http://www.w3.org/1999/02/22-rdf-syntax-ns#" xmlns:xlink="http://www.w3.org/1999/xlink">
 <defs>
  <filter id="filter1057" x="-.027" y="-.027" width="1.054" height="1.054" color-interpolation-filters="sRGB">
   <feGaussianBlur stdDeviation="0.61875"/>
  </filter>
  <linearGradient id="linearGradient1053" x1="-127" x2="-72" y1="60" y2="5" gradientTransform="matrix(.26458 0 0 .26458 34.792 -.13493)" gradientUnits="userSpaceOnUse">
   <stop stop-color="#dc1f98" offset="0"/>
   <stop stop-color="#ef76cc" offset="1"/>
  </linearGradient>
 </defs>
 <metadata>
  <rdf:RDF>
   <cc:Work rdf:about="">
    <dc:format>image/svg+xml</dc:format>
    <dc:type rdf:resource="http://purl.org/dc/dcmitype/StillImage"/>
   </cc:Work>
  </rdf:RDF>
 </metadata>
 <g>
  <rect transform="scale(.26458)" x="4.5" y="4.5" width="55" height="55" ry="15" fill="#141414" filter="url(#filter1057)" opacity=".3" stroke-linecap="round" stroke-width="2.7444"/>
  <rect x="1.1906" y="1.1906" width="14.552" height="14.552" ry="3.9687" fill="url(#linearGradient1053)" stroke-linecap="round" stroke-width=".7261"/>
  <path d="m9.9446 5.9796v1.2343l0.02576 0.54797c-0.24421-0.22882-0.46915-0.37459-0.82904-0.37459-0.68764 0-1.3368 0.67952-1.3368 1.789 0 1.1233 0.50771 1.782 1.2982 1.782 0.34061 0 0.66183-0.20097 0.89319-0.45059h0.02576l0.05152 0.36737h0.61057v-4.8954zm-3.6954 0.36068v4.5347h0.74557v-4.5347zm3.0526 1.7057c0.21208 0 0.42427 0.0764 0.64278 0.28442v1.5877c-0.21208 0.26349-0.41789 0.38129-0.6621 0.38129-0.45629 0-0.71311-0.39521-0.71311-1.1302 0-0.7142 0.32756-1.1232 0.73243-1.1232z" fill="#1f1d21"/>
 </g>
</svg>
