<?xml version="1.0" encoding="UTF-8"?>
<svg width="64" height="64" version="1.1" viewBox="0 0 16.933 16.933" xmlns="http://www.w3.org/2000/svg" xmlns:cc="http://creativecommons.org/ns#" xmlns:dc="http://purl.org/dc/elements/1.1/" xmlns:rdf="http://www.w3.org/1999/02/22-rdf-syntax-ns#">
 <defs>
  <filter id="filter1057" x="-.027" y="-.027" width="1.054" height="1.054" color-interpolation-filters="sRGB">
   <feGaussianBlur stdDeviation="0.61875"/>
  </filter>
  <linearGradient id="linearGradient1053" x1="-127" x2="-72" y1="60" y2="5" gradientTransform="matrix(.26458 0 0 .26458 34.792 -.13499)" gradientUnits="userSpaceOnUse">
   <stop stop-color="#00c3df" stop-opacity=".95686" offset="0"/>
   <stop stop-color="#09dbff" offset="1"/>
  </linearGradient>
 </defs>
 <metadata>
  <rdf:RDF>
   <cc:Work rdf:about="">
    <dc:format>image/svg+xml</dc:format>
    <dc:type rdf:resource="http://purl.org/dc/dcmitype/StillImage"/>
   </cc:Work>
  </rdf:RDF>
 </metadata>
 <rect transform="matrix(.26458 0 0 .26458 -6.0163e-5 -6.0163e-5)" x="4.5" y="4.5" width="55" height="55" ry="15" fill="#141414" filter="url(#filter1057)" opacity=".3" stroke-linecap="round" stroke-width="2.7444"/>
 <rect x="1.1905" y="1.1905" width="14.552" height="14.552" ry="3.9687" fill="url(#linearGradient1053)" stroke-linecap="round" stroke-width=".7261"/>
 <path d="m5.9878 6.0828v4.8204h1.0125v-1.6725h0.66802c0.49971 0 0.88275-0.13559 1.1493-0.40679 0.26827-0.27336 0.40241-0.66302 0.40241-1.1688 0-0.50367-0.13414-0.8912-0.40241-1.1624-0.26651-0.27336-0.64956-0.40988-1.1493-0.40988zm3.945 0v4.8204h1.0125v-4.8204zm-2.9326 0.90066h0.56034c0.19638 0 0.34801 0.05818 0.45497 0.17441s0.1605 0.28198 0.1605 0.49722c0 0.21525-0.05354 0.38219-0.1605 0.50057-0.10696 0.11623-0.25859 0.17416-0.45497 0.17416h-0.56034z" fill="#1f1d21"/>
</svg>
