<?xml version="1.0" encoding="UTF-8"?>
<svg width="64" height="64" version="1.1" viewBox="0 0 16.933 16.933" xmlns="http://www.w3.org/2000/svg" xmlns:cc="http://creativecommons.org/ns#" xmlns:dc="http://purl.org/dc/elements/1.1/" xmlns:rdf="http://www.w3.org/1999/02/22-rdf-syntax-ns#" xmlns:xlink="http://www.w3.org/1999/xlink">
 <defs>
  <filter id="filter1057" x="-.027" y="-.027" width="1.054" height="1.054" color-interpolation-filters="sRGB">
   <feGaussianBlur stdDeviation="0.61875"/>
  </filter>
  <linearGradient id="linearGradient1053" x1="-127" x2="-72" y1="60" y2="5" gradientTransform="matrix(.26458 0 0 .26458 34.792 -.13493)" gradientUnits="userSpaceOnUse">
   <stop stop-color="#4384ff" offset="0"/>
   <stop stop-color="#23edff" offset="1"/>
  </linearGradient>
 </defs>
 <metadata>
  <rdf:RDF>
   <cc:Work rdf:about="">
    <dc:format>image/svg+xml</dc:format>
    <dc:type rdf:resource="http://purl.org/dc/dcmitype/StillImage"/>
   </cc:Work>
  </rdf:RDF>
 </metadata>
 <g>
  <rect transform="scale(.26458)" x="4.5" y="4.5" width="55" height="55" ry="15" fill="#141414" filter="url(#filter1057)" opacity=".3" stroke-linecap="round" stroke-width="2.7444"/>
  <rect x="1.1906" y="1.1906" width="14.552" height="14.552" ry="3.9687" fill="url(#linearGradient1053)" stroke-linecap="round" stroke-width=".7261"/>
  <path d="m5.5977 6.1943v4.4984h0.73939v-1.6509h0.66313c0.8989 0 1.5875-0.46078 1.5875-1.4582 0-1.0455-0.67584-1.3894-1.5875-1.3894zm0.73939 0.63968h0.60568c0.60564 0 0.91818 0.18565 0.91818 0.74969 0 0.55028-0.29978 0.81848-0.91818 0.81848h-0.60568zm3.8953 0.3988c-0.70127 0-1.141 0.41963-1.141 1.0112 0 0.56404 0.4654 0.81853 0.87979 0.98362 0.33151 0.13757 0.66931 0.26131 0.66931 0.54333 0 0.23387-0.15933 0.40602-0.49722 0.40602-0.31876 0-0.58666-0.14458-0.86717-0.37845l-0.34419 0.50907c0.30601 0.26826 0.75871 0.46785 1.1859 0.46785 0.79053 0 1.2175-0.46791 1.2175-1.0457 0-0.63282-0.47172-0.85287-0.89886-1.0248-0.33789-0.13069-0.65025-0.23385-0.65025-0.50211 0-0.21323 0.1467-0.3715 0.45909-0.3715 0.24863 0 0.47162 0.11709 0.68838 0.28906l0.338-0.4815c-0.25501-0.21323-0.60575-0.40602-1.0393-0.40602z" fill="#1f1d21"/>
 </g>
</svg>
