<?xml version="1.0" encoding="UTF-8"?>
<svg width="64" height="64" version="1.1" viewBox="0 0 16.933 16.933" xmlns="http://www.w3.org/2000/svg" xmlns:cc="http://creativecommons.org/ns#" xmlns:dc="http://purl.org/dc/elements/1.1/" xmlns:rdf="http://www.w3.org/1999/02/22-rdf-syntax-ns#" xmlns:xlink="http://www.w3.org/1999/xlink">
 <defs>
  <filter id="filter1057" x="-.027" y="-.027" width="1.054" height="1.054" color-interpolation-filters="sRGB">
   <feGaussianBlur stdDeviation="0.61875"/>
  </filter>
  <linearGradient id="linearGradient1053" x1="-127" x2="-72" y1="60" y2="5" gradientTransform="matrix(.26458 0 0 .26458 34.792 -.13493)" gradientUnits="userSpaceOnUse">
   <stop stop-color="#15ac4b" offset="0"/>
   <stop stop-color="#76dd38" offset="1"/>
  </linearGradient>
 </defs>
 <metadata>
  <rdf:RDF>
   <cc:Work rdf:about="">
    <dc:format>image/svg+xml</dc:format>
    <dc:type rdf:resource="http://purl.org/dc/dcmitype/StillImage"/>
   </cc:Work>
  </rdf:RDF>
 </metadata>
 <g>
  <rect transform="scale(.26458)" x="4.5" y="4.5" width="55" height="55" ry="15" fill="#141414" filter="url(#filter1057)" opacity=".3" stroke-linecap="round" stroke-width="2.7444"/>
  <rect x="1.1906" y="1.1906" width="14.552" height="14.552" ry="3.9687" fill="url(#linearGradient1053)" stroke-linecap="round" stroke-width=".7261"/>
  <path d="m4.2691 6.1584v4.679h1.2003c1.2864 0 2.0687-0.80861 2.0687-2.3611 0-1.5454-0.78247-2.3179-2.1087-2.3179zm0.76927 0.6724h0.338c0.87529 0 1.3726 0.50073 1.3726 1.6455 0 1.1519-0.49734 1.6885-1.3726 1.6885h-0.338zm2.9838 0.49361 0.86202 3.513h0.87541l0.37124-1.6313c0.07294-0.32911 0.13277-0.65821 0.19245-1.0302h0.02628c0.07294 0.37203 0.1262 0.69392 0.19914 1.023l0.37794 1.6385h0.90839l0.82878-3.513h-0.71594l-0.39133 1.8245c-0.05968 0.33626-0.11267 0.66545-0.17235 1.0089h-0.02654c-0.07294-0.34342-0.13941-0.6726-0.21898-1.0089l-0.43101-1.8245h-0.6961l-0.42431 1.8245c-0.07957 0.32911-0.14591 0.66545-0.20558 1.0089h-0.02654c-0.05967-0.34342-0.1063-0.6726-0.17261-1.0089l-0.39108-1.8245z" fill="#1f1d21"/>
 </g>
</svg>
