<?xml version="1.0" encoding="UTF-8" standalone="no"?>
<svg
   width="64"
   height="64"
   version="1.1"
   viewBox="0 0 16.933 16.933"
   id="svg20"
   sodipodi:docname="bee-package-manager.svg"
   inkscape:version="1.2.2 (b0a8486541, 2022-12-01)"
   xmlns:inkscape="http://www.inkscape.org/namespaces/inkscape"
   xmlns:sodipodi="http://sodipodi.sourceforge.net/DTD/sodipodi-0.dtd"
   xmlns:xlink="http://www.w3.org/1999/xlink"
   xmlns="http://www.w3.org/2000/svg"
   xmlns:svg="http://www.w3.org/2000/svg">
  <sodipodi:namedview
     id="namedview22"
     pagecolor="#ffffff"
     bordercolor="#999999"
     borderopacity="1"
     inkscape:showpageshadow="0"
     inkscape:pageopacity="0"
     inkscape:pagecheckerboard="0"
     inkscape:deskcolor="#d1d1d1"
     showgrid="false"
     inkscape:zoom="4.695631"
     inkscape:cx="36.629795"
     inkscape:cy="32.051071"
     inkscape:window-width="1920"
     inkscape:window-height="1005"
     inkscape:window-x="0"
     inkscape:window-y="0"
     inkscape:window-maximized="1"
     inkscape:current-layer="svg20" />
  <defs
     id="defs12">
    <linearGradient
       id="c"
       x1="8.501"
       x2="8.489"
       y1="16.132"
       y2=".794"
       gradientTransform="matrix(0.98245,0,0,0.98245,21.110394,0.14856)"
       gradientUnits="userSpaceOnUse">
      <stop
         stop-color="#0c2622"
         offset="0"
         id="stop2" />
      <stop
         stop-color="#194d44"
         offset="1"
         id="stop4" />
    </linearGradient>
    <linearGradient
       id="d"
       x1="5.822"
       x2="12.294"
       y1="5.441"
       y2="13.421"
       gradientTransform="matrix(1.1564,0,0,1.1564,19.637834,-1.324)"
       gradientUnits="userSpaceOnUse">
      <stop
         stop-color="#deb247"
         offset="0"
         id="stop7" />
      <stop
         stop-color="#de7947"
         offset="1"
         id="stop9" />
    </linearGradient>
    <filter
       id="filter1057"
       x="-0.026999999"
       y="-0.026999999"
       width="1.054"
       height="1.054"
       color-interpolation-filters="sRGB">
      <feGaussianBlur
         stdDeviation="0.61875"
         id="feGaussianBlur251" />
    </filter>
    <linearGradient
       id="linearGradient1053"
       x1="-127"
       x2="-72"
       y1="60"
       y2="5"
       gradientTransform="translate(203.93,-0.054156)"
       gradientUnits="userSpaceOnUse">
      <stop
         stop-color="#1d2123"
         offset="0"
         id="stop254" />
      <stop
         stop-color="#33393e"
         stop-opacity=".99608"
         offset="1"
         id="stop256" />
    </linearGradient>
    <linearGradient
       inkscape:collect="always"
       xlink:href="#d"
       id="linearGradient1128"
       gradientUnits="userSpaceOnUse"
       gradientTransform="matrix(0.95328749,0,0,0.95328749,0.3958827,0.39519126)"
       x1="5.822"
       y1="5.441"
       x2="12.294"
       y2="13.421" />
  </defs>
  <g
     transform="matrix(0.26457812,0,0,0.26457812,-19.166039,1.6e-7)"
     id="g267">
    <rect
       x="76.934998"
       y="4.9558001"
       width="55"
       height="55"
       ry="15"
       fill="#141414"
       filter="url(#filter1057)"
       opacity="0.3"
       stroke-linecap="round"
       stroke-width="2.7444"
       id="rect261" />
    <rect
       x="76.934998"
       y="4.9558001"
       width="55"
       height="55"
       ry="15"
       fill="url(#linearGradient1053)"
       stroke-linecap="round"
       stroke-width="2.7444"
       id="rect263"
       style="fill:url(#linearGradient1053)" />
    <circle
       cx="104.44"
       cy="32"
       r="30.000999"
       fill-opacity="0"
       stroke-width="1.5715"
       id="circle265" />
  </g>
  <path
     d="m 8.3641263,13.720113 a 1171.5198,1171.5198 0 0 1 -4.4729662,-2.588484 0.15003314,0.15003314 0 0 1 -0.02473,-0.0305 c -0.00824,-0.01484 -0.00824,-0.136844 -0.00659,-1.6767442 0,-0.9142129 0.0033,-2.0922204 0.00495,-2.6189851 l 0.00495,-0.9579038 0.011541,-0.021433 a 0.1665203,0.1665203 0 0 1 0.026386,-0.035445 C 3.9158909,5.7823702 4.275311,5.5729833 4.7056258,5.3248516 5.1351163,5.0767199 5.4970094,4.867333 5.5093747,4.8590894 5.5209158,4.8508458 5.816036,4.6810281 6.1647393,4.4798848 L 7.6123118,3.6448103 8.4284261,3.1749262 h 0.07584 l 2.2504979,1.2983637 a 384.27444,384.27444 0 0 1 2.26781,1.3148509 0.156628,0.156628 0 0 1 0.02968,0.03792 l 0.01154,0.021433 0.0041,0.9579038 c 0.0016,0.5267647 0.0041,1.7047722 0.0049,2.6189851 0.0025,1.5399003 0.0016,1.6619063 -0.0066,1.6767443 a 0.14838443,0.14838443 0 0 1 -0.02473,0.0305 c -0.01154,0.01154 -4.4581291,2.582713 -4.5265508,2.618161 a 0.1294242,0.1294242 0 0 1 -0.050286,0.0082 c -0.032974,0 -0.03792,-0.0016 -0.101396,-0.03874 z M 8.3476391,10.983244 V 8.5283065 L 7.8184015,8.2216454 A 16.650381,16.650381 0 0 1 7.2669059,7.896024 0.14261391,0.14261391 0 0 1 7.2388769,7.858928 0.15003314,0.15003314 0 0 1 7.2372269,7.77237 a 0.17393952,0.17393952 0 0 1 0.061002,-0.064301 0.13684341,0.13684341 0 0 1 0.099748,0.0033 c 0.012365,0.00577 0.255551,0.1459114 0.5399544,0.3099587 0.2844035,0.1648715 0.5226429,0.2992418 0.5284133,0.2992418 0.00989,0 1.3585424,-0.7740721 1.3725568,-0.7872617 0.00249,-0.00165 -0.00249,-0.00824 -0.011541,-0.014838 -0.04287,-0.029679 -4.2182434,-2.4359793 -4.226487,-2.4359793 -0.00824,0 -1.3379329,0.7625311 -1.3700829,0.7864375 -0.00824,0.00577 0.1071666,0.074192 1.0222039,0.6017812 0.5688069,0.3272701 1.041164,0.6026057 1.0510563,0.6116736 0.026379,0.024731 0.033798,0.042866 0.033798,0.084085 0,0.05111 -0.01896,0.082436 -0.065125,0.1055179 a 0.14261391,0.14261391 0 0 1 -0.086558,0.0033 C 6.177929,7.2728094 5.7088694,7.0032444 5.1433599,6.6759742 4.577026,6.3495285 4.1120881,6.0824365 4.1096151,6.0824365 c -0.00577,0 -0.011541,1.3915162 -0.012365,3.3106214 l -0.00165,1.5934841 2.1251947,1.226644 2.1268434,1.226645 c 0,0 0.00165,-1.10464 0.00165,-2.456587 z M 6.355166,11.558646 a 0.45257249,0.45257249 0 0 1 -0.21186,-0.07584 C 6.0089357,11.384706 5.8811602,11.216538 5.7665744,10.984893 a 1.5217647,1.5217647 0 0 1 -0.159101,-0.539955 c 0,-0.01896 0.012365,-0.103869 0.027204,-0.189602 0.024732,-0.142614 0.030501,-0.187129 0.024732,-0.187129 a 0.64712096,0.64712096 0 0 0 -0.041218,0.01896 c -0.1755895,0.07996 -0.3190277,0.08244 -0.4484519,0.0083 A 0.9067937,0.9067937 0 0 1 4.9718934,9.9041597 C 4.8787409,9.7805061 4.768277,9.5826602 4.747668,9.5051706 A 0.6405261,0.6405261 0 0 1 4.736127,9.4111936 c -0.0033,-0.057705 -0.00495,-0.0643 -0.018136,-0.081612 A 2.3189189,2.3189189 0 0 1 4.5836209,9.1193711 2.3881649,2.3881649 0 0 1 4.4129787,8.6742178 0.49873654,0.49873654 0 0 1 4.4047352,8.582714 c -8.243e-4,-0.049461 0,-0.057705 0.015663,-0.087382 0.032974,-0.0643 0.079139,-0.089855 0.1648716,-0.08903 0.075016,0 0.1492088,0.021433 0.3025393,0.085733 0.1615742,0.068421 0.3445816,0.1665203 0.4797763,0.2563753 0.09645,0.0643 0.2885253,0.2126843 0.4039354,0.310783 0.00495,0.00412 0.010717,0.00659 0.012365,0.00495 A 0.59271334,0.59271334 0 0 0 5.7459655,8.893497 0.86062966,0.86062966 0 0 1 5.6932066,8.6041474 c 0,-0.089031 0.00824,-0.1253024 0.039569,-0.1871292 A 0.27698425,0.27698425 0 0 1 5.841591,8.3049055 C 5.8622,8.2941885 5.866321,8.2892425 5.863848,8.2801735 A 1.276106,1.276106 0 0 0 5.740195,8.0683147 C 5.6742464,7.9693918 5.670949,7.962797 5.6684758,7.9322957 a 0.18960231,0.18960231 0 0 1 8.244e-4,-0.04534 0.18548054,0.18548054 0 0 1 0.063476,-0.070894 0.15745237,0.15745237 0 0 1 0.095626,0 c 0.026379,0.01319 0.0643,0.060178 0.124478,0.1516819 0.065949,0.099748 0.1154101,0.1945485 0.1417895,0.2720381 0.016487,0.046164 0.019785,0.052759 0.036271,0.061002 l 0.08903,0.043692 a 1.5366031,1.5366031 0 0 1 0.1838325,0.1063415 c 0.012365,0.00742 0.014014,0.00659 0.030501,-0.010717 a 0.33633802,0.33633802 0 0 1 0.1055176,-0.067597 0.55561723,0.55561723 0 0 1 0.1516818,-0.041218 c 0.053583,0 0.1071666,0.04534 0.1096396,0.092329 0.00165,0.057705 -0.00247,0.072543 -0.032974,0.1038691 -0.016487,0.016487 -0.028853,0.023906 -0.078315,0.038745 -0.0643,0.020607 -0.094801,0.03627 -0.094801,0.048636 a 0.3956918,0.3956918 0 0 0 0.041218,0.066774 0.73862469,0.73862469 0 0 1 0.1434383,0.4130033 0.46988401,0.46988401 0 0 1 -0.056056,0.2357664 0.56303645,0.56303645 0 0 0 -0.033798,0.093977 0.61579536,0.61579536 0 0 0 -0.00165,0.1920754 0.49461475,0.49461475 0 0 0 0.082436,0.031325 c 0.2852278,0.088206 0.4797763,0.1739394 0.6924606,0.3066613 0.1755882,0.1079903 0.3585957,0.2456583 0.4632892,0.3487033 0.097275,0.0948 0.1343702,0.1591 0.1401408,0.244009 a 0.30006628,0.30006628 0 0 1 -0.036271,0.167345 c -0.065948,0.137668 -0.1747639,0.250605 -0.2703894,0.281107 -0.019785,0.0066 -0.019785,0.0066 -0.026379,0.04781 -0.014014,0.09315 -0.065949,0.15498 -0.1747639,0.208563 a 0.40970588,0.40970588 0 0 1 -0.1978458,0.05193 c -0.1615742,0 -0.290174,-0.09563 -0.4624648,-0.344582 a 0.26791632,0.26791632 0 0 0 -0.048637,-0.061 0.37508285,0.37508285 0 0 0 0.00659,0.05935 0.31490472,0.31490472 0 0 1 -0.00412,0.156628 0.81693869,0.81693869 0 0 1 -0.069246,0.196197 0.37838028,0.37838028 0 0 1 -0.084909,0.107167 0.45257249,0.45257249 0 0 1 -0.3429329,0.140965 z m 0.1046935,-0.250605 a 0.27203811,0.27203811 0 0 0 0.1071664,-0.09068 c 0.021433,-0.03297 0.03792,-0.07254 0.032974,-0.07831 a 0.55396851,0.55396851 0 0 0 -0.067597,-0.01402 1.107937,1.107937 0 0 1 -0.5350082,-0.251429 c -0.023082,-0.02061 -0.038745,-0.0305 -0.038745,-0.02555 0,0.02308 0.1104639,0.210211 0.1755882,0.297592 a 0.53583265,0.53583265 0 0 0 0.1896023,0.172291 0.22422534,0.22422534 0 0 0 0.136019,-0.0099 z m 0.9785128,-0.253902 c 0.055232,-0.02473 0.062652,-0.03297 0.062652,-0.06348 v -0.02556 L 7.3196647,10.823319 A 10.249242,10.249242 0 0 1 6.8621462,10.457303 c -0.012365,0 0.1978458,0.332217 0.2794572,0.441033 0.051934,0.07007 0.1236537,0.14014 0.1599255,0.1591 a 0.10304473,0.10304473 0 0 0 0.067597,0.01319 0.18712924,0.18712924 0 0 0 0.069246,-0.01649 z m -0.826831,-0.161574 c 0,-0.02143 -0.027204,-0.178062 -0.030501,-0.181359 a 0.46328915,0.46328915 0 0 0 -0.066774,-0.01979 c -0.2258734,-0.05441 -0.404759,-0.151677 -0.6108485,-0.33386 -0.024731,-0.0206 -0.038745,-0.0305 -0.042042,-0.02638 a 0.12447804,0.12447804 0 0 0 -0.011541,0.03875 l -0.00577,0.03298 0.047813,0.05194 c 0.1492089,0.163223 0.3412843,0.319851 0.458343,0.374258 0.093152,0.04369 0.2613215,0.08491 0.2613215,0.06348 z m 1.0691922,-0.11541 a 0.15003314,0.15003314 0 0 0 0.059353,-0.04452 c 0.061827,-0.06594 0.1022208,-0.144259 0.093153,-0.181355 -0.00494,-0.0206 -0.090679,-0.10799 -0.1648716,-0.16652 A 3.4458161,3.4458161 0 0 0 7.1424279,10.037706 3.6601492,3.6601492 0 0 0 6.5760939,9.8332653 c -0.00824,0.00658 0.1978459,0.2308197 0.2745112,0.2984177 0.1112884,0.09892 0.2473074,0.218454 0.2942957,0.258024 0.059353,0.04946 0.5036827,0.395691 0.5078046,0.395691 a 0.22257664,0.22257664 0 0 0 0.028028,-0.0083 z m -1.140087,-0.337987 a 0.06100249,0.06100249 0 0 0 -0.00412,-0.02473 0.28770091,0.28770091 0 0 0 -0.069246,-0.02803 1.5382518,1.5382518 0 0 1 -0.3173779,-0.14014 c -0.026377,-0.01732 -0.045337,-0.02804 -0.045337,-0.02474 a 1.1268972,1.1268972 0 0 0 0.2365907,0.164871 c 0.041218,0.0206 0.177237,0.07007 0.1928998,0.07007 0.00412,0 0.00742,-0.0066 0.00659,-0.01649 z m -0.078314,-0.332216 0.014014,-0.02638 -0.043691,-0.05029 A 1.3346355,1.3346355 0 0 1 6.3733021,9.9560896 C 6.3197186,9.880253 6.2966366,9.7772086 6.3180699,9.7071383 a 0.18877797,0.18877797 0 0 1 0.097275,-0.1030448 0.13272163,0.13272163 0 0 0 0.033799,-0.018136 c 0,-0.00824 -0.112937,-0.1360192 -0.1500331,-0.1714667 C 6.2207956,9.3419476 6.118576,9.2825937 6.0616954,9.2768231 c -0.018136,-8.242e-4 -0.032974,-8.242e-4 -0.032974,8.244e-4 0,0.00165 0.016487,0.025555 0.03792,0.053583 0.041219,0.055232 0.082436,0.1302487 0.088207,0.1623985 a 0.27203811,0.27203811 0 0 1 -0.00824,0.1302487 0.19619717,0.19619717 0 0 1 -0.098098,0.1038691 l -0.028029,0.010717 -0.0033,0.041219 a 0.48801988,0.48801988 0 0 1 -0.00659,0.053583 c -0.0033,0.012364 0.00165,0.018133 0.03792,0.049458 0.097275,0.083262 0.21186,0.1640472 0.2885254,0.2027922 0.045339,0.02226 0.1005716,0.04699 0.1079908,0.04781 0.00247,0 0.00989,-0.01154 0.017311,-0.02638 z M 5.4261146,9.9091055 c 0.01896,-0.00498 0.050286,-0.014836 0.070894,-0.022258 0.038745,-0.014018 0.2077383,-0.098922 0.2374151,-0.1178828 l 0.015663,-0.00989 -0.022258,-0.019785 C 5.708045,9.7219766 5.6948553,9.7170305 5.5876889,9.6890023 A 3.5480365,3.5480365 0 0 1 5.1680906,9.5538076 5.6023363,5.6023363 0 0 0 4.9974486,9.4911564 c -0.00824,0 -0.00495,0.00824 0.028853,0.067597 0.046165,0.084085 0.1261268,0.202792 0.1714664,0.2555509 a 0.37920464,0.37920464 0 0 0 0.1220051,0.09645 0.21433305,0.21433305 0 0 0 0.1071664,-0.00169 z M 5.8992961,9.4985757 A 0.37343413,0.37343413 0 0 0 5.8333475,9.4177887 C 5.8003732,9.386463 5.5728503,9.195212 5.4755762,9.1177223 A 2.7220298,2.7220298 0 0 0 4.8391718,8.7228549 1.2348881,1.2348881 0 0 0 4.6495695,8.6519601 c -0.00824,0.00824 0.086558,0.2571997 0.1294241,0.3396356 0.024732,0.050286 0.1071666,0.1772369 0.1343704,0.2093867 0.00989,0.012365 0.060178,0.032974 0.2497804,0.1038692 0.1302487,0.048637 0.2613215,0.095626 0.2909985,0.1046934 0.061827,0.01896 0.2909983,0.080788 0.3239726,0.087382 a 0.49956089,0.49956089 0 0 0 0.1211806,0.00165 z M 6.5142671,9.2347812 A 0.26544325,0.26544325 0 0 0 6.5447684,9.0814506 0.49049296,0.49049296 0 0 0 6.4408992,8.8094125 0.47812758,0.47812758 0 0 0 6.3073533,8.6692716 1.2439562,1.2439562 0 0 0 6.0707626,8.5291308 c -0.060178,-0.02638 -0.072543,-0.030501 -0.09068,-0.027204 -0.032974,0.00577 -0.046165,0.01896 -0.053583,0.056056 -0.011541,0.059353 0,0.1343703 0.046164,0.2827547 a 1.4838443,1.4838443 0 0 1 0.046165,0.1953729 l 0.054407,0.00659 a 0.46164042,0.46164042 0 0 1 0.1731151,0.056056 c 0.074192,0.037096 0.1318973,0.074192 0.1920755,0.1277755 a 0.50285832,0.50285832 0 0 0 0.056056,0.043691 c 0.00165,0 0.010717,-0.016487 0.019784,-0.035447 z m 4.2314299,2.9594448 2.093045,-1.207684 -8.24e-4,-1.5934841 a 247.01803,247.01803 0 0 0 -0.01319,-3.3106214 74.604391,74.604391 0 0 0 -0.685864,0.3932188 l -0.680921,0.3940431 -8.24e-4,0.6998798 c -0.0016,0.778194 8.24e-4,0.725435 -0.03792,0.7633554 -0.01154,0.00989 -0.307486,0.1846563 -0.658663,0.3866238 l -0.638054,0.3676637 h -0.03709 c -0.04122,0 -0.05358,-0.00412 -0.07996,-0.029677 C 9.968339,9.0229211 9.97081,9.0509541 9.965859,8.6016743 A 72.522063,72.522063 0 0 1 9.961769,7.9660944 c 0,-0.2159819 -8.24e-4,-0.2283472 -0.00989,-0.2250498 A 74.34884,74.34884 0 0 0 9.2643251,8.1367365 L 8.5858785,8.5274821 v 4.9131729 l 0.032974,-0.01896 c 0.01896,-0.0099 0.9760398,-0.562213 2.1268445,-1.227469 z m -0.04452,-3.7096104 c 0.270389,-0.1566281 0.498736,-0.2885254 0.50698,-0.2942958 l 0.01484,-0.00989 -0.0033,-0.5836453 -0.0049,-0.5852942 c -8.24e-4,-0.00165 -0.999947,0.5737531 -1.009839,0.582821 -0.0083,0.00659 -0.0099,1.1747101 -0.0017,1.1747101 0.0033,0 0.227522,-0.1277755 0.497912,-0.2844034 z M 10.585772,7.1046404 c 0.274511,-0.1591011 0.502858,-0.2918227 0.50698,-0.2959445 0.005,-0.00577 -0.396517,-0.2390639 -2.1087086,-1.2282933 A 420.94023,420.94023 0 0 0 6.8580244,4.3570555 33.743442,33.743442 0 0 0 5.8374693,4.9431739 c 0.00495,0.00495 4.2396727,2.4499917 4.2429707,2.4499917 0.0025,0 0.229171,-0.1302485 0.504507,-0.2885252 z M 12.025925,6.2720388 C 12.399359,6.0568814 12.70602,5.8779958 12.706844,5.8746984 A 638.12722,638.12722 0 0 0 8.4638735,3.4247066 73.194739,73.194739 0 0 0 7.0979125,4.2185633 c 0.0033,0.00824 4.2273075,2.4466944 4.2388485,2.4466944 0.0049,0 0.314905,-0.1772371 0.689164,-0.3923944 z"
     fill="url(#d)"
     stroke-width="0.00539394"
     id="path1126"
     style="fill:url(#linearGradient1128)" />
</svg>
