<?xml version="1.0" encoding="UTF-8" standalone="no"?>
<svg
   version="1.1"
   viewBox="0 0 64 64"
   id="svg59"
   sodipodi:docname="bitwig-studio.svg"
   width="64"
   height="64"
   xml:space="preserve"
   inkscape:version="1.2.1 (9c6d41e410, 2022-07-14)"
   xmlns:inkscape="http://www.inkscape.org/namespaces/inkscape"
   xmlns:sodipodi="http://sodipodi.sourceforge.net/DTD/sodipodi-0.dtd"
   xmlns="http://www.w3.org/2000/svg"
   xmlns:svg="http://www.w3.org/2000/svg"><sodipodi:namedview
     id="namedview61"
     pagecolor="#ffffff"
     bordercolor="#999999"
     borderopacity="1"
     inkscape:showpageshadow="0"
     inkscape:pageopacity="0"
     inkscape:pagecheckerboard="0"
     inkscape:deskcolor="#d1d1d1"
     showgrid="false"
     inkscape:zoom="4.5625"
     inkscape:cx="1.3150685"
     inkscape:cy="12.383562"
     inkscape:window-width="1920"
     inkscape:window-height="1005"
     inkscape:window-x="0"
     inkscape:window-y="0"
     inkscape:window-maximized="1"
     inkscape:current-layer="svg59" /><defs
     id="defs7"><linearGradient
       id="linearGradient3764"
       x2="47"
       gradientUnits="userSpaceOnUse"
       x1="1"
       gradientTransform="rotate(-90,23.999999,24.000001)"><stop
         style="stop-color:#d41c31"
         offset="0"
         id="stop2" /><stop
         style="stop-color:#e22137"
         offset="1"
         id="stop4" /></linearGradient><linearGradient
       id="linearGradient936"
       x1="29.312"
       x2="29.312"
       y1="57.119999"
       y2="7.4541998"
       gradientTransform="translate(2.01e-4,-4.996e-4)"
       gradientUnits="userSpaceOnUse"><stop
         stop-color="#ea2424"
         offset="0"
         id="stop351"
         style="stop-color:#fa4819;stop-opacity:1" /><stop
         stop-color="#ff674d"
         offset="1"
         id="stop353"
         style="stop-color:#f9562b;stop-opacity:1" /></linearGradient><linearGradient
       id="linearGradient924"
       x1="62.226002"
       x2="62.226002"
       y1="27.346001"
       y2="-27.767"
       gradientTransform="matrix(0.50103,0,0,0.50103,-0.373921,31.913001)"
       gradientUnits="userSpaceOnUse"><stop
         stop-color="#e9afaf"
         offset="0"
         id="stop346" /><stop
         stop-color="#fff"
         offset="1"
         id="stop348" /></linearGradient><filter
       id="filter1057"
       x="-0.026999999"
       y="-0.026999999"
       width="1.054"
       height="1.054"
       color-interpolation-filters="sRGB"><feGaussianBlur
         stdDeviation="0.61875"
         id="feGaussianBlur886" /></filter><linearGradient
       id="linearGradient1053"
       x1="-127"
       x2="-72"
       y1="60"
       y2="5"
       gradientTransform="matrix(1.0000071,0,0,1.0000071,131.49969,-0.51020942)"
       gradientUnits="userSpaceOnUse"><stop
         stop-color="#ff7d50"
         offset="0"
         id="stop889" /><stop
         stop-color="#ff4b5a"
         offset=".50594"
         id="stop891" /><stop
         stop-color="#ff509b"
         offset="1"
         id="stop893" /></linearGradient></defs><rect
     transform="matrix(1.0000071,0,0,1.0000071,-2.277238e-4,-2.277238e-4)"
     x="4.5"
     y="4.5"
     width="55"
     height="55"
     ry="15"
     fill="#141414"
     filter="url(#filter1057)"
     opacity="0.3"
     stroke-linecap="round"
     stroke-width="2.7444"
     id="rect898" /><rect
     x="4.4997663"
     y="4.4997663"
     width="55.000767"
     height="55.000767"
     ry="15.000106"
     fill="url(#linearGradient1053)"
     stroke-linecap="round"
     stroke-width="2.74437"
     id="rect900"
     style="fill:url(#linearGradient1053)" /><g
     fill="#5e4aa6"
     stroke-width="0.26458"
     id="g914"
     transform="matrix(3.779602,0,0,3.779602,-2.277238e-4,-2.277238e-4)"><circle
       cx="-330.38"
       cy="-328.51001"
       r="0"
       id="circle902" /><circle
       cx="-301.70999"
       cy="-344.42999"
       r="0"
       id="circle904" /><circle
       cx="-259.01001"
       cy="-348.26001"
       r="0"
       id="circle906" /><circle
       cx="31.886"
       cy="-13.442"
       r="0"
       fill-rule="evenodd"
       id="circle908" /><circle
       cx="-257.29001"
       cy="-350.64999"
       r="0"
       id="circle910" /><circle
       cx="33.611"
       cy="-15.826"
       r="0"
       fill-rule="evenodd"
       id="circle912" /></g><g
     fill="#5e4aa6"
     id="g960"
     transform="matrix(3.779602,0,0,3.779602,-2.277238e-4,-2.277238e-4)"><circle
       cx="-319.54999"
       cy="-349.41"
       r="0"
       stroke-width="0.26458"
       id="circle930" /><circle
       cx="-290.89001"
       cy="-365.31"
       r="0"
       stroke-width="0.26458"
       id="circle932" /><g
       transform="translate(1.6038,-14.265)"
       stroke-width="0.26458"
       id="g946"><circle
         cx="-330.38"
         cy="-328.51001"
         r="0"
         id="circle934" /><circle
         cx="-301.70999"
         cy="-344.42999"
         r="0"
         id="circle936" /><circle
         cx="-259.01001"
         cy="-348.26001"
         r="0"
         id="circle938" /><circle
         cx="31.886"
         cy="-13.442"
         r="0"
         fill-rule="evenodd"
         id="circle940" /><circle
         cx="-257.29001"
         cy="-350.64999"
         r="0"
         id="circle942" /><circle
         cx="33.611"
         cy="-15.826"
         r="0"
         fill-rule="evenodd"
         id="circle944" /></g><g
       transform="matrix(0.26458,0,0,0.26458,-43.411,-6.6509)"
       id="g954"><circle
         cx="-1248.7"
         cy="-1241.6"
         r="0"
         id="circle948" /><circle
         cx="-1140.3"
         cy="-1301.8"
         r="0"
         id="circle950" /><circle
         cx="-1158.1"
         cy="-1246"
         r="0"
         id="circle952" /></g><circle
       cx="-349.60999"
       cy="-342.06"
       r="0"
       stroke-width="0.26458"
       id="circle956" /><circle
       cx="-58.692001"
       cy="-7.2284999"
       r="0"
       fill-rule="evenodd"
       stroke-width="0.26458"
       id="circle958" /></g><g
     style="fill:#f9f9f9"
     id="g825"
     transform="matrix(1.1785714,0,0,1.1785714,3.7142864,4.3035721)"><path
       d="M 23,18.5 A 1.5,1.5 0 0 1 21.5,20 1.5,1.5 0 0 1 20,18.5 1.5,1.5 0 0 1 21.5,17 1.5,1.5 0 0 1 23,18.5 Z"
       id="path797" /><path
       d="M 28,18.5 A 1.5,1.5 0 0 1 26.5,20 1.5,1.5 0 0 1 25,18.5 1.5,1.5 0 0 1 26.5,17 1.5,1.5 0 0 1 28,18.5 Z"
       id="path799" /><path
       d="M 33,18.5 A 1.5,1.5 0 0 1 31.5,20 1.5,1.5 0 0 1 30,18.5 1.5,1.5 0 0 1 31.5,17 1.5,1.5 0 0 1 33,18.5 Z"
       id="path801" /><path
       d="M 18,18.5 A 1.5,1.5 0 0 1 16.5,20 1.5,1.5 0 0 1 15,18.5 1.5,1.5 0 0 1 16.5,17 1.5,1.5 0 0 1 18,18.5 Z"
       id="path803" /><path
       d="M 13,23.5 A 1.5,1.5 0 0 1 11.5,25 1.5,1.5 0 0 1 10,23.5 1.5,1.5 0 0 1 11.5,22 1.5,1.5 0 0 1 13,23.5 Z"
       id="path805" /><path
       d="M 18,23.5 A 1.5,1.5 0 0 1 16.5,25 1.5,1.5 0 0 1 15,23.5 1.5,1.5 0 0 1 16.5,22 1.5,1.5 0 0 1 18,23.5 Z"
       id="path807" /><path
       d="M 23,23.5 A 1.5,1.5 0 0 1 21.5,25 1.5,1.5 0 0 1 20,23.5 1.5,1.5 0 0 1 21.5,22 1.5,1.5 0 0 1 23,23.5 Z"
       id="path809" /><path
       d="M 28,23.5 A 1.5,1.5 0 0 1 26.5,25 1.5,1.5 0 0 1 25,23.5 1.5,1.5 0 0 1 26.5,22 1.5,1.5 0 0 1 28,23.5 Z"
       id="path811" /><path
       d="M 33,23.5 A 1.5,1.5 0 0 1 31.5,25 1.5,1.5 0 0 1 30,23.5 1.5,1.5 0 0 1 31.5,22 1.5,1.5 0 0 1 33,23.5 Z"
       id="path813" /><path
       d="M 38,23.5 A 1.5,1.5 0 0 1 36.5,25 1.5,1.5 0 0 1 35,23.5 1.5,1.5 0 0 1 36.5,22 1.5,1.5 0 0 1 38,23.5 Z"
       id="path815" /><path
       d="M 13,28.5 A 1.5,1.5 0 0 1 11.5,30 1.5,1.5 0 0 1 10,28.5 1.5,1.5 0 0 1 11.5,27 1.5,1.5 0 0 1 13,28.5 Z"
       id="path817" /><path
       d="M 18,28.5 A 1.5,1.5 0 0 1 16.5,30 1.5,1.5 0 0 1 15,28.5 1.5,1.5 0 0 1 16.5,27 1.5,1.5 0 0 1 18,28.5 Z"
       id="path819" /><path
       d="M 33,28.5 A 1.5,1.5 0 0 1 31.5,30 1.5,1.5 0 0 1 30,28.5 1.5,1.5 0 0 1 31.5,27 1.5,1.5 0 0 1 33,28.5 Z"
       id="path821" /><path
       d="M 38,28.5 A 1.5,1.5 0 0 1 36.5,30 1.5,1.5 0 0 1 35,28.5 1.5,1.5 0 0 1 36.5,27 1.5,1.5 0 0 1 38,28.5 Z"
       id="path823" /></g></svg>
