<?xml version="1.0" encoding="UTF-8" standalone="no"?>
<svg
   version="1.1"
   viewBox="0 0 64 64"
   id="svg23"
   sodipodi:docname="bitwarden.svg"
   width="64"
   height="64"
   xml:space="preserve"
   inkscape:version="1.2.1 (9c6d41e410, 2022-07-14, custom)"
   xmlns:inkscape="http://www.inkscape.org/namespaces/inkscape"
   xmlns:sodipodi="http://sodipodi.sourceforge.net/DTD/sodipodi-0.dtd"
   xmlns="http://www.w3.org/2000/svg"
   xmlns:svg="http://www.w3.org/2000/svg"><sodipodi:namedview
     id="namedview25"
     pagecolor="#ffffff"
     bordercolor="#999999"
     borderopacity="1"
     inkscape:showpageshadow="0"
     inkscape:pageopacity="0"
     inkscape:pagecheckerboard="0"
     inkscape:deskcolor="#d1d1d1"
     showgrid="false"
     inkscape:zoom="4.1354167"
     inkscape:cx="-14.75063"
     inkscape:cy="31.556675"
     inkscape:window-width="1920"
     inkscape:window-height="949"
     inkscape:window-x="0"
     inkscape:window-y="40"
     inkscape:window-maximized="1"
     inkscape:current-layer="svg23" /><defs
     id="defs7"><linearGradient
       id="bg"
       x2="0"
       y1="1"
       y2="47"
       gradientUnits="userSpaceOnUse"
       gradientTransform="translate(-62.239241)"><stop
         style="stop-color:#3c8ebd"
         offset="0"
         id="stop2" /><stop
         style="stop-color:#3782ad"
         offset="1"
         id="stop4" /></linearGradient><filter
       id="filter1057-36"
       x="-0.026999999"
       y="-0.026999999"
       width="1.054"
       height="1.054"
       color-interpolation-filters="sRGB"><feGaussianBlur
         stdDeviation="0.61875"
         id="feGaussianBlur320" /></filter><linearGradient
       id="linearGradient1053-5"
       x1="-127"
       x2="-72"
       y1="60"
       y2="5"
       gradientTransform="matrix(1.0000071,0,0,1.0000071,131.49969,-0.51009616)"
       gradientUnits="userSpaceOnUse"><stop
         stop-color="#2e55e7"
         offset="0"
         id="stop323" /><stop
         stop-color="#0d7eef"
         offset="1"
         id="stop325" /></linearGradient></defs><rect
     transform="matrix(1.0000071,0,0,1.0000071,-2.27362e-4,-2.27849e-4)"
     x="4.5"
     y="4.5"
     width="55"
     height="55"
     ry="15"
     fill="#141414"
     filter="url(#filter1057-36)"
     opacity="0.3"
     stroke-linecap="round"
     stroke-width="2.7444"
     id="rect330" /><rect
     x="4.5012765"
     y="4.5001459"
     width="55.000767"
     height="55.000767"
     ry="15.000106"
     fill="url(#linearGradient1053-5)"
     stroke-linecap="round"
     stroke-width="2.74437"
     id="rect332"
     style="fill:url(#linearGradient1053-5)" /><path
     d="m 18.875025,14.500029 c -0.807913,0 -1.458327,0.650414 -1.458327,1.458328 v 17.499926 c 0,6.999971 7.291636,12.687885 14.067754,15.924934 C 31.66613,49.469977 31.834947,49.5 32,49.5 c 0.165053,0 0.333854,-0.03004 0.515548,-0.116812 6.776117,-3.236903 14.067754,-8.924817 14.067754,-15.924934 V 15.958327 C 46.583302,15.150414 45.932887,14.5 45.124974,14.5 Z m 13.124946,4.374982 h 10.20829 v 15.312437 c 0,3.065258 -5.833309,8.556588 -10.20829,10.20829 z"
     style="fill:#f9f9f9;stroke-width:1.45832;paint-order:normal"
     id="path545" /></svg>
