<?xml version="1.0" encoding="UTF-8" standalone="no"?>
<svg
   width="64"
   height="64"
   version="1.1"
   id="svg40"
   sodipodi:docname="clip.svg"
   inkscape:version="1.2.2 (b0a8486541, 2022-12-01)"
   xmlns:inkscape="http://www.inkscape.org/namespaces/inkscape"
   xmlns:sodipodi="http://sodipodi.sourceforge.net/DTD/sodipodi-0.dtd"
   xmlns:xlink="http://www.w3.org/1999/xlink"
   xmlns="http://www.w3.org/2000/svg"
   xmlns:svg="http://www.w3.org/2000/svg">
  <sodipodi:namedview
     id="namedview42"
     pagecolor="#ffffff"
     bordercolor="#999999"
     borderopacity="1"
     inkscape:showpageshadow="0"
     inkscape:pageopacity="0"
     inkscape:pagecheckerboard="0"
     inkscape:deskcolor="#d1d1d1"
     showgrid="false"
     inkscape:zoom="3.3203125"
     inkscape:cx="-23.491765"
     inkscape:cy="31.472941"
     inkscape:window-width="1920"
     inkscape:window-height="1005"
     inkscape:window-x="0"
     inkscape:window-y="0"
     inkscape:window-maximized="1"
     inkscape:current-layer="svg40" />
  <defs
     id="defs12">
    <linearGradient
       inkscape:collect="always"
       id="linearGradient5060">
      <stop
         style="stop-color:#000051;stop-opacity:1"
         offset="0"
         id="stop5056" />
      <stop
         style="stop-color:#191984;stop-opacity:1"
         offset="1"
         id="stop5058" />
    </linearGradient>
    <radialGradient
       id="b"
       cx="32"
       cy="1096.5"
       r="11"
       gradientTransform="matrix(0.90909,0,0,0.90909,89.633441,-963.984)"
       gradientUnits="userSpaceOnUse">
      <stop
         offset="0"
         id="stop2" />
      <stop
         stop-opacity="0"
         offset="1"
         id="stop4" />
    </radialGradient>
    <linearGradient
       id="a"
       x1="7.937"
       x2="7.937"
       y1="15.081"
       y2="1.852"
       gradientTransform="matrix(3.7796,0,0,3.7796,141.28044,0)"
       gradientUnits="userSpaceOnUse">
      <stop
         stop-color="#000051"
         offset="0"
         id="stop7" />
      <stop
         stop-color="#191985"
         offset="1"
         id="stop9" />
    </linearGradient>
    <filter
       id="filter1057"
       x="-0.026999999"
       y="-0.026999999"
       width="1.054"
       height="1.054"
       color-interpolation-filters="sRGB">
      <feGaussianBlur
         stdDeviation="0.61875"
         id="feGaussianBlur658" />
    </filter>
    <linearGradient
       id="linearGradient1053"
       x1="-127"
       x2="-72"
       y1="60"
       y2="5"
       gradientTransform="translate(131.5,-0.51)"
       gradientUnits="userSpaceOnUse">
      <stop
         stop-color="#32d7ff"
         offset="0"
         id="stop661"
         style="stop-color:#000052;stop-opacity:1" />
      <stop
         stop-color="#329bff"
         offset="1"
         id="stop663"
         style="stop-color:#191984;stop-opacity:1" />
    </linearGradient>
    <linearGradient
       inkscape:collect="always"
       xlink:href="#linearGradient5060"
       id="linearGradient5062"
       x1="5.5132718"
       y1="58.528168"
       x2="58.909138"
       y2="5.1323013"
       gradientUnits="userSpaceOnUse" />
    <radialGradient
       inkscape:collect="always"
       xlink:href="#b"
       id="radialGradient6896"
       gradientUnits="userSpaceOnUse"
       gradientTransform="matrix(0.90909,0,0,0.90909,89.633441,-963.984)"
       cx="32"
       cy="1096.5"
       r="11" />
  </defs>
  <rect
     x="4.5"
     y="4.5"
     width="55"
     height="55"
     ry="15"
     fill="#141414"
     filter="url(#filter1057)"
     opacity="0.3"
     stroke-linecap="round"
     stroke-width="2.7444"
     id="rect694" />
  <rect
     x="4.5"
     y="4.5"
     width="55"
     height="55"
     ry="15"
     stroke-linecap="round"
     stroke-width="2.7444"
     id="rect696"
     style="fill:url(#linearGradient5062);fill-opacity:1" />
  <circle
     cx="32"
     cy="32"
     r="27"
     fill="#3f3fc1"
     opacity="0.3"
     id="circle7104" />
  <g
     id="g6894"
     transform="translate(-86.279442)">
    <circle
       cx="118.27944"
       cy="32"
       r="21.948999"
       fill="#8080ff"
       opacity="0.3"
       id="circle6876" />
    <circle
       cx="118.27944"
       cy="32"
       r="16.733999"
       fill="#aaaaff"
       opacity="0.3"
       id="circle6878" />
    <circle
       cx="118.27944"
       cy="32"
       r="11.873"
       fill="#d7d7f4"
       opacity="0.3"
       id="circle6880" />
    <circle
       cx="118.72444"
       cy="32.900024"
       r="10"
       fill="url(#b)"
       id="circle6882"
       style="fill:url(#radialGradient6896)" />
    <circle
       cx="118.27944"
       cy="32"
       r="9"
       fill="#6746c3"
       id="circle6884" />
    <path
       d="m 115.71244,27 c -0.548,0.01 -0.988,0.452 -0.988,1 v 7.999 a 1,1 0 0 0 1.554,0.831 l 7,-3.999 a 1,1 0 0 0 0,-1.664 l -7,-3.999 A 1,1 0 0 0 115.71244,27 Z"
       color="#000000"
       fill="#ffffff"
       fill-rule="evenodd"
       style="text-indent:0;text-decoration-line:none;text-decoration-style:solid;text-decoration-color:#000000;text-transform:none;white-space:normal;isolation:auto;mix-blend-mode:normal"
       id="path6886" />
  </g>
  <g
     id="g7046"
     transform="translate(-156.43465)">
    <rect
       x="162.86815"
       y="44.400024"
       width="51.132999"
       height="5.1929998"
       rx="0.76599997"
       ry="0.85000002"
       fill="#000051"
       opacity="0.4"
       id="rect7028" />
    <path
       d="m 195.43415,45 h -31 c -0.554,0 -1,0.446 -1,1 v 2 c 0,0.554 0.446,1 1,1 h 31 z"
       fill="#6746c3"
       opacity="0.9"
       id="path7030" />
    <path
       d="m 195.43415,45 v 4 h 17 c 0.554,0 1,-0.446 1,-1 v -2 c 0,-0.554 -0.446,-1 -1,-1 z"
       fill="#6746c3"
       opacity="0.5"
       id="path7032" />
    <rect
       x="162.86815"
       y="44.400024"
       width="51.132999"
       height="5.1929998"
       rx="0.76599997"
       ry="0.85000002"
       fill="#000051"
       opacity="0.4"
       id="rect7034" />
    <path
       d="m 195.43415,45 h -31 c -0.554,0 -1,0.446 -1,1 v 2 c 0,0.554 0.446,1 1,1 h 31 z"
       fill="#6746c3"
       opacity="0.9"
       id="path7036" />
    <path
       d="m 195.43415,45 v 4 h 17 c 0.554,0 1,-0.446 1,-1 v -2 c 0,-0.554 -0.446,-1 -1,-1 z"
       fill="#6746c3"
       opacity="0.5"
       id="path7038" />
  </g>
</svg>
