<?xml version="1.0" encoding="UTF-8" standalone="no"?>
<svg
   width="64"
   height="64"
   image-rendering="optimizeSpeed"
   xml:space="preserve"
   version="1.1"
   id="svg38"
   sodipodi:docname="com.rafaelmardojai.Blanket.svg"
   inkscape:version="1.2.2 (b0a8486541, 2022-12-01)"
   xmlns:inkscape="http://www.inkscape.org/namespaces/inkscape"
   xmlns:sodipodi="http://sodipodi.sourceforge.net/DTD/sodipodi-0.dtd"
   xmlns:xlink="http://www.w3.org/1999/xlink"
   xmlns="http://www.w3.org/2000/svg"
   xmlns:svg="http://www.w3.org/2000/svg"><sodipodi:namedview
     id="namedview40"
     pagecolor="#ffffff"
     bordercolor="#999999"
     borderopacity="1"
     inkscape:showpageshadow="0"
     inkscape:pageopacity="0"
     inkscape:pagecheckerboard="0"
     inkscape:deskcolor="#d1d1d1"
     showgrid="false"
     inkscape:zoom="6.640625"
     inkscape:cx="22.287059"
     inkscape:cy="12.8"
     inkscape:window-width="1920"
     inkscape:window-height="1002"
     inkscape:window-x="0"
     inkscape:window-y="0"
     inkscape:window-maximized="1"
     inkscape:current-layer="svg38" /><defs
     id="defs22"><linearGradient
       id="a"
       x1="7.937"
       x2="7.937"
       y1="15.081"
       y2="1.852"
       gradientTransform="matrix(3.7796,0,0,3.7796,78.874837,0)"
       gradientUnits="userSpaceOnUse"><stop
         stop-color="#f1efeb"
         offset="0"
         id="stop2" /><stop
         stop-color="#fdfcfc"
         offset="1"
         id="stop4" /></linearGradient><linearGradient
       id="d"
       x1="13"
       x2="22.5"
       y1="30.417"
       y2="30.417"
       gradientUnits="userSpaceOnUse"><stop
         stop-color="#2376c8"
         offset="0"
         id="stop7" /><stop
         stop-color="#19468a"
         offset="1"
         id="stop9" /></linearGradient><linearGradient
       id="c"
       x1="35.167"
       x2="35.167"
       y1="13"
       y2="51"
       gradientUnits="userSpaceOnUse"><stop
         stop-color="#428ce6"
         offset="0"
         id="stop12" /><stop
         stop-color="#1e75e0"
         offset="1"
         id="stop14" /></linearGradient><linearGradient
       id="b"
       x1="36.75"
       x2="36.75"
       y1="51"
       y2="13"
       gradientUnits="userSpaceOnUse"><stop
         stop-color="#8fc1ff"
         offset="0"
         id="stop17" /><stop
         stop-color="#c8def9"
         offset="1"
         id="stop19" /></linearGradient><filter
       id="filter1057"
       x="-0.026999999"
       y="-0.026999999"
       width="1.054"
       height="1.054"
       color-interpolation-filters="sRGB"><feGaussianBlur
         stdDeviation="0.61875"
         id="feGaussianBlur269" /></filter><linearGradient
       id="linearGradient1053"
       x1="-127"
       x2="-72"
       y1="60"
       y2="5"
       gradientTransform="matrix(0.26458,0,0,0.26458,12.042,-2.3085)"
       gradientUnits="userSpaceOnUse"><stop
         stop-color="#dee0e2"
         offset="0"
         id="stop272" /><stop
         stop-color="#f1f3f5"
         stop-opacity=".99608"
         offset="1"
         id="stop274" /></linearGradient><filter
       inkscape:collect="always"
       style="color-interpolation-filters:sRGB"
       id="filter1057-2"
       x="-0.026999999"
       width="1.054"
       y="-0.026999999"
       height="1.054"><feGaussianBlur
         inkscape:collect="always"
         stdDeviation="0.61875"
         id="feGaussianBlur1059-7" /></filter><linearGradient
       inkscape:collect="always"
       xlink:href="#b"
       id="linearGradient1577"
       gradientUnits="userSpaceOnUse"
       x1="36.75"
       y1="51"
       x2="36.75"
       y2="13" /><linearGradient
       inkscape:collect="always"
       xlink:href="#c"
       id="linearGradient1579"
       gradientUnits="userSpaceOnUse"
       x1="35.167"
       y1="13"
       x2="35.167"
       y2="51" /><linearGradient
       inkscape:collect="always"
       xlink:href="#d"
       id="linearGradient1581"
       gradientUnits="userSpaceOnUse"
       x1="13"
       y1="30.417"
       x2="22.5"
       y2="30.417" /><linearGradient
       id="linearGradient1502"
       x1="4.5"
       x2="59.5"
       y1="59.5"
       y2="4.5"
       gradientTransform="matrix(1.0000071,0,0,1.0000071,-0.0013215,-1.8945e-4)"
       gradientUnits="userSpaceOnUse"><stop
         stop-color="#055096"
         offset="0"
         id="stop5" /><stop
         stop-color="#0587eb"
         offset="1"
         id="stop7-3" /></linearGradient></defs><rect
     ry="15"
     y="4.4999995"
     x="4.4999995"
     height="55"
     width="55"
     id="rect1055-6"
     style="opacity:0.3;fill:#141414;fill-opacity:1;stroke-width:2.74436;stroke-linecap:round;filter:url(#filter1057-2)" /><path
     d="m 17.502015,4.5001825 c -7.203166,0 -13.0018305,5.7986655 -13.0018305,13.0018305 v 28.995973 c 0,7.203165 5.7986645,13.001831 13.0018305,13.001831 h 28.995973 c 7.203167,0 13.001827,-5.798666 13.001827,-13.001831 V 17.502013 c 0,-7.203165 -5.79866,-13.0018305 -13.001827,-13.0018305 z"
     fill="url(#linearGradient1502)"
     stroke-linecap="round"
     stroke-linejoin="round"
     stroke-width="2.01449"
     style="fill:url(#linearGradient1502);paint-order:stroke fill markers"
     id="path14" /><g
     stroke-width="1.583"
     id="g1575"><path
       d="m 27.25,13 -7.917,7.917 3.167,28.5 V 51 h 3.167 v -4.75 h 3.166 V 51 H 32 v -4.75 l 4.75,-1.583 4.75,1.583 V 51 h 3.167 v -4.75 h 3.166 V 51 H 51 V 41.5 L 47.833,36.75 51,32 V 22.5 L 44.667,17.75 C 44.667,15.119 39.382,13 36.75,13 Z"
       fill="url(#b)"
       id="path1569"
       style="fill:url(#linearGradient1577)" /><path
       d="m 17.75,13 v 9.5 H 32 V 17.75 A 4.74,4.74 0 0 0 27.25,13 Z M 32,22.5 V 32 h 9.5 v -9.5 z m 9.5,0 H 51 V 17.75 A 4.74,4.74 0 0 0 46.25,13 h -9.5 a 4.74,4.74 0 0 1 4.75,4.75 z m 0,9.5 v 9.5 H 51 V 32 Z m 0,9.5 H 32 v 4.75 h 3.167 V 51 h 3.166 V 46.25 H 41.5 Z m -9.5,0 V 32 H 17.75 v 9.5 z"
       fill="url(#c)"
       id="path1571"
       style="fill:url(#linearGradient1579)" /><path
       d="M 17.75,13 A 4.74,4.74 0 0 0 13,17.75 v 30.083 h 3.167 v -4.75 h 3.166 v 4.75 H 22.5 V 17.75 A 4.74,4.74 0 0 0 17.75,13 Z"
       fill="url(#d)"
       id="path1573"
       style="fill:url(#linearGradient1581)" /></g></svg>
