<?xml version="1.0" encoding="UTF-8" standalone="no"?>
<svg
   width="64"
   height="64"
   version="1.1"
   id="svg45"
   sodipodi:docname="com.github.phase1geo.minder.svg"
   inkscape:version="1.2.1 (9c6d41e410, 2022-07-14)"
   xmlns:inkscape="http://www.inkscape.org/namespaces/inkscape"
   xmlns:sodipodi="http://sodipodi.sourceforge.net/DTD/sodipodi-0.dtd"
   xmlns:xlink="http://www.w3.org/1999/xlink"
   xmlns="http://www.w3.org/2000/svg"
   xmlns:svg="http://www.w3.org/2000/svg"
   xmlns:rdf="http://www.w3.org/1999/02/22-rdf-syntax-ns#"
   xmlns:cc="http://creativecommons.org/ns#"
   xmlns:dc="http://purl.org/dc/elements/1.1/">
  <sodipodi:namedview
     id="namedview47"
     pagecolor="#ffffff"
     bordercolor="#999999"
     borderopacity="1"
     inkscape:showpageshadow="0"
     inkscape:pageopacity="0"
     inkscape:pagecheckerboard="0"
     inkscape:deskcolor="#d1d1d1"
     showgrid="false"
     inkscape:zoom="6.34375"
     inkscape:cx="12.926108"
     inkscape:cy="47.29064"
     inkscape:window-width="1920"
     inkscape:window-height="936"
     inkscape:window-x="0"
     inkscape:window-y="40"
     inkscape:window-maximized="1"
     inkscape:current-layer="svg45" />
  <metadata
     id="metadata2">
    <rdf:RDF>
      <cc:Work
         rdf:about="">
        <dc:format>image/svg+xml</dc:format>
        <dc:type
           rdf:resource="http://purl.org/dc/dcmitype/StillImage" />
        <dc:title />
      </cc:Work>
    </rdf:RDF>
  </metadata>
  <defs
     id="defs19">
    <linearGradient
       id="linearGradient949"
       x1="7.9373"
       x2="7.9373"
       y1="15.081"
       y2="1.852"
       gradientTransform="matrix(3.7796,0,0,3.7796,69.611008,0)"
       gradientUnits="userSpaceOnUse">
      <stop
         stop-color="#1fe0aa"
         offset="0"
         id="stop4" />
      <stop
         stop-color="#b2ff85"
         offset="1"
         id="stop6" />
    </linearGradient>
    <linearGradient
       id="linearGradient1100"
       x1="399.57"
       x2="399.57"
       y1="545.8"
       y2="517.8"
       gradientTransform="matrix(2.1429,0,0,2.1429,-826.36,-1107.5)"
       gradientUnits="userSpaceOnUse">
      <stop
         stop-color="#3889e9"
         offset="0"
         id="stop9" />
      <stop
         stop-color="#5ea5fb"
         offset="1"
         id="stop11" />
    </linearGradient>
    <linearGradient
       id="linearGradient888"
       x1="23.813"
       x2="23.813"
       y1="13.436"
       y2="35.036"
       gradientTransform="matrix(1.2307,0,0,1.2307,73.305508,2.465)"
       gradientUnits="userSpaceOnUse">
      <stop
         stop-color="#20adff"
         offset="0"
         id="stop14" />
      <stop
         stop-color="#345da2"
         offset="1"
         id="stop16" />
    </linearGradient>
    <filter
       id="filter1057-4"
       x="-0.026999999"
       y="-0.026999999"
       width="1.054"
       height="1.054"
       color-interpolation-filters="sRGB">
      <feGaussianBlur
         stdDeviation="0.61875"
         id="feGaussianBlur276" />
    </filter>
    <linearGradient
       id="linearGradient1053-0"
       x1="-127"
       x2="-72"
       y1="60"
       y2="5"
       gradientTransform="matrix(1.0000071,0,0,1.0000071,131.50324,-0.5102472)"
       gradientUnits="userSpaceOnUse">
      <stop
         stop-color="#02db96"
         offset="0"
         id="stop279" />
      <stop
         stop-color="#13d39b"
         offset="1"
         id="stop281" />
    </linearGradient>
    <linearGradient
       inkscape:collect="always"
       xlink:href="#linearGradient888"
       id="linearGradient627"
       gradientUnits="userSpaceOnUse"
       gradientTransform="matrix(1.2307,0,0,1.2307,73.305508,2.465)"
       x1="23.813"
       y1="13.436"
       x2="23.813"
       y2="35.036" />
  </defs>
  <circle
     cx="32.02"
     cy="32.044"
     r="0"
     fill="url(#linearGradient1100)"
     stroke-width="1.5715"
     id="circle31" />
  <rect
     transform="matrix(1.0000071,0,0,1.0000071,-2.2772188e-4,-2.2770548e-4)"
     x="4.5"
     y="4.5"
     width="55"
     height="55"
     ry="15"
     fill="#141414"
     filter="url(#filter1057-4)"
     opacity="0.3"
     stroke-linecap="round"
     stroke-width="2.7444"
     id="rect288" />
  <rect
     x="4.4999175"
     y="4.4999175"
     width="55.000767"
     height="55.000767"
     ry="15.000106"
     fill="url(#linearGradient1053-0)"
     stroke-linecap="round"
     stroke-width="2.74441"
     id="rect290"
     style="fill:url(#linearGradient1053-0)" />
  <g
     id="g625"
     transform="translate(-69.611284)">
    <path
       d="m 101.48801,17.233 c -1.977702,0 -3.569002,1.5913 -3.569002,3.569 v 0.2449 c 0,0.45289 0.08984,0.88116 0.24244,1.2787 l -4.7886,3.9898 a 5.538,5.538 0 0 0 -2.2238,-0.46889 5.538,5.538 0 0 0 -5.538,5.538 5.538,5.538 0 0 0 5.538,5.538 5.538,5.538 0 0 0 2.3457,-0.52919 l 4.8772,4.0649 c -0.28059,0.56119 -0.45412,1.1876 -0.45412,1.8608 v 0.28306 c 0,2.3075 1.8583,4.1658 4.165802,4.1658 h 10.128 c 2.3075,0 4.1658,-1.8583 4.1658,-4.1658 v -0.28306 c 0,-2.3075 -1.8583,-4.1658 -4.1658,-4.1658 h -10.128 c -0.91685,0 -1.7562,0.30028 -2.441702,0.79748 l -3.8262,-4.5929 a 5.538,5.538 0 0 0 0.68549,-1.5691 l 2.8466,-0.25967 c 0.42212,1.1285 1.499002,1.9322 2.778902,1.9322 h 12.509 c 1.6479,0 2.9758,-1.3279 2.9758,-2.9758 V 31.2836 c 0,-1.6479 -1.3279,-2.9758 -2.9758,-2.9758 h -12.509 c -1.2787,0 -2.356702,0.8024 -2.778902,1.9297 l -2.8441,-0.25721 a 5.538,5.538 0 0 0 -0.74456,-1.6639 l 3.649,-4.38 c 0.58703,0.42212 1.300802,0.6781 2.081102,0.6781 h 11.321 c 1.9777,0 3.569,-1.5913 3.569,-3.569 v -0.2449 c 0,-1.9777 -1.5913,-3.569 -3.569,-3.569 h -11.321 z"
       fill="url(#linearGradient888)"
       id="path607"
       style="fill:url(#linearGradient627)" />
    <g
       fill="#d0f9e7"
       id="g615"
       transform="translate(69.611008)">
      <rect
         x="29.539"
         y="18.464001"
         width="15.999"
         height="4.9226999"
         rx="2.3801"
         id="rect609"
         style="fill:#ffffff;fill-opacity:1" />
      <rect
         x="30.768999"
         y="29.540001"
         width="15.999"
         height="3.6919999"
         rx="1.7845"
         id="rect611"
         style="fill:#ffffff;fill-opacity:1" />
      <rect
         x="29.539"
         y="39.384998"
         width="15.999"
         height="6.1533999"
         rx="2.9744999"
         id="rect613"
         style="fill:#ffffff;fill-opacity:1" />
    </g>
    <circle
       cx="91.150009"
       cy="31.386"
       r="4.3074002"
       id="circle617"
       style="fill:#ffffff;fill-opacity:1" />
  </g>
</svg>
