<?xml version="1.0" encoding="UTF-8"?>
<svg width="64" height="64" version="1.1" viewBox="0 0 16.933 16.933" xmlns="http://www.w3.org/2000/svg" xmlns:cc="http://creativecommons.org/ns#" xmlns:dc="http://purl.org/dc/elements/1.1/" xmlns:rdf="http://www.w3.org/1999/02/22-rdf-syntax-ns#" xmlns:xlink="http://www.w3.org/1999/xlink">
 <metadata>
  <rdf:RDF>
   <cc:Work rdf:about="">
    <dc:format>image/svg+xml</dc:format>
    <dc:type rdf:resource="http://purl.org/dc/dcmitype/StillImage"/>
   </cc:Work>
  </rdf:RDF>
 </metadata>
 <defs>
  <filter id="filter1057" x="-.027" y="-.027" width="1.054" height="1.054" color-interpolation-filters="sRGB">
   <feGaussianBlur stdDeviation="0.61875"/>
  </filter>
  <linearGradient id="linearGradient1053" x1="-127" x2="-72" y1="60" y2="5" gradientTransform="matrix(.26458 0 0 .26458 34.792 -.13493)" gradientUnits="userSpaceOnUse">
   <stop stop-color="#dee0e2" offset="0"/>
   <stop stop-color="#f1f3f5" stop-opacity=".99608" offset="1"/>
  </linearGradient>
  <linearGradient id="linearGradient933" x1="18.991" x2="20.756" y1="20.937" y2="14.348" gradientTransform="matrix(.5 0 0 .5 .047609 -.047966)" gradientUnits="userSpaceOnUse">
   <stop stop-color="#2d2d2d" offset="0"/>
   <stop stop-color="#505050" offset="1"/>
  </linearGradient>
 </defs>
 <rect transform="scale(.26458)" x="4.5" y="4.5" width="55" height="55" ry="15" fill="#141414" filter="url(#filter1057)" opacity=".3" stroke-linecap="round" stroke-width="2.7444"/>
 <rect x="1.1906" y="1.1906" width="14.552" height="14.552" ry="3.9687" fill="url(#linearGradient1053)" stroke-linecap="round" stroke-width=".7261"/>
 <path d="m10.559 10.615c-0.25662 0.0037-0.50332 0.0072-0.76219 0.01096 0.20996-1.1692 0.41905-2.3335 0.62852-3.4999 0.02167-0.00245 0.03948-0.00599 0.05733-0.00625 0.49141-0.00707 0.98277-0.01797 1.4741-0.01829 0.13892-1.475e-4 0.28101 0.01779 0.41629 0.04998 0.43996 0.10468 0.70443 0.42595 0.71516 0.87709 0.01279 0.53049-0.17488 0.97694-0.59082 1.3194-0.26949 0.22178-0.58784 0.3027-0.92605 0.31881-0.25597 0.01215-0.51264 0.012135-0.76902 0.0145-0.05463 5e-4 -0.07906 0.013175-0.08905 0.073255-0.04763 0.28514-0.10149 0.56931-0.15433 0.86048zm0.26563-1.4747c0.26547-0.01414 0.51273-0.01505 0.75682-0.043695 0.31885-0.037265 0.54336-0.21302 0.63278-0.52694 0.04283-0.15039 0.06884-0.30966 0.07361-0.46585 0.0076-0.24699-0.09829-0.38545-0.34375-0.41552-0.27939-0.03422-0.56352-0.029735-0.8512-0.042265-0.09052 0.50406-0.17736 0.98836-0.26826 1.4943zm-6.2191 1.559c-0.25636 0.0037-0.5057 0.0073-0.76192 0.01096 0.20958-1.1678 0.4183-2.3306 0.62788-3.4983 0.02524-0.00235 0.0486-0.00638 0.07214-0.00673 0.48215-0.00706 0.96439-0.017445 1.4466-0.01816 0.13587-2.32e-4 0.27489 0.01536 0.4075 0.04574 0.43579 0.099709 0.69028 0.37111 0.72974 0.81443 0.07688 0.86523-0.49385 1.4846-1.065 1.6329-0.15238 0.0395-0.31147 0.062562-0.46878 0.071837-0.24958 0.014835-0.50019 0.012885-0.75048 0.01516-0.05159 4.77e-4 -0.07349 0.014155-0.08288 0.06933-0.04816 0.28528-0.10162 0.56971-0.15482 0.86287zm0.26538-1.4735c0.26362-0.01398 0.51102-0.01476 0.75511-0.043275 0.32704-0.03831 0.55211-0.22069 0.63956-0.54318 0.03946-0.14531 0.06451-0.29835 0.06883-0.44858 7e-3 -0.24698-0.09857-0.38663-0.3431-0.41659-0.27953-0.03435-0.56379-0.02986-0.85213-0.04265-0.09052 0.50406-0.17749 0.98849-0.26826 1.4943zm2.7629-2.9929c0.25702-0.0037 0.50332-0.00724 0.75597-0.010875-0.05533 0.31092-0.10969 0.61614-0.1655 0.92997 0.20556-0.00295 0.40375-0.012685 0.6015-0.00667 0.2004 0.00611 0.40431 0.00808 0.59975 0.046675 0.41304 0.081645 0.59017 0.34662 0.52241 0.76832-0.07687 0.4782-0.167 0.95421-0.2513 1.4312-0.01495 0.084093-0.02694 0.16868-0.04692 0.25153-0.0053 0.0219-0.03496 0.053425-0.05413 0.054097-0.23726 0.00699-0.47472 0.00921-0.72221 0.01277 0.04112-0.23173 0.08054-0.45298 0.1197-0.67423 0.05664-0.32099 0.11713-0.64138 0.16793-0.96322 0.03725-0.23551-0.05519-0.35061-0.29463-0.35762-0.24355-0.00722-0.48761 0.00465-0.74502 0.00833-0.11908 0.66218-0.23865 1.3264-0.35934 1.9965-0.24934 0.0036-0.49776 0.00716-0.75623 0.010875 0.20959-1.167 0.41819-2.3293 0.62802-3.4976z" fill="url(#linearGradient933)" fill-rule="evenodd" vector-effect="non-scaling-stroke" style="isolation:isolate"/>
</svg>
