<?xml version="1.0" encoding="UTF-8" standalone="no"?>
<svg
   width="64"
   height="64"
   viewBox="0 0 16.933 16.933"
   version="1.1"
   id="svg38"
   sodipodi:docname="communicator.svg"
   inkscape:version="1.2.2 (b0a8486541, 2022-12-01)"
   xmlns:inkscape="http://www.inkscape.org/namespaces/inkscape"
   xmlns:sodipodi="http://sodipodi.sourceforge.net/DTD/sodipodi-0.dtd"
   xmlns:xlink="http://www.w3.org/1999/xlink"
   xmlns="http://www.w3.org/2000/svg"
   xmlns:svg="http://www.w3.org/2000/svg">
  <sodipodi:namedview
     id="namedview40"
     pagecolor="#ffffff"
     bordercolor="#999999"
     borderopacity="1"
     inkscape:showpageshadow="0"
     inkscape:pageopacity="0"
     inkscape:pagecheckerboard="0"
     inkscape:deskcolor="#d1d1d1"
     showgrid="false"
     inkscape:zoom="6.640625"
     inkscape:cx="35.84"
     inkscape:cy="13.552941"
     inkscape:window-width="1920"
     inkscape:window-height="1002"
     inkscape:window-x="0"
     inkscape:window-y="0"
     inkscape:window-maximized="1"
     inkscape:current-layer="svg38" />
  <defs
     id="defs22">
    <linearGradient
       id="d"
       x1="2.646"
       x2="14.189"
       y1="3.257"
       y2="14.287"
       gradientUnits="userSpaceOnUse"
       gradientTransform="translate(22.933946)">
      <stop
         stop-color="#42a5f5"
         offset="0"
         id="stop2" />
      <stop
         stop-color="#1e88e5"
         offset="1"
         id="stop4" />
    </linearGradient>
    <linearGradient
       id="c"
       x1="14.552"
       x2="14.552"
       y1="7.911541"
       y2="6.085"
       gradientUnits="userSpaceOnUse"
       gradientTransform="translate(0,0.36635359)">
      <stop
         stop-color="#5ac8fa"
         offset="0"
         id="stop7" />
      <stop
         stop-color="#3e7790"
         offset="1"
         id="stop9" />
    </linearGradient>
    <linearGradient
       id="b"
       x1="14.816"
       x2="14.816"
       y1="10.509154"
       y2="8.731"
       gradientUnits="userSpaceOnUse"
       gradientTransform="translate(0,-0.3663535)">
      <stop
         stop-color="#ff9500"
         offset="0"
         id="stop12" />
      <stop
         stop-color="#915400"
         offset="1"
         id="stop14" />
    </linearGradient>
    <linearGradient
       id="a"
       x1="14.287"
       x2="14.287"
       y1="13.667462"
       y2="11.377"
       gradientUnits="userSpaceOnUse"
       gradientTransform="translate(2.9593697e-8,-1.098061)">
      <stop
         stop-color="#4cd964"
         offset="0"
         id="stop17" />
      <stop
         stop-color="#2c7e3a"
         offset="1"
         id="stop19" />
    </linearGradient>
    <filter
       inkscape:collect="always"
       style="color-interpolation-filters:sRGB"
       id="filter1057"
       x="-0.026999999"
       width="1.054"
       y="-0.026999999"
       height="1.054">
      <feGaussianBlur
         inkscape:collect="always"
         stdDeviation="0.61875"
         id="feGaussianBlur1059" />
    </filter>
    <linearGradient
       inkscape:collect="always"
       xlink:href="#linearGradient1051"
       id="linearGradient1053"
       x1="-127"
       y1="60"
       x2="-72"
       y2="5"
       gradientUnits="userSpaceOnUse"
       gradientTransform="matrix(0.26457812,0,0,0.26457812,34.792023,-0.13493371)" />
    <linearGradient
       inkscape:collect="always"
       id="linearGradient1051">
      <stop
         style="stop-color:#2e55e7;stop-opacity:1"
         offset="0"
         id="stop1047" />
      <stop
         style="stop-color:#0d7eef;stop-opacity:1"
         offset="1"
         id="stop1049" />
    </linearGradient>
  </defs>
  <rect
     ry="15"
     y="4.4999995"
     x="4.4999995"
     height="55"
     width="55"
     id="rect1055"
     style="opacity:0.3;fill:#141414;fill-opacity:1;stroke-width:2.74436;stroke-linecap:round;filter:url(#filter1057)"
     transform="scale(0.26457812)" />
  <path
     d="m 7.408,13.453939 a 1.848,1.848 0 0 1 -1.852,-1.852 v -1.852 c 0,-0.293 0.236,-0.53 0.53,-0.53 h 9.789 c 0.293,0 0.529,0.237 0.529,0.53 v 1.852 a 1.848,1.848 0 0 1 -1.852,1.852 z"
     fill="url(#a)"
     id="path26"
     style="fill:url(#a)" />
  <rect
     x="5.5560002"
     y="7.3066463"
     width="10.848"
     height="4.2329998"
     rx="0.52899998"
     ry="0.52899998"
     fill="url(#b)"
     id="rect28"
     style="fill:url(#b)" />
  <rect
     x="5.5560002"
     y="5.3933539"
     width="10.848"
     height="4.2329998"
     rx="0.52899998"
     ry="0.52899998"
     fill="url(#c)"
     id="rect30"
     style="fill:url(#c)" />
  <path
     d="m 7.408,3.4790608 a 1.848,1.848 0 0 0 -1.852,1.852 v 1.8520001 c 0,0.293 0.236,0.53 0.53,0.53 h 9.789 a 0.529,0.529 0 0 0 0.529,-0.53 V 5.3310608 a 1.848,1.848 0 0 0 -1.852,-1.852 z"
     fill="#e3e36e"
     id="path32" />
  <rect
     style="fill:url(#linearGradient1053);fill-opacity:1;stroke-width:0.726098;stroke-linecap:round"
     id="rect1045"
     width="14.551796"
     height="14.551796"
     x="1.1906021"
     y="1.1906021"
     ry="3.9686716" />
  <path
     d="m 10.26947,4.4978455 a 3.9678386,3.9678386 0 0 0 -3.9686714,3.9686718 3.9678386,3.9678386 0 0 0 1.903096,3.3837457 3.9678386,3.9678386 0 0 0 0.017498,0.01 3.9678386,3.9678386 0 0 0 0.3232931,0.176645 3.9678386,3.9678386 0 0 0 0.049994,0.02166 3.9678386,3.9678386 0 0 0 0.3116278,0.130817 3.9678386,3.9678386 0 0 0 0.074991,0.025 3.9678386,3.9678386 0 0 0 0.2924635,0.09082 3.9678386,3.9678386 0 0 0 0.1208183,0.02666 3.9678386,3.9678386 0 0 0 0.261634,0.05249 3.9678386,3.9678386 0 0 0 0.1474817,0.0175 3.9678386,3.9678386 0 0 0 0.253302,0.025 3.9678386,3.9678386 0 0 0 0.212473,0.0083 3.9678386,3.9678386 0 0 0 2.932968,-1.303171 3.9678386,3.9678386 0 0 0 0.0375,-0.03999 l -8.33e-4,-0.0017 A 3.9678386,3.9678386 0 0 0 14.237309,8.4656841 3.9678386,3.9678386 0 0 0 10.26947,4.4978455 Z m 0,0.4416116 a 3.5270602,3.5270602 0 0 1 3.527061,3.526227 3.5270602,3.5270602 0 0 1 -0.824897,2.2647179 C 12.365043,10.017157 11.44349,9.5672134 10.268637,9.5672134 c -1.1723536,0 -2.0939054,0.4482776 -2.7013297,1.1606886 A 3.5270602,3.5270602 0 0 1 6.7424102,8.4648509 3.5270602,3.5270602 0 0 1 10.268637,4.9377906 Z m 0,1.1015293 A 1.3223351,1.4331546 0 0 0 8.9463021,7.474141 1.3223351,1.4331546 0 0 0 10.26947,8.9072957 1.3223351,1.4331546 0 0 0 11.591805,7.474141 1.3223351,1.4331546 0 0 0 10.26947,6.0409864 Z"
     fill="#ffffff"
     id="path36"
     style="stroke-width:0.833229" />
  <path
     d="M 5.0533477,1.1957611 C 3.1039093,1.2468721 1.5169962,2.6882725 1.2386601,4.5707194 1.2055721,5.1173114 1.1906021,5.7293072 1.1906021,6.4341432 v 4.0647138 c 0,0.704783 0.014971,1.316831 0.048058,1.863423 0.2783626,1.882421 1.8652492,3.323895 3.8146876,3.374959 z"
     opacity="0.3"
     id="path369"
     style="stroke-width:0.264578" />
</svg>
