<?xml version="1.0" encoding="UTF-8" standalone="no"?>
<svg
   width="64"
   height="64"
   fill="none"
   version="1.1"
   id="svg23"
   sodipodi:docname="cura-icon.svg"
   inkscape:version="1.2.2 (b0a8486541, 2022-12-01)"
   xmlns:inkscape="http://www.inkscape.org/namespaces/inkscape"
   xmlns:sodipodi="http://sodipodi.sourceforge.net/DTD/sodipodi-0.dtd"
   xmlns:xlink="http://www.w3.org/1999/xlink"
   xmlns="http://www.w3.org/2000/svg"
   xmlns:svg="http://www.w3.org/2000/svg">
  <sodipodi:namedview
     id="namedview25"
     pagecolor="#ffffff"
     bordercolor="#999999"
     borderopacity="1"
     inkscape:showpageshadow="0"
     inkscape:pageopacity="0"
     inkscape:pagecheckerboard="0"
     inkscape:deskcolor="#d1d1d1"
     showgrid="false"
     inkscape:zoom="6.640625"
     inkscape:cx="-1.0541176"
     inkscape:cy="10.390588"
     inkscape:window-width="1920"
     inkscape:window-height="1002"
     inkscape:window-x="0"
     inkscape:window-y="0"
     inkscape:window-maximized="1"
     inkscape:current-layer="svg23" />
  <rect
     ry="15"
     y="4.4999995"
     x="4.4999995"
     height="55"
     width="55"
     id="rect1055"
     style="opacity:0.3;fill:#141414;fill-opacity:1;stroke-width:2.74436;stroke-linecap:round;filter:url(#filter1057)" />
  <rect
     style="fill:url(#linearGradient1053);fill-opacity:1;stroke-width:2.74436;stroke-linecap:round"
     id="rect1045"
     width="54.999996"
     height="54.999996"
     x="4.5000019"
     y="4.5000019"
     ry="14.999999" />
  <path
     d="M36.517 47c-2.757 0-5.221-.367-7.392-1.1-2.17-.763-4.004-1.819-5.5-3.168a13.93 13.93 0 0 1-3.432-4.884c-.792-1.877-1.188-3.96-1.188-6.248 0-2.288.396-4.37 1.188-6.248a13.505 13.505 0 0 1 3.432-4.84c1.526-1.379 3.359-2.435 5.5-3.168 2.171-.763 4.635-1.144 7.392-1.144h4.664v7.436h-4.356c-1.349 0-2.537.205-3.564.616-1.026.41-1.877.983-2.552 1.716a7.066 7.066 0 0 0-1.54 2.508 9.82 9.82 0 0 0-.484 3.124 9.82 9.82 0 0 0 .484 3.124 7.525 7.525 0 0 0 1.54 2.552c.675.704 1.526 1.261 2.552 1.672 1.027.41 2.215.616 3.564.616h4.356V47h-4.664Z"
     fill="#fff"
     id="path14" />
  <defs
     id="defs21">
    <linearGradient
       id="a"
       x1="4"
       y1="4"
       x2="60"
       y2="60"
       gradientUnits="userSpaceOnUse">
      <stop
         stop-color="#3FD8FD"
         id="stop16" />
      <stop
         offset="1"
         stop-color="#0472F9"
         id="stop18" />
    </linearGradient>
    <filter
       inkscape:collect="always"
       style="color-interpolation-filters:sRGB"
       id="filter1057"
       x="-0.026999999"
       width="1.054"
       y="-0.026999999"
       height="1.054">
      <feGaussianBlur
         inkscape:collect="always"
         stdDeviation="0.61875"
         id="feGaussianBlur1059" />
    </filter>
    <linearGradient
       inkscape:collect="always"
       xlink:href="#linearGradient1051"
       id="linearGradient1053"
       x1="-127"
       y1="60"
       x2="-72"
       y2="5"
       gradientUnits="userSpaceOnUse"
       gradientTransform="translate(131.5,-0.50999708)" />
    <linearGradient
       inkscape:collect="always"
       id="linearGradient1051">
      <stop
         style="stop-color:#32d7ff;stop-opacity:1"
         offset="0"
         id="stop1047" />
      <stop
         style="stop-color:#329bff;stop-opacity:1"
         offset="1"
         id="stop1049" />
    </linearGradient>
  </defs>
</svg>
