<?xml version="1.0" encoding="UTF-8" standalone="no"?>
<svg
   width="64"
   height="64"
   image-rendering="optimizeSpeed"
   version="1.1"
   id="svg56"
   sodipodi:docname="freecad.svg"
   inkscape:version="1.2.2 (b0a8486541, 2022-12-01)"
   xmlns:inkscape="http://www.inkscape.org/namespaces/inkscape"
   xmlns:sodipodi="http://sodipodi.sourceforge.net/DTD/sodipodi-0.dtd"
   xmlns:xlink="http://www.w3.org/1999/xlink"
   xmlns="http://www.w3.org/2000/svg"
   xmlns:svg="http://www.w3.org/2000/svg">
  <sodipodi:namedview
     id="namedview58"
     pagecolor="#ffffff"
     bordercolor="#999999"
     borderopacity="1"
     inkscape:showpageshadow="0"
     inkscape:pageopacity="0"
     inkscape:pagecheckerboard="0"
     inkscape:deskcolor="#d1d1d1"
     showgrid="false"
     inkscape:zoom="4.695631"
     inkscape:cx="31.944589"
     inkscape:cy="25.768635"
     inkscape:window-width="1920"
     inkscape:window-height="1002"
     inkscape:window-x="0"
     inkscape:window-y="0"
     inkscape:window-maximized="1"
     inkscape:current-layer="svg56" />
  <defs
     id="defs40">
    <linearGradient
       id="linearGradient1393"
       x1="25"
       x2="25"
       y1="50"
       y2="15"
       gradientUnits="userSpaceOnUse"
       gradientTransform="translate(93.989829)">
      <stop
         stop-color="#ff0f2f"
         offset="0"
         id="stop1389"
         style="stop-color:#ffffff;stop-opacity:1;" />
      <stop
         stop-color="#ff8585"
         offset="1"
         id="stop1391" />
    </linearGradient>
    <linearGradient
       id="a"
       x1="7.937"
       x2="7.937"
       y1="15.081"
       y2="1.852"
       gradientTransform="matrix(3.7795,0,0,3.7795,93.989829,0.031)"
       gradientUnits="userSpaceOnUse">
      <stop
         stop-color="#f1efeb"
         offset="0"
         id="stop2" />
      <stop
         stop-color="#fdfcfc"
         offset="1"
         id="stop4" />
    </linearGradient>
    <linearGradient
       id="c"
       x1="11.993"
       x2="11.993"
       y1="15.289"
       y2="8.384"
       gradientTransform="translate(0 1) scale(3.7796)"
       gradientUnits="userSpaceOnUse">
      <stop
         stop-color="#2e2e2e"
         offset="0"
         id="stop7" />
      <stop
         stop-color="#5c5c5c"
         offset="1"
         id="stop9" />
    </linearGradient>
    <linearGradient
       id="e"
       x1="2331.3"
       x2="2331.3"
       y1="435.51"
       y2="45.726"
       gradientTransform="translate(-134.88 27.286) scale(.07774)"
       gradientUnits="userSpaceOnUse">
      <stop
         stop-color="#807c76"
         offset=".058"
         id="stop12" />
      <stop
         stop-color="#d4d7d0"
         offset=".385"
         id="stop14" />
      <stop
         stop-color="#bdbfba"
         offset=".558"
         id="stop16" />
      <stop
         stop-color="#acb3ac"
         offset=".635"
         id="stop18" />
      <stop
         stop-color="#dadfda"
         offset=".75"
         id="stop20" />
      <stop
         stop-color="#c2c7c1"
         offset=".863"
         id="stop22" />
      <stop
         stop-color="#7f7a75"
         offset=".941"
         id="stop24" />
    </linearGradient>
    <linearGradient
       id="f"
       x1="25"
       x2="25"
       y1="50"
       y2="15"
       gradientUnits="userSpaceOnUse"
       gradientTransform="translate(93.989829)">
      <stop
         stop-color="#ff0f2f"
         offset="0"
         id="stop27" />
      <stop
         stop-color="#ff8585"
         offset="1"
         id="stop29" />
    </linearGradient>
    <radialGradient
       id="b"
       cx="12.171"
       cy="12.171"
       r="4.762"
       gradientTransform="scale(3.7796)"
       gradientUnits="userSpaceOnUse">
      <stop
         offset="0"
         id="stop32" />
      <stop
         stop-opacity="0"
         offset="1"
         id="stop34" />
    </radialGradient>
    <filter
       id="d"
       x="-0.108"
       y="-0.108"
       width="1.216"
       height="1.216"
       color-interpolation-filters="sRGB">
      <feGaussianBlur
         stdDeviation="1.08"
         id="feGaussianBlur37" />
    </filter>
    <linearGradient
       id="linearGradient1576"
       x1="499.95001"
       x2="499.95001"
       y1="2.0078001"
       y2="1026"
       gradientTransform="matrix(0.99609,0,0,0.99609,2,2)"
       gradientUnits="userSpaceOnUse">
      <stop
         stop-color="#fff"
         offset="0"
         id="stop292" />
      <stop
         stop-color="#d7d7d7"
         offset="1"
         id="stop294" />
    </linearGradient>
    <radialGradient
       id="radialGradient1578"
       cx="512.01001"
       cy="512.01001"
       r="470.16"
       gradientTransform="matrix(0.97625,0,0,0.97625,12.152,12.141)"
       gradientUnits="userSpaceOnUse">
      <stop
         stop-opacity="0"
         offset="0"
         id="stop297" />
      <stop
         stop-opacity=".52593"
         offset="1"
         id="stop299" />
    </radialGradient>
    <linearGradient
       id="linearGradient1580"
       x1="2331.3"
       x2="2331.3"
       y1="435.51001"
       y2="45.726002"
       gradientTransform="matrix(2.6682,0,0,2.6682,-5700.6,-128.41)"
       gradientUnits="userSpaceOnUse">
      <stop
         stop-color="#807c76"
         offset=".057692"
         id="stop302" />
      <stop
         stop-color="#d4d7d0"
         offset=".38462"
         id="stop304" />
      <stop
         stop-color="#bdbfba"
         offset=".55769"
         id="stop306" />
      <stop
         stop-color="#acb3ac"
         offset=".63462"
         id="stop308" />
      <stop
         stop-color="#dadfda"
         offset=".75"
         id="stop310" />
      <stop
         stop-color="#c2c7c1"
         offset=".86274"
         id="stop312" />
      <stop
         stop-color="#7f7a75"
         offset=".94118"
         id="stop314" />
    </linearGradient>
    <filter
       inkscape:collect="always"
       style="color-interpolation-filters:sRGB"
       id="filter1057"
       x="-0.026999999"
       width="1.054"
       y="-0.026999999"
       height="1.054">
      <feGaussianBlur
         inkscape:collect="always"
         stdDeviation="0.61875"
         id="feGaussianBlur1059" />
    </filter>
    <linearGradient
       inkscape:collect="always"
       xlink:href="#linearGradient1051"
       id="linearGradient1053"
       x1="-127"
       y1="60"
       x2="-72"
       y2="5"
       gradientUnits="userSpaceOnUse"
       gradientTransform="translate(131.5,-0.50999809)" />
    <linearGradient
       inkscape:collect="always"
       id="linearGradient1051">
      <stop
         style="stop-color:#df2a2a;stop-opacity:1"
         offset="0"
         id="stop1047" />
      <stop
         style="stop-color:#f83f3f;stop-opacity:1"
         offset="1"
         id="stop1049" />
    </linearGradient>
  </defs>
  <rect
     style="opacity:0.3;fill:#141414;fill-opacity:1;stroke-width:2.74436;stroke-linecap:round;filter:url(#filter1057)"
     id="rect1055"
     width="55"
     height="55"
     x="4.4999995"
     y="4.4999995"
     ry="15" />
  <rect
     ry="14.999999"
     y="4.5000019"
     x="4.5000019"
     height="54.999996"
     width="54.999996"
     id="rect1045"
     style="fill:url(#linearGradient1053);fill-opacity:1;stroke-width:2.74436;stroke-linecap:round" />
  <g
     transform="translate(-46.967003,16.415001)"
     id="g632">
    <circle
       cx="94.967003"
       cy="31.584999"
       r="16"
       fill="#323232"
       stroke-linecap="round"
       stroke-width="2.2865"
       id="circle626" />
    <circle
       cx="94.967003"
       cy="31.584999"
       r="11.911"
       opacity="0.15"
       stroke-width="3.4623"
       style="paint-order:stroke markers fill"
       id="circle628" />
    <path
       d="m 94.545,17.585 c -0.78109,0.02908 -1.2104,0.29129 -1.4902,0.8545 -0.17952,0.36141 -0.32625,0.96346 -0.32642,1.3381 -5.78e-4,1.3745 -1.3883,2.6284 -2.9104,2.6284 -0.74686,0 -1.1571,-0.20559 -2.6695,-1.3381 -0.68836,-0.51549 -1.1229,-0.38141 -2.1909,0.66993 -1.0147,0.99899 -1.0403,1.4774 -0.14185,2.6695 0.37129,0.49277 0.74748,1.1496 0.83569,1.4612 0.21817,0.7705 -0.13902,2.1809 -0.71266,2.8079 -0.47018,0.5139 -1.6377,0.91429 -2.6558,0.91429 -0.9681,0 -1.3159,0.55114 -1.3159,2.0764 0,1.1877 0.04559,1.3499 0.45287,1.6202 0.24891,0.1653 0.96793,0.37437 1.5996,0.46485 0.6317,0.09046 1.3609,0.3042 1.6184,0.47511 0.54366,0.36084 1.1738,1.6524 1.1792,2.4182 0.0044,0.556 -0.42365,1.539 -0.86476,1.9858 -0.48076,0.48698 -0.83244,1.3732 -0.70581,1.7773 0.16224,0.51776 1.2612,1.6249 1.8303,1.844 0.32597,0.12557 0.56278,0.08896 0.87841,-0.135 0.92514,-0.65634 2.5079,-1.3689 3.042,-1.3689 0.80516,0 2.1407,0.71057 2.4336,1.2954 0.13789,0.27549 0.3098,0.91761 0.3828,1.4253 0.17701,1.2312 0.45682,1.8106 0.92628,1.9107 0.21341,0.04524 0.55685,0.122 0.7622,0.16919 0.20536,0.04845 0.66771,0.04845 1.0271,0 0.93739,-0.12587 1.437,-0.8248 1.5945,-2.2302 0.14396,-1.285 0.26195,-1.4918 1.2083,-2.0969 0.96093,-0.61447 1.7131,-0.73445 2.4524,-0.39137 0.61298,0.28452 0.86072,0.43194 1.8662,1.1023 0.7367,0.49128 1.1958,0.41009 2.0473,-0.36915 1.2805,-1.1717 1.3063,-1.6812 0.15894,-3.0198 -1.0921,-1.2739 -1.1045,-2.8412 -0.0308,-4.045 0.41118,-0.46102 0.77986,-0.62138 1.9978,-0.86476 1.8389,-0.36742 2.1377,-0.66771 2.143,-2.1602 0.005,-1.4907 -0.23183,-1.7343 -1.9585,-2.0046 -1.643,-0.25727 -2.169,-0.62846 -2.7464,-1.9295 -0.47996,-1.0818 -0.34755,-1.7157 0.67678,-3.2009 0.52527,-0.76158 0.78674,-1.3174 0.72632,-1.5517 -0.135,-0.52293 -1.837,-2.0833 -2.273,-2.0833 -0.20191,0 -0.73952,0.29076 -1.1946,0.64258 -1.2553,0.97073 -2.0029,1.19 -3.0762,0.9023 -1.2611,-0.33783 -1.71,-0.87051 -2.0286,-2.4097 -0.3658,-1.7677 -0.60167,-2.0858 -1.6424,-2.2046 -0.34672,-0.03985 -0.64543,-0.05583 -0.9058,-0.04614 v -0.0034 z m 0.42213,8.75 a 5.2501,5.2501 0 0 1 5.2501,5.2501 5.2501,5.2501 0 0 1 -5.2501,5.2501 5.2501,5.2501 0 0 1 -5.2501,-5.2501 5.2501,5.2501 0 0 1 5.2501,-5.2501 z"
       fill="#ffffff"
       stroke-width="0.875"
       id="path630" />
  </g>
  <path
     d="m 22,15.75 h 20 v 7.5 H 27 v 5 h 7.5 v 5 H 27 v 15 h -5 z"
     id="path808"
     style="fill:#ffffff;fill-opacity:1" />
</svg>
