<?xml version="1.0" encoding="UTF-8" standalone="no"?>
<svg
   width="64"
   height="64"
   version="1"
   id="svg28"
   sodipodi:docname="kile.svg"
   inkscape:version="1.2.1 (9c6d41e410, 2022-07-14)"
   xmlns:inkscape="http://www.inkscape.org/namespaces/inkscape"
   xmlns:sodipodi="http://sodipodi.sourceforge.net/DTD/sodipodi-0.dtd"
   xmlns="http://www.w3.org/2000/svg"
   xmlns:svg="http://www.w3.org/2000/svg"
   xmlns:rdf="http://www.w3.org/1999/02/22-rdf-syntax-ns#"
   xmlns:cc="http://creativecommons.org/ns#"
   xmlns:dc="http://purl.org/dc/elements/1.1/">
  <sodipodi:namedview
     id="namedview30"
     pagecolor="#ffffff"
     bordercolor="#999999"
     borderopacity="1"
     inkscape:showpageshadow="0"
     inkscape:pageopacity="0"
     inkscape:pagecheckerboard="0"
     inkscape:deskcolor="#d1d1d1"
     showgrid="false"
     inkscape:zoom="6.84375"
     inkscape:cx="41.789954"
     inkscape:cy="38.648402"
     inkscape:window-width="1920"
     inkscape:window-height="1005"
     inkscape:window-x="0"
     inkscape:window-y="0"
     inkscape:window-maximized="1"
     inkscape:current-layer="svg28" />
  <title
     id="title2">Kile Icon</title>
  <defs
     id="defs10">
    <filter
       id="filter1057-3"
       x="-0.026999999"
       y="-0.026999999"
       width="1.054"
       height="1.054"
       color-interpolation-filters="sRGB">
      <feGaussianBlur
         stdDeviation="0.61875"
         id="feGaussianBlur4" />
    </filter>
    <filter
       id="filter1057-7"
       x="-0.026999999"
       y="-0.026999999"
       width="1.054"
       height="1.054"
       color-interpolation-filters="sRGB">
      <feGaussianBlur
         stdDeviation="0.61875"
         id="feGaussianBlur7" />
    </filter>
    <filter
       id="filter1057"
       x="-0.026999999"
       y="-0.026999999"
       width="1.054"
       height="1.054"
       color-interpolation-filters="sRGB">
      <feGaussianBlur
         stdDeviation="0.61875"
         id="feGaussianBlur858" />
    </filter>
    <linearGradient
       id="linearGradient1053"
       x1="-127"
       x2="-72"
       y1="60"
       y2="5"
       gradientTransform="translate(131.5,-0.51000007)"
       gradientUnits="userSpaceOnUse">
      <stop
         stop-color="#32d7ff"
         offset="0"
         id="stop861" />
      <stop
         stop-color="#329bff"
         offset="1"
         id="stop863" />
    </linearGradient>
  </defs>
  <metadata
     id="metadata12">
    <rdf:RDF>
      <cc:Work
         rdf:about="">
        <dc:title>Kile Icon</dc:title>
        <dc:date>2022-03-29</dc:date>
        <dc:creator>
          <cc:Agent>
            <dc:title>abu</dc:title>
          </cc:Agent>
        </dc:creator>
        <dc:rights>
          <cc:Agent>
            <dc:title>free</dc:title>
          </cc:Agent>
        </dc:rights>
        <cc:license
           rdf:resource="http://artlibre.org/licence/lal" />
      </cc:Work>
      <cc:License
         rdf:about="http://artlibre.org/licence/lal">
        <cc:permits
           rdf:resource="http://creativecommons.org/ns#Reproduction" />
        <cc:permits
           rdf:resource="http://creativecommons.org/ns#Distribution" />
        <cc:permits
           rdf:resource="http://creativecommons.org/ns#DerivativeWorks" />
        <cc:requires
           rdf:resource="http://creativecommons.org/ns#ShareAlike" />
        <cc:requires
           rdf:resource="http://creativecommons.org/ns#Notice" />
        <cc:requires
           rdf:resource="http://creativecommons.org/ns#Attribution" />
      </cc:License>
    </rdf:RDF>
  </metadata>
  <rect
     x="4.4999995"
     y="4.4999995"
     width="55"
     height="55"
     ry="15"
     fill="#141414"
     filter="url(#filter1057)"
     opacity="0.3"
     stroke-linecap="round"
     stroke-width="2.7444"
     id="rect894" />
  <rect
     x="4.5"
     y="4.5"
     width="55"
     height="55"
     ry="15"
     fill="url(#linearGradient1053)"
     stroke-linecap="round"
     stroke-width="2.7444"
     id="rect896"
     style="fill:url(#linearGradient1053)" />
  <path
     d="m 14.1164,18.0175 v 27.965 h 5.058801 v -12.383 l 11.225998,12.383 h 6.2464 V 45.66389 L 23.7356,31.56089 35.651599,18.17989 v -0.16082 h -6.2842 L 19.1744,29.84407 v -11.825 z m 29.188999,0.01821 c -3.5594,0.22051 -5.347,2.533 -5.347,5.9777 0,3.8175 2.472701,6.2508 5.905901,6.2508 3.6162,-3e-6 6.0193,-2.41 6.0193,-6.4663 0,-1.7895 -0.59491,-3.8175 -1.8308,-5.0582 l -1.7638,1.86 c 0.663719,0.66807 1.0537,2.076 1.0537,3.1496 0,2.0519 -1.0052,3.3169 -2.4013,3.5078 v -9.185 C 44.360619,18.01545 43.814,18.00421 43.305499,18.0357 Z m -0.6782,2.8281 v 6.3449 c -1.4648,-0.42948 -2.1946,-1.7175 -2.1946,-3.2923 0,-1.6701 0.72988,-2.8617 2.1946,-3.0526 z m -9.0409,11.44 v 2.8887 h 16 v -2.8887 z m 1.5339,5.2586 c -2.1743,0 -2.1743,3.438 0,3.438 2.1743,0 2.1743,-3.438 0,-3.438 z m 3.1377,0.26399 v 2.91 h 11.328 v -2.91 z"
     fill="#ffffff"
     stroke-width="1.5216"
     id="path520" />
</svg>
