<?xml version="1.0" encoding="UTF-8"?>
<svg width="64" height="64" version="1.1" xmlns="http://www.w3.org/2000/svg" xmlns:xlink="http://www.w3.org/1999/xlink">
 <defs>
  <filter id="filter1057" x="-.027" y="-.027" width="1.054" height="1.054" color-interpolation-filters="sRGB">
   <feGaussianBlur stdDeviation="0.61875"/>
  </filter>
  <linearGradient id="linearGradient1053" x1="-127" x2="-72" y1="60" y2="5" gradientTransform="translate(131.5 -.51)" gradientUnits="userSpaceOnUse">
   <stop stop-color="#32d7ff" offset="0"/>
   <stop stop-color="#329bff" offset="1"/>
  </linearGradient>
 </defs>
 <rect x="4.5" y="4.5" width="55" height="55" ry="15" fill="#141414" filter="url(#filter1057)" opacity=".3" stroke-linecap="round" stroke-width="2.7444"/>
 <rect x="4.5" y="4.5" width="55" height="55" ry="15" fill="url(#linearGradient1053)" stroke-linecap="round" stroke-width="2.7444"/>
 <rect width="64" height="64" rx="0" ry="0" fill="none" style="paint-order:stroke fill markers"/>
 <circle cx="32.02" cy="32.044" r="30.001" fill="none"/>
 <path d="M32.073 9c-3.767 0-6.733.65-9.974 2.186-6.967 3.303-11.82 9.918-12.932 17.63-.222 1.543-.223 4.646-.002 6.334.517 3.942 2.083 7.673 4.601 10.96.9 1.174 2.96 3.248 4.059 4.085 3.367 2.567 7.225 4.175 11.259 4.693 1.298.167 4.64.144 6.054-.042 4.093-.536 8.22-2.332 11.456-4.986 1.18-.967 2.957-2.838 3.868-4.07C53.525 41.648 55 37.193 55 32.085c0-3.88-.665-6.821-2.305-10.201-1.212-2.5-2.627-4.432-4.739-6.47-4.382-4.229-9.79-6.412-15.884-6.412zm-.076 3.484c3.345.003 5.892.605 8.863 2.096 1.959.982 3.48 2.114 5.153 3.83 2.682 2.755 4.384 5.973 5.174 9.784.299 1.438.412 4.752.217 6.318-.406 3.252-1.785 6.62-3.811 9.31-.747.99-2.53 2.79-3.56 3.594-1.939 1.513-3.947 2.557-6.411 3.334-.846.267-.988.27-.912.019.172-.57.294-1.338.336-2.127.066-1.25.858-3.232 1.65-4.135.697-.793.83-1.426.843-4.005.012-2.134.035-2.383.31-3.34.466-1.63.95-2.78 1.515-3.604a24.77 24.77 0 0 0 1.018-1.662 26.9 26.9 0 0 1 .882-1.482c.553-.835 1.735-1.99 2.318-2.264.652-.306 1.37-1.132 1.608-1.848.245-.736.17-1.897-.149-2.324-.188-.25-.308-.295-.79-.295-.442 0-.63-.06-.85-.265-.302-.284-.524-.245-.524.09 0 .263-.403.765-.52.649-.049-.049.003-.327.115-.62.41-1.068.543-1.751.478-2.442-.108-1.14-.818-2.882-1.204-2.956-.093-.018-.598.328-1.122.77-2.733 2.3-4.81 3.877-6.255 4.751-.69.417-.693.418-1.856.393-1.378-.03-1.573.042-3.87 1.435-.797.483-1.694.971-1.994 1.085-.302.115-1.26.281-2.142.372-1.812.186-2.297.299-2.974.69-.67.388-.839.676-.696 1.193.14.505.881 1.5 1.774 2.378l.672.66-.52.803a14.885 14.885 0 0 0-.954 1.81c-.476 1.104-.607 1.311-1.555 2.48-.822 1.011-1.732 2.468-2.583 4.135-.727 1.426-1.075 1.796-2.411 2.56-.747.428-.72.442-1.566-.835-1.55-2.337-2.62-5.123-3.048-7.942-.214-1.409-.21-4.33.008-5.801.334-2.244 1.187-4.7 2.354-6.769 1.583-2.81 4.475-5.705 7.272-7.282 3.073-1.733 6.177-2.544 9.718-2.541zm3.639 12.754-1.04 1.33-1.67.235 1.038-1.33z" fill="#fff"/>
</svg>
