<?xml version="1.0" encoding="UTF-8" standalone="no"?>
<svg
   width="64"
   height="64"
   viewBox="0 0 16.933333 16.933334"
   version="1.1"
   id="svg1548"
   inkscape:version="1.2.1 (9c6d41e410, 2022-07-14, custom)"
   sodipodi:docname="micro.svg"
   xmlns:inkscape="http://www.inkscape.org/namespaces/inkscape"
   xmlns:sodipodi="http://sodipodi.sourceforge.net/DTD/sodipodi-0.dtd"
   xmlns:xlink="http://www.w3.org/1999/xlink"
   xmlns="http://www.w3.org/2000/svg"
   xmlns:svg="http://www.w3.org/2000/svg"
   xmlns:rdf="http://www.w3.org/1999/02/22-rdf-syntax-ns#"
   xmlns:cc="http://creativecommons.org/ns#"
   xmlns:dc="http://purl.org/dc/elements/1.1/">
  <defs
     id="defs1542">
    <linearGradient
       inkscape:collect="always"
       id="linearGradient2006">
      <stop
         style="stop-color:#ffffff;stop-opacity:1"
         offset="0"
         id="stop2002" />
      <stop
         style="stop-color:#e1b2fb;stop-opacity:1"
         offset="1"
         id="stop2004" />
    </linearGradient>
    <filter
       id="filter1057"
       x="-0.026999999"
       y="-0.026999999"
       width="1.054"
       height="1.054"
       color-interpolation-filters="sRGB">
      <feGaussianBlur
         stdDeviation="0.61875"
         id="feGaussianBlur1096" />
    </filter>
    <linearGradient
       id="linearGradient1053"
       x1="-127"
       x2="-72"
       y1="60"
       y2="5"
       gradientTransform="matrix(0.26458,0,0,0.26458,20.93,4.2443)"
       gradientUnits="userSpaceOnUse">
      <stop
         stop-color="#a53cff"
         offset="0"
         id="stop1099" />
      <stop
         stop-color="#b496ff"
         offset="1"
         id="stop1101" />
    </linearGradient>
    <radialGradient
       id="radialGradient1028"
       cx="17.056"
       cy="16.999001"
       r="7.1673002"
       gradientTransform="matrix(0.5988918,0,0,0.5988918,-1.7478338,-1.0691814)"
       gradientUnits="userSpaceOnUse">
      <stop
         stop-opacity="0"
         offset="0"
         id="stop1072" />
      <stop
         stop-opacity="0"
         offset=".63229"
         id="stop1074" />
      <stop
         stop-opacity=".0078431"
         offset=".64048"
         id="stop1076" />
      <stop
         stop-opacity=".019608"
         offset=".6508"
         id="stop1078" />
      <stop
         stop-opacity=".031373"
         offset=".6625"
         id="stop1080" />
      <stop
         stop-opacity=".047059"
         offset=".67694"
         id="stop1082" />
      <stop
         stop-opacity=".070588"
         offset=".69414"
         id="stop1084" />
      <stop
         stop-opacity=".086275"
         offset=".70859"
         id="stop1086" />
      <stop
         stop-opacity=".9"
         offset="1"
         id="stop1088" />
    </radialGradient>
    <linearGradient
       id="linearGradient1026"
       x1="18.527"
       x2="18.527"
       y1="9.2110996"
       y2="26.183001"
       gradientTransform="matrix(0.50000985,0,0,0.50000985,-17.973523,-0.0513613)"
       gradientUnits="userSpaceOnUse">
      <stop
         stop-color="#fff"
         offset="0"
         id="stop1091" />
      <stop
         stop-color="#e1b2fb"
         offset="1"
         id="stop1093" />
    </linearGradient>
    <linearGradient
       inkscape:collect="always"
       xlink:href="#linearGradient2006"
       id="linearGradient2008"
       x1="8.4666672"
       y1="2.9529388"
       x2="8.4666672"
       y2="14.139438"
       gradientUnits="userSpaceOnUse" />
  </defs>
  <sodipodi:namedview
     id="base"
     pagecolor="#ffffff"
     bordercolor="#666666"
     borderopacity="1.0"
     inkscape:pageopacity="0.0"
     inkscape:pageshadow="2"
     inkscape:zoom="2.8"
     inkscape:cx="-17.142857"
     inkscape:cy="0"
     inkscape:document-units="mm"
     inkscape:current-layer="layer1"
     inkscape:document-rotation="0"
     showgrid="false"
     units="px"
     inkscape:window-width="1920"
     inkscape:window-height="982"
     inkscape:window-x="0"
     inkscape:window-y="0"
     inkscape:window-maximized="1"
     inkscape:showpageshadow="0"
     inkscape:pagecheckerboard="0"
     inkscape:deskcolor="#d1d1d1" />
  <metadata
     id="metadata1545">
    <rdf:RDF>
      <cc:Work
         rdf:about="">
        <dc:format>image/svg+xml</dc:format>
        <dc:type
           rdf:resource="http://purl.org/dc/dcmitype/StillImage" />
      </cc:Work>
    </rdf:RDF>
  </metadata>
  <g
     inkscape:label="Capa 1"
     inkscape:groupmode="layer"
     id="layer1">
    <g
       transform="matrix(1.0000197,0,0,1.0000197,13.863213,-4.3793466)"
       stroke-linecap="round"
       id="g1112">
      <rect
         transform="matrix(0.26458,0,0,0.26458,-13.863,4.3792)"
         x="4.5"
         y="4.5"
         width="55"
         height="55"
         ry="15"
         fill="#141414"
         filter="url(#filter1057)"
         opacity="0.3"
         stroke-width="2.7444"
         id="rect1108" />
      <rect
         x="-12.672"
         y="5.5697999"
         width="14.552"
         height="14.552"
         ry="3.9686999"
         fill="url(#linearGradient1053)"
         stroke-width="0.7261"
         id="rect1110"
         style="fill:url(#linearGradient1053)" />
    </g>
    <path
       d="m 8.4666667,2.9529388 c -3.089295,0 -5.593249,2.5039546 -5.593249,5.5932494 0,3.0892938 2.503954,5.5932498 5.593249,5.5932498 3.0892953,0 5.5932493,-2.503956 5.5932493,-5.5932498 0,-3.0892948 -2.503954,-5.5932494 -5.5932493,-5.5932494 z m 2.6557103,6.3520231 c -0.0542,0.216793 -0.140916,0.3902268 -0.260151,0.5311421 -0.108396,0.1409152 -0.216793,0.227633 -0.336029,0.270991 -0.119236,0.04336 -0.238471,0.06504 -0.368548,0.06504 -0.130075,0 -0.2384713,-0.02168 -0.3251883,-0.07588 -0.08672,-0.04336 -0.151755,-0.1192368 -0.205953,-0.2059537 -0.0542,-0.086717 -0.08672,-0.1951136 -0.108396,-0.314349 -0.02168,-0.1192364 -0.03252,-0.249312 -0.03252,-0.3902273 0,-0.054196 0,-0.1083963 0.01084,-0.1842735 0.01084,-0.075877 0.02168,-0.1734338 0.03251,-0.1734338 h -0.02168 c -0.173434,0.4335845 -0.411906,0.7479346 -0.715415,0.9972456 -0.303509,0.2493117 -0.639539,0.3685477 -1.008086,0.3685477 -0.249312,0 -0.455265,-0.09756 -0.59618,-0.2818308 -0.151755,-0.1842735 -0.227633,-0.4661035 -0.227633,-0.8346515 0,-0.054196 0,-0.1083962 0.01084,-0.1734337 0.01084,-0.054196 0.01084,-0.075877 0.02168,-0.184274 h -0.07587 c -0.09756,0.2167925 -0.184274,0.5203024 -0.249312,0.7912932 -0.06504,0.2709909 -0.119236,0.5203028 -0.151755,0.7479348 -0.04336,0.227632 -0.06504,0.433585 -0.08672,0.607019 -0.02168,0.173434 -0.03252,0.29267 -0.04336,0.357708 0.01084,0.0542 0.02168,0.108396 0.03252,0.173434 0.02168,0.06504 0.03252,0.130075 0.0542,0.184274 0.02168,0.05419 0.03252,0.119236 0.04336,0.173434 0.01084,0.0542 0.02168,0.09756 0.02168,0.130075 0,0.151755 -0.03252,0.270991 -0.09756,0.346869 -0.06504,0.07588 -0.140915,0.119235 -0.216792,0.119235 -0.09756,0 -0.184274,-0.03252 -0.249312,-0.08672 -0.07588,-0.06504 -0.108397,-0.162595 -0.108397,-0.29267 0,-0.184273 0.03252,-0.422745 0.09756,-0.704575 0.06504,-0.281832 0.162594,-0.639539 0.28183,-1.062285 0.06504,-0.195113 0.119236,-0.3902259 0.184274,-0.5853395 0.06504,-0.1951137 0.119236,-0.3793871 0.173435,-0.5419818 0.0542,-0.1625941 0.09756,-0.314349 0.140914,-0.4444246 0.04336,-0.1300756 0.06504,-0.2276317 0.07588,-0.3035094 0.01084,-0.032519 0.02168,-0.1083968 0.03252,-0.216793 0.01084,-0.1083962 0.02168,-0.2276322 0.04336,-0.3685474 0.02168,-0.1409153 0.03251,-0.2926703 0.0542,-0.4444252 0.02168,-0.1625936 0.04336,-0.3035089 0.0542,-0.433585 0.02168,-0.097556 0.03252,-0.2059528 0.0542,-0.3251887 0.02168,-0.1192359 0.0542,-0.2384719 0.09756,-0.3360284 0.04336,-0.1083963 0.108397,-0.1951137 0.184274,-0.2709909 0.07588,-0.075877 0.173434,-0.1083958 0.29267,-0.1083958 0.130075,0 0.216793,0.043358 0.260151,0.119235 0.04336,0.075878 0.06504,0.1734348 0.0542,0.2818305 -0.01084,0.1083963 -0.02168,0.2276327 -0.0542,0.3468686 -0.03252,0.1192359 -0.06504,0.2276322 -0.09756,0.3143496 -0.08672,0.2709903 -0.173433,0.5203018 -0.27099,0.7262547 -0.09756,0.2059533 -0.184274,0.4335855 -0.260151,0.6720568 -0.06504,0.1625946 -0.08672,0.3143496 -0.08672,0.4444252 0,0.2384718 0.07588,0.4119056 0.216793,0.5419812 0.151755,0.1300761 0.325189,0.184274 0.531142,0.184274 0.162595,0 0.325189,-0.054196 0.476944,-0.1734338 0.151754,-0.119236 0.29267,-0.2601517 0.422745,-0.4227453 0.130076,-0.1625947 0.238472,-0.3360295 0.325189,-0.5311421 0.08672,-0.184274 0.151755,-0.3577083 0.195113,-0.4986235 0.01084,-0.021681 0.02168,-0.065038 0.03252,-0.1517545 0.02168,-0.086717 0.03252,-0.184274 0.0542,-0.2926702 0.02168,-0.1083963 0.04336,-0.2167925 0.06504,-0.3360289 0.02168,-0.1192349 0.04336,-0.216792 0.0542,-0.2926697 0.02168,-0.086717 0.03251,-0.1734338 0.0542,-0.2818306 0.02168,-0.1083957 0.0542,-0.2059528 0.09755,-0.3035094 0.04336,-0.097557 0.108396,-0.1734343 0.173434,-0.2384718 0.07588,-0.065038 0.1625953,-0.097557 0.2818303,-0.097557 0.140915,0 0.227633,0.043363 0.281831,0.1192364 0.04336,0.075877 0.06504,0.1734333 0.06504,0.2818301 -0.01084,0.1083962 -0.02168,0.2167925 -0.0542,0.3251882 -0.03252,0.1083968 -0.0542,0.1951137 -0.07588,0.2601517 -0.08672,0.2709904 -0.173435,0.5094622 -0.260151,0.7262552 -0.08672,0.216792 -0.1625953,0.4119062 -0.2384733,0.5636606 -0.06504,0.1625946 -0.119235,0.28183 -0.162594,0.3793866 -0.04336,0.097557 -0.06504,0.1625946 -0.06504,0.1951137 0,0.2818305 0.06504,0.4877833 0.184274,0.6070192 0.119236,0.1192365 0.2493123,0.1842745 0.3902273,0.1842745 0.238472,0 0.422745,-0.075878 0.56366,-0.2167935 0.140916,-0.1517549 0.249313,-0.4227453 0.31435,-0.747934 h 0.08672 c 0.02168,0.3143495 -0.01084,0.5745002 -0.06504,0.7912927 z"
       id="path1419"
       inkscape:connector-curvature="0"
       style="fill:url(#linearGradient2008);fill-opacity:1;stroke-width:0.108396" />
  </g>
</svg>
