<?xml version="1.0" encoding="UTF-8" standalone="no"?>
<svg
   width="64"
   height="64"
   version="1.1"
   viewBox="0 0 16.933 16.933"
   id="svg24"
   sodipodi:docname="moonlight-stream.svg"
   xml:space="preserve"
   inkscape:version="1.2.2 (b0a8486541, 2022-12-01)"
   xmlns:inkscape="http://www.inkscape.org/namespaces/inkscape"
   xmlns:sodipodi="http://sodipodi.sourceforge.net/DTD/sodipodi-0.dtd"
   xmlns="http://www.w3.org/2000/svg"
   xmlns:svg="http://www.w3.org/2000/svg"
   xmlns:rdf="http://www.w3.org/1999/02/22-rdf-syntax-ns#"
   xmlns:cc="http://creativecommons.org/ns#"
   xmlns:dc="http://purl.org/dc/elements/1.1/"><sodipodi:namedview
     id="namedview26"
     pagecolor="#ffffff"
     bordercolor="#999999"
     borderopacity="1"
     inkscape:showpageshadow="0"
     inkscape:pageopacity="0"
     inkscape:pagecheckerboard="0"
     inkscape:deskcolor="#d1d1d1"
     showgrid="false"
     inkscape:zoom="3.3203125"
     inkscape:cx="46.381176"
     inkscape:cy="18.823529"
     inkscape:window-width="1920"
     inkscape:window-height="1005"
     inkscape:window-x="0"
     inkscape:window-y="0"
     inkscape:window-maximized="1"
     inkscape:current-layer="svg24" /><defs
     id="defs10"><filter
       id="filter1057-2"
       x="-0.026999999"
       y="-0.026999999"
       width="1.054"
       height="1.054"
       color-interpolation-filters="sRGB"><feGaussianBlur
         stdDeviation="0.61875"
         id="feGaussianBlur2" /></filter><linearGradient
       id="linearGradient1053-9"
       x1="-127"
       x2="-72"
       y1="60"
       y2="5"
       gradientTransform="matrix(.26458 0 0 .26458 34.878 1.3203)"
       gradientUnits="userSpaceOnUse"><stop
         stop-color="#96aab4"
         offset="0"
         id="stop5" /><stop
         stop-color="#a0b4c3"
         stop-opacity=".99608"
         offset="1"
         id="stop7" /></linearGradient></defs><metadata
     id="metadata12"><rdf:RDF><cc:Work
         rdf:about=""><dc:format>image/svg+xml</dc:format><dc:type
           rdf:resource="http://purl.org/dc/dcmitype/StillImage" /><dc:title /></cc:Work></rdf:RDF></metadata><rect
     transform="scale(0.26458)"
     x="4.5"
     y="4.5"
     width="55"
     height="55"
     ry="15"
     fill="#141414"
     filter="url(#filter1057-2)"
     opacity="0.3"
     stroke-linecap="round"
     stroke-width="2.7444"
     id="rect14" /><rect
     x="1.190655"
     y="1.1906002"
     width="14.552"
     height="14.552"
     ry="3.9686999"
     stroke-linecap="round"
     stroke-width="0.72611"
     id="rect16"
     style="fill:#555c64;fill-opacity:1" /><path
     id="circle18"
     style="opacity:1;fill:#fefefe;fill-opacity:1"
     d="M 8.7243603 3.1816553 L 8.7243603 7.8438112 L 12.021252 4.5469198 A 5.2915626 5.2915626 0 0 0 8.7243603 3.1816553 z M 8.2086397 3.1847558 A 5.2915626 5.2915626 0 0 0 4.9132985 4.54847 L 8.2086397 7.8438112 L 8.2086397 3.1847558 z M 12.38608 4.9117482 L 9.0891888 8.2086397 L 13.751345 8.2086397 A 5.2915626 5.2915626 0 0 0 12.38608 4.9117482 z M 4.54847 4.9132985 A 5.2915626 5.2915626 0 0 0 3.1847558 8.2086397 L 7.8438112 8.2086397 L 4.54847 4.9132985 z M 3.1847558 8.7243603 A 5.2915626 5.2915626 0 0 0 4.54847 12.019702 L 7.8438112 8.7243603 L 3.1847558 8.7243603 z M 9.0891888 8.7243603 L 12.38453 12.019702 A 5.2915626 5.2915626 0 0 0 13.748244 8.7243603 L 9.0891888 8.7243603 z M 8.2086397 9.0891888 L 4.9132985 12.38453 A 5.2915626 5.2915626 0 0 0 8.2086397 13.748244 L 8.2086397 9.0891888 z M 8.7243603 9.0891888 L 8.7243603 13.748244 A 5.2915626 5.2915626 0 0 0 12.019702 12.38453 L 8.7243603 9.0891888 z " /></svg>
