<?xml version="1.0" encoding="UTF-8" standalone="no"?>
<svg
   viewBox="0 0 64 64"
   version="1.1"
   id="svg33"
   sodipodi:docname="seafile.svg"
   xml:space="preserve"
   width="64"
   height="64"
   inkscape:version="1.2.1 (9c6d41e410, 2022-07-14)"
   xmlns:inkscape="http://www.inkscape.org/namespaces/inkscape"
   xmlns:sodipodi="http://sodipodi.sourceforge.net/DTD/sodipodi-0.dtd"
   xmlns:xlink="http://www.w3.org/1999/xlink"
   xmlns="http://www.w3.org/2000/svg"
   xmlns:svg="http://www.w3.org/2000/svg"><sodipodi:namedview
     id="namedview35"
     pagecolor="#ffffff"
     bordercolor="#999999"
     borderopacity="1"
     inkscape:showpageshadow="0"
     inkscape:pageopacity="0"
     inkscape:pagecheckerboard="0"
     inkscape:deskcolor="#d1d1d1"
     showgrid="false"
     inkscape:zoom="4.5625"
     inkscape:cx="28.931507"
     inkscape:cy="21.69863"
     inkscape:window-width="1920"
     inkscape:window-height="1004"
     inkscape:window-x="0"
     inkscape:window-y="0"
     inkscape:window-maximized="1"
     inkscape:current-layer="svg33" /><defs
     id="defs7"><linearGradient
       inkscape:collect="always"
       id="linearGradient1523"><stop
         style="stop-color:#fad653;stop-opacity:0.99607843"
         offset="0"
         id="stop1519" /><stop
         style="stop-color:#ffa20e;stop-opacity:0.94509804"
         offset="1"
         id="stop1521" /></linearGradient><linearGradient
       id="linearGradient3764"
       x1="1"
       x2="47"
       gradientUnits="userSpaceOnUse"
       gradientTransform="rotate(-90,23.999998,24)"><stop
         style="stop-color:#ecc85c;stop-opacity:1"
         id="stop2" /><stop
         offset="1"
         style="stop-color:#eecf6d;stop-opacity:1"
         id="stop4" /></linearGradient><filter
       inkscape:collect="always"
       style="color-interpolation-filters:sRGB"
       id="filter1057"
       x="-0.026999999"
       width="1.054"
       y="-0.026999999"
       height="1.054"><feGaussianBlur
         inkscape:collect="always"
         stdDeviation="0.61875"
         id="feGaussianBlur1059" /></filter><linearGradient
       inkscape:collect="always"
       xlink:href="#linearGradient1051"
       id="linearGradient1053"
       x1="-127"
       y1="60"
       x2="-72"
       y2="5"
       gradientUnits="userSpaceOnUse"
       gradientTransform="translate(131.5,-0.509996)" /><linearGradient
       inkscape:collect="always"
       id="linearGradient1051"><stop
         style="stop-color:#dee0e2;stop-opacity:1"
         offset="0"
         id="stop1047" /><stop
         style="stop-color:#f1f3f5;stop-opacity:0.99607843"
         offset="1"
         id="stop1049" /></linearGradient><linearGradient
       inkscape:collect="always"
       xlink:href="#linearGradient1523"
       id="linearGradient666"
       x1="12"
       y1="18.429543"
       x2="52"
       y2="45.570457"
       gradientUnits="userSpaceOnUse" /></defs><g
     transform="translate(-44.440678,2.7457627)"
     id="g23"><g
       id="g21"><!-- color: #eecf6d --></g></g><rect
     ry="15"
     y="4.4999995"
     x="4.5"
     height="55"
     width="55"
     id="rect1055"
     style="opacity:0.3;fill:#141414;fill-opacity:1;stroke-width:2.74436;stroke-linecap:round;filter:url(#filter1057)" /><rect
     style="fill:url(#linearGradient1053);fill-opacity:1;stroke-width:2.74436;stroke-linecap:round"
     id="rect1045"
     width="54.999996"
     height="54.999996"
     x="4.5000019"
     y="4.5000033"
     ry="14.999999" /><path
     d="m 25.644647,18.429543 c -2.165545,0 -5.252446,1.60416 -5.695269,4.496791 -0.291405,1.905566 -0.394255,1.992702 -2.359816,1.992702 -1.777003,0 -3.672569,1.892708 -3.672569,3.538294 0,0.597096 -0.02571,0.875646 -0.998494,0.875646 -0.488532,0 -0.918499,0.347116 -0.918499,1.039919 0,0.944211 0.535672,0.829935 3.542581,0.829935 3.342595,0 3.511153,0.06285 4.072538,-0.87279 2.505518,-3.594004 7.125156,-3.475442 9.553538,-1.669868 0.629951,-1.842714 1.462743,-3.025478 2.856919,-4.246812 -0.707087,-4.033969 -3.752564,-5.915251 -6.383786,-5.983817 m 12.234757,5.609561 c -4.578213,0.209984 -7.332283,3.229748 -8.097938,7.362281 -2.469807,-3.346881 -6.386643,-2.644079 -8.200787,-1.057059 -1.814143,1.587018 -2.505518,4.135389 -1.919849,5.835257 0.409968,1.18705 0.408539,1.319897 -1.34561,2.405526 -3.381164,2.092693 -1.494169,7.088017 2.978339,6.98374 2.214113,-0.05143 2.919771,-0.511388 7.156582,-5.256732 5.425291,-6.079525 6.070955,-6.385215 8.853594,-6.385215 3.525445,0.102845 5.166746,2.978338 5.082467,5.466715 -0.107131,3.14404 -3.095472,3.44973 -4.055405,2.211256 -1.582733,-1.788432 -0.215697,-4.019686 1.021356,-4.268238 -1.237053,-0.581382 -4.67107,0.208556 -4.67107,3.949692 0,4.158246 3.79256,4.282522 4.192529,4.282522 h 9.182147 c 0.798508,0 1.641299,-0.788511 2.208398,-1.379892 1.411318,-1.469885 2.069838,-3.428303 1.575591,-5.255303 -0.997065,-3.691141 -4.119677,-5.202451 -6.208085,-2.314105 2.506946,-7.759393 -3.225463,-12.656153 -7.747973,-12.581873 z"
     style="fill:url(#linearGradient666);fill-opacity:1;stroke-width:1.42846"
     id="path604" /></svg>
